M48
;GenerationSoftware,Autodesk,EAGLE,9.6.2*%
;CreationDate,2025-04-23T13:56:34Z*%
FMAT,2
ICI,OFF
METRIC,TZ,000.000
T4C0.813
T3C1.000
T2C1.016
T1C3.000
%
G90
M71
T1
X76175Y96825
X40335Y96825
X76175Y22555
X40335Y22555
T2
X74930Y88900
X74930Y91440
X74930Y50800
X74930Y53340
X74930Y58420
X74930Y55880
X74930Y60960
X74930Y63500
X74930Y66040
X74930Y68580
X74930Y27940
X74930Y30480
X74930Y33020
X74930Y35560
X74930Y38100
X74930Y40640
X74930Y43180
X74930Y45720
X62230Y25400
X59690Y25400
X57150Y25400
X54610Y25400
X62230Y0
X59690Y0
X54610Y0
X54610Y3810
X74930Y76200
X57150Y3810
X59690Y3810
X62230Y3810
X54610Y21590
X57150Y21590
X59690Y21590
X62230Y21590
X74930Y73660
X57150Y0
X74930Y78740
X74930Y81280
X74930Y83820
X74930Y86360
T3
X40640Y53340
X60960Y66040
X60960Y68580
X60960Y71120
X60960Y73660
X40640Y83820
X40640Y81280
X40640Y78740
X40640Y76200
X40640Y73660
X40640Y71120
X40640Y68580
X40640Y66040
X40640Y63500
X40640Y60960
X40640Y58420
X40640Y55880
X60960Y55880
X40640Y50800
X40640Y48260
X40640Y45720
X60960Y45720
X60960Y48260
X60960Y50800
X60960Y53340
X60960Y58420
X60960Y60960
X60960Y63500
T4
X53975Y48260
X53975Y33020
X57150Y45720
X57150Y30480
X55880Y58420
X49530Y58420
M30