G04 EAGLE Gerber RS-274X export*
G75*
%MOMM*%
%FSLAX34Y34*%
%LPD*%
%INBottomLayer*%
%IPPOS*%
%AMOC8*
5,1,8,0,0,1.08239X$1,22.5*%
G01*
%ADD10C,1.812800*%
%ADD11C,1.828800*%
%ADD12C,0.812800*%
%ADD13C,1.270000*%
%ADD14C,0.406400*%
%ADD15C,1.625600*%

G36*
X805706Y-35557D02*
X805706Y-35557D01*
X805724Y-35559D01*
X805906Y-35538D01*
X806089Y-35519D01*
X806106Y-35514D01*
X806123Y-35512D01*
X806298Y-35455D01*
X806474Y-35401D01*
X806489Y-35393D01*
X806506Y-35387D01*
X806666Y-35297D01*
X806828Y-35209D01*
X806841Y-35198D01*
X806857Y-35189D01*
X806996Y-35069D01*
X807137Y-34952D01*
X807148Y-34938D01*
X807162Y-34926D01*
X807274Y-34781D01*
X807389Y-34638D01*
X807397Y-34622D01*
X807408Y-34608D01*
X807490Y-34443D01*
X807575Y-34281D01*
X807580Y-34264D01*
X807588Y-34248D01*
X807635Y-34069D01*
X807686Y-33894D01*
X807688Y-33876D01*
X807692Y-33859D01*
X807719Y-33528D01*
X807719Y998728D01*
X807717Y998746D01*
X807719Y998764D01*
X807698Y998946D01*
X807679Y999129D01*
X807674Y999146D01*
X807672Y999163D01*
X807615Y999338D01*
X807561Y999514D01*
X807553Y999529D01*
X807547Y999546D01*
X807457Y999706D01*
X807369Y999868D01*
X807358Y999881D01*
X807349Y999897D01*
X807229Y1000036D01*
X807112Y1000177D01*
X807098Y1000188D01*
X807086Y1000202D01*
X806941Y1000314D01*
X806798Y1000429D01*
X806782Y1000437D01*
X806768Y1000448D01*
X806603Y1000530D01*
X806441Y1000615D01*
X806424Y1000620D01*
X806408Y1000628D01*
X806229Y1000675D01*
X806054Y1000726D01*
X806036Y1000728D01*
X806019Y1000732D01*
X805688Y1000759D01*
X791026Y1000759D01*
X790854Y1000742D01*
X790682Y1000730D01*
X790654Y1000722D01*
X790625Y1000719D01*
X790460Y1000669D01*
X790294Y1000623D01*
X790268Y1000610D01*
X790240Y1000601D01*
X790089Y1000519D01*
X789935Y1000441D01*
X789912Y1000423D01*
X789886Y1000409D01*
X789754Y1000299D01*
X789618Y1000193D01*
X789600Y1000170D01*
X789577Y1000152D01*
X789469Y1000017D01*
X789357Y999886D01*
X789343Y999861D01*
X789325Y999838D01*
X789245Y999685D01*
X789162Y999534D01*
X789153Y999506D01*
X789139Y999481D01*
X789092Y999315D01*
X789039Y999151D01*
X789036Y999122D01*
X789028Y999094D01*
X789014Y998922D01*
X788995Y998751D01*
X788997Y998722D01*
X788995Y998692D01*
X789015Y998521D01*
X789030Y998350D01*
X789038Y998322D01*
X789042Y998293D01*
X789095Y998128D01*
X789144Y997963D01*
X789158Y997938D01*
X789167Y997910D01*
X789252Y997759D01*
X789332Y997607D01*
X789352Y997582D01*
X789365Y997559D01*
X789420Y997495D01*
X789537Y997346D01*
X795306Y991129D01*
X800559Y980220D01*
X802364Y968248D01*
X800559Y956276D01*
X795306Y945367D01*
X787071Y936492D01*
X776585Y930438D01*
X765795Y927975D01*
X765619Y927916D01*
X765445Y927861D01*
X765430Y927853D01*
X765413Y927847D01*
X765253Y927755D01*
X765092Y927666D01*
X765079Y927655D01*
X765064Y927646D01*
X764926Y927525D01*
X764785Y927406D01*
X764775Y927392D01*
X764761Y927380D01*
X764649Y927234D01*
X764536Y927090D01*
X764528Y927074D01*
X764517Y927060D01*
X764437Y926895D01*
X764353Y926731D01*
X764349Y926714D01*
X764341Y926698D01*
X764295Y926521D01*
X764245Y926343D01*
X764244Y926326D01*
X764240Y926309D01*
X764229Y926125D01*
X764216Y925941D01*
X764218Y925924D01*
X764217Y925907D01*
X764243Y925725D01*
X764266Y925542D01*
X764272Y925525D01*
X764274Y925508D01*
X764336Y925334D01*
X764395Y925160D01*
X764403Y925145D01*
X764409Y925129D01*
X764504Y924971D01*
X764596Y924811D01*
X764608Y924797D01*
X764616Y924783D01*
X764665Y924729D01*
X764810Y924558D01*
X768350Y921019D01*
X770129Y916724D01*
X770129Y912076D01*
X768350Y907781D01*
X765063Y904494D01*
X762848Y903577D01*
X762840Y903572D01*
X762831Y903570D01*
X762661Y903477D01*
X762493Y903386D01*
X762486Y903381D01*
X762478Y903376D01*
X762330Y903252D01*
X762182Y903130D01*
X762177Y903123D01*
X762170Y903117D01*
X762050Y902967D01*
X761929Y902817D01*
X761925Y902809D01*
X761919Y902802D01*
X761832Y902633D01*
X761742Y902461D01*
X761739Y902452D01*
X761735Y902444D01*
X761683Y902262D01*
X761629Y902074D01*
X761628Y902065D01*
X761625Y902057D01*
X761611Y901866D01*
X761594Y901673D01*
X761595Y901664D01*
X761594Y901656D01*
X761618Y901465D01*
X761639Y901273D01*
X761642Y901265D01*
X761643Y901256D01*
X761703Y901074D01*
X761762Y900890D01*
X761767Y900882D01*
X761770Y900874D01*
X761865Y900706D01*
X761959Y900538D01*
X761964Y900532D01*
X761969Y900524D01*
X762096Y900378D01*
X762221Y900233D01*
X762228Y900227D01*
X762233Y900220D01*
X762386Y900103D01*
X762538Y899984D01*
X762546Y899980D01*
X762553Y899975D01*
X762848Y899823D01*
X765063Y898906D01*
X768350Y895619D01*
X770129Y891324D01*
X770129Y886676D01*
X768350Y882381D01*
X765063Y879094D01*
X762848Y878177D01*
X762840Y878172D01*
X762831Y878170D01*
X762661Y878077D01*
X762493Y877986D01*
X762486Y877981D01*
X762478Y877976D01*
X762330Y877852D01*
X762182Y877730D01*
X762177Y877723D01*
X762170Y877717D01*
X762050Y877567D01*
X761929Y877417D01*
X761925Y877409D01*
X761919Y877402D01*
X761832Y877233D01*
X761742Y877061D01*
X761739Y877052D01*
X761735Y877044D01*
X761683Y876862D01*
X761629Y876674D01*
X761628Y876665D01*
X761625Y876657D01*
X761611Y876466D01*
X761594Y876273D01*
X761595Y876264D01*
X761594Y876256D01*
X761618Y876065D01*
X761639Y875873D01*
X761642Y875865D01*
X761643Y875856D01*
X761703Y875674D01*
X761762Y875490D01*
X761767Y875482D01*
X761770Y875474D01*
X761865Y875306D01*
X761959Y875138D01*
X761964Y875132D01*
X761969Y875124D01*
X762096Y874978D01*
X762221Y874833D01*
X762228Y874827D01*
X762233Y874820D01*
X762386Y874703D01*
X762538Y874584D01*
X762546Y874580D01*
X762553Y874575D01*
X762848Y874423D01*
X765063Y873506D01*
X768350Y870219D01*
X770129Y865924D01*
X770129Y861276D01*
X768350Y856981D01*
X765063Y853694D01*
X762848Y852777D01*
X762840Y852772D01*
X762831Y852770D01*
X762662Y852677D01*
X762493Y852586D01*
X762486Y852581D01*
X762478Y852576D01*
X762331Y852453D01*
X762182Y852330D01*
X762177Y852323D01*
X762170Y852317D01*
X762049Y852166D01*
X761929Y852017D01*
X761925Y852010D01*
X761919Y852002D01*
X761830Y851829D01*
X761742Y851661D01*
X761739Y851652D01*
X761735Y851644D01*
X761682Y851458D01*
X761629Y851274D01*
X761628Y851265D01*
X761625Y851257D01*
X761611Y851066D01*
X761594Y850873D01*
X761595Y850864D01*
X761594Y850856D01*
X761618Y850664D01*
X761639Y850473D01*
X761642Y850465D01*
X761643Y850456D01*
X761703Y850273D01*
X761762Y850090D01*
X761767Y850082D01*
X761769Y850074D01*
X761865Y849907D01*
X761959Y849738D01*
X761965Y849732D01*
X761969Y849724D01*
X762095Y849580D01*
X762220Y849433D01*
X762228Y849427D01*
X762233Y849420D01*
X762386Y849303D01*
X762538Y849184D01*
X762545Y849180D01*
X762553Y849175D01*
X762848Y849023D01*
X765063Y848106D01*
X768350Y844819D01*
X770129Y840524D01*
X770129Y835876D01*
X768350Y831581D01*
X765063Y828294D01*
X763300Y827564D01*
X762848Y827377D01*
X762840Y827372D01*
X762831Y827370D01*
X762662Y827277D01*
X762493Y827186D01*
X762486Y827181D01*
X762478Y827176D01*
X762331Y827053D01*
X762182Y826930D01*
X762177Y826923D01*
X762170Y826917D01*
X762049Y826766D01*
X761929Y826617D01*
X761925Y826610D01*
X761919Y826602D01*
X761830Y826429D01*
X761742Y826261D01*
X761739Y826252D01*
X761735Y826244D01*
X761682Y826056D01*
X761629Y825874D01*
X761628Y825865D01*
X761625Y825857D01*
X761610Y825664D01*
X761594Y825473D01*
X761595Y825464D01*
X761594Y825456D01*
X761618Y825264D01*
X761639Y825073D01*
X761642Y825065D01*
X761643Y825056D01*
X761703Y824873D01*
X761762Y824690D01*
X761767Y824682D01*
X761769Y824674D01*
X761865Y824507D01*
X761959Y824338D01*
X761965Y824332D01*
X761969Y824324D01*
X762095Y824180D01*
X762220Y824033D01*
X762228Y824027D01*
X762233Y824020D01*
X762386Y823903D01*
X762538Y823784D01*
X762545Y823780D01*
X762553Y823775D01*
X762848Y823623D01*
X765063Y822706D01*
X768350Y819419D01*
X770129Y815124D01*
X770129Y810476D01*
X768350Y806181D01*
X765063Y802894D01*
X762848Y801977D01*
X762840Y801972D01*
X762831Y801970D01*
X762662Y801877D01*
X762493Y801786D01*
X762486Y801781D01*
X762478Y801776D01*
X762331Y801653D01*
X762182Y801530D01*
X762177Y801523D01*
X762170Y801517D01*
X762049Y801366D01*
X761929Y801217D01*
X761925Y801210D01*
X761919Y801202D01*
X761830Y801029D01*
X761742Y800861D01*
X761739Y800852D01*
X761735Y800844D01*
X761682Y800658D01*
X761629Y800474D01*
X761628Y800465D01*
X761625Y800457D01*
X761611Y800266D01*
X761594Y800073D01*
X761595Y800064D01*
X761594Y800056D01*
X761618Y799864D01*
X761639Y799673D01*
X761642Y799665D01*
X761643Y799656D01*
X761703Y799473D01*
X761762Y799290D01*
X761767Y799282D01*
X761769Y799274D01*
X761865Y799107D01*
X761959Y798938D01*
X761965Y798932D01*
X761969Y798924D01*
X762095Y798780D01*
X762220Y798633D01*
X762228Y798627D01*
X762233Y798620D01*
X762386Y798503D01*
X762538Y798384D01*
X762545Y798380D01*
X762553Y798375D01*
X762848Y798223D01*
X765063Y797306D01*
X768350Y794019D01*
X770129Y789724D01*
X770129Y785076D01*
X768350Y780781D01*
X765063Y777494D01*
X762900Y776598D01*
X762821Y776556D01*
X762738Y776523D01*
X762644Y776461D01*
X762545Y776408D01*
X762476Y776351D01*
X762401Y776302D01*
X762321Y776223D01*
X762234Y776152D01*
X762178Y776082D01*
X762114Y776019D01*
X762052Y775926D01*
X761981Y775839D01*
X761939Y775760D01*
X761889Y775686D01*
X761846Y775582D01*
X761794Y775482D01*
X761769Y775397D01*
X761734Y775314D01*
X761712Y775204D01*
X761681Y775096D01*
X761673Y775007D01*
X761655Y774919D01*
X761656Y774807D01*
X761646Y774695D01*
X761656Y774606D01*
X761656Y774517D01*
X761679Y774406D01*
X761691Y774295D01*
X761718Y774210D01*
X761736Y774122D01*
X761780Y774019D01*
X761814Y773911D01*
X761858Y773833D01*
X761893Y773751D01*
X761956Y773658D01*
X762011Y773560D01*
X762069Y773492D01*
X762119Y773418D01*
X762199Y773340D01*
X762272Y773254D01*
X762343Y773199D01*
X762407Y773136D01*
X762501Y773075D01*
X762589Y773006D01*
X762669Y772966D01*
X762744Y772917D01*
X762808Y772890D01*
X764568Y771994D01*
X766056Y770913D01*
X767357Y769612D01*
X768438Y768124D01*
X769273Y766486D01*
X769841Y764736D01*
X769872Y764539D01*
X749808Y764539D01*
X749790Y764537D01*
X749773Y764539D01*
X749590Y764518D01*
X749408Y764499D01*
X749391Y764494D01*
X749373Y764492D01*
X749295Y764467D01*
X749158Y764506D01*
X749140Y764508D01*
X749123Y764512D01*
X748792Y764539D01*
X728728Y764539D01*
X728759Y764736D01*
X729327Y766486D01*
X730162Y768124D01*
X731243Y769612D01*
X732544Y770913D01*
X734032Y771994D01*
X735715Y772851D01*
X735717Y772852D01*
X735728Y772858D01*
X735813Y772901D01*
X735830Y772912D01*
X735918Y772951D01*
X735992Y773002D01*
X736070Y773045D01*
X736156Y773117D01*
X736248Y773182D01*
X736310Y773247D01*
X736378Y773304D01*
X736448Y773392D01*
X736526Y773473D01*
X736573Y773549D01*
X736629Y773619D01*
X736680Y773719D01*
X736740Y773814D01*
X736772Y773898D01*
X736813Y773977D01*
X736844Y774085D01*
X736884Y774190D01*
X736898Y774279D01*
X736923Y774365D01*
X736931Y774477D01*
X736950Y774588D01*
X736947Y774677D01*
X736954Y774766D01*
X736940Y774877D01*
X736936Y774990D01*
X736916Y775077D01*
X736905Y775166D01*
X736870Y775272D01*
X736844Y775382D01*
X736807Y775463D01*
X736779Y775548D01*
X736723Y775645D01*
X736676Y775748D01*
X736623Y775820D01*
X736579Y775898D01*
X736505Y775982D01*
X736439Y776073D01*
X736373Y776134D01*
X736315Y776201D01*
X736226Y776270D01*
X736143Y776346D01*
X736066Y776392D01*
X735995Y776447D01*
X735871Y776511D01*
X735798Y776554D01*
X735755Y776570D01*
X735700Y776598D01*
X733537Y777494D01*
X730250Y780781D01*
X729922Y781573D01*
X729912Y781593D01*
X729905Y781614D01*
X729816Y781770D01*
X729732Y781928D01*
X729718Y781945D01*
X729707Y781965D01*
X729590Y782100D01*
X729475Y782239D01*
X729458Y782253D01*
X729444Y782270D01*
X729302Y782379D01*
X729163Y782492D01*
X729143Y782503D01*
X729125Y782516D01*
X728965Y782596D01*
X728806Y782679D01*
X728785Y782686D01*
X728765Y782696D01*
X728592Y782742D01*
X728420Y782792D01*
X728398Y782794D01*
X728376Y782800D01*
X728045Y782827D01*
X612335Y782827D01*
X612309Y782825D01*
X612282Y782827D01*
X612108Y782805D01*
X611935Y782787D01*
X611909Y782780D01*
X611883Y782776D01*
X611717Y782721D01*
X611550Y782669D01*
X611526Y782656D01*
X611501Y782648D01*
X611349Y782561D01*
X611196Y782477D01*
X611175Y782460D01*
X611152Y782447D01*
X610899Y782232D01*
X538568Y709901D01*
X538551Y709880D01*
X538530Y709863D01*
X538423Y709725D01*
X538313Y709589D01*
X538300Y709566D01*
X538284Y709545D01*
X538206Y709388D01*
X538124Y709234D01*
X538116Y709208D01*
X538104Y709184D01*
X538059Y709015D01*
X538009Y708848D01*
X538007Y708821D01*
X538000Y708795D01*
X537973Y708465D01*
X537973Y540004D01*
X537975Y539986D01*
X537973Y539968D01*
X537994Y539786D01*
X538013Y539603D01*
X538018Y539586D01*
X538020Y539569D01*
X538077Y539394D01*
X538131Y539218D01*
X538139Y539203D01*
X538145Y539186D01*
X538235Y539026D01*
X538323Y538864D01*
X538334Y538851D01*
X538343Y538835D01*
X538463Y538696D01*
X538580Y538555D01*
X538594Y538544D01*
X538606Y538530D01*
X538751Y538418D01*
X538894Y538303D01*
X538910Y538295D01*
X538924Y538284D01*
X539089Y538202D01*
X539251Y538117D01*
X539268Y538112D01*
X539284Y538104D01*
X539463Y538057D01*
X539638Y538006D01*
X539656Y538004D01*
X539673Y538000D01*
X540004Y537973D01*
X597576Y537973D01*
X597598Y537975D01*
X597620Y537973D01*
X597798Y537995D01*
X597977Y538013D01*
X597998Y538019D01*
X598020Y538022D01*
X598191Y538078D01*
X598361Y538131D01*
X598381Y538141D01*
X598402Y538148D01*
X598558Y538237D01*
X598716Y538323D01*
X598733Y538337D01*
X598752Y538348D01*
X598887Y538466D01*
X599025Y538580D01*
X599039Y538598D01*
X599056Y538612D01*
X599165Y538755D01*
X599277Y538894D01*
X599287Y538914D01*
X599301Y538931D01*
X599453Y539227D01*
X599762Y539974D01*
X603026Y543238D01*
X603671Y543505D01*
X605405Y544223D01*
X605413Y544228D01*
X605422Y544230D01*
X605590Y544322D01*
X605760Y544414D01*
X605767Y544419D01*
X605775Y544424D01*
X605921Y544547D01*
X606071Y544670D01*
X606076Y544677D01*
X606083Y544683D01*
X606203Y544833D01*
X606324Y544983D01*
X606328Y544991D01*
X606334Y544997D01*
X606422Y545168D01*
X606511Y545339D01*
X606514Y545348D01*
X606518Y545356D01*
X606570Y545540D01*
X606624Y545726D01*
X606625Y545734D01*
X606628Y545743D01*
X606642Y545934D01*
X606659Y546127D01*
X606658Y546136D01*
X606659Y546144D01*
X606636Y546334D01*
X606614Y546527D01*
X606611Y546535D01*
X606610Y546544D01*
X606551Y546723D01*
X606491Y546910D01*
X606486Y546918D01*
X606484Y546926D01*
X606388Y547094D01*
X606294Y547262D01*
X606289Y547268D01*
X606284Y547276D01*
X606158Y547421D01*
X606033Y547567D01*
X606025Y547573D01*
X606020Y547580D01*
X605866Y547697D01*
X605716Y547816D01*
X605708Y547820D01*
X605700Y547825D01*
X605405Y547977D01*
X603026Y548962D01*
X599762Y552226D01*
X597995Y556492D01*
X597995Y561108D01*
X599762Y565374D01*
X603026Y568638D01*
X605405Y569623D01*
X605413Y569628D01*
X605422Y569630D01*
X605590Y569722D01*
X605760Y569814D01*
X605767Y569819D01*
X605775Y569824D01*
X605921Y569947D01*
X606071Y570070D01*
X606076Y570077D01*
X606083Y570083D01*
X606203Y570233D01*
X606324Y570383D01*
X606328Y570391D01*
X606334Y570397D01*
X606422Y570568D01*
X606511Y570739D01*
X606514Y570748D01*
X606518Y570756D01*
X606570Y570940D01*
X606624Y571126D01*
X606625Y571134D01*
X606628Y571143D01*
X606642Y571334D01*
X606659Y571527D01*
X606658Y571536D01*
X606659Y571544D01*
X606636Y571734D01*
X606614Y571927D01*
X606611Y571935D01*
X606610Y571944D01*
X606550Y572126D01*
X606491Y572310D01*
X606486Y572318D01*
X606484Y572326D01*
X606388Y572494D01*
X606294Y572662D01*
X606289Y572668D01*
X606284Y572676D01*
X606158Y572821D01*
X606033Y572967D01*
X606025Y572973D01*
X606020Y572980D01*
X605866Y573097D01*
X605716Y573216D01*
X605708Y573220D01*
X605700Y573225D01*
X605405Y573377D01*
X603026Y574362D01*
X599762Y577626D01*
X599453Y578373D01*
X599442Y578393D01*
X599435Y578414D01*
X599347Y578571D01*
X599262Y578728D01*
X599248Y578745D01*
X599237Y578765D01*
X599120Y578901D01*
X599006Y579039D01*
X598989Y579053D01*
X598974Y579070D01*
X598832Y579179D01*
X598693Y579292D01*
X598674Y579303D01*
X598656Y579316D01*
X598496Y579396D01*
X598337Y579479D01*
X598315Y579486D01*
X598295Y579496D01*
X598122Y579542D01*
X597950Y579592D01*
X597928Y579594D01*
X597907Y579600D01*
X597576Y579627D01*
X569811Y579627D01*
X569789Y579625D01*
X569766Y579627D01*
X569589Y579605D01*
X569410Y579587D01*
X569389Y579581D01*
X569367Y579578D01*
X569197Y579522D01*
X569025Y579469D01*
X569006Y579459D01*
X568985Y579452D01*
X568829Y579363D01*
X568671Y579277D01*
X568654Y579263D01*
X568635Y579252D01*
X568500Y579135D01*
X568362Y579020D01*
X568348Y579002D01*
X568331Y578988D01*
X568222Y578846D01*
X568110Y578706D01*
X568099Y578686D01*
X568086Y578668D01*
X567934Y578373D01*
X567844Y578157D01*
X564843Y575155D01*
X560922Y573531D01*
X556678Y573531D01*
X552757Y575155D01*
X549755Y578157D01*
X548131Y582078D01*
X548131Y586322D01*
X549755Y590243D01*
X552757Y593245D01*
X556678Y594869D01*
X560922Y594869D01*
X564843Y593245D01*
X567844Y590243D01*
X567934Y590027D01*
X567945Y590007D01*
X567952Y589986D01*
X568040Y589830D01*
X568124Y589672D01*
X568139Y589655D01*
X568150Y589635D01*
X568267Y589499D01*
X568381Y589361D01*
X568398Y589347D01*
X568413Y589330D01*
X568554Y589221D01*
X568693Y589108D01*
X568713Y589097D01*
X568731Y589084D01*
X568891Y589004D01*
X569050Y588921D01*
X569071Y588914D01*
X569091Y588904D01*
X569265Y588858D01*
X569436Y588808D01*
X569459Y588806D01*
X569480Y588800D01*
X569811Y588773D01*
X597576Y588773D01*
X597598Y588775D01*
X597620Y588773D01*
X597798Y588795D01*
X597977Y588813D01*
X597998Y588819D01*
X598020Y588822D01*
X598191Y588878D01*
X598361Y588931D01*
X598381Y588941D01*
X598402Y588948D01*
X598558Y589037D01*
X598716Y589123D01*
X598733Y589137D01*
X598752Y589148D01*
X598887Y589266D01*
X599025Y589380D01*
X599039Y589398D01*
X599056Y589412D01*
X599165Y589555D01*
X599277Y589694D01*
X599287Y589714D01*
X599301Y589731D01*
X599453Y590027D01*
X599762Y590774D01*
X603026Y594038D01*
X605405Y595023D01*
X605413Y595028D01*
X605422Y595030D01*
X605590Y595122D01*
X605760Y595214D01*
X605767Y595219D01*
X605775Y595224D01*
X605921Y595347D01*
X606071Y595470D01*
X606076Y595477D01*
X606083Y595483D01*
X606203Y595633D01*
X606324Y595783D01*
X606328Y595791D01*
X606334Y595797D01*
X606422Y595968D01*
X606511Y596139D01*
X606514Y596148D01*
X606518Y596156D01*
X606570Y596340D01*
X606624Y596526D01*
X606625Y596534D01*
X606628Y596543D01*
X606642Y596734D01*
X606659Y596927D01*
X606658Y596936D01*
X606659Y596944D01*
X606636Y597134D01*
X606614Y597327D01*
X606611Y597335D01*
X606610Y597344D01*
X606550Y597526D01*
X606491Y597710D01*
X606486Y597718D01*
X606484Y597726D01*
X606388Y597894D01*
X606294Y598062D01*
X606289Y598068D01*
X606284Y598076D01*
X606158Y598221D01*
X606033Y598367D01*
X606025Y598373D01*
X606020Y598380D01*
X605866Y598497D01*
X605716Y598616D01*
X605708Y598620D01*
X605700Y598625D01*
X605405Y598777D01*
X603026Y599762D01*
X599762Y603026D01*
X597995Y607292D01*
X597995Y611908D01*
X599762Y616174D01*
X603026Y619438D01*
X605405Y620423D01*
X605413Y620428D01*
X605422Y620430D01*
X605590Y620522D01*
X605760Y620614D01*
X605767Y620619D01*
X605775Y620624D01*
X605921Y620747D01*
X606071Y620870D01*
X606076Y620877D01*
X606083Y620883D01*
X606203Y621033D01*
X606324Y621183D01*
X606328Y621191D01*
X606334Y621197D01*
X606422Y621368D01*
X606511Y621539D01*
X606514Y621548D01*
X606518Y621556D01*
X606570Y621740D01*
X606624Y621926D01*
X606625Y621934D01*
X606628Y621943D01*
X606642Y622134D01*
X606659Y622327D01*
X606658Y622336D01*
X606659Y622344D01*
X606636Y622534D01*
X606614Y622727D01*
X606611Y622735D01*
X606610Y622744D01*
X606550Y622926D01*
X606491Y623110D01*
X606486Y623118D01*
X606484Y623126D01*
X606388Y623294D01*
X606294Y623462D01*
X606289Y623468D01*
X606284Y623476D01*
X606158Y623621D01*
X606033Y623767D01*
X606025Y623773D01*
X606020Y623780D01*
X605866Y623897D01*
X605716Y624016D01*
X605708Y624020D01*
X605700Y624025D01*
X605405Y624177D01*
X603026Y625162D01*
X599762Y628426D01*
X597995Y632692D01*
X597995Y637308D01*
X599762Y641574D01*
X603026Y644838D01*
X603580Y645068D01*
X603581Y645068D01*
X605405Y645823D01*
X605413Y645828D01*
X605422Y645830D01*
X605590Y645922D01*
X605760Y646014D01*
X605767Y646019D01*
X605775Y646024D01*
X605921Y646147D01*
X606071Y646270D01*
X606076Y646277D01*
X606083Y646283D01*
X606203Y646433D01*
X606324Y646583D01*
X606328Y646591D01*
X606334Y646597D01*
X606422Y646768D01*
X606511Y646939D01*
X606514Y646948D01*
X606518Y646956D01*
X606570Y647140D01*
X606624Y647326D01*
X606625Y647334D01*
X606628Y647343D01*
X606642Y647534D01*
X606659Y647727D01*
X606658Y647736D01*
X606659Y647744D01*
X606636Y647934D01*
X606614Y648127D01*
X606611Y648135D01*
X606610Y648144D01*
X606550Y648326D01*
X606491Y648510D01*
X606486Y648518D01*
X606484Y648526D01*
X606388Y648694D01*
X606294Y648862D01*
X606289Y648868D01*
X606284Y648876D01*
X606158Y649021D01*
X606033Y649167D01*
X606025Y649173D01*
X606020Y649180D01*
X605866Y649297D01*
X605716Y649416D01*
X605708Y649420D01*
X605700Y649425D01*
X605405Y649577D01*
X603026Y650562D01*
X599762Y653826D01*
X597995Y658092D01*
X597995Y662708D01*
X599762Y666974D01*
X603026Y670238D01*
X605405Y671223D01*
X605413Y671228D01*
X605422Y671230D01*
X605590Y671322D01*
X605760Y671414D01*
X605767Y671419D01*
X605775Y671424D01*
X605921Y671547D01*
X606071Y671670D01*
X606076Y671677D01*
X606083Y671683D01*
X606203Y671833D01*
X606324Y671983D01*
X606328Y671991D01*
X606334Y671997D01*
X606422Y672168D01*
X606511Y672339D01*
X606514Y672348D01*
X606518Y672356D01*
X606570Y672540D01*
X606624Y672726D01*
X606625Y672734D01*
X606628Y672743D01*
X606642Y672934D01*
X606659Y673127D01*
X606658Y673136D01*
X606659Y673144D01*
X606636Y673334D01*
X606614Y673527D01*
X606611Y673535D01*
X606610Y673544D01*
X606550Y673726D01*
X606491Y673910D01*
X606486Y673918D01*
X606484Y673926D01*
X606388Y674094D01*
X606294Y674262D01*
X606289Y674268D01*
X606284Y674276D01*
X606158Y674421D01*
X606033Y674567D01*
X606025Y674573D01*
X606020Y674580D01*
X605866Y674697D01*
X605716Y674816D01*
X605708Y674820D01*
X605700Y674825D01*
X605405Y674977D01*
X603026Y675962D01*
X599762Y679226D01*
X597995Y683492D01*
X597995Y688108D01*
X599762Y692374D01*
X603026Y695638D01*
X605405Y696623D01*
X605413Y696628D01*
X605422Y696630D01*
X605590Y696722D01*
X605760Y696814D01*
X605767Y696819D01*
X605775Y696824D01*
X605921Y696947D01*
X606071Y697070D01*
X606076Y697077D01*
X606083Y697083D01*
X606203Y697233D01*
X606324Y697383D01*
X606328Y697391D01*
X606334Y697397D01*
X606422Y697568D01*
X606511Y697739D01*
X606514Y697748D01*
X606518Y697756D01*
X606570Y697940D01*
X606624Y698126D01*
X606625Y698134D01*
X606628Y698143D01*
X606642Y698334D01*
X606659Y698527D01*
X606658Y698536D01*
X606659Y698544D01*
X606636Y698734D01*
X606614Y698927D01*
X606611Y698935D01*
X606610Y698944D01*
X606550Y699126D01*
X606491Y699310D01*
X606486Y699318D01*
X606484Y699326D01*
X606388Y699494D01*
X606294Y699662D01*
X606289Y699668D01*
X606284Y699676D01*
X606158Y699821D01*
X606033Y699967D01*
X606025Y699973D01*
X606020Y699980D01*
X605866Y700097D01*
X605716Y700216D01*
X605708Y700220D01*
X605700Y700225D01*
X605405Y700377D01*
X603026Y701362D01*
X599762Y704626D01*
X597995Y708892D01*
X597995Y713508D01*
X599762Y717774D01*
X603026Y721038D01*
X605405Y722023D01*
X605413Y722028D01*
X605422Y722030D01*
X605590Y722122D01*
X605760Y722214D01*
X605767Y722219D01*
X605775Y722224D01*
X605921Y722347D01*
X606071Y722470D01*
X606076Y722477D01*
X606083Y722483D01*
X606203Y722633D01*
X606324Y722783D01*
X606328Y722791D01*
X606334Y722797D01*
X606422Y722968D01*
X606511Y723139D01*
X606514Y723148D01*
X606518Y723156D01*
X606570Y723340D01*
X606624Y723526D01*
X606625Y723534D01*
X606628Y723543D01*
X606642Y723734D01*
X606659Y723927D01*
X606658Y723936D01*
X606659Y723944D01*
X606636Y724134D01*
X606614Y724327D01*
X606611Y724335D01*
X606610Y724344D01*
X606550Y724524D01*
X606491Y724710D01*
X606486Y724718D01*
X606484Y724726D01*
X606388Y724894D01*
X606294Y725062D01*
X606289Y725068D01*
X606284Y725076D01*
X606158Y725221D01*
X606033Y725367D01*
X606025Y725373D01*
X606020Y725380D01*
X605866Y725497D01*
X605716Y725616D01*
X605708Y725620D01*
X605700Y725625D01*
X605405Y725777D01*
X603026Y726762D01*
X599762Y730026D01*
X597995Y734292D01*
X597995Y738908D01*
X599762Y743174D01*
X603026Y746438D01*
X607292Y748205D01*
X611908Y748205D01*
X616174Y746438D01*
X619438Y743174D01*
X621205Y738908D01*
X621205Y734292D01*
X619438Y730026D01*
X616174Y726762D01*
X614338Y726002D01*
X614338Y726001D01*
X613795Y725777D01*
X613787Y725772D01*
X613778Y725770D01*
X613608Y725677D01*
X613440Y725586D01*
X613433Y725581D01*
X613425Y725576D01*
X613277Y725452D01*
X613129Y725330D01*
X613124Y725323D01*
X613117Y725317D01*
X612997Y725167D01*
X612876Y725017D01*
X612872Y725009D01*
X612866Y725002D01*
X612779Y724833D01*
X612689Y724661D01*
X612686Y724652D01*
X612682Y724644D01*
X612630Y724462D01*
X612576Y724274D01*
X612575Y724265D01*
X612572Y724257D01*
X612558Y724066D01*
X612541Y723873D01*
X612542Y723864D01*
X612541Y723856D01*
X612565Y723665D01*
X612586Y723473D01*
X612589Y723465D01*
X612590Y723456D01*
X612650Y723274D01*
X612709Y723090D01*
X612714Y723082D01*
X612716Y723074D01*
X612812Y722906D01*
X612906Y722738D01*
X612911Y722732D01*
X612916Y722724D01*
X613043Y722578D01*
X613167Y722433D01*
X613175Y722427D01*
X613180Y722420D01*
X613333Y722303D01*
X613485Y722184D01*
X613493Y722180D01*
X613500Y722175D01*
X613795Y722023D01*
X616174Y721038D01*
X619438Y717774D01*
X621205Y713508D01*
X621205Y708892D01*
X619438Y704626D01*
X616174Y701362D01*
X613795Y700377D01*
X613787Y700372D01*
X613778Y700370D01*
X613608Y700277D01*
X613440Y700186D01*
X613433Y700181D01*
X613425Y700176D01*
X613277Y700052D01*
X613129Y699930D01*
X613124Y699923D01*
X613117Y699917D01*
X612997Y699767D01*
X612876Y699617D01*
X612872Y699609D01*
X612866Y699602D01*
X612779Y699433D01*
X612689Y699261D01*
X612686Y699252D01*
X612682Y699244D01*
X612630Y699062D01*
X612576Y698874D01*
X612575Y698865D01*
X612572Y698857D01*
X612558Y698666D01*
X612541Y698473D01*
X612542Y698464D01*
X612541Y698456D01*
X612565Y698265D01*
X612586Y698073D01*
X612589Y698065D01*
X612590Y698056D01*
X612650Y697874D01*
X612709Y697690D01*
X612714Y697682D01*
X612716Y697674D01*
X612812Y697506D01*
X612906Y697338D01*
X612911Y697332D01*
X612916Y697324D01*
X613043Y697178D01*
X613167Y697033D01*
X613175Y697027D01*
X613180Y697020D01*
X613333Y696903D01*
X613485Y696784D01*
X613493Y696780D01*
X613500Y696775D01*
X613795Y696623D01*
X616174Y695638D01*
X616526Y695286D01*
X616547Y695269D01*
X616564Y695248D01*
X616702Y695141D01*
X616837Y695031D01*
X616861Y695018D01*
X616882Y695002D01*
X617039Y694924D01*
X617193Y694842D01*
X617219Y694834D01*
X617243Y694822D01*
X617412Y694777D01*
X617579Y694727D01*
X617606Y694725D01*
X617632Y694718D01*
X617962Y694691D01*
X731681Y694691D01*
X731707Y694693D01*
X731734Y694691D01*
X731908Y694713D01*
X732081Y694731D01*
X732107Y694738D01*
X732133Y694742D01*
X732299Y694797D01*
X732466Y694849D01*
X732490Y694862D01*
X732515Y694870D01*
X732667Y694957D01*
X732820Y695041D01*
X732841Y695058D01*
X732864Y695071D01*
X733117Y695286D01*
X733537Y695706D01*
X733882Y695849D01*
X737832Y697485D01*
X760768Y697485D01*
X765063Y695706D01*
X768350Y692419D01*
X770129Y688124D01*
X770129Y683476D01*
X768350Y679181D01*
X765063Y675894D01*
X762848Y674977D01*
X762840Y674972D01*
X762831Y674970D01*
X762661Y674877D01*
X762493Y674786D01*
X762486Y674781D01*
X762478Y674776D01*
X762330Y674652D01*
X762182Y674530D01*
X762177Y674523D01*
X762170Y674517D01*
X762050Y674367D01*
X761929Y674217D01*
X761925Y674209D01*
X761919Y674202D01*
X761832Y674033D01*
X761742Y673861D01*
X761739Y673852D01*
X761735Y673844D01*
X761683Y673662D01*
X761629Y673474D01*
X761628Y673465D01*
X761625Y673457D01*
X761611Y673266D01*
X761594Y673073D01*
X761595Y673064D01*
X761594Y673056D01*
X761618Y672865D01*
X761639Y672673D01*
X761642Y672665D01*
X761643Y672656D01*
X761703Y672474D01*
X761762Y672290D01*
X761767Y672282D01*
X761770Y672274D01*
X761865Y672106D01*
X761959Y671938D01*
X761964Y671932D01*
X761969Y671924D01*
X762096Y671778D01*
X762221Y671633D01*
X762228Y671627D01*
X762233Y671620D01*
X762386Y671503D01*
X762538Y671384D01*
X762546Y671380D01*
X762553Y671375D01*
X762848Y671223D01*
X765063Y670306D01*
X768350Y667019D01*
X770129Y662724D01*
X770129Y658076D01*
X768350Y653781D01*
X765063Y650494D01*
X762848Y649577D01*
X762840Y649572D01*
X762831Y649570D01*
X762661Y649477D01*
X762493Y649386D01*
X762486Y649381D01*
X762478Y649376D01*
X762330Y649252D01*
X762182Y649130D01*
X762177Y649123D01*
X762170Y649117D01*
X762050Y648967D01*
X761929Y648817D01*
X761925Y648809D01*
X761919Y648802D01*
X761832Y648633D01*
X761742Y648461D01*
X761739Y648452D01*
X761735Y648444D01*
X761683Y648262D01*
X761629Y648074D01*
X761628Y648065D01*
X761625Y648057D01*
X761611Y647866D01*
X761594Y647673D01*
X761595Y647664D01*
X761594Y647656D01*
X761618Y647465D01*
X761639Y647273D01*
X761642Y647265D01*
X761643Y647256D01*
X761703Y647074D01*
X761762Y646890D01*
X761767Y646882D01*
X761770Y646874D01*
X761865Y646706D01*
X761959Y646538D01*
X761964Y646532D01*
X761969Y646524D01*
X762096Y646378D01*
X762221Y646233D01*
X762228Y646227D01*
X762233Y646220D01*
X762386Y646103D01*
X762538Y645984D01*
X762546Y645980D01*
X762553Y645975D01*
X762848Y645823D01*
X765063Y644906D01*
X768350Y641619D01*
X770129Y637324D01*
X770129Y632676D01*
X768350Y628381D01*
X765063Y625094D01*
X763481Y624439D01*
X762848Y624177D01*
X762840Y624172D01*
X762831Y624170D01*
X762661Y624077D01*
X762493Y623986D01*
X762486Y623981D01*
X762478Y623976D01*
X762330Y623852D01*
X762182Y623730D01*
X762177Y623723D01*
X762170Y623717D01*
X762050Y623567D01*
X761929Y623417D01*
X761925Y623409D01*
X761919Y623402D01*
X761832Y623233D01*
X761742Y623061D01*
X761739Y623052D01*
X761735Y623044D01*
X761683Y622862D01*
X761629Y622674D01*
X761628Y622665D01*
X761625Y622657D01*
X761611Y622466D01*
X761594Y622273D01*
X761595Y622264D01*
X761594Y622256D01*
X761618Y622065D01*
X761639Y621873D01*
X761642Y621865D01*
X761643Y621856D01*
X761703Y621674D01*
X761762Y621490D01*
X761767Y621482D01*
X761770Y621474D01*
X761865Y621306D01*
X761959Y621138D01*
X761964Y621132D01*
X761969Y621124D01*
X762096Y620978D01*
X762221Y620833D01*
X762228Y620827D01*
X762233Y620820D01*
X762386Y620703D01*
X762538Y620584D01*
X762546Y620580D01*
X762553Y620575D01*
X762848Y620423D01*
X765063Y619506D01*
X768350Y616219D01*
X770129Y611924D01*
X770129Y607276D01*
X768350Y602981D01*
X765063Y599694D01*
X762848Y598777D01*
X762840Y598772D01*
X762831Y598770D01*
X762661Y598677D01*
X762493Y598586D01*
X762486Y598581D01*
X762478Y598576D01*
X762330Y598452D01*
X762182Y598330D01*
X762177Y598323D01*
X762170Y598317D01*
X762050Y598167D01*
X761929Y598017D01*
X761925Y598009D01*
X761919Y598002D01*
X761832Y597833D01*
X761742Y597661D01*
X761739Y597652D01*
X761735Y597644D01*
X761683Y597462D01*
X761629Y597274D01*
X761628Y597265D01*
X761625Y597257D01*
X761611Y597066D01*
X761594Y596873D01*
X761595Y596864D01*
X761594Y596856D01*
X761618Y596665D01*
X761639Y596473D01*
X761642Y596465D01*
X761643Y596456D01*
X761703Y596274D01*
X761762Y596090D01*
X761767Y596082D01*
X761770Y596074D01*
X761865Y595906D01*
X761959Y595738D01*
X761964Y595732D01*
X761969Y595724D01*
X762096Y595578D01*
X762221Y595433D01*
X762228Y595427D01*
X762233Y595420D01*
X762386Y595303D01*
X762538Y595184D01*
X762546Y595180D01*
X762553Y595175D01*
X762848Y595023D01*
X765063Y594106D01*
X768350Y590819D01*
X770129Y586524D01*
X770129Y581876D01*
X768350Y577581D01*
X765063Y574294D01*
X762848Y573377D01*
X762840Y573372D01*
X762831Y573370D01*
X762661Y573277D01*
X762493Y573186D01*
X762486Y573181D01*
X762478Y573176D01*
X762330Y573052D01*
X762182Y572930D01*
X762177Y572923D01*
X762170Y572917D01*
X762050Y572767D01*
X761929Y572617D01*
X761925Y572609D01*
X761919Y572602D01*
X761832Y572433D01*
X761742Y572261D01*
X761739Y572252D01*
X761735Y572244D01*
X761683Y572062D01*
X761629Y571874D01*
X761628Y571865D01*
X761625Y571857D01*
X761611Y571666D01*
X761594Y571473D01*
X761595Y571464D01*
X761594Y571456D01*
X761618Y571265D01*
X761639Y571073D01*
X761642Y571065D01*
X761643Y571056D01*
X761703Y570874D01*
X761762Y570690D01*
X761767Y570682D01*
X761770Y570674D01*
X761865Y570506D01*
X761959Y570338D01*
X761964Y570332D01*
X761969Y570324D01*
X762096Y570178D01*
X762221Y570033D01*
X762228Y570027D01*
X762233Y570020D01*
X762386Y569903D01*
X762538Y569784D01*
X762546Y569780D01*
X762553Y569775D01*
X762848Y569623D01*
X765063Y568706D01*
X768350Y565419D01*
X770129Y561124D01*
X770129Y556476D01*
X768350Y552181D01*
X765063Y548894D01*
X762900Y547998D01*
X762821Y547956D01*
X762738Y547923D01*
X762644Y547861D01*
X762545Y547808D01*
X762476Y547751D01*
X762401Y547702D01*
X762321Y547623D01*
X762234Y547552D01*
X762178Y547482D01*
X762114Y547419D01*
X762052Y547326D01*
X761981Y547239D01*
X761939Y547160D01*
X761889Y547086D01*
X761846Y546982D01*
X761794Y546882D01*
X761769Y546797D01*
X761734Y546714D01*
X761712Y546604D01*
X761681Y546496D01*
X761673Y546407D01*
X761655Y546319D01*
X761656Y546207D01*
X761646Y546095D01*
X761656Y546006D01*
X761656Y545917D01*
X761679Y545806D01*
X761691Y545695D01*
X761718Y545610D01*
X761736Y545522D01*
X761780Y545419D01*
X761814Y545311D01*
X761858Y545233D01*
X761893Y545151D01*
X761956Y545058D01*
X762011Y544960D01*
X762069Y544892D01*
X762119Y544818D01*
X762199Y544740D01*
X762272Y544654D01*
X762343Y544599D01*
X762407Y544536D01*
X762501Y544475D01*
X762589Y544406D01*
X762669Y544366D01*
X762744Y544317D01*
X762808Y544290D01*
X764568Y543394D01*
X766056Y542313D01*
X767357Y541012D01*
X768438Y539524D01*
X769273Y537886D01*
X769841Y536136D01*
X769872Y535939D01*
X749808Y535939D01*
X749790Y535937D01*
X749773Y535939D01*
X749590Y535918D01*
X749408Y535899D01*
X749391Y535894D01*
X749373Y535892D01*
X749295Y535867D01*
X749158Y535906D01*
X749140Y535908D01*
X749123Y535912D01*
X748792Y535939D01*
X728728Y535939D01*
X728759Y536136D01*
X729327Y537886D01*
X730162Y539524D01*
X731243Y541012D01*
X732544Y542313D01*
X734032Y543394D01*
X735715Y544251D01*
X735717Y544252D01*
X735728Y544258D01*
X735813Y544301D01*
X735830Y544312D01*
X735918Y544351D01*
X735992Y544402D01*
X736070Y544445D01*
X736156Y544517D01*
X736248Y544582D01*
X736310Y544647D01*
X736378Y544704D01*
X736448Y544792D01*
X736526Y544873D01*
X736573Y544949D01*
X736629Y545019D01*
X736680Y545119D01*
X736740Y545214D01*
X736772Y545298D01*
X736813Y545377D01*
X736844Y545485D01*
X736884Y545590D01*
X736898Y545679D01*
X736923Y545765D01*
X736931Y545877D01*
X736950Y545988D01*
X736947Y546077D01*
X736954Y546166D01*
X736940Y546277D01*
X736936Y546390D01*
X736916Y546477D01*
X736905Y546566D01*
X736870Y546672D01*
X736844Y546782D01*
X736807Y546863D01*
X736779Y546948D01*
X736723Y547045D01*
X736676Y547148D01*
X736623Y547220D01*
X736579Y547298D01*
X736505Y547382D01*
X736439Y547473D01*
X736373Y547534D01*
X736315Y547601D01*
X736226Y547670D01*
X736143Y547746D01*
X736066Y547792D01*
X735995Y547847D01*
X735871Y547911D01*
X735798Y547954D01*
X735755Y547970D01*
X735700Y547998D01*
X733537Y548894D01*
X730250Y552181D01*
X729922Y552973D01*
X729912Y552993D01*
X729905Y553014D01*
X729816Y553170D01*
X729732Y553328D01*
X729718Y553345D01*
X729707Y553365D01*
X729590Y553500D01*
X729475Y553639D01*
X729458Y553653D01*
X729444Y553670D01*
X729302Y553779D01*
X729163Y553892D01*
X729143Y553903D01*
X729125Y553916D01*
X728965Y553996D01*
X728806Y554079D01*
X728785Y554086D01*
X728765Y554096D01*
X728592Y554142D01*
X728420Y554192D01*
X728398Y554194D01*
X728376Y554200D01*
X728045Y554227D01*
X663135Y554227D01*
X663109Y554225D01*
X663082Y554227D01*
X662908Y554205D01*
X662735Y554187D01*
X662709Y554180D01*
X662683Y554176D01*
X662517Y554121D01*
X662350Y554069D01*
X662326Y554056D01*
X662301Y554048D01*
X662149Y553961D01*
X661996Y553877D01*
X661975Y553860D01*
X661952Y553847D01*
X661699Y553632D01*
X621336Y513269D01*
X621321Y513252D01*
X621305Y513237D01*
X621194Y513096D01*
X621081Y512957D01*
X621070Y512938D01*
X621056Y512920D01*
X620976Y512760D01*
X620892Y512602D01*
X620886Y512580D01*
X620876Y512560D01*
X620828Y512388D01*
X620777Y512216D01*
X620775Y512194D01*
X620769Y512172D01*
X620757Y511993D01*
X620741Y511815D01*
X620743Y511793D01*
X620742Y511770D01*
X620765Y511593D01*
X620784Y511415D01*
X620791Y511393D01*
X620794Y511371D01*
X620895Y511055D01*
X621205Y510308D01*
X621205Y505692D01*
X619438Y501426D01*
X616174Y498162D01*
X613795Y497177D01*
X613787Y497172D01*
X613778Y497170D01*
X613608Y497077D01*
X613440Y496986D01*
X613433Y496981D01*
X613425Y496976D01*
X613277Y496852D01*
X613129Y496730D01*
X613124Y496723D01*
X613117Y496717D01*
X612997Y496567D01*
X612876Y496417D01*
X612872Y496409D01*
X612866Y496402D01*
X612779Y496233D01*
X612689Y496061D01*
X612686Y496052D01*
X612682Y496044D01*
X612630Y495862D01*
X612576Y495674D01*
X612575Y495665D01*
X612572Y495657D01*
X612558Y495466D01*
X612541Y495273D01*
X612542Y495264D01*
X612541Y495256D01*
X612565Y495065D01*
X612586Y494873D01*
X612589Y494865D01*
X612590Y494856D01*
X612650Y494674D01*
X612709Y494490D01*
X612714Y494482D01*
X612716Y494474D01*
X612812Y494306D01*
X612906Y494138D01*
X612911Y494132D01*
X612916Y494124D01*
X613043Y493978D01*
X613167Y493833D01*
X613175Y493827D01*
X613180Y493820D01*
X613333Y493703D01*
X613485Y493584D01*
X613493Y493580D01*
X613500Y493575D01*
X613795Y493423D01*
X616174Y492438D01*
X619438Y489174D01*
X621205Y484908D01*
X621205Y480292D01*
X619438Y476026D01*
X616174Y472762D01*
X613795Y471777D01*
X613787Y471772D01*
X613778Y471770D01*
X613608Y471677D01*
X613440Y471586D01*
X613433Y471581D01*
X613425Y471576D01*
X613277Y471452D01*
X613129Y471330D01*
X613124Y471323D01*
X613117Y471317D01*
X612997Y471167D01*
X612876Y471017D01*
X612872Y471009D01*
X612866Y471002D01*
X612779Y470833D01*
X612689Y470661D01*
X612686Y470652D01*
X612682Y470644D01*
X612630Y470462D01*
X612576Y470274D01*
X612575Y470265D01*
X612572Y470257D01*
X612557Y470064D01*
X612541Y469873D01*
X612542Y469864D01*
X612541Y469856D01*
X612565Y469664D01*
X612586Y469473D01*
X612589Y469465D01*
X612590Y469456D01*
X612650Y469274D01*
X612709Y469090D01*
X612714Y469082D01*
X612716Y469074D01*
X612812Y468906D01*
X612906Y468738D01*
X612911Y468732D01*
X612916Y468724D01*
X613043Y468578D01*
X613167Y468433D01*
X613175Y468427D01*
X613180Y468420D01*
X613333Y468303D01*
X613485Y468184D01*
X613493Y468180D01*
X613500Y468175D01*
X613795Y468023D01*
X616174Y467038D01*
X619438Y463774D01*
X621205Y459508D01*
X621205Y454892D01*
X619438Y450626D01*
X616174Y447362D01*
X615021Y446885D01*
X615017Y446883D01*
X615013Y446881D01*
X614840Y446788D01*
X614666Y446694D01*
X614663Y446692D01*
X614659Y446689D01*
X614510Y446565D01*
X614356Y446438D01*
X614353Y446435D01*
X614350Y446432D01*
X614227Y446279D01*
X614102Y446125D01*
X614100Y446121D01*
X614097Y446118D01*
X614007Y445945D01*
X613915Y445769D01*
X613914Y445765D01*
X613912Y445761D01*
X613857Y445572D01*
X613802Y445382D01*
X613802Y445378D01*
X613800Y445374D01*
X613784Y445176D01*
X613767Y444981D01*
X613768Y444977D01*
X613767Y444972D01*
X613790Y444778D01*
X613812Y444581D01*
X613814Y444577D01*
X613814Y444573D01*
X613875Y444387D01*
X613936Y444198D01*
X613938Y444194D01*
X613939Y444190D01*
X614037Y444017D01*
X614132Y443846D01*
X614135Y443843D01*
X614137Y443839D01*
X614266Y443690D01*
X614394Y443541D01*
X614397Y443538D01*
X614400Y443534D01*
X614555Y443414D01*
X614711Y443292D01*
X614715Y443290D01*
X614718Y443288D01*
X614898Y443198D01*
X615071Y443112D01*
X615075Y443110D01*
X615079Y443108D01*
X615271Y443057D01*
X615459Y443005D01*
X615463Y443005D01*
X615468Y443004D01*
X615798Y442977D01*
X664269Y442977D01*
X664295Y442979D01*
X664322Y442977D01*
X664496Y442999D01*
X664669Y443017D01*
X664695Y443024D01*
X664721Y443028D01*
X664887Y443083D01*
X665054Y443135D01*
X665078Y443148D01*
X665103Y443156D01*
X665255Y443243D01*
X665408Y443327D01*
X665429Y443344D01*
X665452Y443357D01*
X665705Y443572D01*
X683210Y461077D01*
X684890Y461773D01*
X728045Y461773D01*
X728068Y461775D01*
X728090Y461773D01*
X728267Y461795D01*
X728446Y461813D01*
X728467Y461819D01*
X728490Y461822D01*
X728659Y461878D01*
X728831Y461931D01*
X728851Y461941D01*
X728872Y461948D01*
X729027Y462037D01*
X729185Y462123D01*
X729202Y462137D01*
X729221Y462148D01*
X729356Y462265D01*
X729494Y462380D01*
X729508Y462398D01*
X729525Y462412D01*
X729634Y462554D01*
X729747Y462694D01*
X729757Y462714D01*
X729770Y462732D01*
X729922Y463027D01*
X730250Y463819D01*
X733537Y467106D01*
X737832Y468885D01*
X760768Y468885D01*
X765063Y467106D01*
X768350Y463819D01*
X770129Y459524D01*
X770129Y454876D01*
X768350Y450581D01*
X765063Y447294D01*
X762848Y446377D01*
X762840Y446372D01*
X762831Y446370D01*
X762662Y446277D01*
X762493Y446186D01*
X762486Y446181D01*
X762478Y446176D01*
X762331Y446053D01*
X762182Y445930D01*
X762177Y445923D01*
X762170Y445917D01*
X762049Y445766D01*
X761929Y445617D01*
X761925Y445610D01*
X761919Y445602D01*
X761830Y445429D01*
X761742Y445261D01*
X761739Y445252D01*
X761735Y445244D01*
X761682Y445058D01*
X761629Y444874D01*
X761628Y444865D01*
X761625Y444857D01*
X761611Y444666D01*
X761594Y444473D01*
X761595Y444464D01*
X761594Y444456D01*
X761618Y444264D01*
X761639Y444073D01*
X761642Y444065D01*
X761643Y444056D01*
X761703Y443873D01*
X761762Y443690D01*
X761767Y443682D01*
X761769Y443674D01*
X761866Y443505D01*
X761959Y443338D01*
X761965Y443332D01*
X761969Y443324D01*
X762095Y443180D01*
X762220Y443033D01*
X762228Y443027D01*
X762233Y443020D01*
X762386Y442903D01*
X762538Y442784D01*
X762545Y442780D01*
X762553Y442775D01*
X762848Y442623D01*
X765063Y441706D01*
X768350Y438419D01*
X770129Y434124D01*
X770129Y429476D01*
X768350Y425181D01*
X765063Y421894D01*
X762848Y420977D01*
X762840Y420972D01*
X762831Y420970D01*
X762662Y420877D01*
X762493Y420786D01*
X762486Y420781D01*
X762478Y420776D01*
X762331Y420653D01*
X762182Y420530D01*
X762177Y420523D01*
X762170Y420517D01*
X762049Y420366D01*
X761929Y420217D01*
X761925Y420210D01*
X761919Y420202D01*
X761830Y420029D01*
X761742Y419861D01*
X761739Y419852D01*
X761735Y419844D01*
X761682Y419658D01*
X761629Y419474D01*
X761628Y419465D01*
X761625Y419457D01*
X761611Y419266D01*
X761594Y419073D01*
X761595Y419064D01*
X761594Y419056D01*
X761618Y418864D01*
X761639Y418673D01*
X761642Y418665D01*
X761643Y418656D01*
X761703Y418473D01*
X761762Y418290D01*
X761767Y418282D01*
X761769Y418274D01*
X761865Y418107D01*
X761959Y417938D01*
X761965Y417932D01*
X761969Y417924D01*
X762095Y417780D01*
X762220Y417633D01*
X762228Y417627D01*
X762233Y417620D01*
X762386Y417503D01*
X762538Y417384D01*
X762545Y417380D01*
X762553Y417375D01*
X762848Y417223D01*
X765063Y416306D01*
X768350Y413019D01*
X770129Y408724D01*
X770129Y404076D01*
X768350Y399781D01*
X765063Y396494D01*
X762848Y395577D01*
X762840Y395572D01*
X762831Y395570D01*
X762662Y395477D01*
X762493Y395386D01*
X762486Y395381D01*
X762478Y395376D01*
X762331Y395253D01*
X762182Y395130D01*
X762177Y395123D01*
X762170Y395117D01*
X762049Y394966D01*
X761929Y394817D01*
X761925Y394810D01*
X761919Y394802D01*
X761830Y394629D01*
X761742Y394461D01*
X761739Y394452D01*
X761735Y394444D01*
X761682Y394258D01*
X761629Y394074D01*
X761628Y394065D01*
X761625Y394057D01*
X761611Y393866D01*
X761594Y393673D01*
X761595Y393664D01*
X761594Y393656D01*
X761618Y393464D01*
X761639Y393273D01*
X761642Y393265D01*
X761643Y393256D01*
X761703Y393073D01*
X761762Y392890D01*
X761767Y392882D01*
X761769Y392874D01*
X761865Y392707D01*
X761959Y392538D01*
X761965Y392532D01*
X761969Y392524D01*
X762095Y392380D01*
X762220Y392233D01*
X762228Y392227D01*
X762233Y392220D01*
X762386Y392103D01*
X762538Y391984D01*
X762545Y391980D01*
X762553Y391975D01*
X762848Y391823D01*
X765063Y390906D01*
X768350Y387619D01*
X770129Y383324D01*
X770129Y378676D01*
X768350Y374381D01*
X765063Y371094D01*
X763708Y370533D01*
X763707Y370533D01*
X762848Y370177D01*
X762840Y370172D01*
X762831Y370170D01*
X762662Y370077D01*
X762493Y369986D01*
X762486Y369981D01*
X762478Y369976D01*
X762331Y369853D01*
X762182Y369730D01*
X762177Y369723D01*
X762170Y369717D01*
X762049Y369566D01*
X761929Y369417D01*
X761925Y369410D01*
X761919Y369402D01*
X761830Y369229D01*
X761742Y369061D01*
X761739Y369052D01*
X761735Y369044D01*
X761682Y368858D01*
X761629Y368674D01*
X761628Y368665D01*
X761625Y368657D01*
X761611Y368466D01*
X761594Y368273D01*
X761595Y368264D01*
X761594Y368256D01*
X761618Y368064D01*
X761639Y367873D01*
X761642Y367865D01*
X761643Y367856D01*
X761703Y367673D01*
X761762Y367490D01*
X761767Y367482D01*
X761769Y367474D01*
X761865Y367307D01*
X761959Y367138D01*
X761965Y367132D01*
X761969Y367124D01*
X762095Y366980D01*
X762220Y366833D01*
X762228Y366827D01*
X762233Y366820D01*
X762386Y366703D01*
X762538Y366584D01*
X762545Y366580D01*
X762553Y366575D01*
X762848Y366423D01*
X765063Y365506D01*
X768350Y362219D01*
X770129Y357924D01*
X770129Y353276D01*
X768350Y348981D01*
X765063Y345694D01*
X762848Y344777D01*
X762840Y344772D01*
X762831Y344770D01*
X762662Y344677D01*
X762493Y344586D01*
X762486Y344581D01*
X762478Y344576D01*
X762331Y344453D01*
X762182Y344330D01*
X762177Y344323D01*
X762170Y344317D01*
X762049Y344166D01*
X761929Y344017D01*
X761925Y344010D01*
X761919Y344002D01*
X761830Y343829D01*
X761742Y343661D01*
X761739Y343652D01*
X761735Y343644D01*
X761682Y343458D01*
X761629Y343274D01*
X761628Y343265D01*
X761625Y343257D01*
X761611Y343066D01*
X761594Y342873D01*
X761595Y342864D01*
X761594Y342856D01*
X761618Y342664D01*
X761639Y342473D01*
X761642Y342465D01*
X761643Y342456D01*
X761703Y342273D01*
X761762Y342090D01*
X761767Y342082D01*
X761769Y342074D01*
X761865Y341907D01*
X761959Y341738D01*
X761965Y341732D01*
X761969Y341724D01*
X762095Y341580D01*
X762220Y341433D01*
X762228Y341427D01*
X762233Y341420D01*
X762386Y341303D01*
X762538Y341184D01*
X762545Y341180D01*
X762553Y341175D01*
X762848Y341023D01*
X765063Y340106D01*
X768350Y336819D01*
X770129Y332524D01*
X770129Y327876D01*
X768350Y323581D01*
X765063Y320294D01*
X762848Y319377D01*
X762840Y319372D01*
X762831Y319370D01*
X762662Y319277D01*
X762493Y319186D01*
X762486Y319181D01*
X762478Y319176D01*
X762331Y319053D01*
X762182Y318930D01*
X762177Y318923D01*
X762170Y318917D01*
X762049Y318766D01*
X761929Y318617D01*
X761925Y318610D01*
X761919Y318602D01*
X761830Y318429D01*
X761742Y318261D01*
X761739Y318252D01*
X761735Y318244D01*
X761682Y318058D01*
X761629Y317874D01*
X761628Y317865D01*
X761625Y317857D01*
X761611Y317666D01*
X761594Y317473D01*
X761595Y317464D01*
X761594Y317456D01*
X761618Y317264D01*
X761639Y317073D01*
X761642Y317065D01*
X761643Y317056D01*
X761703Y316873D01*
X761762Y316690D01*
X761767Y316682D01*
X761769Y316674D01*
X761865Y316507D01*
X761959Y316338D01*
X761965Y316332D01*
X761969Y316324D01*
X762095Y316180D01*
X762220Y316033D01*
X762228Y316027D01*
X762233Y316020D01*
X762386Y315903D01*
X762538Y315784D01*
X762545Y315780D01*
X762553Y315775D01*
X762848Y315623D01*
X765063Y314706D01*
X768350Y311419D01*
X770129Y307124D01*
X770129Y302476D01*
X768350Y298181D01*
X765063Y294894D01*
X762900Y293998D01*
X762821Y293956D01*
X762738Y293923D01*
X762644Y293861D01*
X762545Y293808D01*
X762476Y293751D01*
X762401Y293702D01*
X762321Y293623D01*
X762234Y293552D01*
X762178Y293482D01*
X762114Y293419D01*
X762052Y293326D01*
X761981Y293239D01*
X761939Y293160D01*
X761889Y293086D01*
X761846Y292982D01*
X761794Y292882D01*
X761769Y292797D01*
X761734Y292714D01*
X761712Y292604D01*
X761681Y292496D01*
X761673Y292407D01*
X761655Y292319D01*
X761656Y292207D01*
X761646Y292095D01*
X761656Y292006D01*
X761656Y291917D01*
X761679Y291806D01*
X761691Y291695D01*
X761718Y291610D01*
X761736Y291522D01*
X761780Y291419D01*
X761814Y291311D01*
X761858Y291233D01*
X761893Y291151D01*
X761956Y291058D01*
X762011Y290960D01*
X762069Y290892D01*
X762119Y290818D01*
X762199Y290740D01*
X762272Y290654D01*
X762343Y290599D01*
X762407Y290536D01*
X762501Y290475D01*
X762589Y290406D01*
X762669Y290366D01*
X762744Y290317D01*
X762808Y290290D01*
X764568Y289394D01*
X766056Y288313D01*
X767357Y287012D01*
X768438Y285524D01*
X769273Y283886D01*
X769841Y282136D01*
X769872Y281939D01*
X749808Y281939D01*
X749790Y281937D01*
X749773Y281939D01*
X749590Y281918D01*
X749408Y281899D01*
X749391Y281894D01*
X749373Y281892D01*
X749295Y281867D01*
X749158Y281906D01*
X749140Y281908D01*
X749123Y281912D01*
X748792Y281939D01*
X728728Y281939D01*
X728759Y282136D01*
X729327Y283886D01*
X730162Y285524D01*
X731243Y287012D01*
X732544Y288313D01*
X734032Y289394D01*
X735715Y290251D01*
X735717Y290252D01*
X735728Y290258D01*
X735813Y290301D01*
X735830Y290312D01*
X735918Y290351D01*
X735992Y290402D01*
X736070Y290445D01*
X736156Y290517D01*
X736248Y290582D01*
X736310Y290647D01*
X736378Y290704D01*
X736448Y290792D01*
X736526Y290873D01*
X736573Y290949D01*
X736629Y291019D01*
X736680Y291119D01*
X736740Y291214D01*
X736772Y291298D01*
X736813Y291377D01*
X736844Y291485D01*
X736884Y291590D01*
X736898Y291679D01*
X736923Y291765D01*
X736931Y291877D01*
X736950Y291988D01*
X736947Y292077D01*
X736954Y292166D01*
X736940Y292277D01*
X736936Y292390D01*
X736916Y292477D01*
X736905Y292566D01*
X736870Y292672D01*
X736844Y292782D01*
X736807Y292863D01*
X736779Y292948D01*
X736723Y293045D01*
X736676Y293148D01*
X736623Y293220D01*
X736579Y293298D01*
X736505Y293382D01*
X736439Y293473D01*
X736373Y293534D01*
X736315Y293601D01*
X736226Y293670D01*
X736143Y293746D01*
X736066Y293792D01*
X735995Y293847D01*
X735871Y293911D01*
X735798Y293954D01*
X735755Y293970D01*
X735700Y293998D01*
X733537Y294894D01*
X730250Y298181D01*
X729922Y298973D01*
X729912Y298993D01*
X729905Y299014D01*
X729816Y299170D01*
X729732Y299328D01*
X729718Y299345D01*
X729707Y299365D01*
X729590Y299500D01*
X729475Y299639D01*
X729458Y299653D01*
X729444Y299670D01*
X729302Y299779D01*
X729163Y299892D01*
X729143Y299903D01*
X729125Y299916D01*
X728965Y299996D01*
X728806Y300079D01*
X728785Y300086D01*
X728765Y300096D01*
X728592Y300142D01*
X728420Y300192D01*
X728398Y300194D01*
X728376Y300200D01*
X728045Y300227D01*
X582511Y300227D01*
X582489Y300225D01*
X582466Y300227D01*
X582289Y300205D01*
X582110Y300187D01*
X582089Y300181D01*
X582067Y300178D01*
X581897Y300122D01*
X581725Y300069D01*
X581706Y300059D01*
X581685Y300052D01*
X581529Y299963D01*
X581371Y299877D01*
X581354Y299863D01*
X581335Y299852D01*
X581200Y299735D01*
X581062Y299620D01*
X581048Y299602D01*
X581031Y299588D01*
X580922Y299446D01*
X580810Y299306D01*
X580799Y299286D01*
X580786Y299268D01*
X580634Y298973D01*
X580544Y298757D01*
X577543Y295755D01*
X573622Y294131D01*
X569378Y294131D01*
X565457Y295755D01*
X562455Y298757D01*
X560831Y302678D01*
X560831Y306922D01*
X562455Y310843D01*
X565457Y313845D01*
X569378Y315469D01*
X573622Y315469D01*
X577543Y313845D01*
X580544Y310843D01*
X580634Y310627D01*
X580645Y310607D01*
X580652Y310586D01*
X580740Y310430D01*
X580824Y310272D01*
X580839Y310255D01*
X580850Y310235D01*
X580967Y310099D01*
X581081Y309961D01*
X581098Y309947D01*
X581113Y309930D01*
X581254Y309821D01*
X581393Y309708D01*
X581413Y309697D01*
X581431Y309684D01*
X581591Y309604D01*
X581750Y309521D01*
X581771Y309514D01*
X581791Y309504D01*
X581965Y309458D01*
X582136Y309408D01*
X582159Y309406D01*
X582180Y309400D01*
X582511Y309373D01*
X728045Y309373D01*
X728068Y309375D01*
X728090Y309373D01*
X728267Y309395D01*
X728446Y309413D01*
X728467Y309419D01*
X728490Y309422D01*
X728659Y309478D01*
X728831Y309531D01*
X728851Y309541D01*
X728872Y309548D01*
X729027Y309637D01*
X729185Y309723D01*
X729202Y309737D01*
X729221Y309748D01*
X729356Y309865D01*
X729494Y309980D01*
X729508Y309998D01*
X729525Y310012D01*
X729634Y310154D01*
X729747Y310294D01*
X729757Y310314D01*
X729770Y310332D01*
X729922Y310627D01*
X730250Y311419D01*
X733537Y314706D01*
X735752Y315623D01*
X735760Y315628D01*
X735769Y315630D01*
X735936Y315722D01*
X736107Y315814D01*
X736114Y315819D01*
X736122Y315824D01*
X736269Y315947D01*
X736418Y316070D01*
X736423Y316077D01*
X736430Y316083D01*
X736550Y316233D01*
X736671Y316383D01*
X736675Y316391D01*
X736681Y316397D01*
X736769Y316568D01*
X736858Y316739D01*
X736861Y316748D01*
X736865Y316756D01*
X736917Y316939D01*
X736971Y317125D01*
X736972Y317135D01*
X736975Y317143D01*
X736989Y317334D01*
X737006Y317527D01*
X737005Y317536D01*
X737006Y317544D01*
X736983Y317734D01*
X736961Y317927D01*
X736958Y317935D01*
X736957Y317944D01*
X736897Y318126D01*
X736838Y318310D01*
X736833Y318318D01*
X736831Y318326D01*
X736735Y318494D01*
X736641Y318661D01*
X736636Y318668D01*
X736631Y318676D01*
X736505Y318821D01*
X736380Y318967D01*
X736372Y318973D01*
X736367Y318980D01*
X736214Y319097D01*
X736063Y319216D01*
X736054Y319220D01*
X736047Y319225D01*
X735752Y319377D01*
X733537Y320294D01*
X730250Y323581D01*
X729922Y324373D01*
X729912Y324393D01*
X729905Y324414D01*
X729816Y324570D01*
X729732Y324728D01*
X729718Y324745D01*
X729707Y324765D01*
X729590Y324900D01*
X729475Y325039D01*
X729458Y325053D01*
X729444Y325070D01*
X729302Y325179D01*
X729163Y325292D01*
X729143Y325303D01*
X729125Y325316D01*
X728965Y325396D01*
X728806Y325479D01*
X728785Y325486D01*
X728765Y325496D01*
X728592Y325542D01*
X728420Y325592D01*
X728398Y325594D01*
X728376Y325600D01*
X728045Y325627D01*
X550761Y325627D01*
X550739Y325625D01*
X550716Y325627D01*
X550539Y325605D01*
X550360Y325587D01*
X550339Y325581D01*
X550317Y325578D01*
X550147Y325522D01*
X549975Y325469D01*
X549956Y325459D01*
X549935Y325452D01*
X549779Y325363D01*
X549621Y325277D01*
X549604Y325263D01*
X549585Y325252D01*
X549450Y325135D01*
X549312Y325020D01*
X549298Y325002D01*
X549281Y324988D01*
X549172Y324846D01*
X549060Y324706D01*
X549049Y324686D01*
X549036Y324668D01*
X548884Y324373D01*
X548794Y324157D01*
X545793Y321155D01*
X541872Y319531D01*
X537628Y319531D01*
X533707Y321155D01*
X530705Y324157D01*
X529081Y328078D01*
X529081Y332322D01*
X530705Y336243D01*
X533707Y339245D01*
X537628Y340869D01*
X541872Y340869D01*
X545793Y339245D01*
X548794Y336243D01*
X548884Y336027D01*
X548895Y336007D01*
X548902Y335986D01*
X548990Y335830D01*
X549074Y335672D01*
X549089Y335655D01*
X549100Y335635D01*
X549217Y335499D01*
X549331Y335361D01*
X549348Y335347D01*
X549363Y335330D01*
X549504Y335221D01*
X549643Y335108D01*
X549663Y335097D01*
X549681Y335084D01*
X549841Y335004D01*
X550000Y334921D01*
X550021Y334914D01*
X550041Y334904D01*
X550215Y334858D01*
X550386Y334808D01*
X550409Y334806D01*
X550430Y334800D01*
X550761Y334773D01*
X728045Y334773D01*
X728068Y334775D01*
X728090Y334773D01*
X728267Y334795D01*
X728446Y334813D01*
X728467Y334819D01*
X728490Y334822D01*
X728659Y334878D01*
X728831Y334931D01*
X728851Y334941D01*
X728872Y334948D01*
X729027Y335037D01*
X729185Y335123D01*
X729202Y335137D01*
X729221Y335148D01*
X729356Y335265D01*
X729494Y335380D01*
X729508Y335398D01*
X729525Y335412D01*
X729634Y335554D01*
X729747Y335694D01*
X729757Y335714D01*
X729770Y335732D01*
X729922Y336027D01*
X730250Y336819D01*
X733537Y340106D01*
X735752Y341023D01*
X735760Y341028D01*
X735769Y341030D01*
X735936Y341122D01*
X736107Y341214D01*
X736114Y341219D01*
X736122Y341224D01*
X736269Y341347D01*
X736418Y341470D01*
X736423Y341477D01*
X736430Y341483D01*
X736550Y341633D01*
X736671Y341783D01*
X736675Y341791D01*
X736681Y341797D01*
X736769Y341968D01*
X736858Y342139D01*
X736861Y342148D01*
X736865Y342156D01*
X736917Y342339D01*
X736971Y342525D01*
X736972Y342535D01*
X736975Y342543D01*
X736989Y342734D01*
X737006Y342927D01*
X737005Y342936D01*
X737006Y342944D01*
X736983Y343134D01*
X736961Y343327D01*
X736958Y343335D01*
X736957Y343344D01*
X736897Y343526D01*
X736838Y343710D01*
X736833Y343718D01*
X736831Y343726D01*
X736735Y343894D01*
X736641Y344061D01*
X736636Y344068D01*
X736631Y344076D01*
X736505Y344221D01*
X736380Y344367D01*
X736372Y344373D01*
X736367Y344380D01*
X736214Y344497D01*
X736063Y344616D01*
X736054Y344620D01*
X736047Y344625D01*
X735752Y344777D01*
X733537Y345694D01*
X730250Y348981D01*
X729922Y349773D01*
X729912Y349793D01*
X729905Y349814D01*
X729816Y349970D01*
X729732Y350128D01*
X729718Y350145D01*
X729707Y350165D01*
X729590Y350300D01*
X729475Y350439D01*
X729458Y350453D01*
X729444Y350470D01*
X729302Y350579D01*
X729163Y350692D01*
X729143Y350703D01*
X729125Y350716D01*
X728965Y350796D01*
X728806Y350879D01*
X728785Y350886D01*
X728765Y350896D01*
X728592Y350942D01*
X728420Y350992D01*
X728398Y350994D01*
X728376Y351000D01*
X728045Y351027D01*
X532490Y351027D01*
X530810Y351723D01*
X529238Y353295D01*
X421472Y461061D01*
X421465Y461067D01*
X421460Y461073D01*
X421310Y461194D01*
X421161Y461316D01*
X421153Y461320D01*
X421146Y461326D01*
X420975Y461415D01*
X420805Y461505D01*
X420797Y461507D01*
X420789Y461511D01*
X420603Y461565D01*
X420419Y461619D01*
X420410Y461620D01*
X420402Y461623D01*
X420210Y461638D01*
X420018Y461656D01*
X420009Y461655D01*
X420000Y461656D01*
X419811Y461633D01*
X419618Y461612D01*
X419609Y461610D01*
X419601Y461609D01*
X419419Y461549D01*
X419234Y461491D01*
X419226Y461487D01*
X419218Y461484D01*
X419049Y461389D01*
X418882Y461296D01*
X418875Y461290D01*
X418867Y461286D01*
X418721Y461160D01*
X418575Y461036D01*
X418569Y461029D01*
X418562Y461023D01*
X418445Y460871D01*
X418325Y460720D01*
X418321Y460712D01*
X418316Y460705D01*
X418230Y460533D01*
X418143Y460361D01*
X418140Y460352D01*
X418136Y460344D01*
X418086Y460158D01*
X418035Y459973D01*
X418034Y459964D01*
X418032Y459955D01*
X418005Y459625D01*
X418005Y454892D01*
X416238Y450626D01*
X412974Y447362D01*
X408708Y445595D01*
X404092Y445595D01*
X399826Y447362D01*
X396562Y450626D01*
X394795Y454892D01*
X394795Y459508D01*
X396562Y463774D01*
X399826Y467038D01*
X402205Y468023D01*
X402213Y468028D01*
X402222Y468030D01*
X402392Y468123D01*
X402560Y468214D01*
X402567Y468219D01*
X402575Y468224D01*
X402723Y468348D01*
X402871Y468470D01*
X402876Y468477D01*
X402883Y468483D01*
X403003Y468633D01*
X403124Y468783D01*
X403128Y468791D01*
X403134Y468798D01*
X403221Y468967D01*
X403311Y469139D01*
X403314Y469148D01*
X403318Y469156D01*
X403370Y469338D01*
X403424Y469526D01*
X403425Y469535D01*
X403428Y469543D01*
X403442Y469734D01*
X403459Y469927D01*
X403458Y469936D01*
X403459Y469944D01*
X403435Y470135D01*
X403414Y470327D01*
X403411Y470335D01*
X403410Y470344D01*
X403350Y470526D01*
X403291Y470710D01*
X403286Y470718D01*
X403284Y470726D01*
X403188Y470894D01*
X403094Y471062D01*
X403089Y471068D01*
X403084Y471076D01*
X402957Y471222D01*
X402833Y471367D01*
X402825Y471373D01*
X402820Y471380D01*
X402667Y471497D01*
X402515Y471616D01*
X402507Y471620D01*
X402500Y471625D01*
X402205Y471777D01*
X399826Y472762D01*
X396562Y476026D01*
X394795Y480292D01*
X394795Y484908D01*
X396562Y489174D01*
X399826Y492438D01*
X402205Y493423D01*
X402213Y493428D01*
X402222Y493430D01*
X402392Y493523D01*
X402560Y493614D01*
X402567Y493619D01*
X402575Y493624D01*
X402723Y493748D01*
X402871Y493870D01*
X402876Y493877D01*
X402883Y493883D01*
X403003Y494033D01*
X403124Y494183D01*
X403128Y494191D01*
X403134Y494198D01*
X403221Y494367D01*
X403311Y494539D01*
X403314Y494548D01*
X403318Y494556D01*
X403370Y494738D01*
X403424Y494926D01*
X403425Y494935D01*
X403428Y494943D01*
X403442Y495134D01*
X403459Y495327D01*
X403458Y495336D01*
X403459Y495344D01*
X403435Y495535D01*
X403414Y495727D01*
X403411Y495735D01*
X403410Y495744D01*
X403350Y495926D01*
X403291Y496110D01*
X403286Y496118D01*
X403284Y496126D01*
X403188Y496294D01*
X403094Y496462D01*
X403089Y496468D01*
X403084Y496476D01*
X402957Y496622D01*
X402833Y496767D01*
X402825Y496773D01*
X402820Y496780D01*
X402667Y496897D01*
X402515Y497016D01*
X402507Y497020D01*
X402500Y497025D01*
X402205Y497177D01*
X399826Y498162D01*
X396562Y501426D01*
X394795Y505692D01*
X394795Y510308D01*
X396562Y514574D01*
X399826Y517838D01*
X402205Y518823D01*
X402213Y518828D01*
X402222Y518830D01*
X402392Y518923D01*
X402560Y519014D01*
X402567Y519019D01*
X402575Y519024D01*
X402723Y519148D01*
X402871Y519270D01*
X402876Y519277D01*
X402883Y519283D01*
X403003Y519433D01*
X403124Y519583D01*
X403128Y519591D01*
X403134Y519598D01*
X403221Y519767D01*
X403311Y519939D01*
X403314Y519948D01*
X403318Y519956D01*
X403370Y520138D01*
X403424Y520326D01*
X403425Y520335D01*
X403428Y520343D01*
X403442Y520534D01*
X403459Y520727D01*
X403458Y520736D01*
X403459Y520744D01*
X403435Y520935D01*
X403414Y521127D01*
X403411Y521135D01*
X403410Y521144D01*
X403350Y521326D01*
X403291Y521510D01*
X403286Y521518D01*
X403284Y521526D01*
X403188Y521694D01*
X403094Y521862D01*
X403089Y521868D01*
X403084Y521876D01*
X402957Y522022D01*
X402833Y522167D01*
X402825Y522173D01*
X402820Y522180D01*
X402667Y522297D01*
X402515Y522416D01*
X402507Y522420D01*
X402500Y522425D01*
X402205Y522577D01*
X399826Y523562D01*
X396562Y526826D01*
X394795Y531092D01*
X394795Y535708D01*
X396562Y539974D01*
X399826Y543238D01*
X402205Y544223D01*
X402213Y544228D01*
X402222Y544230D01*
X402392Y544323D01*
X402560Y544414D01*
X402567Y544419D01*
X402575Y544424D01*
X402723Y544548D01*
X402871Y544670D01*
X402876Y544677D01*
X402883Y544683D01*
X403003Y544833D01*
X403124Y544983D01*
X403128Y544991D01*
X403134Y544998D01*
X403221Y545167D01*
X403311Y545339D01*
X403314Y545348D01*
X403318Y545356D01*
X403370Y545538D01*
X403424Y545726D01*
X403425Y545735D01*
X403428Y545743D01*
X403442Y545934D01*
X403459Y546127D01*
X403458Y546136D01*
X403459Y546144D01*
X403435Y546335D01*
X403414Y546527D01*
X403411Y546535D01*
X403410Y546544D01*
X403351Y546723D01*
X403291Y546910D01*
X403286Y546918D01*
X403284Y546926D01*
X403188Y547094D01*
X403094Y547262D01*
X403089Y547268D01*
X403084Y547276D01*
X402957Y547422D01*
X402833Y547567D01*
X402825Y547573D01*
X402820Y547580D01*
X402668Y547696D01*
X402515Y547816D01*
X402507Y547820D01*
X402500Y547825D01*
X402205Y547977D01*
X399826Y548962D01*
X396562Y552226D01*
X394795Y556492D01*
X394795Y561108D01*
X396562Y565374D01*
X399826Y568638D01*
X402205Y569623D01*
X402213Y569628D01*
X402222Y569630D01*
X402391Y569723D01*
X402560Y569814D01*
X402567Y569819D01*
X402575Y569824D01*
X402722Y569947D01*
X402871Y570070D01*
X402876Y570077D01*
X402883Y570083D01*
X403004Y570234D01*
X403124Y570383D01*
X403128Y570390D01*
X403134Y570398D01*
X403223Y570571D01*
X403311Y570739D01*
X403314Y570748D01*
X403318Y570756D01*
X403371Y570942D01*
X403424Y571126D01*
X403425Y571135D01*
X403428Y571143D01*
X403442Y571334D01*
X403459Y571527D01*
X403458Y571536D01*
X403459Y571544D01*
X403435Y571736D01*
X403414Y571927D01*
X403411Y571935D01*
X403410Y571944D01*
X403350Y572127D01*
X403291Y572310D01*
X403286Y572318D01*
X403284Y572326D01*
X403188Y572493D01*
X403094Y572662D01*
X403089Y572668D01*
X403084Y572676D01*
X402959Y572820D01*
X402833Y572967D01*
X402825Y572973D01*
X402820Y572980D01*
X402667Y573097D01*
X402516Y573216D01*
X402508Y573220D01*
X402500Y573225D01*
X402205Y573377D01*
X399826Y574362D01*
X396562Y577626D01*
X394795Y581892D01*
X394795Y586508D01*
X396562Y590774D01*
X399826Y594038D01*
X400426Y594286D01*
X402205Y595023D01*
X402213Y595028D01*
X402222Y595030D01*
X402391Y595123D01*
X402560Y595214D01*
X402567Y595219D01*
X402575Y595224D01*
X402722Y595347D01*
X402871Y595470D01*
X402876Y595477D01*
X402883Y595483D01*
X403004Y595634D01*
X403124Y595783D01*
X403128Y595790D01*
X403134Y595798D01*
X403223Y595971D01*
X403311Y596139D01*
X403314Y596148D01*
X403318Y596156D01*
X403371Y596342D01*
X403424Y596526D01*
X403425Y596535D01*
X403428Y596543D01*
X403442Y596734D01*
X403459Y596927D01*
X403458Y596936D01*
X403459Y596944D01*
X403435Y597136D01*
X403414Y597327D01*
X403411Y597335D01*
X403410Y597344D01*
X403350Y597527D01*
X403291Y597710D01*
X403286Y597718D01*
X403284Y597726D01*
X403188Y597893D01*
X403094Y598062D01*
X403089Y598068D01*
X403084Y598076D01*
X402959Y598220D01*
X402833Y598367D01*
X402825Y598373D01*
X402820Y598380D01*
X402667Y598497D01*
X402516Y598616D01*
X402508Y598620D01*
X402500Y598625D01*
X402205Y598777D01*
X399826Y599762D01*
X396562Y603026D01*
X394795Y607292D01*
X394795Y611908D01*
X396562Y616174D01*
X399826Y619438D01*
X402205Y620423D01*
X402213Y620428D01*
X402222Y620430D01*
X402391Y620523D01*
X402560Y620614D01*
X402567Y620619D01*
X402575Y620624D01*
X402722Y620747D01*
X402871Y620870D01*
X402876Y620877D01*
X402883Y620883D01*
X403004Y621034D01*
X403124Y621183D01*
X403128Y621190D01*
X403134Y621198D01*
X403223Y621371D01*
X403311Y621539D01*
X403314Y621548D01*
X403318Y621556D01*
X403371Y621742D01*
X403424Y621926D01*
X403425Y621935D01*
X403428Y621943D01*
X403442Y622134D01*
X403459Y622327D01*
X403458Y622336D01*
X403459Y622344D01*
X403435Y622536D01*
X403414Y622727D01*
X403411Y622735D01*
X403410Y622744D01*
X403350Y622927D01*
X403291Y623110D01*
X403286Y623118D01*
X403284Y623126D01*
X403188Y623293D01*
X403094Y623462D01*
X403089Y623468D01*
X403084Y623476D01*
X402959Y623620D01*
X402833Y623767D01*
X402825Y623773D01*
X402820Y623780D01*
X402667Y623897D01*
X402516Y624016D01*
X402508Y624020D01*
X402500Y624025D01*
X402205Y624177D01*
X399826Y625162D01*
X396562Y628426D01*
X394795Y632692D01*
X394795Y637308D01*
X396562Y641574D01*
X399826Y644838D01*
X402205Y645823D01*
X402213Y645828D01*
X402222Y645830D01*
X402391Y645923D01*
X402560Y646014D01*
X402567Y646019D01*
X402575Y646024D01*
X402722Y646147D01*
X402871Y646270D01*
X402876Y646277D01*
X402883Y646283D01*
X403004Y646434D01*
X403124Y646583D01*
X403128Y646590D01*
X403134Y646598D01*
X403223Y646771D01*
X403311Y646939D01*
X403314Y646948D01*
X403318Y646956D01*
X403371Y647142D01*
X403424Y647326D01*
X403425Y647335D01*
X403428Y647343D01*
X403442Y647534D01*
X403459Y647727D01*
X403458Y647736D01*
X403459Y647744D01*
X403435Y647936D01*
X403414Y648127D01*
X403411Y648135D01*
X403410Y648144D01*
X403350Y648327D01*
X403291Y648510D01*
X403286Y648518D01*
X403284Y648526D01*
X403188Y648693D01*
X403094Y648862D01*
X403089Y648868D01*
X403084Y648876D01*
X402959Y649020D01*
X402833Y649167D01*
X402825Y649173D01*
X402820Y649180D01*
X402667Y649297D01*
X402516Y649416D01*
X402508Y649420D01*
X402500Y649425D01*
X402205Y649577D01*
X399826Y650562D01*
X396562Y653826D01*
X394795Y658092D01*
X394795Y662708D01*
X396562Y666974D01*
X399826Y670238D01*
X402205Y671223D01*
X402213Y671228D01*
X402222Y671230D01*
X402391Y671323D01*
X402560Y671414D01*
X402567Y671419D01*
X402575Y671424D01*
X402722Y671547D01*
X402871Y671670D01*
X402876Y671677D01*
X402883Y671683D01*
X403004Y671834D01*
X403124Y671983D01*
X403128Y671990D01*
X403134Y671998D01*
X403223Y672171D01*
X403311Y672339D01*
X403314Y672348D01*
X403318Y672356D01*
X403371Y672542D01*
X403424Y672726D01*
X403425Y672735D01*
X403428Y672743D01*
X403442Y672934D01*
X403459Y673127D01*
X403458Y673136D01*
X403459Y673144D01*
X403435Y673336D01*
X403414Y673527D01*
X403411Y673535D01*
X403410Y673544D01*
X403350Y673727D01*
X403291Y673910D01*
X403286Y673918D01*
X403284Y673926D01*
X403188Y674093D01*
X403094Y674262D01*
X403089Y674268D01*
X403084Y674276D01*
X402959Y674420D01*
X402833Y674567D01*
X402825Y674573D01*
X402820Y674580D01*
X402667Y674697D01*
X402516Y674816D01*
X402508Y674820D01*
X402500Y674825D01*
X402205Y674977D01*
X399826Y675962D01*
X396562Y679226D01*
X394795Y683492D01*
X394795Y688108D01*
X396562Y692374D01*
X399826Y695638D01*
X400335Y695849D01*
X402205Y696623D01*
X402213Y696628D01*
X402222Y696630D01*
X402391Y696723D01*
X402560Y696814D01*
X402567Y696819D01*
X402575Y696824D01*
X402722Y696947D01*
X402871Y697070D01*
X402876Y697077D01*
X402883Y697083D01*
X403004Y697234D01*
X403124Y697383D01*
X403128Y697390D01*
X403134Y697398D01*
X403223Y697571D01*
X403311Y697739D01*
X403314Y697748D01*
X403318Y697756D01*
X403371Y697942D01*
X403424Y698126D01*
X403425Y698135D01*
X403428Y698143D01*
X403442Y698334D01*
X403459Y698527D01*
X403458Y698536D01*
X403459Y698544D01*
X403435Y698736D01*
X403414Y698927D01*
X403411Y698935D01*
X403410Y698944D01*
X403350Y699127D01*
X403291Y699310D01*
X403286Y699318D01*
X403284Y699326D01*
X403188Y699493D01*
X403094Y699662D01*
X403089Y699668D01*
X403084Y699676D01*
X402959Y699820D01*
X402833Y699967D01*
X402825Y699973D01*
X402820Y699980D01*
X402667Y700097D01*
X402516Y700216D01*
X402508Y700220D01*
X402500Y700225D01*
X402205Y700377D01*
X399826Y701362D01*
X396562Y704626D01*
X394795Y708892D01*
X394795Y713508D01*
X396562Y717774D01*
X399826Y721038D01*
X402205Y722023D01*
X402213Y722028D01*
X402222Y722030D01*
X402391Y722123D01*
X402560Y722214D01*
X402567Y722219D01*
X402575Y722224D01*
X402722Y722347D01*
X402871Y722470D01*
X402876Y722477D01*
X402883Y722483D01*
X403004Y722634D01*
X403124Y722783D01*
X403128Y722790D01*
X403134Y722798D01*
X403223Y722971D01*
X403311Y723139D01*
X403314Y723148D01*
X403318Y723156D01*
X403371Y723342D01*
X403424Y723526D01*
X403425Y723535D01*
X403428Y723543D01*
X403442Y723734D01*
X403459Y723927D01*
X403458Y723936D01*
X403459Y723944D01*
X403435Y724136D01*
X403414Y724327D01*
X403411Y724335D01*
X403410Y724344D01*
X403350Y724527D01*
X403291Y724710D01*
X403286Y724718D01*
X403284Y724726D01*
X403188Y724893D01*
X403094Y725062D01*
X403089Y725068D01*
X403084Y725076D01*
X402959Y725220D01*
X402833Y725367D01*
X402825Y725373D01*
X402820Y725380D01*
X402667Y725497D01*
X402516Y725616D01*
X402508Y725620D01*
X402500Y725625D01*
X402205Y725777D01*
X399826Y726762D01*
X396562Y730026D01*
X394795Y734292D01*
X394795Y738908D01*
X396562Y743174D01*
X399826Y746438D01*
X400290Y746630D01*
X402175Y747411D01*
X402253Y747453D01*
X402336Y747486D01*
X402431Y747548D01*
X402530Y747601D01*
X402599Y747658D01*
X402673Y747706D01*
X402753Y747786D01*
X402841Y747858D01*
X402896Y747926D01*
X402960Y747989D01*
X403023Y748082D01*
X403094Y748170D01*
X403135Y748249D01*
X403185Y748322D01*
X403229Y748427D01*
X403281Y748527D01*
X403306Y748612D01*
X403340Y748694D01*
X403363Y748804D01*
X403394Y748913D01*
X403402Y749002D01*
X403419Y749089D01*
X403419Y749202D01*
X403429Y749314D01*
X403419Y749402D01*
X403419Y749491D01*
X403397Y749602D01*
X403384Y749714D01*
X403357Y749799D01*
X403339Y749886D01*
X403295Y749990D01*
X403261Y750098D01*
X403217Y750175D01*
X403183Y750257D01*
X403119Y750350D01*
X403064Y750449D01*
X403007Y750517D01*
X402957Y750590D01*
X402876Y750669D01*
X402803Y750755D01*
X402733Y750810D01*
X402669Y750872D01*
X402575Y750933D01*
X402486Y751003D01*
X402406Y751043D01*
X402332Y751091D01*
X402201Y751146D01*
X402126Y751184D01*
X402081Y751196D01*
X402026Y751219D01*
X401945Y751245D01*
X400318Y752075D01*
X398840Y753148D01*
X397548Y754440D01*
X396475Y755918D01*
X395646Y757545D01*
X395081Y759283D01*
X395046Y759501D01*
X405932Y759501D01*
X405950Y759502D01*
X405967Y759501D01*
X406150Y759522D01*
X406332Y759541D01*
X406349Y759546D01*
X406367Y759548D01*
X406408Y759561D01*
X406502Y759534D01*
X406520Y759532D01*
X406537Y759528D01*
X406868Y759501D01*
X417754Y759501D01*
X417719Y759283D01*
X417154Y757545D01*
X416325Y755918D01*
X415252Y754440D01*
X413960Y753148D01*
X412482Y752075D01*
X410855Y751245D01*
X410774Y751219D01*
X410693Y751184D01*
X410608Y751157D01*
X410509Y751103D01*
X410406Y751058D01*
X410333Y751007D01*
X410255Y750964D01*
X410169Y750891D01*
X410076Y750826D01*
X410015Y750762D01*
X409947Y750705D01*
X409876Y750616D01*
X409799Y750535D01*
X409751Y750460D01*
X409696Y750390D01*
X409644Y750289D01*
X409584Y750194D01*
X409553Y750111D01*
X409512Y750032D01*
X409481Y749923D01*
X409441Y749818D01*
X409427Y749730D01*
X409402Y749645D01*
X409394Y749532D01*
X409375Y749420D01*
X409378Y749331D01*
X409371Y749243D01*
X409385Y749131D01*
X409389Y749018D01*
X409409Y748931D01*
X409420Y748843D01*
X409455Y748736D01*
X409481Y748626D01*
X409519Y748545D01*
X409546Y748461D01*
X409602Y748363D01*
X409650Y748260D01*
X409702Y748189D01*
X409746Y748111D01*
X409820Y748026D01*
X409887Y747935D01*
X409952Y747875D01*
X410010Y747808D01*
X410100Y747739D01*
X410183Y747663D01*
X410259Y747617D01*
X410330Y747562D01*
X410455Y747498D01*
X410528Y747454D01*
X410571Y747438D01*
X410625Y747411D01*
X412974Y746438D01*
X416238Y743174D01*
X418005Y738908D01*
X418005Y734292D01*
X416238Y730026D01*
X412974Y726762D01*
X410595Y725777D01*
X410587Y725772D01*
X410578Y725770D01*
X410411Y725678D01*
X410240Y725586D01*
X410233Y725581D01*
X410225Y725576D01*
X410078Y725453D01*
X409929Y725330D01*
X409924Y725323D01*
X409917Y725317D01*
X409797Y725167D01*
X409676Y725017D01*
X409672Y725009D01*
X409666Y725003D01*
X409578Y724832D01*
X409489Y724661D01*
X409486Y724652D01*
X409482Y724644D01*
X409430Y724461D01*
X409376Y724275D01*
X409375Y724265D01*
X409372Y724257D01*
X409358Y724066D01*
X409341Y723873D01*
X409342Y723864D01*
X409341Y723856D01*
X409364Y723666D01*
X409386Y723473D01*
X409389Y723465D01*
X409390Y723456D01*
X409450Y723276D01*
X409509Y723090D01*
X409514Y723082D01*
X409516Y723074D01*
X409611Y722908D01*
X409706Y722739D01*
X409711Y722732D01*
X409716Y722724D01*
X409842Y722579D01*
X409967Y722433D01*
X409974Y722427D01*
X409980Y722420D01*
X410133Y722303D01*
X410284Y722184D01*
X410292Y722180D01*
X410300Y722175D01*
X410595Y722023D01*
X412974Y721038D01*
X416238Y717774D01*
X418005Y713508D01*
X418005Y708775D01*
X418006Y708767D01*
X418005Y708758D01*
X418026Y708564D01*
X418045Y708375D01*
X418047Y708366D01*
X418048Y708357D01*
X418107Y708173D01*
X418163Y707990D01*
X418167Y707982D01*
X418170Y707974D01*
X418263Y707805D01*
X418355Y707636D01*
X418360Y707629D01*
X418365Y707621D01*
X418489Y707474D01*
X418612Y707327D01*
X418619Y707321D01*
X418625Y707314D01*
X418777Y707194D01*
X418926Y707074D01*
X418934Y707070D01*
X418941Y707065D01*
X419114Y706977D01*
X419283Y706889D01*
X419292Y706886D01*
X419300Y706882D01*
X419486Y706830D01*
X419670Y706777D01*
X419679Y706777D01*
X419688Y706774D01*
X419881Y706760D01*
X420072Y706744D01*
X420080Y706745D01*
X420089Y706745D01*
X420282Y706769D01*
X420471Y706791D01*
X420480Y706794D01*
X420489Y706795D01*
X420671Y706856D01*
X420854Y706916D01*
X420862Y706921D01*
X420870Y706923D01*
X421037Y707020D01*
X421205Y707114D01*
X421212Y707120D01*
X421219Y707124D01*
X421472Y707339D01*
X605438Y891305D01*
X607010Y892877D01*
X608690Y893573D01*
X728045Y893573D01*
X728068Y893575D01*
X728090Y893573D01*
X728267Y893595D01*
X728446Y893613D01*
X728467Y893619D01*
X728490Y893622D01*
X728659Y893678D01*
X728831Y893731D01*
X728851Y893741D01*
X728872Y893748D01*
X729027Y893837D01*
X729185Y893923D01*
X729202Y893937D01*
X729221Y893948D01*
X729356Y894065D01*
X729494Y894180D01*
X729508Y894198D01*
X729525Y894212D01*
X729634Y894354D01*
X729747Y894494D01*
X729757Y894514D01*
X729770Y894532D01*
X729922Y894827D01*
X730250Y895619D01*
X733537Y898906D01*
X733701Y898974D01*
X735752Y899823D01*
X735760Y899828D01*
X735769Y899830D01*
X735937Y899922D01*
X736107Y900014D01*
X736114Y900019D01*
X736122Y900024D01*
X736268Y900147D01*
X736417Y900270D01*
X736423Y900277D01*
X736430Y900283D01*
X736550Y900433D01*
X736671Y900583D01*
X736675Y900591D01*
X736681Y900597D01*
X736769Y900768D01*
X736858Y900939D01*
X736861Y900948D01*
X736865Y900956D01*
X736917Y901140D01*
X736971Y901326D01*
X736972Y901334D01*
X736975Y901343D01*
X736989Y901534D01*
X737006Y901727D01*
X737005Y901736D01*
X737006Y901744D01*
X736983Y901934D01*
X736961Y902127D01*
X736958Y902135D01*
X736957Y902144D01*
X736897Y902326D01*
X736838Y902510D01*
X736833Y902518D01*
X736831Y902526D01*
X736735Y902694D01*
X736641Y902862D01*
X736636Y902868D01*
X736631Y902876D01*
X736505Y903021D01*
X736379Y903167D01*
X736372Y903173D01*
X736367Y903180D01*
X736213Y903297D01*
X736062Y903416D01*
X736055Y903420D01*
X736047Y903425D01*
X735752Y903577D01*
X733537Y904494D01*
X730831Y907200D01*
X730810Y907217D01*
X730793Y907238D01*
X730655Y907345D01*
X730519Y907455D01*
X730496Y907468D01*
X730475Y907484D01*
X730318Y907562D01*
X730164Y907644D01*
X730138Y907652D01*
X730114Y907664D01*
X729945Y907709D01*
X729778Y907759D01*
X729751Y907761D01*
X729725Y907768D01*
X729395Y907795D01*
X587777Y907795D01*
X587751Y907793D01*
X587724Y907795D01*
X587550Y907773D01*
X587377Y907755D01*
X587351Y907748D01*
X587324Y907744D01*
X587159Y907689D01*
X586992Y907637D01*
X586968Y907624D01*
X586943Y907616D01*
X586791Y907529D01*
X586638Y907445D01*
X586617Y907428D01*
X586594Y907415D01*
X586341Y907200D01*
X486341Y807201D01*
X483914Y806195D01*
X417048Y806195D01*
X417022Y806193D01*
X416995Y806195D01*
X416821Y806173D01*
X416648Y806155D01*
X416622Y806148D01*
X416595Y806144D01*
X416430Y806089D01*
X416263Y806037D01*
X416239Y806024D01*
X416214Y806016D01*
X416062Y805929D01*
X415909Y805845D01*
X415888Y805828D01*
X415865Y805815D01*
X415612Y805600D01*
X412974Y802962D01*
X410595Y801977D01*
X410587Y801972D01*
X410578Y801970D01*
X410411Y801878D01*
X410240Y801786D01*
X410233Y801781D01*
X410225Y801776D01*
X410078Y801653D01*
X409929Y801530D01*
X409924Y801523D01*
X409917Y801517D01*
X409797Y801367D01*
X409676Y801217D01*
X409672Y801209D01*
X409666Y801203D01*
X409578Y801032D01*
X409489Y800861D01*
X409486Y800852D01*
X409482Y800844D01*
X409430Y800661D01*
X409376Y800475D01*
X409375Y800465D01*
X409372Y800457D01*
X409358Y800266D01*
X409341Y800073D01*
X409342Y800064D01*
X409341Y800056D01*
X409364Y799866D01*
X409386Y799673D01*
X409389Y799665D01*
X409390Y799656D01*
X409450Y799476D01*
X409509Y799290D01*
X409514Y799282D01*
X409516Y799274D01*
X409611Y799108D01*
X409706Y798939D01*
X409711Y798932D01*
X409716Y798924D01*
X409842Y798779D01*
X409967Y798633D01*
X409974Y798627D01*
X409980Y798620D01*
X410133Y798503D01*
X410284Y798384D01*
X410292Y798380D01*
X410300Y798375D01*
X410595Y798223D01*
X412974Y797238D01*
X416238Y793974D01*
X418005Y789708D01*
X418005Y785092D01*
X416238Y780826D01*
X412974Y777562D01*
X410625Y776589D01*
X410547Y776547D01*
X410464Y776514D01*
X410369Y776452D01*
X410270Y776399D01*
X410201Y776342D01*
X410127Y776294D01*
X410047Y776214D01*
X409959Y776142D01*
X409904Y776074D01*
X409840Y776011D01*
X409777Y775918D01*
X409706Y775830D01*
X409665Y775751D01*
X409615Y775678D01*
X409571Y775573D01*
X409519Y775473D01*
X409494Y775388D01*
X409460Y775306D01*
X409437Y775196D01*
X409406Y775087D01*
X409398Y774998D01*
X409381Y774911D01*
X409381Y774798D01*
X409371Y774686D01*
X409381Y774598D01*
X409381Y774509D01*
X409403Y774398D01*
X409416Y774286D01*
X409443Y774201D01*
X409461Y774114D01*
X409505Y774010D01*
X409539Y773902D01*
X409583Y773825D01*
X409617Y773743D01*
X409681Y773650D01*
X409736Y773551D01*
X409793Y773483D01*
X409843Y773410D01*
X409924Y773331D01*
X409997Y773245D01*
X410067Y773190D01*
X410131Y773128D01*
X410225Y773067D01*
X410314Y772997D01*
X410394Y772957D01*
X410468Y772909D01*
X410599Y772854D01*
X410674Y772816D01*
X410719Y772804D01*
X410774Y772781D01*
X410855Y772755D01*
X412482Y771925D01*
X413960Y770852D01*
X415252Y769560D01*
X416325Y768082D01*
X417154Y766455D01*
X417719Y764717D01*
X417754Y764499D01*
X406868Y764499D01*
X406850Y764497D01*
X406833Y764499D01*
X406650Y764478D01*
X406468Y764459D01*
X406451Y764454D01*
X406433Y764452D01*
X406392Y764439D01*
X406298Y764466D01*
X406280Y764468D01*
X406263Y764472D01*
X405932Y764499D01*
X395046Y764499D01*
X395081Y764717D01*
X395646Y766455D01*
X396475Y768082D01*
X397548Y769560D01*
X398840Y770852D01*
X400318Y771925D01*
X401945Y772755D01*
X402026Y772781D01*
X402107Y772816D01*
X402192Y772843D01*
X402291Y772897D01*
X402394Y772942D01*
X402467Y772993D01*
X402545Y773036D01*
X402631Y773109D01*
X402724Y773174D01*
X402785Y773238D01*
X402853Y773295D01*
X402924Y773384D01*
X403001Y773465D01*
X403049Y773540D01*
X403104Y773610D01*
X403156Y773711D01*
X403216Y773806D01*
X403247Y773889D01*
X403288Y773968D01*
X403319Y774077D01*
X403359Y774182D01*
X403373Y774270D01*
X403398Y774355D01*
X403406Y774468D01*
X403425Y774580D01*
X403422Y774669D01*
X403429Y774757D01*
X403415Y774869D01*
X403411Y774982D01*
X403391Y775069D01*
X403380Y775157D01*
X403345Y775264D01*
X403319Y775374D01*
X403281Y775455D01*
X403254Y775539D01*
X403198Y775637D01*
X403150Y775740D01*
X403098Y775811D01*
X403054Y775889D01*
X402980Y775974D01*
X402913Y776065D01*
X402848Y776125D01*
X402790Y776192D01*
X402700Y776261D01*
X402617Y776337D01*
X402541Y776383D01*
X402470Y776438D01*
X402345Y776502D01*
X402272Y776546D01*
X402229Y776562D01*
X402175Y776589D01*
X399826Y777562D01*
X396562Y780826D01*
X394795Y785092D01*
X394795Y789708D01*
X396562Y793974D01*
X399826Y797238D01*
X400245Y797411D01*
X402205Y798223D01*
X402213Y798228D01*
X402222Y798230D01*
X402391Y798323D01*
X402560Y798414D01*
X402567Y798419D01*
X402575Y798424D01*
X402722Y798547D01*
X402871Y798670D01*
X402876Y798677D01*
X402883Y798683D01*
X403004Y798834D01*
X403124Y798983D01*
X403128Y798990D01*
X403134Y798998D01*
X403223Y799171D01*
X403311Y799339D01*
X403314Y799348D01*
X403318Y799356D01*
X403371Y799542D01*
X403424Y799726D01*
X403425Y799735D01*
X403428Y799743D01*
X403442Y799934D01*
X403459Y800127D01*
X403458Y800136D01*
X403459Y800144D01*
X403435Y800336D01*
X403414Y800527D01*
X403411Y800535D01*
X403410Y800544D01*
X403350Y800727D01*
X403291Y800910D01*
X403286Y800918D01*
X403284Y800926D01*
X403188Y801093D01*
X403094Y801262D01*
X403089Y801268D01*
X403084Y801276D01*
X402959Y801420D01*
X402833Y801567D01*
X402825Y801573D01*
X402820Y801580D01*
X402667Y801697D01*
X402516Y801816D01*
X402508Y801820D01*
X402500Y801825D01*
X402205Y801977D01*
X399826Y802962D01*
X396562Y806226D01*
X394795Y810492D01*
X394795Y815108D01*
X396562Y819374D01*
X399826Y822638D01*
X402205Y823623D01*
X402213Y823628D01*
X402222Y823630D01*
X402391Y823723D01*
X402560Y823814D01*
X402567Y823819D01*
X402575Y823824D01*
X402722Y823947D01*
X402871Y824070D01*
X402876Y824077D01*
X402883Y824083D01*
X403004Y824234D01*
X403124Y824383D01*
X403128Y824390D01*
X403134Y824398D01*
X403223Y824571D01*
X403311Y824739D01*
X403314Y824748D01*
X403318Y824756D01*
X403371Y824942D01*
X403424Y825126D01*
X403425Y825135D01*
X403428Y825143D01*
X403442Y825334D01*
X403459Y825527D01*
X403458Y825536D01*
X403459Y825544D01*
X403435Y825736D01*
X403414Y825927D01*
X403411Y825935D01*
X403410Y825944D01*
X403350Y826127D01*
X403291Y826310D01*
X403286Y826318D01*
X403284Y826326D01*
X403188Y826493D01*
X403094Y826662D01*
X403089Y826668D01*
X403084Y826676D01*
X402959Y826820D01*
X402833Y826967D01*
X402825Y826973D01*
X402820Y826980D01*
X402667Y827097D01*
X402516Y827216D01*
X402508Y827220D01*
X402500Y827225D01*
X402205Y827377D01*
X399826Y828362D01*
X396562Y831626D01*
X394795Y835892D01*
X394795Y840508D01*
X396562Y844774D01*
X399826Y848038D01*
X404092Y849805D01*
X408708Y849805D01*
X412974Y848038D01*
X416238Y844774D01*
X418005Y840508D01*
X418005Y835892D01*
X416238Y831626D01*
X412974Y828362D01*
X410595Y827377D01*
X410587Y827372D01*
X410578Y827370D01*
X410411Y827278D01*
X410240Y827186D01*
X410233Y827181D01*
X410225Y827176D01*
X410078Y827053D01*
X409929Y826930D01*
X409924Y826923D01*
X409917Y826917D01*
X409797Y826767D01*
X409676Y826617D01*
X409672Y826609D01*
X409666Y826603D01*
X409578Y826432D01*
X409489Y826261D01*
X409486Y826252D01*
X409482Y826244D01*
X409430Y826061D01*
X409376Y825875D01*
X409375Y825865D01*
X409372Y825857D01*
X409357Y825664D01*
X409341Y825473D01*
X409342Y825464D01*
X409341Y825456D01*
X409364Y825266D01*
X409386Y825073D01*
X409389Y825065D01*
X409390Y825056D01*
X409450Y824876D01*
X409509Y824690D01*
X409514Y824682D01*
X409516Y824674D01*
X409611Y824508D01*
X409706Y824339D01*
X409711Y824332D01*
X409716Y824324D01*
X409842Y824179D01*
X409967Y824033D01*
X409974Y824027D01*
X409980Y824020D01*
X410133Y823903D01*
X410284Y823784D01*
X410292Y823780D01*
X410300Y823775D01*
X410595Y823623D01*
X412974Y822638D01*
X415612Y820000D01*
X415633Y819983D01*
X415650Y819962D01*
X415788Y819855D01*
X415923Y819745D01*
X415947Y819732D01*
X415968Y819716D01*
X416125Y819638D01*
X416279Y819556D01*
X416305Y819548D01*
X416329Y819536D01*
X416498Y819491D01*
X416665Y819441D01*
X416692Y819439D01*
X416718Y819432D01*
X417048Y819405D01*
X479023Y819405D01*
X479049Y819407D01*
X479076Y819405D01*
X479250Y819427D01*
X479423Y819445D01*
X479449Y819452D01*
X479476Y819456D01*
X479641Y819511D01*
X479808Y819563D01*
X479832Y819576D01*
X479857Y819584D01*
X480009Y819671D01*
X480162Y819755D01*
X480183Y819772D01*
X480206Y819785D01*
X480459Y820000D01*
X580459Y919999D01*
X582886Y921005D01*
X729395Y921005D01*
X729421Y921007D01*
X729448Y921005D01*
X729622Y921027D01*
X729795Y921045D01*
X729821Y921052D01*
X729847Y921056D01*
X730013Y921111D01*
X730180Y921163D01*
X730204Y921176D01*
X730229Y921184D01*
X730381Y921271D01*
X730534Y921355D01*
X730555Y921372D01*
X730578Y921385D01*
X730831Y921600D01*
X733537Y924306D01*
X737832Y926085D01*
X748505Y926085D01*
X748528Y926087D01*
X748552Y926085D01*
X748729Y926107D01*
X748906Y926125D01*
X748928Y926132D01*
X748951Y926134D01*
X749120Y926190D01*
X749290Y926243D01*
X749311Y926254D01*
X749333Y926261D01*
X749488Y926350D01*
X749644Y926435D01*
X749662Y926449D01*
X749683Y926461D01*
X749817Y926579D01*
X749954Y926692D01*
X749968Y926711D01*
X749986Y926726D01*
X750094Y926867D01*
X750206Y927006D01*
X750217Y927027D01*
X750231Y927046D01*
X750310Y927206D01*
X750392Y927363D01*
X750398Y927386D01*
X750408Y927407D01*
X750454Y927580D01*
X750503Y927750D01*
X750505Y927774D01*
X750511Y927796D01*
X750521Y927974D01*
X750536Y928152D01*
X750533Y928175D01*
X750534Y928198D01*
X750510Y928375D01*
X750489Y928551D01*
X750482Y928574D01*
X750478Y928597D01*
X750419Y928765D01*
X750364Y928934D01*
X750353Y928955D01*
X750345Y928977D01*
X750254Y929130D01*
X750166Y929285D01*
X750151Y929303D01*
X750139Y929323D01*
X750019Y929455D01*
X749903Y929589D01*
X749884Y929604D01*
X749869Y929621D01*
X749726Y929727D01*
X749585Y929836D01*
X749564Y929847D01*
X749545Y929861D01*
X749247Y930007D01*
X741437Y933072D01*
X731971Y940621D01*
X725151Y950625D01*
X721582Y962194D01*
X721582Y974302D01*
X725151Y985871D01*
X731971Y995875D01*
X733557Y997140D01*
X733645Y997226D01*
X733739Y997304D01*
X733789Y997366D01*
X733845Y997421D01*
X733915Y997522D01*
X733992Y997618D01*
X734028Y997688D01*
X734073Y997753D01*
X734121Y997866D01*
X734177Y997975D01*
X734199Y998051D01*
X734230Y998124D01*
X734255Y998244D01*
X734289Y998362D01*
X734295Y998441D01*
X734311Y998518D01*
X734312Y998641D01*
X734322Y998764D01*
X734312Y998842D01*
X734313Y998921D01*
X734289Y999041D01*
X734275Y999163D01*
X734250Y999239D01*
X734235Y999316D01*
X734188Y999429D01*
X734150Y999546D01*
X734111Y999615D01*
X734081Y999688D01*
X734012Y999790D01*
X733952Y999897D01*
X733900Y999957D01*
X733856Y1000022D01*
X733769Y1000109D01*
X733689Y1000202D01*
X733626Y1000250D01*
X733570Y1000305D01*
X733468Y1000373D01*
X733371Y1000448D01*
X733300Y1000483D01*
X733234Y1000527D01*
X733120Y1000573D01*
X733010Y1000628D01*
X732934Y1000648D01*
X732861Y1000678D01*
X732740Y1000700D01*
X732621Y1000732D01*
X732529Y1000740D01*
X732465Y1000752D01*
X732394Y1000751D01*
X732291Y1000759D01*
X432632Y1000759D01*
X432460Y1000742D01*
X432288Y1000730D01*
X432260Y1000722D01*
X432231Y1000719D01*
X432066Y1000669D01*
X431900Y1000623D01*
X431874Y1000610D01*
X431846Y1000601D01*
X431695Y1000519D01*
X431541Y1000441D01*
X431518Y1000423D01*
X431492Y1000409D01*
X431360Y1000299D01*
X431224Y1000193D01*
X431206Y1000170D01*
X431183Y1000152D01*
X431075Y1000017D01*
X430963Y999886D01*
X430949Y999861D01*
X430931Y999838D01*
X430851Y999685D01*
X430768Y999534D01*
X430759Y999506D01*
X430745Y999481D01*
X430698Y999315D01*
X430645Y999151D01*
X430642Y999122D01*
X430634Y999094D01*
X430620Y998922D01*
X430601Y998751D01*
X430603Y998722D01*
X430601Y998692D01*
X430621Y998521D01*
X430636Y998350D01*
X430644Y998322D01*
X430648Y998293D01*
X430701Y998128D01*
X430750Y997963D01*
X430764Y997938D01*
X430773Y997910D01*
X430858Y997759D01*
X430938Y997607D01*
X430958Y997582D01*
X430971Y997559D01*
X431026Y997495D01*
X431143Y997346D01*
X436912Y991129D01*
X442165Y980220D01*
X443970Y968248D01*
X442165Y956276D01*
X436912Y945367D01*
X428677Y936492D01*
X418191Y930438D01*
X406387Y927744D01*
X394314Y928649D01*
X383043Y933072D01*
X373577Y940621D01*
X366930Y950370D01*
X366799Y950527D01*
X366676Y950674D01*
X366674Y950676D01*
X366672Y950678D01*
X366515Y950804D01*
X366362Y950927D01*
X366359Y950928D01*
X366357Y950930D01*
X366179Y951022D01*
X366005Y951112D01*
X366002Y951113D01*
X365999Y951114D01*
X365809Y951169D01*
X365618Y951224D01*
X365615Y951224D01*
X365612Y951225D01*
X365414Y951240D01*
X365216Y951257D01*
X365214Y951256D01*
X365211Y951257D01*
X365011Y951233D01*
X364817Y951210D01*
X364814Y951209D01*
X364811Y951208D01*
X364620Y951146D01*
X364434Y951085D01*
X364431Y951083D01*
X364429Y951083D01*
X364253Y950983D01*
X364083Y950887D01*
X364081Y950885D01*
X364079Y950884D01*
X363927Y950752D01*
X363778Y950624D01*
X363777Y950622D01*
X363775Y950620D01*
X363651Y950460D01*
X363532Y950306D01*
X363530Y950303D01*
X363529Y950301D01*
X363439Y950119D01*
X363352Y949945D01*
X363352Y949942D01*
X363350Y949940D01*
X363300Y949749D01*
X363248Y949556D01*
X363248Y949553D01*
X363247Y949551D01*
X363246Y949529D01*
X363221Y949226D01*
X363221Y244574D01*
X363240Y244381D01*
X363260Y244179D01*
X363260Y244176D01*
X363261Y244174D01*
X363317Y243989D01*
X363377Y243794D01*
X363378Y243791D01*
X363379Y243789D01*
X363471Y243618D01*
X363567Y243439D01*
X363569Y243437D01*
X363571Y243435D01*
X363696Y243285D01*
X363824Y243129D01*
X363826Y243128D01*
X363828Y243126D01*
X363983Y243001D01*
X364137Y242876D01*
X364140Y242875D01*
X364142Y242873D01*
X364317Y242782D01*
X364494Y242690D01*
X364497Y242689D01*
X364499Y242688D01*
X364689Y242633D01*
X364881Y242577D01*
X364884Y242577D01*
X364886Y242576D01*
X365085Y242560D01*
X365282Y242543D01*
X365285Y242544D01*
X365288Y242543D01*
X365482Y242566D01*
X365682Y242589D01*
X365685Y242590D01*
X365687Y242590D01*
X365878Y242652D01*
X366065Y242713D01*
X366067Y242714D01*
X366070Y242715D01*
X366246Y242814D01*
X366416Y242910D01*
X366418Y242912D01*
X366421Y242913D01*
X366569Y243041D01*
X366722Y243172D01*
X366724Y243175D01*
X366725Y243176D01*
X366739Y243193D01*
X366930Y243430D01*
X373577Y253179D01*
X383043Y260728D01*
X394314Y265151D01*
X406387Y266056D01*
X418191Y263362D01*
X428677Y257308D01*
X436912Y248433D01*
X442165Y237524D01*
X443970Y225552D01*
X442165Y213580D01*
X436912Y202671D01*
X428677Y193796D01*
X418191Y187742D01*
X406387Y185048D01*
X394314Y185953D01*
X383043Y190376D01*
X373577Y197925D01*
X366930Y207674D01*
X366799Y207831D01*
X366676Y207978D01*
X366674Y207980D01*
X366672Y207982D01*
X366515Y208108D01*
X366362Y208231D01*
X366359Y208232D01*
X366357Y208234D01*
X366179Y208326D01*
X366005Y208416D01*
X366002Y208417D01*
X365999Y208418D01*
X365809Y208473D01*
X365618Y208528D01*
X365615Y208528D01*
X365612Y208529D01*
X365414Y208544D01*
X365216Y208561D01*
X365214Y208560D01*
X365211Y208561D01*
X365010Y208536D01*
X364817Y208514D01*
X364814Y208513D01*
X364811Y208512D01*
X364620Y208450D01*
X364434Y208389D01*
X364431Y208387D01*
X364429Y208387D01*
X364253Y208287D01*
X364083Y208191D01*
X364081Y208189D01*
X364079Y208188D01*
X363927Y208056D01*
X363778Y207928D01*
X363777Y207926D01*
X363775Y207924D01*
X363651Y207764D01*
X363532Y207610D01*
X363530Y207607D01*
X363529Y207605D01*
X363440Y207425D01*
X363352Y207249D01*
X363352Y207246D01*
X363350Y207244D01*
X363300Y207054D01*
X363248Y206860D01*
X363248Y206857D01*
X363247Y206855D01*
X363246Y206833D01*
X363221Y206530D01*
X363221Y-33528D01*
X363223Y-33546D01*
X363221Y-33564D01*
X363242Y-33746D01*
X363261Y-33929D01*
X363266Y-33946D01*
X363268Y-33963D01*
X363325Y-34138D01*
X363379Y-34314D01*
X363387Y-34329D01*
X363393Y-34346D01*
X363483Y-34506D01*
X363571Y-34668D01*
X363582Y-34681D01*
X363591Y-34697D01*
X363711Y-34836D01*
X363828Y-34977D01*
X363842Y-34988D01*
X363854Y-35002D01*
X363999Y-35114D01*
X364142Y-35229D01*
X364158Y-35237D01*
X364172Y-35248D01*
X364337Y-35330D01*
X364499Y-35415D01*
X364516Y-35420D01*
X364532Y-35428D01*
X364711Y-35475D01*
X364886Y-35526D01*
X364904Y-35528D01*
X364921Y-35532D01*
X365252Y-35559D01*
X805688Y-35559D01*
X805706Y-35557D01*
G37*
%LPC*%
G36*
X543776Y-20829D02*
X543776Y-20829D01*
X539481Y-19050D01*
X536194Y-15763D01*
X534415Y-11468D01*
X534415Y11468D01*
X536194Y15763D01*
X536614Y16183D01*
X536631Y16204D01*
X536652Y16221D01*
X536759Y16359D01*
X536869Y16495D01*
X536882Y16518D01*
X536898Y16539D01*
X536976Y16696D01*
X537058Y16850D01*
X537066Y16876D01*
X537078Y16900D01*
X537123Y17069D01*
X537173Y17236D01*
X537175Y17263D01*
X537182Y17289D01*
X537209Y17619D01*
X537209Y20481D01*
X537207Y20507D01*
X537209Y20534D01*
X537187Y20708D01*
X537169Y20881D01*
X537162Y20907D01*
X537158Y20933D01*
X537103Y21099D01*
X537051Y21266D01*
X537038Y21290D01*
X537030Y21315D01*
X536943Y21467D01*
X536859Y21620D01*
X536842Y21641D01*
X536829Y21664D01*
X536614Y21917D01*
X536194Y22337D01*
X534415Y26632D01*
X534415Y49568D01*
X536194Y53863D01*
X539481Y57150D01*
X541621Y58036D01*
X543776Y58929D01*
X548424Y58929D01*
X552719Y57150D01*
X556006Y53863D01*
X556923Y51648D01*
X556928Y51640D01*
X556930Y51631D01*
X557022Y51463D01*
X557114Y51293D01*
X557119Y51286D01*
X557124Y51278D01*
X557247Y51132D01*
X557370Y50983D01*
X557377Y50977D01*
X557383Y50970D01*
X557533Y50850D01*
X557683Y50729D01*
X557691Y50725D01*
X557697Y50719D01*
X557868Y50631D01*
X558039Y50542D01*
X558048Y50539D01*
X558056Y50535D01*
X558240Y50483D01*
X558426Y50429D01*
X558434Y50428D01*
X558443Y50425D01*
X558634Y50411D01*
X558827Y50394D01*
X558836Y50395D01*
X558844Y50394D01*
X559034Y50417D01*
X559227Y50439D01*
X559235Y50442D01*
X559244Y50443D01*
X559426Y50503D01*
X559610Y50562D01*
X559618Y50567D01*
X559626Y50569D01*
X559794Y50665D01*
X559962Y50759D01*
X559968Y50764D01*
X559976Y50769D01*
X560121Y50895D01*
X560267Y51021D01*
X560273Y51028D01*
X560280Y51033D01*
X560397Y51187D01*
X560516Y51338D01*
X560520Y51345D01*
X560525Y51353D01*
X560677Y51648D01*
X561594Y53863D01*
X564881Y57150D01*
X567021Y58036D01*
X569176Y58929D01*
X573824Y58929D01*
X578119Y57150D01*
X581406Y53863D01*
X582323Y51648D01*
X582328Y51640D01*
X582330Y51631D01*
X582422Y51463D01*
X582514Y51293D01*
X582519Y51286D01*
X582524Y51278D01*
X582647Y51132D01*
X582770Y50983D01*
X582777Y50977D01*
X582783Y50970D01*
X582933Y50850D01*
X583083Y50729D01*
X583091Y50725D01*
X583097Y50719D01*
X583268Y50631D01*
X583439Y50542D01*
X583448Y50539D01*
X583456Y50535D01*
X583640Y50483D01*
X583826Y50429D01*
X583834Y50428D01*
X583843Y50425D01*
X584034Y50411D01*
X584227Y50394D01*
X584236Y50395D01*
X584244Y50394D01*
X584434Y50417D01*
X584627Y50439D01*
X584635Y50442D01*
X584644Y50443D01*
X584826Y50503D01*
X585010Y50562D01*
X585018Y50567D01*
X585026Y50569D01*
X585194Y50665D01*
X585362Y50759D01*
X585368Y50764D01*
X585376Y50769D01*
X585521Y50895D01*
X585667Y51021D01*
X585673Y51028D01*
X585680Y51033D01*
X585797Y51187D01*
X585916Y51338D01*
X585920Y51345D01*
X585925Y51353D01*
X586077Y51648D01*
X586994Y53863D01*
X590281Y57150D01*
X592421Y58036D01*
X594576Y58929D01*
X599224Y58929D01*
X603519Y57150D01*
X606806Y53863D01*
X607723Y51648D01*
X607728Y51640D01*
X607730Y51631D01*
X607822Y51463D01*
X607914Y51293D01*
X607919Y51286D01*
X607924Y51278D01*
X608047Y51132D01*
X608170Y50983D01*
X608177Y50977D01*
X608183Y50970D01*
X608333Y50850D01*
X608483Y50729D01*
X608491Y50725D01*
X608497Y50719D01*
X608668Y50631D01*
X608839Y50542D01*
X608848Y50539D01*
X608856Y50535D01*
X609040Y50483D01*
X609226Y50429D01*
X609234Y50428D01*
X609243Y50425D01*
X609434Y50411D01*
X609627Y50394D01*
X609636Y50395D01*
X609644Y50394D01*
X609834Y50417D01*
X610027Y50439D01*
X610035Y50442D01*
X610044Y50443D01*
X610226Y50503D01*
X610410Y50562D01*
X610418Y50567D01*
X610426Y50569D01*
X610594Y50665D01*
X610762Y50759D01*
X610768Y50764D01*
X610776Y50769D01*
X610921Y50895D01*
X611067Y51021D01*
X611073Y51028D01*
X611080Y51033D01*
X611197Y51187D01*
X611316Y51338D01*
X611320Y51345D01*
X611325Y51353D01*
X611477Y51648D01*
X612394Y53863D01*
X615681Y57150D01*
X617821Y58036D01*
X619976Y58929D01*
X624624Y58929D01*
X628919Y57150D01*
X632206Y53863D01*
X633985Y49568D01*
X633985Y26632D01*
X632206Y22337D01*
X630355Y20486D01*
X630344Y20472D01*
X630330Y20461D01*
X630216Y20317D01*
X630100Y20175D01*
X630092Y20159D01*
X630081Y20145D01*
X629997Y19981D01*
X629911Y19819D01*
X629906Y19802D01*
X629898Y19786D01*
X629849Y19609D01*
X629797Y19433D01*
X629795Y19415D01*
X629790Y19398D01*
X629777Y19215D01*
X629760Y19032D01*
X629762Y19014D01*
X629761Y18997D01*
X629784Y18815D01*
X629804Y18632D01*
X629809Y18615D01*
X629811Y18597D01*
X629870Y18423D01*
X629925Y18248D01*
X629934Y18232D01*
X629939Y18216D01*
X630031Y18057D01*
X630120Y17896D01*
X630131Y17882D01*
X630140Y17867D01*
X630355Y17614D01*
X632206Y15763D01*
X633985Y11468D01*
X633985Y-11468D01*
X632206Y-15763D01*
X628919Y-19050D01*
X624624Y-20829D01*
X619976Y-20829D01*
X615681Y-19050D01*
X612394Y-15763D01*
X611477Y-13548D01*
X611472Y-13540D01*
X611470Y-13531D01*
X611378Y-13363D01*
X611286Y-13193D01*
X611281Y-13186D01*
X611276Y-13178D01*
X611153Y-13032D01*
X611030Y-12883D01*
X611023Y-12877D01*
X611017Y-12870D01*
X610867Y-12750D01*
X610717Y-12629D01*
X610709Y-12625D01*
X610703Y-12619D01*
X610532Y-12531D01*
X610361Y-12442D01*
X610352Y-12439D01*
X610344Y-12435D01*
X610160Y-12383D01*
X609974Y-12329D01*
X609966Y-12328D01*
X609957Y-12325D01*
X609766Y-12311D01*
X609573Y-12294D01*
X609564Y-12295D01*
X609556Y-12294D01*
X609366Y-12317D01*
X609173Y-12339D01*
X609165Y-12342D01*
X609156Y-12343D01*
X608974Y-12403D01*
X608790Y-12462D01*
X608782Y-12467D01*
X608774Y-12469D01*
X608606Y-12565D01*
X608438Y-12659D01*
X608432Y-12664D01*
X608424Y-12669D01*
X608279Y-12795D01*
X608133Y-12921D01*
X608127Y-12928D01*
X608120Y-12933D01*
X608003Y-13087D01*
X607884Y-13238D01*
X607880Y-13245D01*
X607875Y-13253D01*
X607723Y-13548D01*
X606806Y-15763D01*
X603519Y-19050D01*
X599224Y-20829D01*
X594576Y-20829D01*
X590281Y-19050D01*
X586994Y-15763D01*
X586077Y-13548D01*
X586072Y-13540D01*
X586070Y-13531D01*
X585978Y-13363D01*
X585886Y-13193D01*
X585881Y-13186D01*
X585876Y-13178D01*
X585753Y-13032D01*
X585630Y-12883D01*
X585623Y-12877D01*
X585617Y-12870D01*
X585467Y-12750D01*
X585317Y-12629D01*
X585309Y-12625D01*
X585303Y-12619D01*
X585132Y-12531D01*
X584961Y-12442D01*
X584952Y-12439D01*
X584944Y-12435D01*
X584760Y-12383D01*
X584574Y-12329D01*
X584566Y-12328D01*
X584557Y-12325D01*
X584366Y-12311D01*
X584173Y-12294D01*
X584164Y-12295D01*
X584156Y-12294D01*
X583966Y-12317D01*
X583773Y-12339D01*
X583765Y-12342D01*
X583756Y-12343D01*
X583574Y-12403D01*
X583390Y-12462D01*
X583382Y-12467D01*
X583374Y-12469D01*
X583206Y-12565D01*
X583038Y-12659D01*
X583032Y-12664D01*
X583024Y-12669D01*
X582879Y-12795D01*
X582733Y-12921D01*
X582727Y-12928D01*
X582720Y-12933D01*
X582603Y-13087D01*
X582484Y-13238D01*
X582480Y-13245D01*
X582475Y-13253D01*
X582323Y-13548D01*
X581406Y-15763D01*
X578119Y-19050D01*
X573824Y-20829D01*
X569176Y-20829D01*
X564881Y-19050D01*
X561594Y-15763D01*
X560677Y-13548D01*
X560672Y-13540D01*
X560670Y-13531D01*
X560578Y-13363D01*
X560486Y-13193D01*
X560481Y-13186D01*
X560476Y-13178D01*
X560353Y-13032D01*
X560230Y-12883D01*
X560223Y-12877D01*
X560217Y-12870D01*
X560067Y-12750D01*
X559917Y-12629D01*
X559909Y-12625D01*
X559903Y-12619D01*
X559732Y-12531D01*
X559561Y-12442D01*
X559552Y-12439D01*
X559544Y-12435D01*
X559360Y-12383D01*
X559174Y-12329D01*
X559166Y-12328D01*
X559157Y-12325D01*
X558966Y-12311D01*
X558773Y-12294D01*
X558764Y-12295D01*
X558756Y-12294D01*
X558566Y-12317D01*
X558373Y-12339D01*
X558365Y-12342D01*
X558356Y-12343D01*
X558174Y-12403D01*
X557990Y-12462D01*
X557982Y-12467D01*
X557974Y-12469D01*
X557806Y-12565D01*
X557638Y-12659D01*
X557632Y-12664D01*
X557624Y-12669D01*
X557479Y-12795D01*
X557333Y-12921D01*
X557327Y-12928D01*
X557320Y-12933D01*
X557203Y-13087D01*
X557084Y-13238D01*
X557080Y-13245D01*
X557075Y-13253D01*
X556923Y-13548D01*
X556006Y-15763D01*
X552719Y-19050D01*
X548424Y-20829D01*
X543776Y-20829D01*
G37*
%LPD*%
%LPC*%
G36*
X543776Y195071D02*
X543776Y195071D01*
X539481Y196850D01*
X536194Y200137D01*
X534415Y204432D01*
X534415Y227368D01*
X536194Y231663D01*
X538045Y233514D01*
X538056Y233528D01*
X538070Y233539D01*
X538184Y233683D01*
X538300Y233825D01*
X538308Y233841D01*
X538319Y233855D01*
X538403Y234019D01*
X538489Y234181D01*
X538494Y234198D01*
X538502Y234214D01*
X538551Y234391D01*
X538603Y234567D01*
X538605Y234585D01*
X538610Y234602D01*
X538623Y234785D01*
X538640Y234968D01*
X538638Y234986D01*
X538639Y235003D01*
X538616Y235185D01*
X538596Y235368D01*
X538591Y235385D01*
X538589Y235403D01*
X538530Y235577D01*
X538475Y235752D01*
X538466Y235768D01*
X538461Y235784D01*
X538369Y235943D01*
X538280Y236104D01*
X538269Y236118D01*
X538260Y236133D01*
X538045Y236386D01*
X536194Y238237D01*
X534415Y242532D01*
X534415Y265468D01*
X536194Y269763D01*
X539481Y273050D01*
X543776Y274829D01*
X548424Y274829D01*
X552719Y273050D01*
X556006Y269763D01*
X556923Y267548D01*
X556928Y267540D01*
X556930Y267531D01*
X557023Y267361D01*
X557114Y267193D01*
X557119Y267186D01*
X557124Y267178D01*
X557248Y267030D01*
X557370Y266882D01*
X557377Y266877D01*
X557383Y266870D01*
X557533Y266750D01*
X557683Y266629D01*
X557691Y266625D01*
X557698Y266619D01*
X557867Y266532D01*
X558039Y266442D01*
X558048Y266439D01*
X558056Y266435D01*
X558238Y266383D01*
X558426Y266329D01*
X558435Y266328D01*
X558443Y266325D01*
X558634Y266311D01*
X558827Y266294D01*
X558836Y266295D01*
X558844Y266294D01*
X559035Y266318D01*
X559227Y266339D01*
X559235Y266342D01*
X559244Y266343D01*
X559426Y266403D01*
X559610Y266462D01*
X559618Y266467D01*
X559626Y266470D01*
X559794Y266565D01*
X559962Y266659D01*
X559968Y266664D01*
X559976Y266669D01*
X560122Y266796D01*
X560267Y266921D01*
X560273Y266928D01*
X560280Y266933D01*
X560397Y267086D01*
X560516Y267238D01*
X560520Y267246D01*
X560525Y267253D01*
X560677Y267548D01*
X561594Y269763D01*
X564881Y273050D01*
X569176Y274829D01*
X573824Y274829D01*
X578119Y273050D01*
X581406Y269763D01*
X582323Y267548D01*
X582328Y267540D01*
X582330Y267531D01*
X582423Y267361D01*
X582514Y267193D01*
X582519Y267186D01*
X582524Y267178D01*
X582648Y267030D01*
X582770Y266882D01*
X582777Y266877D01*
X582783Y266870D01*
X582933Y266750D01*
X583083Y266629D01*
X583091Y266625D01*
X583098Y266619D01*
X583267Y266532D01*
X583439Y266442D01*
X583448Y266439D01*
X583456Y266435D01*
X583638Y266383D01*
X583826Y266329D01*
X583835Y266328D01*
X583843Y266325D01*
X584034Y266311D01*
X584227Y266294D01*
X584236Y266295D01*
X584244Y266294D01*
X584435Y266318D01*
X584627Y266339D01*
X584635Y266342D01*
X584644Y266343D01*
X584826Y266403D01*
X585010Y266462D01*
X585018Y266467D01*
X585026Y266470D01*
X585194Y266565D01*
X585362Y266659D01*
X585368Y266664D01*
X585376Y266669D01*
X585522Y266796D01*
X585667Y266921D01*
X585673Y266928D01*
X585680Y266933D01*
X585797Y267086D01*
X585916Y267238D01*
X585920Y267246D01*
X585925Y267253D01*
X586077Y267548D01*
X586994Y269763D01*
X590281Y273050D01*
X594576Y274829D01*
X599224Y274829D01*
X603519Y273050D01*
X606806Y269763D01*
X607723Y267548D01*
X607728Y267540D01*
X607730Y267531D01*
X607823Y267361D01*
X607914Y267193D01*
X607919Y267186D01*
X607924Y267178D01*
X608048Y267030D01*
X608170Y266882D01*
X608177Y266877D01*
X608183Y266870D01*
X608333Y266750D01*
X608483Y266629D01*
X608491Y266625D01*
X608498Y266619D01*
X608667Y266532D01*
X608839Y266442D01*
X608848Y266439D01*
X608856Y266435D01*
X609038Y266383D01*
X609226Y266329D01*
X609235Y266328D01*
X609243Y266325D01*
X609434Y266311D01*
X609627Y266294D01*
X609636Y266295D01*
X609644Y266294D01*
X609835Y266318D01*
X610027Y266339D01*
X610035Y266342D01*
X610044Y266343D01*
X610226Y266403D01*
X610410Y266462D01*
X610418Y266467D01*
X610426Y266470D01*
X610594Y266565D01*
X610762Y266659D01*
X610768Y266664D01*
X610776Y266669D01*
X610922Y266796D01*
X611067Y266921D01*
X611073Y266928D01*
X611080Y266933D01*
X611197Y267086D01*
X611316Y267238D01*
X611320Y267246D01*
X611325Y267253D01*
X611477Y267548D01*
X612394Y269763D01*
X615681Y273050D01*
X619976Y274829D01*
X624624Y274829D01*
X628919Y273050D01*
X632206Y269763D01*
X633985Y265468D01*
X633985Y242532D01*
X632206Y238237D01*
X630355Y236386D01*
X630344Y236372D01*
X630330Y236361D01*
X630216Y236217D01*
X630100Y236075D01*
X630092Y236059D01*
X630081Y236045D01*
X629997Y235881D01*
X629911Y235719D01*
X629906Y235702D01*
X629898Y235686D01*
X629849Y235509D01*
X629797Y235333D01*
X629795Y235315D01*
X629790Y235298D01*
X629777Y235115D01*
X629760Y234932D01*
X629762Y234914D01*
X629761Y234897D01*
X629784Y234715D01*
X629804Y234532D01*
X629809Y234515D01*
X629811Y234497D01*
X629870Y234323D01*
X629925Y234148D01*
X629934Y234132D01*
X629939Y234116D01*
X630031Y233957D01*
X630120Y233796D01*
X630131Y233782D01*
X630140Y233767D01*
X630355Y233514D01*
X632206Y231663D01*
X633985Y227368D01*
X633985Y204432D01*
X632206Y200137D01*
X628919Y196850D01*
X624624Y195071D01*
X619976Y195071D01*
X615681Y196850D01*
X612394Y200137D01*
X611477Y202352D01*
X611472Y202360D01*
X611470Y202369D01*
X611377Y202538D01*
X611286Y202707D01*
X611281Y202714D01*
X611276Y202722D01*
X611153Y202869D01*
X611030Y203018D01*
X611023Y203023D01*
X611017Y203030D01*
X610866Y203151D01*
X610717Y203271D01*
X610710Y203275D01*
X610702Y203281D01*
X610529Y203370D01*
X610361Y203458D01*
X610352Y203461D01*
X610344Y203465D01*
X610158Y203518D01*
X609974Y203571D01*
X609965Y203572D01*
X609957Y203575D01*
X609766Y203589D01*
X609573Y203606D01*
X609564Y203605D01*
X609556Y203606D01*
X609364Y203582D01*
X609173Y203561D01*
X609165Y203558D01*
X609156Y203557D01*
X608973Y203497D01*
X608790Y203438D01*
X608782Y203433D01*
X608774Y203431D01*
X608607Y203335D01*
X608438Y203241D01*
X608432Y203235D01*
X608424Y203231D01*
X608280Y203105D01*
X608133Y202980D01*
X608127Y202972D01*
X608120Y202967D01*
X608003Y202814D01*
X607884Y202662D01*
X607880Y202655D01*
X607875Y202647D01*
X607723Y202352D01*
X606806Y200137D01*
X603519Y196850D01*
X599224Y195071D01*
X594576Y195071D01*
X590281Y196850D01*
X586994Y200137D01*
X586077Y202352D01*
X586072Y202360D01*
X586070Y202369D01*
X585977Y202538D01*
X585886Y202707D01*
X585881Y202714D01*
X585876Y202722D01*
X585753Y202869D01*
X585630Y203018D01*
X585623Y203023D01*
X585617Y203030D01*
X585466Y203151D01*
X585317Y203271D01*
X585310Y203275D01*
X585302Y203281D01*
X585129Y203370D01*
X584961Y203458D01*
X584952Y203461D01*
X584944Y203465D01*
X584758Y203518D01*
X584574Y203571D01*
X584565Y203572D01*
X584557Y203575D01*
X584366Y203589D01*
X584173Y203606D01*
X584164Y203605D01*
X584156Y203606D01*
X583964Y203582D01*
X583773Y203561D01*
X583765Y203558D01*
X583756Y203557D01*
X583573Y203497D01*
X583390Y203438D01*
X583382Y203433D01*
X583374Y203431D01*
X583207Y203335D01*
X583038Y203241D01*
X583032Y203235D01*
X583024Y203231D01*
X582880Y203105D01*
X582733Y202980D01*
X582727Y202972D01*
X582720Y202967D01*
X582603Y202814D01*
X582484Y202662D01*
X582480Y202655D01*
X582475Y202647D01*
X582323Y202352D01*
X581406Y200137D01*
X578119Y196850D01*
X573824Y195071D01*
X569176Y195071D01*
X564881Y196850D01*
X561594Y200137D01*
X560677Y202352D01*
X560672Y202360D01*
X560670Y202369D01*
X560578Y202537D01*
X560486Y202707D01*
X560481Y202714D01*
X560476Y202722D01*
X560353Y202868D01*
X560230Y203017D01*
X560223Y203023D01*
X560217Y203030D01*
X560067Y203150D01*
X559917Y203271D01*
X559909Y203275D01*
X559903Y203281D01*
X559732Y203369D01*
X559561Y203458D01*
X559552Y203461D01*
X559544Y203465D01*
X559360Y203517D01*
X559174Y203571D01*
X559166Y203572D01*
X559157Y203575D01*
X558966Y203589D01*
X558773Y203606D01*
X558764Y203605D01*
X558756Y203606D01*
X558566Y203583D01*
X558373Y203561D01*
X558365Y203558D01*
X558356Y203557D01*
X558174Y203497D01*
X557990Y203438D01*
X557982Y203433D01*
X557974Y203431D01*
X557806Y203335D01*
X557638Y203241D01*
X557632Y203236D01*
X557624Y203231D01*
X557479Y203105D01*
X557333Y202979D01*
X557327Y202972D01*
X557320Y202967D01*
X557203Y202813D01*
X557084Y202662D01*
X557080Y202655D01*
X557075Y202647D01*
X556923Y202352D01*
X556006Y200137D01*
X552719Y196850D01*
X548424Y195071D01*
X543776Y195071D01*
G37*
%LPD*%
%LPC*%
G36*
X752708Y185953D02*
X752708Y185953D01*
X741437Y190376D01*
X731971Y197925D01*
X725151Y207929D01*
X721582Y219498D01*
X721582Y231606D01*
X725151Y243175D01*
X731971Y253179D01*
X741437Y260728D01*
X749247Y263793D01*
X749268Y263804D01*
X749290Y263811D01*
X749447Y263896D01*
X749605Y263977D01*
X749624Y263991D01*
X749644Y264003D01*
X749781Y264116D01*
X749920Y264227D01*
X749936Y264245D01*
X749954Y264260D01*
X750065Y264399D01*
X750180Y264535D01*
X750191Y264556D01*
X750206Y264574D01*
X750288Y264732D01*
X750374Y264888D01*
X750381Y264911D01*
X750391Y264931D01*
X750441Y265102D01*
X750494Y265272D01*
X750496Y265296D01*
X750503Y265318D01*
X750517Y265495D01*
X750536Y265673D01*
X750534Y265696D01*
X750536Y265720D01*
X750515Y265896D01*
X750498Y266074D01*
X750492Y266096D01*
X750489Y266119D01*
X750434Y266288D01*
X750382Y266459D01*
X750371Y266480D01*
X750364Y266502D01*
X750276Y266657D01*
X750193Y266814D01*
X750178Y266832D01*
X750166Y266853D01*
X750050Y266987D01*
X749937Y267125D01*
X749918Y267140D01*
X749903Y267157D01*
X749763Y267266D01*
X749624Y267379D01*
X749603Y267390D01*
X749585Y267404D01*
X749425Y267484D01*
X749268Y267566D01*
X749245Y267573D01*
X749224Y267584D01*
X749052Y267630D01*
X748882Y267680D01*
X748858Y267682D01*
X748836Y267688D01*
X748505Y267715D01*
X739236Y267715D01*
X737420Y268003D01*
X735670Y268571D01*
X734032Y269406D01*
X732544Y270487D01*
X731243Y271788D01*
X730162Y273276D01*
X729327Y274914D01*
X728759Y276664D01*
X728728Y276861D01*
X748792Y276861D01*
X748810Y276862D01*
X748827Y276861D01*
X749010Y276882D01*
X749192Y276901D01*
X749209Y276906D01*
X749227Y276908D01*
X749305Y276933D01*
X749442Y276894D01*
X749460Y276892D01*
X749477Y276888D01*
X749808Y276861D01*
X769872Y276861D01*
X769841Y276664D01*
X769273Y274914D01*
X768438Y273276D01*
X767357Y271788D01*
X766056Y270487D01*
X764728Y269523D01*
X764622Y269428D01*
X764511Y269340D01*
X764472Y269294D01*
X764428Y269255D01*
X764342Y269142D01*
X764250Y269033D01*
X764221Y268981D01*
X764186Y268933D01*
X764124Y268805D01*
X764056Y268680D01*
X764038Y268624D01*
X764012Y268570D01*
X763977Y268432D01*
X763934Y268297D01*
X763928Y268237D01*
X763913Y268180D01*
X763906Y268038D01*
X763891Y267896D01*
X763896Y267837D01*
X763893Y267777D01*
X763915Y267637D01*
X763928Y267495D01*
X763945Y267438D01*
X763953Y267379D01*
X764002Y267246D01*
X764042Y267109D01*
X764070Y267057D01*
X764091Y267001D01*
X764165Y266879D01*
X764231Y266754D01*
X764269Y266708D01*
X764300Y266657D01*
X764396Y266552D01*
X764486Y266442D01*
X764533Y266405D01*
X764573Y266361D01*
X764688Y266277D01*
X764798Y266188D01*
X764851Y266160D01*
X764899Y266125D01*
X765028Y266065D01*
X765154Y265999D01*
X765219Y265979D01*
X765265Y265957D01*
X765345Y265939D01*
X765470Y265899D01*
X776585Y263362D01*
X787071Y257308D01*
X795306Y248433D01*
X800559Y237524D01*
X802364Y225552D01*
X800559Y213580D01*
X795306Y202671D01*
X787071Y193796D01*
X776585Y187742D01*
X764781Y185048D01*
X752708Y185953D01*
G37*
%LPD*%
%LPC*%
G36*
X751839Y510539D02*
X751839Y510539D01*
X751839Y530861D01*
X769872Y530861D01*
X769841Y530664D01*
X769273Y528914D01*
X768438Y527276D01*
X767357Y525788D01*
X766056Y524487D01*
X764568Y523406D01*
X762809Y522510D01*
X762766Y522482D01*
X762719Y522461D01*
X762597Y522374D01*
X762470Y522292D01*
X762433Y522257D01*
X762392Y522227D01*
X762289Y522117D01*
X762181Y522012D01*
X762152Y521970D01*
X762117Y521933D01*
X762038Y521805D01*
X761952Y521681D01*
X761932Y521634D01*
X761905Y521590D01*
X761853Y521449D01*
X761794Y521311D01*
X761783Y521261D01*
X761765Y521213D01*
X761742Y521064D01*
X761711Y520917D01*
X761711Y520866D01*
X761703Y520815D01*
X761709Y520664D01*
X761708Y520514D01*
X761718Y520464D01*
X761720Y520413D01*
X761756Y520267D01*
X761785Y520119D01*
X761804Y520071D01*
X761816Y520022D01*
X761880Y519886D01*
X761937Y519746D01*
X761966Y519704D01*
X761988Y519657D01*
X762077Y519536D01*
X762161Y519411D01*
X762197Y519375D01*
X762227Y519334D01*
X762339Y519233D01*
X762446Y519127D01*
X762488Y519099D01*
X762526Y519064D01*
X762723Y518943D01*
X762781Y518904D01*
X762794Y518899D01*
X762809Y518890D01*
X764568Y517994D01*
X766056Y516913D01*
X767357Y515612D01*
X768438Y514124D01*
X769273Y512486D01*
X769841Y510736D01*
X769872Y510539D01*
X751839Y510539D01*
G37*
%LPD*%
%LPC*%
G36*
X751839Y739139D02*
X751839Y739139D01*
X751839Y759461D01*
X769872Y759461D01*
X769841Y759264D01*
X769273Y757514D01*
X768438Y755876D01*
X767357Y754388D01*
X766056Y753087D01*
X764568Y752006D01*
X762809Y751110D01*
X762766Y751082D01*
X762719Y751061D01*
X762597Y750974D01*
X762470Y750892D01*
X762433Y750857D01*
X762392Y750827D01*
X762289Y750717D01*
X762181Y750612D01*
X762152Y750570D01*
X762117Y750533D01*
X762037Y750405D01*
X761952Y750281D01*
X761932Y750234D01*
X761905Y750190D01*
X761853Y750049D01*
X761794Y749911D01*
X761783Y749861D01*
X761765Y749813D01*
X761742Y749664D01*
X761711Y749517D01*
X761711Y749466D01*
X761703Y749415D01*
X761709Y749264D01*
X761708Y749114D01*
X761718Y749064D01*
X761720Y749013D01*
X761756Y748866D01*
X761785Y748719D01*
X761804Y748672D01*
X761816Y748622D01*
X761880Y748486D01*
X761937Y748346D01*
X761966Y748304D01*
X761988Y748258D01*
X762077Y748137D01*
X762161Y748011D01*
X762197Y747975D01*
X762227Y747934D01*
X762339Y747833D01*
X762446Y747727D01*
X762488Y747699D01*
X762526Y747664D01*
X762723Y747543D01*
X762781Y747504D01*
X762794Y747499D01*
X762809Y747490D01*
X764568Y746594D01*
X766056Y745513D01*
X767357Y744212D01*
X768438Y742724D01*
X769273Y741086D01*
X769841Y739336D01*
X769872Y739139D01*
X751839Y739139D01*
G37*
%LPD*%
%LPC*%
G36*
X728728Y510539D02*
X728728Y510539D01*
X728759Y510736D01*
X729327Y512486D01*
X730162Y514124D01*
X731243Y515612D01*
X732544Y516913D01*
X734032Y517994D01*
X735791Y518890D01*
X735834Y518918D01*
X735881Y518939D01*
X736003Y519026D01*
X736130Y519108D01*
X736167Y519143D01*
X736208Y519173D01*
X736311Y519283D01*
X736419Y519388D01*
X736448Y519430D01*
X736483Y519467D01*
X736563Y519595D01*
X736648Y519719D01*
X736668Y519766D01*
X736695Y519810D01*
X736747Y519951D01*
X736806Y520089D01*
X736817Y520139D01*
X736835Y520187D01*
X736858Y520336D01*
X736889Y520483D01*
X736889Y520534D01*
X736897Y520585D01*
X736891Y520736D01*
X736892Y520886D01*
X736882Y520936D01*
X736880Y520987D01*
X736844Y521134D01*
X736815Y521281D01*
X736796Y521328D01*
X736784Y521378D01*
X736720Y521514D01*
X736663Y521654D01*
X736634Y521696D01*
X736612Y521742D01*
X736523Y521863D01*
X736439Y521989D01*
X736403Y522025D01*
X736373Y522066D01*
X736261Y522167D01*
X736154Y522273D01*
X736112Y522301D01*
X736074Y522336D01*
X735877Y522457D01*
X735819Y522496D01*
X735806Y522501D01*
X735791Y522510D01*
X734032Y523406D01*
X732544Y524487D01*
X731243Y525788D01*
X730162Y527276D01*
X729327Y528914D01*
X728759Y530664D01*
X728728Y530861D01*
X746761Y530861D01*
X746761Y510539D01*
X728728Y510539D01*
G37*
%LPD*%
%LPC*%
G36*
X728728Y739139D02*
X728728Y739139D01*
X728759Y739336D01*
X729327Y741086D01*
X730162Y742724D01*
X731243Y744212D01*
X732544Y745513D01*
X734032Y746594D01*
X735791Y747490D01*
X735834Y747518D01*
X735881Y747539D01*
X736003Y747626D01*
X736130Y747708D01*
X736167Y747743D01*
X736208Y747773D01*
X736311Y747883D01*
X736419Y747988D01*
X736448Y748030D01*
X736483Y748067D01*
X736563Y748195D01*
X736648Y748319D01*
X736668Y748366D01*
X736695Y748410D01*
X736747Y748551D01*
X736806Y748689D01*
X736817Y748739D01*
X736835Y748787D01*
X736858Y748936D01*
X736889Y749083D01*
X736889Y749134D01*
X736897Y749185D01*
X736891Y749336D01*
X736892Y749486D01*
X736882Y749536D01*
X736880Y749587D01*
X736844Y749734D01*
X736815Y749881D01*
X736796Y749928D01*
X736784Y749978D01*
X736720Y750114D01*
X736663Y750254D01*
X736634Y750296D01*
X736612Y750342D01*
X736523Y750463D01*
X736439Y750589D01*
X736403Y750625D01*
X736373Y750666D01*
X736261Y750767D01*
X736154Y750873D01*
X736112Y750901D01*
X736074Y750936D01*
X735877Y751057D01*
X735819Y751096D01*
X735806Y751101D01*
X735791Y751110D01*
X734032Y752006D01*
X732544Y753087D01*
X731243Y754388D01*
X730162Y755876D01*
X729327Y757514D01*
X728759Y759264D01*
X728728Y759461D01*
X746761Y759461D01*
X746761Y739139D01*
X728728Y739139D01*
G37*
%LPD*%
%LPC*%
G36*
X751839Y724915D02*
X751839Y724915D01*
X751839Y734061D01*
X769872Y734061D01*
X769841Y733864D01*
X769273Y732114D01*
X768438Y730476D01*
X767357Y728988D01*
X766056Y727687D01*
X764568Y726606D01*
X762930Y725771D01*
X761180Y725203D01*
X759364Y724915D01*
X751839Y724915D01*
G37*
%LPD*%
%LPC*%
G36*
X751839Y496315D02*
X751839Y496315D01*
X751839Y505461D01*
X769872Y505461D01*
X769841Y505264D01*
X769273Y503514D01*
X768438Y501876D01*
X767357Y500388D01*
X766056Y499087D01*
X764568Y498006D01*
X762930Y497171D01*
X761180Y496603D01*
X759364Y496315D01*
X751839Y496315D01*
G37*
%LPD*%
%LPC*%
G36*
X739236Y724915D02*
X739236Y724915D01*
X737420Y725203D01*
X735670Y725771D01*
X734032Y726606D01*
X732544Y727687D01*
X731243Y728988D01*
X730162Y730476D01*
X729327Y732114D01*
X728759Y733864D01*
X728728Y734061D01*
X746761Y734061D01*
X746761Y724915D01*
X739236Y724915D01*
G37*
%LPD*%
%LPC*%
G36*
X739236Y496315D02*
X739236Y496315D01*
X737420Y496603D01*
X735670Y497171D01*
X734032Y498006D01*
X732544Y499087D01*
X731243Y500388D01*
X730162Y501876D01*
X729327Y503514D01*
X728759Y505264D01*
X728728Y505461D01*
X746761Y505461D01*
X746761Y496315D01*
X739236Y496315D01*
G37*
%LPD*%
D10*
X406400Y838200D03*
X406400Y812800D03*
X406400Y787400D03*
X406400Y762000D03*
X406400Y736600D03*
X406400Y711200D03*
X406400Y685800D03*
X406400Y660400D03*
X406400Y635000D03*
X406400Y609600D03*
X406400Y584200D03*
X406400Y558800D03*
X406400Y533400D03*
X406400Y508000D03*
X406400Y482600D03*
X406400Y457200D03*
X609600Y457200D03*
X609600Y482600D03*
X609600Y508000D03*
X609600Y533400D03*
X609600Y558800D03*
X609600Y584200D03*
X609600Y609600D03*
X609600Y635000D03*
X609600Y660400D03*
X609600Y685800D03*
X609600Y711200D03*
X609600Y736600D03*
D11*
X740156Y736600D02*
X758444Y736600D01*
X758444Y762000D02*
X740156Y762000D01*
X740156Y787400D02*
X758444Y787400D01*
X758444Y812800D02*
X740156Y812800D01*
X740156Y838200D02*
X758444Y838200D01*
X758444Y863600D02*
X740156Y863600D01*
X740156Y889000D02*
X758444Y889000D01*
X758444Y914400D02*
X740156Y914400D01*
X740156Y508000D02*
X758444Y508000D01*
X758444Y533400D02*
X740156Y533400D01*
X740156Y558800D02*
X758444Y558800D01*
X758444Y584200D02*
X740156Y584200D01*
X740156Y609600D02*
X758444Y609600D01*
X758444Y635000D02*
X740156Y635000D01*
X740156Y660400D02*
X758444Y660400D01*
X758444Y685800D02*
X740156Y685800D01*
X740156Y279400D02*
X758444Y279400D01*
X758444Y304800D02*
X740156Y304800D01*
X740156Y330200D02*
X758444Y330200D01*
X758444Y355600D02*
X740156Y355600D01*
X740156Y381000D02*
X758444Y381000D01*
X758444Y406400D02*
X740156Y406400D01*
X740156Y431800D02*
X758444Y431800D01*
X758444Y457200D02*
X740156Y457200D01*
X622300Y263144D02*
X622300Y244856D01*
X596900Y244856D02*
X596900Y263144D01*
X571500Y263144D02*
X571500Y244856D01*
X546100Y244856D02*
X546100Y263144D01*
X622300Y9144D02*
X622300Y-9144D01*
X596900Y-9144D02*
X596900Y9144D01*
X571500Y9144D02*
X571500Y-9144D01*
X546100Y-9144D02*
X546100Y9144D01*
X546100Y28956D02*
X546100Y47244D01*
X571500Y47244D02*
X571500Y28956D01*
X596900Y28956D02*
X596900Y47244D01*
X622300Y47244D02*
X622300Y28956D01*
X546100Y206756D02*
X546100Y225044D01*
X571500Y225044D02*
X571500Y206756D01*
X596900Y206756D02*
X596900Y225044D01*
X622300Y225044D02*
X622300Y206756D01*
D12*
X482600Y812800D02*
X406400Y812800D01*
X482600Y812800D02*
X584200Y914400D01*
X749300Y914400D01*
D13*
X749300Y685800D02*
X609600Y685800D01*
D14*
X406400Y685800D02*
X609600Y889000D01*
X749300Y889000D01*
X609600Y838200D02*
X406400Y635000D01*
X609600Y838200D02*
X749300Y838200D01*
X609600Y812800D02*
X495300Y698500D01*
X495300Y584200D01*
X609600Y812800D02*
X749300Y812800D01*
X609600Y584200D02*
X558800Y584200D01*
D15*
X558800Y584200D03*
X495300Y584200D03*
D14*
X533400Y533400D02*
X609600Y533400D01*
X533400Y533400D02*
X533400Y711200D01*
X609600Y787400D01*
X749300Y787400D01*
X609600Y863600D02*
X406400Y660400D01*
X609600Y863600D02*
X749300Y863600D01*
X749300Y660400D02*
X609600Y660400D01*
X609600Y635000D02*
X749300Y635000D01*
X749300Y609600D02*
X609600Y609600D01*
X635000Y584200D02*
X609600Y558800D01*
X635000Y584200D02*
X749300Y584200D01*
X660400Y558800D02*
X609600Y508000D01*
X660400Y558800D02*
X749300Y558800D01*
X749300Y457200D02*
X685800Y457200D01*
X667004Y438404D01*
X552196Y438404D02*
X406400Y584200D01*
X552196Y438404D02*
X667004Y438404D01*
X546100Y419100D02*
X406400Y558800D01*
X685800Y431800D02*
X749300Y431800D01*
X685800Y431800D02*
X673100Y419100D01*
X546100Y419100D01*
X533400Y406400D02*
X749300Y406400D01*
X533400Y406400D02*
X406400Y533400D01*
X406400Y508000D02*
X533400Y381000D01*
X749300Y381000D01*
X533400Y355600D02*
X406400Y482600D01*
X533400Y355600D02*
X749300Y355600D01*
D15*
X539750Y482600D03*
X539750Y330200D03*
D14*
X749300Y330200D01*
X609600Y482600D02*
X539750Y482600D01*
D15*
X571500Y457200D03*
X571500Y304800D03*
D14*
X749300Y304800D01*
X609600Y457200D02*
X571500Y457200D01*
X622300Y254000D02*
X622300Y215900D01*
X596900Y215900D02*
X596900Y254000D01*
X571500Y254000D02*
X571500Y215900D01*
X546100Y215900D02*
X546100Y254000D01*
X596900Y38100D02*
X596900Y0D01*
D13*
X571500Y0D02*
X571500Y38100D01*
X546100Y38100D02*
X546100Y0D01*
D14*
X622300Y0D02*
X622300Y38100D01*
M02*
