G04 EAGLE Gerber RS-274X export*
G75*
%MOMM*%
%FSLAX34Y34*%
%LPD*%
%INBoardOutline*%
%IPPOS*%
%AMOC8*
5,1,8,0,0,1.08239X$1,22.5*%
G01*
%ADD10C,0.000000*%


D10*
X360680Y-38100D02*
X810260Y-38100D01*
X810260Y1003300D01*
X360680Y1003300D01*
X360680Y-38100D01*
X388352Y225552D02*
X388357Y225920D01*
X388370Y226288D01*
X388393Y226655D01*
X388424Y227022D01*
X388465Y227388D01*
X388514Y227753D01*
X388573Y228116D01*
X388640Y228478D01*
X388716Y228839D01*
X388802Y229197D01*
X388895Y229553D01*
X388998Y229906D01*
X389109Y230257D01*
X389229Y230605D01*
X389357Y230950D01*
X389494Y231292D01*
X389639Y231631D01*
X389792Y231965D01*
X389954Y232296D01*
X390123Y232623D01*
X390301Y232945D01*
X390486Y233264D01*
X390679Y233577D01*
X390880Y233886D01*
X391088Y234189D01*
X391304Y234487D01*
X391527Y234780D01*
X391757Y235068D01*
X391994Y235350D01*
X392238Y235625D01*
X392488Y235895D01*
X392745Y236159D01*
X393009Y236416D01*
X393279Y236666D01*
X393554Y236910D01*
X393836Y237147D01*
X394124Y237377D01*
X394417Y237600D01*
X394715Y237816D01*
X395018Y238024D01*
X395327Y238225D01*
X395640Y238418D01*
X395959Y238603D01*
X396281Y238781D01*
X396608Y238950D01*
X396939Y239112D01*
X397273Y239265D01*
X397612Y239410D01*
X397954Y239547D01*
X398299Y239675D01*
X398647Y239795D01*
X398998Y239906D01*
X399351Y240009D01*
X399707Y240102D01*
X400065Y240188D01*
X400426Y240264D01*
X400788Y240331D01*
X401151Y240390D01*
X401516Y240439D01*
X401882Y240480D01*
X402249Y240511D01*
X402616Y240534D01*
X402984Y240547D01*
X403352Y240552D01*
X403720Y240547D01*
X404088Y240534D01*
X404455Y240511D01*
X404822Y240480D01*
X405188Y240439D01*
X405553Y240390D01*
X405916Y240331D01*
X406278Y240264D01*
X406639Y240188D01*
X406997Y240102D01*
X407353Y240009D01*
X407706Y239906D01*
X408057Y239795D01*
X408405Y239675D01*
X408750Y239547D01*
X409092Y239410D01*
X409431Y239265D01*
X409765Y239112D01*
X410096Y238950D01*
X410423Y238781D01*
X410745Y238603D01*
X411064Y238418D01*
X411377Y238225D01*
X411686Y238024D01*
X411989Y237816D01*
X412287Y237600D01*
X412580Y237377D01*
X412868Y237147D01*
X413150Y236910D01*
X413425Y236666D01*
X413695Y236416D01*
X413959Y236159D01*
X414216Y235895D01*
X414466Y235625D01*
X414710Y235350D01*
X414947Y235068D01*
X415177Y234780D01*
X415400Y234487D01*
X415616Y234189D01*
X415824Y233886D01*
X416025Y233577D01*
X416218Y233264D01*
X416403Y232945D01*
X416581Y232623D01*
X416750Y232296D01*
X416912Y231965D01*
X417065Y231631D01*
X417210Y231292D01*
X417347Y230950D01*
X417475Y230605D01*
X417595Y230257D01*
X417706Y229906D01*
X417809Y229553D01*
X417902Y229197D01*
X417988Y228839D01*
X418064Y228478D01*
X418131Y228116D01*
X418190Y227753D01*
X418239Y227388D01*
X418280Y227022D01*
X418311Y226655D01*
X418334Y226288D01*
X418347Y225920D01*
X418352Y225552D01*
X418347Y225184D01*
X418334Y224816D01*
X418311Y224449D01*
X418280Y224082D01*
X418239Y223716D01*
X418190Y223351D01*
X418131Y222988D01*
X418064Y222626D01*
X417988Y222265D01*
X417902Y221907D01*
X417809Y221551D01*
X417706Y221198D01*
X417595Y220847D01*
X417475Y220499D01*
X417347Y220154D01*
X417210Y219812D01*
X417065Y219473D01*
X416912Y219139D01*
X416750Y218808D01*
X416581Y218481D01*
X416403Y218159D01*
X416218Y217840D01*
X416025Y217527D01*
X415824Y217218D01*
X415616Y216915D01*
X415400Y216617D01*
X415177Y216324D01*
X414947Y216036D01*
X414710Y215754D01*
X414466Y215479D01*
X414216Y215209D01*
X413959Y214945D01*
X413695Y214688D01*
X413425Y214438D01*
X413150Y214194D01*
X412868Y213957D01*
X412580Y213727D01*
X412287Y213504D01*
X411989Y213288D01*
X411686Y213080D01*
X411377Y212879D01*
X411064Y212686D01*
X410745Y212501D01*
X410423Y212323D01*
X410096Y212154D01*
X409765Y211992D01*
X409431Y211839D01*
X409092Y211694D01*
X408750Y211557D01*
X408405Y211429D01*
X408057Y211309D01*
X407706Y211198D01*
X407353Y211095D01*
X406997Y211002D01*
X406639Y210916D01*
X406278Y210840D01*
X405916Y210773D01*
X405553Y210714D01*
X405188Y210665D01*
X404822Y210624D01*
X404455Y210593D01*
X404088Y210570D01*
X403720Y210557D01*
X403352Y210552D01*
X402984Y210557D01*
X402616Y210570D01*
X402249Y210593D01*
X401882Y210624D01*
X401516Y210665D01*
X401151Y210714D01*
X400788Y210773D01*
X400426Y210840D01*
X400065Y210916D01*
X399707Y211002D01*
X399351Y211095D01*
X398998Y211198D01*
X398647Y211309D01*
X398299Y211429D01*
X397954Y211557D01*
X397612Y211694D01*
X397273Y211839D01*
X396939Y211992D01*
X396608Y212154D01*
X396281Y212323D01*
X395959Y212501D01*
X395640Y212686D01*
X395327Y212879D01*
X395018Y213080D01*
X394715Y213288D01*
X394417Y213504D01*
X394124Y213727D01*
X393836Y213957D01*
X393554Y214194D01*
X393279Y214438D01*
X393009Y214688D01*
X392745Y214945D01*
X392488Y215209D01*
X392238Y215479D01*
X391994Y215754D01*
X391757Y216036D01*
X391527Y216324D01*
X391304Y216617D01*
X391088Y216915D01*
X390880Y217218D01*
X390679Y217527D01*
X390486Y217840D01*
X390301Y218159D01*
X390123Y218481D01*
X389954Y218808D01*
X389792Y219139D01*
X389639Y219473D01*
X389494Y219812D01*
X389357Y220154D01*
X389229Y220499D01*
X389109Y220847D01*
X388998Y221198D01*
X388895Y221551D01*
X388802Y221907D01*
X388716Y222265D01*
X388640Y222626D01*
X388573Y222988D01*
X388514Y223351D01*
X388465Y223716D01*
X388424Y224082D01*
X388393Y224449D01*
X388370Y224816D01*
X388357Y225184D01*
X388352Y225552D01*
X388352Y968248D02*
X388357Y968616D01*
X388370Y968984D01*
X388393Y969351D01*
X388424Y969718D01*
X388465Y970084D01*
X388514Y970449D01*
X388573Y970812D01*
X388640Y971174D01*
X388716Y971535D01*
X388802Y971893D01*
X388895Y972249D01*
X388998Y972602D01*
X389109Y972953D01*
X389229Y973301D01*
X389357Y973646D01*
X389494Y973988D01*
X389639Y974327D01*
X389792Y974661D01*
X389954Y974992D01*
X390123Y975319D01*
X390301Y975641D01*
X390486Y975960D01*
X390679Y976273D01*
X390880Y976582D01*
X391088Y976885D01*
X391304Y977183D01*
X391527Y977476D01*
X391757Y977764D01*
X391994Y978046D01*
X392238Y978321D01*
X392488Y978591D01*
X392745Y978855D01*
X393009Y979112D01*
X393279Y979362D01*
X393554Y979606D01*
X393836Y979843D01*
X394124Y980073D01*
X394417Y980296D01*
X394715Y980512D01*
X395018Y980720D01*
X395327Y980921D01*
X395640Y981114D01*
X395959Y981299D01*
X396281Y981477D01*
X396608Y981646D01*
X396939Y981808D01*
X397273Y981961D01*
X397612Y982106D01*
X397954Y982243D01*
X398299Y982371D01*
X398647Y982491D01*
X398998Y982602D01*
X399351Y982705D01*
X399707Y982798D01*
X400065Y982884D01*
X400426Y982960D01*
X400788Y983027D01*
X401151Y983086D01*
X401516Y983135D01*
X401882Y983176D01*
X402249Y983207D01*
X402616Y983230D01*
X402984Y983243D01*
X403352Y983248D01*
X403720Y983243D01*
X404088Y983230D01*
X404455Y983207D01*
X404822Y983176D01*
X405188Y983135D01*
X405553Y983086D01*
X405916Y983027D01*
X406278Y982960D01*
X406639Y982884D01*
X406997Y982798D01*
X407353Y982705D01*
X407706Y982602D01*
X408057Y982491D01*
X408405Y982371D01*
X408750Y982243D01*
X409092Y982106D01*
X409431Y981961D01*
X409765Y981808D01*
X410096Y981646D01*
X410423Y981477D01*
X410745Y981299D01*
X411064Y981114D01*
X411377Y980921D01*
X411686Y980720D01*
X411989Y980512D01*
X412287Y980296D01*
X412580Y980073D01*
X412868Y979843D01*
X413150Y979606D01*
X413425Y979362D01*
X413695Y979112D01*
X413959Y978855D01*
X414216Y978591D01*
X414466Y978321D01*
X414710Y978046D01*
X414947Y977764D01*
X415177Y977476D01*
X415400Y977183D01*
X415616Y976885D01*
X415824Y976582D01*
X416025Y976273D01*
X416218Y975960D01*
X416403Y975641D01*
X416581Y975319D01*
X416750Y974992D01*
X416912Y974661D01*
X417065Y974327D01*
X417210Y973988D01*
X417347Y973646D01*
X417475Y973301D01*
X417595Y972953D01*
X417706Y972602D01*
X417809Y972249D01*
X417902Y971893D01*
X417988Y971535D01*
X418064Y971174D01*
X418131Y970812D01*
X418190Y970449D01*
X418239Y970084D01*
X418280Y969718D01*
X418311Y969351D01*
X418334Y968984D01*
X418347Y968616D01*
X418352Y968248D01*
X418347Y967880D01*
X418334Y967512D01*
X418311Y967145D01*
X418280Y966778D01*
X418239Y966412D01*
X418190Y966047D01*
X418131Y965684D01*
X418064Y965322D01*
X417988Y964961D01*
X417902Y964603D01*
X417809Y964247D01*
X417706Y963894D01*
X417595Y963543D01*
X417475Y963195D01*
X417347Y962850D01*
X417210Y962508D01*
X417065Y962169D01*
X416912Y961835D01*
X416750Y961504D01*
X416581Y961177D01*
X416403Y960855D01*
X416218Y960536D01*
X416025Y960223D01*
X415824Y959914D01*
X415616Y959611D01*
X415400Y959313D01*
X415177Y959020D01*
X414947Y958732D01*
X414710Y958450D01*
X414466Y958175D01*
X414216Y957905D01*
X413959Y957641D01*
X413695Y957384D01*
X413425Y957134D01*
X413150Y956890D01*
X412868Y956653D01*
X412580Y956423D01*
X412287Y956200D01*
X411989Y955984D01*
X411686Y955776D01*
X411377Y955575D01*
X411064Y955382D01*
X410745Y955197D01*
X410423Y955019D01*
X410096Y954850D01*
X409765Y954688D01*
X409431Y954535D01*
X409092Y954390D01*
X408750Y954253D01*
X408405Y954125D01*
X408057Y954005D01*
X407706Y953894D01*
X407353Y953791D01*
X406997Y953698D01*
X406639Y953612D01*
X406278Y953536D01*
X405916Y953469D01*
X405553Y953410D01*
X405188Y953361D01*
X404822Y953320D01*
X404455Y953289D01*
X404088Y953266D01*
X403720Y953253D01*
X403352Y953248D01*
X402984Y953253D01*
X402616Y953266D01*
X402249Y953289D01*
X401882Y953320D01*
X401516Y953361D01*
X401151Y953410D01*
X400788Y953469D01*
X400426Y953536D01*
X400065Y953612D01*
X399707Y953698D01*
X399351Y953791D01*
X398998Y953894D01*
X398647Y954005D01*
X398299Y954125D01*
X397954Y954253D01*
X397612Y954390D01*
X397273Y954535D01*
X396939Y954688D01*
X396608Y954850D01*
X396281Y955019D01*
X395959Y955197D01*
X395640Y955382D01*
X395327Y955575D01*
X395018Y955776D01*
X394715Y955984D01*
X394417Y956200D01*
X394124Y956423D01*
X393836Y956653D01*
X393554Y956890D01*
X393279Y957134D01*
X393009Y957384D01*
X392745Y957641D01*
X392488Y957905D01*
X392238Y958175D01*
X391994Y958450D01*
X391757Y958732D01*
X391527Y959020D01*
X391304Y959313D01*
X391088Y959611D01*
X390880Y959914D01*
X390679Y960223D01*
X390486Y960536D01*
X390301Y960855D01*
X390123Y961177D01*
X389954Y961504D01*
X389792Y961835D01*
X389639Y962169D01*
X389494Y962508D01*
X389357Y962850D01*
X389229Y963195D01*
X389109Y963543D01*
X388998Y963894D01*
X388895Y964247D01*
X388802Y964603D01*
X388716Y964961D01*
X388640Y965322D01*
X388573Y965684D01*
X388514Y966047D01*
X388465Y966412D01*
X388424Y966778D01*
X388393Y967145D01*
X388370Y967512D01*
X388357Y967880D01*
X388352Y968248D01*
X746746Y225552D02*
X746751Y225920D01*
X746764Y226288D01*
X746787Y226655D01*
X746818Y227022D01*
X746859Y227388D01*
X746908Y227753D01*
X746967Y228116D01*
X747034Y228478D01*
X747110Y228839D01*
X747196Y229197D01*
X747289Y229553D01*
X747392Y229906D01*
X747503Y230257D01*
X747623Y230605D01*
X747751Y230950D01*
X747888Y231292D01*
X748033Y231631D01*
X748186Y231965D01*
X748348Y232296D01*
X748517Y232623D01*
X748695Y232945D01*
X748880Y233264D01*
X749073Y233577D01*
X749274Y233886D01*
X749482Y234189D01*
X749698Y234487D01*
X749921Y234780D01*
X750151Y235068D01*
X750388Y235350D01*
X750632Y235625D01*
X750882Y235895D01*
X751139Y236159D01*
X751403Y236416D01*
X751673Y236666D01*
X751948Y236910D01*
X752230Y237147D01*
X752518Y237377D01*
X752811Y237600D01*
X753109Y237816D01*
X753412Y238024D01*
X753721Y238225D01*
X754034Y238418D01*
X754353Y238603D01*
X754675Y238781D01*
X755002Y238950D01*
X755333Y239112D01*
X755667Y239265D01*
X756006Y239410D01*
X756348Y239547D01*
X756693Y239675D01*
X757041Y239795D01*
X757392Y239906D01*
X757745Y240009D01*
X758101Y240102D01*
X758459Y240188D01*
X758820Y240264D01*
X759182Y240331D01*
X759545Y240390D01*
X759910Y240439D01*
X760276Y240480D01*
X760643Y240511D01*
X761010Y240534D01*
X761378Y240547D01*
X761746Y240552D01*
X762114Y240547D01*
X762482Y240534D01*
X762849Y240511D01*
X763216Y240480D01*
X763582Y240439D01*
X763947Y240390D01*
X764310Y240331D01*
X764672Y240264D01*
X765033Y240188D01*
X765391Y240102D01*
X765747Y240009D01*
X766100Y239906D01*
X766451Y239795D01*
X766799Y239675D01*
X767144Y239547D01*
X767486Y239410D01*
X767825Y239265D01*
X768159Y239112D01*
X768490Y238950D01*
X768817Y238781D01*
X769139Y238603D01*
X769458Y238418D01*
X769771Y238225D01*
X770080Y238024D01*
X770383Y237816D01*
X770681Y237600D01*
X770974Y237377D01*
X771262Y237147D01*
X771544Y236910D01*
X771819Y236666D01*
X772089Y236416D01*
X772353Y236159D01*
X772610Y235895D01*
X772860Y235625D01*
X773104Y235350D01*
X773341Y235068D01*
X773571Y234780D01*
X773794Y234487D01*
X774010Y234189D01*
X774218Y233886D01*
X774419Y233577D01*
X774612Y233264D01*
X774797Y232945D01*
X774975Y232623D01*
X775144Y232296D01*
X775306Y231965D01*
X775459Y231631D01*
X775604Y231292D01*
X775741Y230950D01*
X775869Y230605D01*
X775989Y230257D01*
X776100Y229906D01*
X776203Y229553D01*
X776296Y229197D01*
X776382Y228839D01*
X776458Y228478D01*
X776525Y228116D01*
X776584Y227753D01*
X776633Y227388D01*
X776674Y227022D01*
X776705Y226655D01*
X776728Y226288D01*
X776741Y225920D01*
X776746Y225552D01*
X776741Y225184D01*
X776728Y224816D01*
X776705Y224449D01*
X776674Y224082D01*
X776633Y223716D01*
X776584Y223351D01*
X776525Y222988D01*
X776458Y222626D01*
X776382Y222265D01*
X776296Y221907D01*
X776203Y221551D01*
X776100Y221198D01*
X775989Y220847D01*
X775869Y220499D01*
X775741Y220154D01*
X775604Y219812D01*
X775459Y219473D01*
X775306Y219139D01*
X775144Y218808D01*
X774975Y218481D01*
X774797Y218159D01*
X774612Y217840D01*
X774419Y217527D01*
X774218Y217218D01*
X774010Y216915D01*
X773794Y216617D01*
X773571Y216324D01*
X773341Y216036D01*
X773104Y215754D01*
X772860Y215479D01*
X772610Y215209D01*
X772353Y214945D01*
X772089Y214688D01*
X771819Y214438D01*
X771544Y214194D01*
X771262Y213957D01*
X770974Y213727D01*
X770681Y213504D01*
X770383Y213288D01*
X770080Y213080D01*
X769771Y212879D01*
X769458Y212686D01*
X769139Y212501D01*
X768817Y212323D01*
X768490Y212154D01*
X768159Y211992D01*
X767825Y211839D01*
X767486Y211694D01*
X767144Y211557D01*
X766799Y211429D01*
X766451Y211309D01*
X766100Y211198D01*
X765747Y211095D01*
X765391Y211002D01*
X765033Y210916D01*
X764672Y210840D01*
X764310Y210773D01*
X763947Y210714D01*
X763582Y210665D01*
X763216Y210624D01*
X762849Y210593D01*
X762482Y210570D01*
X762114Y210557D01*
X761746Y210552D01*
X761378Y210557D01*
X761010Y210570D01*
X760643Y210593D01*
X760276Y210624D01*
X759910Y210665D01*
X759545Y210714D01*
X759182Y210773D01*
X758820Y210840D01*
X758459Y210916D01*
X758101Y211002D01*
X757745Y211095D01*
X757392Y211198D01*
X757041Y211309D01*
X756693Y211429D01*
X756348Y211557D01*
X756006Y211694D01*
X755667Y211839D01*
X755333Y211992D01*
X755002Y212154D01*
X754675Y212323D01*
X754353Y212501D01*
X754034Y212686D01*
X753721Y212879D01*
X753412Y213080D01*
X753109Y213288D01*
X752811Y213504D01*
X752518Y213727D01*
X752230Y213957D01*
X751948Y214194D01*
X751673Y214438D01*
X751403Y214688D01*
X751139Y214945D01*
X750882Y215209D01*
X750632Y215479D01*
X750388Y215754D01*
X750151Y216036D01*
X749921Y216324D01*
X749698Y216617D01*
X749482Y216915D01*
X749274Y217218D01*
X749073Y217527D01*
X748880Y217840D01*
X748695Y218159D01*
X748517Y218481D01*
X748348Y218808D01*
X748186Y219139D01*
X748033Y219473D01*
X747888Y219812D01*
X747751Y220154D01*
X747623Y220499D01*
X747503Y220847D01*
X747392Y221198D01*
X747289Y221551D01*
X747196Y221907D01*
X747110Y222265D01*
X747034Y222626D01*
X746967Y222988D01*
X746908Y223351D01*
X746859Y223716D01*
X746818Y224082D01*
X746787Y224449D01*
X746764Y224816D01*
X746751Y225184D01*
X746746Y225552D01*
X746746Y968248D02*
X746751Y968616D01*
X746764Y968984D01*
X746787Y969351D01*
X746818Y969718D01*
X746859Y970084D01*
X746908Y970449D01*
X746967Y970812D01*
X747034Y971174D01*
X747110Y971535D01*
X747196Y971893D01*
X747289Y972249D01*
X747392Y972602D01*
X747503Y972953D01*
X747623Y973301D01*
X747751Y973646D01*
X747888Y973988D01*
X748033Y974327D01*
X748186Y974661D01*
X748348Y974992D01*
X748517Y975319D01*
X748695Y975641D01*
X748880Y975960D01*
X749073Y976273D01*
X749274Y976582D01*
X749482Y976885D01*
X749698Y977183D01*
X749921Y977476D01*
X750151Y977764D01*
X750388Y978046D01*
X750632Y978321D01*
X750882Y978591D01*
X751139Y978855D01*
X751403Y979112D01*
X751673Y979362D01*
X751948Y979606D01*
X752230Y979843D01*
X752518Y980073D01*
X752811Y980296D01*
X753109Y980512D01*
X753412Y980720D01*
X753721Y980921D01*
X754034Y981114D01*
X754353Y981299D01*
X754675Y981477D01*
X755002Y981646D01*
X755333Y981808D01*
X755667Y981961D01*
X756006Y982106D01*
X756348Y982243D01*
X756693Y982371D01*
X757041Y982491D01*
X757392Y982602D01*
X757745Y982705D01*
X758101Y982798D01*
X758459Y982884D01*
X758820Y982960D01*
X759182Y983027D01*
X759545Y983086D01*
X759910Y983135D01*
X760276Y983176D01*
X760643Y983207D01*
X761010Y983230D01*
X761378Y983243D01*
X761746Y983248D01*
X762114Y983243D01*
X762482Y983230D01*
X762849Y983207D01*
X763216Y983176D01*
X763582Y983135D01*
X763947Y983086D01*
X764310Y983027D01*
X764672Y982960D01*
X765033Y982884D01*
X765391Y982798D01*
X765747Y982705D01*
X766100Y982602D01*
X766451Y982491D01*
X766799Y982371D01*
X767144Y982243D01*
X767486Y982106D01*
X767825Y981961D01*
X768159Y981808D01*
X768490Y981646D01*
X768817Y981477D01*
X769139Y981299D01*
X769458Y981114D01*
X769771Y980921D01*
X770080Y980720D01*
X770383Y980512D01*
X770681Y980296D01*
X770974Y980073D01*
X771262Y979843D01*
X771544Y979606D01*
X771819Y979362D01*
X772089Y979112D01*
X772353Y978855D01*
X772610Y978591D01*
X772860Y978321D01*
X773104Y978046D01*
X773341Y977764D01*
X773571Y977476D01*
X773794Y977183D01*
X774010Y976885D01*
X774218Y976582D01*
X774419Y976273D01*
X774612Y975960D01*
X774797Y975641D01*
X774975Y975319D01*
X775144Y974992D01*
X775306Y974661D01*
X775459Y974327D01*
X775604Y973988D01*
X775741Y973646D01*
X775869Y973301D01*
X775989Y972953D01*
X776100Y972602D01*
X776203Y972249D01*
X776296Y971893D01*
X776382Y971535D01*
X776458Y971174D01*
X776525Y970812D01*
X776584Y970449D01*
X776633Y970084D01*
X776674Y969718D01*
X776705Y969351D01*
X776728Y968984D01*
X776741Y968616D01*
X776746Y968248D01*
X776741Y967880D01*
X776728Y967512D01*
X776705Y967145D01*
X776674Y966778D01*
X776633Y966412D01*
X776584Y966047D01*
X776525Y965684D01*
X776458Y965322D01*
X776382Y964961D01*
X776296Y964603D01*
X776203Y964247D01*
X776100Y963894D01*
X775989Y963543D01*
X775869Y963195D01*
X775741Y962850D01*
X775604Y962508D01*
X775459Y962169D01*
X775306Y961835D01*
X775144Y961504D01*
X774975Y961177D01*
X774797Y960855D01*
X774612Y960536D01*
X774419Y960223D01*
X774218Y959914D01*
X774010Y959611D01*
X773794Y959313D01*
X773571Y959020D01*
X773341Y958732D01*
X773104Y958450D01*
X772860Y958175D01*
X772610Y957905D01*
X772353Y957641D01*
X772089Y957384D01*
X771819Y957134D01*
X771544Y956890D01*
X771262Y956653D01*
X770974Y956423D01*
X770681Y956200D01*
X770383Y955984D01*
X770080Y955776D01*
X769771Y955575D01*
X769458Y955382D01*
X769139Y955197D01*
X768817Y955019D01*
X768490Y954850D01*
X768159Y954688D01*
X767825Y954535D01*
X767486Y954390D01*
X767144Y954253D01*
X766799Y954125D01*
X766451Y954005D01*
X766100Y953894D01*
X765747Y953791D01*
X765391Y953698D01*
X765033Y953612D01*
X764672Y953536D01*
X764310Y953469D01*
X763947Y953410D01*
X763582Y953361D01*
X763216Y953320D01*
X762849Y953289D01*
X762482Y953266D01*
X762114Y953253D01*
X761746Y953248D01*
X761378Y953253D01*
X761010Y953266D01*
X760643Y953289D01*
X760276Y953320D01*
X759910Y953361D01*
X759545Y953410D01*
X759182Y953469D01*
X758820Y953536D01*
X758459Y953612D01*
X758101Y953698D01*
X757745Y953791D01*
X757392Y953894D01*
X757041Y954005D01*
X756693Y954125D01*
X756348Y954253D01*
X756006Y954390D01*
X755667Y954535D01*
X755333Y954688D01*
X755002Y954850D01*
X754675Y955019D01*
X754353Y955197D01*
X754034Y955382D01*
X753721Y955575D01*
X753412Y955776D01*
X753109Y955984D01*
X752811Y956200D01*
X752518Y956423D01*
X752230Y956653D01*
X751948Y956890D01*
X751673Y957134D01*
X751403Y957384D01*
X751139Y957641D01*
X750882Y957905D01*
X750632Y958175D01*
X750388Y958450D01*
X750151Y958732D01*
X749921Y959020D01*
X749698Y959313D01*
X749482Y959611D01*
X749274Y959914D01*
X749073Y960223D01*
X748880Y960536D01*
X748695Y960855D01*
X748517Y961177D01*
X748348Y961504D01*
X748186Y961835D01*
X748033Y962169D01*
X747888Y962508D01*
X747751Y962850D01*
X747623Y963195D01*
X747503Y963543D01*
X747392Y963894D01*
X747289Y964247D01*
X747196Y964603D01*
X747110Y964961D01*
X747034Y965322D01*
X746967Y965684D01*
X746908Y966047D01*
X746859Y966412D01*
X746818Y966778D01*
X746787Y967145D01*
X746764Y967512D01*
X746751Y967880D01*
X746746Y968248D01*
M02*
