M48
;GenerationSoftware,Autodesk,EAGLE,9.6.0*%
;CreationDate,2025-04-21T18:23:16Z*%
FMAT,2
ICI,OFF
METRIC,TZ,000.000
T4C0.889
T3C1.000
T2C1.016
T1C3.000
%
G90
M71
T1
X8890Y13970
X15240Y58420
T2
X30480Y55880
X30480Y73660
X30480Y76200
X30480Y71120
X30480Y68580
X30480Y66040
X30480Y63500
X30480Y60960
X30480Y58420
T3
X5080Y48260
X5080Y45720
X5080Y43180
X5080Y40640
X5080Y38100
X5080Y35560
X5080Y33020
X25400Y33020
X25400Y35560
X25400Y38100
X25400Y40640
X25400Y43180
X25400Y45720
X25400Y48260
X25400Y50800
X25400Y53340
X25400Y55880
X5080Y58420
X25400Y60960
X5080Y71120
X5080Y68580
X25400Y58420
X5080Y66040
X5080Y63500
X5080Y60960
X5080Y55880
X5080Y53340
X5080Y50800
T4
X11430Y3810
X8890Y3810
X6350Y3810
X21590Y3810
X24130Y21590
X19050Y21590
X26670Y21590
X16510Y21590
X13970Y21590
X24130Y3810
X26670Y3810
X29210Y3810
X31750Y3810
X34290Y3810
X19050Y3810
X16510Y3810
X13970Y3810
X21590Y21590
M30