G04 EAGLE Gerber RS-274X export*
G75*
%MOMM*%
%FSLAX34Y34*%
%LPD*%
%INBottomLayer*%
%IPPOS*%
%AMOC8*
5,1,8,0,0,1.08239X$1,22.5*%
G01*
%ADD10C,1.812800*%
%ADD11C,1.828800*%
%ADD12C,0.812800*%
%ADD13C,1.270000*%
%ADD14C,0.406400*%
%ADD15C,1.625600*%

G36*
X364113Y-60947D02*
X364113Y-60947D01*
X364236Y-60944D01*
X364313Y-60927D01*
X364391Y-60919D01*
X364509Y-60883D01*
X364629Y-60856D01*
X364701Y-60824D01*
X364776Y-60801D01*
X364884Y-60743D01*
X364996Y-60693D01*
X365061Y-60647D01*
X365130Y-60609D01*
X365225Y-60531D01*
X365325Y-60460D01*
X365379Y-60402D01*
X365439Y-60352D01*
X365516Y-60256D01*
X365601Y-60166D01*
X365642Y-60099D01*
X365692Y-60038D01*
X365748Y-59929D01*
X365813Y-59825D01*
X365841Y-59751D01*
X365877Y-59681D01*
X365911Y-59563D01*
X365954Y-59447D01*
X365967Y-59370D01*
X365989Y-59294D01*
X365999Y-59171D01*
X366018Y-59050D01*
X366015Y-58971D01*
X366022Y-58892D01*
X366007Y-58771D01*
X366002Y-58648D01*
X365984Y-58571D01*
X365975Y-58493D01*
X365937Y-58376D01*
X365908Y-58256D01*
X365874Y-58185D01*
X365850Y-58110D01*
X365789Y-58003D01*
X365738Y-57891D01*
X365691Y-57828D01*
X365652Y-57759D01*
X365572Y-57666D01*
X365499Y-57567D01*
X365432Y-57504D01*
X365389Y-57455D01*
X365332Y-57411D01*
X365257Y-57340D01*
X363671Y-56075D01*
X356851Y-46071D01*
X353282Y-34502D01*
X353282Y-22394D01*
X356851Y-10825D01*
X363671Y-821D01*
X373137Y6728D01*
X380947Y9793D01*
X380968Y9804D01*
X380990Y9811D01*
X381147Y9896D01*
X381305Y9977D01*
X381324Y9991D01*
X381344Y10003D01*
X381481Y10116D01*
X381620Y10227D01*
X381636Y10245D01*
X381654Y10260D01*
X381765Y10399D01*
X381880Y10535D01*
X381891Y10556D01*
X381906Y10574D01*
X381988Y10732D01*
X382074Y10888D01*
X382081Y10911D01*
X382091Y10931D01*
X382141Y11102D01*
X382194Y11272D01*
X382196Y11296D01*
X382203Y11318D01*
X382217Y11495D01*
X382236Y11673D01*
X382234Y11696D01*
X382236Y11720D01*
X382215Y11896D01*
X382198Y12074D01*
X382192Y12096D01*
X382189Y12119D01*
X382134Y12288D01*
X382082Y12459D01*
X382071Y12480D01*
X382064Y12502D01*
X381976Y12657D01*
X381893Y12814D01*
X381878Y12832D01*
X381866Y12853D01*
X381750Y12987D01*
X381637Y13125D01*
X381618Y13140D01*
X381603Y13157D01*
X381463Y13266D01*
X381324Y13379D01*
X381303Y13390D01*
X381285Y13404D01*
X381125Y13484D01*
X380968Y13566D01*
X380945Y13573D01*
X380924Y13584D01*
X380752Y13630D01*
X380582Y13680D01*
X380558Y13682D01*
X380536Y13688D01*
X380205Y13715D01*
X370936Y13715D01*
X369120Y14003D01*
X367370Y14571D01*
X365732Y15406D01*
X364244Y16487D01*
X362943Y17788D01*
X361862Y19276D01*
X361027Y20914D01*
X360459Y22664D01*
X360428Y22861D01*
X380492Y22861D01*
X380510Y22862D01*
X380527Y22861D01*
X380710Y22882D01*
X380892Y22901D01*
X380909Y22906D01*
X380927Y22908D01*
X381005Y22933D01*
X381142Y22894D01*
X381160Y22892D01*
X381177Y22888D01*
X381508Y22861D01*
X401572Y22861D01*
X401541Y22664D01*
X400973Y20914D01*
X400138Y19276D01*
X399057Y17788D01*
X397756Y16487D01*
X396428Y15523D01*
X396322Y15428D01*
X396211Y15340D01*
X396172Y15294D01*
X396128Y15255D01*
X396042Y15142D01*
X395950Y15033D01*
X395921Y14981D01*
X395886Y14933D01*
X395824Y14805D01*
X395756Y14680D01*
X395738Y14624D01*
X395712Y14570D01*
X395677Y14432D01*
X395634Y14297D01*
X395628Y14237D01*
X395613Y14180D01*
X395606Y14038D01*
X395591Y13896D01*
X395596Y13837D01*
X395593Y13777D01*
X395615Y13637D01*
X395628Y13495D01*
X395645Y13438D01*
X395653Y13379D01*
X395702Y13246D01*
X395742Y13109D01*
X395770Y13057D01*
X395791Y13001D01*
X395865Y12879D01*
X395931Y12754D01*
X395969Y12708D01*
X396000Y12657D01*
X396096Y12552D01*
X396186Y12442D01*
X396233Y12405D01*
X396273Y12361D01*
X396388Y12277D01*
X396498Y12188D01*
X396551Y12160D01*
X396599Y12125D01*
X396728Y12065D01*
X396854Y11999D01*
X396919Y11979D01*
X396965Y11957D01*
X397045Y11939D01*
X397170Y11899D01*
X408285Y9362D01*
X418771Y3308D01*
X422439Y-645D01*
X422474Y-676D01*
X422504Y-712D01*
X422624Y-809D01*
X422741Y-912D01*
X422782Y-935D01*
X422818Y-965D01*
X422955Y-1036D01*
X423089Y-1114D01*
X423134Y-1129D01*
X423175Y-1150D01*
X423324Y-1193D01*
X423470Y-1243D01*
X423517Y-1249D01*
X423562Y-1262D01*
X423717Y-1274D01*
X423870Y-1294D01*
X423917Y-1291D01*
X423964Y-1295D01*
X424117Y-1277D01*
X424271Y-1266D01*
X424317Y-1253D01*
X424363Y-1248D01*
X424511Y-1200D01*
X424660Y-1159D01*
X424701Y-1137D01*
X424746Y-1123D01*
X424881Y-1047D01*
X425019Y-977D01*
X425056Y-948D01*
X425097Y-925D01*
X425214Y-824D01*
X425335Y-728D01*
X425366Y-692D01*
X425402Y-662D01*
X425496Y-540D01*
X425597Y-422D01*
X425620Y-381D01*
X425648Y-344D01*
X425717Y-205D01*
X425792Y-70D01*
X425807Y-25D01*
X425828Y17D01*
X425868Y167D01*
X425915Y314D01*
X425920Y360D01*
X425932Y406D01*
X425953Y654D01*
X425959Y714D01*
X425958Y724D01*
X425959Y736D01*
X425959Y685064D01*
X425955Y685110D01*
X425957Y685157D01*
X425935Y685311D01*
X425919Y685464D01*
X425906Y685509D01*
X425899Y685556D01*
X425847Y685701D01*
X425801Y685849D01*
X425779Y685890D01*
X425763Y685935D01*
X425683Y686067D01*
X425609Y686203D01*
X425579Y686239D01*
X425555Y686279D01*
X425451Y686394D01*
X425352Y686512D01*
X425315Y686542D01*
X425283Y686577D01*
X425158Y686668D01*
X425038Y686765D01*
X424996Y686786D01*
X424958Y686814D01*
X424818Y686879D01*
X424681Y686950D01*
X424635Y686963D01*
X424593Y686983D01*
X424442Y687019D01*
X424294Y687062D01*
X424247Y687065D01*
X424201Y687076D01*
X424047Y687082D01*
X423892Y687095D01*
X423846Y687089D01*
X423799Y687091D01*
X423646Y687066D01*
X423493Y687048D01*
X423448Y687033D01*
X423402Y687025D01*
X423257Y686971D01*
X423110Y686923D01*
X423069Y686900D01*
X423025Y686883D01*
X422894Y686801D01*
X422759Y686725D01*
X422724Y686694D01*
X422684Y686669D01*
X422500Y686501D01*
X422455Y686462D01*
X422448Y686454D01*
X422439Y686445D01*
X418771Y682492D01*
X408285Y676438D01*
X397495Y673975D01*
X397319Y673916D01*
X397145Y673861D01*
X397130Y673853D01*
X397113Y673847D01*
X396953Y673755D01*
X396792Y673666D01*
X396779Y673655D01*
X396764Y673646D01*
X396626Y673525D01*
X396485Y673406D01*
X396475Y673392D01*
X396461Y673380D01*
X396349Y673234D01*
X396236Y673090D01*
X396228Y673074D01*
X396217Y673060D01*
X396137Y672895D01*
X396053Y672731D01*
X396049Y672714D01*
X396041Y672698D01*
X395995Y672521D01*
X395945Y672343D01*
X395944Y672326D01*
X395940Y672309D01*
X395929Y672125D01*
X395916Y671941D01*
X395918Y671924D01*
X395917Y671907D01*
X395943Y671725D01*
X395966Y671542D01*
X395972Y671525D01*
X395974Y671508D01*
X396036Y671334D01*
X396095Y671160D01*
X396103Y671145D01*
X396109Y671129D01*
X396204Y670971D01*
X396296Y670811D01*
X396308Y670797D01*
X396316Y670783D01*
X396365Y670729D01*
X396510Y670558D01*
X400050Y667019D01*
X401829Y662724D01*
X401829Y658076D01*
X400050Y653781D01*
X396763Y650494D01*
X394548Y649577D01*
X394540Y649572D01*
X394531Y649570D01*
X394361Y649477D01*
X394193Y649386D01*
X394186Y649381D01*
X394178Y649376D01*
X394030Y649252D01*
X393882Y649130D01*
X393877Y649123D01*
X393870Y649117D01*
X393750Y648967D01*
X393629Y648817D01*
X393625Y648809D01*
X393619Y648802D01*
X393532Y648633D01*
X393442Y648461D01*
X393439Y648452D01*
X393435Y648444D01*
X393383Y648262D01*
X393329Y648074D01*
X393328Y648065D01*
X393325Y648057D01*
X393311Y647866D01*
X393294Y647673D01*
X393295Y647664D01*
X393294Y647656D01*
X393318Y647465D01*
X393339Y647273D01*
X393342Y647265D01*
X393343Y647256D01*
X393403Y647074D01*
X393462Y646890D01*
X393467Y646882D01*
X393470Y646874D01*
X393565Y646706D01*
X393659Y646538D01*
X393664Y646532D01*
X393669Y646524D01*
X393796Y646378D01*
X393921Y646233D01*
X393928Y646227D01*
X393933Y646220D01*
X394086Y646103D01*
X394238Y645984D01*
X394246Y645980D01*
X394253Y645975D01*
X394548Y645823D01*
X396763Y644906D01*
X400050Y641619D01*
X401829Y637324D01*
X401829Y632676D01*
X400050Y628381D01*
X396763Y625094D01*
X394548Y624177D01*
X394540Y624172D01*
X394531Y624170D01*
X394361Y624077D01*
X394193Y623986D01*
X394186Y623981D01*
X394178Y623976D01*
X394030Y623852D01*
X393882Y623730D01*
X393877Y623723D01*
X393870Y623717D01*
X393750Y623567D01*
X393629Y623417D01*
X393625Y623409D01*
X393619Y623402D01*
X393532Y623233D01*
X393442Y623061D01*
X393439Y623052D01*
X393435Y623044D01*
X393383Y622862D01*
X393329Y622674D01*
X393328Y622665D01*
X393325Y622657D01*
X393311Y622466D01*
X393294Y622273D01*
X393295Y622264D01*
X393294Y622256D01*
X393318Y622065D01*
X393339Y621873D01*
X393342Y621865D01*
X393343Y621856D01*
X393403Y621674D01*
X393462Y621490D01*
X393467Y621482D01*
X393470Y621474D01*
X393565Y621306D01*
X393659Y621138D01*
X393664Y621132D01*
X393669Y621124D01*
X393796Y620978D01*
X393921Y620833D01*
X393928Y620827D01*
X393933Y620820D01*
X394086Y620703D01*
X394238Y620584D01*
X394246Y620580D01*
X394253Y620575D01*
X394548Y620423D01*
X396763Y619506D01*
X400050Y616219D01*
X401829Y611924D01*
X401829Y607276D01*
X400050Y602981D01*
X396763Y599694D01*
X394548Y598777D01*
X394540Y598772D01*
X394531Y598770D01*
X394362Y598677D01*
X394193Y598586D01*
X394186Y598581D01*
X394178Y598576D01*
X394031Y598453D01*
X393882Y598330D01*
X393877Y598323D01*
X393870Y598317D01*
X393749Y598166D01*
X393629Y598017D01*
X393625Y598010D01*
X393619Y598002D01*
X393530Y597829D01*
X393442Y597661D01*
X393439Y597652D01*
X393435Y597644D01*
X393382Y597458D01*
X393329Y597274D01*
X393328Y597265D01*
X393325Y597257D01*
X393311Y597066D01*
X393294Y596873D01*
X393295Y596864D01*
X393294Y596856D01*
X393318Y596664D01*
X393339Y596473D01*
X393342Y596465D01*
X393343Y596456D01*
X393403Y596273D01*
X393462Y596090D01*
X393467Y596082D01*
X393469Y596074D01*
X393565Y595907D01*
X393659Y595738D01*
X393665Y595732D01*
X393669Y595724D01*
X393795Y595580D01*
X393920Y595433D01*
X393928Y595427D01*
X393933Y595420D01*
X394086Y595303D01*
X394238Y595184D01*
X394245Y595180D01*
X394253Y595175D01*
X394548Y595023D01*
X396763Y594106D01*
X400050Y590819D01*
X401829Y586524D01*
X401829Y581876D01*
X400050Y577581D01*
X396763Y574294D01*
X394548Y573377D01*
X394540Y573372D01*
X394531Y573370D01*
X394362Y573277D01*
X394193Y573186D01*
X394186Y573181D01*
X394178Y573176D01*
X394031Y573053D01*
X393882Y572930D01*
X393877Y572923D01*
X393870Y572917D01*
X393749Y572766D01*
X393629Y572617D01*
X393625Y572610D01*
X393619Y572602D01*
X393530Y572429D01*
X393442Y572261D01*
X393439Y572252D01*
X393435Y572244D01*
X393382Y572058D01*
X393329Y571874D01*
X393328Y571865D01*
X393325Y571857D01*
X393311Y571666D01*
X393294Y571473D01*
X393295Y571464D01*
X393294Y571456D01*
X393318Y571264D01*
X393339Y571073D01*
X393342Y571065D01*
X393343Y571056D01*
X393403Y570873D01*
X393462Y570690D01*
X393467Y570682D01*
X393469Y570674D01*
X393565Y570507D01*
X393659Y570338D01*
X393665Y570332D01*
X393669Y570324D01*
X393795Y570180D01*
X393920Y570033D01*
X393928Y570027D01*
X393933Y570020D01*
X394086Y569903D01*
X394238Y569784D01*
X394245Y569780D01*
X394253Y569775D01*
X394548Y569623D01*
X396763Y568706D01*
X400050Y565419D01*
X401829Y561124D01*
X401829Y556476D01*
X400050Y552181D01*
X396763Y548894D01*
X394548Y547977D01*
X394540Y547972D01*
X394531Y547970D01*
X394362Y547877D01*
X394193Y547786D01*
X394186Y547781D01*
X394178Y547776D01*
X394031Y547653D01*
X393882Y547530D01*
X393877Y547523D01*
X393870Y547517D01*
X393749Y547366D01*
X393629Y547217D01*
X393625Y547210D01*
X393619Y547202D01*
X393530Y547029D01*
X393442Y546861D01*
X393439Y546852D01*
X393435Y546844D01*
X393382Y546658D01*
X393329Y546474D01*
X393328Y546465D01*
X393325Y546457D01*
X393311Y546266D01*
X393294Y546073D01*
X393295Y546064D01*
X393294Y546056D01*
X393318Y545864D01*
X393339Y545673D01*
X393342Y545665D01*
X393343Y545656D01*
X393403Y545473D01*
X393462Y545290D01*
X393467Y545282D01*
X393469Y545274D01*
X393565Y545106D01*
X393659Y544938D01*
X393665Y544932D01*
X393669Y544924D01*
X393795Y544780D01*
X393920Y544633D01*
X393928Y544627D01*
X393933Y544620D01*
X394086Y544503D01*
X394238Y544384D01*
X394245Y544380D01*
X394253Y544375D01*
X394548Y544223D01*
X396763Y543306D01*
X400050Y540019D01*
X401829Y535724D01*
X401829Y531076D01*
X400050Y526781D01*
X396763Y523494D01*
X394600Y522598D01*
X394521Y522556D01*
X394438Y522523D01*
X394344Y522461D01*
X394245Y522408D01*
X394176Y522351D01*
X394101Y522302D01*
X394021Y522223D01*
X393934Y522152D01*
X393878Y522082D01*
X393814Y522019D01*
X393752Y521926D01*
X393681Y521839D01*
X393639Y521760D01*
X393589Y521686D01*
X393546Y521582D01*
X393494Y521482D01*
X393469Y521397D01*
X393434Y521314D01*
X393412Y521204D01*
X393381Y521096D01*
X393373Y521007D01*
X393355Y520919D01*
X393356Y520807D01*
X393346Y520695D01*
X393356Y520606D01*
X393356Y520517D01*
X393379Y520406D01*
X393391Y520295D01*
X393418Y520210D01*
X393436Y520122D01*
X393480Y520019D01*
X393514Y519911D01*
X393558Y519833D01*
X393593Y519751D01*
X393656Y519658D01*
X393711Y519560D01*
X393769Y519492D01*
X393819Y519418D01*
X393899Y519340D01*
X393972Y519254D01*
X394043Y519199D01*
X394107Y519136D01*
X394201Y519075D01*
X394289Y519006D01*
X394369Y518966D01*
X394444Y518917D01*
X394508Y518890D01*
X396268Y517994D01*
X397756Y516913D01*
X399057Y515612D01*
X400138Y514124D01*
X400973Y512486D01*
X401541Y510736D01*
X401572Y510539D01*
X381508Y510539D01*
X381490Y510537D01*
X381473Y510539D01*
X381290Y510518D01*
X381108Y510499D01*
X381091Y510494D01*
X381073Y510492D01*
X380995Y510467D01*
X380858Y510506D01*
X380840Y510508D01*
X380823Y510512D01*
X380492Y510539D01*
X360428Y510539D01*
X360459Y510736D01*
X361027Y512486D01*
X361862Y514124D01*
X362943Y515612D01*
X364244Y516913D01*
X365732Y517994D01*
X367415Y518851D01*
X367417Y518852D01*
X367428Y518858D01*
X367513Y518901D01*
X367530Y518912D01*
X367618Y518951D01*
X367692Y519002D01*
X367770Y519045D01*
X367856Y519117D01*
X367948Y519182D01*
X368010Y519247D01*
X368078Y519304D01*
X368148Y519392D01*
X368226Y519473D01*
X368273Y519549D01*
X368329Y519619D01*
X368380Y519719D01*
X368440Y519814D01*
X368472Y519898D01*
X368513Y519977D01*
X368544Y520085D01*
X368584Y520190D01*
X368598Y520279D01*
X368623Y520365D01*
X368631Y520477D01*
X368650Y520588D01*
X368647Y520677D01*
X368654Y520766D01*
X368640Y520877D01*
X368636Y520990D01*
X368616Y521077D01*
X368605Y521166D01*
X368570Y521272D01*
X368544Y521382D01*
X368507Y521463D01*
X368479Y521548D01*
X368423Y521645D01*
X368376Y521748D01*
X368323Y521820D01*
X368279Y521898D01*
X368205Y521982D01*
X368139Y522073D01*
X368073Y522134D01*
X368015Y522201D01*
X367926Y522270D01*
X367843Y522346D01*
X367766Y522392D01*
X367695Y522447D01*
X367571Y522511D01*
X367498Y522554D01*
X367455Y522570D01*
X367400Y522598D01*
X365237Y523494D01*
X361950Y526781D01*
X361622Y527573D01*
X361612Y527593D01*
X361605Y527614D01*
X361516Y527770D01*
X361432Y527928D01*
X361418Y527945D01*
X361407Y527965D01*
X361290Y528100D01*
X361175Y528239D01*
X361158Y528253D01*
X361144Y528270D01*
X361002Y528379D01*
X360863Y528492D01*
X360843Y528503D01*
X360825Y528516D01*
X360665Y528596D01*
X360506Y528679D01*
X360485Y528686D01*
X360465Y528696D01*
X360292Y528742D01*
X360120Y528792D01*
X360098Y528794D01*
X360076Y528800D01*
X359745Y528827D01*
X244035Y528827D01*
X244009Y528825D01*
X243982Y528827D01*
X243808Y528805D01*
X243635Y528787D01*
X243609Y528780D01*
X243583Y528776D01*
X243417Y528721D01*
X243250Y528669D01*
X243226Y528656D01*
X243201Y528648D01*
X243049Y528561D01*
X242896Y528477D01*
X242875Y528460D01*
X242852Y528447D01*
X242599Y528232D01*
X170268Y455901D01*
X170251Y455880D01*
X170230Y455863D01*
X170123Y455725D01*
X170013Y455589D01*
X170000Y455566D01*
X169984Y455545D01*
X169906Y455388D01*
X169824Y455234D01*
X169816Y455208D01*
X169804Y455184D01*
X169759Y455014D01*
X169709Y454848D01*
X169707Y454821D01*
X169700Y454795D01*
X169673Y454465D01*
X169673Y286004D01*
X169675Y285986D01*
X169673Y285968D01*
X169694Y285786D01*
X169713Y285603D01*
X169718Y285586D01*
X169720Y285569D01*
X169777Y285394D01*
X169831Y285218D01*
X169839Y285203D01*
X169845Y285186D01*
X169935Y285026D01*
X170023Y284864D01*
X170034Y284851D01*
X170043Y284835D01*
X170163Y284696D01*
X170280Y284555D01*
X170294Y284544D01*
X170306Y284530D01*
X170451Y284418D01*
X170594Y284303D01*
X170610Y284295D01*
X170624Y284284D01*
X170789Y284202D01*
X170951Y284117D01*
X170968Y284112D01*
X170984Y284104D01*
X171163Y284057D01*
X171338Y284006D01*
X171356Y284004D01*
X171373Y284000D01*
X171704Y283973D01*
X229276Y283973D01*
X229298Y283975D01*
X229320Y283973D01*
X229498Y283995D01*
X229677Y284013D01*
X229698Y284019D01*
X229720Y284022D01*
X229891Y284078D01*
X230061Y284131D01*
X230081Y284141D01*
X230102Y284148D01*
X230258Y284237D01*
X230416Y284323D01*
X230433Y284337D01*
X230452Y284348D01*
X230587Y284466D01*
X230725Y284580D01*
X230739Y284598D01*
X230756Y284612D01*
X230865Y284755D01*
X230977Y284894D01*
X230987Y284914D01*
X231001Y284931D01*
X231153Y285227D01*
X231462Y285974D01*
X234726Y289238D01*
X237105Y290223D01*
X237113Y290228D01*
X237122Y290230D01*
X237290Y290322D01*
X237460Y290414D01*
X237467Y290419D01*
X237475Y290424D01*
X237621Y290547D01*
X237771Y290670D01*
X237776Y290677D01*
X237783Y290683D01*
X237903Y290833D01*
X238024Y290983D01*
X238028Y290991D01*
X238034Y290997D01*
X238122Y291168D01*
X238211Y291339D01*
X238214Y291348D01*
X238218Y291356D01*
X238270Y291540D01*
X238324Y291726D01*
X238325Y291734D01*
X238328Y291743D01*
X238342Y291934D01*
X238359Y292127D01*
X238358Y292136D01*
X238359Y292144D01*
X238336Y292334D01*
X238314Y292527D01*
X238311Y292535D01*
X238310Y292544D01*
X238251Y292723D01*
X238191Y292910D01*
X238186Y292918D01*
X238184Y292926D01*
X238088Y293094D01*
X237994Y293262D01*
X237989Y293268D01*
X237984Y293276D01*
X237858Y293421D01*
X237733Y293567D01*
X237725Y293573D01*
X237720Y293580D01*
X237566Y293697D01*
X237416Y293816D01*
X237408Y293820D01*
X237400Y293825D01*
X237105Y293977D01*
X234726Y294962D01*
X231462Y298226D01*
X229695Y302492D01*
X229695Y307108D01*
X231462Y311374D01*
X234726Y314638D01*
X237105Y315623D01*
X237113Y315628D01*
X237122Y315630D01*
X237290Y315722D01*
X237460Y315814D01*
X237467Y315819D01*
X237475Y315824D01*
X237621Y315947D01*
X237771Y316070D01*
X237776Y316077D01*
X237783Y316083D01*
X237903Y316233D01*
X238024Y316383D01*
X238028Y316391D01*
X238034Y316397D01*
X238122Y316568D01*
X238211Y316739D01*
X238214Y316748D01*
X238218Y316756D01*
X238270Y316940D01*
X238324Y317126D01*
X238325Y317134D01*
X238328Y317143D01*
X238342Y317334D01*
X238359Y317527D01*
X238358Y317536D01*
X238359Y317544D01*
X238336Y317734D01*
X238314Y317927D01*
X238311Y317935D01*
X238310Y317944D01*
X238250Y318126D01*
X238191Y318310D01*
X238186Y318318D01*
X238184Y318326D01*
X238088Y318494D01*
X237994Y318662D01*
X237989Y318668D01*
X237984Y318676D01*
X237858Y318821D01*
X237733Y318967D01*
X237725Y318973D01*
X237720Y318980D01*
X237566Y319097D01*
X237416Y319216D01*
X237408Y319220D01*
X237400Y319225D01*
X237105Y319377D01*
X234726Y320362D01*
X231462Y323626D01*
X231153Y324373D01*
X231142Y324393D01*
X231135Y324414D01*
X231047Y324571D01*
X230962Y324728D01*
X230948Y324745D01*
X230937Y324765D01*
X230820Y324901D01*
X230706Y325039D01*
X230689Y325053D01*
X230674Y325070D01*
X230532Y325179D01*
X230393Y325292D01*
X230374Y325303D01*
X230356Y325316D01*
X230196Y325396D01*
X230037Y325479D01*
X230015Y325486D01*
X229995Y325496D01*
X229822Y325542D01*
X229650Y325592D01*
X229628Y325594D01*
X229607Y325600D01*
X229276Y325627D01*
X201511Y325627D01*
X201489Y325625D01*
X201466Y325627D01*
X201289Y325605D01*
X201110Y325587D01*
X201089Y325581D01*
X201067Y325578D01*
X200897Y325522D01*
X200725Y325469D01*
X200706Y325459D01*
X200685Y325452D01*
X200529Y325363D01*
X200371Y325277D01*
X200354Y325263D01*
X200335Y325252D01*
X200200Y325135D01*
X200062Y325020D01*
X200048Y325002D01*
X200031Y324988D01*
X199922Y324846D01*
X199810Y324706D01*
X199799Y324686D01*
X199786Y324668D01*
X199634Y324373D01*
X199544Y324157D01*
X196543Y321155D01*
X192622Y319531D01*
X188378Y319531D01*
X184457Y321155D01*
X181455Y324157D01*
X179831Y328078D01*
X179831Y332322D01*
X181455Y336243D01*
X184457Y339245D01*
X188378Y340869D01*
X192622Y340869D01*
X196543Y339245D01*
X199544Y336243D01*
X199634Y336027D01*
X199645Y336007D01*
X199652Y335986D01*
X199740Y335830D01*
X199824Y335672D01*
X199839Y335655D01*
X199850Y335635D01*
X199967Y335499D01*
X200081Y335361D01*
X200098Y335347D01*
X200113Y335330D01*
X200254Y335221D01*
X200393Y335108D01*
X200413Y335097D01*
X200431Y335084D01*
X200591Y335004D01*
X200750Y334921D01*
X200771Y334914D01*
X200791Y334904D01*
X200965Y334858D01*
X201136Y334808D01*
X201159Y334806D01*
X201180Y334800D01*
X201511Y334773D01*
X229276Y334773D01*
X229298Y334775D01*
X229320Y334773D01*
X229498Y334795D01*
X229677Y334813D01*
X229698Y334819D01*
X229720Y334822D01*
X229891Y334878D01*
X230061Y334931D01*
X230081Y334941D01*
X230102Y334948D01*
X230258Y335037D01*
X230416Y335123D01*
X230433Y335137D01*
X230452Y335148D01*
X230587Y335266D01*
X230725Y335380D01*
X230739Y335398D01*
X230756Y335412D01*
X230865Y335555D01*
X230977Y335694D01*
X230987Y335714D01*
X231001Y335731D01*
X231153Y336027D01*
X231462Y336774D01*
X234726Y340038D01*
X237105Y341023D01*
X237113Y341028D01*
X237122Y341030D01*
X237290Y341122D01*
X237460Y341214D01*
X237467Y341219D01*
X237475Y341224D01*
X237621Y341347D01*
X237771Y341470D01*
X237776Y341477D01*
X237783Y341483D01*
X237903Y341633D01*
X238024Y341783D01*
X238028Y341791D01*
X238034Y341797D01*
X238122Y341968D01*
X238211Y342139D01*
X238214Y342148D01*
X238218Y342156D01*
X238270Y342340D01*
X238324Y342526D01*
X238325Y342534D01*
X238328Y342543D01*
X238342Y342734D01*
X238359Y342927D01*
X238358Y342936D01*
X238359Y342944D01*
X238336Y343134D01*
X238314Y343327D01*
X238311Y343335D01*
X238310Y343344D01*
X238250Y343526D01*
X238191Y343710D01*
X238186Y343718D01*
X238184Y343726D01*
X238088Y343894D01*
X237994Y344062D01*
X237989Y344068D01*
X237984Y344076D01*
X237858Y344221D01*
X237733Y344367D01*
X237725Y344373D01*
X237720Y344380D01*
X237566Y344497D01*
X237416Y344616D01*
X237408Y344620D01*
X237400Y344625D01*
X237105Y344777D01*
X234726Y345762D01*
X231462Y349026D01*
X229695Y353292D01*
X229695Y357908D01*
X231462Y362174D01*
X234726Y365438D01*
X237105Y366423D01*
X237113Y366428D01*
X237122Y366430D01*
X237290Y366522D01*
X237460Y366614D01*
X237467Y366619D01*
X237475Y366624D01*
X237621Y366747D01*
X237771Y366870D01*
X237776Y366877D01*
X237783Y366883D01*
X237903Y367033D01*
X238024Y367183D01*
X238028Y367191D01*
X238034Y367197D01*
X238122Y367368D01*
X238211Y367539D01*
X238214Y367548D01*
X238218Y367556D01*
X238270Y367740D01*
X238324Y367926D01*
X238325Y367934D01*
X238328Y367943D01*
X238342Y368134D01*
X238359Y368327D01*
X238358Y368336D01*
X238359Y368344D01*
X238336Y368534D01*
X238314Y368727D01*
X238311Y368735D01*
X238310Y368744D01*
X238250Y368926D01*
X238191Y369110D01*
X238186Y369118D01*
X238184Y369126D01*
X238088Y369294D01*
X237994Y369462D01*
X237989Y369468D01*
X237984Y369476D01*
X237858Y369621D01*
X237733Y369767D01*
X237725Y369773D01*
X237720Y369780D01*
X237566Y369897D01*
X237416Y370016D01*
X237408Y370020D01*
X237400Y370025D01*
X237105Y370177D01*
X234726Y371162D01*
X231462Y374426D01*
X229695Y378692D01*
X229695Y383308D01*
X231462Y387574D01*
X234726Y390838D01*
X237105Y391823D01*
X237113Y391828D01*
X237122Y391830D01*
X237290Y391922D01*
X237460Y392014D01*
X237467Y392019D01*
X237475Y392024D01*
X237621Y392147D01*
X237771Y392270D01*
X237776Y392277D01*
X237783Y392283D01*
X237903Y392433D01*
X238024Y392583D01*
X238028Y392591D01*
X238034Y392597D01*
X238122Y392768D01*
X238211Y392939D01*
X238214Y392948D01*
X238218Y392956D01*
X238270Y393140D01*
X238324Y393326D01*
X238325Y393334D01*
X238328Y393343D01*
X238342Y393534D01*
X238359Y393727D01*
X238358Y393736D01*
X238359Y393744D01*
X238336Y393934D01*
X238314Y394127D01*
X238311Y394135D01*
X238310Y394144D01*
X238250Y394326D01*
X238191Y394510D01*
X238186Y394518D01*
X238184Y394526D01*
X238088Y394694D01*
X237994Y394862D01*
X237989Y394868D01*
X237984Y394876D01*
X237858Y395021D01*
X237733Y395167D01*
X237725Y395173D01*
X237720Y395180D01*
X237566Y395297D01*
X237416Y395416D01*
X237408Y395420D01*
X237400Y395425D01*
X237105Y395577D01*
X234726Y396562D01*
X231462Y399826D01*
X229695Y404092D01*
X229695Y408708D01*
X231462Y412974D01*
X234726Y416238D01*
X237105Y417223D01*
X237113Y417228D01*
X237122Y417230D01*
X237290Y417322D01*
X237460Y417414D01*
X237467Y417419D01*
X237475Y417424D01*
X237621Y417547D01*
X237771Y417670D01*
X237776Y417677D01*
X237783Y417683D01*
X237903Y417833D01*
X238024Y417983D01*
X238028Y417991D01*
X238034Y417997D01*
X238122Y418168D01*
X238211Y418339D01*
X238214Y418348D01*
X238218Y418356D01*
X238270Y418540D01*
X238324Y418726D01*
X238325Y418734D01*
X238328Y418743D01*
X238342Y418934D01*
X238359Y419127D01*
X238358Y419136D01*
X238359Y419144D01*
X238336Y419334D01*
X238314Y419527D01*
X238311Y419535D01*
X238310Y419544D01*
X238250Y419726D01*
X238191Y419910D01*
X238186Y419918D01*
X238184Y419926D01*
X238088Y420094D01*
X237994Y420262D01*
X237989Y420268D01*
X237984Y420276D01*
X237859Y420420D01*
X237733Y420567D01*
X237725Y420573D01*
X237720Y420580D01*
X237566Y420697D01*
X237416Y420816D01*
X237408Y420820D01*
X237400Y420825D01*
X237105Y420977D01*
X234726Y421962D01*
X231462Y425226D01*
X229695Y429492D01*
X229695Y434108D01*
X231462Y438374D01*
X234726Y441638D01*
X237105Y442623D01*
X237113Y442628D01*
X237122Y442630D01*
X237290Y442722D01*
X237460Y442814D01*
X237467Y442819D01*
X237475Y442824D01*
X237621Y442947D01*
X237771Y443070D01*
X237776Y443077D01*
X237783Y443083D01*
X237903Y443233D01*
X238024Y443383D01*
X238028Y443391D01*
X238034Y443397D01*
X238122Y443568D01*
X238211Y443739D01*
X238214Y443748D01*
X238218Y443756D01*
X238270Y443940D01*
X238324Y444126D01*
X238325Y444134D01*
X238328Y444143D01*
X238342Y444334D01*
X238359Y444527D01*
X238358Y444536D01*
X238359Y444544D01*
X238336Y444734D01*
X238314Y444927D01*
X238311Y444935D01*
X238310Y444944D01*
X238250Y445126D01*
X238191Y445310D01*
X238186Y445318D01*
X238184Y445326D01*
X238088Y445494D01*
X237994Y445662D01*
X237989Y445668D01*
X237984Y445676D01*
X237858Y445821D01*
X237733Y445967D01*
X237725Y445973D01*
X237720Y445980D01*
X237566Y446097D01*
X237416Y446216D01*
X237408Y446220D01*
X237400Y446225D01*
X237105Y446377D01*
X234726Y447362D01*
X231462Y450626D01*
X229695Y454892D01*
X229695Y459508D01*
X231462Y463774D01*
X234726Y467038D01*
X237105Y468023D01*
X237113Y468028D01*
X237122Y468030D01*
X237290Y468122D01*
X237460Y468214D01*
X237467Y468219D01*
X237475Y468224D01*
X237621Y468347D01*
X237771Y468470D01*
X237776Y468477D01*
X237783Y468483D01*
X237903Y468633D01*
X238024Y468783D01*
X238028Y468791D01*
X238034Y468797D01*
X238122Y468968D01*
X238211Y469139D01*
X238214Y469148D01*
X238218Y469156D01*
X238270Y469340D01*
X238324Y469526D01*
X238325Y469534D01*
X238328Y469543D01*
X238342Y469734D01*
X238359Y469927D01*
X238358Y469936D01*
X238359Y469944D01*
X238336Y470134D01*
X238314Y470327D01*
X238311Y470335D01*
X238310Y470344D01*
X238250Y470524D01*
X238191Y470710D01*
X238186Y470718D01*
X238184Y470726D01*
X238088Y470894D01*
X237994Y471062D01*
X237989Y471068D01*
X237984Y471076D01*
X237858Y471221D01*
X237733Y471367D01*
X237725Y471373D01*
X237720Y471380D01*
X237566Y471497D01*
X237416Y471616D01*
X237408Y471620D01*
X237400Y471625D01*
X237105Y471777D01*
X234726Y472762D01*
X231462Y476026D01*
X229695Y480292D01*
X229695Y484908D01*
X231462Y489174D01*
X234726Y492438D01*
X237846Y493730D01*
X238992Y494205D01*
X243608Y494205D01*
X247874Y492438D01*
X251138Y489174D01*
X252905Y484908D01*
X252905Y480292D01*
X251138Y476026D01*
X247874Y472762D01*
X245495Y471777D01*
X245487Y471772D01*
X245478Y471770D01*
X245308Y471677D01*
X245140Y471586D01*
X245133Y471581D01*
X245125Y471576D01*
X244977Y471452D01*
X244829Y471330D01*
X244824Y471323D01*
X244817Y471317D01*
X244697Y471167D01*
X244576Y471017D01*
X244572Y471009D01*
X244566Y471002D01*
X244479Y470833D01*
X244389Y470661D01*
X244386Y470652D01*
X244382Y470644D01*
X244330Y470462D01*
X244276Y470274D01*
X244275Y470265D01*
X244272Y470257D01*
X244258Y470066D01*
X244241Y469873D01*
X244242Y469864D01*
X244241Y469856D01*
X244265Y469665D01*
X244286Y469473D01*
X244289Y469465D01*
X244290Y469456D01*
X244350Y469274D01*
X244409Y469090D01*
X244414Y469082D01*
X244416Y469074D01*
X244512Y468906D01*
X244606Y468738D01*
X244611Y468732D01*
X244616Y468724D01*
X244743Y468578D01*
X244867Y468433D01*
X244875Y468427D01*
X244880Y468420D01*
X245033Y468303D01*
X245185Y468184D01*
X245193Y468180D01*
X245200Y468175D01*
X245495Y468023D01*
X247874Y467038D01*
X251138Y463774D01*
X252905Y459508D01*
X252905Y454892D01*
X251138Y450626D01*
X247874Y447362D01*
X245495Y446377D01*
X245487Y446372D01*
X245478Y446370D01*
X245308Y446277D01*
X245140Y446186D01*
X245133Y446181D01*
X245125Y446176D01*
X244977Y446052D01*
X244829Y445930D01*
X244824Y445923D01*
X244817Y445917D01*
X244697Y445767D01*
X244576Y445617D01*
X244572Y445609D01*
X244566Y445602D01*
X244479Y445433D01*
X244389Y445261D01*
X244386Y445252D01*
X244382Y445244D01*
X244330Y445062D01*
X244276Y444874D01*
X244275Y444865D01*
X244272Y444857D01*
X244257Y444664D01*
X244241Y444473D01*
X244242Y444464D01*
X244241Y444456D01*
X244265Y444264D01*
X244286Y444073D01*
X244289Y444065D01*
X244290Y444056D01*
X244350Y443874D01*
X244409Y443690D01*
X244414Y443682D01*
X244416Y443674D01*
X244512Y443506D01*
X244606Y443338D01*
X244611Y443332D01*
X244616Y443324D01*
X244743Y443178D01*
X244867Y443033D01*
X244875Y443027D01*
X244880Y443020D01*
X245033Y442903D01*
X245185Y442784D01*
X245193Y442780D01*
X245200Y442775D01*
X245495Y442623D01*
X247874Y441638D01*
X248226Y441286D01*
X248247Y441269D01*
X248264Y441248D01*
X248402Y441141D01*
X248537Y441031D01*
X248561Y441018D01*
X248582Y441002D01*
X248739Y440924D01*
X248893Y440842D01*
X248919Y440834D01*
X248943Y440822D01*
X249112Y440777D01*
X249279Y440727D01*
X249306Y440725D01*
X249332Y440718D01*
X249662Y440691D01*
X363381Y440691D01*
X363407Y440693D01*
X363434Y440691D01*
X363608Y440713D01*
X363781Y440731D01*
X363807Y440738D01*
X363833Y440742D01*
X363999Y440797D01*
X364166Y440849D01*
X364190Y440862D01*
X364215Y440870D01*
X364367Y440957D01*
X364520Y441041D01*
X364541Y441058D01*
X364564Y441071D01*
X364817Y441286D01*
X365237Y441706D01*
X369532Y443485D01*
X392468Y443485D01*
X396763Y441706D01*
X400050Y438419D01*
X401829Y434124D01*
X401829Y429476D01*
X400050Y425181D01*
X396763Y421894D01*
X394548Y420977D01*
X394540Y420972D01*
X394531Y420970D01*
X394361Y420877D01*
X394193Y420786D01*
X394186Y420781D01*
X394178Y420776D01*
X394030Y420652D01*
X393882Y420530D01*
X393877Y420523D01*
X393870Y420517D01*
X393750Y420367D01*
X393629Y420217D01*
X393625Y420209D01*
X393619Y420202D01*
X393532Y420033D01*
X393442Y419861D01*
X393439Y419852D01*
X393435Y419844D01*
X393383Y419662D01*
X393329Y419474D01*
X393328Y419465D01*
X393325Y419457D01*
X393311Y419266D01*
X393294Y419073D01*
X393295Y419064D01*
X393294Y419056D01*
X393318Y418865D01*
X393339Y418673D01*
X393342Y418665D01*
X393343Y418656D01*
X393403Y418474D01*
X393462Y418290D01*
X393467Y418282D01*
X393470Y418274D01*
X393565Y418106D01*
X393659Y417938D01*
X393664Y417932D01*
X393669Y417924D01*
X393796Y417778D01*
X393921Y417633D01*
X393928Y417627D01*
X393933Y417620D01*
X394086Y417503D01*
X394238Y417384D01*
X394246Y417380D01*
X394253Y417375D01*
X394548Y417223D01*
X396763Y416306D01*
X400050Y413019D01*
X401829Y408724D01*
X401829Y404076D01*
X400050Y399781D01*
X396763Y396494D01*
X395362Y395914D01*
X394548Y395577D01*
X394540Y395572D01*
X394531Y395570D01*
X394361Y395477D01*
X394193Y395386D01*
X394186Y395381D01*
X394178Y395376D01*
X394030Y395252D01*
X393882Y395130D01*
X393877Y395123D01*
X393870Y395117D01*
X393750Y394967D01*
X393629Y394817D01*
X393625Y394809D01*
X393619Y394802D01*
X393532Y394633D01*
X393442Y394461D01*
X393439Y394452D01*
X393435Y394444D01*
X393383Y394262D01*
X393329Y394074D01*
X393328Y394065D01*
X393325Y394057D01*
X393311Y393866D01*
X393294Y393673D01*
X393295Y393664D01*
X393294Y393656D01*
X393318Y393465D01*
X393339Y393273D01*
X393342Y393265D01*
X393343Y393256D01*
X393403Y393074D01*
X393462Y392890D01*
X393467Y392882D01*
X393470Y392874D01*
X393565Y392706D01*
X393659Y392538D01*
X393664Y392532D01*
X393669Y392524D01*
X393796Y392378D01*
X393921Y392233D01*
X393928Y392227D01*
X393933Y392220D01*
X394086Y392103D01*
X394238Y391984D01*
X394246Y391980D01*
X394253Y391975D01*
X394548Y391823D01*
X396763Y390906D01*
X400050Y387619D01*
X401829Y383324D01*
X401829Y378676D01*
X400050Y374381D01*
X396763Y371094D01*
X394548Y370177D01*
X394540Y370172D01*
X394531Y370170D01*
X394361Y370077D01*
X394193Y369986D01*
X394186Y369981D01*
X394178Y369976D01*
X394030Y369852D01*
X393882Y369730D01*
X393877Y369723D01*
X393870Y369717D01*
X393750Y369567D01*
X393629Y369417D01*
X393625Y369409D01*
X393619Y369402D01*
X393532Y369233D01*
X393442Y369061D01*
X393439Y369052D01*
X393435Y369044D01*
X393383Y368862D01*
X393329Y368674D01*
X393328Y368665D01*
X393325Y368657D01*
X393311Y368466D01*
X393294Y368273D01*
X393295Y368264D01*
X393294Y368256D01*
X393318Y368065D01*
X393339Y367873D01*
X393342Y367865D01*
X393343Y367856D01*
X393403Y367674D01*
X393462Y367490D01*
X393467Y367482D01*
X393470Y367474D01*
X393565Y367306D01*
X393659Y367138D01*
X393664Y367132D01*
X393669Y367124D01*
X393796Y366978D01*
X393921Y366833D01*
X393928Y366827D01*
X393933Y366820D01*
X394086Y366703D01*
X394238Y366584D01*
X394246Y366580D01*
X394253Y366575D01*
X394548Y366423D01*
X396763Y365506D01*
X400050Y362219D01*
X401829Y357924D01*
X401829Y353276D01*
X400050Y348981D01*
X396763Y345694D01*
X394548Y344777D01*
X394540Y344772D01*
X394531Y344770D01*
X394361Y344677D01*
X394193Y344586D01*
X394186Y344581D01*
X394178Y344576D01*
X394030Y344452D01*
X393882Y344330D01*
X393877Y344323D01*
X393870Y344317D01*
X393750Y344167D01*
X393629Y344017D01*
X393625Y344009D01*
X393619Y344002D01*
X393532Y343833D01*
X393442Y343661D01*
X393439Y343652D01*
X393435Y343644D01*
X393383Y343462D01*
X393329Y343274D01*
X393328Y343265D01*
X393325Y343257D01*
X393311Y343066D01*
X393294Y342873D01*
X393295Y342864D01*
X393294Y342856D01*
X393318Y342665D01*
X393339Y342473D01*
X393342Y342465D01*
X393343Y342456D01*
X393403Y342274D01*
X393462Y342090D01*
X393467Y342082D01*
X393470Y342074D01*
X393565Y341906D01*
X393659Y341738D01*
X393664Y341732D01*
X393669Y341724D01*
X393796Y341578D01*
X393921Y341433D01*
X393928Y341427D01*
X393933Y341420D01*
X394086Y341303D01*
X394238Y341184D01*
X394246Y341180D01*
X394253Y341175D01*
X394548Y341023D01*
X396763Y340106D01*
X400050Y336819D01*
X401829Y332524D01*
X401829Y327876D01*
X400050Y323581D01*
X396763Y320294D01*
X394548Y319377D01*
X394540Y319372D01*
X394531Y319370D01*
X394361Y319277D01*
X394193Y319186D01*
X394186Y319181D01*
X394178Y319176D01*
X394030Y319052D01*
X393882Y318930D01*
X393877Y318923D01*
X393870Y318917D01*
X393750Y318767D01*
X393629Y318617D01*
X393625Y318609D01*
X393619Y318602D01*
X393532Y318433D01*
X393442Y318261D01*
X393439Y318252D01*
X393435Y318244D01*
X393383Y318062D01*
X393329Y317874D01*
X393328Y317865D01*
X393325Y317857D01*
X393311Y317666D01*
X393294Y317473D01*
X393295Y317464D01*
X393294Y317456D01*
X393318Y317265D01*
X393339Y317073D01*
X393342Y317065D01*
X393343Y317056D01*
X393403Y316874D01*
X393462Y316690D01*
X393467Y316682D01*
X393470Y316674D01*
X393565Y316506D01*
X393659Y316338D01*
X393664Y316332D01*
X393669Y316324D01*
X393796Y316178D01*
X393921Y316033D01*
X393928Y316027D01*
X393933Y316020D01*
X394086Y315903D01*
X394238Y315784D01*
X394246Y315780D01*
X394253Y315775D01*
X394548Y315623D01*
X396763Y314706D01*
X400050Y311419D01*
X401829Y307124D01*
X401829Y302476D01*
X400050Y298181D01*
X396763Y294894D01*
X394600Y293998D01*
X394521Y293956D01*
X394438Y293923D01*
X394344Y293861D01*
X394245Y293808D01*
X394176Y293751D01*
X394101Y293702D01*
X394021Y293623D01*
X393934Y293552D01*
X393878Y293482D01*
X393814Y293419D01*
X393752Y293326D01*
X393681Y293239D01*
X393639Y293160D01*
X393589Y293086D01*
X393546Y292982D01*
X393494Y292882D01*
X393469Y292797D01*
X393434Y292714D01*
X393412Y292604D01*
X393381Y292496D01*
X393373Y292407D01*
X393355Y292319D01*
X393356Y292207D01*
X393346Y292095D01*
X393356Y292006D01*
X393356Y291917D01*
X393379Y291806D01*
X393391Y291695D01*
X393418Y291610D01*
X393436Y291522D01*
X393480Y291419D01*
X393514Y291311D01*
X393558Y291233D01*
X393593Y291151D01*
X393656Y291058D01*
X393711Y290960D01*
X393769Y290892D01*
X393819Y290818D01*
X393899Y290740D01*
X393972Y290654D01*
X394043Y290599D01*
X394107Y290536D01*
X394201Y290475D01*
X394289Y290406D01*
X394369Y290366D01*
X394444Y290317D01*
X394508Y290290D01*
X396268Y289394D01*
X397756Y288313D01*
X399057Y287012D01*
X400138Y285524D01*
X400973Y283886D01*
X401541Y282136D01*
X401572Y281939D01*
X381508Y281939D01*
X381490Y281937D01*
X381473Y281939D01*
X381290Y281918D01*
X381108Y281899D01*
X381091Y281894D01*
X381073Y281892D01*
X380995Y281867D01*
X380858Y281906D01*
X380840Y281908D01*
X380823Y281912D01*
X380492Y281939D01*
X360428Y281939D01*
X360459Y282136D01*
X361027Y283886D01*
X361862Y285524D01*
X362943Y287012D01*
X364244Y288313D01*
X365732Y289394D01*
X367415Y290251D01*
X367417Y290252D01*
X367428Y290258D01*
X367513Y290301D01*
X367530Y290312D01*
X367618Y290351D01*
X367692Y290402D01*
X367770Y290445D01*
X367856Y290517D01*
X367948Y290582D01*
X368010Y290647D01*
X368078Y290704D01*
X368148Y290792D01*
X368226Y290873D01*
X368273Y290949D01*
X368329Y291019D01*
X368380Y291119D01*
X368440Y291214D01*
X368472Y291298D01*
X368513Y291377D01*
X368544Y291485D01*
X368584Y291590D01*
X368598Y291679D01*
X368623Y291765D01*
X368631Y291877D01*
X368650Y291988D01*
X368647Y292077D01*
X368654Y292166D01*
X368640Y292277D01*
X368636Y292390D01*
X368616Y292477D01*
X368605Y292566D01*
X368570Y292672D01*
X368544Y292782D01*
X368507Y292863D01*
X368479Y292948D01*
X368423Y293045D01*
X368376Y293148D01*
X368323Y293220D01*
X368279Y293298D01*
X368205Y293382D01*
X368139Y293473D01*
X368073Y293534D01*
X368015Y293601D01*
X367926Y293670D01*
X367843Y293746D01*
X367766Y293792D01*
X367695Y293847D01*
X367571Y293911D01*
X367498Y293954D01*
X367455Y293970D01*
X367400Y293998D01*
X365237Y294894D01*
X361950Y298181D01*
X361622Y298973D01*
X361612Y298993D01*
X361605Y299014D01*
X361516Y299170D01*
X361432Y299328D01*
X361418Y299345D01*
X361407Y299365D01*
X361290Y299500D01*
X361175Y299639D01*
X361158Y299653D01*
X361144Y299670D01*
X361002Y299779D01*
X360863Y299892D01*
X360843Y299903D01*
X360825Y299916D01*
X360665Y299996D01*
X360506Y300079D01*
X360485Y300086D01*
X360465Y300096D01*
X360292Y300142D01*
X360120Y300192D01*
X360098Y300194D01*
X360076Y300200D01*
X359745Y300227D01*
X294835Y300227D01*
X294809Y300225D01*
X294782Y300227D01*
X294608Y300205D01*
X294435Y300187D01*
X294409Y300180D01*
X294383Y300176D01*
X294217Y300121D01*
X294050Y300069D01*
X294026Y300056D01*
X294001Y300048D01*
X293849Y299961D01*
X293696Y299877D01*
X293675Y299860D01*
X293652Y299847D01*
X293399Y299632D01*
X253036Y259269D01*
X253021Y259252D01*
X253005Y259237D01*
X252894Y259096D01*
X252781Y258957D01*
X252770Y258938D01*
X252756Y258920D01*
X252676Y258760D01*
X252592Y258602D01*
X252586Y258580D01*
X252576Y258560D01*
X252528Y258388D01*
X252477Y258216D01*
X252475Y258194D01*
X252469Y258172D01*
X252457Y257993D01*
X252441Y257815D01*
X252443Y257793D01*
X252442Y257770D01*
X252465Y257593D01*
X252484Y257415D01*
X252491Y257393D01*
X252494Y257371D01*
X252595Y257055D01*
X252905Y256308D01*
X252905Y251692D01*
X251138Y247426D01*
X247874Y244162D01*
X245495Y243177D01*
X245487Y243172D01*
X245478Y243170D01*
X245308Y243077D01*
X245140Y242986D01*
X245133Y242981D01*
X245125Y242976D01*
X244977Y242852D01*
X244829Y242730D01*
X244824Y242723D01*
X244817Y242717D01*
X244697Y242567D01*
X244576Y242417D01*
X244572Y242409D01*
X244566Y242402D01*
X244479Y242233D01*
X244389Y242061D01*
X244386Y242052D01*
X244382Y242044D01*
X244330Y241862D01*
X244276Y241674D01*
X244275Y241665D01*
X244272Y241657D01*
X244258Y241466D01*
X244241Y241273D01*
X244242Y241264D01*
X244241Y241256D01*
X244265Y241065D01*
X244286Y240873D01*
X244289Y240865D01*
X244290Y240856D01*
X244350Y240674D01*
X244409Y240490D01*
X244414Y240482D01*
X244416Y240474D01*
X244512Y240306D01*
X244606Y240138D01*
X244611Y240132D01*
X244616Y240124D01*
X244744Y239977D01*
X244867Y239833D01*
X244875Y239827D01*
X244880Y239820D01*
X245033Y239703D01*
X245185Y239584D01*
X245193Y239580D01*
X245200Y239575D01*
X245495Y239423D01*
X247874Y238438D01*
X251138Y235174D01*
X251447Y234427D01*
X251458Y234407D01*
X251465Y234386D01*
X251553Y234230D01*
X251638Y234072D01*
X251652Y234055D01*
X251663Y234035D01*
X251780Y233899D01*
X251894Y233761D01*
X251911Y233747D01*
X251926Y233730D01*
X252067Y233621D01*
X252207Y233508D01*
X252226Y233497D01*
X252244Y233484D01*
X252404Y233404D01*
X252563Y233321D01*
X252584Y233314D01*
X252605Y233304D01*
X252778Y233258D01*
X252950Y233208D01*
X252972Y233206D01*
X252993Y233200D01*
X253324Y233173D01*
X312839Y233173D01*
X312861Y233175D01*
X312884Y233173D01*
X313061Y233195D01*
X313240Y233213D01*
X313261Y233219D01*
X313283Y233222D01*
X313453Y233278D01*
X313625Y233331D01*
X313644Y233341D01*
X313665Y233348D01*
X313821Y233437D01*
X313979Y233523D01*
X313996Y233537D01*
X314015Y233548D01*
X314150Y233665D01*
X314288Y233780D01*
X314302Y233798D01*
X314319Y233812D01*
X314428Y233954D01*
X314540Y234094D01*
X314551Y234114D01*
X314564Y234132D01*
X314716Y234427D01*
X314806Y234643D01*
X317807Y237645D01*
X321728Y239269D01*
X325972Y239269D01*
X329893Y237645D01*
X332895Y234643D01*
X334519Y230722D01*
X334519Y226478D01*
X332895Y222557D01*
X329893Y219555D01*
X325972Y217931D01*
X321728Y217931D01*
X317807Y219555D01*
X314806Y222557D01*
X314716Y222773D01*
X314705Y222793D01*
X314698Y222814D01*
X314610Y222970D01*
X314526Y223128D01*
X314511Y223145D01*
X314500Y223165D01*
X314383Y223301D01*
X314269Y223439D01*
X314252Y223453D01*
X314237Y223470D01*
X314096Y223579D01*
X313957Y223692D01*
X313937Y223703D01*
X313919Y223716D01*
X313759Y223796D01*
X313600Y223879D01*
X313579Y223886D01*
X313559Y223896D01*
X313385Y223942D01*
X313214Y223992D01*
X313191Y223994D01*
X313170Y224000D01*
X312839Y224027D01*
X253324Y224027D01*
X253302Y224025D01*
X253280Y224027D01*
X253102Y224005D01*
X252923Y223987D01*
X252902Y223981D01*
X252880Y223978D01*
X252710Y223922D01*
X252538Y223869D01*
X252519Y223859D01*
X252498Y223852D01*
X252342Y223763D01*
X252184Y223677D01*
X252167Y223663D01*
X252148Y223652D01*
X252013Y223534D01*
X251875Y223420D01*
X251861Y223402D01*
X251844Y223388D01*
X251735Y223245D01*
X251623Y223106D01*
X251613Y223086D01*
X251599Y223068D01*
X251447Y222773D01*
X251138Y222026D01*
X247874Y218762D01*
X245495Y217777D01*
X245487Y217772D01*
X245478Y217770D01*
X245308Y217677D01*
X245140Y217586D01*
X245133Y217581D01*
X245125Y217576D01*
X244977Y217452D01*
X244829Y217330D01*
X244824Y217323D01*
X244817Y217317D01*
X244697Y217167D01*
X244576Y217017D01*
X244572Y217009D01*
X244566Y217002D01*
X244479Y216833D01*
X244389Y216661D01*
X244386Y216652D01*
X244382Y216644D01*
X244330Y216462D01*
X244276Y216274D01*
X244275Y216265D01*
X244272Y216257D01*
X244258Y216066D01*
X244241Y215873D01*
X244242Y215864D01*
X244241Y215856D01*
X244265Y215665D01*
X244286Y215473D01*
X244289Y215465D01*
X244290Y215456D01*
X244350Y215274D01*
X244409Y215090D01*
X244414Y215082D01*
X244416Y215074D01*
X244512Y214906D01*
X244606Y214738D01*
X244611Y214732D01*
X244616Y214724D01*
X244743Y214578D01*
X244867Y214433D01*
X244875Y214427D01*
X244880Y214420D01*
X245033Y214303D01*
X245185Y214184D01*
X245193Y214180D01*
X245200Y214175D01*
X245495Y214023D01*
X247874Y213038D01*
X251138Y209774D01*
X251447Y209027D01*
X251458Y209007D01*
X251465Y208986D01*
X251553Y208830D01*
X251638Y208672D01*
X251652Y208655D01*
X251663Y208635D01*
X251780Y208499D01*
X251894Y208361D01*
X251911Y208347D01*
X251926Y208330D01*
X252067Y208221D01*
X252207Y208108D01*
X252226Y208097D01*
X252244Y208084D01*
X252404Y208004D01*
X252563Y207921D01*
X252584Y207914D01*
X252605Y207904D01*
X252778Y207858D01*
X252950Y207808D01*
X252972Y207806D01*
X252993Y207800D01*
X253324Y207773D01*
X281089Y207773D01*
X281111Y207775D01*
X281134Y207773D01*
X281311Y207795D01*
X281490Y207813D01*
X281511Y207819D01*
X281533Y207822D01*
X281703Y207878D01*
X281875Y207931D01*
X281894Y207941D01*
X281915Y207948D01*
X282071Y208037D01*
X282229Y208123D01*
X282246Y208137D01*
X282265Y208148D01*
X282400Y208265D01*
X282538Y208380D01*
X282552Y208398D01*
X282569Y208412D01*
X282678Y208554D01*
X282790Y208694D01*
X282801Y208714D01*
X282814Y208732D01*
X282966Y209027D01*
X283056Y209243D01*
X286057Y212245D01*
X289978Y213869D01*
X294222Y213869D01*
X298143Y212245D01*
X301145Y209243D01*
X302769Y205322D01*
X302769Y201078D01*
X301145Y197157D01*
X298143Y194155D01*
X295075Y192885D01*
X295071Y192883D01*
X295067Y192881D01*
X294894Y192788D01*
X294720Y192694D01*
X294717Y192692D01*
X294713Y192689D01*
X294564Y192565D01*
X294410Y192438D01*
X294407Y192435D01*
X294404Y192432D01*
X294281Y192279D01*
X294156Y192125D01*
X294154Y192121D01*
X294151Y192118D01*
X294061Y191943D01*
X293969Y191769D01*
X293968Y191765D01*
X293966Y191761D01*
X293911Y191571D01*
X293856Y191382D01*
X293856Y191378D01*
X293854Y191374D01*
X293838Y191176D01*
X293821Y190981D01*
X293822Y190977D01*
X293822Y190972D01*
X293845Y190775D01*
X293867Y190581D01*
X293868Y190577D01*
X293868Y190573D01*
X293931Y190382D01*
X293990Y190198D01*
X293992Y190194D01*
X293993Y190190D01*
X294091Y190017D01*
X294186Y189846D01*
X294189Y189843D01*
X294191Y189839D01*
X294320Y189690D01*
X294448Y189541D01*
X294451Y189538D01*
X294454Y189534D01*
X294609Y189415D01*
X294765Y189292D01*
X294769Y189290D01*
X294772Y189288D01*
X294949Y189200D01*
X295125Y189112D01*
X295129Y189110D01*
X295133Y189108D01*
X295326Y189057D01*
X295513Y189005D01*
X295517Y189005D01*
X295522Y189004D01*
X295852Y188977D01*
X308669Y188977D01*
X308695Y188979D01*
X308722Y188977D01*
X308896Y188999D01*
X309069Y189017D01*
X309095Y189024D01*
X309121Y189028D01*
X309287Y189083D01*
X309454Y189135D01*
X309478Y189148D01*
X309503Y189156D01*
X309655Y189243D01*
X309808Y189327D01*
X309829Y189344D01*
X309852Y189357D01*
X310105Y189572D01*
X327610Y207077D01*
X329290Y207773D01*
X359745Y207773D01*
X359768Y207775D01*
X359790Y207773D01*
X359967Y207795D01*
X360146Y207813D01*
X360167Y207819D01*
X360190Y207822D01*
X360359Y207878D01*
X360531Y207931D01*
X360551Y207941D01*
X360572Y207948D01*
X360727Y208037D01*
X360885Y208123D01*
X360902Y208137D01*
X360921Y208148D01*
X361056Y208265D01*
X361194Y208380D01*
X361208Y208398D01*
X361225Y208412D01*
X361334Y208554D01*
X361447Y208694D01*
X361457Y208714D01*
X361470Y208732D01*
X361622Y209027D01*
X361950Y209819D01*
X365237Y213106D01*
X369532Y214885D01*
X392468Y214885D01*
X396763Y213106D01*
X400050Y209819D01*
X401829Y205524D01*
X401829Y200876D01*
X400050Y196581D01*
X396763Y193294D01*
X394548Y192377D01*
X394540Y192372D01*
X394531Y192370D01*
X394362Y192277D01*
X394193Y192186D01*
X394186Y192181D01*
X394178Y192176D01*
X394031Y192053D01*
X393882Y191930D01*
X393877Y191923D01*
X393870Y191917D01*
X393749Y191766D01*
X393629Y191617D01*
X393625Y191610D01*
X393619Y191602D01*
X393530Y191429D01*
X393442Y191261D01*
X393439Y191252D01*
X393435Y191244D01*
X393382Y191058D01*
X393329Y190874D01*
X393328Y190865D01*
X393325Y190857D01*
X393311Y190666D01*
X393294Y190473D01*
X393295Y190464D01*
X393294Y190456D01*
X393318Y190264D01*
X393339Y190073D01*
X393342Y190065D01*
X393343Y190056D01*
X393403Y189873D01*
X393462Y189690D01*
X393467Y189682D01*
X393469Y189674D01*
X393565Y189507D01*
X393659Y189338D01*
X393665Y189332D01*
X393669Y189324D01*
X393795Y189180D01*
X393920Y189033D01*
X393928Y189027D01*
X393933Y189020D01*
X394086Y188903D01*
X394238Y188784D01*
X394245Y188780D01*
X394253Y188775D01*
X394548Y188623D01*
X396763Y187706D01*
X400050Y184419D01*
X401829Y180124D01*
X401829Y175476D01*
X400050Y171181D01*
X396763Y167894D01*
X394548Y166977D01*
X394540Y166972D01*
X394531Y166970D01*
X394362Y166877D01*
X394193Y166786D01*
X394186Y166781D01*
X394178Y166776D01*
X394031Y166653D01*
X393882Y166530D01*
X393877Y166523D01*
X393870Y166517D01*
X393749Y166366D01*
X393629Y166217D01*
X393625Y166210D01*
X393619Y166202D01*
X393530Y166029D01*
X393442Y165861D01*
X393439Y165852D01*
X393435Y165844D01*
X393382Y165658D01*
X393329Y165474D01*
X393328Y165465D01*
X393325Y165457D01*
X393311Y165266D01*
X393294Y165073D01*
X393295Y165064D01*
X393294Y165056D01*
X393318Y164864D01*
X393339Y164673D01*
X393342Y164665D01*
X393343Y164656D01*
X393403Y164473D01*
X393462Y164290D01*
X393467Y164282D01*
X393469Y164274D01*
X393565Y164107D01*
X393659Y163938D01*
X393665Y163932D01*
X393669Y163924D01*
X393795Y163780D01*
X393920Y163633D01*
X393928Y163627D01*
X393933Y163620D01*
X394086Y163503D01*
X394238Y163384D01*
X394245Y163380D01*
X394253Y163375D01*
X394548Y163223D01*
X396763Y162306D01*
X400050Y159019D01*
X401829Y154724D01*
X401829Y150076D01*
X400050Y145781D01*
X396763Y142494D01*
X395589Y142008D01*
X395588Y142008D01*
X394548Y141577D01*
X394540Y141572D01*
X394531Y141570D01*
X394362Y141477D01*
X394193Y141386D01*
X394186Y141381D01*
X394178Y141376D01*
X394031Y141253D01*
X393882Y141130D01*
X393877Y141123D01*
X393870Y141117D01*
X393749Y140966D01*
X393629Y140817D01*
X393625Y140810D01*
X393619Y140802D01*
X393530Y140629D01*
X393442Y140461D01*
X393439Y140452D01*
X393435Y140444D01*
X393382Y140258D01*
X393329Y140074D01*
X393328Y140065D01*
X393325Y140057D01*
X393311Y139866D01*
X393294Y139673D01*
X393295Y139664D01*
X393294Y139656D01*
X393318Y139464D01*
X393339Y139273D01*
X393342Y139265D01*
X393343Y139256D01*
X393403Y139073D01*
X393462Y138890D01*
X393467Y138882D01*
X393469Y138874D01*
X393565Y138707D01*
X393659Y138538D01*
X393665Y138532D01*
X393669Y138524D01*
X393795Y138380D01*
X393920Y138233D01*
X393928Y138227D01*
X393933Y138220D01*
X394086Y138103D01*
X394238Y137984D01*
X394245Y137980D01*
X394253Y137975D01*
X394548Y137823D01*
X396763Y136906D01*
X400050Y133619D01*
X401829Y129324D01*
X401829Y124676D01*
X400050Y120381D01*
X396763Y117094D01*
X394548Y116177D01*
X394540Y116172D01*
X394531Y116170D01*
X394362Y116077D01*
X394193Y115986D01*
X394186Y115981D01*
X394178Y115976D01*
X394031Y115853D01*
X393882Y115730D01*
X393877Y115723D01*
X393870Y115717D01*
X393749Y115566D01*
X393629Y115417D01*
X393625Y115410D01*
X393619Y115402D01*
X393530Y115229D01*
X393442Y115061D01*
X393439Y115052D01*
X393435Y115044D01*
X393382Y114858D01*
X393329Y114674D01*
X393328Y114665D01*
X393325Y114657D01*
X393311Y114466D01*
X393294Y114273D01*
X393295Y114264D01*
X393294Y114256D01*
X393318Y114064D01*
X393339Y113873D01*
X393342Y113865D01*
X393343Y113856D01*
X393403Y113673D01*
X393462Y113490D01*
X393467Y113482D01*
X393469Y113474D01*
X393565Y113307D01*
X393659Y113138D01*
X393665Y113132D01*
X393669Y113124D01*
X393795Y112980D01*
X393920Y112833D01*
X393928Y112827D01*
X393933Y112820D01*
X394086Y112703D01*
X394238Y112584D01*
X394245Y112580D01*
X394253Y112575D01*
X394548Y112423D01*
X396763Y111506D01*
X400050Y108219D01*
X401829Y103924D01*
X401829Y99276D01*
X400050Y94981D01*
X396763Y91694D01*
X394548Y90777D01*
X394540Y90772D01*
X394531Y90770D01*
X394362Y90677D01*
X394193Y90586D01*
X394186Y90581D01*
X394178Y90576D01*
X394031Y90453D01*
X393882Y90330D01*
X393877Y90323D01*
X393870Y90317D01*
X393749Y90166D01*
X393629Y90017D01*
X393625Y90010D01*
X393619Y90002D01*
X393530Y89829D01*
X393442Y89661D01*
X393439Y89652D01*
X393435Y89644D01*
X393382Y89458D01*
X393329Y89274D01*
X393328Y89265D01*
X393325Y89257D01*
X393311Y89066D01*
X393294Y88873D01*
X393295Y88864D01*
X393294Y88856D01*
X393318Y88664D01*
X393339Y88473D01*
X393342Y88465D01*
X393343Y88456D01*
X393403Y88273D01*
X393462Y88090D01*
X393467Y88082D01*
X393469Y88074D01*
X393565Y87907D01*
X393659Y87738D01*
X393665Y87732D01*
X393669Y87724D01*
X393795Y87580D01*
X393920Y87433D01*
X393928Y87427D01*
X393933Y87420D01*
X394086Y87303D01*
X394238Y87184D01*
X394245Y87180D01*
X394253Y87175D01*
X394548Y87023D01*
X396763Y86106D01*
X400050Y82819D01*
X401829Y78524D01*
X401829Y73876D01*
X400050Y69581D01*
X396763Y66294D01*
X394548Y65377D01*
X394540Y65372D01*
X394531Y65370D01*
X394362Y65277D01*
X394193Y65186D01*
X394186Y65181D01*
X394178Y65176D01*
X394031Y65053D01*
X393882Y64930D01*
X393877Y64923D01*
X393870Y64917D01*
X393749Y64766D01*
X393629Y64617D01*
X393625Y64610D01*
X393619Y64602D01*
X393530Y64429D01*
X393442Y64261D01*
X393439Y64252D01*
X393435Y64244D01*
X393382Y64057D01*
X393329Y63874D01*
X393328Y63865D01*
X393325Y63857D01*
X393311Y63666D01*
X393294Y63473D01*
X393295Y63464D01*
X393294Y63456D01*
X393318Y63264D01*
X393339Y63073D01*
X393342Y63065D01*
X393343Y63056D01*
X393403Y62873D01*
X393462Y62690D01*
X393467Y62682D01*
X393469Y62674D01*
X393565Y62507D01*
X393659Y62338D01*
X393665Y62332D01*
X393669Y62324D01*
X393795Y62180D01*
X393920Y62033D01*
X393928Y62027D01*
X393933Y62020D01*
X394086Y61903D01*
X394238Y61784D01*
X394245Y61780D01*
X394253Y61775D01*
X394548Y61623D01*
X396763Y60706D01*
X400050Y57419D01*
X401829Y53124D01*
X401829Y48476D01*
X400050Y44181D01*
X396763Y40894D01*
X395679Y40445D01*
X394600Y39998D01*
X394521Y39956D01*
X394438Y39923D01*
X394344Y39861D01*
X394245Y39808D01*
X394176Y39751D01*
X394101Y39702D01*
X394021Y39623D01*
X393934Y39552D01*
X393878Y39482D01*
X393814Y39419D01*
X393752Y39326D01*
X393681Y39239D01*
X393639Y39160D01*
X393589Y39086D01*
X393546Y38982D01*
X393494Y38882D01*
X393469Y38797D01*
X393434Y38714D01*
X393412Y38604D01*
X393381Y38496D01*
X393373Y38407D01*
X393355Y38319D01*
X393356Y38207D01*
X393346Y38095D01*
X393356Y38006D01*
X393356Y37917D01*
X393379Y37806D01*
X393391Y37695D01*
X393418Y37610D01*
X393436Y37522D01*
X393480Y37419D01*
X393514Y37311D01*
X393558Y37233D01*
X393593Y37151D01*
X393656Y37058D01*
X393711Y36960D01*
X393769Y36892D01*
X393819Y36818D01*
X393899Y36740D01*
X393972Y36654D01*
X394043Y36599D01*
X394107Y36536D01*
X394201Y36475D01*
X394289Y36406D01*
X394369Y36366D01*
X394444Y36317D01*
X394508Y36290D01*
X396268Y35394D01*
X397756Y34313D01*
X399057Y33012D01*
X400138Y31524D01*
X400973Y29886D01*
X401541Y28136D01*
X401572Y27939D01*
X381508Y27939D01*
X381490Y27937D01*
X381473Y27939D01*
X381290Y27918D01*
X381108Y27899D01*
X381091Y27894D01*
X381073Y27892D01*
X380995Y27867D01*
X380858Y27906D01*
X380840Y27908D01*
X380823Y27912D01*
X380492Y27939D01*
X360428Y27939D01*
X360459Y28136D01*
X361027Y29886D01*
X361862Y31524D01*
X362943Y33012D01*
X364244Y34313D01*
X365732Y35394D01*
X367415Y36251D01*
X367417Y36252D01*
X367428Y36258D01*
X367513Y36301D01*
X367530Y36312D01*
X367618Y36351D01*
X367692Y36402D01*
X367770Y36445D01*
X367856Y36517D01*
X367948Y36582D01*
X368010Y36647D01*
X368078Y36704D01*
X368148Y36792D01*
X368226Y36873D01*
X368273Y36949D01*
X368329Y37019D01*
X368380Y37119D01*
X368440Y37214D01*
X368472Y37298D01*
X368513Y37377D01*
X368544Y37485D01*
X368584Y37590D01*
X368598Y37679D01*
X368623Y37765D01*
X368631Y37877D01*
X368650Y37988D01*
X368647Y38077D01*
X368654Y38166D01*
X368640Y38277D01*
X368636Y38390D01*
X368616Y38477D01*
X368605Y38566D01*
X368570Y38672D01*
X368544Y38782D01*
X368507Y38863D01*
X368479Y38948D01*
X368423Y39045D01*
X368376Y39148D01*
X368323Y39220D01*
X368279Y39298D01*
X368205Y39382D01*
X368139Y39473D01*
X368073Y39534D01*
X368015Y39601D01*
X367926Y39670D01*
X367843Y39746D01*
X367766Y39792D01*
X367695Y39847D01*
X367571Y39911D01*
X367498Y39954D01*
X367455Y39970D01*
X367400Y39998D01*
X365237Y40894D01*
X361950Y44181D01*
X361622Y44973D01*
X361612Y44993D01*
X361605Y45014D01*
X361516Y45170D01*
X361432Y45328D01*
X361418Y45345D01*
X361407Y45365D01*
X361290Y45500D01*
X361175Y45639D01*
X361158Y45653D01*
X361144Y45670D01*
X361002Y45779D01*
X360863Y45892D01*
X360843Y45903D01*
X360825Y45916D01*
X360665Y45996D01*
X360506Y46079D01*
X360485Y46086D01*
X360465Y46096D01*
X360292Y46142D01*
X360120Y46192D01*
X360098Y46194D01*
X360076Y46200D01*
X359745Y46227D01*
X303111Y46227D01*
X303089Y46225D01*
X303066Y46227D01*
X302889Y46205D01*
X302710Y46187D01*
X302689Y46181D01*
X302667Y46178D01*
X302497Y46122D01*
X302325Y46069D01*
X302306Y46059D01*
X302285Y46052D01*
X302129Y45963D01*
X301971Y45877D01*
X301954Y45863D01*
X301935Y45852D01*
X301800Y45735D01*
X301662Y45620D01*
X301648Y45602D01*
X301631Y45588D01*
X301522Y45446D01*
X301410Y45306D01*
X301399Y45286D01*
X301386Y45268D01*
X301234Y44973D01*
X301144Y44757D01*
X298143Y41755D01*
X294222Y40131D01*
X289978Y40131D01*
X286057Y41755D01*
X283055Y44757D01*
X281431Y48678D01*
X281431Y52922D01*
X283055Y56843D01*
X286057Y59845D01*
X289978Y61469D01*
X294222Y61469D01*
X298143Y59845D01*
X301144Y56843D01*
X301234Y56627D01*
X301245Y56607D01*
X301252Y56586D01*
X301340Y56430D01*
X301424Y56272D01*
X301439Y56255D01*
X301450Y56235D01*
X301567Y56099D01*
X301681Y55961D01*
X301698Y55947D01*
X301713Y55930D01*
X301854Y55821D01*
X301993Y55708D01*
X302013Y55697D01*
X302031Y55684D01*
X302191Y55604D01*
X302350Y55521D01*
X302371Y55514D01*
X302391Y55504D01*
X302565Y55458D01*
X302736Y55408D01*
X302759Y55406D01*
X302780Y55400D01*
X303111Y55373D01*
X359745Y55373D01*
X359768Y55375D01*
X359790Y55373D01*
X359967Y55395D01*
X360146Y55413D01*
X360167Y55419D01*
X360190Y55422D01*
X360359Y55478D01*
X360531Y55531D01*
X360551Y55541D01*
X360572Y55548D01*
X360727Y55637D01*
X360885Y55723D01*
X360902Y55737D01*
X360921Y55748D01*
X361056Y55865D01*
X361194Y55980D01*
X361208Y55998D01*
X361225Y56012D01*
X361334Y56154D01*
X361447Y56294D01*
X361457Y56314D01*
X361470Y56332D01*
X361622Y56627D01*
X361950Y57419D01*
X365237Y60706D01*
X367452Y61623D01*
X367460Y61628D01*
X367469Y61630D01*
X367636Y61722D01*
X367807Y61814D01*
X367814Y61819D01*
X367822Y61824D01*
X367969Y61947D01*
X368118Y62070D01*
X368123Y62077D01*
X368130Y62083D01*
X368250Y62233D01*
X368371Y62383D01*
X368375Y62391D01*
X368381Y62397D01*
X368469Y62568D01*
X368558Y62739D01*
X368561Y62748D01*
X368565Y62756D01*
X368617Y62939D01*
X368671Y63125D01*
X368672Y63135D01*
X368675Y63143D01*
X368689Y63334D01*
X368706Y63527D01*
X368705Y63536D01*
X368706Y63544D01*
X368683Y63734D01*
X368661Y63927D01*
X368658Y63935D01*
X368657Y63944D01*
X368597Y64126D01*
X368538Y64310D01*
X368533Y64318D01*
X368531Y64326D01*
X368435Y64494D01*
X368341Y64661D01*
X368336Y64668D01*
X368331Y64676D01*
X368205Y64821D01*
X368080Y64967D01*
X368072Y64973D01*
X368067Y64980D01*
X367914Y65097D01*
X367763Y65216D01*
X367754Y65220D01*
X367747Y65225D01*
X367452Y65377D01*
X365237Y66294D01*
X361950Y69581D01*
X361622Y70373D01*
X361612Y70393D01*
X361605Y70414D01*
X361516Y70570D01*
X361432Y70728D01*
X361418Y70745D01*
X361407Y70765D01*
X361290Y70900D01*
X361175Y71039D01*
X361158Y71053D01*
X361144Y71070D01*
X361002Y71179D01*
X360863Y71292D01*
X360843Y71303D01*
X360825Y71316D01*
X360665Y71396D01*
X360506Y71479D01*
X360485Y71486D01*
X360465Y71496D01*
X360292Y71542D01*
X360120Y71592D01*
X360098Y71594D01*
X360076Y71600D01*
X359745Y71627D01*
X334861Y71627D01*
X334839Y71625D01*
X334816Y71627D01*
X334639Y71605D01*
X334460Y71587D01*
X334439Y71581D01*
X334417Y71578D01*
X334247Y71522D01*
X334075Y71469D01*
X334056Y71459D01*
X334035Y71452D01*
X333879Y71363D01*
X333721Y71277D01*
X333704Y71263D01*
X333685Y71252D01*
X333550Y71135D01*
X333412Y71020D01*
X333398Y71002D01*
X333381Y70988D01*
X333272Y70846D01*
X333160Y70706D01*
X333149Y70686D01*
X333136Y70668D01*
X332984Y70373D01*
X332894Y70157D01*
X329893Y67155D01*
X325972Y65531D01*
X321728Y65531D01*
X317807Y67155D01*
X314805Y70157D01*
X313181Y74078D01*
X313181Y78322D01*
X314805Y82243D01*
X317807Y85245D01*
X321728Y86869D01*
X325972Y86869D01*
X329893Y85245D01*
X332894Y82243D01*
X332984Y82027D01*
X332995Y82007D01*
X333002Y81986D01*
X333090Y81830D01*
X333174Y81672D01*
X333189Y81655D01*
X333200Y81635D01*
X333317Y81499D01*
X333431Y81361D01*
X333448Y81347D01*
X333463Y81330D01*
X333604Y81221D01*
X333743Y81108D01*
X333763Y81097D01*
X333781Y81084D01*
X333941Y81004D01*
X334100Y80921D01*
X334121Y80914D01*
X334141Y80904D01*
X334315Y80858D01*
X334486Y80808D01*
X334509Y80806D01*
X334530Y80800D01*
X334861Y80773D01*
X359745Y80773D01*
X359768Y80775D01*
X359790Y80773D01*
X359967Y80795D01*
X360146Y80813D01*
X360167Y80819D01*
X360190Y80822D01*
X360359Y80878D01*
X360531Y80931D01*
X360551Y80941D01*
X360572Y80948D01*
X360727Y81037D01*
X360885Y81123D01*
X360902Y81137D01*
X360921Y81148D01*
X361056Y81265D01*
X361194Y81380D01*
X361208Y81398D01*
X361225Y81412D01*
X361334Y81554D01*
X361447Y81694D01*
X361457Y81714D01*
X361470Y81732D01*
X361622Y82027D01*
X361950Y82819D01*
X365237Y86106D01*
X367452Y87023D01*
X367460Y87028D01*
X367469Y87030D01*
X367636Y87122D01*
X367807Y87214D01*
X367814Y87219D01*
X367822Y87224D01*
X367969Y87347D01*
X368118Y87470D01*
X368123Y87477D01*
X368130Y87483D01*
X368250Y87633D01*
X368371Y87783D01*
X368375Y87791D01*
X368381Y87797D01*
X368469Y87968D01*
X368558Y88139D01*
X368561Y88148D01*
X368565Y88156D01*
X368617Y88339D01*
X368671Y88525D01*
X368672Y88535D01*
X368675Y88543D01*
X368689Y88734D01*
X368706Y88927D01*
X368705Y88936D01*
X368706Y88944D01*
X368683Y89134D01*
X368661Y89327D01*
X368658Y89335D01*
X368657Y89344D01*
X368597Y89526D01*
X368538Y89710D01*
X368533Y89718D01*
X368531Y89726D01*
X368435Y89894D01*
X368341Y90061D01*
X368336Y90068D01*
X368331Y90076D01*
X368205Y90221D01*
X368080Y90367D01*
X368072Y90373D01*
X368067Y90380D01*
X367914Y90497D01*
X367763Y90616D01*
X367754Y90620D01*
X367747Y90625D01*
X367452Y90777D01*
X365237Y91694D01*
X361950Y94981D01*
X361622Y95773D01*
X361612Y95793D01*
X361605Y95814D01*
X361516Y95970D01*
X361432Y96128D01*
X361418Y96145D01*
X361407Y96165D01*
X361290Y96300D01*
X361175Y96439D01*
X361158Y96453D01*
X361144Y96470D01*
X361002Y96579D01*
X360863Y96692D01*
X360843Y96703D01*
X360825Y96716D01*
X360665Y96796D01*
X360506Y96879D01*
X360485Y96886D01*
X360465Y96896D01*
X360292Y96942D01*
X360120Y96992D01*
X360098Y96994D01*
X360076Y97000D01*
X359745Y97027D01*
X164190Y97027D01*
X162510Y97723D01*
X160938Y99295D01*
X53172Y207061D01*
X53165Y207067D01*
X53160Y207073D01*
X53011Y207193D01*
X52861Y207316D01*
X52853Y207320D01*
X52846Y207326D01*
X52675Y207415D01*
X52505Y207505D01*
X52497Y207507D01*
X52489Y207511D01*
X52303Y207565D01*
X52119Y207619D01*
X52110Y207620D01*
X52102Y207623D01*
X51910Y207638D01*
X51718Y207656D01*
X51709Y207655D01*
X51700Y207656D01*
X51511Y207633D01*
X51318Y207612D01*
X51309Y207610D01*
X51301Y207609D01*
X51119Y207549D01*
X50934Y207491D01*
X50926Y207487D01*
X50918Y207484D01*
X50749Y207389D01*
X50582Y207296D01*
X50575Y207290D01*
X50567Y207286D01*
X50421Y207160D01*
X50275Y207036D01*
X50269Y207029D01*
X50262Y207023D01*
X50145Y206871D01*
X50025Y206720D01*
X50021Y206712D01*
X50016Y206705D01*
X49930Y206533D01*
X49843Y206361D01*
X49840Y206352D01*
X49836Y206344D01*
X49786Y206158D01*
X49735Y205973D01*
X49734Y205964D01*
X49732Y205955D01*
X49705Y205625D01*
X49705Y200892D01*
X47938Y196626D01*
X44674Y193362D01*
X43290Y192789D01*
X40408Y191595D01*
X35792Y191595D01*
X31526Y193362D01*
X28262Y196626D01*
X26495Y200892D01*
X26495Y205508D01*
X28262Y209774D01*
X31526Y213038D01*
X33905Y214023D01*
X33913Y214028D01*
X33922Y214030D01*
X34092Y214123D01*
X34260Y214214D01*
X34267Y214219D01*
X34275Y214224D01*
X34423Y214348D01*
X34571Y214470D01*
X34576Y214477D01*
X34583Y214483D01*
X34703Y214633D01*
X34824Y214783D01*
X34828Y214791D01*
X34834Y214798D01*
X34921Y214967D01*
X35011Y215139D01*
X35014Y215148D01*
X35018Y215156D01*
X35070Y215338D01*
X35124Y215526D01*
X35125Y215535D01*
X35128Y215543D01*
X35142Y215734D01*
X35159Y215927D01*
X35158Y215936D01*
X35159Y215944D01*
X35135Y216135D01*
X35114Y216327D01*
X35111Y216335D01*
X35110Y216344D01*
X35050Y216526D01*
X34991Y216710D01*
X34986Y216718D01*
X34984Y216726D01*
X34888Y216894D01*
X34794Y217062D01*
X34789Y217068D01*
X34784Y217076D01*
X34657Y217222D01*
X34533Y217367D01*
X34525Y217373D01*
X34520Y217380D01*
X34367Y217497D01*
X34215Y217616D01*
X34207Y217620D01*
X34200Y217625D01*
X33905Y217777D01*
X31526Y218762D01*
X28262Y222026D01*
X26495Y226292D01*
X26495Y230908D01*
X28262Y235174D01*
X31526Y238438D01*
X33905Y239423D01*
X33913Y239428D01*
X33922Y239430D01*
X34092Y239523D01*
X34260Y239614D01*
X34267Y239619D01*
X34275Y239624D01*
X34423Y239748D01*
X34571Y239870D01*
X34576Y239877D01*
X34583Y239883D01*
X34703Y240033D01*
X34824Y240183D01*
X34828Y240191D01*
X34834Y240198D01*
X34921Y240367D01*
X35011Y240539D01*
X35014Y240548D01*
X35018Y240556D01*
X35070Y240738D01*
X35124Y240926D01*
X35125Y240935D01*
X35128Y240943D01*
X35142Y241134D01*
X35159Y241327D01*
X35158Y241336D01*
X35159Y241344D01*
X35135Y241535D01*
X35114Y241727D01*
X35111Y241735D01*
X35110Y241744D01*
X35050Y241926D01*
X34991Y242110D01*
X34986Y242118D01*
X34984Y242126D01*
X34888Y242294D01*
X34794Y242462D01*
X34789Y242468D01*
X34784Y242476D01*
X34657Y242622D01*
X34533Y242767D01*
X34525Y242773D01*
X34520Y242780D01*
X34367Y242897D01*
X34215Y243016D01*
X34207Y243020D01*
X34200Y243025D01*
X33905Y243177D01*
X31526Y244162D01*
X28262Y247426D01*
X26495Y251692D01*
X26495Y256308D01*
X28262Y260574D01*
X31526Y263838D01*
X32397Y264199D01*
X33905Y264823D01*
X33913Y264828D01*
X33922Y264830D01*
X34092Y264923D01*
X34260Y265014D01*
X34267Y265019D01*
X34275Y265024D01*
X34423Y265148D01*
X34571Y265270D01*
X34576Y265277D01*
X34583Y265283D01*
X34703Y265433D01*
X34824Y265583D01*
X34828Y265591D01*
X34834Y265598D01*
X34921Y265767D01*
X35011Y265939D01*
X35014Y265948D01*
X35018Y265956D01*
X35070Y266138D01*
X35124Y266326D01*
X35125Y266335D01*
X35128Y266343D01*
X35142Y266534D01*
X35159Y266727D01*
X35158Y266736D01*
X35159Y266744D01*
X35136Y266934D01*
X35114Y267127D01*
X35111Y267135D01*
X35110Y267144D01*
X35050Y267326D01*
X34991Y267510D01*
X34986Y267518D01*
X34984Y267526D01*
X34888Y267694D01*
X34794Y267862D01*
X34789Y267868D01*
X34784Y267876D01*
X34657Y268022D01*
X34533Y268167D01*
X34525Y268173D01*
X34520Y268180D01*
X34367Y268297D01*
X34215Y268416D01*
X34207Y268420D01*
X34200Y268425D01*
X33905Y268577D01*
X31526Y269562D01*
X28262Y272826D01*
X26495Y277092D01*
X26495Y281708D01*
X28262Y285974D01*
X31526Y289238D01*
X33905Y290223D01*
X33913Y290228D01*
X33922Y290230D01*
X34092Y290323D01*
X34260Y290414D01*
X34267Y290419D01*
X34275Y290424D01*
X34423Y290548D01*
X34571Y290670D01*
X34576Y290677D01*
X34583Y290683D01*
X34703Y290833D01*
X34824Y290983D01*
X34828Y290991D01*
X34834Y290998D01*
X34921Y291167D01*
X35011Y291339D01*
X35014Y291348D01*
X35018Y291356D01*
X35070Y291538D01*
X35124Y291726D01*
X35125Y291735D01*
X35128Y291743D01*
X35142Y291934D01*
X35159Y292127D01*
X35158Y292136D01*
X35159Y292144D01*
X35135Y292335D01*
X35114Y292527D01*
X35111Y292535D01*
X35110Y292544D01*
X35051Y292723D01*
X34991Y292910D01*
X34986Y292918D01*
X34984Y292926D01*
X34888Y293094D01*
X34794Y293262D01*
X34789Y293268D01*
X34784Y293276D01*
X34657Y293422D01*
X34533Y293567D01*
X34525Y293573D01*
X34520Y293580D01*
X34368Y293696D01*
X34215Y293816D01*
X34207Y293820D01*
X34200Y293825D01*
X33905Y293977D01*
X31526Y294962D01*
X28262Y298226D01*
X26495Y302492D01*
X26495Y307108D01*
X28262Y311374D01*
X31526Y314638D01*
X33905Y315623D01*
X33913Y315628D01*
X33922Y315630D01*
X34091Y315723D01*
X34260Y315814D01*
X34267Y315819D01*
X34275Y315824D01*
X34422Y315947D01*
X34571Y316070D01*
X34576Y316077D01*
X34583Y316083D01*
X34704Y316234D01*
X34824Y316383D01*
X34828Y316390D01*
X34834Y316398D01*
X34923Y316571D01*
X35011Y316739D01*
X35014Y316748D01*
X35018Y316756D01*
X35071Y316942D01*
X35124Y317126D01*
X35125Y317135D01*
X35128Y317143D01*
X35142Y317334D01*
X35159Y317527D01*
X35158Y317536D01*
X35159Y317544D01*
X35135Y317736D01*
X35114Y317927D01*
X35111Y317935D01*
X35110Y317944D01*
X35050Y318127D01*
X34991Y318310D01*
X34986Y318318D01*
X34984Y318326D01*
X34888Y318493D01*
X34794Y318662D01*
X34789Y318668D01*
X34784Y318676D01*
X34659Y318820D01*
X34533Y318967D01*
X34525Y318973D01*
X34520Y318980D01*
X34367Y319097D01*
X34216Y319216D01*
X34208Y319220D01*
X34200Y319225D01*
X33905Y319377D01*
X31526Y320362D01*
X28262Y323626D01*
X26495Y327892D01*
X26495Y332508D01*
X28262Y336774D01*
X31526Y340038D01*
X33905Y341023D01*
X33913Y341028D01*
X33922Y341030D01*
X34091Y341123D01*
X34260Y341214D01*
X34267Y341219D01*
X34275Y341224D01*
X34422Y341347D01*
X34571Y341470D01*
X34576Y341477D01*
X34583Y341483D01*
X34704Y341634D01*
X34824Y341783D01*
X34828Y341790D01*
X34834Y341798D01*
X34923Y341971D01*
X35011Y342139D01*
X35014Y342148D01*
X35018Y342156D01*
X35071Y342342D01*
X35124Y342526D01*
X35125Y342535D01*
X35128Y342543D01*
X35142Y342734D01*
X35159Y342927D01*
X35158Y342936D01*
X35159Y342944D01*
X35135Y343136D01*
X35114Y343327D01*
X35111Y343335D01*
X35110Y343344D01*
X35050Y343527D01*
X34991Y343710D01*
X34986Y343718D01*
X34984Y343726D01*
X34888Y343893D01*
X34794Y344062D01*
X34789Y344068D01*
X34784Y344076D01*
X34659Y344220D01*
X34533Y344367D01*
X34525Y344373D01*
X34520Y344380D01*
X34367Y344497D01*
X34216Y344616D01*
X34208Y344620D01*
X34200Y344625D01*
X33905Y344777D01*
X31526Y345762D01*
X28262Y349026D01*
X26495Y353292D01*
X26495Y357908D01*
X28262Y362174D01*
X31526Y365438D01*
X33905Y366423D01*
X33913Y366428D01*
X33922Y366430D01*
X34091Y366523D01*
X34260Y366614D01*
X34267Y366619D01*
X34275Y366624D01*
X34422Y366747D01*
X34571Y366870D01*
X34576Y366877D01*
X34583Y366883D01*
X34704Y367034D01*
X34824Y367183D01*
X34828Y367190D01*
X34834Y367198D01*
X34923Y367371D01*
X35011Y367539D01*
X35014Y367548D01*
X35018Y367556D01*
X35071Y367742D01*
X35124Y367926D01*
X35125Y367935D01*
X35128Y367943D01*
X35142Y368134D01*
X35159Y368327D01*
X35158Y368336D01*
X35159Y368344D01*
X35135Y368536D01*
X35114Y368727D01*
X35111Y368735D01*
X35110Y368744D01*
X35050Y368927D01*
X34991Y369110D01*
X34986Y369118D01*
X34984Y369126D01*
X34888Y369293D01*
X34794Y369462D01*
X34789Y369468D01*
X34784Y369476D01*
X34659Y369620D01*
X34533Y369767D01*
X34525Y369773D01*
X34520Y369780D01*
X34367Y369897D01*
X34216Y370016D01*
X34208Y370020D01*
X34200Y370025D01*
X33905Y370177D01*
X31526Y371162D01*
X28262Y374426D01*
X26495Y378692D01*
X26495Y383308D01*
X28262Y387574D01*
X31526Y390838D01*
X33905Y391823D01*
X33913Y391828D01*
X33922Y391830D01*
X34091Y391923D01*
X34260Y392014D01*
X34267Y392019D01*
X34275Y392024D01*
X34422Y392147D01*
X34571Y392270D01*
X34576Y392277D01*
X34583Y392283D01*
X34704Y392434D01*
X34824Y392583D01*
X34828Y392590D01*
X34834Y392598D01*
X34923Y392771D01*
X35011Y392939D01*
X35014Y392948D01*
X35018Y392956D01*
X35071Y393142D01*
X35124Y393326D01*
X35125Y393335D01*
X35128Y393343D01*
X35142Y393534D01*
X35159Y393727D01*
X35158Y393736D01*
X35159Y393744D01*
X35135Y393936D01*
X35114Y394127D01*
X35111Y394135D01*
X35110Y394144D01*
X35050Y394327D01*
X34991Y394510D01*
X34986Y394518D01*
X34984Y394526D01*
X34888Y394693D01*
X34794Y394862D01*
X34789Y394868D01*
X34784Y394876D01*
X34659Y395020D01*
X34533Y395167D01*
X34525Y395173D01*
X34520Y395180D01*
X34367Y395297D01*
X34216Y395416D01*
X34208Y395420D01*
X34200Y395425D01*
X33905Y395577D01*
X31526Y396562D01*
X28262Y399826D01*
X26495Y404092D01*
X26495Y408708D01*
X28262Y412974D01*
X31526Y416238D01*
X33905Y417223D01*
X33913Y417228D01*
X33922Y417230D01*
X34091Y417323D01*
X34260Y417414D01*
X34267Y417419D01*
X34275Y417424D01*
X34422Y417547D01*
X34571Y417670D01*
X34576Y417677D01*
X34583Y417683D01*
X34704Y417834D01*
X34824Y417983D01*
X34828Y417990D01*
X34834Y417998D01*
X34923Y418171D01*
X35011Y418339D01*
X35014Y418348D01*
X35018Y418356D01*
X35071Y418542D01*
X35124Y418726D01*
X35125Y418735D01*
X35128Y418743D01*
X35142Y418934D01*
X35159Y419127D01*
X35158Y419136D01*
X35159Y419144D01*
X35135Y419336D01*
X35114Y419527D01*
X35111Y419535D01*
X35110Y419544D01*
X35050Y419727D01*
X34991Y419910D01*
X34986Y419918D01*
X34984Y419926D01*
X34888Y420093D01*
X34794Y420262D01*
X34789Y420268D01*
X34784Y420276D01*
X34659Y420420D01*
X34533Y420567D01*
X34525Y420573D01*
X34520Y420580D01*
X34367Y420697D01*
X34216Y420816D01*
X34208Y420820D01*
X34200Y420825D01*
X33905Y420977D01*
X31526Y421962D01*
X28262Y425226D01*
X26495Y429492D01*
X26495Y434108D01*
X28262Y438374D01*
X31526Y441638D01*
X33905Y442623D01*
X33913Y442628D01*
X33922Y442630D01*
X34091Y442723D01*
X34260Y442814D01*
X34267Y442819D01*
X34275Y442824D01*
X34422Y442947D01*
X34571Y443070D01*
X34576Y443077D01*
X34583Y443083D01*
X34704Y443234D01*
X34824Y443383D01*
X34828Y443390D01*
X34834Y443398D01*
X34923Y443571D01*
X35011Y443739D01*
X35014Y443748D01*
X35018Y443756D01*
X35071Y443942D01*
X35124Y444126D01*
X35125Y444135D01*
X35128Y444143D01*
X35142Y444334D01*
X35159Y444527D01*
X35158Y444536D01*
X35159Y444544D01*
X35135Y444736D01*
X35114Y444927D01*
X35111Y444935D01*
X35110Y444944D01*
X35050Y445127D01*
X34991Y445310D01*
X34986Y445318D01*
X34984Y445326D01*
X34888Y445493D01*
X34794Y445662D01*
X34789Y445668D01*
X34784Y445676D01*
X34659Y445820D01*
X34533Y445967D01*
X34525Y445973D01*
X34520Y445980D01*
X34367Y446097D01*
X34216Y446216D01*
X34208Y446220D01*
X34200Y446225D01*
X33905Y446377D01*
X31526Y447362D01*
X28262Y450626D01*
X26495Y454892D01*
X26495Y459508D01*
X28262Y463774D01*
X31526Y467038D01*
X32216Y467324D01*
X33905Y468023D01*
X33913Y468028D01*
X33922Y468030D01*
X34091Y468123D01*
X34260Y468214D01*
X34267Y468219D01*
X34275Y468224D01*
X34422Y468347D01*
X34571Y468470D01*
X34576Y468477D01*
X34583Y468483D01*
X34704Y468634D01*
X34824Y468783D01*
X34828Y468790D01*
X34834Y468798D01*
X34923Y468971D01*
X35011Y469139D01*
X35014Y469148D01*
X35018Y469156D01*
X35071Y469342D01*
X35124Y469526D01*
X35125Y469535D01*
X35128Y469543D01*
X35142Y469734D01*
X35159Y469927D01*
X35158Y469936D01*
X35159Y469944D01*
X35135Y470136D01*
X35114Y470327D01*
X35111Y470335D01*
X35110Y470344D01*
X35050Y470527D01*
X34991Y470710D01*
X34986Y470718D01*
X34984Y470726D01*
X34888Y470893D01*
X34794Y471062D01*
X34789Y471068D01*
X34784Y471076D01*
X34659Y471220D01*
X34533Y471367D01*
X34525Y471373D01*
X34520Y471380D01*
X34367Y471497D01*
X34216Y471616D01*
X34208Y471620D01*
X34200Y471625D01*
X33905Y471777D01*
X31526Y472762D01*
X28262Y476026D01*
X26495Y480292D01*
X26495Y484908D01*
X28262Y489174D01*
X31526Y492438D01*
X33875Y493411D01*
X33953Y493453D01*
X34036Y493486D01*
X34131Y493548D01*
X34230Y493601D01*
X34299Y493658D01*
X34373Y493706D01*
X34453Y493786D01*
X34541Y493858D01*
X34596Y493926D01*
X34660Y493989D01*
X34723Y494082D01*
X34794Y494170D01*
X34835Y494249D01*
X34885Y494322D01*
X34929Y494427D01*
X34981Y494527D01*
X35006Y494612D01*
X35040Y494694D01*
X35063Y494804D01*
X35094Y494913D01*
X35102Y495002D01*
X35119Y495089D01*
X35119Y495202D01*
X35129Y495314D01*
X35119Y495402D01*
X35119Y495491D01*
X35097Y495602D01*
X35084Y495714D01*
X35057Y495799D01*
X35039Y495886D01*
X34995Y495990D01*
X34961Y496098D01*
X34917Y496175D01*
X34883Y496257D01*
X34819Y496350D01*
X34764Y496449D01*
X34707Y496517D01*
X34657Y496590D01*
X34576Y496669D01*
X34503Y496755D01*
X34433Y496810D01*
X34369Y496872D01*
X34275Y496933D01*
X34186Y497003D01*
X34106Y497043D01*
X34032Y497091D01*
X33901Y497146D01*
X33826Y497184D01*
X33781Y497196D01*
X33726Y497219D01*
X33645Y497245D01*
X32018Y498075D01*
X30540Y499148D01*
X29248Y500440D01*
X28175Y501918D01*
X27346Y503545D01*
X26781Y505283D01*
X26746Y505501D01*
X37632Y505501D01*
X37650Y505502D01*
X37667Y505501D01*
X37850Y505522D01*
X38032Y505541D01*
X38049Y505546D01*
X38067Y505548D01*
X38108Y505561D01*
X38202Y505534D01*
X38220Y505532D01*
X38237Y505528D01*
X38568Y505501D01*
X49454Y505501D01*
X49419Y505283D01*
X48854Y503545D01*
X48025Y501918D01*
X46952Y500440D01*
X45660Y499148D01*
X44182Y498075D01*
X42555Y497245D01*
X42474Y497219D01*
X42393Y497184D01*
X42308Y497157D01*
X42209Y497103D01*
X42106Y497058D01*
X42033Y497007D01*
X41955Y496964D01*
X41869Y496891D01*
X41776Y496826D01*
X41715Y496762D01*
X41647Y496705D01*
X41576Y496616D01*
X41499Y496535D01*
X41451Y496460D01*
X41396Y496390D01*
X41344Y496289D01*
X41284Y496194D01*
X41253Y496111D01*
X41212Y496032D01*
X41181Y495923D01*
X41141Y495818D01*
X41127Y495730D01*
X41102Y495645D01*
X41094Y495532D01*
X41075Y495420D01*
X41078Y495331D01*
X41071Y495243D01*
X41085Y495131D01*
X41089Y495018D01*
X41109Y494931D01*
X41120Y494843D01*
X41155Y494736D01*
X41181Y494626D01*
X41219Y494545D01*
X41246Y494461D01*
X41302Y494363D01*
X41350Y494260D01*
X41402Y494189D01*
X41446Y494111D01*
X41520Y494026D01*
X41587Y493935D01*
X41652Y493875D01*
X41710Y493808D01*
X41800Y493739D01*
X41883Y493663D01*
X41959Y493617D01*
X42030Y493562D01*
X42155Y493498D01*
X42228Y493454D01*
X42271Y493438D01*
X42325Y493411D01*
X44674Y492438D01*
X47938Y489174D01*
X49705Y484908D01*
X49705Y480292D01*
X47938Y476026D01*
X44674Y472762D01*
X42295Y471777D01*
X42287Y471772D01*
X42278Y471770D01*
X42111Y471678D01*
X41940Y471586D01*
X41933Y471581D01*
X41925Y471576D01*
X41778Y471453D01*
X41629Y471330D01*
X41624Y471323D01*
X41617Y471317D01*
X41497Y471167D01*
X41376Y471017D01*
X41372Y471009D01*
X41366Y471003D01*
X41278Y470832D01*
X41189Y470661D01*
X41186Y470652D01*
X41182Y470644D01*
X41130Y470461D01*
X41076Y470275D01*
X41075Y470265D01*
X41072Y470257D01*
X41058Y470066D01*
X41041Y469873D01*
X41042Y469864D01*
X41041Y469856D01*
X41064Y469666D01*
X41086Y469473D01*
X41089Y469465D01*
X41090Y469456D01*
X41150Y469276D01*
X41209Y469090D01*
X41214Y469082D01*
X41216Y469074D01*
X41311Y468908D01*
X41406Y468739D01*
X41411Y468732D01*
X41416Y468724D01*
X41542Y468579D01*
X41667Y468433D01*
X41674Y468427D01*
X41680Y468420D01*
X41833Y468303D01*
X41984Y468184D01*
X41992Y468180D01*
X42000Y468175D01*
X42295Y468023D01*
X44674Y467038D01*
X47938Y463774D01*
X49705Y459508D01*
X49705Y454775D01*
X49706Y454767D01*
X49705Y454758D01*
X49726Y454564D01*
X49745Y454375D01*
X49747Y454366D01*
X49748Y454357D01*
X49807Y454173D01*
X49863Y453990D01*
X49867Y453982D01*
X49870Y453974D01*
X49963Y453805D01*
X50055Y453636D01*
X50060Y453629D01*
X50065Y453621D01*
X50189Y453474D01*
X50312Y453327D01*
X50319Y453321D01*
X50325Y453314D01*
X50477Y453194D01*
X50626Y453074D01*
X50634Y453070D01*
X50641Y453065D01*
X50814Y452977D01*
X50983Y452889D01*
X50992Y452886D01*
X51000Y452882D01*
X51186Y452830D01*
X51370Y452777D01*
X51379Y452777D01*
X51388Y452774D01*
X51581Y452760D01*
X51772Y452744D01*
X51780Y452745D01*
X51789Y452745D01*
X51982Y452769D01*
X52171Y452791D01*
X52180Y452794D01*
X52189Y452795D01*
X52371Y452856D01*
X52554Y452916D01*
X52562Y452921D01*
X52570Y452923D01*
X52737Y453020D01*
X52905Y453114D01*
X52912Y453120D01*
X52919Y453124D01*
X53172Y453339D01*
X237138Y637305D01*
X238710Y638877D01*
X240390Y639573D01*
X359745Y639573D01*
X359768Y639575D01*
X359790Y639573D01*
X359967Y639595D01*
X360146Y639613D01*
X360167Y639619D01*
X360190Y639622D01*
X360359Y639678D01*
X360531Y639731D01*
X360551Y639741D01*
X360572Y639748D01*
X360727Y639837D01*
X360885Y639923D01*
X360902Y639937D01*
X360921Y639948D01*
X361056Y640065D01*
X361194Y640180D01*
X361208Y640198D01*
X361225Y640212D01*
X361334Y640354D01*
X361447Y640494D01*
X361457Y640514D01*
X361470Y640532D01*
X361622Y640827D01*
X361950Y641619D01*
X365237Y644906D01*
X367452Y645823D01*
X367460Y645828D01*
X367469Y645830D01*
X367637Y645922D01*
X367807Y646014D01*
X367814Y646019D01*
X367822Y646024D01*
X367968Y646147D01*
X368117Y646270D01*
X368123Y646277D01*
X368130Y646283D01*
X368250Y646433D01*
X368371Y646583D01*
X368375Y646591D01*
X368381Y646597D01*
X368469Y646768D01*
X368558Y646939D01*
X368561Y646948D01*
X368565Y646956D01*
X368617Y647140D01*
X368671Y647326D01*
X368672Y647334D01*
X368675Y647343D01*
X368689Y647534D01*
X368706Y647727D01*
X368705Y647736D01*
X368706Y647744D01*
X368683Y647934D01*
X368661Y648127D01*
X368658Y648135D01*
X368657Y648144D01*
X368597Y648326D01*
X368538Y648510D01*
X368533Y648518D01*
X368531Y648526D01*
X368435Y648694D01*
X368341Y648862D01*
X368336Y648868D01*
X368331Y648876D01*
X368205Y649021D01*
X368079Y649167D01*
X368072Y649173D01*
X368067Y649180D01*
X367913Y649297D01*
X367762Y649416D01*
X367755Y649420D01*
X367747Y649425D01*
X367452Y649577D01*
X365237Y650494D01*
X362531Y653200D01*
X362510Y653217D01*
X362493Y653238D01*
X362355Y653345D01*
X362219Y653455D01*
X362196Y653468D01*
X362175Y653484D01*
X362018Y653562D01*
X361864Y653644D01*
X361838Y653652D01*
X361814Y653664D01*
X361645Y653709D01*
X361478Y653759D01*
X361451Y653761D01*
X361425Y653768D01*
X361095Y653795D01*
X219477Y653795D01*
X219451Y653793D01*
X219424Y653795D01*
X219250Y653773D01*
X219077Y653755D01*
X219051Y653748D01*
X219024Y653744D01*
X218859Y653689D01*
X218692Y653637D01*
X218668Y653624D01*
X218643Y653616D01*
X218491Y653529D01*
X218338Y653445D01*
X218317Y653428D01*
X218294Y653415D01*
X218041Y653200D01*
X118041Y553201D01*
X115614Y552195D01*
X48748Y552195D01*
X48722Y552193D01*
X48695Y552195D01*
X48521Y552173D01*
X48348Y552155D01*
X48322Y552148D01*
X48295Y552144D01*
X48130Y552088D01*
X47963Y552037D01*
X47939Y552024D01*
X47914Y552016D01*
X47763Y551929D01*
X47609Y551845D01*
X47588Y551828D01*
X47565Y551815D01*
X47312Y551600D01*
X44674Y548962D01*
X42295Y547977D01*
X42287Y547972D01*
X42278Y547970D01*
X42111Y547878D01*
X41940Y547786D01*
X41933Y547781D01*
X41925Y547776D01*
X41778Y547653D01*
X41629Y547530D01*
X41624Y547523D01*
X41617Y547517D01*
X41497Y547367D01*
X41376Y547217D01*
X41372Y547209D01*
X41366Y547203D01*
X41278Y547032D01*
X41189Y546861D01*
X41186Y546852D01*
X41182Y546844D01*
X41130Y546661D01*
X41076Y546475D01*
X41075Y546465D01*
X41072Y546457D01*
X41058Y546266D01*
X41041Y546073D01*
X41042Y546064D01*
X41041Y546056D01*
X41064Y545866D01*
X41086Y545673D01*
X41089Y545665D01*
X41090Y545656D01*
X41150Y545476D01*
X41209Y545290D01*
X41214Y545282D01*
X41216Y545274D01*
X41311Y545108D01*
X41406Y544939D01*
X41411Y544932D01*
X41416Y544924D01*
X41542Y544779D01*
X41667Y544633D01*
X41674Y544627D01*
X41680Y544620D01*
X41833Y544503D01*
X41984Y544384D01*
X41992Y544380D01*
X42000Y544375D01*
X42295Y544223D01*
X44674Y543238D01*
X47938Y539974D01*
X49705Y535708D01*
X49705Y531092D01*
X47938Y526826D01*
X44674Y523562D01*
X42325Y522589D01*
X42247Y522547D01*
X42164Y522514D01*
X42069Y522452D01*
X41970Y522399D01*
X41901Y522342D01*
X41827Y522294D01*
X41747Y522214D01*
X41659Y522142D01*
X41604Y522074D01*
X41540Y522011D01*
X41477Y521918D01*
X41406Y521830D01*
X41365Y521751D01*
X41315Y521678D01*
X41271Y521573D01*
X41219Y521473D01*
X41194Y521388D01*
X41160Y521306D01*
X41137Y521196D01*
X41106Y521087D01*
X41098Y520998D01*
X41081Y520911D01*
X41081Y520798D01*
X41071Y520686D01*
X41081Y520598D01*
X41081Y520509D01*
X41103Y520398D01*
X41116Y520286D01*
X41143Y520201D01*
X41161Y520114D01*
X41205Y520010D01*
X41239Y519902D01*
X41283Y519825D01*
X41317Y519743D01*
X41381Y519650D01*
X41436Y519551D01*
X41493Y519483D01*
X41543Y519410D01*
X41624Y519331D01*
X41697Y519245D01*
X41767Y519190D01*
X41831Y519128D01*
X41925Y519067D01*
X42014Y518997D01*
X42094Y518957D01*
X42168Y518909D01*
X42299Y518854D01*
X42374Y518816D01*
X42419Y518804D01*
X42474Y518781D01*
X42555Y518755D01*
X44182Y517925D01*
X45660Y516852D01*
X46952Y515560D01*
X48025Y514082D01*
X48854Y512455D01*
X49419Y510717D01*
X49454Y510499D01*
X38568Y510499D01*
X38550Y510497D01*
X38533Y510499D01*
X38350Y510478D01*
X38168Y510459D01*
X38151Y510454D01*
X38133Y510452D01*
X38092Y510439D01*
X37998Y510466D01*
X37980Y510468D01*
X37963Y510472D01*
X37632Y510499D01*
X26746Y510499D01*
X26781Y510717D01*
X27346Y512455D01*
X28175Y514082D01*
X29248Y515560D01*
X30540Y516852D01*
X32018Y517925D01*
X33645Y518755D01*
X33726Y518781D01*
X33807Y518816D01*
X33892Y518843D01*
X33991Y518897D01*
X34094Y518942D01*
X34167Y518993D01*
X34245Y519036D01*
X34331Y519109D01*
X34424Y519174D01*
X34485Y519238D01*
X34553Y519295D01*
X34624Y519384D01*
X34701Y519465D01*
X34749Y519540D01*
X34804Y519610D01*
X34856Y519711D01*
X34916Y519806D01*
X34947Y519889D01*
X34988Y519968D01*
X35019Y520077D01*
X35059Y520182D01*
X35073Y520270D01*
X35098Y520355D01*
X35106Y520468D01*
X35125Y520580D01*
X35122Y520669D01*
X35129Y520757D01*
X35115Y520869D01*
X35111Y520982D01*
X35091Y521069D01*
X35080Y521157D01*
X35045Y521264D01*
X35019Y521374D01*
X34981Y521455D01*
X34954Y521539D01*
X34898Y521637D01*
X34850Y521740D01*
X34798Y521811D01*
X34754Y521889D01*
X34680Y521974D01*
X34613Y522065D01*
X34548Y522125D01*
X34490Y522192D01*
X34400Y522261D01*
X34317Y522337D01*
X34241Y522383D01*
X34170Y522438D01*
X34045Y522502D01*
X33972Y522546D01*
X33929Y522562D01*
X33875Y522589D01*
X31526Y523562D01*
X28262Y526826D01*
X26495Y531092D01*
X26495Y535708D01*
X28262Y539974D01*
X31526Y543238D01*
X33905Y544223D01*
X33913Y544228D01*
X33922Y544230D01*
X34091Y544323D01*
X34260Y544414D01*
X34267Y544419D01*
X34275Y544424D01*
X34422Y544547D01*
X34571Y544670D01*
X34576Y544677D01*
X34583Y544683D01*
X34704Y544834D01*
X34824Y544983D01*
X34828Y544990D01*
X34834Y544998D01*
X34923Y545171D01*
X35011Y545339D01*
X35014Y545348D01*
X35018Y545356D01*
X35071Y545542D01*
X35124Y545726D01*
X35125Y545735D01*
X35128Y545743D01*
X35142Y545934D01*
X35159Y546127D01*
X35158Y546136D01*
X35159Y546144D01*
X35135Y546336D01*
X35114Y546527D01*
X35111Y546535D01*
X35110Y546544D01*
X35050Y546727D01*
X34991Y546910D01*
X34986Y546918D01*
X34984Y546926D01*
X34888Y547093D01*
X34794Y547262D01*
X34789Y547268D01*
X34784Y547276D01*
X34659Y547420D01*
X34533Y547567D01*
X34525Y547573D01*
X34520Y547580D01*
X34367Y547697D01*
X34216Y547816D01*
X34208Y547820D01*
X34200Y547825D01*
X33905Y547977D01*
X31526Y548962D01*
X28262Y552226D01*
X26495Y556492D01*
X26495Y561108D01*
X28262Y565374D01*
X31526Y568638D01*
X32126Y568886D01*
X33905Y569623D01*
X33913Y569628D01*
X33922Y569630D01*
X34091Y569723D01*
X34260Y569814D01*
X34267Y569819D01*
X34275Y569824D01*
X34422Y569947D01*
X34571Y570070D01*
X34576Y570077D01*
X34583Y570083D01*
X34704Y570234D01*
X34824Y570383D01*
X34828Y570390D01*
X34834Y570398D01*
X34923Y570571D01*
X35011Y570739D01*
X35014Y570748D01*
X35018Y570756D01*
X35071Y570942D01*
X35124Y571126D01*
X35125Y571135D01*
X35128Y571143D01*
X35142Y571334D01*
X35159Y571527D01*
X35158Y571536D01*
X35159Y571544D01*
X35135Y571736D01*
X35114Y571927D01*
X35111Y571935D01*
X35110Y571944D01*
X35050Y572127D01*
X34991Y572310D01*
X34986Y572318D01*
X34984Y572326D01*
X34888Y572493D01*
X34794Y572662D01*
X34789Y572668D01*
X34784Y572676D01*
X34659Y572820D01*
X34533Y572967D01*
X34525Y572973D01*
X34520Y572980D01*
X34367Y573097D01*
X34216Y573216D01*
X34208Y573220D01*
X34200Y573225D01*
X33905Y573377D01*
X31526Y574362D01*
X28262Y577626D01*
X26495Y581892D01*
X26495Y586508D01*
X28262Y590774D01*
X31526Y594038D01*
X34555Y595293D01*
X35792Y595805D01*
X40408Y595805D01*
X44674Y594038D01*
X47938Y590774D01*
X49705Y586508D01*
X49705Y581892D01*
X47938Y577626D01*
X44674Y574362D01*
X42295Y573377D01*
X42287Y573372D01*
X42278Y573370D01*
X42111Y573278D01*
X41940Y573186D01*
X41933Y573181D01*
X41925Y573176D01*
X41778Y573053D01*
X41629Y572930D01*
X41624Y572923D01*
X41617Y572917D01*
X41497Y572767D01*
X41376Y572617D01*
X41372Y572609D01*
X41366Y572603D01*
X41278Y572432D01*
X41189Y572261D01*
X41186Y572252D01*
X41182Y572244D01*
X41130Y572061D01*
X41076Y571875D01*
X41075Y571865D01*
X41072Y571857D01*
X41058Y571666D01*
X41041Y571473D01*
X41042Y571464D01*
X41041Y571456D01*
X41064Y571266D01*
X41086Y571073D01*
X41089Y571065D01*
X41090Y571056D01*
X41150Y570876D01*
X41209Y570690D01*
X41214Y570682D01*
X41216Y570674D01*
X41311Y570508D01*
X41406Y570339D01*
X41411Y570332D01*
X41416Y570324D01*
X41542Y570179D01*
X41667Y570033D01*
X41674Y570027D01*
X41680Y570020D01*
X41833Y569903D01*
X41984Y569784D01*
X41992Y569780D01*
X42000Y569775D01*
X42295Y569623D01*
X44674Y568638D01*
X47312Y566000D01*
X47333Y565983D01*
X47350Y565962D01*
X47488Y565855D01*
X47623Y565745D01*
X47647Y565732D01*
X47668Y565716D01*
X47825Y565638D01*
X47979Y565556D01*
X48005Y565548D01*
X48029Y565536D01*
X48198Y565491D01*
X48365Y565441D01*
X48392Y565439D01*
X48417Y565432D01*
X48748Y565405D01*
X110723Y565405D01*
X110749Y565407D01*
X110776Y565405D01*
X110950Y565427D01*
X111123Y565445D01*
X111149Y565452D01*
X111176Y565456D01*
X111341Y565511D01*
X111508Y565563D01*
X111532Y565576D01*
X111557Y565584D01*
X111709Y565671D01*
X111862Y565755D01*
X111883Y565772D01*
X111906Y565785D01*
X112159Y566000D01*
X212159Y665999D01*
X214586Y667005D01*
X361095Y667005D01*
X361121Y667007D01*
X361148Y667005D01*
X361322Y667027D01*
X361495Y667045D01*
X361521Y667052D01*
X361547Y667056D01*
X361713Y667112D01*
X361880Y667163D01*
X361904Y667176D01*
X361929Y667184D01*
X362080Y667271D01*
X362234Y667355D01*
X362255Y667372D01*
X362278Y667385D01*
X362531Y667600D01*
X365237Y670306D01*
X365582Y670449D01*
X369532Y672085D01*
X380205Y672085D01*
X380228Y672087D01*
X380252Y672085D01*
X380429Y672107D01*
X380606Y672125D01*
X380628Y672132D01*
X380651Y672134D01*
X380820Y672190D01*
X380990Y672243D01*
X381011Y672254D01*
X381033Y672261D01*
X381188Y672350D01*
X381344Y672435D01*
X381362Y672449D01*
X381383Y672461D01*
X381517Y672579D01*
X381654Y672692D01*
X381668Y672711D01*
X381686Y672726D01*
X381794Y672867D01*
X381906Y673006D01*
X381917Y673027D01*
X381931Y673046D01*
X382010Y673206D01*
X382092Y673363D01*
X382098Y673386D01*
X382108Y673407D01*
X382154Y673580D01*
X382203Y673750D01*
X382205Y673774D01*
X382211Y673796D01*
X382221Y673974D01*
X382236Y674152D01*
X382233Y674175D01*
X382234Y674198D01*
X382210Y674375D01*
X382189Y674551D01*
X382182Y674574D01*
X382178Y674597D01*
X382119Y674765D01*
X382064Y674934D01*
X382053Y674955D01*
X382045Y674977D01*
X381954Y675130D01*
X381866Y675285D01*
X381851Y675303D01*
X381839Y675323D01*
X381719Y675455D01*
X381603Y675589D01*
X381584Y675604D01*
X381569Y675621D01*
X381426Y675727D01*
X381285Y675836D01*
X381264Y675847D01*
X381245Y675861D01*
X380947Y676007D01*
X373137Y679072D01*
X363671Y686621D01*
X356851Y696625D01*
X353282Y708194D01*
X353282Y720302D01*
X356851Y731871D01*
X363671Y741875D01*
X365132Y743040D01*
X365220Y743126D01*
X365314Y743204D01*
X365364Y743266D01*
X365420Y743321D01*
X365489Y743422D01*
X365566Y743518D01*
X365603Y743588D01*
X365647Y743653D01*
X365695Y743766D01*
X365752Y743875D01*
X365774Y743951D01*
X365805Y744024D01*
X365829Y744144D01*
X365863Y744262D01*
X365870Y744341D01*
X365886Y744418D01*
X365886Y744541D01*
X365896Y744664D01*
X365887Y744742D01*
X365887Y744821D01*
X365864Y744941D01*
X365849Y745063D01*
X365825Y745139D01*
X365810Y745216D01*
X365763Y745329D01*
X365724Y745446D01*
X365686Y745515D01*
X365655Y745588D01*
X365587Y745690D01*
X365527Y745797D01*
X365475Y745857D01*
X365431Y745922D01*
X365344Y746009D01*
X365263Y746102D01*
X365201Y746150D01*
X365145Y746205D01*
X365042Y746273D01*
X364945Y746348D01*
X364875Y746383D01*
X364809Y746427D01*
X364695Y746473D01*
X364585Y746528D01*
X364508Y746548D01*
X364435Y746578D01*
X364315Y746600D01*
X364196Y746632D01*
X364104Y746640D01*
X364040Y746652D01*
X363968Y746651D01*
X363865Y746659D01*
X64425Y746659D01*
X64253Y746642D01*
X64081Y746630D01*
X64053Y746622D01*
X64024Y746619D01*
X63859Y746569D01*
X63693Y746523D01*
X63667Y746510D01*
X63639Y746501D01*
X63488Y746419D01*
X63334Y746341D01*
X63311Y746323D01*
X63285Y746309D01*
X63153Y746199D01*
X63017Y746093D01*
X62998Y746070D01*
X62976Y746052D01*
X62868Y745917D01*
X62756Y745786D01*
X62742Y745761D01*
X62724Y745738D01*
X62644Y745585D01*
X62560Y745434D01*
X62551Y745406D01*
X62538Y745381D01*
X62490Y745215D01*
X62438Y745051D01*
X62435Y745022D01*
X62427Y744994D01*
X62413Y744822D01*
X62394Y744651D01*
X62396Y744622D01*
X62394Y744592D01*
X62414Y744421D01*
X62429Y744250D01*
X62437Y744222D01*
X62441Y744193D01*
X62494Y744028D01*
X62543Y743863D01*
X62556Y743838D01*
X62565Y743810D01*
X62650Y743659D01*
X62731Y743507D01*
X62751Y743482D01*
X62763Y743459D01*
X62819Y743395D01*
X62936Y743246D01*
X68612Y737129D01*
X73865Y726220D01*
X75670Y714248D01*
X73865Y702276D01*
X68612Y691367D01*
X60377Y682492D01*
X49891Y676438D01*
X38087Y673744D01*
X26014Y674649D01*
X14743Y679072D01*
X5838Y686173D01*
X5757Y686226D01*
X5682Y686286D01*
X5589Y686335D01*
X5500Y686392D01*
X5410Y686427D01*
X5325Y686472D01*
X5224Y686501D01*
X5126Y686539D01*
X5031Y686556D01*
X4938Y686583D01*
X4833Y686592D01*
X4729Y686610D01*
X4633Y686608D01*
X4536Y686616D01*
X4432Y686604D01*
X4327Y686602D01*
X4233Y686580D01*
X4137Y686569D01*
X4037Y686537D01*
X3934Y686514D01*
X3846Y686474D01*
X3754Y686444D01*
X3662Y686393D01*
X3566Y686350D01*
X3487Y686294D01*
X3403Y686246D01*
X3324Y686178D01*
X3238Y686117D01*
X3172Y686046D01*
X3098Y685983D01*
X3034Y685900D01*
X2962Y685824D01*
X2911Y685742D01*
X2852Y685665D01*
X2805Y685571D01*
X2749Y685482D01*
X2716Y685391D01*
X2672Y685305D01*
X2645Y685203D01*
X2608Y685105D01*
X2593Y685009D01*
X2568Y684916D01*
X2557Y684787D01*
X2544Y684707D01*
X2546Y684655D01*
X2541Y684585D01*
X2541Y1215D01*
X2550Y1119D01*
X2550Y1022D01*
X2570Y919D01*
X2581Y814D01*
X2609Y722D01*
X2628Y627D01*
X2668Y530D01*
X2699Y429D01*
X2745Y344D01*
X2782Y255D01*
X2840Y168D01*
X2891Y75D01*
X2952Y1D01*
X3006Y-79D01*
X3081Y-153D01*
X3148Y-234D01*
X3224Y-295D01*
X3292Y-363D01*
X3380Y-420D01*
X3462Y-486D01*
X3548Y-531D01*
X3629Y-584D01*
X3726Y-623D01*
X3819Y-672D01*
X3912Y-699D01*
X4002Y-735D01*
X4105Y-754D01*
X4206Y-783D01*
X4303Y-791D01*
X4398Y-809D01*
X4503Y-807D01*
X4608Y-816D01*
X4704Y-805D01*
X4800Y-804D01*
X4903Y-781D01*
X5007Y-769D01*
X5099Y-739D01*
X5194Y-719D01*
X5290Y-677D01*
X5390Y-644D01*
X5474Y-597D01*
X5563Y-558D01*
X5670Y-486D01*
X5741Y-446D01*
X5780Y-412D01*
X5838Y-373D01*
X14743Y6728D01*
X26014Y11151D01*
X38087Y12056D01*
X49891Y9362D01*
X60377Y3308D01*
X68612Y-5567D01*
X73865Y-16476D01*
X75670Y-28448D01*
X73865Y-40420D01*
X68612Y-51329D01*
X62843Y-57546D01*
X62739Y-57684D01*
X62631Y-57818D01*
X62617Y-57844D01*
X62600Y-57867D01*
X62524Y-58023D01*
X62445Y-58175D01*
X62437Y-58203D01*
X62424Y-58230D01*
X62381Y-58397D01*
X62334Y-58562D01*
X62331Y-58591D01*
X62324Y-58620D01*
X62315Y-58792D01*
X62301Y-58964D01*
X62304Y-58993D01*
X62303Y-59022D01*
X62328Y-59193D01*
X62348Y-59363D01*
X62357Y-59391D01*
X62361Y-59420D01*
X62419Y-59582D01*
X62473Y-59746D01*
X62487Y-59772D01*
X62497Y-59799D01*
X62586Y-59946D01*
X62671Y-60097D01*
X62690Y-60119D01*
X62705Y-60144D01*
X62821Y-60271D01*
X62934Y-60402D01*
X62957Y-60419D01*
X62977Y-60441D01*
X63116Y-60543D01*
X63252Y-60648D01*
X63278Y-60661D01*
X63302Y-60679D01*
X63458Y-60751D01*
X63612Y-60828D01*
X63641Y-60835D01*
X63667Y-60847D01*
X63834Y-60887D01*
X64001Y-60932D01*
X64034Y-60935D01*
X64059Y-60941D01*
X64144Y-60944D01*
X64332Y-60959D01*
X363991Y-60959D01*
X364113Y-60947D01*
G37*
%LPC*%
G36*
X383539Y256539D02*
X383539Y256539D01*
X383539Y276861D01*
X401572Y276861D01*
X401541Y276664D01*
X400973Y274914D01*
X400138Y273276D01*
X399057Y271788D01*
X397756Y270487D01*
X396268Y269406D01*
X394509Y268510D01*
X394466Y268482D01*
X394419Y268461D01*
X394297Y268374D01*
X394170Y268292D01*
X394133Y268257D01*
X394092Y268227D01*
X393989Y268117D01*
X393881Y268012D01*
X393852Y267970D01*
X393817Y267933D01*
X393738Y267805D01*
X393652Y267681D01*
X393632Y267634D01*
X393605Y267590D01*
X393553Y267449D01*
X393494Y267311D01*
X393483Y267261D01*
X393465Y267213D01*
X393442Y267064D01*
X393411Y266917D01*
X393411Y266866D01*
X393403Y266815D01*
X393409Y266664D01*
X393408Y266514D01*
X393418Y266464D01*
X393420Y266413D01*
X393456Y266267D01*
X393485Y266119D01*
X393504Y266071D01*
X393516Y266022D01*
X393580Y265886D01*
X393637Y265746D01*
X393666Y265704D01*
X393688Y265657D01*
X393777Y265536D01*
X393861Y265411D01*
X393897Y265375D01*
X393927Y265334D01*
X394039Y265233D01*
X394146Y265127D01*
X394188Y265099D01*
X394226Y265064D01*
X394423Y264943D01*
X394481Y264904D01*
X394494Y264899D01*
X394509Y264890D01*
X396268Y263994D01*
X397756Y262913D01*
X399057Y261612D01*
X400138Y260124D01*
X400973Y258486D01*
X401541Y256736D01*
X401572Y256539D01*
X383539Y256539D01*
G37*
%LPD*%
%LPC*%
G36*
X383539Y485139D02*
X383539Y485139D01*
X383539Y505461D01*
X401572Y505461D01*
X401541Y505264D01*
X400973Y503514D01*
X400138Y501876D01*
X399057Y500388D01*
X397756Y499087D01*
X396268Y498006D01*
X394509Y497110D01*
X394466Y497082D01*
X394419Y497061D01*
X394297Y496974D01*
X394170Y496892D01*
X394133Y496857D01*
X394092Y496827D01*
X393989Y496717D01*
X393881Y496612D01*
X393852Y496570D01*
X393817Y496533D01*
X393737Y496405D01*
X393652Y496281D01*
X393632Y496234D01*
X393605Y496190D01*
X393553Y496049D01*
X393494Y495911D01*
X393483Y495861D01*
X393465Y495813D01*
X393442Y495664D01*
X393411Y495517D01*
X393411Y495466D01*
X393403Y495415D01*
X393409Y495264D01*
X393408Y495114D01*
X393418Y495064D01*
X393420Y495013D01*
X393456Y494866D01*
X393485Y494719D01*
X393504Y494672D01*
X393516Y494622D01*
X393580Y494486D01*
X393637Y494346D01*
X393666Y494304D01*
X393688Y494258D01*
X393777Y494137D01*
X393861Y494011D01*
X393897Y493975D01*
X393927Y493934D01*
X394039Y493833D01*
X394146Y493727D01*
X394188Y493699D01*
X394226Y493664D01*
X394423Y493543D01*
X394481Y493504D01*
X394494Y493499D01*
X394509Y493490D01*
X396268Y492594D01*
X397756Y491513D01*
X399057Y490212D01*
X400138Y488724D01*
X400973Y487086D01*
X401541Y485336D01*
X401572Y485139D01*
X383539Y485139D01*
G37*
%LPD*%
%LPC*%
G36*
X360428Y256539D02*
X360428Y256539D01*
X360459Y256736D01*
X361027Y258486D01*
X361862Y260124D01*
X362943Y261612D01*
X364244Y262913D01*
X365732Y263994D01*
X367491Y264890D01*
X367534Y264918D01*
X367581Y264939D01*
X367703Y265026D01*
X367830Y265108D01*
X367867Y265143D01*
X367908Y265173D01*
X368011Y265283D01*
X368119Y265388D01*
X368148Y265430D01*
X368183Y265467D01*
X368263Y265595D01*
X368348Y265719D01*
X368368Y265766D01*
X368395Y265810D01*
X368447Y265951D01*
X368506Y266089D01*
X368517Y266139D01*
X368535Y266187D01*
X368558Y266336D01*
X368589Y266483D01*
X368589Y266534D01*
X368597Y266585D01*
X368591Y266736D01*
X368592Y266886D01*
X368582Y266936D01*
X368580Y266987D01*
X368544Y267134D01*
X368515Y267281D01*
X368496Y267328D01*
X368484Y267378D01*
X368420Y267514D01*
X368363Y267654D01*
X368334Y267696D01*
X368312Y267742D01*
X368223Y267863D01*
X368139Y267989D01*
X368103Y268025D01*
X368073Y268066D01*
X367961Y268167D01*
X367854Y268273D01*
X367812Y268301D01*
X367774Y268336D01*
X367577Y268457D01*
X367519Y268496D01*
X367506Y268501D01*
X367491Y268510D01*
X365732Y269406D01*
X364244Y270487D01*
X362943Y271788D01*
X361862Y273276D01*
X361027Y274914D01*
X360459Y276664D01*
X360428Y276861D01*
X378461Y276861D01*
X378461Y256539D01*
X360428Y256539D01*
G37*
%LPD*%
%LPC*%
G36*
X360428Y485139D02*
X360428Y485139D01*
X360459Y485336D01*
X361027Y487086D01*
X361862Y488724D01*
X362943Y490212D01*
X364244Y491513D01*
X365732Y492594D01*
X367491Y493490D01*
X367534Y493518D01*
X367581Y493539D01*
X367703Y493626D01*
X367830Y493708D01*
X367867Y493743D01*
X367908Y493773D01*
X368011Y493883D01*
X368119Y493988D01*
X368148Y494030D01*
X368183Y494067D01*
X368263Y494195D01*
X368348Y494319D01*
X368368Y494366D01*
X368395Y494410D01*
X368447Y494551D01*
X368506Y494689D01*
X368517Y494739D01*
X368535Y494787D01*
X368558Y494936D01*
X368589Y495083D01*
X368589Y495134D01*
X368597Y495185D01*
X368591Y495336D01*
X368592Y495486D01*
X368582Y495536D01*
X368580Y495587D01*
X368544Y495734D01*
X368515Y495881D01*
X368496Y495928D01*
X368484Y495978D01*
X368420Y496114D01*
X368363Y496254D01*
X368334Y496296D01*
X368312Y496342D01*
X368223Y496463D01*
X368139Y496589D01*
X368103Y496625D01*
X368073Y496666D01*
X367961Y496767D01*
X367854Y496873D01*
X367812Y496901D01*
X367774Y496936D01*
X367577Y497057D01*
X367519Y497096D01*
X367506Y497101D01*
X367491Y497110D01*
X365732Y498006D01*
X364244Y499087D01*
X362943Y500388D01*
X361862Y501876D01*
X361027Y503514D01*
X360459Y505264D01*
X360428Y505461D01*
X378461Y505461D01*
X378461Y485139D01*
X360428Y485139D01*
G37*
%LPD*%
%LPC*%
G36*
X383539Y470915D02*
X383539Y470915D01*
X383539Y480061D01*
X401572Y480061D01*
X401541Y479864D01*
X400973Y478114D01*
X400138Y476476D01*
X399057Y474988D01*
X397756Y473687D01*
X396268Y472606D01*
X394630Y471771D01*
X392880Y471203D01*
X391064Y470915D01*
X383539Y470915D01*
G37*
%LPD*%
%LPC*%
G36*
X383539Y242315D02*
X383539Y242315D01*
X383539Y251461D01*
X401572Y251461D01*
X401541Y251264D01*
X400973Y249514D01*
X400138Y247876D01*
X399057Y246388D01*
X397756Y245087D01*
X396268Y244006D01*
X394630Y243171D01*
X392880Y242603D01*
X391064Y242315D01*
X383539Y242315D01*
G37*
%LPD*%
%LPC*%
G36*
X370936Y470915D02*
X370936Y470915D01*
X369120Y471203D01*
X367370Y471771D01*
X365732Y472606D01*
X364244Y473687D01*
X362943Y474988D01*
X361862Y476476D01*
X361027Y478114D01*
X360459Y479864D01*
X360428Y480061D01*
X378461Y480061D01*
X378461Y470915D01*
X370936Y470915D01*
G37*
%LPD*%
%LPC*%
G36*
X370936Y242315D02*
X370936Y242315D01*
X369120Y242603D01*
X367370Y243171D01*
X365732Y244006D01*
X364244Y245087D01*
X362943Y246388D01*
X361862Y247876D01*
X361027Y249514D01*
X360459Y251264D01*
X360428Y251461D01*
X378461Y251461D01*
X378461Y242315D01*
X370936Y242315D01*
G37*
%LPD*%
D10*
X38100Y584200D03*
X38100Y558800D03*
X38100Y533400D03*
X38100Y508000D03*
X38100Y482600D03*
X38100Y457200D03*
X38100Y431800D03*
X38100Y406400D03*
X38100Y381000D03*
X38100Y355600D03*
X38100Y330200D03*
X38100Y304800D03*
X38100Y279400D03*
X38100Y254000D03*
X38100Y228600D03*
X38100Y203200D03*
X241300Y203200D03*
X241300Y228600D03*
X241300Y254000D03*
X241300Y279400D03*
X241300Y304800D03*
X241300Y330200D03*
X241300Y355600D03*
X241300Y381000D03*
X241300Y406400D03*
X241300Y431800D03*
X241300Y457200D03*
X241300Y482600D03*
D11*
X371856Y482600D02*
X390144Y482600D01*
X390144Y508000D02*
X371856Y508000D01*
X371856Y533400D02*
X390144Y533400D01*
X390144Y558800D02*
X371856Y558800D01*
X371856Y584200D02*
X390144Y584200D01*
X390144Y609600D02*
X371856Y609600D01*
X371856Y635000D02*
X390144Y635000D01*
X390144Y660400D02*
X371856Y660400D01*
X371856Y254000D02*
X390144Y254000D01*
X390144Y279400D02*
X371856Y279400D01*
X371856Y304800D02*
X390144Y304800D01*
X390144Y330200D02*
X371856Y330200D01*
X371856Y355600D02*
X390144Y355600D01*
X390144Y381000D02*
X371856Y381000D01*
X371856Y406400D02*
X390144Y406400D01*
X390144Y431800D02*
X371856Y431800D01*
X371856Y25400D02*
X390144Y25400D01*
X390144Y50800D02*
X371856Y50800D01*
X371856Y76200D02*
X390144Y76200D01*
X390144Y101600D02*
X371856Y101600D01*
X371856Y127000D02*
X390144Y127000D01*
X390144Y152400D02*
X371856Y152400D01*
X371856Y177800D02*
X390144Y177800D01*
X390144Y203200D02*
X371856Y203200D01*
D12*
X114300Y558800D02*
X38100Y558800D01*
X114300Y558800D02*
X215900Y660400D01*
X381000Y660400D01*
D13*
X381000Y431800D02*
X241300Y431800D01*
D14*
X38100Y431800D02*
X241300Y635000D01*
X381000Y635000D01*
X241300Y584200D02*
X38100Y381000D01*
X241300Y584200D02*
X381000Y584200D01*
X241300Y558800D02*
X127000Y444500D01*
X127000Y330200D01*
X241300Y558800D02*
X381000Y558800D01*
X241300Y330200D02*
X190500Y330200D01*
D15*
X190500Y330200D03*
X127000Y330200D03*
D14*
X165100Y279400D02*
X241300Y279400D01*
X165100Y279400D02*
X165100Y457200D01*
X241300Y533400D01*
X381000Y533400D01*
X241300Y609600D02*
X38100Y406400D01*
X241300Y609600D02*
X381000Y609600D01*
X381000Y406400D02*
X241300Y406400D01*
X241300Y381000D02*
X381000Y381000D01*
X381000Y355600D02*
X241300Y355600D01*
X266700Y330200D02*
X241300Y304800D01*
X266700Y330200D02*
X381000Y330200D01*
X292100Y304800D02*
X241300Y254000D01*
X292100Y304800D02*
X381000Y304800D01*
X381000Y203200D02*
X330200Y203200D01*
X311404Y184404D01*
X183896Y184404D02*
X38100Y330200D01*
X183896Y184404D02*
X311404Y184404D01*
X177800Y165100D02*
X38100Y304800D01*
X330200Y177800D02*
X381000Y177800D01*
X330200Y177800D02*
X317500Y165100D01*
X177800Y165100D01*
X165100Y152400D02*
X381000Y152400D01*
X165100Y152400D02*
X38100Y279400D01*
X38100Y254000D02*
X165100Y127000D01*
X381000Y127000D01*
X165100Y101600D02*
X38100Y228600D01*
X165100Y101600D02*
X381000Y101600D01*
X323850Y228600D02*
X241300Y228600D01*
D15*
X323850Y228600D03*
X323850Y76200D03*
D14*
X381000Y76200D01*
X292100Y203200D02*
X241300Y203200D01*
D15*
X292100Y203200D03*
X292100Y50800D03*
D14*
X381000Y50800D01*
M02*
