M48
;GenerationSoftware,Autodesk,EAGLE,9.6.2*%
;CreationDate,2025-03-19T21:22:51Z*%
FMAT,2
ICI,OFF
METRIC,TZ,000.000
T4C0.813
T3C1.000
T2C1.016
T1C3.000
%
G90
M71
T1
X3505Y71425
X3505Y-2845
X39345Y-2845
X39345Y71425
T2
X38100Y63500
X38100Y60960
X38100Y58420
X38100Y55880
X38100Y53340
X38100Y2540
X38100Y50800
X38100Y48260
X38100Y66040
X38100Y25400
X38100Y27940
X38100Y30480
X38100Y33020
X38100Y35560
X38100Y38100
X38100Y40640
X38100Y43180
X38100Y5080
X38100Y7620
X38100Y10160
X38100Y12700
X38100Y15240
X38100Y17780
X38100Y20320
T3
X24130Y25400
X24130Y27940
X24130Y30480
X3810Y48260
X24130Y35560
X24130Y38100
X24130Y40640
X24130Y43180
X24130Y45720
X24130Y48260
X24130Y33020
X3810Y58420
X3810Y55880
X3810Y53340
X3810Y50800
X3810Y45720
X3810Y43180
X3810Y40640
X3810Y38100
X3810Y35560
X3810Y22860
X3810Y33020
X3810Y30480
X3810Y27940
X3810Y25400
X3810Y20320
X24130Y20320
X24130Y22860
T4
X12700Y33020
X19050Y33020
X29210Y5080
X29210Y20320
X32385Y7620
X32385Y22860
M30