G04 EAGLE Gerber RS-274X export*
G75*
%MOMM*%
%FSLAX34Y34*%
%LPD*%
%INTopLayer*%
%IPPOS*%
%AMOC8*
5,1,8,0,0,1.08239X$1,22.5*%
G01*
%ADD10C,0.000000*%
%ADD11C,0.406400*%
%ADD12C,1.812800*%
%ADD13C,1.828800*%
%ADD14C,1.625600*%

G36*
X364113Y-60947D02*
X364113Y-60947D01*
X364236Y-60944D01*
X364313Y-60927D01*
X364391Y-60919D01*
X364509Y-60883D01*
X364629Y-60856D01*
X364701Y-60824D01*
X364776Y-60801D01*
X364884Y-60743D01*
X364996Y-60693D01*
X365061Y-60647D01*
X365130Y-60609D01*
X365225Y-60531D01*
X365325Y-60460D01*
X365379Y-60402D01*
X365439Y-60352D01*
X365516Y-60256D01*
X365601Y-60166D01*
X365642Y-60099D01*
X365692Y-60038D01*
X365748Y-59929D01*
X365813Y-59825D01*
X365841Y-59751D01*
X365877Y-59681D01*
X365911Y-59563D01*
X365954Y-59447D01*
X365967Y-59370D01*
X365989Y-59294D01*
X365999Y-59171D01*
X366018Y-59050D01*
X366015Y-58971D01*
X366022Y-58892D01*
X366007Y-58771D01*
X366002Y-58648D01*
X365984Y-58571D01*
X365975Y-58493D01*
X365937Y-58376D01*
X365908Y-58256D01*
X365874Y-58185D01*
X365850Y-58110D01*
X365789Y-58003D01*
X365738Y-57891D01*
X365691Y-57828D01*
X365652Y-57759D01*
X365572Y-57666D01*
X365499Y-57567D01*
X365432Y-57504D01*
X365389Y-57455D01*
X365332Y-57411D01*
X365257Y-57340D01*
X363671Y-56075D01*
X356851Y-46071D01*
X353282Y-34502D01*
X353282Y-22394D01*
X356851Y-10825D01*
X363671Y-821D01*
X373137Y6728D01*
X384408Y11151D01*
X396481Y12056D01*
X408285Y9362D01*
X418771Y3308D01*
X422439Y-645D01*
X422474Y-676D01*
X422504Y-712D01*
X422624Y-809D01*
X422741Y-912D01*
X422782Y-935D01*
X422818Y-965D01*
X422955Y-1036D01*
X423089Y-1114D01*
X423134Y-1129D01*
X423175Y-1150D01*
X423324Y-1193D01*
X423470Y-1243D01*
X423517Y-1249D01*
X423562Y-1262D01*
X423717Y-1274D01*
X423870Y-1294D01*
X423917Y-1291D01*
X423964Y-1295D01*
X424117Y-1277D01*
X424271Y-1266D01*
X424317Y-1253D01*
X424363Y-1248D01*
X424511Y-1200D01*
X424660Y-1159D01*
X424701Y-1137D01*
X424746Y-1123D01*
X424881Y-1047D01*
X425019Y-977D01*
X425056Y-948D01*
X425097Y-925D01*
X425214Y-824D01*
X425335Y-728D01*
X425366Y-692D01*
X425402Y-662D01*
X425496Y-540D01*
X425597Y-422D01*
X425620Y-381D01*
X425648Y-344D01*
X425717Y-205D01*
X425792Y-70D01*
X425807Y-25D01*
X425828Y17D01*
X425868Y167D01*
X425915Y314D01*
X425920Y360D01*
X425932Y406D01*
X425953Y654D01*
X425959Y714D01*
X425958Y724D01*
X425959Y736D01*
X425959Y685064D01*
X425955Y685110D01*
X425957Y685157D01*
X425935Y685311D01*
X425919Y685464D01*
X425906Y685509D01*
X425899Y685556D01*
X425847Y685701D01*
X425801Y685849D01*
X425779Y685890D01*
X425763Y685935D01*
X425683Y686067D01*
X425609Y686203D01*
X425579Y686239D01*
X425555Y686279D01*
X425451Y686394D01*
X425352Y686512D01*
X425315Y686542D01*
X425283Y686577D01*
X425158Y686668D01*
X425038Y686765D01*
X424996Y686786D01*
X424958Y686814D01*
X424818Y686879D01*
X424681Y686950D01*
X424635Y686963D01*
X424593Y686983D01*
X424442Y687019D01*
X424294Y687062D01*
X424247Y687065D01*
X424201Y687076D01*
X424047Y687082D01*
X423892Y687095D01*
X423846Y687089D01*
X423799Y687091D01*
X423646Y687066D01*
X423493Y687048D01*
X423448Y687033D01*
X423402Y687025D01*
X423257Y686971D01*
X423110Y686923D01*
X423069Y686900D01*
X423025Y686883D01*
X422894Y686801D01*
X422759Y686725D01*
X422724Y686694D01*
X422684Y686669D01*
X422500Y686501D01*
X422455Y686462D01*
X422448Y686454D01*
X422439Y686445D01*
X418771Y682492D01*
X408285Y676438D01*
X396481Y673744D01*
X384408Y674649D01*
X373137Y679072D01*
X363671Y686621D01*
X356851Y696625D01*
X353282Y708194D01*
X353282Y720302D01*
X356851Y731871D01*
X363671Y741875D01*
X365132Y743040D01*
X365220Y743126D01*
X365314Y743204D01*
X365363Y743266D01*
X365420Y743321D01*
X365489Y743422D01*
X365566Y743518D01*
X365603Y743588D01*
X365647Y743653D01*
X365695Y743766D01*
X365752Y743875D01*
X365774Y743951D01*
X365805Y744024D01*
X365829Y744144D01*
X365863Y744262D01*
X365870Y744341D01*
X365886Y744418D01*
X365886Y744541D01*
X365896Y744664D01*
X365887Y744742D01*
X365887Y744821D01*
X365864Y744941D01*
X365849Y745063D01*
X365825Y745139D01*
X365810Y745216D01*
X365763Y745329D01*
X365724Y745446D01*
X365686Y745515D01*
X365655Y745588D01*
X365587Y745690D01*
X365527Y745797D01*
X365475Y745857D01*
X365431Y745922D01*
X365344Y746009D01*
X365263Y746102D01*
X365201Y746150D01*
X365145Y746205D01*
X365042Y746273D01*
X364945Y746348D01*
X364875Y746383D01*
X364809Y746427D01*
X364695Y746473D01*
X364585Y746528D01*
X364508Y746548D01*
X364435Y746578D01*
X364315Y746600D01*
X364196Y746632D01*
X364104Y746640D01*
X364040Y746652D01*
X363968Y746651D01*
X363865Y746659D01*
X64425Y746659D01*
X64253Y746642D01*
X64081Y746630D01*
X64053Y746622D01*
X64024Y746619D01*
X63859Y746569D01*
X63693Y746523D01*
X63667Y746510D01*
X63639Y746501D01*
X63488Y746419D01*
X63334Y746341D01*
X63311Y746323D01*
X63285Y746309D01*
X63153Y746199D01*
X63017Y746093D01*
X62998Y746070D01*
X62976Y746052D01*
X62868Y745917D01*
X62756Y745786D01*
X62742Y745761D01*
X62724Y745738D01*
X62644Y745585D01*
X62560Y745434D01*
X62551Y745406D01*
X62538Y745381D01*
X62490Y745215D01*
X62438Y745051D01*
X62435Y745022D01*
X62427Y744994D01*
X62413Y744822D01*
X62394Y744651D01*
X62396Y744622D01*
X62394Y744592D01*
X62414Y744421D01*
X62429Y744250D01*
X62437Y744222D01*
X62441Y744193D01*
X62494Y744028D01*
X62543Y743863D01*
X62556Y743838D01*
X62565Y743810D01*
X62650Y743659D01*
X62731Y743507D01*
X62751Y743482D01*
X62763Y743459D01*
X62819Y743395D01*
X62936Y743246D01*
X68612Y737129D01*
X73865Y726220D01*
X75670Y714248D01*
X73865Y702276D01*
X68612Y691367D01*
X60377Y682492D01*
X49891Y676438D01*
X38087Y673744D01*
X26014Y674649D01*
X14743Y679072D01*
X5838Y686173D01*
X5757Y686226D01*
X5682Y686286D01*
X5589Y686335D01*
X5500Y686392D01*
X5410Y686427D01*
X5325Y686472D01*
X5224Y686501D01*
X5126Y686539D01*
X5031Y686556D01*
X4938Y686583D01*
X4833Y686592D01*
X4729Y686610D01*
X4633Y686608D01*
X4536Y686616D01*
X4432Y686604D01*
X4327Y686602D01*
X4233Y686580D01*
X4137Y686569D01*
X4037Y686537D01*
X3934Y686514D01*
X3846Y686474D01*
X3754Y686444D01*
X3662Y686393D01*
X3566Y686350D01*
X3487Y686294D01*
X3403Y686246D01*
X3324Y686178D01*
X3238Y686117D01*
X3172Y686046D01*
X3098Y685983D01*
X3034Y685900D01*
X2962Y685824D01*
X2911Y685742D01*
X2852Y685665D01*
X2805Y685571D01*
X2749Y685482D01*
X2716Y685391D01*
X2672Y685305D01*
X2645Y685203D01*
X2608Y685105D01*
X2593Y685009D01*
X2568Y684916D01*
X2557Y684787D01*
X2544Y684707D01*
X2546Y684655D01*
X2541Y684585D01*
X2541Y1215D01*
X2550Y1119D01*
X2550Y1022D01*
X2570Y919D01*
X2581Y814D01*
X2609Y722D01*
X2628Y627D01*
X2668Y530D01*
X2699Y429D01*
X2745Y344D01*
X2782Y255D01*
X2840Y168D01*
X2891Y75D01*
X2952Y1D01*
X3006Y-79D01*
X3081Y-153D01*
X3148Y-234D01*
X3224Y-295D01*
X3292Y-363D01*
X3380Y-420D01*
X3462Y-486D01*
X3548Y-531D01*
X3629Y-584D01*
X3726Y-623D01*
X3819Y-672D01*
X3912Y-699D01*
X4002Y-735D01*
X4105Y-754D01*
X4206Y-783D01*
X4303Y-791D01*
X4398Y-809D01*
X4503Y-807D01*
X4608Y-816D01*
X4704Y-805D01*
X4800Y-804D01*
X4903Y-781D01*
X5007Y-769D01*
X5099Y-739D01*
X5194Y-719D01*
X5290Y-677D01*
X5390Y-644D01*
X5474Y-597D01*
X5563Y-558D01*
X5670Y-486D01*
X5741Y-446D01*
X5780Y-412D01*
X5838Y-373D01*
X14743Y6728D01*
X26014Y11151D01*
X38087Y12056D01*
X49891Y9362D01*
X60377Y3308D01*
X68612Y-5567D01*
X73865Y-16476D01*
X75670Y-28448D01*
X73865Y-40420D01*
X68612Y-51329D01*
X62843Y-57546D01*
X62739Y-57684D01*
X62631Y-57818D01*
X62617Y-57844D01*
X62600Y-57867D01*
X62524Y-58023D01*
X62445Y-58175D01*
X62437Y-58203D01*
X62424Y-58230D01*
X62381Y-58397D01*
X62334Y-58562D01*
X62331Y-58591D01*
X62324Y-58620D01*
X62315Y-58792D01*
X62301Y-58964D01*
X62304Y-58993D01*
X62303Y-59022D01*
X62328Y-59193D01*
X62348Y-59363D01*
X62357Y-59391D01*
X62361Y-59420D01*
X62419Y-59582D01*
X62473Y-59746D01*
X62487Y-59772D01*
X62497Y-59799D01*
X62586Y-59946D01*
X62671Y-60097D01*
X62690Y-60119D01*
X62705Y-60144D01*
X62821Y-60271D01*
X62934Y-60402D01*
X62957Y-60419D01*
X62977Y-60441D01*
X63116Y-60543D01*
X63252Y-60648D01*
X63278Y-60661D01*
X63302Y-60679D01*
X63458Y-60751D01*
X63612Y-60828D01*
X63641Y-60835D01*
X63667Y-60847D01*
X63834Y-60887D01*
X64001Y-60932D01*
X64034Y-60935D01*
X64059Y-60941D01*
X64144Y-60944D01*
X64332Y-60959D01*
X363991Y-60959D01*
X364113Y-60947D01*
G37*
%LPC*%
G36*
X317358Y27906D02*
X317358Y27906D01*
X317340Y27908D01*
X317323Y27912D01*
X316992Y27939D01*
X296928Y27939D01*
X296959Y28136D01*
X297527Y29886D01*
X298362Y31524D01*
X299443Y33012D01*
X300744Y34313D01*
X302232Y35394D01*
X303915Y36251D01*
X303917Y36252D01*
X303928Y36258D01*
X304013Y36301D01*
X304030Y36312D01*
X304118Y36351D01*
X304192Y36402D01*
X304270Y36445D01*
X304356Y36517D01*
X304448Y36582D01*
X304510Y36647D01*
X304578Y36704D01*
X304648Y36792D01*
X304726Y36873D01*
X304773Y36949D01*
X304829Y37019D01*
X304880Y37119D01*
X304940Y37214D01*
X304972Y37298D01*
X305013Y37377D01*
X305044Y37485D01*
X305084Y37590D01*
X305098Y37679D01*
X305123Y37765D01*
X305131Y37877D01*
X305150Y37988D01*
X305147Y38077D01*
X305154Y38166D01*
X305140Y38277D01*
X305136Y38390D01*
X305116Y38477D01*
X305105Y38566D01*
X305070Y38672D01*
X305044Y38782D01*
X305007Y38863D01*
X304979Y38948D01*
X304923Y39045D01*
X304876Y39148D01*
X304823Y39220D01*
X304779Y39298D01*
X304705Y39382D01*
X304639Y39473D01*
X304573Y39534D01*
X304515Y39601D01*
X304426Y39670D01*
X304343Y39746D01*
X304266Y39792D01*
X304195Y39847D01*
X304071Y39911D01*
X303998Y39954D01*
X303955Y39970D01*
X303900Y39998D01*
X301737Y40894D01*
X298450Y44181D01*
X296671Y48476D01*
X296671Y53124D01*
X298450Y57419D01*
X301737Y60706D01*
X303952Y61623D01*
X303960Y61628D01*
X303969Y61630D01*
X304136Y61722D01*
X304307Y61814D01*
X304314Y61819D01*
X304322Y61824D01*
X304469Y61947D01*
X304618Y62070D01*
X304623Y62077D01*
X304630Y62083D01*
X304750Y62233D01*
X304871Y62383D01*
X304875Y62391D01*
X304881Y62397D01*
X304969Y62568D01*
X305058Y62739D01*
X305061Y62748D01*
X305065Y62756D01*
X305117Y62939D01*
X305171Y63125D01*
X305172Y63135D01*
X305175Y63143D01*
X305189Y63334D01*
X305206Y63527D01*
X305205Y63536D01*
X305206Y63544D01*
X305183Y63734D01*
X305161Y63927D01*
X305158Y63935D01*
X305157Y63944D01*
X305097Y64126D01*
X305038Y64310D01*
X305033Y64318D01*
X305031Y64326D01*
X304935Y64494D01*
X304841Y64661D01*
X304836Y64668D01*
X304831Y64676D01*
X304705Y64821D01*
X304580Y64967D01*
X304572Y64973D01*
X304567Y64980D01*
X304414Y65097D01*
X304263Y65216D01*
X304254Y65220D01*
X304247Y65225D01*
X303952Y65377D01*
X301737Y66294D01*
X298450Y69581D01*
X298374Y69764D01*
X298368Y69776D01*
X298364Y69789D01*
X298273Y69953D01*
X298184Y70119D01*
X298176Y70130D01*
X298169Y70141D01*
X298048Y70285D01*
X297928Y70430D01*
X297917Y70438D01*
X297909Y70448D01*
X297761Y70565D01*
X297615Y70683D01*
X297603Y70690D01*
X297593Y70698D01*
X297425Y70783D01*
X297259Y70870D01*
X297246Y70874D01*
X297234Y70880D01*
X297053Y70931D01*
X296872Y70984D01*
X296859Y70985D01*
X296846Y70988D01*
X296658Y71002D01*
X296471Y71018D01*
X296458Y71017D01*
X296444Y71018D01*
X296257Y70994D01*
X296071Y70973D01*
X296058Y70969D01*
X296045Y70967D01*
X295867Y70907D01*
X295688Y70850D01*
X295676Y70843D01*
X295663Y70839D01*
X295500Y70745D01*
X295336Y70654D01*
X295326Y70645D01*
X295314Y70638D01*
X295061Y70423D01*
X291793Y67155D01*
X287872Y65531D01*
X283628Y65531D01*
X279707Y67155D01*
X276705Y70157D01*
X275181Y73838D01*
X275179Y73842D01*
X275177Y73846D01*
X275082Y74022D01*
X274990Y74193D01*
X274988Y74196D01*
X274985Y74200D01*
X274859Y74351D01*
X274734Y74503D01*
X274730Y74506D01*
X274728Y74510D01*
X274575Y74632D01*
X274421Y74757D01*
X274417Y74759D01*
X274414Y74762D01*
X274239Y74853D01*
X274065Y74944D01*
X274061Y74945D01*
X274057Y74947D01*
X273867Y75002D01*
X273678Y75057D01*
X273674Y75058D01*
X273670Y75059D01*
X273472Y75075D01*
X273277Y75092D01*
X273273Y75091D01*
X273268Y75092D01*
X273071Y75068D01*
X272877Y75047D01*
X272873Y75045D01*
X272869Y75045D01*
X272680Y74983D01*
X272494Y74923D01*
X272490Y74921D01*
X272486Y74920D01*
X272313Y74822D01*
X272142Y74727D01*
X272139Y74724D01*
X272135Y74722D01*
X271986Y74594D01*
X271837Y74465D01*
X271834Y74462D01*
X271830Y74459D01*
X271711Y74305D01*
X271588Y74148D01*
X271586Y74144D01*
X271584Y74141D01*
X271496Y73964D01*
X271408Y73789D01*
X271406Y73784D01*
X271404Y73780D01*
X271353Y73587D01*
X271301Y73400D01*
X271301Y73396D01*
X271300Y73391D01*
X271273Y73061D01*
X271273Y61811D01*
X271275Y61789D01*
X271273Y61766D01*
X271295Y61589D01*
X271313Y61410D01*
X271319Y61389D01*
X271322Y61367D01*
X271378Y61197D01*
X271431Y61025D01*
X271441Y61006D01*
X271448Y60985D01*
X271537Y60829D01*
X271623Y60671D01*
X271637Y60654D01*
X271648Y60635D01*
X271765Y60500D01*
X271880Y60362D01*
X271898Y60348D01*
X271912Y60331D01*
X272054Y60222D01*
X272194Y60110D01*
X272214Y60099D01*
X272232Y60086D01*
X272527Y59934D01*
X272743Y59844D01*
X275745Y56843D01*
X277369Y52922D01*
X277369Y48678D01*
X275745Y44757D01*
X272743Y41755D01*
X268822Y40131D01*
X264578Y40131D01*
X260657Y41755D01*
X257655Y44757D01*
X256031Y48678D01*
X256031Y52922D01*
X257655Y56843D01*
X260657Y59844D01*
X260873Y59934D01*
X260893Y59945D01*
X260914Y59952D01*
X261070Y60040D01*
X261228Y60124D01*
X261245Y60139D01*
X261265Y60150D01*
X261401Y60267D01*
X261539Y60381D01*
X261553Y60398D01*
X261570Y60413D01*
X261679Y60554D01*
X261792Y60693D01*
X261803Y60713D01*
X261816Y60731D01*
X261896Y60891D01*
X261979Y61050D01*
X261986Y61071D01*
X261996Y61091D01*
X262042Y61265D01*
X262092Y61436D01*
X262094Y61459D01*
X262100Y61480D01*
X262127Y61811D01*
X262127Y192189D01*
X262125Y192211D01*
X262127Y192234D01*
X262105Y192411D01*
X262087Y192590D01*
X262081Y192611D01*
X262078Y192633D01*
X262022Y192803D01*
X261969Y192975D01*
X261959Y192994D01*
X261952Y193015D01*
X261863Y193171D01*
X261777Y193329D01*
X261763Y193346D01*
X261752Y193365D01*
X261635Y193500D01*
X261520Y193638D01*
X261502Y193652D01*
X261488Y193669D01*
X261346Y193778D01*
X261206Y193890D01*
X261186Y193901D01*
X261168Y193914D01*
X260873Y194066D01*
X260657Y194156D01*
X257655Y197157D01*
X256383Y200228D01*
X256379Y200236D01*
X256376Y200245D01*
X256284Y200413D01*
X256193Y200583D01*
X256187Y200590D01*
X256183Y200598D01*
X256059Y200745D01*
X255937Y200894D01*
X255930Y200899D01*
X255924Y200906D01*
X255773Y201026D01*
X255624Y201147D01*
X255616Y201151D01*
X255609Y201157D01*
X255439Y201244D01*
X255267Y201334D01*
X255259Y201337D01*
X255251Y201341D01*
X255068Y201393D01*
X254881Y201447D01*
X254872Y201448D01*
X254864Y201451D01*
X254673Y201465D01*
X254480Y201482D01*
X254471Y201481D01*
X254462Y201482D01*
X254271Y201458D01*
X254080Y201437D01*
X254071Y201434D01*
X254062Y201433D01*
X253881Y201373D01*
X253696Y201314D01*
X253689Y201309D01*
X253680Y201306D01*
X253513Y201211D01*
X253345Y201117D01*
X253338Y201112D01*
X253330Y201107D01*
X253183Y200979D01*
X253039Y200855D01*
X253034Y200849D01*
X253027Y200843D01*
X252909Y200690D01*
X252791Y200538D01*
X252787Y200530D01*
X252782Y200523D01*
X252630Y200228D01*
X251138Y196626D01*
X247874Y193362D01*
X246490Y192789D01*
X243608Y191595D01*
X238992Y191595D01*
X234726Y193362D01*
X231462Y196626D01*
X229695Y200892D01*
X229695Y205508D01*
X231462Y209774D01*
X234726Y213038D01*
X237105Y214023D01*
X237113Y214028D01*
X237122Y214030D01*
X237289Y214122D01*
X237460Y214214D01*
X237467Y214219D01*
X237475Y214224D01*
X237621Y214347D01*
X237771Y214470D01*
X237776Y214477D01*
X237783Y214483D01*
X237903Y214633D01*
X238024Y214783D01*
X238028Y214791D01*
X238034Y214797D01*
X238122Y214968D01*
X238211Y215139D01*
X238214Y215148D01*
X238218Y215156D01*
X238270Y215340D01*
X238324Y215526D01*
X238325Y215534D01*
X238328Y215543D01*
X238342Y215734D01*
X238359Y215927D01*
X238358Y215936D01*
X238359Y215944D01*
X238336Y216134D01*
X238314Y216327D01*
X238311Y216335D01*
X238310Y216344D01*
X238250Y216526D01*
X238191Y216710D01*
X238186Y216718D01*
X238184Y216726D01*
X238088Y216894D01*
X237994Y217062D01*
X237989Y217068D01*
X237984Y217076D01*
X237858Y217221D01*
X237733Y217367D01*
X237725Y217373D01*
X237720Y217380D01*
X237566Y217497D01*
X237416Y217616D01*
X237408Y217620D01*
X237400Y217625D01*
X237105Y217777D01*
X234726Y218762D01*
X231462Y222026D01*
X229695Y226292D01*
X229695Y230908D01*
X231462Y235174D01*
X234726Y238438D01*
X237105Y239423D01*
X237113Y239428D01*
X237122Y239430D01*
X237290Y239522D01*
X237460Y239614D01*
X237467Y239619D01*
X237475Y239624D01*
X237621Y239747D01*
X237771Y239870D01*
X237776Y239877D01*
X237783Y239883D01*
X237903Y240033D01*
X238024Y240183D01*
X238028Y240191D01*
X238034Y240197D01*
X238122Y240368D01*
X238211Y240539D01*
X238214Y240548D01*
X238218Y240556D01*
X238270Y240740D01*
X238324Y240926D01*
X238325Y240934D01*
X238328Y240943D01*
X238342Y241134D01*
X238359Y241327D01*
X238358Y241336D01*
X238359Y241344D01*
X238336Y241534D01*
X238314Y241727D01*
X238311Y241735D01*
X238310Y241744D01*
X238250Y241924D01*
X238191Y242110D01*
X238186Y242118D01*
X238184Y242126D01*
X238088Y242294D01*
X237994Y242462D01*
X237989Y242468D01*
X237984Y242476D01*
X237858Y242621D01*
X237733Y242767D01*
X237725Y242773D01*
X237720Y242780D01*
X237566Y242897D01*
X237416Y243016D01*
X237408Y243020D01*
X237400Y243025D01*
X237105Y243177D01*
X234726Y244162D01*
X231462Y247426D01*
X229695Y251692D01*
X229695Y256308D01*
X231462Y260574D01*
X234726Y263838D01*
X235597Y264199D01*
X237105Y264823D01*
X237113Y264828D01*
X237122Y264830D01*
X237290Y264922D01*
X237460Y265014D01*
X237467Y265019D01*
X237475Y265024D01*
X237621Y265147D01*
X237771Y265270D01*
X237776Y265277D01*
X237783Y265283D01*
X237903Y265433D01*
X238024Y265583D01*
X238028Y265591D01*
X238034Y265597D01*
X238122Y265768D01*
X238211Y265939D01*
X238214Y265948D01*
X238218Y265956D01*
X238270Y266140D01*
X238324Y266326D01*
X238325Y266334D01*
X238328Y266343D01*
X238342Y266534D01*
X238359Y266727D01*
X238358Y266736D01*
X238359Y266744D01*
X238336Y266934D01*
X238314Y267127D01*
X238311Y267135D01*
X238310Y267144D01*
X238250Y267326D01*
X238191Y267510D01*
X238186Y267518D01*
X238184Y267526D01*
X238088Y267694D01*
X237994Y267862D01*
X237989Y267868D01*
X237984Y267876D01*
X237858Y268021D01*
X237733Y268167D01*
X237725Y268173D01*
X237720Y268180D01*
X237566Y268297D01*
X237416Y268416D01*
X237408Y268420D01*
X237400Y268425D01*
X237105Y268577D01*
X234726Y269562D01*
X231462Y272826D01*
X229695Y277092D01*
X229695Y281708D01*
X231462Y285974D01*
X234726Y289238D01*
X237105Y290223D01*
X237113Y290228D01*
X237122Y290230D01*
X237290Y290322D01*
X237460Y290414D01*
X237467Y290419D01*
X237475Y290424D01*
X237621Y290547D01*
X237771Y290670D01*
X237776Y290677D01*
X237783Y290683D01*
X237903Y290833D01*
X238024Y290983D01*
X238028Y290991D01*
X238034Y290997D01*
X238122Y291168D01*
X238211Y291339D01*
X238214Y291348D01*
X238218Y291356D01*
X238270Y291540D01*
X238324Y291726D01*
X238325Y291734D01*
X238328Y291743D01*
X238342Y291934D01*
X238359Y292127D01*
X238358Y292136D01*
X238359Y292144D01*
X238336Y292334D01*
X238314Y292527D01*
X238311Y292535D01*
X238310Y292544D01*
X238251Y292723D01*
X238191Y292910D01*
X238186Y292918D01*
X238184Y292926D01*
X238088Y293094D01*
X237994Y293262D01*
X237989Y293268D01*
X237984Y293276D01*
X237858Y293421D01*
X237733Y293567D01*
X237725Y293573D01*
X237720Y293580D01*
X237566Y293697D01*
X237416Y293816D01*
X237408Y293820D01*
X237400Y293825D01*
X237105Y293977D01*
X234726Y294962D01*
X231462Y298226D01*
X229695Y302492D01*
X229695Y307108D01*
X231462Y311374D01*
X234726Y314638D01*
X237105Y315623D01*
X237113Y315628D01*
X237122Y315630D01*
X237290Y315722D01*
X237460Y315814D01*
X237467Y315819D01*
X237475Y315824D01*
X237621Y315947D01*
X237771Y316070D01*
X237776Y316077D01*
X237783Y316083D01*
X237903Y316233D01*
X238024Y316383D01*
X238028Y316391D01*
X238034Y316397D01*
X238122Y316568D01*
X238211Y316739D01*
X238214Y316748D01*
X238218Y316756D01*
X238270Y316940D01*
X238324Y317126D01*
X238325Y317134D01*
X238328Y317143D01*
X238342Y317334D01*
X238359Y317527D01*
X238358Y317536D01*
X238359Y317544D01*
X238336Y317734D01*
X238314Y317927D01*
X238311Y317935D01*
X238310Y317944D01*
X238250Y318126D01*
X238191Y318310D01*
X238186Y318318D01*
X238184Y318326D01*
X238088Y318494D01*
X237994Y318662D01*
X237989Y318668D01*
X237984Y318676D01*
X237858Y318821D01*
X237733Y318967D01*
X237725Y318973D01*
X237720Y318980D01*
X237566Y319097D01*
X237416Y319216D01*
X237408Y319220D01*
X237400Y319225D01*
X237105Y319377D01*
X234726Y320362D01*
X231462Y323626D01*
X229970Y327228D01*
X229966Y327236D01*
X229963Y327245D01*
X229870Y327414D01*
X229780Y327583D01*
X229774Y327590D01*
X229770Y327598D01*
X229647Y327744D01*
X229523Y327894D01*
X229516Y327899D01*
X229511Y327906D01*
X229362Y328025D01*
X229211Y328147D01*
X229203Y328151D01*
X229196Y328157D01*
X229025Y328245D01*
X228854Y328334D01*
X228846Y328337D01*
X228838Y328341D01*
X228653Y328393D01*
X228468Y328447D01*
X228459Y328448D01*
X228450Y328451D01*
X228259Y328465D01*
X228067Y328482D01*
X228058Y328481D01*
X228049Y328482D01*
X227858Y328458D01*
X227667Y328437D01*
X227658Y328434D01*
X227649Y328433D01*
X227468Y328373D01*
X227283Y328314D01*
X227275Y328309D01*
X227267Y328306D01*
X227101Y328212D01*
X226932Y328117D01*
X226925Y328112D01*
X226917Y328107D01*
X226772Y327981D01*
X226626Y327855D01*
X226621Y327848D01*
X226614Y327843D01*
X226497Y327690D01*
X226378Y327538D01*
X226374Y327530D01*
X226368Y327523D01*
X226217Y327228D01*
X224945Y324157D01*
X221943Y321155D01*
X218022Y319531D01*
X213778Y319531D01*
X209857Y321155D01*
X206856Y324157D01*
X206766Y324373D01*
X206755Y324393D01*
X206748Y324414D01*
X206660Y324570D01*
X206576Y324728D01*
X206561Y324745D01*
X206550Y324765D01*
X206433Y324901D01*
X206319Y325039D01*
X206302Y325053D01*
X206287Y325070D01*
X206146Y325179D01*
X206007Y325292D01*
X205987Y325303D01*
X205969Y325316D01*
X205809Y325396D01*
X205650Y325479D01*
X205629Y325486D01*
X205609Y325496D01*
X205435Y325542D01*
X205264Y325592D01*
X205241Y325594D01*
X205220Y325600D01*
X204889Y325627D01*
X138011Y325627D01*
X137989Y325625D01*
X137966Y325627D01*
X137789Y325605D01*
X137610Y325587D01*
X137589Y325581D01*
X137567Y325578D01*
X137397Y325522D01*
X137225Y325469D01*
X137206Y325459D01*
X137185Y325452D01*
X137029Y325363D01*
X136871Y325277D01*
X136854Y325263D01*
X136835Y325252D01*
X136700Y325135D01*
X136562Y325020D01*
X136548Y325002D01*
X136531Y324988D01*
X136422Y324846D01*
X136310Y324706D01*
X136299Y324686D01*
X136286Y324668D01*
X136134Y324373D01*
X136044Y324157D01*
X133043Y321155D01*
X129122Y319531D01*
X124878Y319531D01*
X120957Y321155D01*
X117955Y324157D01*
X116331Y328078D01*
X116331Y332322D01*
X117955Y336243D01*
X120957Y339245D01*
X124878Y340869D01*
X129122Y340869D01*
X133043Y339245D01*
X136044Y336243D01*
X136134Y336027D01*
X136145Y336007D01*
X136152Y335986D01*
X136240Y335830D01*
X136324Y335672D01*
X136339Y335655D01*
X136350Y335635D01*
X136467Y335499D01*
X136581Y335361D01*
X136598Y335347D01*
X136613Y335330D01*
X136754Y335221D01*
X136893Y335108D01*
X136913Y335097D01*
X136931Y335084D01*
X137091Y335004D01*
X137250Y334921D01*
X137271Y334914D01*
X137291Y334904D01*
X137465Y334858D01*
X137636Y334808D01*
X137659Y334806D01*
X137680Y334800D01*
X138011Y334773D01*
X204889Y334773D01*
X204911Y334775D01*
X204934Y334773D01*
X205111Y334795D01*
X205290Y334813D01*
X205311Y334819D01*
X205333Y334822D01*
X205503Y334878D01*
X205675Y334931D01*
X205694Y334941D01*
X205715Y334948D01*
X205871Y335037D01*
X206029Y335123D01*
X206046Y335137D01*
X206065Y335148D01*
X206200Y335265D01*
X206338Y335380D01*
X206352Y335398D01*
X206369Y335412D01*
X206478Y335554D01*
X206590Y335694D01*
X206601Y335714D01*
X206614Y335732D01*
X206766Y336027D01*
X206856Y336243D01*
X209857Y339245D01*
X213778Y340869D01*
X218022Y340869D01*
X221943Y339245D01*
X224945Y336243D01*
X226217Y333172D01*
X226221Y333164D01*
X226224Y333155D01*
X226316Y332987D01*
X226407Y332817D01*
X226413Y332810D01*
X226417Y332802D01*
X226540Y332656D01*
X226663Y332507D01*
X226670Y332501D01*
X226676Y332494D01*
X226826Y332374D01*
X226976Y332253D01*
X226984Y332249D01*
X226991Y332243D01*
X227163Y332155D01*
X227333Y332066D01*
X227341Y332063D01*
X227349Y332059D01*
X227534Y332007D01*
X227719Y331953D01*
X227728Y331952D01*
X227736Y331949D01*
X227927Y331935D01*
X228120Y331918D01*
X228129Y331919D01*
X228138Y331918D01*
X228329Y331942D01*
X228520Y331963D01*
X228529Y331966D01*
X228538Y331967D01*
X228721Y332028D01*
X228903Y332086D01*
X228911Y332091D01*
X228920Y332093D01*
X229088Y332189D01*
X229255Y332283D01*
X229262Y332288D01*
X229269Y332293D01*
X229415Y332419D01*
X229561Y332545D01*
X229566Y332552D01*
X229573Y332557D01*
X229689Y332709D01*
X229809Y332862D01*
X229813Y332870D01*
X229818Y332877D01*
X229970Y333172D01*
X231462Y336774D01*
X234726Y340038D01*
X237105Y341023D01*
X237113Y341028D01*
X237122Y341030D01*
X237290Y341122D01*
X237460Y341214D01*
X237467Y341219D01*
X237475Y341224D01*
X237621Y341347D01*
X237771Y341470D01*
X237776Y341477D01*
X237783Y341483D01*
X237903Y341633D01*
X238024Y341783D01*
X238028Y341791D01*
X238034Y341797D01*
X238122Y341968D01*
X238211Y342139D01*
X238214Y342148D01*
X238218Y342156D01*
X238270Y342340D01*
X238324Y342526D01*
X238325Y342534D01*
X238328Y342543D01*
X238342Y342734D01*
X238359Y342927D01*
X238358Y342936D01*
X238359Y342944D01*
X238336Y343134D01*
X238314Y343327D01*
X238311Y343335D01*
X238310Y343344D01*
X238250Y343526D01*
X238191Y343710D01*
X238186Y343718D01*
X238184Y343726D01*
X238088Y343894D01*
X237994Y344062D01*
X237989Y344068D01*
X237984Y344076D01*
X237858Y344221D01*
X237733Y344367D01*
X237725Y344373D01*
X237720Y344380D01*
X237566Y344497D01*
X237416Y344616D01*
X237408Y344620D01*
X237400Y344625D01*
X237105Y344777D01*
X234726Y345762D01*
X231462Y349026D01*
X229695Y353292D01*
X229695Y357908D01*
X231462Y362174D01*
X234726Y365438D01*
X237105Y366423D01*
X237113Y366428D01*
X237122Y366430D01*
X237290Y366522D01*
X237460Y366614D01*
X237467Y366619D01*
X237475Y366624D01*
X237621Y366747D01*
X237771Y366870D01*
X237776Y366877D01*
X237783Y366883D01*
X237903Y367033D01*
X238024Y367183D01*
X238028Y367191D01*
X238034Y367197D01*
X238122Y367368D01*
X238211Y367539D01*
X238214Y367548D01*
X238218Y367556D01*
X238270Y367740D01*
X238324Y367926D01*
X238325Y367934D01*
X238328Y367943D01*
X238342Y368134D01*
X238359Y368327D01*
X238358Y368336D01*
X238359Y368344D01*
X238336Y368534D01*
X238314Y368727D01*
X238311Y368735D01*
X238310Y368744D01*
X238250Y368926D01*
X238191Y369110D01*
X238186Y369118D01*
X238184Y369126D01*
X238088Y369294D01*
X237994Y369462D01*
X237989Y369468D01*
X237984Y369476D01*
X237858Y369621D01*
X237733Y369767D01*
X237725Y369773D01*
X237720Y369780D01*
X237566Y369897D01*
X237416Y370016D01*
X237408Y370020D01*
X237400Y370025D01*
X237105Y370177D01*
X234726Y371162D01*
X231462Y374426D01*
X229695Y378692D01*
X229695Y383308D01*
X231462Y387574D01*
X234726Y390838D01*
X237105Y391823D01*
X237113Y391828D01*
X237122Y391830D01*
X237290Y391922D01*
X237460Y392014D01*
X237467Y392019D01*
X237475Y392024D01*
X237621Y392147D01*
X237771Y392270D01*
X237776Y392277D01*
X237783Y392283D01*
X237903Y392433D01*
X238024Y392583D01*
X238028Y392591D01*
X238034Y392597D01*
X238122Y392768D01*
X238211Y392939D01*
X238214Y392948D01*
X238218Y392956D01*
X238270Y393140D01*
X238324Y393326D01*
X238325Y393334D01*
X238328Y393343D01*
X238342Y393534D01*
X238359Y393727D01*
X238358Y393736D01*
X238359Y393744D01*
X238336Y393934D01*
X238314Y394127D01*
X238311Y394135D01*
X238310Y394144D01*
X238250Y394326D01*
X238191Y394510D01*
X238186Y394518D01*
X238184Y394526D01*
X238088Y394694D01*
X237994Y394862D01*
X237989Y394868D01*
X237984Y394876D01*
X237858Y395021D01*
X237733Y395167D01*
X237725Y395173D01*
X237720Y395180D01*
X237566Y395297D01*
X237416Y395416D01*
X237408Y395420D01*
X237400Y395425D01*
X237105Y395577D01*
X234726Y396562D01*
X231462Y399826D01*
X229695Y404092D01*
X229695Y408708D01*
X231462Y412974D01*
X234726Y416238D01*
X237105Y417223D01*
X237113Y417228D01*
X237122Y417230D01*
X237290Y417322D01*
X237460Y417414D01*
X237467Y417419D01*
X237475Y417424D01*
X237621Y417547D01*
X237771Y417670D01*
X237776Y417677D01*
X237783Y417683D01*
X237903Y417833D01*
X238024Y417983D01*
X238028Y417991D01*
X238034Y417997D01*
X238122Y418168D01*
X238211Y418339D01*
X238214Y418348D01*
X238218Y418356D01*
X238270Y418540D01*
X238324Y418726D01*
X238325Y418734D01*
X238328Y418743D01*
X238342Y418934D01*
X238359Y419127D01*
X238358Y419136D01*
X238359Y419144D01*
X238336Y419334D01*
X238314Y419527D01*
X238311Y419535D01*
X238310Y419544D01*
X238250Y419726D01*
X238191Y419910D01*
X238186Y419918D01*
X238184Y419926D01*
X238088Y420094D01*
X237994Y420262D01*
X237989Y420268D01*
X237984Y420276D01*
X237859Y420420D01*
X237733Y420567D01*
X237725Y420573D01*
X237720Y420580D01*
X237566Y420697D01*
X237416Y420816D01*
X237408Y420820D01*
X237400Y420825D01*
X237105Y420977D01*
X234726Y421962D01*
X231462Y425226D01*
X229695Y429492D01*
X229695Y434108D01*
X231462Y438374D01*
X234726Y441638D01*
X237105Y442623D01*
X237113Y442628D01*
X237122Y442630D01*
X237290Y442722D01*
X237460Y442814D01*
X237467Y442819D01*
X237475Y442824D01*
X237621Y442947D01*
X237771Y443070D01*
X237776Y443077D01*
X237783Y443083D01*
X237903Y443233D01*
X238024Y443383D01*
X238028Y443391D01*
X238034Y443397D01*
X238122Y443568D01*
X238211Y443739D01*
X238214Y443748D01*
X238218Y443756D01*
X238270Y443940D01*
X238324Y444126D01*
X238325Y444134D01*
X238328Y444143D01*
X238342Y444334D01*
X238359Y444527D01*
X238358Y444536D01*
X238359Y444544D01*
X238336Y444734D01*
X238314Y444927D01*
X238311Y444935D01*
X238310Y444944D01*
X238250Y445126D01*
X238191Y445310D01*
X238186Y445318D01*
X238184Y445326D01*
X238088Y445494D01*
X237994Y445662D01*
X237989Y445668D01*
X237984Y445676D01*
X237858Y445821D01*
X237733Y445967D01*
X237725Y445973D01*
X237720Y445980D01*
X237566Y446097D01*
X237416Y446216D01*
X237408Y446220D01*
X237400Y446225D01*
X237105Y446377D01*
X234726Y447362D01*
X231462Y450626D01*
X229695Y454892D01*
X229695Y459508D01*
X231462Y463774D01*
X234726Y467038D01*
X235416Y467324D01*
X237105Y468023D01*
X237113Y468028D01*
X237122Y468030D01*
X237291Y468123D01*
X237460Y468214D01*
X237467Y468219D01*
X237475Y468224D01*
X237622Y468347D01*
X237771Y468470D01*
X237776Y468477D01*
X237783Y468483D01*
X237904Y468634D01*
X238024Y468783D01*
X238028Y468790D01*
X238034Y468798D01*
X238123Y468971D01*
X238211Y469139D01*
X238214Y469148D01*
X238218Y469156D01*
X238271Y469342D01*
X238324Y469526D01*
X238325Y469535D01*
X238328Y469543D01*
X238342Y469734D01*
X238359Y469927D01*
X238358Y469936D01*
X238359Y469944D01*
X238335Y470136D01*
X238314Y470327D01*
X238311Y470335D01*
X238310Y470344D01*
X238250Y470527D01*
X238191Y470710D01*
X238186Y470718D01*
X238184Y470726D01*
X238088Y470893D01*
X237994Y471062D01*
X237989Y471068D01*
X237984Y471076D01*
X237859Y471220D01*
X237733Y471367D01*
X237725Y471373D01*
X237720Y471380D01*
X237567Y471497D01*
X237416Y471616D01*
X237408Y471620D01*
X237400Y471625D01*
X237105Y471777D01*
X234726Y472762D01*
X231462Y476026D01*
X229695Y480292D01*
X229695Y484908D01*
X231462Y489174D01*
X234726Y492438D01*
X237846Y493730D01*
X238992Y494205D01*
X243608Y494205D01*
X247874Y492438D01*
X251138Y489174D01*
X252905Y484908D01*
X252905Y480292D01*
X251138Y476026D01*
X247874Y472762D01*
X245495Y471777D01*
X245487Y471772D01*
X245478Y471770D01*
X245311Y471678D01*
X245140Y471586D01*
X245133Y471581D01*
X245125Y471576D01*
X244978Y471453D01*
X244829Y471330D01*
X244824Y471323D01*
X244817Y471317D01*
X244697Y471167D01*
X244576Y471017D01*
X244572Y471009D01*
X244566Y471003D01*
X244478Y470832D01*
X244389Y470661D01*
X244386Y470652D01*
X244382Y470644D01*
X244330Y470461D01*
X244276Y470275D01*
X244275Y470265D01*
X244272Y470257D01*
X244258Y470066D01*
X244241Y469873D01*
X244242Y469864D01*
X244241Y469856D01*
X244264Y469666D01*
X244286Y469473D01*
X244289Y469465D01*
X244290Y469456D01*
X244350Y469276D01*
X244409Y469090D01*
X244414Y469082D01*
X244416Y469074D01*
X244511Y468908D01*
X244606Y468739D01*
X244611Y468732D01*
X244616Y468724D01*
X244742Y468579D01*
X244867Y468433D01*
X244874Y468427D01*
X244880Y468420D01*
X245033Y468303D01*
X245184Y468184D01*
X245192Y468180D01*
X245200Y468175D01*
X245495Y468023D01*
X247874Y467038D01*
X251138Y463774D01*
X252905Y459508D01*
X252905Y454892D01*
X251138Y450626D01*
X247874Y447362D01*
X245495Y446377D01*
X245487Y446372D01*
X245478Y446370D01*
X245308Y446277D01*
X245140Y446186D01*
X245133Y446181D01*
X245125Y446176D01*
X244977Y446052D01*
X244829Y445930D01*
X244824Y445923D01*
X244817Y445917D01*
X244697Y445767D01*
X244576Y445617D01*
X244572Y445609D01*
X244566Y445602D01*
X244479Y445433D01*
X244389Y445261D01*
X244386Y445252D01*
X244382Y445244D01*
X244330Y445062D01*
X244276Y444874D01*
X244275Y444865D01*
X244272Y444857D01*
X244257Y444664D01*
X244241Y444473D01*
X244242Y444464D01*
X244241Y444456D01*
X244265Y444264D01*
X244286Y444073D01*
X244289Y444065D01*
X244290Y444056D01*
X244350Y443874D01*
X244409Y443690D01*
X244414Y443682D01*
X244416Y443674D01*
X244513Y443504D01*
X244606Y443338D01*
X244611Y443332D01*
X244616Y443324D01*
X244743Y443178D01*
X244867Y443033D01*
X244875Y443027D01*
X244880Y443020D01*
X245033Y442903D01*
X245185Y442784D01*
X245193Y442780D01*
X245200Y442775D01*
X245495Y442623D01*
X247874Y441638D01*
X249909Y439602D01*
X249920Y439594D01*
X249928Y439584D01*
X250075Y439466D01*
X250221Y439347D01*
X250232Y439341D01*
X250243Y439333D01*
X250412Y439246D01*
X250576Y439159D01*
X250589Y439155D01*
X250601Y439149D01*
X250783Y439097D01*
X250962Y439044D01*
X250976Y439043D01*
X250989Y439039D01*
X251175Y439025D01*
X251363Y439008D01*
X251377Y439009D01*
X251390Y439008D01*
X251575Y439030D01*
X251764Y439051D01*
X251776Y439055D01*
X251790Y439057D01*
X251967Y439115D01*
X252147Y439172D01*
X252159Y439179D01*
X252172Y439183D01*
X252335Y439276D01*
X252500Y439367D01*
X252510Y439376D01*
X252522Y439383D01*
X252663Y439506D01*
X252807Y439628D01*
X252815Y439638D01*
X252825Y439647D01*
X252940Y439796D01*
X253056Y439944D01*
X253062Y439956D01*
X253071Y439966D01*
X253222Y440261D01*
X253368Y440613D01*
X254654Y441900D01*
X256335Y442596D01*
X258154Y442596D01*
X259924Y441862D01*
X259950Y441855D01*
X259974Y441843D01*
X260143Y441796D01*
X260310Y441746D01*
X260336Y441743D01*
X260362Y441736D01*
X260537Y441724D01*
X260710Y441708D01*
X260737Y441711D01*
X260764Y441709D01*
X260937Y441731D01*
X261111Y441749D01*
X261136Y441757D01*
X261163Y441761D01*
X261479Y441862D01*
X263249Y442596D01*
X265068Y442596D01*
X266749Y441900D01*
X267516Y441133D01*
X267636Y441034D01*
X267751Y440931D01*
X267791Y440907D01*
X267828Y440877D01*
X267965Y440805D01*
X268098Y440726D01*
X268142Y440711D01*
X268183Y440689D01*
X268332Y440645D01*
X268478Y440594D01*
X268524Y440587D01*
X268569Y440574D01*
X268724Y440560D01*
X268877Y440539D01*
X268924Y440542D01*
X268970Y440538D01*
X269125Y440554D01*
X269279Y440564D01*
X269324Y440576D01*
X269370Y440581D01*
X269518Y440628D01*
X269668Y440668D01*
X269716Y440690D01*
X269754Y440703D01*
X269830Y440744D01*
X269968Y440810D01*
X273062Y442596D01*
X273714Y442596D01*
X273715Y442596D01*
X275028Y442596D01*
X276333Y442596D01*
X276612Y442596D01*
X279616Y441594D01*
X280784Y440719D01*
X280848Y440679D01*
X280907Y440633D01*
X281020Y440576D01*
X281128Y440510D01*
X281199Y440485D01*
X281266Y440450D01*
X281388Y440416D01*
X281507Y440374D01*
X281581Y440363D01*
X281654Y440342D01*
X281780Y440333D01*
X281905Y440315D01*
X281980Y440319D01*
X282056Y440313D01*
X282181Y440329D01*
X282307Y440335D01*
X282380Y440354D01*
X282455Y440363D01*
X282575Y440404D01*
X282697Y440435D01*
X282765Y440468D01*
X282837Y440492D01*
X282946Y440555D01*
X283060Y440609D01*
X283120Y440655D01*
X283186Y440693D01*
X283312Y440799D01*
X283381Y440852D01*
X283405Y440878D01*
X283439Y440907D01*
X284431Y441900D01*
X286112Y442596D01*
X292445Y442596D01*
X295851Y440629D01*
X296288Y439872D01*
X296336Y439806D01*
X296375Y439734D01*
X296453Y439643D01*
X296522Y439545D01*
X296583Y439489D01*
X296636Y439427D01*
X296730Y439353D01*
X296817Y439271D01*
X296887Y439228D01*
X296952Y439177D01*
X297058Y439123D01*
X297160Y439060D01*
X297237Y439032D01*
X297311Y438995D01*
X297426Y438963D01*
X297538Y438921D01*
X297619Y438909D01*
X297698Y438887D01*
X297818Y438878D01*
X297936Y438860D01*
X298018Y438863D01*
X298100Y438857D01*
X298219Y438872D01*
X298338Y438878D01*
X298418Y438898D01*
X298499Y438908D01*
X298613Y438946D01*
X298729Y438975D01*
X298803Y439010D01*
X298881Y439036D01*
X298985Y439096D01*
X299093Y439147D01*
X299159Y439196D01*
X299230Y439237D01*
X299347Y439336D01*
X299416Y439388D01*
X299443Y439418D01*
X299483Y439452D01*
X301737Y441706D01*
X306032Y443485D01*
X328968Y443485D01*
X333263Y441706D01*
X336550Y438419D01*
X338329Y434124D01*
X338329Y429476D01*
X336550Y425181D01*
X333263Y421894D01*
X331048Y420977D01*
X331040Y420972D01*
X331031Y420970D01*
X330861Y420877D01*
X330693Y420786D01*
X330686Y420781D01*
X330678Y420776D01*
X330530Y420652D01*
X330382Y420530D01*
X330377Y420523D01*
X330370Y420517D01*
X330250Y420367D01*
X330129Y420217D01*
X330125Y420209D01*
X330119Y420202D01*
X330031Y420032D01*
X329942Y419861D01*
X329939Y419852D01*
X329935Y419844D01*
X329883Y419662D01*
X329829Y419474D01*
X329828Y419465D01*
X329825Y419457D01*
X329811Y419266D01*
X329794Y419073D01*
X329795Y419064D01*
X329794Y419056D01*
X329818Y418865D01*
X329839Y418673D01*
X329842Y418665D01*
X329843Y418656D01*
X329903Y418474D01*
X329962Y418290D01*
X329967Y418282D01*
X329970Y418274D01*
X330065Y418106D01*
X330159Y417938D01*
X330164Y417932D01*
X330169Y417924D01*
X330296Y417778D01*
X330421Y417633D01*
X330428Y417627D01*
X330433Y417620D01*
X330586Y417503D01*
X330738Y417384D01*
X330746Y417380D01*
X330753Y417375D01*
X331048Y417223D01*
X333263Y416306D01*
X336550Y413019D01*
X338329Y408724D01*
X338329Y404076D01*
X336550Y399781D01*
X333263Y396494D01*
X331862Y395914D01*
X331048Y395577D01*
X331040Y395572D01*
X331031Y395570D01*
X330861Y395477D01*
X330693Y395386D01*
X330686Y395381D01*
X330678Y395376D01*
X330530Y395252D01*
X330382Y395130D01*
X330377Y395123D01*
X330370Y395117D01*
X330250Y394967D01*
X330129Y394817D01*
X330125Y394809D01*
X330119Y394802D01*
X330032Y394633D01*
X329942Y394461D01*
X329939Y394452D01*
X329935Y394444D01*
X329883Y394262D01*
X329829Y394074D01*
X329828Y394065D01*
X329825Y394057D01*
X329811Y393866D01*
X329794Y393673D01*
X329795Y393664D01*
X329794Y393656D01*
X329818Y393465D01*
X329839Y393273D01*
X329842Y393265D01*
X329843Y393256D01*
X329903Y393074D01*
X329962Y392890D01*
X329967Y392882D01*
X329970Y392874D01*
X330065Y392706D01*
X330159Y392538D01*
X330164Y392532D01*
X330169Y392524D01*
X330296Y392378D01*
X330421Y392233D01*
X330428Y392227D01*
X330433Y392220D01*
X330586Y392103D01*
X330738Y391984D01*
X330746Y391980D01*
X330753Y391975D01*
X331048Y391823D01*
X333263Y390906D01*
X336550Y387619D01*
X338329Y383324D01*
X338329Y378676D01*
X336550Y374381D01*
X333263Y371094D01*
X331048Y370177D01*
X331040Y370172D01*
X331031Y370170D01*
X330861Y370077D01*
X330693Y369986D01*
X330686Y369981D01*
X330678Y369976D01*
X330530Y369852D01*
X330382Y369730D01*
X330377Y369723D01*
X330370Y369717D01*
X330250Y369567D01*
X330129Y369417D01*
X330125Y369409D01*
X330119Y369402D01*
X330032Y369233D01*
X329942Y369061D01*
X329939Y369052D01*
X329935Y369044D01*
X329883Y368862D01*
X329829Y368674D01*
X329828Y368665D01*
X329825Y368657D01*
X329811Y368466D01*
X329794Y368273D01*
X329795Y368264D01*
X329794Y368256D01*
X329818Y368065D01*
X329839Y367873D01*
X329842Y367865D01*
X329843Y367856D01*
X329903Y367674D01*
X329962Y367490D01*
X329967Y367482D01*
X329970Y367474D01*
X330065Y367306D01*
X330159Y367138D01*
X330164Y367132D01*
X330169Y367124D01*
X330296Y366978D01*
X330421Y366833D01*
X330428Y366827D01*
X330433Y366820D01*
X330586Y366703D01*
X330738Y366584D01*
X330746Y366580D01*
X330753Y366575D01*
X331048Y366423D01*
X333263Y365506D01*
X336550Y362219D01*
X338329Y357924D01*
X338329Y353276D01*
X336550Y348981D01*
X333263Y345694D01*
X331048Y344777D01*
X331040Y344772D01*
X331031Y344770D01*
X330861Y344677D01*
X330693Y344586D01*
X330686Y344581D01*
X330678Y344576D01*
X330530Y344452D01*
X330382Y344330D01*
X330377Y344323D01*
X330370Y344317D01*
X330250Y344167D01*
X330129Y344017D01*
X330125Y344009D01*
X330119Y344002D01*
X330032Y343833D01*
X329942Y343661D01*
X329939Y343652D01*
X329935Y343644D01*
X329883Y343462D01*
X329829Y343274D01*
X329828Y343265D01*
X329825Y343257D01*
X329811Y343066D01*
X329794Y342873D01*
X329795Y342864D01*
X329794Y342856D01*
X329818Y342665D01*
X329839Y342473D01*
X329842Y342465D01*
X329843Y342456D01*
X329903Y342274D01*
X329962Y342090D01*
X329967Y342082D01*
X329970Y342074D01*
X330065Y341906D01*
X330159Y341738D01*
X330164Y341732D01*
X330169Y341724D01*
X330296Y341578D01*
X330421Y341433D01*
X330428Y341427D01*
X330433Y341420D01*
X330586Y341303D01*
X330738Y341184D01*
X330746Y341180D01*
X330753Y341175D01*
X331048Y341023D01*
X333263Y340106D01*
X336550Y336819D01*
X338329Y332524D01*
X338329Y327876D01*
X336550Y323581D01*
X333263Y320294D01*
X331048Y319377D01*
X331040Y319372D01*
X331031Y319370D01*
X330861Y319277D01*
X330693Y319186D01*
X330686Y319181D01*
X330678Y319176D01*
X330530Y319052D01*
X330382Y318930D01*
X330377Y318923D01*
X330370Y318917D01*
X330250Y318767D01*
X330129Y318617D01*
X330125Y318609D01*
X330119Y318602D01*
X330032Y318433D01*
X329942Y318261D01*
X329939Y318252D01*
X329935Y318244D01*
X329883Y318062D01*
X329829Y317874D01*
X329828Y317865D01*
X329825Y317857D01*
X329811Y317666D01*
X329794Y317473D01*
X329795Y317464D01*
X329794Y317456D01*
X329818Y317265D01*
X329839Y317073D01*
X329842Y317065D01*
X329843Y317056D01*
X329903Y316874D01*
X329962Y316690D01*
X329967Y316682D01*
X329970Y316674D01*
X330065Y316506D01*
X330159Y316338D01*
X330164Y316332D01*
X330169Y316324D01*
X330296Y316178D01*
X330421Y316033D01*
X330428Y316027D01*
X330433Y316020D01*
X330586Y315903D01*
X330738Y315784D01*
X330746Y315780D01*
X330753Y315775D01*
X331048Y315623D01*
X333263Y314706D01*
X336550Y311419D01*
X338329Y307124D01*
X338329Y302476D01*
X336550Y298181D01*
X333263Y294894D01*
X331100Y293998D01*
X331021Y293956D01*
X330938Y293923D01*
X330844Y293861D01*
X330745Y293808D01*
X330676Y293751D01*
X330601Y293702D01*
X330521Y293623D01*
X330434Y293552D01*
X330378Y293482D01*
X330314Y293419D01*
X330252Y293326D01*
X330181Y293239D01*
X330139Y293160D01*
X330089Y293086D01*
X330046Y292982D01*
X329994Y292882D01*
X329969Y292797D01*
X329934Y292714D01*
X329912Y292604D01*
X329881Y292496D01*
X329873Y292407D01*
X329855Y292319D01*
X329856Y292207D01*
X329846Y292095D01*
X329856Y292006D01*
X329856Y291917D01*
X329879Y291806D01*
X329891Y291695D01*
X329918Y291610D01*
X329936Y291522D01*
X329980Y291419D01*
X330014Y291311D01*
X330058Y291233D01*
X330093Y291151D01*
X330156Y291058D01*
X330211Y290960D01*
X330269Y290892D01*
X330319Y290818D01*
X330399Y290740D01*
X330472Y290654D01*
X330543Y290599D01*
X330607Y290536D01*
X330701Y290475D01*
X330789Y290406D01*
X330869Y290366D01*
X330944Y290317D01*
X331008Y290290D01*
X332768Y289394D01*
X334256Y288313D01*
X335557Y287012D01*
X336638Y285524D01*
X337473Y283886D01*
X338041Y282136D01*
X338072Y281939D01*
X318008Y281939D01*
X317990Y281937D01*
X317973Y281939D01*
X317790Y281918D01*
X317608Y281899D01*
X317591Y281894D01*
X317573Y281892D01*
X317495Y281867D01*
X317358Y281906D01*
X317340Y281908D01*
X317323Y281912D01*
X316992Y281939D01*
X296928Y281939D01*
X296959Y282136D01*
X297527Y283886D01*
X298362Y285524D01*
X299443Y287012D01*
X300744Y288313D01*
X302232Y289394D01*
X303915Y290251D01*
X303917Y290252D01*
X303927Y290257D01*
X304013Y290301D01*
X304030Y290312D01*
X304119Y290351D01*
X304192Y290402D01*
X304270Y290445D01*
X304356Y290518D01*
X304448Y290582D01*
X304510Y290647D01*
X304578Y290704D01*
X304648Y290792D01*
X304726Y290874D01*
X304773Y290949D01*
X304829Y291019D01*
X304880Y291119D01*
X304941Y291215D01*
X304972Y291298D01*
X305013Y291377D01*
X305044Y291486D01*
X305084Y291591D01*
X305098Y291679D01*
X305123Y291765D01*
X305131Y291877D01*
X305150Y291988D01*
X305147Y292077D01*
X305154Y292166D01*
X305140Y292278D01*
X305136Y292390D01*
X305116Y292477D01*
X305105Y292566D01*
X305070Y292672D01*
X305044Y292782D01*
X305007Y292863D01*
X304979Y292948D01*
X304923Y293046D01*
X304876Y293148D01*
X304823Y293220D01*
X304779Y293298D01*
X304705Y293383D01*
X304639Y293474D01*
X304573Y293534D01*
X304515Y293601D01*
X304425Y293670D01*
X304342Y293746D01*
X304266Y293792D01*
X304195Y293847D01*
X304070Y293911D01*
X303998Y293955D01*
X303954Y293970D01*
X303900Y293998D01*
X301737Y294894D01*
X298450Y298181D01*
X296671Y302476D01*
X296671Y307124D01*
X298450Y311419D01*
X301737Y314706D01*
X303952Y315623D01*
X303960Y315628D01*
X303969Y315630D01*
X304137Y315722D01*
X304307Y315814D01*
X304314Y315819D01*
X304322Y315824D01*
X304468Y315947D01*
X304617Y316070D01*
X304623Y316077D01*
X304630Y316083D01*
X304750Y316233D01*
X304871Y316383D01*
X304875Y316391D01*
X304881Y316397D01*
X304969Y316568D01*
X305058Y316739D01*
X305061Y316748D01*
X305065Y316756D01*
X305117Y316940D01*
X305171Y317126D01*
X305172Y317134D01*
X305175Y317143D01*
X305189Y317334D01*
X305206Y317527D01*
X305205Y317536D01*
X305206Y317544D01*
X305183Y317734D01*
X305161Y317927D01*
X305158Y317935D01*
X305157Y317944D01*
X305097Y318126D01*
X305038Y318310D01*
X305033Y318318D01*
X305031Y318326D01*
X304935Y318494D01*
X304841Y318662D01*
X304836Y318668D01*
X304831Y318676D01*
X304705Y318821D01*
X304579Y318967D01*
X304572Y318973D01*
X304567Y318980D01*
X304413Y319097D01*
X304262Y319216D01*
X304255Y319220D01*
X304247Y319225D01*
X303952Y319377D01*
X301737Y320294D01*
X298450Y323581D01*
X296671Y327876D01*
X296671Y332524D01*
X298450Y336819D01*
X301737Y340106D01*
X303952Y341023D01*
X303960Y341028D01*
X303969Y341030D01*
X304137Y341122D01*
X304307Y341214D01*
X304314Y341219D01*
X304322Y341224D01*
X304468Y341347D01*
X304617Y341470D01*
X304623Y341477D01*
X304630Y341483D01*
X304750Y341633D01*
X304871Y341783D01*
X304875Y341791D01*
X304881Y341797D01*
X304969Y341968D01*
X305058Y342139D01*
X305061Y342148D01*
X305065Y342156D01*
X305117Y342340D01*
X305171Y342526D01*
X305172Y342534D01*
X305175Y342543D01*
X305189Y342734D01*
X305206Y342927D01*
X305205Y342936D01*
X305206Y342944D01*
X305183Y343134D01*
X305161Y343327D01*
X305158Y343335D01*
X305157Y343344D01*
X305097Y343526D01*
X305038Y343710D01*
X305033Y343718D01*
X305031Y343726D01*
X304935Y343894D01*
X304841Y344062D01*
X304836Y344068D01*
X304831Y344076D01*
X304705Y344221D01*
X304579Y344367D01*
X304572Y344373D01*
X304567Y344380D01*
X304413Y344497D01*
X304262Y344616D01*
X304255Y344620D01*
X304247Y344625D01*
X303952Y344777D01*
X301737Y345694D01*
X298450Y348981D01*
X296671Y353276D01*
X296671Y357924D01*
X298450Y362219D01*
X301737Y365506D01*
X303952Y366423D01*
X303960Y366428D01*
X303969Y366430D01*
X304137Y366522D01*
X304307Y366614D01*
X304314Y366619D01*
X304322Y366624D01*
X304468Y366747D01*
X304617Y366870D01*
X304623Y366877D01*
X304630Y366883D01*
X304750Y367033D01*
X304871Y367183D01*
X304875Y367191D01*
X304881Y367197D01*
X304969Y367368D01*
X305058Y367539D01*
X305061Y367548D01*
X305065Y367556D01*
X305117Y367740D01*
X305171Y367926D01*
X305172Y367934D01*
X305175Y367943D01*
X305189Y368134D01*
X305206Y368327D01*
X305205Y368336D01*
X305206Y368344D01*
X305183Y368534D01*
X305161Y368727D01*
X305158Y368735D01*
X305157Y368744D01*
X305097Y368926D01*
X305038Y369110D01*
X305033Y369118D01*
X305031Y369126D01*
X304935Y369294D01*
X304841Y369462D01*
X304836Y369468D01*
X304831Y369476D01*
X304705Y369621D01*
X304579Y369767D01*
X304572Y369773D01*
X304567Y369780D01*
X304413Y369897D01*
X304262Y370016D01*
X304255Y370020D01*
X304247Y370025D01*
X303952Y370177D01*
X301737Y371094D01*
X298450Y374381D01*
X296671Y378676D01*
X296671Y383324D01*
X298450Y387619D01*
X301737Y390906D01*
X303952Y391823D01*
X303960Y391828D01*
X303969Y391830D01*
X304137Y391922D01*
X304307Y392014D01*
X304314Y392019D01*
X304322Y392024D01*
X304468Y392147D01*
X304617Y392270D01*
X304623Y392277D01*
X304630Y392283D01*
X304750Y392433D01*
X304871Y392583D01*
X304875Y392591D01*
X304881Y392597D01*
X304969Y392768D01*
X305058Y392939D01*
X305061Y392948D01*
X305065Y392956D01*
X305117Y393140D01*
X305171Y393326D01*
X305172Y393334D01*
X305175Y393343D01*
X305189Y393534D01*
X305206Y393727D01*
X305205Y393736D01*
X305206Y393744D01*
X305183Y393934D01*
X305161Y394127D01*
X305158Y394135D01*
X305157Y394144D01*
X305097Y394326D01*
X305038Y394510D01*
X305033Y394518D01*
X305031Y394526D01*
X304935Y394694D01*
X304841Y394862D01*
X304836Y394868D01*
X304831Y394876D01*
X304705Y395021D01*
X304579Y395167D01*
X304572Y395173D01*
X304567Y395180D01*
X304413Y395297D01*
X304262Y395416D01*
X304255Y395420D01*
X304247Y395425D01*
X303952Y395577D01*
X301737Y396494D01*
X298450Y399781D01*
X296671Y404076D01*
X296671Y408724D01*
X298450Y413019D01*
X301737Y416306D01*
X303952Y417223D01*
X303960Y417228D01*
X303969Y417230D01*
X304137Y417322D01*
X304307Y417414D01*
X304314Y417419D01*
X304322Y417424D01*
X304468Y417547D01*
X304617Y417670D01*
X304623Y417677D01*
X304630Y417683D01*
X304750Y417833D01*
X304871Y417983D01*
X304875Y417991D01*
X304881Y417997D01*
X304969Y418168D01*
X305058Y418339D01*
X305061Y418348D01*
X305065Y418356D01*
X305117Y418540D01*
X305171Y418726D01*
X305172Y418734D01*
X305175Y418743D01*
X305189Y418934D01*
X305206Y419127D01*
X305205Y419136D01*
X305206Y419144D01*
X305183Y419334D01*
X305161Y419527D01*
X305158Y419535D01*
X305157Y419544D01*
X305097Y419726D01*
X305038Y419910D01*
X305033Y419918D01*
X305031Y419926D01*
X304935Y420094D01*
X304841Y420262D01*
X304836Y420268D01*
X304831Y420276D01*
X304706Y420420D01*
X304579Y420567D01*
X304572Y420573D01*
X304567Y420580D01*
X304413Y420697D01*
X304262Y420816D01*
X304255Y420820D01*
X304247Y420825D01*
X303952Y420977D01*
X301737Y421894D01*
X299736Y423895D01*
X299673Y423947D01*
X299616Y424006D01*
X299517Y424074D01*
X299425Y424150D01*
X299352Y424189D01*
X299284Y424235D01*
X299174Y424283D01*
X299069Y424339D01*
X298990Y424362D01*
X298915Y424395D01*
X298798Y424420D01*
X298683Y424454D01*
X298601Y424461D01*
X298521Y424478D01*
X298401Y424479D01*
X298282Y424490D01*
X298200Y424481D01*
X298118Y424482D01*
X298001Y424460D01*
X297882Y424447D01*
X297803Y424422D01*
X297723Y424406D01*
X297612Y424361D01*
X297498Y424325D01*
X297426Y424285D01*
X297350Y424254D01*
X297250Y424188D01*
X297146Y424130D01*
X297083Y424077D01*
X297014Y424032D01*
X296930Y423947D01*
X296839Y423870D01*
X296788Y423805D01*
X296729Y423747D01*
X296642Y423622D01*
X296589Y423554D01*
X296571Y423518D01*
X296541Y423474D01*
X296357Y423156D01*
X292630Y421004D01*
X286112Y421004D01*
X284431Y421700D01*
X283632Y422499D01*
X283512Y422598D01*
X283397Y422701D01*
X283357Y422725D01*
X283321Y422754D01*
X283183Y422827D01*
X283050Y422906D01*
X283006Y422921D01*
X282965Y422943D01*
X282816Y422987D01*
X282670Y423038D01*
X282624Y423045D01*
X282579Y423058D01*
X282424Y423072D01*
X282271Y423093D01*
X282224Y423090D01*
X282178Y423094D01*
X282024Y423078D01*
X281869Y423068D01*
X281824Y423056D01*
X281778Y423051D01*
X281630Y423004D01*
X281480Y422964D01*
X281433Y422942D01*
X281394Y422929D01*
X281318Y422887D01*
X281180Y422822D01*
X278031Y421004D01*
X274752Y421004D01*
X274751Y421004D01*
X273982Y421004D01*
X270136Y422607D01*
X269560Y423188D01*
X269494Y423243D01*
X269433Y423305D01*
X269339Y423371D01*
X269250Y423444D01*
X269174Y423485D01*
X269102Y423534D01*
X268996Y423580D01*
X268895Y423634D01*
X268812Y423659D01*
X268733Y423693D01*
X268620Y423717D01*
X268509Y423750D01*
X268423Y423759D01*
X268339Y423776D01*
X268223Y423778D01*
X268109Y423788D01*
X268023Y423779D01*
X267936Y423780D01*
X267823Y423759D01*
X267708Y423747D01*
X267626Y423721D01*
X267541Y423705D01*
X267434Y423661D01*
X267324Y423627D01*
X267248Y423585D01*
X267168Y423553D01*
X267072Y423489D01*
X266971Y423433D01*
X266905Y423378D01*
X266832Y423330D01*
X266765Y423263D01*
X262853Y421004D01*
X258550Y421004D01*
X254823Y423156D01*
X254040Y424512D01*
X253992Y424579D01*
X253952Y424651D01*
X253875Y424742D01*
X253805Y424839D01*
X253745Y424895D01*
X253692Y424958D01*
X253598Y425032D01*
X253510Y425114D01*
X253440Y425157D01*
X253376Y425208D01*
X253269Y425262D01*
X253167Y425324D01*
X253090Y425353D01*
X253017Y425390D01*
X252902Y425422D01*
X252790Y425463D01*
X252708Y425476D01*
X252629Y425498D01*
X252510Y425507D01*
X252392Y425525D01*
X252310Y425521D01*
X252228Y425527D01*
X252109Y425512D01*
X251989Y425507D01*
X251910Y425487D01*
X251828Y425477D01*
X251715Y425439D01*
X251599Y425410D01*
X251525Y425375D01*
X251447Y425349D01*
X251343Y425289D01*
X251235Y425238D01*
X251169Y425189D01*
X251098Y425148D01*
X250981Y425049D01*
X250912Y424997D01*
X250885Y424967D01*
X250845Y424933D01*
X247874Y421962D01*
X245495Y420977D01*
X245487Y420972D01*
X245478Y420970D01*
X245308Y420877D01*
X245140Y420786D01*
X245133Y420781D01*
X245125Y420776D01*
X244977Y420652D01*
X244829Y420530D01*
X244824Y420523D01*
X244817Y420517D01*
X244697Y420367D01*
X244576Y420217D01*
X244572Y420209D01*
X244566Y420202D01*
X244478Y420032D01*
X244389Y419861D01*
X244386Y419852D01*
X244382Y419844D01*
X244330Y419662D01*
X244276Y419474D01*
X244275Y419465D01*
X244272Y419457D01*
X244258Y419266D01*
X244241Y419073D01*
X244242Y419064D01*
X244241Y419056D01*
X244265Y418865D01*
X244286Y418673D01*
X244289Y418665D01*
X244290Y418656D01*
X244350Y418474D01*
X244409Y418290D01*
X244414Y418282D01*
X244416Y418274D01*
X244512Y418106D01*
X244606Y417938D01*
X244611Y417932D01*
X244616Y417924D01*
X244743Y417778D01*
X244867Y417633D01*
X244875Y417627D01*
X244880Y417620D01*
X245033Y417503D01*
X245185Y417384D01*
X245193Y417380D01*
X245200Y417375D01*
X245495Y417223D01*
X247874Y416238D01*
X251138Y412974D01*
X252905Y408708D01*
X252905Y404092D01*
X251138Y399826D01*
X247874Y396562D01*
X246309Y395914D01*
X245495Y395577D01*
X245487Y395572D01*
X245478Y395570D01*
X245308Y395477D01*
X245140Y395386D01*
X245133Y395381D01*
X245125Y395376D01*
X244977Y395252D01*
X244829Y395130D01*
X244824Y395123D01*
X244817Y395117D01*
X244697Y394967D01*
X244576Y394817D01*
X244572Y394809D01*
X244566Y394802D01*
X244479Y394633D01*
X244389Y394461D01*
X244386Y394452D01*
X244382Y394444D01*
X244330Y394262D01*
X244276Y394074D01*
X244275Y394065D01*
X244272Y394057D01*
X244258Y393866D01*
X244241Y393673D01*
X244242Y393664D01*
X244241Y393656D01*
X244265Y393465D01*
X244286Y393273D01*
X244289Y393265D01*
X244290Y393256D01*
X244350Y393074D01*
X244409Y392890D01*
X244414Y392882D01*
X244416Y392874D01*
X244512Y392706D01*
X244606Y392538D01*
X244611Y392532D01*
X244616Y392524D01*
X244743Y392378D01*
X244867Y392233D01*
X244875Y392227D01*
X244880Y392220D01*
X245033Y392103D01*
X245185Y391984D01*
X245193Y391980D01*
X245200Y391975D01*
X245495Y391823D01*
X247874Y390838D01*
X251138Y387574D01*
X252905Y383308D01*
X252905Y378692D01*
X251138Y374426D01*
X247874Y371162D01*
X245495Y370177D01*
X245487Y370172D01*
X245478Y370170D01*
X245308Y370077D01*
X245140Y369986D01*
X245133Y369981D01*
X245125Y369976D01*
X244977Y369852D01*
X244829Y369730D01*
X244824Y369723D01*
X244817Y369717D01*
X244697Y369567D01*
X244576Y369417D01*
X244572Y369409D01*
X244566Y369402D01*
X244479Y369233D01*
X244389Y369061D01*
X244386Y369052D01*
X244382Y369044D01*
X244330Y368862D01*
X244276Y368674D01*
X244275Y368665D01*
X244272Y368657D01*
X244258Y368466D01*
X244241Y368273D01*
X244242Y368264D01*
X244241Y368256D01*
X244265Y368065D01*
X244286Y367873D01*
X244289Y367865D01*
X244290Y367856D01*
X244350Y367674D01*
X244409Y367490D01*
X244414Y367482D01*
X244416Y367474D01*
X244512Y367306D01*
X244606Y367138D01*
X244611Y367132D01*
X244616Y367124D01*
X244743Y366978D01*
X244867Y366833D01*
X244875Y366827D01*
X244880Y366820D01*
X245033Y366703D01*
X245185Y366584D01*
X245193Y366580D01*
X245200Y366575D01*
X245495Y366423D01*
X247874Y365438D01*
X251138Y362174D01*
X252905Y357908D01*
X252905Y353292D01*
X251138Y349026D01*
X247874Y345762D01*
X245495Y344777D01*
X245487Y344772D01*
X245478Y344770D01*
X245308Y344677D01*
X245140Y344586D01*
X245133Y344581D01*
X245125Y344576D01*
X244977Y344452D01*
X244829Y344330D01*
X244824Y344323D01*
X244817Y344317D01*
X244697Y344167D01*
X244576Y344017D01*
X244572Y344009D01*
X244566Y344002D01*
X244479Y343833D01*
X244389Y343661D01*
X244386Y343652D01*
X244382Y343644D01*
X244330Y343462D01*
X244276Y343274D01*
X244275Y343265D01*
X244272Y343257D01*
X244258Y343066D01*
X244241Y342873D01*
X244242Y342864D01*
X244241Y342856D01*
X244265Y342665D01*
X244286Y342473D01*
X244289Y342465D01*
X244290Y342456D01*
X244350Y342274D01*
X244409Y342090D01*
X244414Y342082D01*
X244416Y342074D01*
X244512Y341906D01*
X244606Y341738D01*
X244611Y341732D01*
X244616Y341724D01*
X244743Y341578D01*
X244867Y341433D01*
X244875Y341427D01*
X244880Y341420D01*
X245033Y341303D01*
X245185Y341184D01*
X245193Y341180D01*
X245200Y341175D01*
X245495Y341023D01*
X247874Y340038D01*
X251138Y336774D01*
X252905Y332508D01*
X252905Y327892D01*
X251138Y323626D01*
X247874Y320362D01*
X245495Y319377D01*
X245487Y319372D01*
X245478Y319370D01*
X245308Y319277D01*
X245140Y319186D01*
X245133Y319181D01*
X245125Y319176D01*
X244977Y319052D01*
X244829Y318930D01*
X244824Y318923D01*
X244817Y318917D01*
X244697Y318767D01*
X244576Y318617D01*
X244572Y318609D01*
X244566Y318602D01*
X244479Y318433D01*
X244389Y318261D01*
X244386Y318252D01*
X244382Y318244D01*
X244330Y318062D01*
X244276Y317874D01*
X244275Y317865D01*
X244272Y317857D01*
X244258Y317666D01*
X244241Y317473D01*
X244242Y317464D01*
X244241Y317456D01*
X244265Y317265D01*
X244286Y317073D01*
X244289Y317065D01*
X244290Y317056D01*
X244350Y316874D01*
X244409Y316690D01*
X244414Y316682D01*
X244416Y316674D01*
X244512Y316506D01*
X244606Y316338D01*
X244611Y316332D01*
X244616Y316324D01*
X244743Y316178D01*
X244867Y316033D01*
X244875Y316027D01*
X244880Y316020D01*
X245033Y315903D01*
X245185Y315784D01*
X245193Y315780D01*
X245200Y315775D01*
X245495Y315623D01*
X247874Y314638D01*
X251138Y311374D01*
X252905Y307108D01*
X252905Y302492D01*
X251138Y298226D01*
X247874Y294962D01*
X245495Y293977D01*
X245487Y293972D01*
X245478Y293970D01*
X245308Y293877D01*
X245140Y293786D01*
X245133Y293781D01*
X245125Y293776D01*
X244977Y293652D01*
X244829Y293530D01*
X244824Y293523D01*
X244817Y293517D01*
X244697Y293367D01*
X244576Y293217D01*
X244572Y293209D01*
X244566Y293202D01*
X244479Y293033D01*
X244389Y292861D01*
X244386Y292852D01*
X244382Y292844D01*
X244330Y292662D01*
X244276Y292474D01*
X244275Y292465D01*
X244272Y292457D01*
X244258Y292266D01*
X244241Y292073D01*
X244242Y292064D01*
X244241Y292056D01*
X244265Y291863D01*
X244286Y291673D01*
X244289Y291665D01*
X244290Y291656D01*
X244350Y291474D01*
X244409Y291290D01*
X244414Y291282D01*
X244416Y291274D01*
X244512Y291106D01*
X244606Y290938D01*
X244611Y290932D01*
X244616Y290924D01*
X244743Y290778D01*
X244867Y290633D01*
X244875Y290627D01*
X244880Y290620D01*
X245033Y290503D01*
X245185Y290384D01*
X245193Y290380D01*
X245200Y290375D01*
X245495Y290223D01*
X247874Y289238D01*
X251138Y285974D01*
X252905Y281708D01*
X252905Y277092D01*
X251138Y272826D01*
X247874Y269562D01*
X245495Y268577D01*
X245487Y268572D01*
X245478Y268570D01*
X245308Y268477D01*
X245140Y268386D01*
X245133Y268381D01*
X245125Y268376D01*
X244977Y268252D01*
X244829Y268130D01*
X244824Y268123D01*
X244817Y268117D01*
X244697Y267967D01*
X244576Y267817D01*
X244572Y267809D01*
X244566Y267802D01*
X244479Y267633D01*
X244389Y267461D01*
X244386Y267452D01*
X244382Y267444D01*
X244330Y267262D01*
X244276Y267074D01*
X244275Y267065D01*
X244272Y267057D01*
X244258Y266866D01*
X244241Y266673D01*
X244242Y266664D01*
X244241Y266656D01*
X244265Y266463D01*
X244286Y266273D01*
X244289Y266265D01*
X244290Y266256D01*
X244350Y266074D01*
X244409Y265890D01*
X244414Y265882D01*
X244416Y265874D01*
X244512Y265706D01*
X244606Y265538D01*
X244611Y265532D01*
X244616Y265524D01*
X244743Y265378D01*
X244867Y265233D01*
X244875Y265227D01*
X244880Y265220D01*
X245033Y265103D01*
X245185Y264984D01*
X245193Y264980D01*
X245200Y264975D01*
X245495Y264823D01*
X247874Y263838D01*
X251138Y260574D01*
X252905Y256308D01*
X252905Y251692D01*
X251138Y247426D01*
X247874Y244162D01*
X245495Y243177D01*
X245487Y243172D01*
X245478Y243170D01*
X245308Y243077D01*
X245140Y242986D01*
X245133Y242981D01*
X245125Y242976D01*
X244977Y242852D01*
X244829Y242730D01*
X244824Y242723D01*
X244817Y242717D01*
X244697Y242567D01*
X244576Y242417D01*
X244572Y242409D01*
X244566Y242402D01*
X244479Y242233D01*
X244389Y242061D01*
X244386Y242052D01*
X244382Y242044D01*
X244330Y241862D01*
X244276Y241674D01*
X244275Y241665D01*
X244272Y241657D01*
X244258Y241466D01*
X244241Y241273D01*
X244242Y241264D01*
X244241Y241256D01*
X244265Y241065D01*
X244286Y240873D01*
X244289Y240865D01*
X244290Y240856D01*
X244350Y240674D01*
X244409Y240490D01*
X244414Y240482D01*
X244416Y240474D01*
X244512Y240306D01*
X244606Y240138D01*
X244611Y240132D01*
X244616Y240124D01*
X244744Y239977D01*
X244867Y239833D01*
X244875Y239827D01*
X244880Y239820D01*
X245033Y239703D01*
X245185Y239584D01*
X245193Y239580D01*
X245200Y239575D01*
X245495Y239423D01*
X247874Y238438D01*
X251138Y235174D01*
X252905Y230908D01*
X252905Y226292D01*
X251138Y222026D01*
X247874Y218762D01*
X245495Y217777D01*
X245487Y217772D01*
X245478Y217770D01*
X245308Y217677D01*
X245140Y217586D01*
X245133Y217581D01*
X245125Y217576D01*
X244977Y217452D01*
X244829Y217330D01*
X244824Y217323D01*
X244817Y217317D01*
X244697Y217167D01*
X244576Y217017D01*
X244572Y217009D01*
X244566Y217002D01*
X244479Y216833D01*
X244389Y216661D01*
X244386Y216652D01*
X244382Y216644D01*
X244330Y216462D01*
X244276Y216274D01*
X244275Y216265D01*
X244272Y216257D01*
X244258Y216066D01*
X244241Y215873D01*
X244242Y215864D01*
X244241Y215856D01*
X244265Y215665D01*
X244286Y215473D01*
X244289Y215465D01*
X244290Y215456D01*
X244350Y215274D01*
X244409Y215090D01*
X244414Y215082D01*
X244416Y215074D01*
X244512Y214906D01*
X244606Y214738D01*
X244611Y214732D01*
X244616Y214724D01*
X244743Y214578D01*
X244867Y214433D01*
X244875Y214427D01*
X244880Y214420D01*
X245033Y214303D01*
X245185Y214184D01*
X245193Y214180D01*
X245200Y214175D01*
X245495Y214023D01*
X247874Y213038D01*
X251138Y209774D01*
X252630Y206172D01*
X252634Y206164D01*
X252637Y206155D01*
X252729Y205987D01*
X252820Y205817D01*
X252826Y205810D01*
X252830Y205802D01*
X252953Y205656D01*
X253077Y205507D01*
X253083Y205501D01*
X253089Y205494D01*
X253239Y205374D01*
X253389Y205253D01*
X253397Y205249D01*
X253404Y205243D01*
X253576Y205155D01*
X253746Y205066D01*
X253754Y205063D01*
X253762Y205059D01*
X253947Y205007D01*
X254132Y204953D01*
X254141Y204952D01*
X254150Y204949D01*
X254341Y204935D01*
X254533Y204918D01*
X254542Y204919D01*
X254551Y204918D01*
X254742Y204942D01*
X254933Y204963D01*
X254942Y204966D01*
X254951Y204967D01*
X255134Y205028D01*
X255317Y205086D01*
X255324Y205091D01*
X255333Y205093D01*
X255501Y205189D01*
X255668Y205283D01*
X255675Y205288D01*
X255683Y205293D01*
X255828Y205419D01*
X255974Y205545D01*
X255979Y205552D01*
X255986Y205557D01*
X256104Y205711D01*
X256222Y205862D01*
X256226Y205869D01*
X256232Y205877D01*
X256383Y206172D01*
X257655Y209243D01*
X260657Y212245D01*
X264578Y213869D01*
X268822Y213869D01*
X272743Y212245D01*
X275745Y209243D01*
X277269Y205562D01*
X277271Y205558D01*
X277273Y205554D01*
X277368Y205378D01*
X277460Y205207D01*
X277462Y205204D01*
X277465Y205200D01*
X277591Y205049D01*
X277716Y204897D01*
X277720Y204894D01*
X277722Y204890D01*
X277875Y204768D01*
X278029Y204643D01*
X278033Y204641D01*
X278036Y204638D01*
X278211Y204547D01*
X278385Y204456D01*
X278389Y204455D01*
X278393Y204453D01*
X278583Y204398D01*
X278772Y204343D01*
X278776Y204342D01*
X278780Y204341D01*
X278978Y204325D01*
X279173Y204308D01*
X279177Y204309D01*
X279182Y204308D01*
X279379Y204332D01*
X279573Y204353D01*
X279577Y204355D01*
X279581Y204355D01*
X279770Y204417D01*
X279956Y204477D01*
X279960Y204479D01*
X279964Y204480D01*
X280137Y204578D01*
X280308Y204673D01*
X280311Y204676D01*
X280315Y204678D01*
X280464Y204806D01*
X280613Y204935D01*
X280616Y204938D01*
X280620Y204941D01*
X280739Y205095D01*
X280862Y205252D01*
X280864Y205256D01*
X280866Y205259D01*
X280954Y205436D01*
X281042Y205611D01*
X281044Y205616D01*
X281046Y205620D01*
X281097Y205813D01*
X281149Y206000D01*
X281149Y206004D01*
X281150Y206009D01*
X281177Y206339D01*
X281177Y217589D01*
X281175Y217611D01*
X281177Y217634D01*
X281155Y217811D01*
X281137Y217990D01*
X281131Y218011D01*
X281128Y218033D01*
X281072Y218203D01*
X281019Y218375D01*
X281009Y218394D01*
X281002Y218415D01*
X280913Y218571D01*
X280827Y218729D01*
X280813Y218746D01*
X280802Y218765D01*
X280685Y218900D01*
X280570Y219038D01*
X280552Y219052D01*
X280538Y219069D01*
X280396Y219178D01*
X280256Y219290D01*
X280236Y219301D01*
X280218Y219314D01*
X279923Y219466D01*
X279707Y219556D01*
X276705Y222557D01*
X275081Y226478D01*
X275081Y230722D01*
X276705Y234643D01*
X279707Y237645D01*
X283628Y239269D01*
X287872Y239269D01*
X291793Y237645D01*
X294795Y234643D01*
X296419Y230722D01*
X296419Y226478D01*
X294795Y222557D01*
X291793Y219556D01*
X291577Y219466D01*
X291557Y219455D01*
X291536Y219448D01*
X291380Y219360D01*
X291222Y219276D01*
X291205Y219261D01*
X291185Y219250D01*
X291049Y219133D01*
X290911Y219019D01*
X290897Y219002D01*
X290880Y218987D01*
X290770Y218845D01*
X290658Y218707D01*
X290647Y218687D01*
X290634Y218669D01*
X290554Y218509D01*
X290471Y218350D01*
X290464Y218329D01*
X290454Y218309D01*
X290408Y218135D01*
X290358Y217964D01*
X290356Y217941D01*
X290350Y217920D01*
X290323Y217589D01*
X290323Y87211D01*
X290325Y87189D01*
X290323Y87166D01*
X290345Y86989D01*
X290363Y86810D01*
X290369Y86789D01*
X290372Y86767D01*
X290428Y86597D01*
X290481Y86425D01*
X290491Y86406D01*
X290498Y86385D01*
X290587Y86229D01*
X290673Y86071D01*
X290687Y86054D01*
X290698Y86035D01*
X290815Y85900D01*
X290930Y85762D01*
X290948Y85748D01*
X290962Y85731D01*
X291104Y85622D01*
X291244Y85510D01*
X291264Y85499D01*
X291282Y85486D01*
X291577Y85334D01*
X291793Y85244D01*
X295061Y81977D01*
X295072Y81968D01*
X295080Y81958D01*
X295227Y81841D01*
X295373Y81722D01*
X295385Y81715D01*
X295395Y81707D01*
X295563Y81620D01*
X295729Y81533D01*
X295741Y81529D01*
X295753Y81523D01*
X295935Y81471D01*
X296114Y81418D01*
X296128Y81417D01*
X296141Y81413D01*
X296327Y81399D01*
X296515Y81382D01*
X296529Y81383D01*
X296542Y81382D01*
X296727Y81405D01*
X296916Y81425D01*
X296929Y81429D01*
X296942Y81431D01*
X297120Y81490D01*
X297299Y81547D01*
X297311Y81553D01*
X297324Y81557D01*
X297488Y81651D01*
X297652Y81741D01*
X297662Y81750D01*
X297674Y81757D01*
X297816Y81881D01*
X297959Y82002D01*
X297967Y82012D01*
X297977Y82021D01*
X298092Y82170D01*
X298208Y82318D01*
X298215Y82330D01*
X298223Y82340D01*
X298374Y82636D01*
X298450Y82819D01*
X301737Y86106D01*
X303952Y87023D01*
X303960Y87028D01*
X303969Y87030D01*
X304136Y87122D01*
X304307Y87214D01*
X304314Y87219D01*
X304322Y87224D01*
X304469Y87347D01*
X304618Y87470D01*
X304623Y87477D01*
X304630Y87483D01*
X304750Y87633D01*
X304871Y87783D01*
X304875Y87791D01*
X304881Y87797D01*
X304969Y87968D01*
X305058Y88139D01*
X305061Y88148D01*
X305065Y88156D01*
X305117Y88339D01*
X305171Y88525D01*
X305172Y88535D01*
X305175Y88543D01*
X305189Y88734D01*
X305206Y88927D01*
X305205Y88936D01*
X305206Y88944D01*
X305183Y89134D01*
X305161Y89327D01*
X305158Y89335D01*
X305157Y89344D01*
X305097Y89526D01*
X305038Y89710D01*
X305033Y89718D01*
X305031Y89726D01*
X304935Y89894D01*
X304841Y90061D01*
X304836Y90068D01*
X304831Y90076D01*
X304705Y90221D01*
X304580Y90367D01*
X304572Y90373D01*
X304567Y90380D01*
X304414Y90497D01*
X304263Y90616D01*
X304254Y90620D01*
X304247Y90625D01*
X303952Y90777D01*
X301737Y91694D01*
X298450Y94981D01*
X296671Y99276D01*
X296671Y103924D01*
X298450Y108219D01*
X301737Y111506D01*
X303952Y112423D01*
X303960Y112428D01*
X303969Y112430D01*
X304136Y112522D01*
X304307Y112614D01*
X304314Y112619D01*
X304322Y112624D01*
X304469Y112747D01*
X304618Y112870D01*
X304623Y112877D01*
X304630Y112883D01*
X304750Y113033D01*
X304871Y113183D01*
X304875Y113191D01*
X304881Y113197D01*
X304969Y113368D01*
X305058Y113539D01*
X305061Y113548D01*
X305065Y113556D01*
X305117Y113739D01*
X305171Y113925D01*
X305172Y113935D01*
X305175Y113943D01*
X305189Y114134D01*
X305206Y114327D01*
X305205Y114336D01*
X305206Y114344D01*
X305183Y114534D01*
X305161Y114727D01*
X305158Y114735D01*
X305157Y114744D01*
X305097Y114926D01*
X305038Y115110D01*
X305033Y115118D01*
X305031Y115126D01*
X304935Y115294D01*
X304841Y115461D01*
X304836Y115468D01*
X304831Y115476D01*
X304705Y115621D01*
X304580Y115767D01*
X304572Y115773D01*
X304567Y115780D01*
X304414Y115897D01*
X304263Y116016D01*
X304254Y116020D01*
X304247Y116025D01*
X303952Y116177D01*
X301737Y117094D01*
X298450Y120381D01*
X296671Y124676D01*
X296671Y129324D01*
X298450Y133619D01*
X301737Y136906D01*
X303952Y137823D01*
X303960Y137828D01*
X303969Y137830D01*
X304136Y137922D01*
X304307Y138014D01*
X304314Y138019D01*
X304322Y138024D01*
X304469Y138147D01*
X304618Y138270D01*
X304623Y138277D01*
X304630Y138283D01*
X304750Y138433D01*
X304871Y138583D01*
X304875Y138591D01*
X304881Y138597D01*
X304969Y138768D01*
X305058Y138939D01*
X305061Y138948D01*
X305065Y138956D01*
X305117Y139139D01*
X305171Y139325D01*
X305172Y139335D01*
X305175Y139343D01*
X305189Y139534D01*
X305206Y139727D01*
X305205Y139736D01*
X305206Y139744D01*
X305183Y139934D01*
X305161Y140127D01*
X305158Y140135D01*
X305157Y140144D01*
X305097Y140326D01*
X305038Y140510D01*
X305033Y140518D01*
X305031Y140526D01*
X304935Y140694D01*
X304841Y140861D01*
X304836Y140868D01*
X304831Y140876D01*
X304705Y141021D01*
X304580Y141167D01*
X304572Y141173D01*
X304567Y141180D01*
X304414Y141297D01*
X304263Y141416D01*
X304254Y141420D01*
X304247Y141425D01*
X303952Y141577D01*
X301737Y142494D01*
X298450Y145781D01*
X296671Y150076D01*
X296671Y154724D01*
X298450Y159019D01*
X301737Y162306D01*
X303952Y163223D01*
X303960Y163228D01*
X303969Y163230D01*
X304136Y163322D01*
X304307Y163414D01*
X304314Y163419D01*
X304322Y163424D01*
X304469Y163547D01*
X304618Y163670D01*
X304623Y163677D01*
X304630Y163683D01*
X304750Y163833D01*
X304871Y163983D01*
X304875Y163991D01*
X304881Y163997D01*
X304969Y164168D01*
X305058Y164339D01*
X305061Y164348D01*
X305065Y164356D01*
X305117Y164539D01*
X305171Y164725D01*
X305172Y164735D01*
X305175Y164743D01*
X305189Y164934D01*
X305206Y165127D01*
X305205Y165136D01*
X305206Y165144D01*
X305183Y165334D01*
X305161Y165527D01*
X305158Y165535D01*
X305157Y165544D01*
X305097Y165726D01*
X305038Y165910D01*
X305033Y165918D01*
X305031Y165926D01*
X304935Y166094D01*
X304841Y166261D01*
X304836Y166268D01*
X304831Y166276D01*
X304705Y166421D01*
X304580Y166567D01*
X304572Y166573D01*
X304567Y166580D01*
X304414Y166697D01*
X304263Y166816D01*
X304254Y166820D01*
X304247Y166825D01*
X303952Y166977D01*
X301737Y167894D01*
X298450Y171181D01*
X296671Y175476D01*
X296671Y180124D01*
X298450Y184419D01*
X301737Y187706D01*
X303952Y188623D01*
X303960Y188628D01*
X303969Y188630D01*
X304136Y188722D01*
X304307Y188814D01*
X304314Y188819D01*
X304322Y188824D01*
X304469Y188947D01*
X304618Y189070D01*
X304623Y189077D01*
X304630Y189083D01*
X304750Y189233D01*
X304871Y189383D01*
X304875Y189391D01*
X304881Y189397D01*
X304969Y189568D01*
X305058Y189739D01*
X305061Y189748D01*
X305065Y189756D01*
X305117Y189938D01*
X305171Y190125D01*
X305172Y190135D01*
X305175Y190143D01*
X305189Y190334D01*
X305206Y190527D01*
X305205Y190536D01*
X305206Y190544D01*
X305183Y190733D01*
X305161Y190927D01*
X305158Y190935D01*
X305157Y190944D01*
X305097Y191126D01*
X305038Y191310D01*
X305033Y191318D01*
X305031Y191326D01*
X304935Y191494D01*
X304841Y191661D01*
X304836Y191668D01*
X304831Y191676D01*
X304705Y191821D01*
X304580Y191967D01*
X304572Y191973D01*
X304567Y191980D01*
X304414Y192097D01*
X304263Y192216D01*
X304254Y192220D01*
X304247Y192225D01*
X303952Y192377D01*
X301737Y193294D01*
X298450Y196581D01*
X296671Y200876D01*
X296671Y205524D01*
X298450Y209819D01*
X301737Y213106D01*
X306032Y214885D01*
X328968Y214885D01*
X333263Y213106D01*
X336550Y209819D01*
X338329Y205524D01*
X338329Y200876D01*
X336550Y196581D01*
X333263Y193294D01*
X331048Y192377D01*
X331040Y192372D01*
X331031Y192370D01*
X330862Y192277D01*
X330693Y192186D01*
X330686Y192181D01*
X330678Y192176D01*
X330531Y192053D01*
X330382Y191930D01*
X330377Y191923D01*
X330370Y191917D01*
X330249Y191766D01*
X330129Y191617D01*
X330125Y191610D01*
X330119Y191602D01*
X330030Y191429D01*
X329942Y191261D01*
X329939Y191252D01*
X329935Y191244D01*
X329882Y191058D01*
X329829Y190874D01*
X329828Y190865D01*
X329825Y190857D01*
X329811Y190666D01*
X329794Y190473D01*
X329795Y190464D01*
X329794Y190456D01*
X329818Y190264D01*
X329839Y190073D01*
X329842Y190065D01*
X329843Y190056D01*
X329903Y189873D01*
X329962Y189690D01*
X329967Y189682D01*
X329969Y189674D01*
X330065Y189507D01*
X330159Y189338D01*
X330165Y189332D01*
X330169Y189324D01*
X330295Y189180D01*
X330420Y189033D01*
X330428Y189027D01*
X330433Y189020D01*
X330586Y188903D01*
X330738Y188784D01*
X330745Y188780D01*
X330753Y188775D01*
X331048Y188623D01*
X333263Y187706D01*
X336550Y184419D01*
X338329Y180124D01*
X338329Y175476D01*
X336550Y171181D01*
X333263Y167894D01*
X331048Y166977D01*
X331040Y166972D01*
X331031Y166970D01*
X330862Y166877D01*
X330693Y166786D01*
X330686Y166781D01*
X330678Y166776D01*
X330531Y166653D01*
X330382Y166530D01*
X330377Y166523D01*
X330370Y166517D01*
X330249Y166366D01*
X330129Y166217D01*
X330125Y166210D01*
X330119Y166202D01*
X330030Y166029D01*
X329942Y165861D01*
X329939Y165852D01*
X329935Y165844D01*
X329882Y165658D01*
X329829Y165474D01*
X329828Y165465D01*
X329825Y165457D01*
X329811Y165266D01*
X329794Y165073D01*
X329795Y165064D01*
X329794Y165056D01*
X329818Y164864D01*
X329839Y164673D01*
X329842Y164665D01*
X329843Y164656D01*
X329903Y164473D01*
X329962Y164290D01*
X329967Y164282D01*
X329969Y164274D01*
X330065Y164107D01*
X330159Y163938D01*
X330165Y163932D01*
X330169Y163924D01*
X330295Y163780D01*
X330420Y163633D01*
X330428Y163627D01*
X330433Y163620D01*
X330586Y163503D01*
X330738Y163384D01*
X330745Y163380D01*
X330753Y163375D01*
X331048Y163223D01*
X333263Y162306D01*
X336550Y159019D01*
X338329Y154724D01*
X338329Y150076D01*
X336550Y145781D01*
X333263Y142494D01*
X332089Y142008D01*
X332088Y142008D01*
X331048Y141577D01*
X331040Y141572D01*
X331031Y141570D01*
X330862Y141477D01*
X330693Y141386D01*
X330686Y141381D01*
X330678Y141376D01*
X330531Y141253D01*
X330382Y141130D01*
X330377Y141123D01*
X330370Y141117D01*
X330249Y140966D01*
X330129Y140817D01*
X330125Y140810D01*
X330119Y140802D01*
X330030Y140629D01*
X329942Y140461D01*
X329939Y140452D01*
X329935Y140444D01*
X329882Y140258D01*
X329829Y140074D01*
X329828Y140065D01*
X329825Y140057D01*
X329811Y139866D01*
X329794Y139673D01*
X329795Y139664D01*
X329794Y139656D01*
X329818Y139464D01*
X329839Y139273D01*
X329842Y139265D01*
X329843Y139256D01*
X329903Y139073D01*
X329962Y138890D01*
X329967Y138882D01*
X329969Y138874D01*
X330065Y138707D01*
X330159Y138538D01*
X330165Y138532D01*
X330169Y138524D01*
X330295Y138380D01*
X330420Y138233D01*
X330428Y138227D01*
X330433Y138220D01*
X330586Y138103D01*
X330738Y137984D01*
X330745Y137980D01*
X330753Y137975D01*
X331048Y137823D01*
X333263Y136906D01*
X336550Y133619D01*
X338329Y129324D01*
X338329Y124676D01*
X336550Y120381D01*
X333263Y117094D01*
X331048Y116177D01*
X331040Y116172D01*
X331031Y116170D01*
X330862Y116077D01*
X330693Y115986D01*
X330686Y115981D01*
X330678Y115976D01*
X330531Y115853D01*
X330382Y115730D01*
X330377Y115723D01*
X330370Y115717D01*
X330249Y115566D01*
X330129Y115417D01*
X330125Y115410D01*
X330119Y115402D01*
X330030Y115229D01*
X329942Y115061D01*
X329939Y115052D01*
X329935Y115044D01*
X329882Y114858D01*
X329829Y114674D01*
X329828Y114665D01*
X329825Y114657D01*
X329811Y114466D01*
X329794Y114273D01*
X329795Y114264D01*
X329794Y114256D01*
X329818Y114064D01*
X329839Y113873D01*
X329842Y113865D01*
X329843Y113856D01*
X329903Y113673D01*
X329962Y113490D01*
X329967Y113482D01*
X329969Y113474D01*
X330065Y113307D01*
X330159Y113138D01*
X330165Y113132D01*
X330169Y113124D01*
X330295Y112980D01*
X330420Y112833D01*
X330428Y112827D01*
X330433Y112820D01*
X330586Y112703D01*
X330738Y112584D01*
X330745Y112580D01*
X330753Y112575D01*
X331048Y112423D01*
X333263Y111506D01*
X336550Y108219D01*
X338329Y103924D01*
X338329Y99276D01*
X336550Y94981D01*
X333263Y91694D01*
X331048Y90777D01*
X331040Y90772D01*
X331031Y90770D01*
X330862Y90677D01*
X330693Y90586D01*
X330686Y90581D01*
X330678Y90576D01*
X330531Y90453D01*
X330382Y90330D01*
X330377Y90323D01*
X330370Y90317D01*
X330249Y90166D01*
X330129Y90017D01*
X330125Y90010D01*
X330119Y90002D01*
X330030Y89829D01*
X329942Y89661D01*
X329939Y89652D01*
X329935Y89644D01*
X329882Y89458D01*
X329829Y89274D01*
X329828Y89265D01*
X329825Y89257D01*
X329811Y89066D01*
X329794Y88873D01*
X329795Y88864D01*
X329794Y88856D01*
X329818Y88664D01*
X329839Y88473D01*
X329842Y88465D01*
X329843Y88456D01*
X329903Y88273D01*
X329962Y88090D01*
X329967Y88082D01*
X329969Y88074D01*
X330065Y87907D01*
X330159Y87738D01*
X330165Y87732D01*
X330169Y87724D01*
X330295Y87580D01*
X330420Y87433D01*
X330428Y87427D01*
X330433Y87420D01*
X330586Y87303D01*
X330738Y87184D01*
X330745Y87180D01*
X330753Y87175D01*
X331048Y87023D01*
X333263Y86106D01*
X336550Y82819D01*
X338329Y78524D01*
X338329Y73876D01*
X336550Y69581D01*
X333263Y66294D01*
X331048Y65377D01*
X331040Y65372D01*
X331031Y65370D01*
X330862Y65277D01*
X330693Y65186D01*
X330686Y65181D01*
X330678Y65176D01*
X330531Y65053D01*
X330382Y64930D01*
X330377Y64923D01*
X330370Y64917D01*
X330249Y64766D01*
X330129Y64617D01*
X330125Y64610D01*
X330119Y64602D01*
X330030Y64429D01*
X329942Y64261D01*
X329939Y64252D01*
X329935Y64244D01*
X329882Y64057D01*
X329829Y63874D01*
X329828Y63865D01*
X329825Y63857D01*
X329811Y63666D01*
X329794Y63473D01*
X329795Y63464D01*
X329794Y63456D01*
X329818Y63264D01*
X329839Y63073D01*
X329842Y63065D01*
X329843Y63056D01*
X329903Y62873D01*
X329962Y62690D01*
X329967Y62682D01*
X329969Y62674D01*
X330065Y62507D01*
X330159Y62338D01*
X330165Y62332D01*
X330169Y62324D01*
X330295Y62180D01*
X330420Y62033D01*
X330428Y62027D01*
X330433Y62020D01*
X330586Y61903D01*
X330738Y61784D01*
X330745Y61780D01*
X330753Y61775D01*
X331048Y61623D01*
X333263Y60706D01*
X336550Y57419D01*
X338329Y53124D01*
X338329Y48476D01*
X336550Y44181D01*
X333263Y40894D01*
X332179Y40445D01*
X331100Y39998D01*
X331021Y39956D01*
X330938Y39923D01*
X330844Y39861D01*
X330745Y39808D01*
X330676Y39751D01*
X330601Y39702D01*
X330521Y39623D01*
X330434Y39552D01*
X330378Y39482D01*
X330314Y39419D01*
X330252Y39326D01*
X330181Y39239D01*
X330139Y39160D01*
X330089Y39086D01*
X330046Y38982D01*
X329994Y38882D01*
X329969Y38797D01*
X329934Y38714D01*
X329912Y38604D01*
X329881Y38496D01*
X329873Y38407D01*
X329855Y38319D01*
X329856Y38207D01*
X329846Y38095D01*
X329856Y38006D01*
X329856Y37917D01*
X329879Y37806D01*
X329891Y37695D01*
X329918Y37610D01*
X329936Y37522D01*
X329980Y37419D01*
X330014Y37311D01*
X330058Y37233D01*
X330093Y37151D01*
X330156Y37058D01*
X330211Y36960D01*
X330269Y36892D01*
X330319Y36818D01*
X330399Y36740D01*
X330472Y36654D01*
X330543Y36599D01*
X330607Y36536D01*
X330701Y36475D01*
X330789Y36406D01*
X330869Y36366D01*
X330944Y36317D01*
X331008Y36290D01*
X332768Y35394D01*
X334256Y34313D01*
X335557Y33012D01*
X336638Y31524D01*
X337473Y29886D01*
X338041Y28136D01*
X338072Y27939D01*
X318008Y27939D01*
X317990Y27937D01*
X317973Y27939D01*
X317790Y27918D01*
X317608Y27899D01*
X317591Y27894D01*
X317573Y27892D01*
X317495Y27867D01*
X317358Y27906D01*
G37*
%LPD*%
%LPC*%
G36*
X317358Y510506D02*
X317358Y510506D01*
X317340Y510508D01*
X317323Y510512D01*
X316992Y510539D01*
X296928Y510539D01*
X296959Y510736D01*
X297527Y512486D01*
X298362Y514124D01*
X299443Y515612D01*
X300744Y516913D01*
X302232Y517994D01*
X303915Y518851D01*
X303917Y518852D01*
X303928Y518858D01*
X304013Y518901D01*
X304030Y518912D01*
X304118Y518951D01*
X304192Y519002D01*
X304270Y519045D01*
X304356Y519117D01*
X304448Y519182D01*
X304510Y519247D01*
X304578Y519304D01*
X304648Y519392D01*
X304726Y519473D01*
X304773Y519549D01*
X304829Y519619D01*
X304880Y519719D01*
X304940Y519814D01*
X304972Y519898D01*
X305013Y519977D01*
X305044Y520085D01*
X305084Y520190D01*
X305098Y520279D01*
X305123Y520365D01*
X305131Y520477D01*
X305150Y520588D01*
X305147Y520677D01*
X305154Y520766D01*
X305140Y520877D01*
X305136Y520990D01*
X305116Y521077D01*
X305105Y521166D01*
X305070Y521272D01*
X305044Y521382D01*
X305007Y521463D01*
X304979Y521548D01*
X304923Y521645D01*
X304876Y521748D01*
X304823Y521820D01*
X304779Y521898D01*
X304705Y521982D01*
X304639Y522073D01*
X304573Y522134D01*
X304515Y522201D01*
X304426Y522270D01*
X304343Y522346D01*
X304266Y522392D01*
X304195Y522447D01*
X304071Y522511D01*
X303998Y522554D01*
X303955Y522570D01*
X303900Y522598D01*
X301737Y523494D01*
X298450Y526781D01*
X296671Y531076D01*
X296671Y535724D01*
X298450Y540019D01*
X301737Y543306D01*
X303952Y544223D01*
X303960Y544228D01*
X303969Y544230D01*
X304136Y544322D01*
X304307Y544414D01*
X304314Y544419D01*
X304322Y544424D01*
X304469Y544547D01*
X304618Y544670D01*
X304623Y544677D01*
X304630Y544683D01*
X304750Y544833D01*
X304871Y544983D01*
X304875Y544991D01*
X304881Y544997D01*
X304969Y545168D01*
X305058Y545339D01*
X305061Y545348D01*
X305065Y545356D01*
X305117Y545539D01*
X305171Y545725D01*
X305172Y545735D01*
X305175Y545743D01*
X305189Y545934D01*
X305206Y546127D01*
X305205Y546136D01*
X305206Y546144D01*
X305183Y546334D01*
X305161Y546527D01*
X305158Y546535D01*
X305157Y546544D01*
X305097Y546726D01*
X305038Y546910D01*
X305033Y546918D01*
X305031Y546926D01*
X304935Y547094D01*
X304841Y547261D01*
X304836Y547268D01*
X304831Y547276D01*
X304705Y547421D01*
X304580Y547567D01*
X304572Y547573D01*
X304567Y547580D01*
X304414Y547697D01*
X304263Y547816D01*
X304254Y547820D01*
X304247Y547825D01*
X303952Y547977D01*
X301737Y548894D01*
X298450Y552181D01*
X296671Y556476D01*
X296671Y561124D01*
X298450Y565419D01*
X301737Y568706D01*
X303952Y569623D01*
X303960Y569628D01*
X303969Y569630D01*
X304137Y569722D01*
X304307Y569814D01*
X304314Y569819D01*
X304322Y569824D01*
X304468Y569947D01*
X304617Y570070D01*
X304623Y570077D01*
X304630Y570083D01*
X304750Y570233D01*
X304871Y570383D01*
X304875Y570391D01*
X304881Y570397D01*
X304969Y570568D01*
X305058Y570739D01*
X305061Y570748D01*
X305065Y570756D01*
X305117Y570940D01*
X305171Y571126D01*
X305172Y571134D01*
X305175Y571143D01*
X305189Y571334D01*
X305206Y571527D01*
X305205Y571536D01*
X305206Y571544D01*
X305183Y571734D01*
X305161Y571927D01*
X305158Y571935D01*
X305157Y571944D01*
X305097Y572126D01*
X305038Y572310D01*
X305033Y572318D01*
X305031Y572326D01*
X304935Y572494D01*
X304841Y572662D01*
X304836Y572668D01*
X304831Y572676D01*
X304705Y572821D01*
X304579Y572967D01*
X304572Y572973D01*
X304567Y572980D01*
X304413Y573097D01*
X304262Y573216D01*
X304255Y573220D01*
X304247Y573225D01*
X303952Y573377D01*
X301737Y574294D01*
X298450Y577581D01*
X296671Y581876D01*
X296671Y586524D01*
X298450Y590819D01*
X301737Y594106D01*
X303952Y595023D01*
X303960Y595028D01*
X303969Y595030D01*
X304137Y595122D01*
X304307Y595214D01*
X304314Y595219D01*
X304322Y595224D01*
X304468Y595347D01*
X304617Y595470D01*
X304623Y595477D01*
X304630Y595483D01*
X304750Y595633D01*
X304871Y595783D01*
X304875Y595791D01*
X304881Y595797D01*
X304969Y595968D01*
X305058Y596139D01*
X305061Y596148D01*
X305065Y596156D01*
X305117Y596340D01*
X305171Y596526D01*
X305172Y596534D01*
X305175Y596543D01*
X305189Y596734D01*
X305206Y596927D01*
X305205Y596936D01*
X305206Y596944D01*
X305183Y597134D01*
X305161Y597327D01*
X305158Y597335D01*
X305157Y597344D01*
X305097Y597526D01*
X305038Y597710D01*
X305033Y597718D01*
X305031Y597726D01*
X304935Y597894D01*
X304841Y598062D01*
X304836Y598068D01*
X304831Y598076D01*
X304705Y598221D01*
X304579Y598367D01*
X304572Y598373D01*
X304567Y598380D01*
X304413Y598497D01*
X304262Y598616D01*
X304255Y598620D01*
X304247Y598625D01*
X303952Y598777D01*
X301737Y599694D01*
X298450Y602981D01*
X296671Y607276D01*
X296671Y611924D01*
X298450Y616219D01*
X301737Y619506D01*
X302127Y619668D01*
X302128Y619668D01*
X303952Y620423D01*
X303960Y620428D01*
X303969Y620430D01*
X304137Y620522D01*
X304307Y620614D01*
X304314Y620619D01*
X304322Y620624D01*
X304468Y620747D01*
X304617Y620870D01*
X304623Y620877D01*
X304630Y620883D01*
X304750Y621033D01*
X304871Y621183D01*
X304875Y621191D01*
X304881Y621197D01*
X304969Y621368D01*
X305058Y621539D01*
X305061Y621548D01*
X305065Y621556D01*
X305117Y621740D01*
X305171Y621926D01*
X305172Y621934D01*
X305175Y621943D01*
X305189Y622134D01*
X305206Y622327D01*
X305205Y622336D01*
X305206Y622344D01*
X305183Y622534D01*
X305161Y622727D01*
X305158Y622735D01*
X305157Y622744D01*
X305097Y622926D01*
X305038Y623110D01*
X305033Y623118D01*
X305031Y623126D01*
X304935Y623294D01*
X304841Y623462D01*
X304836Y623468D01*
X304831Y623476D01*
X304705Y623621D01*
X304579Y623767D01*
X304572Y623773D01*
X304567Y623780D01*
X304413Y623897D01*
X304262Y624016D01*
X304255Y624020D01*
X304247Y624025D01*
X303952Y624177D01*
X301737Y625094D01*
X298450Y628381D01*
X296671Y632676D01*
X296671Y637324D01*
X298450Y641619D01*
X301737Y644906D01*
X303952Y645823D01*
X303960Y645828D01*
X303969Y645830D01*
X304137Y645922D01*
X304307Y646014D01*
X304314Y646019D01*
X304322Y646024D01*
X304468Y646147D01*
X304617Y646270D01*
X304623Y646277D01*
X304630Y646283D01*
X304750Y646433D01*
X304871Y646583D01*
X304875Y646591D01*
X304881Y646597D01*
X304969Y646768D01*
X305058Y646939D01*
X305061Y646948D01*
X305065Y646956D01*
X305117Y647140D01*
X305171Y647326D01*
X305172Y647334D01*
X305175Y647343D01*
X305189Y647534D01*
X305206Y647727D01*
X305205Y647736D01*
X305206Y647744D01*
X305183Y647934D01*
X305161Y648127D01*
X305158Y648135D01*
X305157Y648144D01*
X305097Y648325D01*
X305038Y648510D01*
X305033Y648518D01*
X305031Y648526D01*
X304935Y648694D01*
X304841Y648862D01*
X304836Y648868D01*
X304831Y648876D01*
X304705Y649021D01*
X304579Y649167D01*
X304572Y649173D01*
X304567Y649180D01*
X304413Y649297D01*
X304262Y649416D01*
X304255Y649420D01*
X304247Y649425D01*
X303952Y649577D01*
X301737Y650494D01*
X298794Y653438D01*
X298730Y653490D01*
X298673Y653549D01*
X298575Y653617D01*
X298482Y653693D01*
X298410Y653731D01*
X298342Y653778D01*
X298232Y653825D01*
X298127Y653881D01*
X298048Y653905D01*
X297972Y653937D01*
X297855Y653962D01*
X297741Y653996D01*
X297659Y654003D01*
X297578Y654020D01*
X297459Y654022D01*
X297340Y654032D01*
X297258Y654024D01*
X297176Y654024D01*
X297058Y654002D01*
X296939Y653989D01*
X296861Y653964D01*
X296780Y653949D01*
X296670Y653904D01*
X296556Y653868D01*
X296484Y653828D01*
X296408Y653797D01*
X296308Y653730D01*
X296203Y653673D01*
X296141Y653620D01*
X296072Y653574D01*
X295988Y653490D01*
X295896Y653412D01*
X295845Y653348D01*
X295787Y653290D01*
X295700Y653164D01*
X295647Y653096D01*
X295628Y653060D01*
X295598Y653017D01*
X294870Y651756D01*
X291144Y649604D01*
X284625Y649604D01*
X282945Y650300D01*
X281585Y651660D01*
X281584Y651661D01*
X281530Y651727D01*
X281483Y651799D01*
X281402Y651882D01*
X281328Y651971D01*
X281261Y652025D01*
X281202Y652086D01*
X281106Y652152D01*
X281015Y652225D01*
X280940Y652265D01*
X280869Y652313D01*
X280762Y652358D01*
X280659Y652412D01*
X280577Y652436D01*
X280498Y652469D01*
X280384Y652493D01*
X280272Y652525D01*
X280187Y652533D01*
X280103Y652550D01*
X279987Y652550D01*
X279871Y652560D01*
X279786Y652550D01*
X279701Y652551D01*
X279587Y652528D01*
X279471Y652515D01*
X279390Y652489D01*
X279306Y652472D01*
X279199Y652427D01*
X279088Y652392D01*
X279013Y652350D01*
X278934Y652317D01*
X278838Y652252D01*
X278736Y652195D01*
X278671Y652140D01*
X278600Y652092D01*
X278496Y651989D01*
X278431Y651934D01*
X278404Y651899D01*
X278363Y651860D01*
X278320Y651810D01*
X278269Y651737D01*
X278210Y651671D01*
X278136Y651550D01*
X278088Y651481D01*
X278069Y651439D01*
X278038Y651387D01*
X278003Y651318D01*
X277671Y651030D01*
X277616Y650972D01*
X277467Y650826D01*
X277179Y650494D01*
X277110Y650459D01*
X277035Y650412D01*
X276955Y650373D01*
X276841Y650290D01*
X276769Y650245D01*
X276736Y650213D01*
X276687Y650177D01*
X276629Y650127D01*
X276211Y649987D01*
X276139Y649955D01*
X275945Y649877D01*
X275551Y649680D01*
X275475Y649675D01*
X275387Y649660D01*
X275299Y649655D01*
X275161Y649621D01*
X275078Y649607D01*
X275035Y649590D01*
X274976Y649576D01*
X274903Y649551D01*
X274464Y649583D01*
X274385Y649580D01*
X274176Y649583D01*
X273737Y649551D01*
X273664Y649576D01*
X273577Y649595D01*
X273493Y649624D01*
X273353Y649646D01*
X273271Y649665D01*
X273225Y649666D01*
X273165Y649675D01*
X273089Y649680D01*
X272695Y649877D01*
X272621Y649905D01*
X272429Y649987D01*
X272011Y650127D01*
X271953Y650177D01*
X271881Y650228D01*
X271814Y650287D01*
X271693Y650361D01*
X271624Y650409D01*
X271582Y650428D01*
X271530Y650459D01*
X271461Y650494D01*
X271173Y650826D01*
X271115Y650881D01*
X270969Y651030D01*
X270637Y651318D01*
X270602Y651387D01*
X270555Y651462D01*
X270516Y651542D01*
X270433Y651656D01*
X270388Y651728D01*
X270356Y651761D01*
X270320Y651810D01*
X270270Y651868D01*
X270130Y652286D01*
X270098Y652358D01*
X270020Y652552D01*
X269836Y652920D01*
X269833Y652924D01*
X269831Y652930D01*
X269751Y653055D01*
X269682Y653178D01*
X269650Y653215D01*
X269621Y653260D01*
X269617Y653264D01*
X269614Y653269D01*
X269506Y653381D01*
X269418Y653483D01*
X269382Y653511D01*
X269344Y653552D01*
X269339Y653555D01*
X269335Y653559D01*
X269201Y653652D01*
X269100Y653730D01*
X269062Y653749D01*
X269014Y653783D01*
X269009Y653785D01*
X269004Y653788D01*
X268849Y653855D01*
X268740Y653909D01*
X268700Y653920D01*
X268645Y653944D01*
X268639Y653945D01*
X268634Y653947D01*
X268464Y653983D01*
X268351Y654014D01*
X268307Y654017D01*
X268251Y654029D01*
X268246Y654029D01*
X268240Y654031D01*
X268132Y654032D01*
X268020Y654041D01*
X268018Y654041D01*
X267949Y654034D01*
X267849Y654035D01*
X267843Y654034D01*
X267838Y654034D01*
X267710Y654010D01*
X267618Y654001D01*
X267549Y653980D01*
X267453Y653962D01*
X267448Y653960D01*
X267442Y653959D01*
X267325Y653911D01*
X267233Y653883D01*
X267168Y653847D01*
X267079Y653812D01*
X267075Y653809D01*
X267070Y653807D01*
X266967Y653739D01*
X266879Y653691D01*
X266819Y653642D01*
X266743Y653591D01*
X266739Y653587D01*
X266734Y653584D01*
X266650Y653500D01*
X266569Y653433D01*
X266519Y653370D01*
X266456Y653308D01*
X266453Y653304D01*
X266449Y653300D01*
X266368Y653183D01*
X266317Y653119D01*
X266296Y653078D01*
X266260Y653027D01*
X265526Y651756D01*
X261800Y649604D01*
X255281Y649604D01*
X253601Y650300D01*
X252314Y651587D01*
X251618Y653267D01*
X251618Y655087D01*
X252314Y656767D01*
X252840Y657293D01*
X252854Y657310D01*
X252871Y657325D01*
X252982Y657466D01*
X253095Y657605D01*
X253106Y657624D01*
X253120Y657642D01*
X253200Y657801D01*
X253284Y657960D01*
X253290Y657982D01*
X253300Y658002D01*
X253347Y658174D01*
X253399Y658346D01*
X253401Y658369D01*
X253407Y658390D01*
X253419Y658569D01*
X253435Y658747D01*
X253433Y658769D01*
X253434Y658792D01*
X253411Y658970D01*
X253392Y659148D01*
X253385Y659169D01*
X253382Y659191D01*
X253281Y659507D01*
X253001Y660182D01*
X253001Y662139D01*
X253013Y662306D01*
X253030Y662484D01*
X253028Y662506D01*
X253029Y662529D01*
X253007Y662707D01*
X252989Y662885D01*
X252982Y662906D01*
X252979Y662928D01*
X252922Y663098D01*
X252869Y663269D01*
X252858Y663289D01*
X252851Y663310D01*
X252762Y663465D01*
X252676Y663622D01*
X252661Y663639D01*
X252650Y663659D01*
X252435Y663912D01*
X252314Y664033D01*
X251618Y665713D01*
X251618Y667533D01*
X252314Y669213D01*
X253601Y670500D01*
X255281Y671196D01*
X262306Y671196D01*
X264750Y669785D01*
X264826Y669750D01*
X264897Y669707D01*
X265009Y669668D01*
X265117Y669619D01*
X265198Y669600D01*
X265276Y669572D01*
X265394Y669555D01*
X265509Y669529D01*
X265592Y669526D01*
X265675Y669514D01*
X265793Y669521D01*
X265912Y669518D01*
X265994Y669532D01*
X266077Y669536D01*
X266192Y669566D01*
X266308Y669586D01*
X266386Y669616D01*
X266467Y669637D01*
X266573Y669689D01*
X266684Y669732D01*
X266754Y669777D01*
X266829Y669813D01*
X266951Y669902D01*
X267023Y669949D01*
X267053Y669977D01*
X267097Y670009D01*
X267862Y670673D01*
X269588Y671249D01*
X271403Y671120D01*
X273283Y670180D01*
X273349Y670134D01*
X273385Y670120D01*
X273418Y670099D01*
X273570Y670041D01*
X273720Y669978D01*
X273758Y669970D01*
X273794Y669957D01*
X273955Y669930D01*
X274115Y669898D01*
X274154Y669898D01*
X274192Y669892D01*
X274354Y669898D01*
X274518Y669897D01*
X274556Y669905D01*
X274594Y669906D01*
X274753Y669944D01*
X274912Y669976D01*
X274948Y669991D01*
X274986Y670000D01*
X275134Y670068D01*
X275284Y670131D01*
X275316Y670152D01*
X275351Y670169D01*
X275385Y670194D01*
X277237Y671120D01*
X279052Y671249D01*
X280820Y670659D01*
X280909Y670590D01*
X280953Y670567D01*
X280994Y670539D01*
X281133Y670477D01*
X281268Y670409D01*
X281317Y670396D01*
X281362Y670376D01*
X281510Y670343D01*
X281657Y670303D01*
X281707Y670299D01*
X281755Y670288D01*
X281907Y670285D01*
X282058Y670275D01*
X282108Y670282D01*
X282158Y670281D01*
X282307Y670308D01*
X282458Y670327D01*
X282511Y670345D01*
X282554Y670352D01*
X282634Y670384D01*
X282774Y670429D01*
X284625Y671196D01*
X291650Y671196D01*
X295056Y669229D01*
X295784Y667968D01*
X295832Y667902D01*
X295871Y667830D01*
X295949Y667739D01*
X296018Y667641D01*
X296079Y667585D01*
X296132Y667523D01*
X296226Y667449D01*
X296313Y667367D01*
X296383Y667324D01*
X296448Y667273D01*
X296554Y667219D01*
X296656Y667156D01*
X296733Y667128D01*
X296807Y667091D01*
X296922Y667059D01*
X297034Y667017D01*
X297115Y667005D01*
X297194Y666983D01*
X297314Y666974D01*
X297432Y666956D01*
X297514Y666959D01*
X297596Y666953D01*
X297715Y666968D01*
X297834Y666974D01*
X297914Y666994D01*
X297995Y667004D01*
X298109Y667042D01*
X298225Y667071D01*
X298299Y667106D01*
X298377Y667132D01*
X298481Y667192D01*
X298589Y667243D01*
X298655Y667292D01*
X298726Y667333D01*
X298843Y667432D01*
X298912Y667484D01*
X298939Y667514D01*
X298979Y667548D01*
X301737Y670306D01*
X302082Y670449D01*
X306032Y672085D01*
X328968Y672085D01*
X333263Y670306D01*
X336550Y667019D01*
X338329Y662724D01*
X338329Y658076D01*
X336550Y653781D01*
X333263Y650494D01*
X331048Y649577D01*
X331040Y649572D01*
X331031Y649570D01*
X330861Y649477D01*
X330693Y649386D01*
X330686Y649381D01*
X330678Y649376D01*
X330530Y649252D01*
X330382Y649130D01*
X330377Y649123D01*
X330370Y649117D01*
X330250Y648966D01*
X330129Y648817D01*
X330125Y648809D01*
X330119Y648802D01*
X330032Y648633D01*
X329942Y648461D01*
X329939Y648452D01*
X329935Y648444D01*
X329883Y648262D01*
X329829Y648074D01*
X329828Y648065D01*
X329825Y648057D01*
X329810Y647863D01*
X329794Y647673D01*
X329795Y647664D01*
X329794Y647656D01*
X329818Y647465D01*
X329839Y647273D01*
X329842Y647265D01*
X329843Y647256D01*
X329903Y647074D01*
X329962Y646890D01*
X329967Y646882D01*
X329970Y646874D01*
X330065Y646706D01*
X330159Y646538D01*
X330164Y646532D01*
X330169Y646524D01*
X330296Y646378D01*
X330421Y646233D01*
X330428Y646227D01*
X330433Y646220D01*
X330586Y646103D01*
X330738Y645984D01*
X330746Y645980D01*
X330753Y645975D01*
X331048Y645823D01*
X333263Y644906D01*
X336550Y641619D01*
X338329Y637324D01*
X338329Y632676D01*
X336550Y628381D01*
X333263Y625094D01*
X331048Y624177D01*
X331040Y624172D01*
X331031Y624170D01*
X330861Y624077D01*
X330693Y623986D01*
X330686Y623981D01*
X330678Y623976D01*
X330530Y623852D01*
X330382Y623730D01*
X330377Y623723D01*
X330370Y623717D01*
X330250Y623567D01*
X330129Y623417D01*
X330125Y623409D01*
X330119Y623402D01*
X330032Y623233D01*
X329942Y623061D01*
X329939Y623052D01*
X329935Y623044D01*
X329883Y622862D01*
X329829Y622674D01*
X329828Y622665D01*
X329825Y622657D01*
X329811Y622466D01*
X329794Y622273D01*
X329795Y622264D01*
X329794Y622256D01*
X329818Y622065D01*
X329839Y621873D01*
X329842Y621865D01*
X329843Y621856D01*
X329903Y621674D01*
X329962Y621490D01*
X329967Y621482D01*
X329970Y621474D01*
X330065Y621306D01*
X330159Y621138D01*
X330164Y621132D01*
X330169Y621124D01*
X330296Y620978D01*
X330421Y620833D01*
X330428Y620827D01*
X330433Y620820D01*
X330586Y620703D01*
X330738Y620584D01*
X330746Y620580D01*
X330753Y620575D01*
X331048Y620423D01*
X333263Y619506D01*
X336550Y616219D01*
X338329Y611924D01*
X338329Y607276D01*
X336550Y602981D01*
X333263Y599694D01*
X331681Y599039D01*
X331048Y598777D01*
X331040Y598772D01*
X331031Y598770D01*
X330861Y598677D01*
X330693Y598586D01*
X330686Y598581D01*
X330678Y598576D01*
X330530Y598452D01*
X330382Y598330D01*
X330377Y598323D01*
X330370Y598317D01*
X330250Y598167D01*
X330129Y598017D01*
X330125Y598009D01*
X330119Y598002D01*
X330032Y597833D01*
X329942Y597661D01*
X329939Y597652D01*
X329935Y597644D01*
X329883Y597462D01*
X329829Y597274D01*
X329828Y597265D01*
X329825Y597257D01*
X329811Y597066D01*
X329794Y596873D01*
X329795Y596864D01*
X329794Y596856D01*
X329818Y596665D01*
X329839Y596473D01*
X329842Y596465D01*
X329843Y596456D01*
X329903Y596274D01*
X329962Y596090D01*
X329967Y596082D01*
X329970Y596074D01*
X330065Y595906D01*
X330159Y595738D01*
X330164Y595732D01*
X330169Y595724D01*
X330296Y595578D01*
X330421Y595433D01*
X330428Y595427D01*
X330433Y595420D01*
X330586Y595303D01*
X330738Y595184D01*
X330746Y595180D01*
X330753Y595175D01*
X331048Y595023D01*
X333263Y594106D01*
X336550Y590819D01*
X338329Y586524D01*
X338329Y581876D01*
X336550Y577581D01*
X333263Y574294D01*
X331048Y573377D01*
X331040Y573372D01*
X331031Y573370D01*
X330861Y573277D01*
X330693Y573186D01*
X330686Y573181D01*
X330678Y573176D01*
X330530Y573052D01*
X330382Y572930D01*
X330377Y572923D01*
X330370Y572917D01*
X330250Y572767D01*
X330129Y572617D01*
X330125Y572609D01*
X330119Y572602D01*
X330032Y572433D01*
X329942Y572261D01*
X329939Y572252D01*
X329935Y572244D01*
X329883Y572062D01*
X329829Y571874D01*
X329828Y571865D01*
X329825Y571857D01*
X329811Y571666D01*
X329794Y571473D01*
X329795Y571464D01*
X329794Y571456D01*
X329818Y571265D01*
X329839Y571073D01*
X329842Y571065D01*
X329843Y571056D01*
X329903Y570874D01*
X329962Y570690D01*
X329967Y570682D01*
X329970Y570674D01*
X330065Y570506D01*
X330159Y570338D01*
X330164Y570332D01*
X330169Y570324D01*
X330296Y570178D01*
X330421Y570033D01*
X330428Y570027D01*
X330433Y570020D01*
X330586Y569903D01*
X330738Y569784D01*
X330746Y569780D01*
X330753Y569775D01*
X331048Y569623D01*
X333263Y568706D01*
X336550Y565419D01*
X338329Y561124D01*
X338329Y556476D01*
X336550Y552181D01*
X333263Y548894D01*
X331048Y547977D01*
X331040Y547972D01*
X331031Y547970D01*
X330862Y547877D01*
X330693Y547786D01*
X330686Y547781D01*
X330678Y547776D01*
X330531Y547653D01*
X330382Y547530D01*
X330377Y547523D01*
X330370Y547517D01*
X330249Y547366D01*
X330129Y547217D01*
X330125Y547210D01*
X330119Y547202D01*
X330030Y547029D01*
X329942Y546861D01*
X329939Y546852D01*
X329935Y546844D01*
X329882Y546658D01*
X329829Y546474D01*
X329828Y546465D01*
X329825Y546457D01*
X329811Y546266D01*
X329794Y546073D01*
X329795Y546064D01*
X329794Y546056D01*
X329818Y545864D01*
X329839Y545673D01*
X329842Y545665D01*
X329843Y545656D01*
X329903Y545473D01*
X329962Y545290D01*
X329967Y545282D01*
X329969Y545274D01*
X330065Y545106D01*
X330159Y544938D01*
X330165Y544932D01*
X330169Y544924D01*
X330295Y544780D01*
X330420Y544633D01*
X330428Y544627D01*
X330433Y544620D01*
X330586Y544503D01*
X330738Y544384D01*
X330745Y544380D01*
X330753Y544375D01*
X331048Y544223D01*
X333263Y543306D01*
X336550Y540019D01*
X338329Y535724D01*
X338329Y531076D01*
X336550Y526781D01*
X333263Y523494D01*
X331100Y522598D01*
X331021Y522556D01*
X330938Y522523D01*
X330844Y522461D01*
X330745Y522408D01*
X330676Y522351D01*
X330601Y522302D01*
X330521Y522223D01*
X330434Y522152D01*
X330378Y522082D01*
X330314Y522019D01*
X330252Y521926D01*
X330181Y521839D01*
X330139Y521760D01*
X330089Y521686D01*
X330046Y521582D01*
X329994Y521482D01*
X329969Y521397D01*
X329934Y521314D01*
X329912Y521204D01*
X329881Y521096D01*
X329873Y521007D01*
X329855Y520919D01*
X329856Y520807D01*
X329846Y520695D01*
X329856Y520606D01*
X329856Y520517D01*
X329879Y520406D01*
X329891Y520295D01*
X329918Y520210D01*
X329936Y520122D01*
X329980Y520019D01*
X330014Y519911D01*
X330058Y519833D01*
X330093Y519751D01*
X330156Y519658D01*
X330211Y519560D01*
X330269Y519492D01*
X330319Y519418D01*
X330399Y519340D01*
X330472Y519254D01*
X330543Y519199D01*
X330607Y519136D01*
X330701Y519075D01*
X330789Y519006D01*
X330869Y518966D01*
X330944Y518917D01*
X331008Y518890D01*
X332768Y517994D01*
X334256Y516913D01*
X335557Y515612D01*
X336638Y514124D01*
X337473Y512486D01*
X338041Y510736D01*
X338072Y510539D01*
X318008Y510539D01*
X317990Y510537D01*
X317973Y510539D01*
X317790Y510518D01*
X317608Y510499D01*
X317591Y510494D01*
X317573Y510492D01*
X317495Y510467D01*
X317358Y510506D01*
G37*
%LPD*%
%LPC*%
G36*
X35792Y191595D02*
X35792Y191595D01*
X31526Y193362D01*
X28262Y196626D01*
X26495Y200892D01*
X26495Y205508D01*
X28262Y209774D01*
X31526Y213038D01*
X33905Y214023D01*
X33913Y214028D01*
X33922Y214030D01*
X34092Y214123D01*
X34260Y214214D01*
X34267Y214219D01*
X34275Y214224D01*
X34423Y214348D01*
X34571Y214470D01*
X34576Y214477D01*
X34583Y214483D01*
X34703Y214633D01*
X34824Y214783D01*
X34828Y214791D01*
X34834Y214798D01*
X34921Y214967D01*
X35011Y215139D01*
X35014Y215148D01*
X35018Y215156D01*
X35070Y215338D01*
X35124Y215526D01*
X35125Y215535D01*
X35128Y215543D01*
X35142Y215734D01*
X35159Y215927D01*
X35158Y215936D01*
X35159Y215944D01*
X35135Y216135D01*
X35114Y216327D01*
X35111Y216335D01*
X35110Y216344D01*
X35050Y216526D01*
X34991Y216710D01*
X34986Y216718D01*
X34984Y216726D01*
X34888Y216894D01*
X34794Y217062D01*
X34789Y217068D01*
X34784Y217076D01*
X34657Y217222D01*
X34533Y217367D01*
X34525Y217373D01*
X34520Y217380D01*
X34367Y217497D01*
X34215Y217616D01*
X34207Y217620D01*
X34200Y217625D01*
X33905Y217777D01*
X31526Y218762D01*
X28262Y222026D01*
X26495Y226292D01*
X26495Y230908D01*
X28262Y235174D01*
X31526Y238438D01*
X33905Y239423D01*
X33913Y239428D01*
X33922Y239430D01*
X34092Y239523D01*
X34260Y239614D01*
X34267Y239619D01*
X34275Y239624D01*
X34423Y239748D01*
X34571Y239870D01*
X34576Y239877D01*
X34583Y239883D01*
X34703Y240033D01*
X34824Y240183D01*
X34828Y240191D01*
X34834Y240198D01*
X34921Y240367D01*
X35011Y240539D01*
X35014Y240548D01*
X35018Y240556D01*
X35070Y240738D01*
X35124Y240926D01*
X35125Y240935D01*
X35128Y240943D01*
X35142Y241134D01*
X35159Y241327D01*
X35158Y241336D01*
X35159Y241344D01*
X35135Y241535D01*
X35114Y241727D01*
X35111Y241735D01*
X35110Y241744D01*
X35050Y241926D01*
X34991Y242110D01*
X34986Y242118D01*
X34984Y242126D01*
X34888Y242294D01*
X34794Y242462D01*
X34789Y242468D01*
X34784Y242476D01*
X34657Y242622D01*
X34533Y242767D01*
X34525Y242773D01*
X34520Y242780D01*
X34367Y242897D01*
X34215Y243016D01*
X34207Y243020D01*
X34200Y243025D01*
X33905Y243177D01*
X31526Y244162D01*
X28262Y247426D01*
X26495Y251692D01*
X26495Y256308D01*
X28262Y260574D01*
X31526Y263838D01*
X32397Y264199D01*
X33905Y264823D01*
X33913Y264828D01*
X33922Y264830D01*
X34092Y264923D01*
X34260Y265014D01*
X34267Y265019D01*
X34275Y265024D01*
X34423Y265148D01*
X34571Y265270D01*
X34576Y265277D01*
X34583Y265283D01*
X34703Y265433D01*
X34824Y265583D01*
X34828Y265591D01*
X34834Y265598D01*
X34921Y265767D01*
X35011Y265939D01*
X35014Y265948D01*
X35018Y265956D01*
X35070Y266138D01*
X35124Y266326D01*
X35125Y266335D01*
X35128Y266343D01*
X35142Y266534D01*
X35159Y266727D01*
X35158Y266736D01*
X35159Y266744D01*
X35136Y266934D01*
X35114Y267127D01*
X35111Y267135D01*
X35110Y267144D01*
X35050Y267326D01*
X34991Y267510D01*
X34986Y267518D01*
X34984Y267526D01*
X34888Y267694D01*
X34794Y267862D01*
X34789Y267868D01*
X34784Y267876D01*
X34657Y268022D01*
X34533Y268167D01*
X34525Y268173D01*
X34520Y268180D01*
X34367Y268297D01*
X34215Y268416D01*
X34207Y268420D01*
X34200Y268425D01*
X33905Y268577D01*
X31526Y269562D01*
X28262Y272826D01*
X26495Y277092D01*
X26495Y281708D01*
X28262Y285974D01*
X31526Y289238D01*
X33905Y290223D01*
X33913Y290228D01*
X33922Y290230D01*
X34092Y290323D01*
X34260Y290414D01*
X34267Y290419D01*
X34275Y290424D01*
X34423Y290548D01*
X34571Y290670D01*
X34576Y290677D01*
X34583Y290683D01*
X34703Y290833D01*
X34824Y290983D01*
X34828Y290991D01*
X34834Y290998D01*
X34921Y291167D01*
X35011Y291339D01*
X35014Y291348D01*
X35018Y291356D01*
X35070Y291538D01*
X35124Y291726D01*
X35125Y291735D01*
X35128Y291743D01*
X35142Y291934D01*
X35159Y292127D01*
X35158Y292136D01*
X35159Y292144D01*
X35135Y292335D01*
X35114Y292527D01*
X35111Y292535D01*
X35110Y292544D01*
X35051Y292723D01*
X34991Y292910D01*
X34986Y292918D01*
X34984Y292926D01*
X34888Y293094D01*
X34794Y293262D01*
X34789Y293268D01*
X34784Y293276D01*
X34657Y293422D01*
X34533Y293567D01*
X34525Y293573D01*
X34520Y293580D01*
X34368Y293696D01*
X34215Y293816D01*
X34207Y293820D01*
X34200Y293825D01*
X33905Y293977D01*
X31526Y294962D01*
X28262Y298226D01*
X26495Y302492D01*
X26495Y307108D01*
X28262Y311374D01*
X31526Y314638D01*
X33905Y315623D01*
X33913Y315628D01*
X33922Y315630D01*
X34092Y315723D01*
X34260Y315814D01*
X34267Y315819D01*
X34275Y315824D01*
X34423Y315948D01*
X34571Y316070D01*
X34576Y316077D01*
X34583Y316083D01*
X34703Y316233D01*
X34824Y316383D01*
X34828Y316391D01*
X34834Y316398D01*
X34921Y316567D01*
X35011Y316739D01*
X35014Y316748D01*
X35018Y316756D01*
X35070Y316938D01*
X35124Y317126D01*
X35125Y317135D01*
X35128Y317143D01*
X35142Y317334D01*
X35159Y317527D01*
X35158Y317536D01*
X35159Y317544D01*
X35135Y317735D01*
X35114Y317927D01*
X35111Y317935D01*
X35110Y317944D01*
X35050Y318126D01*
X34991Y318310D01*
X34986Y318318D01*
X34984Y318326D01*
X34888Y318494D01*
X34794Y318662D01*
X34789Y318668D01*
X34784Y318676D01*
X34657Y318822D01*
X34533Y318967D01*
X34525Y318973D01*
X34520Y318980D01*
X34367Y319097D01*
X34215Y319216D01*
X34207Y319220D01*
X34200Y319225D01*
X33905Y319377D01*
X31526Y320362D01*
X28262Y323626D01*
X26495Y327892D01*
X26495Y332508D01*
X28262Y336774D01*
X31526Y340038D01*
X33905Y341023D01*
X33913Y341028D01*
X33922Y341030D01*
X34092Y341123D01*
X34260Y341214D01*
X34267Y341219D01*
X34275Y341224D01*
X34423Y341348D01*
X34571Y341470D01*
X34576Y341477D01*
X34583Y341483D01*
X34703Y341633D01*
X34824Y341783D01*
X34828Y341791D01*
X34834Y341798D01*
X34921Y341967D01*
X35011Y342139D01*
X35014Y342148D01*
X35018Y342156D01*
X35070Y342338D01*
X35124Y342526D01*
X35125Y342535D01*
X35128Y342543D01*
X35142Y342734D01*
X35159Y342927D01*
X35158Y342936D01*
X35159Y342944D01*
X35135Y343135D01*
X35114Y343327D01*
X35111Y343335D01*
X35110Y343344D01*
X35050Y343526D01*
X34991Y343710D01*
X34986Y343718D01*
X34984Y343726D01*
X34888Y343894D01*
X34794Y344062D01*
X34789Y344068D01*
X34784Y344076D01*
X34657Y344222D01*
X34533Y344367D01*
X34525Y344373D01*
X34520Y344380D01*
X34367Y344497D01*
X34215Y344616D01*
X34207Y344620D01*
X34200Y344625D01*
X33905Y344777D01*
X31526Y345762D01*
X28262Y349026D01*
X26495Y353292D01*
X26495Y357908D01*
X28262Y362174D01*
X31526Y365438D01*
X33905Y366423D01*
X33913Y366428D01*
X33922Y366430D01*
X34091Y366523D01*
X34260Y366614D01*
X34267Y366619D01*
X34275Y366624D01*
X34422Y366747D01*
X34571Y366870D01*
X34576Y366877D01*
X34583Y366883D01*
X34704Y367034D01*
X34824Y367183D01*
X34828Y367190D01*
X34834Y367198D01*
X34923Y367371D01*
X35011Y367539D01*
X35014Y367548D01*
X35018Y367556D01*
X35071Y367742D01*
X35124Y367926D01*
X35125Y367935D01*
X35128Y367943D01*
X35142Y368134D01*
X35159Y368327D01*
X35158Y368336D01*
X35159Y368344D01*
X35135Y368536D01*
X35114Y368727D01*
X35111Y368735D01*
X35110Y368744D01*
X35050Y368927D01*
X34991Y369110D01*
X34986Y369118D01*
X34984Y369126D01*
X34888Y369293D01*
X34794Y369462D01*
X34789Y369468D01*
X34784Y369476D01*
X34659Y369620D01*
X34533Y369767D01*
X34525Y369773D01*
X34520Y369780D01*
X34367Y369897D01*
X34216Y370016D01*
X34208Y370020D01*
X34200Y370025D01*
X33905Y370177D01*
X31526Y371162D01*
X28262Y374426D01*
X26495Y378692D01*
X26495Y383308D01*
X28262Y387574D01*
X31526Y390838D01*
X33905Y391823D01*
X33913Y391828D01*
X33922Y391830D01*
X34091Y391923D01*
X34260Y392014D01*
X34267Y392019D01*
X34275Y392024D01*
X34422Y392147D01*
X34571Y392270D01*
X34576Y392277D01*
X34583Y392283D01*
X34704Y392434D01*
X34824Y392583D01*
X34828Y392590D01*
X34834Y392598D01*
X34923Y392771D01*
X35011Y392939D01*
X35014Y392948D01*
X35018Y392956D01*
X35071Y393142D01*
X35124Y393326D01*
X35125Y393335D01*
X35128Y393343D01*
X35142Y393534D01*
X35159Y393727D01*
X35158Y393736D01*
X35159Y393744D01*
X35135Y393936D01*
X35114Y394127D01*
X35111Y394135D01*
X35110Y394144D01*
X35050Y394327D01*
X34991Y394510D01*
X34986Y394518D01*
X34984Y394526D01*
X34888Y394693D01*
X34794Y394862D01*
X34789Y394868D01*
X34784Y394876D01*
X34659Y395020D01*
X34533Y395167D01*
X34525Y395173D01*
X34520Y395180D01*
X34367Y395297D01*
X34216Y395416D01*
X34208Y395420D01*
X34200Y395425D01*
X33905Y395577D01*
X31526Y396562D01*
X28262Y399826D01*
X26495Y404092D01*
X26495Y408708D01*
X28262Y412974D01*
X31526Y416238D01*
X33905Y417223D01*
X33913Y417228D01*
X33922Y417230D01*
X34091Y417323D01*
X34260Y417414D01*
X34267Y417419D01*
X34275Y417424D01*
X34422Y417547D01*
X34571Y417670D01*
X34576Y417677D01*
X34583Y417683D01*
X34704Y417834D01*
X34824Y417983D01*
X34828Y417990D01*
X34834Y417998D01*
X34923Y418171D01*
X35011Y418339D01*
X35014Y418348D01*
X35018Y418356D01*
X35071Y418542D01*
X35124Y418726D01*
X35125Y418735D01*
X35128Y418743D01*
X35142Y418934D01*
X35159Y419127D01*
X35158Y419136D01*
X35159Y419144D01*
X35135Y419336D01*
X35114Y419527D01*
X35111Y419535D01*
X35110Y419544D01*
X35050Y419726D01*
X34991Y419910D01*
X34986Y419918D01*
X34984Y419926D01*
X34888Y420093D01*
X34794Y420262D01*
X34789Y420268D01*
X34784Y420276D01*
X34659Y420420D01*
X34533Y420567D01*
X34525Y420573D01*
X34520Y420580D01*
X34367Y420697D01*
X34216Y420816D01*
X34208Y420820D01*
X34200Y420825D01*
X33905Y420977D01*
X31526Y421962D01*
X28262Y425226D01*
X26495Y429492D01*
X26495Y434108D01*
X28262Y438374D01*
X31526Y441638D01*
X33905Y442623D01*
X33913Y442628D01*
X33922Y442630D01*
X34091Y442723D01*
X34260Y442814D01*
X34267Y442819D01*
X34275Y442824D01*
X34422Y442947D01*
X34571Y443070D01*
X34576Y443077D01*
X34583Y443083D01*
X34704Y443234D01*
X34824Y443383D01*
X34828Y443390D01*
X34834Y443398D01*
X34923Y443571D01*
X35011Y443739D01*
X35014Y443748D01*
X35018Y443756D01*
X35071Y443942D01*
X35124Y444126D01*
X35125Y444135D01*
X35128Y444143D01*
X35142Y444334D01*
X35159Y444527D01*
X35158Y444536D01*
X35159Y444544D01*
X35135Y444736D01*
X35114Y444927D01*
X35111Y444935D01*
X35110Y444944D01*
X35050Y445127D01*
X34991Y445310D01*
X34986Y445318D01*
X34984Y445326D01*
X34888Y445493D01*
X34794Y445662D01*
X34789Y445668D01*
X34784Y445676D01*
X34659Y445820D01*
X34533Y445967D01*
X34525Y445973D01*
X34520Y445980D01*
X34367Y446097D01*
X34216Y446216D01*
X34208Y446220D01*
X34200Y446225D01*
X33905Y446377D01*
X31526Y447362D01*
X28262Y450626D01*
X26495Y454892D01*
X26495Y459508D01*
X28262Y463774D01*
X31526Y467038D01*
X32216Y467324D01*
X33905Y468023D01*
X33913Y468028D01*
X33922Y468030D01*
X34091Y468123D01*
X34260Y468214D01*
X34267Y468219D01*
X34275Y468224D01*
X34422Y468347D01*
X34571Y468470D01*
X34576Y468477D01*
X34583Y468483D01*
X34704Y468634D01*
X34824Y468783D01*
X34828Y468790D01*
X34834Y468798D01*
X34923Y468971D01*
X35011Y469139D01*
X35014Y469148D01*
X35018Y469156D01*
X35071Y469342D01*
X35124Y469526D01*
X35125Y469535D01*
X35128Y469543D01*
X35142Y469734D01*
X35159Y469927D01*
X35158Y469936D01*
X35159Y469944D01*
X35135Y470136D01*
X35114Y470327D01*
X35111Y470335D01*
X35110Y470344D01*
X35050Y470527D01*
X34991Y470710D01*
X34986Y470718D01*
X34984Y470726D01*
X34888Y470893D01*
X34794Y471062D01*
X34789Y471068D01*
X34784Y471076D01*
X34659Y471220D01*
X34533Y471367D01*
X34525Y471373D01*
X34520Y471380D01*
X34367Y471497D01*
X34216Y471616D01*
X34208Y471620D01*
X34200Y471625D01*
X33905Y471777D01*
X31526Y472762D01*
X28262Y476026D01*
X26495Y480292D01*
X26495Y484908D01*
X28262Y489174D01*
X31526Y492438D01*
X33875Y493411D01*
X33953Y493453D01*
X34036Y493486D01*
X34131Y493548D01*
X34230Y493601D01*
X34299Y493658D01*
X34373Y493706D01*
X34453Y493786D01*
X34541Y493858D01*
X34596Y493926D01*
X34660Y493989D01*
X34723Y494082D01*
X34794Y494170D01*
X34835Y494249D01*
X34885Y494322D01*
X34929Y494427D01*
X34981Y494527D01*
X35006Y494612D01*
X35040Y494694D01*
X35063Y494804D01*
X35094Y494913D01*
X35102Y495002D01*
X35119Y495089D01*
X35119Y495202D01*
X35129Y495314D01*
X35119Y495402D01*
X35119Y495491D01*
X35097Y495602D01*
X35084Y495714D01*
X35057Y495799D01*
X35039Y495886D01*
X34995Y495990D01*
X34961Y496098D01*
X34917Y496175D01*
X34883Y496257D01*
X34819Y496350D01*
X34764Y496449D01*
X34707Y496517D01*
X34657Y496590D01*
X34576Y496669D01*
X34503Y496755D01*
X34433Y496810D01*
X34369Y496872D01*
X34275Y496933D01*
X34186Y497003D01*
X34106Y497043D01*
X34032Y497091D01*
X33901Y497146D01*
X33826Y497184D01*
X33781Y497196D01*
X33726Y497219D01*
X33645Y497245D01*
X32018Y498075D01*
X30540Y499148D01*
X29248Y500440D01*
X28175Y501918D01*
X27346Y503545D01*
X26781Y505283D01*
X26746Y505501D01*
X37632Y505501D01*
X37650Y505502D01*
X37667Y505501D01*
X37850Y505522D01*
X38032Y505541D01*
X38049Y505546D01*
X38067Y505548D01*
X38108Y505561D01*
X38202Y505534D01*
X38220Y505532D01*
X38237Y505528D01*
X38568Y505501D01*
X49454Y505501D01*
X49419Y505283D01*
X48854Y503545D01*
X48025Y501918D01*
X46952Y500440D01*
X45660Y499148D01*
X44182Y498075D01*
X42555Y497245D01*
X42474Y497219D01*
X42393Y497184D01*
X42308Y497157D01*
X42209Y497103D01*
X42106Y497058D01*
X42033Y497007D01*
X41955Y496964D01*
X41869Y496891D01*
X41776Y496826D01*
X41715Y496762D01*
X41647Y496705D01*
X41576Y496616D01*
X41499Y496535D01*
X41451Y496460D01*
X41396Y496390D01*
X41344Y496289D01*
X41284Y496194D01*
X41253Y496111D01*
X41212Y496032D01*
X41181Y495923D01*
X41141Y495818D01*
X41127Y495730D01*
X41102Y495645D01*
X41094Y495532D01*
X41075Y495420D01*
X41078Y495331D01*
X41071Y495243D01*
X41085Y495131D01*
X41089Y495018D01*
X41109Y494931D01*
X41120Y494843D01*
X41155Y494736D01*
X41181Y494626D01*
X41219Y494545D01*
X41246Y494461D01*
X41302Y494363D01*
X41350Y494260D01*
X41402Y494189D01*
X41446Y494111D01*
X41520Y494026D01*
X41587Y493935D01*
X41652Y493875D01*
X41710Y493808D01*
X41800Y493739D01*
X41883Y493663D01*
X41959Y493617D01*
X42030Y493562D01*
X42155Y493498D01*
X42228Y493454D01*
X42271Y493438D01*
X42325Y493411D01*
X44674Y492438D01*
X47938Y489174D01*
X49705Y484908D01*
X49705Y480292D01*
X47938Y476026D01*
X44674Y472762D01*
X42295Y471777D01*
X42287Y471772D01*
X42278Y471770D01*
X42111Y471678D01*
X41940Y471586D01*
X41933Y471581D01*
X41925Y471576D01*
X41778Y471453D01*
X41629Y471330D01*
X41624Y471323D01*
X41617Y471317D01*
X41497Y471167D01*
X41376Y471017D01*
X41372Y471009D01*
X41366Y471003D01*
X41278Y470832D01*
X41189Y470661D01*
X41186Y470652D01*
X41182Y470644D01*
X41130Y470461D01*
X41076Y470275D01*
X41075Y470265D01*
X41072Y470257D01*
X41058Y470066D01*
X41041Y469873D01*
X41042Y469864D01*
X41041Y469856D01*
X41064Y469666D01*
X41086Y469473D01*
X41089Y469465D01*
X41090Y469456D01*
X41150Y469276D01*
X41209Y469090D01*
X41214Y469082D01*
X41216Y469074D01*
X41311Y468908D01*
X41406Y468739D01*
X41411Y468732D01*
X41416Y468724D01*
X41542Y468579D01*
X41667Y468433D01*
X41674Y468427D01*
X41680Y468420D01*
X41833Y468303D01*
X41984Y468184D01*
X41992Y468180D01*
X42000Y468175D01*
X42295Y468023D01*
X44674Y467038D01*
X47938Y463774D01*
X49705Y459508D01*
X49705Y454892D01*
X47938Y450626D01*
X44674Y447362D01*
X42295Y446377D01*
X42287Y446372D01*
X42278Y446370D01*
X42111Y446278D01*
X41940Y446186D01*
X41933Y446181D01*
X41925Y446176D01*
X41778Y446053D01*
X41629Y445930D01*
X41624Y445923D01*
X41617Y445917D01*
X41497Y445767D01*
X41376Y445617D01*
X41372Y445609D01*
X41366Y445603D01*
X41278Y445431D01*
X41189Y445261D01*
X41186Y445252D01*
X41182Y445244D01*
X41130Y445061D01*
X41076Y444875D01*
X41075Y444865D01*
X41072Y444857D01*
X41058Y444666D01*
X41041Y444473D01*
X41042Y444464D01*
X41041Y444456D01*
X41065Y444264D01*
X41086Y444073D01*
X41089Y444065D01*
X41090Y444056D01*
X41150Y443874D01*
X41209Y443690D01*
X41214Y443682D01*
X41216Y443674D01*
X41311Y443508D01*
X41406Y443339D01*
X41411Y443332D01*
X41416Y443324D01*
X41542Y443179D01*
X41667Y443033D01*
X41674Y443027D01*
X41680Y443020D01*
X41834Y442902D01*
X41984Y442784D01*
X41992Y442780D01*
X42000Y442775D01*
X42295Y442623D01*
X44674Y441638D01*
X47938Y438374D01*
X49705Y434108D01*
X49705Y429492D01*
X47938Y425226D01*
X44674Y421962D01*
X42295Y420977D01*
X42287Y420972D01*
X42278Y420970D01*
X42111Y420878D01*
X41940Y420786D01*
X41933Y420781D01*
X41925Y420776D01*
X41778Y420653D01*
X41629Y420530D01*
X41624Y420523D01*
X41617Y420517D01*
X41497Y420367D01*
X41376Y420217D01*
X41372Y420209D01*
X41366Y420203D01*
X41278Y420032D01*
X41189Y419861D01*
X41186Y419852D01*
X41182Y419844D01*
X41130Y419661D01*
X41076Y419475D01*
X41075Y419465D01*
X41072Y419457D01*
X41058Y419266D01*
X41041Y419073D01*
X41042Y419064D01*
X41041Y419056D01*
X41064Y418866D01*
X41086Y418673D01*
X41089Y418665D01*
X41090Y418656D01*
X41150Y418475D01*
X41209Y418290D01*
X41214Y418282D01*
X41216Y418274D01*
X41311Y418108D01*
X41406Y417939D01*
X41411Y417932D01*
X41416Y417924D01*
X41542Y417779D01*
X41667Y417633D01*
X41674Y417627D01*
X41680Y417620D01*
X41833Y417503D01*
X41984Y417384D01*
X41992Y417380D01*
X42000Y417375D01*
X42295Y417223D01*
X44674Y416238D01*
X47938Y412974D01*
X49705Y408708D01*
X49705Y404092D01*
X47938Y399826D01*
X44674Y396562D01*
X42295Y395577D01*
X42287Y395572D01*
X42278Y395570D01*
X42111Y395478D01*
X41940Y395386D01*
X41933Y395381D01*
X41925Y395376D01*
X41778Y395253D01*
X41629Y395130D01*
X41624Y395123D01*
X41617Y395117D01*
X41497Y394967D01*
X41376Y394817D01*
X41372Y394809D01*
X41366Y394803D01*
X41278Y394632D01*
X41189Y394461D01*
X41186Y394452D01*
X41182Y394444D01*
X41130Y394261D01*
X41076Y394075D01*
X41075Y394065D01*
X41072Y394057D01*
X41058Y393866D01*
X41041Y393673D01*
X41042Y393664D01*
X41041Y393656D01*
X41064Y393466D01*
X41086Y393273D01*
X41089Y393265D01*
X41090Y393256D01*
X41150Y393076D01*
X41209Y392890D01*
X41214Y392882D01*
X41216Y392874D01*
X41311Y392708D01*
X41406Y392539D01*
X41411Y392532D01*
X41416Y392524D01*
X41542Y392379D01*
X41667Y392233D01*
X41674Y392227D01*
X41680Y392220D01*
X41833Y392103D01*
X41984Y391984D01*
X41992Y391980D01*
X42000Y391975D01*
X42295Y391823D01*
X44674Y390838D01*
X47938Y387574D01*
X49705Y383308D01*
X49705Y378692D01*
X47938Y374426D01*
X44674Y371162D01*
X42295Y370177D01*
X42287Y370172D01*
X42278Y370170D01*
X42111Y370078D01*
X41940Y369986D01*
X41933Y369981D01*
X41925Y369976D01*
X41778Y369853D01*
X41629Y369730D01*
X41624Y369723D01*
X41617Y369717D01*
X41497Y369567D01*
X41376Y369417D01*
X41372Y369409D01*
X41366Y369403D01*
X41278Y369232D01*
X41189Y369061D01*
X41186Y369052D01*
X41182Y369044D01*
X41130Y368861D01*
X41076Y368675D01*
X41075Y368665D01*
X41072Y368657D01*
X41058Y368466D01*
X41041Y368273D01*
X41042Y368264D01*
X41041Y368256D01*
X41064Y368066D01*
X41086Y367873D01*
X41089Y367865D01*
X41090Y367856D01*
X41150Y367676D01*
X41209Y367490D01*
X41214Y367482D01*
X41216Y367474D01*
X41311Y367308D01*
X41406Y367139D01*
X41411Y367132D01*
X41416Y367124D01*
X41542Y366979D01*
X41667Y366833D01*
X41674Y366827D01*
X41680Y366820D01*
X41833Y366703D01*
X41984Y366584D01*
X41992Y366580D01*
X42000Y366575D01*
X42295Y366423D01*
X44674Y365438D01*
X47938Y362174D01*
X49705Y357908D01*
X49705Y353292D01*
X47938Y349026D01*
X44674Y345762D01*
X43155Y345133D01*
X43154Y345133D01*
X42295Y344777D01*
X42287Y344772D01*
X42278Y344770D01*
X42110Y344678D01*
X41940Y344586D01*
X41933Y344581D01*
X41925Y344576D01*
X41779Y344453D01*
X41629Y344330D01*
X41624Y344323D01*
X41617Y344317D01*
X41497Y344167D01*
X41376Y344017D01*
X41372Y344009D01*
X41366Y344003D01*
X41278Y343832D01*
X41189Y343661D01*
X41186Y343652D01*
X41182Y343644D01*
X41130Y343460D01*
X41076Y343274D01*
X41075Y343266D01*
X41072Y343257D01*
X41058Y343066D01*
X41041Y342873D01*
X41042Y342864D01*
X41041Y342856D01*
X41064Y342666D01*
X41086Y342473D01*
X41089Y342465D01*
X41090Y342456D01*
X41150Y342274D01*
X41209Y342090D01*
X41214Y342082D01*
X41216Y342074D01*
X41312Y341906D01*
X41406Y341738D01*
X41411Y341732D01*
X41416Y341724D01*
X41543Y341578D01*
X41667Y341433D01*
X41675Y341427D01*
X41680Y341420D01*
X41834Y341303D01*
X41984Y341184D01*
X41992Y341180D01*
X42000Y341175D01*
X42295Y341023D01*
X44674Y340038D01*
X47938Y336774D01*
X49705Y332508D01*
X49705Y327892D01*
X47938Y323626D01*
X44674Y320362D01*
X42295Y319377D01*
X42287Y319372D01*
X42278Y319370D01*
X42110Y319278D01*
X41940Y319186D01*
X41933Y319181D01*
X41925Y319176D01*
X41779Y319053D01*
X41629Y318930D01*
X41624Y318923D01*
X41617Y318917D01*
X41497Y318767D01*
X41376Y318617D01*
X41372Y318609D01*
X41366Y318603D01*
X41278Y318432D01*
X41189Y318261D01*
X41186Y318252D01*
X41182Y318244D01*
X41130Y318060D01*
X41076Y317874D01*
X41075Y317866D01*
X41072Y317857D01*
X41058Y317666D01*
X41041Y317473D01*
X41042Y317464D01*
X41041Y317456D01*
X41064Y317266D01*
X41086Y317073D01*
X41089Y317065D01*
X41090Y317056D01*
X41150Y316874D01*
X41209Y316690D01*
X41214Y316682D01*
X41216Y316674D01*
X41312Y316506D01*
X41406Y316338D01*
X41411Y316332D01*
X41416Y316324D01*
X41542Y316179D01*
X41667Y316033D01*
X41675Y316027D01*
X41680Y316020D01*
X41834Y315903D01*
X41984Y315784D01*
X41992Y315780D01*
X42000Y315775D01*
X42295Y315623D01*
X44674Y314638D01*
X47938Y311374D01*
X49705Y307108D01*
X49705Y302492D01*
X47938Y298226D01*
X44674Y294962D01*
X42295Y293977D01*
X42287Y293972D01*
X42278Y293970D01*
X42110Y293878D01*
X41940Y293786D01*
X41933Y293781D01*
X41925Y293776D01*
X41779Y293653D01*
X41629Y293530D01*
X41624Y293523D01*
X41617Y293517D01*
X41497Y293367D01*
X41376Y293217D01*
X41372Y293209D01*
X41366Y293203D01*
X41278Y293032D01*
X41189Y292861D01*
X41186Y292852D01*
X41182Y292844D01*
X41130Y292660D01*
X41076Y292474D01*
X41075Y292466D01*
X41072Y292457D01*
X41058Y292266D01*
X41041Y292073D01*
X41042Y292064D01*
X41041Y292056D01*
X41064Y291866D01*
X41086Y291673D01*
X41089Y291665D01*
X41090Y291656D01*
X41150Y291474D01*
X41209Y291290D01*
X41214Y291282D01*
X41216Y291274D01*
X41312Y291106D01*
X41406Y290938D01*
X41411Y290932D01*
X41416Y290924D01*
X41542Y290779D01*
X41667Y290633D01*
X41675Y290627D01*
X41680Y290620D01*
X41834Y290503D01*
X41984Y290384D01*
X41992Y290380D01*
X42000Y290375D01*
X42295Y290223D01*
X44674Y289238D01*
X47938Y285974D01*
X49705Y281708D01*
X49705Y277092D01*
X47938Y272826D01*
X44674Y269562D01*
X42295Y268577D01*
X42287Y268572D01*
X42278Y268570D01*
X42110Y268478D01*
X41940Y268386D01*
X41933Y268381D01*
X41925Y268376D01*
X41779Y268253D01*
X41629Y268130D01*
X41624Y268123D01*
X41617Y268117D01*
X41497Y267967D01*
X41376Y267817D01*
X41372Y267809D01*
X41366Y267803D01*
X41278Y267632D01*
X41189Y267461D01*
X41186Y267452D01*
X41182Y267444D01*
X41130Y267260D01*
X41076Y267074D01*
X41075Y267066D01*
X41072Y267057D01*
X41058Y266866D01*
X41041Y266673D01*
X41042Y266664D01*
X41041Y266656D01*
X41064Y266466D01*
X41086Y266273D01*
X41089Y266265D01*
X41090Y266256D01*
X41150Y266074D01*
X41209Y265890D01*
X41214Y265882D01*
X41216Y265874D01*
X41312Y265706D01*
X41406Y265538D01*
X41411Y265532D01*
X41416Y265524D01*
X41542Y265379D01*
X41667Y265233D01*
X41675Y265227D01*
X41680Y265220D01*
X41834Y265103D01*
X41984Y264984D01*
X41992Y264980D01*
X42000Y264975D01*
X42295Y264823D01*
X44674Y263838D01*
X47938Y260574D01*
X49705Y256308D01*
X49705Y251692D01*
X47938Y247426D01*
X44674Y244162D01*
X43245Y243570D01*
X42295Y243177D01*
X42287Y243172D01*
X42278Y243170D01*
X42110Y243078D01*
X41940Y242986D01*
X41933Y242981D01*
X41925Y242976D01*
X41779Y242853D01*
X41629Y242730D01*
X41624Y242723D01*
X41617Y242717D01*
X41497Y242567D01*
X41376Y242417D01*
X41372Y242409D01*
X41366Y242403D01*
X41278Y242232D01*
X41189Y242061D01*
X41186Y242052D01*
X41182Y242044D01*
X41130Y241860D01*
X41076Y241674D01*
X41075Y241666D01*
X41072Y241657D01*
X41058Y241466D01*
X41041Y241273D01*
X41042Y241264D01*
X41041Y241256D01*
X41064Y241066D01*
X41086Y240873D01*
X41089Y240865D01*
X41090Y240856D01*
X41150Y240674D01*
X41209Y240490D01*
X41214Y240482D01*
X41216Y240474D01*
X41312Y240306D01*
X41406Y240138D01*
X41411Y240132D01*
X41416Y240124D01*
X41542Y239979D01*
X41667Y239833D01*
X41675Y239827D01*
X41680Y239820D01*
X41834Y239703D01*
X41984Y239584D01*
X41992Y239580D01*
X42000Y239575D01*
X42295Y239423D01*
X44674Y238438D01*
X47938Y235174D01*
X49705Y230908D01*
X49705Y226292D01*
X47938Y222026D01*
X44674Y218762D01*
X42295Y217777D01*
X42287Y217772D01*
X42278Y217770D01*
X42110Y217678D01*
X41940Y217586D01*
X41933Y217581D01*
X41925Y217576D01*
X41779Y217453D01*
X41629Y217330D01*
X41624Y217323D01*
X41617Y217317D01*
X41497Y217167D01*
X41376Y217017D01*
X41372Y217009D01*
X41366Y217003D01*
X41278Y216832D01*
X41189Y216661D01*
X41186Y216652D01*
X41182Y216644D01*
X41130Y216460D01*
X41076Y216274D01*
X41075Y216266D01*
X41072Y216257D01*
X41058Y216066D01*
X41041Y215873D01*
X41042Y215864D01*
X41041Y215856D01*
X41064Y215666D01*
X41086Y215473D01*
X41089Y215465D01*
X41090Y215456D01*
X41151Y215272D01*
X41209Y215090D01*
X41214Y215082D01*
X41216Y215074D01*
X41312Y214906D01*
X41406Y214738D01*
X41411Y214732D01*
X41416Y214724D01*
X41542Y214579D01*
X41667Y214433D01*
X41675Y214427D01*
X41680Y214420D01*
X41834Y214303D01*
X41984Y214184D01*
X41992Y214180D01*
X42000Y214175D01*
X42295Y214023D01*
X44674Y213038D01*
X47938Y209774D01*
X49705Y205508D01*
X49705Y200892D01*
X47938Y196626D01*
X44674Y193362D01*
X43290Y192789D01*
X40408Y191595D01*
X35792Y191595D01*
G37*
%LPD*%
%LPC*%
G36*
X37998Y510466D02*
X37998Y510466D01*
X37980Y510468D01*
X37963Y510472D01*
X37632Y510499D01*
X26746Y510499D01*
X26781Y510717D01*
X27346Y512455D01*
X28175Y514082D01*
X29248Y515560D01*
X30540Y516852D01*
X32018Y517925D01*
X33645Y518755D01*
X33726Y518781D01*
X33807Y518816D01*
X33892Y518843D01*
X33991Y518897D01*
X34094Y518942D01*
X34167Y518993D01*
X34245Y519036D01*
X34331Y519109D01*
X34424Y519174D01*
X34485Y519238D01*
X34553Y519295D01*
X34624Y519384D01*
X34701Y519465D01*
X34749Y519540D01*
X34804Y519610D01*
X34856Y519711D01*
X34916Y519806D01*
X34947Y519889D01*
X34988Y519968D01*
X35019Y520077D01*
X35059Y520182D01*
X35073Y520270D01*
X35098Y520355D01*
X35106Y520468D01*
X35125Y520580D01*
X35122Y520669D01*
X35129Y520757D01*
X35115Y520869D01*
X35111Y520982D01*
X35091Y521069D01*
X35080Y521157D01*
X35045Y521264D01*
X35019Y521374D01*
X34981Y521455D01*
X34954Y521539D01*
X34898Y521637D01*
X34850Y521740D01*
X34798Y521811D01*
X34754Y521889D01*
X34680Y521974D01*
X34613Y522065D01*
X34548Y522125D01*
X34490Y522192D01*
X34400Y522261D01*
X34317Y522337D01*
X34241Y522383D01*
X34170Y522438D01*
X34045Y522502D01*
X33972Y522546D01*
X33929Y522562D01*
X33875Y522589D01*
X31526Y523562D01*
X28262Y526826D01*
X26495Y531092D01*
X26495Y535708D01*
X28262Y539974D01*
X31526Y543238D01*
X33905Y544223D01*
X33913Y544228D01*
X33922Y544230D01*
X34091Y544323D01*
X34260Y544414D01*
X34267Y544419D01*
X34275Y544424D01*
X34422Y544547D01*
X34571Y544670D01*
X34576Y544677D01*
X34583Y544683D01*
X34704Y544834D01*
X34824Y544983D01*
X34828Y544990D01*
X34834Y544998D01*
X34923Y545171D01*
X35011Y545339D01*
X35014Y545348D01*
X35018Y545356D01*
X35071Y545542D01*
X35124Y545726D01*
X35125Y545735D01*
X35128Y545743D01*
X35142Y545934D01*
X35159Y546127D01*
X35158Y546136D01*
X35159Y546144D01*
X35135Y546336D01*
X35114Y546527D01*
X35111Y546535D01*
X35110Y546544D01*
X35050Y546727D01*
X34991Y546910D01*
X34986Y546918D01*
X34984Y546926D01*
X34888Y547093D01*
X34794Y547262D01*
X34789Y547268D01*
X34784Y547276D01*
X34659Y547420D01*
X34533Y547567D01*
X34525Y547573D01*
X34520Y547580D01*
X34367Y547697D01*
X34216Y547816D01*
X34208Y547820D01*
X34200Y547825D01*
X33905Y547977D01*
X31526Y548962D01*
X28262Y552226D01*
X26495Y556492D01*
X26495Y561108D01*
X28262Y565374D01*
X31526Y568638D01*
X32126Y568886D01*
X33905Y569623D01*
X33913Y569628D01*
X33922Y569630D01*
X34091Y569723D01*
X34260Y569814D01*
X34267Y569819D01*
X34275Y569824D01*
X34422Y569947D01*
X34571Y570070D01*
X34576Y570077D01*
X34583Y570083D01*
X34704Y570234D01*
X34824Y570383D01*
X34828Y570390D01*
X34834Y570398D01*
X34923Y570571D01*
X35011Y570739D01*
X35014Y570748D01*
X35018Y570756D01*
X35071Y570942D01*
X35124Y571126D01*
X35125Y571135D01*
X35128Y571143D01*
X35142Y571334D01*
X35159Y571527D01*
X35158Y571536D01*
X35159Y571544D01*
X35135Y571736D01*
X35114Y571927D01*
X35111Y571935D01*
X35110Y571944D01*
X35050Y572127D01*
X34991Y572310D01*
X34986Y572318D01*
X34984Y572326D01*
X34888Y572493D01*
X34794Y572662D01*
X34789Y572668D01*
X34784Y572676D01*
X34659Y572820D01*
X34533Y572967D01*
X34525Y572973D01*
X34520Y572980D01*
X34367Y573097D01*
X34216Y573216D01*
X34208Y573220D01*
X34200Y573225D01*
X33905Y573377D01*
X31526Y574362D01*
X28262Y577626D01*
X26495Y581892D01*
X26495Y586508D01*
X28262Y590774D01*
X31526Y594038D01*
X34555Y595293D01*
X35792Y595805D01*
X40408Y595805D01*
X44674Y594038D01*
X47938Y590774D01*
X49705Y586508D01*
X49705Y581892D01*
X47938Y577626D01*
X44674Y574362D01*
X42295Y573377D01*
X42287Y573372D01*
X42278Y573370D01*
X42111Y573278D01*
X41940Y573186D01*
X41933Y573181D01*
X41925Y573176D01*
X41778Y573053D01*
X41629Y572930D01*
X41624Y572923D01*
X41617Y572917D01*
X41497Y572767D01*
X41376Y572617D01*
X41372Y572609D01*
X41366Y572603D01*
X41278Y572432D01*
X41189Y572261D01*
X41186Y572252D01*
X41182Y572244D01*
X41130Y572061D01*
X41076Y571875D01*
X41075Y571865D01*
X41072Y571857D01*
X41058Y571666D01*
X41041Y571473D01*
X41042Y571464D01*
X41041Y571456D01*
X41064Y571266D01*
X41086Y571073D01*
X41089Y571065D01*
X41090Y571056D01*
X41150Y570876D01*
X41209Y570690D01*
X41214Y570682D01*
X41216Y570674D01*
X41311Y570508D01*
X41406Y570339D01*
X41411Y570332D01*
X41416Y570324D01*
X41542Y570179D01*
X41667Y570033D01*
X41674Y570027D01*
X41680Y570020D01*
X41833Y569903D01*
X41984Y569784D01*
X41992Y569780D01*
X42000Y569775D01*
X42295Y569623D01*
X44674Y568638D01*
X47938Y565374D01*
X49705Y561108D01*
X49705Y556492D01*
X47938Y552226D01*
X44674Y548962D01*
X42295Y547977D01*
X42287Y547972D01*
X42278Y547970D01*
X42111Y547878D01*
X41940Y547786D01*
X41933Y547781D01*
X41925Y547776D01*
X41778Y547653D01*
X41629Y547530D01*
X41624Y547523D01*
X41617Y547517D01*
X41497Y547367D01*
X41376Y547217D01*
X41372Y547209D01*
X41366Y547203D01*
X41278Y547032D01*
X41189Y546861D01*
X41186Y546852D01*
X41182Y546844D01*
X41130Y546661D01*
X41076Y546475D01*
X41075Y546465D01*
X41072Y546457D01*
X41058Y546266D01*
X41041Y546073D01*
X41042Y546064D01*
X41041Y546056D01*
X41064Y545866D01*
X41086Y545673D01*
X41089Y545665D01*
X41090Y545656D01*
X41150Y545476D01*
X41209Y545290D01*
X41214Y545282D01*
X41216Y545274D01*
X41311Y545108D01*
X41406Y544939D01*
X41411Y544932D01*
X41416Y544924D01*
X41542Y544779D01*
X41667Y544633D01*
X41674Y544627D01*
X41680Y544620D01*
X41833Y544503D01*
X41984Y544384D01*
X41992Y544380D01*
X42000Y544375D01*
X42295Y544223D01*
X44674Y543238D01*
X47938Y539974D01*
X49705Y535708D01*
X49705Y531092D01*
X47938Y526826D01*
X44674Y523562D01*
X42325Y522589D01*
X42247Y522547D01*
X42164Y522514D01*
X42069Y522452D01*
X41970Y522399D01*
X41901Y522342D01*
X41827Y522294D01*
X41747Y522214D01*
X41659Y522142D01*
X41604Y522074D01*
X41540Y522011D01*
X41477Y521918D01*
X41406Y521830D01*
X41365Y521751D01*
X41315Y521678D01*
X41271Y521573D01*
X41219Y521473D01*
X41194Y521388D01*
X41160Y521306D01*
X41137Y521196D01*
X41106Y521087D01*
X41098Y520998D01*
X41081Y520911D01*
X41081Y520798D01*
X41071Y520686D01*
X41081Y520598D01*
X41081Y520509D01*
X41103Y520398D01*
X41116Y520286D01*
X41143Y520201D01*
X41161Y520114D01*
X41205Y520010D01*
X41239Y519902D01*
X41283Y519825D01*
X41317Y519743D01*
X41381Y519650D01*
X41436Y519551D01*
X41493Y519483D01*
X41543Y519410D01*
X41624Y519331D01*
X41697Y519245D01*
X41767Y519190D01*
X41831Y519128D01*
X41925Y519067D01*
X42014Y518997D01*
X42094Y518957D01*
X42168Y518909D01*
X42299Y518854D01*
X42374Y518816D01*
X42419Y518804D01*
X42474Y518781D01*
X42555Y518755D01*
X44182Y517925D01*
X45660Y516852D01*
X46952Y515560D01*
X48025Y514082D01*
X48854Y512455D01*
X49419Y510717D01*
X49454Y510499D01*
X38568Y510499D01*
X38550Y510497D01*
X38533Y510499D01*
X38350Y510478D01*
X38168Y510459D01*
X38151Y510454D01*
X38133Y510452D01*
X38092Y510439D01*
X37998Y510466D01*
G37*
%LPD*%
%LPC*%
G36*
X320039Y256539D02*
X320039Y256539D01*
X320039Y276861D01*
X338072Y276861D01*
X338041Y276664D01*
X337473Y274914D01*
X336638Y273276D01*
X335557Y271788D01*
X334256Y270487D01*
X332768Y269406D01*
X331009Y268510D01*
X330966Y268482D01*
X330919Y268461D01*
X330797Y268374D01*
X330670Y268292D01*
X330633Y268257D01*
X330592Y268227D01*
X330489Y268117D01*
X330381Y268012D01*
X330352Y267970D01*
X330317Y267933D01*
X330238Y267805D01*
X330152Y267681D01*
X330132Y267634D01*
X330105Y267590D01*
X330053Y267449D01*
X329994Y267311D01*
X329983Y267261D01*
X329965Y267213D01*
X329942Y267064D01*
X329911Y266917D01*
X329911Y266866D01*
X329903Y266815D01*
X329909Y266664D01*
X329908Y266514D01*
X329918Y266464D01*
X329920Y266413D01*
X329956Y266267D01*
X329985Y266119D01*
X330004Y266071D01*
X330016Y266022D01*
X330080Y265886D01*
X330137Y265746D01*
X330166Y265704D01*
X330188Y265657D01*
X330277Y265536D01*
X330361Y265411D01*
X330397Y265375D01*
X330427Y265334D01*
X330539Y265233D01*
X330646Y265127D01*
X330688Y265099D01*
X330726Y265064D01*
X330923Y264943D01*
X330981Y264904D01*
X330994Y264899D01*
X331009Y264890D01*
X332768Y263994D01*
X334256Y262913D01*
X335557Y261612D01*
X336638Y260124D01*
X337473Y258486D01*
X338041Y256736D01*
X338072Y256539D01*
X320039Y256539D01*
G37*
%LPD*%
%LPC*%
G36*
X320039Y485139D02*
X320039Y485139D01*
X320039Y505461D01*
X338072Y505461D01*
X338041Y505264D01*
X337473Y503514D01*
X336638Y501876D01*
X335557Y500388D01*
X334256Y499087D01*
X332768Y498006D01*
X331009Y497110D01*
X330966Y497082D01*
X330919Y497061D01*
X330797Y496974D01*
X330670Y496892D01*
X330633Y496857D01*
X330591Y496827D01*
X330489Y496717D01*
X330381Y496612D01*
X330352Y496570D01*
X330317Y496533D01*
X330238Y496405D01*
X330152Y496281D01*
X330132Y496234D01*
X330105Y496190D01*
X330053Y496049D01*
X329994Y495911D01*
X329983Y495861D01*
X329965Y495813D01*
X329942Y495664D01*
X329911Y495517D01*
X329911Y495466D01*
X329903Y495415D01*
X329909Y495264D01*
X329908Y495114D01*
X329918Y495064D01*
X329920Y495013D01*
X329956Y494866D01*
X329985Y494719D01*
X330004Y494672D01*
X330016Y494622D01*
X330080Y494485D01*
X330137Y494346D01*
X330166Y494304D01*
X330188Y494257D01*
X330277Y494136D01*
X330361Y494011D01*
X330397Y493975D01*
X330427Y493934D01*
X330539Y493833D01*
X330646Y493727D01*
X330688Y493699D01*
X330726Y493664D01*
X330923Y493543D01*
X330981Y493504D01*
X330994Y493499D01*
X331009Y493490D01*
X332768Y492594D01*
X334256Y491513D01*
X335557Y490212D01*
X336638Y488724D01*
X337473Y487086D01*
X338041Y485336D01*
X338072Y485139D01*
X320039Y485139D01*
G37*
%LPD*%
%LPC*%
G36*
X296928Y256539D02*
X296928Y256539D01*
X296959Y256736D01*
X297527Y258486D01*
X298362Y260124D01*
X299443Y261612D01*
X300744Y262913D01*
X302232Y263994D01*
X303991Y264890D01*
X304034Y264918D01*
X304081Y264939D01*
X304203Y265026D01*
X304330Y265108D01*
X304367Y265143D01*
X304408Y265173D01*
X304511Y265283D01*
X304619Y265388D01*
X304648Y265430D01*
X304683Y265467D01*
X304763Y265595D01*
X304848Y265719D01*
X304868Y265766D01*
X304895Y265810D01*
X304947Y265951D01*
X305006Y266089D01*
X305017Y266139D01*
X305035Y266187D01*
X305058Y266336D01*
X305089Y266483D01*
X305089Y266534D01*
X305097Y266585D01*
X305091Y266736D01*
X305092Y266886D01*
X305082Y266936D01*
X305080Y266987D01*
X305044Y267134D01*
X305015Y267281D01*
X304996Y267328D01*
X304984Y267378D01*
X304920Y267514D01*
X304863Y267654D01*
X304834Y267696D01*
X304812Y267742D01*
X304723Y267863D01*
X304639Y267989D01*
X304603Y268025D01*
X304573Y268066D01*
X304461Y268167D01*
X304354Y268273D01*
X304312Y268301D01*
X304274Y268336D01*
X304077Y268457D01*
X304019Y268496D01*
X304006Y268501D01*
X303991Y268510D01*
X302232Y269406D01*
X300744Y270487D01*
X299443Y271788D01*
X298362Y273276D01*
X297527Y274914D01*
X296959Y276664D01*
X296928Y276861D01*
X314961Y276861D01*
X314961Y256539D01*
X296928Y256539D01*
G37*
%LPD*%
%LPC*%
G36*
X296928Y485139D02*
X296928Y485139D01*
X296959Y485336D01*
X297527Y487086D01*
X298362Y488724D01*
X299443Y490212D01*
X300744Y491513D01*
X302232Y492594D01*
X303991Y493490D01*
X304034Y493518D01*
X304081Y493539D01*
X304203Y493626D01*
X304330Y493708D01*
X304367Y493743D01*
X304408Y493773D01*
X304511Y493883D01*
X304619Y493988D01*
X304648Y494030D01*
X304683Y494067D01*
X304763Y494195D01*
X304848Y494319D01*
X304868Y494366D01*
X304895Y494410D01*
X304947Y494551D01*
X305006Y494689D01*
X305017Y494739D01*
X305035Y494787D01*
X305058Y494936D01*
X305089Y495083D01*
X305089Y495134D01*
X305097Y495185D01*
X305091Y495336D01*
X305092Y495486D01*
X305082Y495536D01*
X305080Y495587D01*
X305044Y495734D01*
X305015Y495881D01*
X304996Y495928D01*
X304984Y495978D01*
X304920Y496114D01*
X304863Y496254D01*
X304834Y496296D01*
X304812Y496342D01*
X304723Y496463D01*
X304639Y496589D01*
X304603Y496625D01*
X304573Y496666D01*
X304461Y496767D01*
X304354Y496873D01*
X304312Y496901D01*
X304274Y496936D01*
X304077Y497057D01*
X304019Y497096D01*
X304006Y497101D01*
X303991Y497110D01*
X302232Y498006D01*
X300744Y499087D01*
X299443Y500388D01*
X298362Y501876D01*
X297527Y503514D01*
X296959Y505264D01*
X296928Y505461D01*
X314961Y505461D01*
X314961Y485139D01*
X296928Y485139D01*
G37*
%LPD*%
%LPC*%
G36*
X320039Y470915D02*
X320039Y470915D01*
X320039Y480061D01*
X338072Y480061D01*
X338041Y479864D01*
X337473Y478114D01*
X336638Y476476D01*
X335557Y474988D01*
X334256Y473687D01*
X332768Y472606D01*
X331130Y471771D01*
X329380Y471203D01*
X327564Y470915D01*
X320039Y470915D01*
G37*
%LPD*%
%LPC*%
G36*
X320039Y242315D02*
X320039Y242315D01*
X320039Y251461D01*
X338072Y251461D01*
X338041Y251264D01*
X337473Y249514D01*
X336638Y247876D01*
X335557Y246388D01*
X334256Y245087D01*
X332768Y244006D01*
X331130Y243171D01*
X329380Y242603D01*
X327564Y242315D01*
X320039Y242315D01*
G37*
%LPD*%
%LPC*%
G36*
X320039Y13715D02*
X320039Y13715D01*
X320039Y22861D01*
X338072Y22861D01*
X338041Y22664D01*
X337473Y20914D01*
X336638Y19276D01*
X335557Y17788D01*
X334256Y16487D01*
X332768Y15406D01*
X331130Y14571D01*
X329380Y14003D01*
X327564Y13715D01*
X320039Y13715D01*
G37*
%LPD*%
%LPC*%
G36*
X307436Y470915D02*
X307436Y470915D01*
X305620Y471203D01*
X303870Y471771D01*
X302232Y472606D01*
X300744Y473687D01*
X299443Y474988D01*
X298362Y476476D01*
X297527Y478114D01*
X296959Y479864D01*
X296928Y480061D01*
X314961Y480061D01*
X314961Y470915D01*
X307436Y470915D01*
G37*
%LPD*%
%LPC*%
G36*
X307436Y242315D02*
X307436Y242315D01*
X305620Y242603D01*
X303870Y243171D01*
X302232Y244006D01*
X300744Y245087D01*
X299443Y246388D01*
X298362Y247876D01*
X297527Y249514D01*
X296959Y251264D01*
X296928Y251461D01*
X314961Y251461D01*
X314961Y242315D01*
X307436Y242315D01*
G37*
%LPD*%
%LPC*%
G36*
X307436Y13715D02*
X307436Y13715D01*
X305620Y14003D01*
X303870Y14571D01*
X302232Y15406D01*
X300744Y16487D01*
X299443Y17788D01*
X298362Y19276D01*
X297527Y20914D01*
X296959Y22664D01*
X296928Y22861D01*
X314961Y22861D01*
X314961Y13715D01*
X307436Y13715D01*
G37*
%LPD*%
D10*
X0Y-63500D02*
X428500Y-63500D01*
X428500Y749200D01*
X0Y749200D01*
X0Y-63500D01*
D11*
X256191Y654177D02*
X259648Y654177D01*
X259765Y654179D01*
X259881Y654185D01*
X259998Y654195D01*
X260114Y654209D01*
X260229Y654226D01*
X260344Y654248D01*
X260458Y654273D01*
X260571Y654302D01*
X260683Y654336D01*
X260794Y654372D01*
X260903Y654413D01*
X261011Y654457D01*
X261118Y654505D01*
X261223Y654556D01*
X261326Y654611D01*
X261427Y654670D01*
X261526Y654732D01*
X261623Y654797D01*
X261718Y654865D01*
X261810Y654936D01*
X261900Y655011D01*
X261987Y655089D01*
X262072Y655169D01*
X262154Y655252D01*
X262233Y655338D01*
X262309Y655427D01*
X262382Y655518D01*
X262452Y655611D01*
X262518Y655707D01*
X262582Y655805D01*
X262642Y655906D01*
X262699Y656008D01*
X262752Y656112D01*
X262801Y656217D01*
X262847Y656325D01*
X262890Y656433D01*
X262929Y656544D01*
X262963Y656655D01*
X262995Y656767D01*
X263022Y656881D01*
X263046Y656995D01*
X263065Y657111D01*
X263081Y657226D01*
X263093Y657342D01*
X263101Y657459D01*
X263105Y657576D01*
X263105Y657692D01*
X263101Y657809D01*
X263093Y657926D01*
X263081Y658042D01*
X263065Y658157D01*
X263046Y658273D01*
X263022Y658387D01*
X262995Y658501D01*
X262963Y658613D01*
X262929Y658724D01*
X262890Y658835D01*
X262847Y658943D01*
X262801Y659051D01*
X262752Y659156D01*
X262699Y659260D01*
X262642Y659363D01*
X262582Y659463D01*
X262518Y659561D01*
X262452Y659657D01*
X262382Y659750D01*
X262309Y659841D01*
X262233Y659930D01*
X262154Y660016D01*
X262072Y660099D01*
X261987Y660179D01*
X261900Y660257D01*
X261810Y660332D01*
X261718Y660403D01*
X261623Y660471D01*
X261526Y660536D01*
X261427Y660598D01*
X261326Y660657D01*
X261223Y660712D01*
X261118Y660763D01*
X261011Y660811D01*
X260903Y660855D01*
X260794Y660896D01*
X260683Y660932D01*
X260571Y660966D01*
X260458Y660995D01*
X260344Y661020D01*
X260229Y661042D01*
X260114Y661059D01*
X259998Y661073D01*
X259881Y661083D01*
X259765Y661089D01*
X259648Y661091D01*
X260339Y666623D02*
X256191Y666623D01*
X260339Y666623D02*
X260442Y666621D01*
X260546Y666615D01*
X260649Y666606D01*
X260751Y666592D01*
X260853Y666575D01*
X260954Y666554D01*
X261055Y666529D01*
X261154Y666500D01*
X261253Y666468D01*
X261350Y666432D01*
X261445Y666392D01*
X261539Y666349D01*
X261631Y666302D01*
X261722Y666252D01*
X261811Y666199D01*
X261897Y666142D01*
X261982Y666083D01*
X262064Y666020D01*
X262143Y665954D01*
X262220Y665885D01*
X262295Y665813D01*
X262367Y665738D01*
X262436Y665661D01*
X262502Y665582D01*
X262565Y665500D01*
X262624Y665415D01*
X262681Y665329D01*
X262734Y665240D01*
X262784Y665149D01*
X262831Y665057D01*
X262874Y664963D01*
X262914Y664868D01*
X262950Y664771D01*
X262982Y664672D01*
X263011Y664573D01*
X263036Y664472D01*
X263057Y664371D01*
X263074Y664269D01*
X263088Y664167D01*
X263097Y664064D01*
X263103Y663960D01*
X263105Y663857D01*
X263103Y663754D01*
X263097Y663650D01*
X263088Y663547D01*
X263074Y663445D01*
X263057Y663343D01*
X263036Y663242D01*
X263011Y663141D01*
X262982Y663042D01*
X262950Y662943D01*
X262914Y662846D01*
X262874Y662751D01*
X262831Y662657D01*
X262784Y662565D01*
X262734Y662474D01*
X262681Y662385D01*
X262624Y662299D01*
X262565Y662214D01*
X262502Y662132D01*
X262436Y662053D01*
X262367Y661976D01*
X262295Y661901D01*
X262220Y661829D01*
X262143Y661760D01*
X262064Y661694D01*
X261982Y661631D01*
X261897Y661572D01*
X261811Y661515D01*
X261722Y661462D01*
X261631Y661412D01*
X261539Y661365D01*
X261445Y661322D01*
X261350Y661282D01*
X261253Y661246D01*
X261154Y661214D01*
X261055Y661185D01*
X260954Y661160D01*
X260853Y661139D01*
X260751Y661122D01*
X260649Y661108D01*
X260546Y661099D01*
X260442Y661093D01*
X260339Y661091D01*
X257574Y661091D01*
X270171Y666623D02*
X274320Y654177D01*
X278469Y666623D01*
X285535Y654177D02*
X288992Y654177D01*
X289109Y654179D01*
X289225Y654185D01*
X289342Y654195D01*
X289458Y654209D01*
X289573Y654226D01*
X289688Y654248D01*
X289802Y654273D01*
X289915Y654302D01*
X290027Y654336D01*
X290138Y654372D01*
X290247Y654413D01*
X290355Y654457D01*
X290462Y654505D01*
X290567Y654556D01*
X290670Y654611D01*
X290771Y654670D01*
X290870Y654732D01*
X290967Y654797D01*
X291062Y654865D01*
X291154Y654936D01*
X291244Y655011D01*
X291331Y655089D01*
X291416Y655169D01*
X291498Y655252D01*
X291577Y655338D01*
X291653Y655427D01*
X291726Y655518D01*
X291796Y655611D01*
X291862Y655707D01*
X291926Y655805D01*
X291986Y655906D01*
X292043Y656008D01*
X292096Y656112D01*
X292145Y656217D01*
X292191Y656325D01*
X292234Y656433D01*
X292273Y656544D01*
X292307Y656655D01*
X292339Y656767D01*
X292366Y656881D01*
X292390Y656995D01*
X292409Y657111D01*
X292425Y657226D01*
X292437Y657342D01*
X292445Y657459D01*
X292449Y657576D01*
X292449Y657692D01*
X292445Y657809D01*
X292437Y657926D01*
X292425Y658042D01*
X292409Y658157D01*
X292390Y658273D01*
X292366Y658387D01*
X292339Y658501D01*
X292307Y658613D01*
X292273Y658724D01*
X292234Y658835D01*
X292191Y658943D01*
X292145Y659051D01*
X292096Y659156D01*
X292043Y659260D01*
X291986Y659363D01*
X291926Y659463D01*
X291862Y659561D01*
X291796Y659657D01*
X291726Y659750D01*
X291653Y659841D01*
X291577Y659930D01*
X291498Y660016D01*
X291416Y660099D01*
X291331Y660179D01*
X291244Y660257D01*
X291154Y660332D01*
X291062Y660403D01*
X290967Y660471D01*
X290870Y660536D01*
X290771Y660598D01*
X290670Y660657D01*
X290567Y660712D01*
X290462Y660763D01*
X290355Y660811D01*
X290247Y660855D01*
X290138Y660896D01*
X290027Y660932D01*
X289915Y660966D01*
X289802Y660995D01*
X289688Y661020D01*
X289573Y661042D01*
X289458Y661059D01*
X289342Y661073D01*
X289225Y661083D01*
X289109Y661089D01*
X288992Y661091D01*
X289683Y666623D02*
X285535Y666623D01*
X289683Y666623D02*
X289786Y666621D01*
X289890Y666615D01*
X289993Y666606D01*
X290095Y666592D01*
X290197Y666575D01*
X290298Y666554D01*
X290399Y666529D01*
X290498Y666500D01*
X290597Y666468D01*
X290694Y666432D01*
X290789Y666392D01*
X290883Y666349D01*
X290975Y666302D01*
X291066Y666252D01*
X291155Y666199D01*
X291241Y666142D01*
X291326Y666083D01*
X291408Y666020D01*
X291487Y665954D01*
X291564Y665885D01*
X291639Y665813D01*
X291711Y665738D01*
X291780Y665661D01*
X291846Y665582D01*
X291909Y665500D01*
X291968Y665415D01*
X292025Y665329D01*
X292078Y665240D01*
X292128Y665149D01*
X292175Y665057D01*
X292218Y664963D01*
X292258Y664868D01*
X292294Y664771D01*
X292326Y664672D01*
X292355Y664573D01*
X292380Y664472D01*
X292401Y664371D01*
X292418Y664269D01*
X292432Y664167D01*
X292441Y664064D01*
X292447Y663960D01*
X292449Y663857D01*
X292447Y663754D01*
X292441Y663650D01*
X292432Y663547D01*
X292418Y663445D01*
X292401Y663343D01*
X292380Y663242D01*
X292355Y663141D01*
X292326Y663042D01*
X292294Y662943D01*
X292258Y662846D01*
X292218Y662751D01*
X292175Y662657D01*
X292128Y662565D01*
X292078Y662474D01*
X292025Y662385D01*
X291968Y662299D01*
X291909Y662214D01*
X291846Y662132D01*
X291780Y662053D01*
X291711Y661976D01*
X291639Y661901D01*
X291564Y661829D01*
X291487Y661760D01*
X291408Y661694D01*
X291326Y661631D01*
X291241Y661572D01*
X291155Y661515D01*
X291066Y661462D01*
X290975Y661412D01*
X290883Y661365D01*
X290789Y661322D01*
X290694Y661282D01*
X290597Y661246D01*
X290498Y661214D01*
X290399Y661185D01*
X290298Y661160D01*
X290197Y661139D01*
X290095Y661122D01*
X289993Y661108D01*
X289890Y661099D01*
X289786Y661093D01*
X289683Y661091D01*
X286918Y661091D01*
X257244Y438023D02*
X257244Y429034D01*
X257245Y429034D02*
X257247Y428917D01*
X257253Y428801D01*
X257263Y428684D01*
X257277Y428568D01*
X257294Y428453D01*
X257316Y428338D01*
X257341Y428224D01*
X257370Y428111D01*
X257404Y427999D01*
X257440Y427888D01*
X257481Y427779D01*
X257525Y427671D01*
X257573Y427564D01*
X257624Y427459D01*
X257679Y427356D01*
X257738Y427255D01*
X257800Y427156D01*
X257865Y427059D01*
X257933Y426964D01*
X258004Y426872D01*
X258079Y426782D01*
X258157Y426695D01*
X258237Y426610D01*
X258320Y426528D01*
X258406Y426449D01*
X258495Y426373D01*
X258586Y426300D01*
X258679Y426230D01*
X258775Y426164D01*
X258873Y426100D01*
X258974Y426040D01*
X259076Y425983D01*
X259180Y425930D01*
X259285Y425881D01*
X259393Y425835D01*
X259501Y425792D01*
X259612Y425753D01*
X259723Y425719D01*
X259835Y425687D01*
X259949Y425660D01*
X260063Y425636D01*
X260179Y425617D01*
X260294Y425601D01*
X260410Y425589D01*
X260527Y425581D01*
X260644Y425577D01*
X260760Y425577D01*
X260877Y425581D01*
X260994Y425589D01*
X261110Y425601D01*
X261225Y425617D01*
X261341Y425636D01*
X261455Y425660D01*
X261569Y425687D01*
X261681Y425719D01*
X261792Y425753D01*
X261903Y425792D01*
X262011Y425835D01*
X262119Y425881D01*
X262224Y425930D01*
X262328Y425983D01*
X262431Y426040D01*
X262531Y426100D01*
X262629Y426164D01*
X262725Y426230D01*
X262818Y426300D01*
X262909Y426373D01*
X262998Y426449D01*
X263084Y426528D01*
X263167Y426610D01*
X263247Y426695D01*
X263325Y426782D01*
X263400Y426872D01*
X263471Y426964D01*
X263539Y427059D01*
X263604Y427156D01*
X263666Y427255D01*
X263725Y427356D01*
X263780Y427459D01*
X263831Y427564D01*
X263879Y427671D01*
X263923Y427779D01*
X263964Y427888D01*
X264000Y427999D01*
X264034Y428111D01*
X264063Y428224D01*
X264088Y428338D01*
X264110Y428453D01*
X264127Y428568D01*
X264141Y428684D01*
X264151Y428801D01*
X264157Y428917D01*
X264159Y429034D01*
X264159Y438023D01*
X276065Y425577D02*
X276168Y425579D01*
X276272Y425585D01*
X276375Y425594D01*
X276477Y425608D01*
X276579Y425625D01*
X276680Y425646D01*
X276781Y425671D01*
X276880Y425700D01*
X276979Y425732D01*
X277076Y425768D01*
X277171Y425808D01*
X277265Y425851D01*
X277357Y425898D01*
X277448Y425948D01*
X277537Y426001D01*
X277623Y426058D01*
X277708Y426117D01*
X277790Y426180D01*
X277869Y426246D01*
X277946Y426315D01*
X278021Y426387D01*
X278093Y426462D01*
X278162Y426539D01*
X278228Y426618D01*
X278291Y426700D01*
X278350Y426785D01*
X278407Y426871D01*
X278460Y426960D01*
X278510Y427051D01*
X278557Y427143D01*
X278600Y427237D01*
X278640Y427332D01*
X278676Y427429D01*
X278708Y427528D01*
X278737Y427627D01*
X278762Y427728D01*
X278783Y427829D01*
X278800Y427931D01*
X278814Y428033D01*
X278823Y428136D01*
X278829Y428240D01*
X278831Y428343D01*
X276065Y425577D02*
X275916Y425579D01*
X275767Y425585D01*
X275619Y425594D01*
X275471Y425607D01*
X275323Y425624D01*
X275176Y425645D01*
X275029Y425670D01*
X274883Y425698D01*
X274737Y425730D01*
X274593Y425766D01*
X274449Y425805D01*
X274307Y425848D01*
X274165Y425894D01*
X274025Y425945D01*
X273887Y425998D01*
X273749Y426056D01*
X273613Y426116D01*
X273479Y426180D01*
X273346Y426248D01*
X273216Y426319D01*
X273087Y426393D01*
X272960Y426471D01*
X272835Y426551D01*
X272712Y426635D01*
X272591Y426722D01*
X272472Y426812D01*
X272356Y426905D01*
X272242Y427001D01*
X272131Y427100D01*
X272022Y427201D01*
X271916Y427306D01*
X272262Y435257D02*
X272264Y435360D01*
X272270Y435464D01*
X272279Y435567D01*
X272293Y435669D01*
X272310Y435771D01*
X272331Y435872D01*
X272356Y435973D01*
X272385Y436072D01*
X272417Y436171D01*
X272453Y436268D01*
X272493Y436363D01*
X272536Y436457D01*
X272583Y436549D01*
X272633Y436640D01*
X272686Y436729D01*
X272743Y436815D01*
X272802Y436900D01*
X272865Y436982D01*
X272931Y437061D01*
X273000Y437138D01*
X273072Y437213D01*
X273147Y437285D01*
X273224Y437354D01*
X273303Y437420D01*
X273386Y437483D01*
X273470Y437542D01*
X273556Y437599D01*
X273645Y437652D01*
X273736Y437702D01*
X273828Y437749D01*
X273922Y437792D01*
X274017Y437832D01*
X274114Y437868D01*
X274213Y437900D01*
X274312Y437929D01*
X274413Y437954D01*
X274514Y437975D01*
X274616Y437992D01*
X274718Y438006D01*
X274821Y438015D01*
X274925Y438021D01*
X275028Y438023D01*
X275167Y438021D01*
X275306Y438016D01*
X275445Y438006D01*
X275583Y437993D01*
X275721Y437976D01*
X275859Y437956D01*
X275996Y437932D01*
X276132Y437904D01*
X276267Y437873D01*
X276402Y437838D01*
X276536Y437799D01*
X276668Y437757D01*
X276799Y437711D01*
X276929Y437662D01*
X277058Y437609D01*
X277185Y437553D01*
X277311Y437494D01*
X277435Y437431D01*
X277557Y437364D01*
X277678Y437295D01*
X277796Y437222D01*
X277913Y437147D01*
X278027Y437068D01*
X278140Y436986D01*
X273645Y432837D02*
X273556Y432891D01*
X273469Y432949D01*
X273385Y433010D01*
X273303Y433074D01*
X273223Y433141D01*
X273146Y433211D01*
X273071Y433284D01*
X273000Y433360D01*
X272931Y433438D01*
X272865Y433518D01*
X272802Y433601D01*
X272742Y433686D01*
X272685Y433774D01*
X272632Y433863D01*
X272582Y433955D01*
X272536Y434048D01*
X272492Y434143D01*
X272453Y434239D01*
X272417Y434337D01*
X272385Y434436D01*
X272356Y434536D01*
X272331Y434637D01*
X272310Y434739D01*
X272293Y434842D01*
X272279Y434945D01*
X272270Y435049D01*
X272264Y435153D01*
X272262Y435257D01*
X277448Y430763D02*
X277537Y430709D01*
X277623Y430651D01*
X277708Y430590D01*
X277790Y430526D01*
X277870Y430459D01*
X277947Y430389D01*
X278021Y430316D01*
X278093Y430240D01*
X278162Y430162D01*
X278228Y430082D01*
X278291Y429999D01*
X278351Y429914D01*
X278408Y429826D01*
X278461Y429737D01*
X278511Y429645D01*
X278557Y429552D01*
X278601Y429457D01*
X278640Y429361D01*
X278676Y429263D01*
X278708Y429164D01*
X278737Y429064D01*
X278762Y428963D01*
X278783Y428861D01*
X278800Y428758D01*
X278814Y428655D01*
X278823Y428551D01*
X278829Y428447D01*
X278831Y428343D01*
X277448Y430763D02*
X273645Y432837D01*
X287021Y432491D02*
X290478Y432491D01*
X290595Y432489D01*
X290711Y432483D01*
X290828Y432473D01*
X290944Y432459D01*
X291059Y432442D01*
X291174Y432420D01*
X291288Y432395D01*
X291401Y432366D01*
X291513Y432332D01*
X291624Y432296D01*
X291733Y432255D01*
X291841Y432211D01*
X291948Y432163D01*
X292053Y432112D01*
X292156Y432057D01*
X292257Y431998D01*
X292356Y431936D01*
X292453Y431871D01*
X292548Y431803D01*
X292640Y431732D01*
X292730Y431657D01*
X292817Y431579D01*
X292902Y431499D01*
X292984Y431416D01*
X293063Y431330D01*
X293139Y431241D01*
X293212Y431150D01*
X293282Y431057D01*
X293348Y430961D01*
X293412Y430863D01*
X293472Y430763D01*
X293529Y430660D01*
X293582Y430556D01*
X293631Y430451D01*
X293677Y430343D01*
X293720Y430235D01*
X293759Y430124D01*
X293793Y430013D01*
X293825Y429901D01*
X293852Y429787D01*
X293876Y429673D01*
X293895Y429557D01*
X293911Y429442D01*
X293923Y429326D01*
X293931Y429209D01*
X293935Y429092D01*
X293935Y428976D01*
X293931Y428859D01*
X293923Y428742D01*
X293911Y428626D01*
X293895Y428511D01*
X293876Y428395D01*
X293852Y428281D01*
X293825Y428167D01*
X293793Y428055D01*
X293759Y427944D01*
X293720Y427833D01*
X293677Y427725D01*
X293631Y427617D01*
X293582Y427512D01*
X293529Y427408D01*
X293472Y427306D01*
X293412Y427205D01*
X293348Y427107D01*
X293282Y427011D01*
X293212Y426918D01*
X293139Y426827D01*
X293063Y426738D01*
X292984Y426652D01*
X292902Y426569D01*
X292817Y426489D01*
X292730Y426411D01*
X292640Y426336D01*
X292548Y426265D01*
X292453Y426197D01*
X292356Y426132D01*
X292257Y426070D01*
X292156Y426011D01*
X292053Y425956D01*
X291948Y425905D01*
X291841Y425857D01*
X291733Y425813D01*
X291624Y425772D01*
X291513Y425736D01*
X291401Y425702D01*
X291288Y425673D01*
X291174Y425648D01*
X291059Y425626D01*
X290944Y425609D01*
X290828Y425595D01*
X290711Y425585D01*
X290595Y425579D01*
X290478Y425577D01*
X287021Y425577D01*
X287021Y438023D01*
X290478Y438023D01*
X290581Y438021D01*
X290685Y438015D01*
X290788Y438006D01*
X290890Y437992D01*
X290992Y437975D01*
X291093Y437954D01*
X291194Y437929D01*
X291293Y437900D01*
X291392Y437868D01*
X291489Y437832D01*
X291584Y437792D01*
X291678Y437749D01*
X291770Y437702D01*
X291861Y437652D01*
X291950Y437599D01*
X292036Y437542D01*
X292121Y437483D01*
X292203Y437420D01*
X292282Y437354D01*
X292359Y437285D01*
X292434Y437213D01*
X292506Y437138D01*
X292575Y437061D01*
X292641Y436982D01*
X292704Y436900D01*
X292763Y436815D01*
X292820Y436729D01*
X292873Y436640D01*
X292923Y436549D01*
X292970Y436457D01*
X293013Y436363D01*
X293053Y436268D01*
X293089Y436171D01*
X293121Y436072D01*
X293150Y435973D01*
X293175Y435872D01*
X293196Y435771D01*
X293213Y435669D01*
X293227Y435567D01*
X293236Y435464D01*
X293242Y435360D01*
X293244Y435257D01*
X293242Y435154D01*
X293236Y435050D01*
X293227Y434947D01*
X293213Y434845D01*
X293196Y434743D01*
X293175Y434642D01*
X293150Y434541D01*
X293121Y434442D01*
X293089Y434343D01*
X293053Y434246D01*
X293013Y434151D01*
X292970Y434057D01*
X292923Y433965D01*
X292873Y433874D01*
X292820Y433785D01*
X292763Y433699D01*
X292704Y433614D01*
X292641Y433532D01*
X292575Y433453D01*
X292506Y433376D01*
X292434Y433301D01*
X292359Y433229D01*
X292282Y433160D01*
X292203Y433094D01*
X292121Y433031D01*
X292036Y432972D01*
X291950Y432915D01*
X291861Y432862D01*
X291770Y432812D01*
X291678Y432765D01*
X291584Y432722D01*
X291489Y432682D01*
X291392Y432646D01*
X291293Y432614D01*
X291194Y432585D01*
X291093Y432560D01*
X290992Y432539D01*
X290890Y432522D01*
X290788Y432508D01*
X290685Y432499D01*
X290581Y432493D01*
X290478Y432491D01*
D12*
X38100Y584200D03*
X38100Y558800D03*
X38100Y533400D03*
X38100Y508000D03*
X38100Y482600D03*
X38100Y457200D03*
X38100Y431800D03*
X38100Y406400D03*
X38100Y381000D03*
X38100Y355600D03*
X38100Y330200D03*
X38100Y304800D03*
X38100Y279400D03*
X38100Y254000D03*
X38100Y228600D03*
X38100Y203200D03*
X241300Y203200D03*
X241300Y228600D03*
X241300Y254000D03*
X241300Y279400D03*
X241300Y304800D03*
X241300Y330200D03*
X241300Y355600D03*
X241300Y381000D03*
X241300Y406400D03*
X241300Y431800D03*
X241300Y457200D03*
X241300Y482600D03*
D13*
X308356Y482600D02*
X326644Y482600D01*
X326644Y508000D02*
X308356Y508000D01*
X308356Y533400D02*
X326644Y533400D01*
X326644Y558800D02*
X308356Y558800D01*
X308356Y584200D02*
X326644Y584200D01*
X326644Y609600D02*
X308356Y609600D01*
X308356Y635000D02*
X326644Y635000D01*
X326644Y660400D02*
X308356Y660400D01*
X308356Y254000D02*
X326644Y254000D01*
X326644Y279400D02*
X308356Y279400D01*
X308356Y304800D02*
X326644Y304800D01*
X326644Y330200D02*
X308356Y330200D01*
X308356Y355600D02*
X326644Y355600D01*
X326644Y381000D02*
X308356Y381000D01*
X308356Y406400D02*
X326644Y406400D01*
X326644Y431800D02*
X308356Y431800D01*
X308356Y25400D02*
X326644Y25400D01*
X326644Y50800D02*
X308356Y50800D01*
X308356Y76200D02*
X326644Y76200D01*
X326644Y101600D02*
X308356Y101600D01*
X308356Y127000D02*
X326644Y127000D01*
X326644Y152400D02*
X308356Y152400D01*
X308356Y177800D02*
X326644Y177800D01*
X326644Y203200D02*
X308356Y203200D01*
D10*
X20052Y-28448D02*
X20057Y-28080D01*
X20070Y-27712D01*
X20093Y-27345D01*
X20124Y-26978D01*
X20165Y-26612D01*
X20214Y-26247D01*
X20273Y-25884D01*
X20340Y-25522D01*
X20416Y-25161D01*
X20502Y-24803D01*
X20595Y-24447D01*
X20698Y-24094D01*
X20809Y-23743D01*
X20929Y-23395D01*
X21057Y-23050D01*
X21194Y-22708D01*
X21339Y-22369D01*
X21492Y-22035D01*
X21654Y-21704D01*
X21823Y-21377D01*
X22001Y-21055D01*
X22186Y-20736D01*
X22379Y-20423D01*
X22580Y-20114D01*
X22788Y-19811D01*
X23004Y-19513D01*
X23227Y-19220D01*
X23457Y-18932D01*
X23694Y-18650D01*
X23938Y-18375D01*
X24188Y-18105D01*
X24445Y-17841D01*
X24709Y-17584D01*
X24979Y-17334D01*
X25254Y-17090D01*
X25536Y-16853D01*
X25824Y-16623D01*
X26117Y-16400D01*
X26415Y-16184D01*
X26718Y-15976D01*
X27027Y-15775D01*
X27340Y-15582D01*
X27659Y-15397D01*
X27981Y-15219D01*
X28308Y-15050D01*
X28639Y-14888D01*
X28973Y-14735D01*
X29312Y-14590D01*
X29654Y-14453D01*
X29999Y-14325D01*
X30347Y-14205D01*
X30698Y-14094D01*
X31051Y-13991D01*
X31407Y-13898D01*
X31765Y-13812D01*
X32126Y-13736D01*
X32488Y-13669D01*
X32851Y-13610D01*
X33216Y-13561D01*
X33582Y-13520D01*
X33949Y-13489D01*
X34316Y-13466D01*
X34684Y-13453D01*
X35052Y-13448D01*
X35420Y-13453D01*
X35788Y-13466D01*
X36155Y-13489D01*
X36522Y-13520D01*
X36888Y-13561D01*
X37253Y-13610D01*
X37616Y-13669D01*
X37978Y-13736D01*
X38339Y-13812D01*
X38697Y-13898D01*
X39053Y-13991D01*
X39406Y-14094D01*
X39757Y-14205D01*
X40105Y-14325D01*
X40450Y-14453D01*
X40792Y-14590D01*
X41131Y-14735D01*
X41465Y-14888D01*
X41796Y-15050D01*
X42123Y-15219D01*
X42445Y-15397D01*
X42764Y-15582D01*
X43077Y-15775D01*
X43386Y-15976D01*
X43689Y-16184D01*
X43987Y-16400D01*
X44280Y-16623D01*
X44568Y-16853D01*
X44850Y-17090D01*
X45125Y-17334D01*
X45395Y-17584D01*
X45659Y-17841D01*
X45916Y-18105D01*
X46166Y-18375D01*
X46410Y-18650D01*
X46647Y-18932D01*
X46877Y-19220D01*
X47100Y-19513D01*
X47316Y-19811D01*
X47524Y-20114D01*
X47725Y-20423D01*
X47918Y-20736D01*
X48103Y-21055D01*
X48281Y-21377D01*
X48450Y-21704D01*
X48612Y-22035D01*
X48765Y-22369D01*
X48910Y-22708D01*
X49047Y-23050D01*
X49175Y-23395D01*
X49295Y-23743D01*
X49406Y-24094D01*
X49509Y-24447D01*
X49602Y-24803D01*
X49688Y-25161D01*
X49764Y-25522D01*
X49831Y-25884D01*
X49890Y-26247D01*
X49939Y-26612D01*
X49980Y-26978D01*
X50011Y-27345D01*
X50034Y-27712D01*
X50047Y-28080D01*
X50052Y-28448D01*
X50047Y-28816D01*
X50034Y-29184D01*
X50011Y-29551D01*
X49980Y-29918D01*
X49939Y-30284D01*
X49890Y-30649D01*
X49831Y-31012D01*
X49764Y-31374D01*
X49688Y-31735D01*
X49602Y-32093D01*
X49509Y-32449D01*
X49406Y-32802D01*
X49295Y-33153D01*
X49175Y-33501D01*
X49047Y-33846D01*
X48910Y-34188D01*
X48765Y-34527D01*
X48612Y-34861D01*
X48450Y-35192D01*
X48281Y-35519D01*
X48103Y-35841D01*
X47918Y-36160D01*
X47725Y-36473D01*
X47524Y-36782D01*
X47316Y-37085D01*
X47100Y-37383D01*
X46877Y-37676D01*
X46647Y-37964D01*
X46410Y-38246D01*
X46166Y-38521D01*
X45916Y-38791D01*
X45659Y-39055D01*
X45395Y-39312D01*
X45125Y-39562D01*
X44850Y-39806D01*
X44568Y-40043D01*
X44280Y-40273D01*
X43987Y-40496D01*
X43689Y-40712D01*
X43386Y-40920D01*
X43077Y-41121D01*
X42764Y-41314D01*
X42445Y-41499D01*
X42123Y-41677D01*
X41796Y-41846D01*
X41465Y-42008D01*
X41131Y-42161D01*
X40792Y-42306D01*
X40450Y-42443D01*
X40105Y-42571D01*
X39757Y-42691D01*
X39406Y-42802D01*
X39053Y-42905D01*
X38697Y-42998D01*
X38339Y-43084D01*
X37978Y-43160D01*
X37616Y-43227D01*
X37253Y-43286D01*
X36888Y-43335D01*
X36522Y-43376D01*
X36155Y-43407D01*
X35788Y-43430D01*
X35420Y-43443D01*
X35052Y-43448D01*
X34684Y-43443D01*
X34316Y-43430D01*
X33949Y-43407D01*
X33582Y-43376D01*
X33216Y-43335D01*
X32851Y-43286D01*
X32488Y-43227D01*
X32126Y-43160D01*
X31765Y-43084D01*
X31407Y-42998D01*
X31051Y-42905D01*
X30698Y-42802D01*
X30347Y-42691D01*
X29999Y-42571D01*
X29654Y-42443D01*
X29312Y-42306D01*
X28973Y-42161D01*
X28639Y-42008D01*
X28308Y-41846D01*
X27981Y-41677D01*
X27659Y-41499D01*
X27340Y-41314D01*
X27027Y-41121D01*
X26718Y-40920D01*
X26415Y-40712D01*
X26117Y-40496D01*
X25824Y-40273D01*
X25536Y-40043D01*
X25254Y-39806D01*
X24979Y-39562D01*
X24709Y-39312D01*
X24445Y-39055D01*
X24188Y-38791D01*
X23938Y-38521D01*
X23694Y-38246D01*
X23457Y-37964D01*
X23227Y-37676D01*
X23004Y-37383D01*
X22788Y-37085D01*
X22580Y-36782D01*
X22379Y-36473D01*
X22186Y-36160D01*
X22001Y-35841D01*
X21823Y-35519D01*
X21654Y-35192D01*
X21492Y-34861D01*
X21339Y-34527D01*
X21194Y-34188D01*
X21057Y-33846D01*
X20929Y-33501D01*
X20809Y-33153D01*
X20698Y-32802D01*
X20595Y-32449D01*
X20502Y-32093D01*
X20416Y-31735D01*
X20340Y-31374D01*
X20273Y-31012D01*
X20214Y-30649D01*
X20165Y-30284D01*
X20124Y-29918D01*
X20093Y-29551D01*
X20070Y-29184D01*
X20057Y-28816D01*
X20052Y-28448D01*
X20052Y714248D02*
X20057Y714616D01*
X20070Y714984D01*
X20093Y715351D01*
X20124Y715718D01*
X20165Y716084D01*
X20214Y716449D01*
X20273Y716812D01*
X20340Y717174D01*
X20416Y717535D01*
X20502Y717893D01*
X20595Y718249D01*
X20698Y718602D01*
X20809Y718953D01*
X20929Y719301D01*
X21057Y719646D01*
X21194Y719988D01*
X21339Y720327D01*
X21492Y720661D01*
X21654Y720992D01*
X21823Y721319D01*
X22001Y721641D01*
X22186Y721960D01*
X22379Y722273D01*
X22580Y722582D01*
X22788Y722885D01*
X23004Y723183D01*
X23227Y723476D01*
X23457Y723764D01*
X23694Y724046D01*
X23938Y724321D01*
X24188Y724591D01*
X24445Y724855D01*
X24709Y725112D01*
X24979Y725362D01*
X25254Y725606D01*
X25536Y725843D01*
X25824Y726073D01*
X26117Y726296D01*
X26415Y726512D01*
X26718Y726720D01*
X27027Y726921D01*
X27340Y727114D01*
X27659Y727299D01*
X27981Y727477D01*
X28308Y727646D01*
X28639Y727808D01*
X28973Y727961D01*
X29312Y728106D01*
X29654Y728243D01*
X29999Y728371D01*
X30347Y728491D01*
X30698Y728602D01*
X31051Y728705D01*
X31407Y728798D01*
X31765Y728884D01*
X32126Y728960D01*
X32488Y729027D01*
X32851Y729086D01*
X33216Y729135D01*
X33582Y729176D01*
X33949Y729207D01*
X34316Y729230D01*
X34684Y729243D01*
X35052Y729248D01*
X35420Y729243D01*
X35788Y729230D01*
X36155Y729207D01*
X36522Y729176D01*
X36888Y729135D01*
X37253Y729086D01*
X37616Y729027D01*
X37978Y728960D01*
X38339Y728884D01*
X38697Y728798D01*
X39053Y728705D01*
X39406Y728602D01*
X39757Y728491D01*
X40105Y728371D01*
X40450Y728243D01*
X40792Y728106D01*
X41131Y727961D01*
X41465Y727808D01*
X41796Y727646D01*
X42123Y727477D01*
X42445Y727299D01*
X42764Y727114D01*
X43077Y726921D01*
X43386Y726720D01*
X43689Y726512D01*
X43987Y726296D01*
X44280Y726073D01*
X44568Y725843D01*
X44850Y725606D01*
X45125Y725362D01*
X45395Y725112D01*
X45659Y724855D01*
X45916Y724591D01*
X46166Y724321D01*
X46410Y724046D01*
X46647Y723764D01*
X46877Y723476D01*
X47100Y723183D01*
X47316Y722885D01*
X47524Y722582D01*
X47725Y722273D01*
X47918Y721960D01*
X48103Y721641D01*
X48281Y721319D01*
X48450Y720992D01*
X48612Y720661D01*
X48765Y720327D01*
X48910Y719988D01*
X49047Y719646D01*
X49175Y719301D01*
X49295Y718953D01*
X49406Y718602D01*
X49509Y718249D01*
X49602Y717893D01*
X49688Y717535D01*
X49764Y717174D01*
X49831Y716812D01*
X49890Y716449D01*
X49939Y716084D01*
X49980Y715718D01*
X50011Y715351D01*
X50034Y714984D01*
X50047Y714616D01*
X50052Y714248D01*
X50047Y713880D01*
X50034Y713512D01*
X50011Y713145D01*
X49980Y712778D01*
X49939Y712412D01*
X49890Y712047D01*
X49831Y711684D01*
X49764Y711322D01*
X49688Y710961D01*
X49602Y710603D01*
X49509Y710247D01*
X49406Y709894D01*
X49295Y709543D01*
X49175Y709195D01*
X49047Y708850D01*
X48910Y708508D01*
X48765Y708169D01*
X48612Y707835D01*
X48450Y707504D01*
X48281Y707177D01*
X48103Y706855D01*
X47918Y706536D01*
X47725Y706223D01*
X47524Y705914D01*
X47316Y705611D01*
X47100Y705313D01*
X46877Y705020D01*
X46647Y704732D01*
X46410Y704450D01*
X46166Y704175D01*
X45916Y703905D01*
X45659Y703641D01*
X45395Y703384D01*
X45125Y703134D01*
X44850Y702890D01*
X44568Y702653D01*
X44280Y702423D01*
X43987Y702200D01*
X43689Y701984D01*
X43386Y701776D01*
X43077Y701575D01*
X42764Y701382D01*
X42445Y701197D01*
X42123Y701019D01*
X41796Y700850D01*
X41465Y700688D01*
X41131Y700535D01*
X40792Y700390D01*
X40450Y700253D01*
X40105Y700125D01*
X39757Y700005D01*
X39406Y699894D01*
X39053Y699791D01*
X38697Y699698D01*
X38339Y699612D01*
X37978Y699536D01*
X37616Y699469D01*
X37253Y699410D01*
X36888Y699361D01*
X36522Y699320D01*
X36155Y699289D01*
X35788Y699266D01*
X35420Y699253D01*
X35052Y699248D01*
X34684Y699253D01*
X34316Y699266D01*
X33949Y699289D01*
X33582Y699320D01*
X33216Y699361D01*
X32851Y699410D01*
X32488Y699469D01*
X32126Y699536D01*
X31765Y699612D01*
X31407Y699698D01*
X31051Y699791D01*
X30698Y699894D01*
X30347Y700005D01*
X29999Y700125D01*
X29654Y700253D01*
X29312Y700390D01*
X28973Y700535D01*
X28639Y700688D01*
X28308Y700850D01*
X27981Y701019D01*
X27659Y701197D01*
X27340Y701382D01*
X27027Y701575D01*
X26718Y701776D01*
X26415Y701984D01*
X26117Y702200D01*
X25824Y702423D01*
X25536Y702653D01*
X25254Y702890D01*
X24979Y703134D01*
X24709Y703384D01*
X24445Y703641D01*
X24188Y703905D01*
X23938Y704175D01*
X23694Y704450D01*
X23457Y704732D01*
X23227Y705020D01*
X23004Y705313D01*
X22788Y705611D01*
X22580Y705914D01*
X22379Y706223D01*
X22186Y706536D01*
X22001Y706855D01*
X21823Y707177D01*
X21654Y707504D01*
X21492Y707835D01*
X21339Y708169D01*
X21194Y708508D01*
X21057Y708850D01*
X20929Y709195D01*
X20809Y709543D01*
X20698Y709894D01*
X20595Y710247D01*
X20502Y710603D01*
X20416Y710961D01*
X20340Y711322D01*
X20273Y711684D01*
X20214Y712047D01*
X20165Y712412D01*
X20124Y712778D01*
X20093Y713145D01*
X20070Y713512D01*
X20057Y713880D01*
X20052Y714248D01*
X378446Y-28448D02*
X378451Y-28080D01*
X378464Y-27712D01*
X378487Y-27345D01*
X378518Y-26978D01*
X378559Y-26612D01*
X378608Y-26247D01*
X378667Y-25884D01*
X378734Y-25522D01*
X378810Y-25161D01*
X378896Y-24803D01*
X378989Y-24447D01*
X379092Y-24094D01*
X379203Y-23743D01*
X379323Y-23395D01*
X379451Y-23050D01*
X379588Y-22708D01*
X379733Y-22369D01*
X379886Y-22035D01*
X380048Y-21704D01*
X380217Y-21377D01*
X380395Y-21055D01*
X380580Y-20736D01*
X380773Y-20423D01*
X380974Y-20114D01*
X381182Y-19811D01*
X381398Y-19513D01*
X381621Y-19220D01*
X381851Y-18932D01*
X382088Y-18650D01*
X382332Y-18375D01*
X382582Y-18105D01*
X382839Y-17841D01*
X383103Y-17584D01*
X383373Y-17334D01*
X383648Y-17090D01*
X383930Y-16853D01*
X384218Y-16623D01*
X384511Y-16400D01*
X384809Y-16184D01*
X385112Y-15976D01*
X385421Y-15775D01*
X385734Y-15582D01*
X386053Y-15397D01*
X386375Y-15219D01*
X386702Y-15050D01*
X387033Y-14888D01*
X387367Y-14735D01*
X387706Y-14590D01*
X388048Y-14453D01*
X388393Y-14325D01*
X388741Y-14205D01*
X389092Y-14094D01*
X389445Y-13991D01*
X389801Y-13898D01*
X390159Y-13812D01*
X390520Y-13736D01*
X390882Y-13669D01*
X391245Y-13610D01*
X391610Y-13561D01*
X391976Y-13520D01*
X392343Y-13489D01*
X392710Y-13466D01*
X393078Y-13453D01*
X393446Y-13448D01*
X393814Y-13453D01*
X394182Y-13466D01*
X394549Y-13489D01*
X394916Y-13520D01*
X395282Y-13561D01*
X395647Y-13610D01*
X396010Y-13669D01*
X396372Y-13736D01*
X396733Y-13812D01*
X397091Y-13898D01*
X397447Y-13991D01*
X397800Y-14094D01*
X398151Y-14205D01*
X398499Y-14325D01*
X398844Y-14453D01*
X399186Y-14590D01*
X399525Y-14735D01*
X399859Y-14888D01*
X400190Y-15050D01*
X400517Y-15219D01*
X400839Y-15397D01*
X401158Y-15582D01*
X401471Y-15775D01*
X401780Y-15976D01*
X402083Y-16184D01*
X402381Y-16400D01*
X402674Y-16623D01*
X402962Y-16853D01*
X403244Y-17090D01*
X403519Y-17334D01*
X403789Y-17584D01*
X404053Y-17841D01*
X404310Y-18105D01*
X404560Y-18375D01*
X404804Y-18650D01*
X405041Y-18932D01*
X405271Y-19220D01*
X405494Y-19513D01*
X405710Y-19811D01*
X405918Y-20114D01*
X406119Y-20423D01*
X406312Y-20736D01*
X406497Y-21055D01*
X406675Y-21377D01*
X406844Y-21704D01*
X407006Y-22035D01*
X407159Y-22369D01*
X407304Y-22708D01*
X407441Y-23050D01*
X407569Y-23395D01*
X407689Y-23743D01*
X407800Y-24094D01*
X407903Y-24447D01*
X407996Y-24803D01*
X408082Y-25161D01*
X408158Y-25522D01*
X408225Y-25884D01*
X408284Y-26247D01*
X408333Y-26612D01*
X408374Y-26978D01*
X408405Y-27345D01*
X408428Y-27712D01*
X408441Y-28080D01*
X408446Y-28448D01*
X408441Y-28816D01*
X408428Y-29184D01*
X408405Y-29551D01*
X408374Y-29918D01*
X408333Y-30284D01*
X408284Y-30649D01*
X408225Y-31012D01*
X408158Y-31374D01*
X408082Y-31735D01*
X407996Y-32093D01*
X407903Y-32449D01*
X407800Y-32802D01*
X407689Y-33153D01*
X407569Y-33501D01*
X407441Y-33846D01*
X407304Y-34188D01*
X407159Y-34527D01*
X407006Y-34861D01*
X406844Y-35192D01*
X406675Y-35519D01*
X406497Y-35841D01*
X406312Y-36160D01*
X406119Y-36473D01*
X405918Y-36782D01*
X405710Y-37085D01*
X405494Y-37383D01*
X405271Y-37676D01*
X405041Y-37964D01*
X404804Y-38246D01*
X404560Y-38521D01*
X404310Y-38791D01*
X404053Y-39055D01*
X403789Y-39312D01*
X403519Y-39562D01*
X403244Y-39806D01*
X402962Y-40043D01*
X402674Y-40273D01*
X402381Y-40496D01*
X402083Y-40712D01*
X401780Y-40920D01*
X401471Y-41121D01*
X401158Y-41314D01*
X400839Y-41499D01*
X400517Y-41677D01*
X400190Y-41846D01*
X399859Y-42008D01*
X399525Y-42161D01*
X399186Y-42306D01*
X398844Y-42443D01*
X398499Y-42571D01*
X398151Y-42691D01*
X397800Y-42802D01*
X397447Y-42905D01*
X397091Y-42998D01*
X396733Y-43084D01*
X396372Y-43160D01*
X396010Y-43227D01*
X395647Y-43286D01*
X395282Y-43335D01*
X394916Y-43376D01*
X394549Y-43407D01*
X394182Y-43430D01*
X393814Y-43443D01*
X393446Y-43448D01*
X393078Y-43443D01*
X392710Y-43430D01*
X392343Y-43407D01*
X391976Y-43376D01*
X391610Y-43335D01*
X391245Y-43286D01*
X390882Y-43227D01*
X390520Y-43160D01*
X390159Y-43084D01*
X389801Y-42998D01*
X389445Y-42905D01*
X389092Y-42802D01*
X388741Y-42691D01*
X388393Y-42571D01*
X388048Y-42443D01*
X387706Y-42306D01*
X387367Y-42161D01*
X387033Y-42008D01*
X386702Y-41846D01*
X386375Y-41677D01*
X386053Y-41499D01*
X385734Y-41314D01*
X385421Y-41121D01*
X385112Y-40920D01*
X384809Y-40712D01*
X384511Y-40496D01*
X384218Y-40273D01*
X383930Y-40043D01*
X383648Y-39806D01*
X383373Y-39562D01*
X383103Y-39312D01*
X382839Y-39055D01*
X382582Y-38791D01*
X382332Y-38521D01*
X382088Y-38246D01*
X381851Y-37964D01*
X381621Y-37676D01*
X381398Y-37383D01*
X381182Y-37085D01*
X380974Y-36782D01*
X380773Y-36473D01*
X380580Y-36160D01*
X380395Y-35841D01*
X380217Y-35519D01*
X380048Y-35192D01*
X379886Y-34861D01*
X379733Y-34527D01*
X379588Y-34188D01*
X379451Y-33846D01*
X379323Y-33501D01*
X379203Y-33153D01*
X379092Y-32802D01*
X378989Y-32449D01*
X378896Y-32093D01*
X378810Y-31735D01*
X378734Y-31374D01*
X378667Y-31012D01*
X378608Y-30649D01*
X378559Y-30284D01*
X378518Y-29918D01*
X378487Y-29551D01*
X378464Y-29184D01*
X378451Y-28816D01*
X378446Y-28448D01*
X378446Y714248D02*
X378451Y714616D01*
X378464Y714984D01*
X378487Y715351D01*
X378518Y715718D01*
X378559Y716084D01*
X378608Y716449D01*
X378667Y716812D01*
X378734Y717174D01*
X378810Y717535D01*
X378896Y717893D01*
X378989Y718249D01*
X379092Y718602D01*
X379203Y718953D01*
X379323Y719301D01*
X379451Y719646D01*
X379588Y719988D01*
X379733Y720327D01*
X379886Y720661D01*
X380048Y720992D01*
X380217Y721319D01*
X380395Y721641D01*
X380580Y721960D01*
X380773Y722273D01*
X380974Y722582D01*
X381182Y722885D01*
X381398Y723183D01*
X381621Y723476D01*
X381851Y723764D01*
X382088Y724046D01*
X382332Y724321D01*
X382582Y724591D01*
X382839Y724855D01*
X383103Y725112D01*
X383373Y725362D01*
X383648Y725606D01*
X383930Y725843D01*
X384218Y726073D01*
X384511Y726296D01*
X384809Y726512D01*
X385112Y726720D01*
X385421Y726921D01*
X385734Y727114D01*
X386053Y727299D01*
X386375Y727477D01*
X386702Y727646D01*
X387033Y727808D01*
X387367Y727961D01*
X387706Y728106D01*
X388048Y728243D01*
X388393Y728371D01*
X388741Y728491D01*
X389092Y728602D01*
X389445Y728705D01*
X389801Y728798D01*
X390159Y728884D01*
X390520Y728960D01*
X390882Y729027D01*
X391245Y729086D01*
X391610Y729135D01*
X391976Y729176D01*
X392343Y729207D01*
X392710Y729230D01*
X393078Y729243D01*
X393446Y729248D01*
X393814Y729243D01*
X394182Y729230D01*
X394549Y729207D01*
X394916Y729176D01*
X395282Y729135D01*
X395647Y729086D01*
X396010Y729027D01*
X396372Y728960D01*
X396733Y728884D01*
X397091Y728798D01*
X397447Y728705D01*
X397800Y728602D01*
X398151Y728491D01*
X398499Y728371D01*
X398844Y728243D01*
X399186Y728106D01*
X399525Y727961D01*
X399859Y727808D01*
X400190Y727646D01*
X400517Y727477D01*
X400839Y727299D01*
X401158Y727114D01*
X401471Y726921D01*
X401780Y726720D01*
X402083Y726512D01*
X402381Y726296D01*
X402674Y726073D01*
X402962Y725843D01*
X403244Y725606D01*
X403519Y725362D01*
X403789Y725112D01*
X404053Y724855D01*
X404310Y724591D01*
X404560Y724321D01*
X404804Y724046D01*
X405041Y723764D01*
X405271Y723476D01*
X405494Y723183D01*
X405710Y722885D01*
X405918Y722582D01*
X406119Y722273D01*
X406312Y721960D01*
X406497Y721641D01*
X406675Y721319D01*
X406844Y720992D01*
X407006Y720661D01*
X407159Y720327D01*
X407304Y719988D01*
X407441Y719646D01*
X407569Y719301D01*
X407689Y718953D01*
X407800Y718602D01*
X407903Y718249D01*
X407996Y717893D01*
X408082Y717535D01*
X408158Y717174D01*
X408225Y716812D01*
X408284Y716449D01*
X408333Y716084D01*
X408374Y715718D01*
X408405Y715351D01*
X408428Y714984D01*
X408441Y714616D01*
X408446Y714248D01*
X408441Y713880D01*
X408428Y713512D01*
X408405Y713145D01*
X408374Y712778D01*
X408333Y712412D01*
X408284Y712047D01*
X408225Y711684D01*
X408158Y711322D01*
X408082Y710961D01*
X407996Y710603D01*
X407903Y710247D01*
X407800Y709894D01*
X407689Y709543D01*
X407569Y709195D01*
X407441Y708850D01*
X407304Y708508D01*
X407159Y708169D01*
X407006Y707835D01*
X406844Y707504D01*
X406675Y707177D01*
X406497Y706855D01*
X406312Y706536D01*
X406119Y706223D01*
X405918Y705914D01*
X405710Y705611D01*
X405494Y705313D01*
X405271Y705020D01*
X405041Y704732D01*
X404804Y704450D01*
X404560Y704175D01*
X404310Y703905D01*
X404053Y703641D01*
X403789Y703384D01*
X403519Y703134D01*
X403244Y702890D01*
X402962Y702653D01*
X402674Y702423D01*
X402381Y702200D01*
X402083Y701984D01*
X401780Y701776D01*
X401471Y701575D01*
X401158Y701382D01*
X400839Y701197D01*
X400517Y701019D01*
X400190Y700850D01*
X399859Y700688D01*
X399525Y700535D01*
X399186Y700390D01*
X398844Y700253D01*
X398499Y700125D01*
X398151Y700005D01*
X397800Y699894D01*
X397447Y699791D01*
X397091Y699698D01*
X396733Y699612D01*
X396372Y699536D01*
X396010Y699469D01*
X395647Y699410D01*
X395282Y699361D01*
X394916Y699320D01*
X394549Y699289D01*
X394182Y699266D01*
X393814Y699253D01*
X393446Y699248D01*
X393078Y699253D01*
X392710Y699266D01*
X392343Y699289D01*
X391976Y699320D01*
X391610Y699361D01*
X391245Y699410D01*
X390882Y699469D01*
X390520Y699536D01*
X390159Y699612D01*
X389801Y699698D01*
X389445Y699791D01*
X389092Y699894D01*
X388741Y700005D01*
X388393Y700125D01*
X388048Y700253D01*
X387706Y700390D01*
X387367Y700535D01*
X387033Y700688D01*
X386702Y700850D01*
X386375Y701019D01*
X386053Y701197D01*
X385734Y701382D01*
X385421Y701575D01*
X385112Y701776D01*
X384809Y701984D01*
X384511Y702200D01*
X384218Y702423D01*
X383930Y702653D01*
X383648Y702890D01*
X383373Y703134D01*
X383103Y703384D01*
X382839Y703641D01*
X382582Y703905D01*
X382332Y704175D01*
X382088Y704450D01*
X381851Y704732D01*
X381621Y705020D01*
X381398Y705313D01*
X381182Y705611D01*
X380974Y705914D01*
X380773Y706223D01*
X380580Y706536D01*
X380395Y706855D01*
X380217Y707177D01*
X380048Y707504D01*
X379886Y707835D01*
X379733Y708169D01*
X379588Y708508D01*
X379451Y708850D01*
X379323Y709195D01*
X379203Y709543D01*
X379092Y709894D01*
X378989Y710247D01*
X378896Y710603D01*
X378810Y710961D01*
X378734Y711322D01*
X378667Y711684D01*
X378608Y712047D01*
X378559Y712412D01*
X378518Y712778D01*
X378487Y713145D01*
X378464Y713512D01*
X378451Y713880D01*
X378446Y714248D01*
D14*
X215900Y330200D03*
D11*
X127000Y330200D01*
D14*
X127000Y330200D03*
X285750Y228600D03*
D11*
X285750Y76200D01*
D14*
X285750Y76200D03*
X266700Y203200D03*
D11*
X266700Y50800D01*
D14*
X266700Y50800D03*
M02*
