G04 EAGLE Gerber RS-274X export*
G75*
%MOMM*%
%FSLAX34Y34*%
%LPD*%
%INBoardOutline*%
%IPPOS*%
%AMOC8*
5,1,8,0,0,1.08239X$1,22.5*%
G01*
%ADD10C,0.000000*%


D10*
X0Y-63500D02*
X428500Y-63500D01*
X428500Y749200D01*
X0Y749200D01*
X0Y-63500D01*
X20052Y-28448D02*
X20057Y-28080D01*
X20070Y-27712D01*
X20093Y-27345D01*
X20124Y-26978D01*
X20165Y-26612D01*
X20214Y-26247D01*
X20273Y-25884D01*
X20340Y-25522D01*
X20416Y-25161D01*
X20502Y-24803D01*
X20595Y-24447D01*
X20698Y-24094D01*
X20809Y-23743D01*
X20929Y-23395D01*
X21057Y-23050D01*
X21194Y-22708D01*
X21339Y-22369D01*
X21492Y-22035D01*
X21654Y-21704D01*
X21823Y-21377D01*
X22001Y-21055D01*
X22186Y-20736D01*
X22379Y-20423D01*
X22580Y-20114D01*
X22788Y-19811D01*
X23004Y-19513D01*
X23227Y-19220D01*
X23457Y-18932D01*
X23694Y-18650D01*
X23938Y-18375D01*
X24188Y-18105D01*
X24445Y-17841D01*
X24709Y-17584D01*
X24979Y-17334D01*
X25254Y-17090D01*
X25536Y-16853D01*
X25824Y-16623D01*
X26117Y-16400D01*
X26415Y-16184D01*
X26718Y-15976D01*
X27027Y-15775D01*
X27340Y-15582D01*
X27659Y-15397D01*
X27981Y-15219D01*
X28308Y-15050D01*
X28639Y-14888D01*
X28973Y-14735D01*
X29312Y-14590D01*
X29654Y-14453D01*
X29999Y-14325D01*
X30347Y-14205D01*
X30698Y-14094D01*
X31051Y-13991D01*
X31407Y-13898D01*
X31765Y-13812D01*
X32126Y-13736D01*
X32488Y-13669D01*
X32851Y-13610D01*
X33216Y-13561D01*
X33582Y-13520D01*
X33949Y-13489D01*
X34316Y-13466D01*
X34684Y-13453D01*
X35052Y-13448D01*
X35420Y-13453D01*
X35788Y-13466D01*
X36155Y-13489D01*
X36522Y-13520D01*
X36888Y-13561D01*
X37253Y-13610D01*
X37616Y-13669D01*
X37978Y-13736D01*
X38339Y-13812D01*
X38697Y-13898D01*
X39053Y-13991D01*
X39406Y-14094D01*
X39757Y-14205D01*
X40105Y-14325D01*
X40450Y-14453D01*
X40792Y-14590D01*
X41131Y-14735D01*
X41465Y-14888D01*
X41796Y-15050D01*
X42123Y-15219D01*
X42445Y-15397D01*
X42764Y-15582D01*
X43077Y-15775D01*
X43386Y-15976D01*
X43689Y-16184D01*
X43987Y-16400D01*
X44280Y-16623D01*
X44568Y-16853D01*
X44850Y-17090D01*
X45125Y-17334D01*
X45395Y-17584D01*
X45659Y-17841D01*
X45916Y-18105D01*
X46166Y-18375D01*
X46410Y-18650D01*
X46647Y-18932D01*
X46877Y-19220D01*
X47100Y-19513D01*
X47316Y-19811D01*
X47524Y-20114D01*
X47725Y-20423D01*
X47918Y-20736D01*
X48103Y-21055D01*
X48281Y-21377D01*
X48450Y-21704D01*
X48612Y-22035D01*
X48765Y-22369D01*
X48910Y-22708D01*
X49047Y-23050D01*
X49175Y-23395D01*
X49295Y-23743D01*
X49406Y-24094D01*
X49509Y-24447D01*
X49602Y-24803D01*
X49688Y-25161D01*
X49764Y-25522D01*
X49831Y-25884D01*
X49890Y-26247D01*
X49939Y-26612D01*
X49980Y-26978D01*
X50011Y-27345D01*
X50034Y-27712D01*
X50047Y-28080D01*
X50052Y-28448D01*
X50047Y-28816D01*
X50034Y-29184D01*
X50011Y-29551D01*
X49980Y-29918D01*
X49939Y-30284D01*
X49890Y-30649D01*
X49831Y-31012D01*
X49764Y-31374D01*
X49688Y-31735D01*
X49602Y-32093D01*
X49509Y-32449D01*
X49406Y-32802D01*
X49295Y-33153D01*
X49175Y-33501D01*
X49047Y-33846D01*
X48910Y-34188D01*
X48765Y-34527D01*
X48612Y-34861D01*
X48450Y-35192D01*
X48281Y-35519D01*
X48103Y-35841D01*
X47918Y-36160D01*
X47725Y-36473D01*
X47524Y-36782D01*
X47316Y-37085D01*
X47100Y-37383D01*
X46877Y-37676D01*
X46647Y-37964D01*
X46410Y-38246D01*
X46166Y-38521D01*
X45916Y-38791D01*
X45659Y-39055D01*
X45395Y-39312D01*
X45125Y-39562D01*
X44850Y-39806D01*
X44568Y-40043D01*
X44280Y-40273D01*
X43987Y-40496D01*
X43689Y-40712D01*
X43386Y-40920D01*
X43077Y-41121D01*
X42764Y-41314D01*
X42445Y-41499D01*
X42123Y-41677D01*
X41796Y-41846D01*
X41465Y-42008D01*
X41131Y-42161D01*
X40792Y-42306D01*
X40450Y-42443D01*
X40105Y-42571D01*
X39757Y-42691D01*
X39406Y-42802D01*
X39053Y-42905D01*
X38697Y-42998D01*
X38339Y-43084D01*
X37978Y-43160D01*
X37616Y-43227D01*
X37253Y-43286D01*
X36888Y-43335D01*
X36522Y-43376D01*
X36155Y-43407D01*
X35788Y-43430D01*
X35420Y-43443D01*
X35052Y-43448D01*
X34684Y-43443D01*
X34316Y-43430D01*
X33949Y-43407D01*
X33582Y-43376D01*
X33216Y-43335D01*
X32851Y-43286D01*
X32488Y-43227D01*
X32126Y-43160D01*
X31765Y-43084D01*
X31407Y-42998D01*
X31051Y-42905D01*
X30698Y-42802D01*
X30347Y-42691D01*
X29999Y-42571D01*
X29654Y-42443D01*
X29312Y-42306D01*
X28973Y-42161D01*
X28639Y-42008D01*
X28308Y-41846D01*
X27981Y-41677D01*
X27659Y-41499D01*
X27340Y-41314D01*
X27027Y-41121D01*
X26718Y-40920D01*
X26415Y-40712D01*
X26117Y-40496D01*
X25824Y-40273D01*
X25536Y-40043D01*
X25254Y-39806D01*
X24979Y-39562D01*
X24709Y-39312D01*
X24445Y-39055D01*
X24188Y-38791D01*
X23938Y-38521D01*
X23694Y-38246D01*
X23457Y-37964D01*
X23227Y-37676D01*
X23004Y-37383D01*
X22788Y-37085D01*
X22580Y-36782D01*
X22379Y-36473D01*
X22186Y-36160D01*
X22001Y-35841D01*
X21823Y-35519D01*
X21654Y-35192D01*
X21492Y-34861D01*
X21339Y-34527D01*
X21194Y-34188D01*
X21057Y-33846D01*
X20929Y-33501D01*
X20809Y-33153D01*
X20698Y-32802D01*
X20595Y-32449D01*
X20502Y-32093D01*
X20416Y-31735D01*
X20340Y-31374D01*
X20273Y-31012D01*
X20214Y-30649D01*
X20165Y-30284D01*
X20124Y-29918D01*
X20093Y-29551D01*
X20070Y-29184D01*
X20057Y-28816D01*
X20052Y-28448D01*
X20052Y714248D02*
X20057Y714616D01*
X20070Y714984D01*
X20093Y715351D01*
X20124Y715718D01*
X20165Y716084D01*
X20214Y716449D01*
X20273Y716812D01*
X20340Y717174D01*
X20416Y717535D01*
X20502Y717893D01*
X20595Y718249D01*
X20698Y718602D01*
X20809Y718953D01*
X20929Y719301D01*
X21057Y719646D01*
X21194Y719988D01*
X21339Y720327D01*
X21492Y720661D01*
X21654Y720992D01*
X21823Y721319D01*
X22001Y721641D01*
X22186Y721960D01*
X22379Y722273D01*
X22580Y722582D01*
X22788Y722885D01*
X23004Y723183D01*
X23227Y723476D01*
X23457Y723764D01*
X23694Y724046D01*
X23938Y724321D01*
X24188Y724591D01*
X24445Y724855D01*
X24709Y725112D01*
X24979Y725362D01*
X25254Y725606D01*
X25536Y725843D01*
X25824Y726073D01*
X26117Y726296D01*
X26415Y726512D01*
X26718Y726720D01*
X27027Y726921D01*
X27340Y727114D01*
X27659Y727299D01*
X27981Y727477D01*
X28308Y727646D01*
X28639Y727808D01*
X28973Y727961D01*
X29312Y728106D01*
X29654Y728243D01*
X29999Y728371D01*
X30347Y728491D01*
X30698Y728602D01*
X31051Y728705D01*
X31407Y728798D01*
X31765Y728884D01*
X32126Y728960D01*
X32488Y729027D01*
X32851Y729086D01*
X33216Y729135D01*
X33582Y729176D01*
X33949Y729207D01*
X34316Y729230D01*
X34684Y729243D01*
X35052Y729248D01*
X35420Y729243D01*
X35788Y729230D01*
X36155Y729207D01*
X36522Y729176D01*
X36888Y729135D01*
X37253Y729086D01*
X37616Y729027D01*
X37978Y728960D01*
X38339Y728884D01*
X38697Y728798D01*
X39053Y728705D01*
X39406Y728602D01*
X39757Y728491D01*
X40105Y728371D01*
X40450Y728243D01*
X40792Y728106D01*
X41131Y727961D01*
X41465Y727808D01*
X41796Y727646D01*
X42123Y727477D01*
X42445Y727299D01*
X42764Y727114D01*
X43077Y726921D01*
X43386Y726720D01*
X43689Y726512D01*
X43987Y726296D01*
X44280Y726073D01*
X44568Y725843D01*
X44850Y725606D01*
X45125Y725362D01*
X45395Y725112D01*
X45659Y724855D01*
X45916Y724591D01*
X46166Y724321D01*
X46410Y724046D01*
X46647Y723764D01*
X46877Y723476D01*
X47100Y723183D01*
X47316Y722885D01*
X47524Y722582D01*
X47725Y722273D01*
X47918Y721960D01*
X48103Y721641D01*
X48281Y721319D01*
X48450Y720992D01*
X48612Y720661D01*
X48765Y720327D01*
X48910Y719988D01*
X49047Y719646D01*
X49175Y719301D01*
X49295Y718953D01*
X49406Y718602D01*
X49509Y718249D01*
X49602Y717893D01*
X49688Y717535D01*
X49764Y717174D01*
X49831Y716812D01*
X49890Y716449D01*
X49939Y716084D01*
X49980Y715718D01*
X50011Y715351D01*
X50034Y714984D01*
X50047Y714616D01*
X50052Y714248D01*
X50047Y713880D01*
X50034Y713512D01*
X50011Y713145D01*
X49980Y712778D01*
X49939Y712412D01*
X49890Y712047D01*
X49831Y711684D01*
X49764Y711322D01*
X49688Y710961D01*
X49602Y710603D01*
X49509Y710247D01*
X49406Y709894D01*
X49295Y709543D01*
X49175Y709195D01*
X49047Y708850D01*
X48910Y708508D01*
X48765Y708169D01*
X48612Y707835D01*
X48450Y707504D01*
X48281Y707177D01*
X48103Y706855D01*
X47918Y706536D01*
X47725Y706223D01*
X47524Y705914D01*
X47316Y705611D01*
X47100Y705313D01*
X46877Y705020D01*
X46647Y704732D01*
X46410Y704450D01*
X46166Y704175D01*
X45916Y703905D01*
X45659Y703641D01*
X45395Y703384D01*
X45125Y703134D01*
X44850Y702890D01*
X44568Y702653D01*
X44280Y702423D01*
X43987Y702200D01*
X43689Y701984D01*
X43386Y701776D01*
X43077Y701575D01*
X42764Y701382D01*
X42445Y701197D01*
X42123Y701019D01*
X41796Y700850D01*
X41465Y700688D01*
X41131Y700535D01*
X40792Y700390D01*
X40450Y700253D01*
X40105Y700125D01*
X39757Y700005D01*
X39406Y699894D01*
X39053Y699791D01*
X38697Y699698D01*
X38339Y699612D01*
X37978Y699536D01*
X37616Y699469D01*
X37253Y699410D01*
X36888Y699361D01*
X36522Y699320D01*
X36155Y699289D01*
X35788Y699266D01*
X35420Y699253D01*
X35052Y699248D01*
X34684Y699253D01*
X34316Y699266D01*
X33949Y699289D01*
X33582Y699320D01*
X33216Y699361D01*
X32851Y699410D01*
X32488Y699469D01*
X32126Y699536D01*
X31765Y699612D01*
X31407Y699698D01*
X31051Y699791D01*
X30698Y699894D01*
X30347Y700005D01*
X29999Y700125D01*
X29654Y700253D01*
X29312Y700390D01*
X28973Y700535D01*
X28639Y700688D01*
X28308Y700850D01*
X27981Y701019D01*
X27659Y701197D01*
X27340Y701382D01*
X27027Y701575D01*
X26718Y701776D01*
X26415Y701984D01*
X26117Y702200D01*
X25824Y702423D01*
X25536Y702653D01*
X25254Y702890D01*
X24979Y703134D01*
X24709Y703384D01*
X24445Y703641D01*
X24188Y703905D01*
X23938Y704175D01*
X23694Y704450D01*
X23457Y704732D01*
X23227Y705020D01*
X23004Y705313D01*
X22788Y705611D01*
X22580Y705914D01*
X22379Y706223D01*
X22186Y706536D01*
X22001Y706855D01*
X21823Y707177D01*
X21654Y707504D01*
X21492Y707835D01*
X21339Y708169D01*
X21194Y708508D01*
X21057Y708850D01*
X20929Y709195D01*
X20809Y709543D01*
X20698Y709894D01*
X20595Y710247D01*
X20502Y710603D01*
X20416Y710961D01*
X20340Y711322D01*
X20273Y711684D01*
X20214Y712047D01*
X20165Y712412D01*
X20124Y712778D01*
X20093Y713145D01*
X20070Y713512D01*
X20057Y713880D01*
X20052Y714248D01*
X378446Y-28448D02*
X378451Y-28080D01*
X378464Y-27712D01*
X378487Y-27345D01*
X378518Y-26978D01*
X378559Y-26612D01*
X378608Y-26247D01*
X378667Y-25884D01*
X378734Y-25522D01*
X378810Y-25161D01*
X378896Y-24803D01*
X378989Y-24447D01*
X379092Y-24094D01*
X379203Y-23743D01*
X379323Y-23395D01*
X379451Y-23050D01*
X379588Y-22708D01*
X379733Y-22369D01*
X379886Y-22035D01*
X380048Y-21704D01*
X380217Y-21377D01*
X380395Y-21055D01*
X380580Y-20736D01*
X380773Y-20423D01*
X380974Y-20114D01*
X381182Y-19811D01*
X381398Y-19513D01*
X381621Y-19220D01*
X381851Y-18932D01*
X382088Y-18650D01*
X382332Y-18375D01*
X382582Y-18105D01*
X382839Y-17841D01*
X383103Y-17584D01*
X383373Y-17334D01*
X383648Y-17090D01*
X383930Y-16853D01*
X384218Y-16623D01*
X384511Y-16400D01*
X384809Y-16184D01*
X385112Y-15976D01*
X385421Y-15775D01*
X385734Y-15582D01*
X386053Y-15397D01*
X386375Y-15219D01*
X386702Y-15050D01*
X387033Y-14888D01*
X387367Y-14735D01*
X387706Y-14590D01*
X388048Y-14453D01*
X388393Y-14325D01*
X388741Y-14205D01*
X389092Y-14094D01*
X389445Y-13991D01*
X389801Y-13898D01*
X390159Y-13812D01*
X390520Y-13736D01*
X390882Y-13669D01*
X391245Y-13610D01*
X391610Y-13561D01*
X391976Y-13520D01*
X392343Y-13489D01*
X392710Y-13466D01*
X393078Y-13453D01*
X393446Y-13448D01*
X393814Y-13453D01*
X394182Y-13466D01*
X394549Y-13489D01*
X394916Y-13520D01*
X395282Y-13561D01*
X395647Y-13610D01*
X396010Y-13669D01*
X396372Y-13736D01*
X396733Y-13812D01*
X397091Y-13898D01*
X397447Y-13991D01*
X397800Y-14094D01*
X398151Y-14205D01*
X398499Y-14325D01*
X398844Y-14453D01*
X399186Y-14590D01*
X399525Y-14735D01*
X399859Y-14888D01*
X400190Y-15050D01*
X400517Y-15219D01*
X400839Y-15397D01*
X401158Y-15582D01*
X401471Y-15775D01*
X401780Y-15976D01*
X402083Y-16184D01*
X402381Y-16400D01*
X402674Y-16623D01*
X402962Y-16853D01*
X403244Y-17090D01*
X403519Y-17334D01*
X403789Y-17584D01*
X404053Y-17841D01*
X404310Y-18105D01*
X404560Y-18375D01*
X404804Y-18650D01*
X405041Y-18932D01*
X405271Y-19220D01*
X405494Y-19513D01*
X405710Y-19811D01*
X405918Y-20114D01*
X406119Y-20423D01*
X406312Y-20736D01*
X406497Y-21055D01*
X406675Y-21377D01*
X406844Y-21704D01*
X407006Y-22035D01*
X407159Y-22369D01*
X407304Y-22708D01*
X407441Y-23050D01*
X407569Y-23395D01*
X407689Y-23743D01*
X407800Y-24094D01*
X407903Y-24447D01*
X407996Y-24803D01*
X408082Y-25161D01*
X408158Y-25522D01*
X408225Y-25884D01*
X408284Y-26247D01*
X408333Y-26612D01*
X408374Y-26978D01*
X408405Y-27345D01*
X408428Y-27712D01*
X408441Y-28080D01*
X408446Y-28448D01*
X408441Y-28816D01*
X408428Y-29184D01*
X408405Y-29551D01*
X408374Y-29918D01*
X408333Y-30284D01*
X408284Y-30649D01*
X408225Y-31012D01*
X408158Y-31374D01*
X408082Y-31735D01*
X407996Y-32093D01*
X407903Y-32449D01*
X407800Y-32802D01*
X407689Y-33153D01*
X407569Y-33501D01*
X407441Y-33846D01*
X407304Y-34188D01*
X407159Y-34527D01*
X407006Y-34861D01*
X406844Y-35192D01*
X406675Y-35519D01*
X406497Y-35841D01*
X406312Y-36160D01*
X406119Y-36473D01*
X405918Y-36782D01*
X405710Y-37085D01*
X405494Y-37383D01*
X405271Y-37676D01*
X405041Y-37964D01*
X404804Y-38246D01*
X404560Y-38521D01*
X404310Y-38791D01*
X404053Y-39055D01*
X403789Y-39312D01*
X403519Y-39562D01*
X403244Y-39806D01*
X402962Y-40043D01*
X402674Y-40273D01*
X402381Y-40496D01*
X402083Y-40712D01*
X401780Y-40920D01*
X401471Y-41121D01*
X401158Y-41314D01*
X400839Y-41499D01*
X400517Y-41677D01*
X400190Y-41846D01*
X399859Y-42008D01*
X399525Y-42161D01*
X399186Y-42306D01*
X398844Y-42443D01*
X398499Y-42571D01*
X398151Y-42691D01*
X397800Y-42802D01*
X397447Y-42905D01*
X397091Y-42998D01*
X396733Y-43084D01*
X396372Y-43160D01*
X396010Y-43227D01*
X395647Y-43286D01*
X395282Y-43335D01*
X394916Y-43376D01*
X394549Y-43407D01*
X394182Y-43430D01*
X393814Y-43443D01*
X393446Y-43448D01*
X393078Y-43443D01*
X392710Y-43430D01*
X392343Y-43407D01*
X391976Y-43376D01*
X391610Y-43335D01*
X391245Y-43286D01*
X390882Y-43227D01*
X390520Y-43160D01*
X390159Y-43084D01*
X389801Y-42998D01*
X389445Y-42905D01*
X389092Y-42802D01*
X388741Y-42691D01*
X388393Y-42571D01*
X388048Y-42443D01*
X387706Y-42306D01*
X387367Y-42161D01*
X387033Y-42008D01*
X386702Y-41846D01*
X386375Y-41677D01*
X386053Y-41499D01*
X385734Y-41314D01*
X385421Y-41121D01*
X385112Y-40920D01*
X384809Y-40712D01*
X384511Y-40496D01*
X384218Y-40273D01*
X383930Y-40043D01*
X383648Y-39806D01*
X383373Y-39562D01*
X383103Y-39312D01*
X382839Y-39055D01*
X382582Y-38791D01*
X382332Y-38521D01*
X382088Y-38246D01*
X381851Y-37964D01*
X381621Y-37676D01*
X381398Y-37383D01*
X381182Y-37085D01*
X380974Y-36782D01*
X380773Y-36473D01*
X380580Y-36160D01*
X380395Y-35841D01*
X380217Y-35519D01*
X380048Y-35192D01*
X379886Y-34861D01*
X379733Y-34527D01*
X379588Y-34188D01*
X379451Y-33846D01*
X379323Y-33501D01*
X379203Y-33153D01*
X379092Y-32802D01*
X378989Y-32449D01*
X378896Y-32093D01*
X378810Y-31735D01*
X378734Y-31374D01*
X378667Y-31012D01*
X378608Y-30649D01*
X378559Y-30284D01*
X378518Y-29918D01*
X378487Y-29551D01*
X378464Y-29184D01*
X378451Y-28816D01*
X378446Y-28448D01*
X378446Y714248D02*
X378451Y714616D01*
X378464Y714984D01*
X378487Y715351D01*
X378518Y715718D01*
X378559Y716084D01*
X378608Y716449D01*
X378667Y716812D01*
X378734Y717174D01*
X378810Y717535D01*
X378896Y717893D01*
X378989Y718249D01*
X379092Y718602D01*
X379203Y718953D01*
X379323Y719301D01*
X379451Y719646D01*
X379588Y719988D01*
X379733Y720327D01*
X379886Y720661D01*
X380048Y720992D01*
X380217Y721319D01*
X380395Y721641D01*
X380580Y721960D01*
X380773Y722273D01*
X380974Y722582D01*
X381182Y722885D01*
X381398Y723183D01*
X381621Y723476D01*
X381851Y723764D01*
X382088Y724046D01*
X382332Y724321D01*
X382582Y724591D01*
X382839Y724855D01*
X383103Y725112D01*
X383373Y725362D01*
X383648Y725606D01*
X383930Y725843D01*
X384218Y726073D01*
X384511Y726296D01*
X384809Y726512D01*
X385112Y726720D01*
X385421Y726921D01*
X385734Y727114D01*
X386053Y727299D01*
X386375Y727477D01*
X386702Y727646D01*
X387033Y727808D01*
X387367Y727961D01*
X387706Y728106D01*
X388048Y728243D01*
X388393Y728371D01*
X388741Y728491D01*
X389092Y728602D01*
X389445Y728705D01*
X389801Y728798D01*
X390159Y728884D01*
X390520Y728960D01*
X390882Y729027D01*
X391245Y729086D01*
X391610Y729135D01*
X391976Y729176D01*
X392343Y729207D01*
X392710Y729230D01*
X393078Y729243D01*
X393446Y729248D01*
X393814Y729243D01*
X394182Y729230D01*
X394549Y729207D01*
X394916Y729176D01*
X395282Y729135D01*
X395647Y729086D01*
X396010Y729027D01*
X396372Y728960D01*
X396733Y728884D01*
X397091Y728798D01*
X397447Y728705D01*
X397800Y728602D01*
X398151Y728491D01*
X398499Y728371D01*
X398844Y728243D01*
X399186Y728106D01*
X399525Y727961D01*
X399859Y727808D01*
X400190Y727646D01*
X400517Y727477D01*
X400839Y727299D01*
X401158Y727114D01*
X401471Y726921D01*
X401780Y726720D01*
X402083Y726512D01*
X402381Y726296D01*
X402674Y726073D01*
X402962Y725843D01*
X403244Y725606D01*
X403519Y725362D01*
X403789Y725112D01*
X404053Y724855D01*
X404310Y724591D01*
X404560Y724321D01*
X404804Y724046D01*
X405041Y723764D01*
X405271Y723476D01*
X405494Y723183D01*
X405710Y722885D01*
X405918Y722582D01*
X406119Y722273D01*
X406312Y721960D01*
X406497Y721641D01*
X406675Y721319D01*
X406844Y720992D01*
X407006Y720661D01*
X407159Y720327D01*
X407304Y719988D01*
X407441Y719646D01*
X407569Y719301D01*
X407689Y718953D01*
X407800Y718602D01*
X407903Y718249D01*
X407996Y717893D01*
X408082Y717535D01*
X408158Y717174D01*
X408225Y716812D01*
X408284Y716449D01*
X408333Y716084D01*
X408374Y715718D01*
X408405Y715351D01*
X408428Y714984D01*
X408441Y714616D01*
X408446Y714248D01*
X408441Y713880D01*
X408428Y713512D01*
X408405Y713145D01*
X408374Y712778D01*
X408333Y712412D01*
X408284Y712047D01*
X408225Y711684D01*
X408158Y711322D01*
X408082Y710961D01*
X407996Y710603D01*
X407903Y710247D01*
X407800Y709894D01*
X407689Y709543D01*
X407569Y709195D01*
X407441Y708850D01*
X407304Y708508D01*
X407159Y708169D01*
X407006Y707835D01*
X406844Y707504D01*
X406675Y707177D01*
X406497Y706855D01*
X406312Y706536D01*
X406119Y706223D01*
X405918Y705914D01*
X405710Y705611D01*
X405494Y705313D01*
X405271Y705020D01*
X405041Y704732D01*
X404804Y704450D01*
X404560Y704175D01*
X404310Y703905D01*
X404053Y703641D01*
X403789Y703384D01*
X403519Y703134D01*
X403244Y702890D01*
X402962Y702653D01*
X402674Y702423D01*
X402381Y702200D01*
X402083Y701984D01*
X401780Y701776D01*
X401471Y701575D01*
X401158Y701382D01*
X400839Y701197D01*
X400517Y701019D01*
X400190Y700850D01*
X399859Y700688D01*
X399525Y700535D01*
X399186Y700390D01*
X398844Y700253D01*
X398499Y700125D01*
X398151Y700005D01*
X397800Y699894D01*
X397447Y699791D01*
X397091Y699698D01*
X396733Y699612D01*
X396372Y699536D01*
X396010Y699469D01*
X395647Y699410D01*
X395282Y699361D01*
X394916Y699320D01*
X394549Y699289D01*
X394182Y699266D01*
X393814Y699253D01*
X393446Y699248D01*
X393078Y699253D01*
X392710Y699266D01*
X392343Y699289D01*
X391976Y699320D01*
X391610Y699361D01*
X391245Y699410D01*
X390882Y699469D01*
X390520Y699536D01*
X390159Y699612D01*
X389801Y699698D01*
X389445Y699791D01*
X389092Y699894D01*
X388741Y700005D01*
X388393Y700125D01*
X388048Y700253D01*
X387706Y700390D01*
X387367Y700535D01*
X387033Y700688D01*
X386702Y700850D01*
X386375Y701019D01*
X386053Y701197D01*
X385734Y701382D01*
X385421Y701575D01*
X385112Y701776D01*
X384809Y701984D01*
X384511Y702200D01*
X384218Y702423D01*
X383930Y702653D01*
X383648Y702890D01*
X383373Y703134D01*
X383103Y703384D01*
X382839Y703641D01*
X382582Y703905D01*
X382332Y704175D01*
X382088Y704450D01*
X381851Y704732D01*
X381621Y705020D01*
X381398Y705313D01*
X381182Y705611D01*
X380974Y705914D01*
X380773Y706223D01*
X380580Y706536D01*
X380395Y706855D01*
X380217Y707177D01*
X380048Y707504D01*
X379886Y707835D01*
X379733Y708169D01*
X379588Y708508D01*
X379451Y708850D01*
X379323Y709195D01*
X379203Y709543D01*
X379092Y709894D01*
X378989Y710247D01*
X378896Y710603D01*
X378810Y710961D01*
X378734Y711322D01*
X378667Y711684D01*
X378608Y712047D01*
X378559Y712412D01*
X378518Y712778D01*
X378487Y713145D01*
X378464Y713512D01*
X378451Y713880D01*
X378446Y714248D01*
M02*
