M48
;GenerationSoftware,Autodesk,EAGLE,9.6.2*%
;CreationDate,2025-03-14T20:51:38Z*%
FMAT,2
ICI,OFF
METRIC,TZ,000.000
T4C0.813
T3C1.000
T2C1.016
T1C3.000
%
G90
M71
T1
X3505Y71425
X3505Y-2845
X39345Y-2845
X39345Y71425
T2
X31750Y63500
X31750Y60960
X31750Y58420
X31750Y55880
X31750Y53340
X31750Y2540
X31750Y50800
X31750Y48260
X31750Y66040
X31750Y25400
X31750Y27940
X31750Y30480
X31750Y33020
X31750Y35560
X31750Y38100
X31750Y40640
X31750Y43180
X31750Y5080
X31750Y7620
X31750Y10160
X31750Y12700
X31750Y15240
X31750Y17780
X31750Y20320
T3
X24130Y25400
X24130Y27940
X24130Y30480
X3810Y48260
X24130Y35560
X24130Y38100
X24130Y40640
X24130Y43180
X24130Y45720
X24130Y48260
X24130Y33020
X3810Y58420
X3810Y55880
X3810Y53340
X3810Y50800
X3810Y45720
X3810Y43180
X3810Y40640
X3810Y38100
X3810Y35560
X3810Y22860
X3810Y33020
X3810Y30480
X3810Y27940
X3810Y25400
X3810Y20320
X24130Y20320
X24130Y22860
T4
X12700Y33020
X21590Y33020
X26670Y5080
X26670Y20320
X28575Y7620
X28575Y22860
M30