G04 EAGLE Gerber RS-274X export*
G75*
%MOMM*%
%FSLAX34Y34*%
%LPD*%
%INTopLayer*%
%IPPOS*%
%AMOC8*
5,1,8,0,0,1.08239X$1,22.5*%
G01*
%ADD10C,0.000000*%
%ADD11C,0.130000*%
%ADD12C,0.152400*%
%ADD13C,1.812800*%
%ADD14C,1.778000*%
%ADD15C,1.828800*%

G36*
X423946Y2543D02*
X423946Y2543D01*
X423964Y2541D01*
X424146Y2562D01*
X424329Y2581D01*
X424346Y2586D01*
X424363Y2588D01*
X424538Y2645D01*
X424714Y2699D01*
X424729Y2707D01*
X424746Y2713D01*
X424906Y2803D01*
X425068Y2891D01*
X425081Y2902D01*
X425097Y2911D01*
X425236Y3031D01*
X425377Y3148D01*
X425388Y3162D01*
X425402Y3174D01*
X425514Y3319D01*
X425629Y3462D01*
X425637Y3478D01*
X425648Y3492D01*
X425730Y3657D01*
X425815Y3819D01*
X425820Y3836D01*
X425828Y3852D01*
X425875Y4031D01*
X425926Y4206D01*
X425928Y4224D01*
X425932Y4241D01*
X425959Y4572D01*
X425959Y794850D01*
X425959Y794852D01*
X425959Y794853D01*
X425939Y795053D01*
X425919Y795251D01*
X425919Y795252D01*
X425919Y795254D01*
X425860Y795443D01*
X425801Y795635D01*
X425800Y795637D01*
X425800Y795638D01*
X425705Y795813D01*
X425609Y795989D01*
X425608Y795991D01*
X425608Y795992D01*
X425478Y796148D01*
X425352Y796299D01*
X425350Y796300D01*
X425349Y796301D01*
X425192Y796427D01*
X425038Y796551D01*
X425037Y796552D01*
X425035Y796553D01*
X424849Y796649D01*
X424681Y796737D01*
X424679Y796737D01*
X424678Y796738D01*
X424477Y796795D01*
X424294Y796848D01*
X424292Y796848D01*
X424290Y796849D01*
X423960Y796881D01*
X387545Y797459D01*
X387530Y797458D01*
X387512Y797459D01*
X4572Y797459D01*
X4554Y797457D01*
X4536Y797459D01*
X4354Y797438D01*
X4171Y797419D01*
X4154Y797414D01*
X4137Y797412D01*
X3962Y797355D01*
X3786Y797301D01*
X3771Y797293D01*
X3754Y797287D01*
X3594Y797197D01*
X3432Y797109D01*
X3419Y797098D01*
X3403Y797089D01*
X3264Y796969D01*
X3123Y796852D01*
X3112Y796838D01*
X3098Y796826D01*
X2986Y796681D01*
X2871Y796538D01*
X2863Y796522D01*
X2852Y796508D01*
X2770Y796343D01*
X2685Y796181D01*
X2680Y796164D01*
X2672Y796148D01*
X2625Y795969D01*
X2574Y795794D01*
X2572Y795776D01*
X2568Y795759D01*
X2541Y795428D01*
X2541Y11751D01*
X2541Y11749D01*
X2541Y11748D01*
X2561Y11548D01*
X2581Y11350D01*
X2581Y11349D01*
X2581Y11347D01*
X2640Y11157D01*
X2699Y10965D01*
X2700Y10964D01*
X2700Y10962D01*
X2795Y10788D01*
X2891Y10611D01*
X2892Y10610D01*
X2892Y10609D01*
X3022Y10453D01*
X3148Y10302D01*
X3150Y10301D01*
X3151Y10300D01*
X3308Y10173D01*
X3462Y10050D01*
X3463Y10049D01*
X3465Y10048D01*
X3651Y9952D01*
X3819Y9864D01*
X3821Y9864D01*
X3822Y9863D01*
X4023Y9806D01*
X4206Y9753D01*
X4208Y9753D01*
X4210Y9752D01*
X4540Y9720D01*
X417172Y3169D01*
X417182Y3159D01*
X417215Y3131D01*
X417243Y3098D01*
X417369Y3001D01*
X417490Y2899D01*
X417527Y2878D01*
X417561Y2852D01*
X417704Y2781D01*
X417843Y2704D01*
X417883Y2692D01*
X417922Y2672D01*
X418076Y2631D01*
X418227Y2584D01*
X418269Y2579D01*
X418311Y2568D01*
X418582Y2546D01*
X418627Y2541D01*
X418633Y2541D01*
X418641Y2541D01*
X423928Y2541D01*
X423946Y2543D01*
G37*
%LPC*%
G36*
X304658Y612106D02*
X304658Y612106D01*
X304640Y612108D01*
X304623Y612112D01*
X304292Y612139D01*
X284228Y612139D01*
X284259Y612336D01*
X284827Y614086D01*
X285662Y615724D01*
X286743Y617212D01*
X288044Y618513D01*
X289532Y619594D01*
X291215Y620451D01*
X291217Y620452D01*
X291228Y620458D01*
X291313Y620501D01*
X291330Y620512D01*
X291418Y620551D01*
X291492Y620602D01*
X291570Y620645D01*
X291656Y620717D01*
X291748Y620782D01*
X291810Y620847D01*
X291878Y620904D01*
X291948Y620992D01*
X292026Y621073D01*
X292073Y621149D01*
X292129Y621219D01*
X292180Y621319D01*
X292240Y621414D01*
X292272Y621498D01*
X292313Y621577D01*
X292344Y621685D01*
X292384Y621790D01*
X292398Y621879D01*
X292423Y621965D01*
X292431Y622077D01*
X292450Y622188D01*
X292447Y622277D01*
X292454Y622366D01*
X292440Y622477D01*
X292436Y622590D01*
X292416Y622677D01*
X292405Y622766D01*
X292370Y622872D01*
X292344Y622982D01*
X292307Y623063D01*
X292279Y623148D01*
X292223Y623245D01*
X292176Y623348D01*
X292123Y623420D01*
X292079Y623498D01*
X292005Y623582D01*
X291939Y623673D01*
X291873Y623734D01*
X291815Y623801D01*
X291726Y623870D01*
X291643Y623946D01*
X291566Y623992D01*
X291495Y624047D01*
X291371Y624111D01*
X291298Y624154D01*
X291255Y624170D01*
X291200Y624198D01*
X289037Y625094D01*
X285750Y628381D01*
X283971Y632676D01*
X283971Y637324D01*
X285750Y641619D01*
X289037Y644906D01*
X291252Y645823D01*
X291260Y645828D01*
X291269Y645830D01*
X291439Y645923D01*
X291607Y646014D01*
X291614Y646019D01*
X291622Y646024D01*
X291770Y646148D01*
X291918Y646270D01*
X291923Y646277D01*
X291930Y646283D01*
X292050Y646433D01*
X292171Y646583D01*
X292175Y646591D01*
X292181Y646598D01*
X292268Y646767D01*
X292358Y646939D01*
X292361Y646948D01*
X292365Y646956D01*
X292417Y647138D01*
X292471Y647326D01*
X292472Y647335D01*
X292475Y647343D01*
X292489Y647534D01*
X292506Y647727D01*
X292505Y647736D01*
X292506Y647744D01*
X292482Y647935D01*
X292461Y648127D01*
X292458Y648135D01*
X292457Y648144D01*
X292397Y648326D01*
X292338Y648510D01*
X292333Y648518D01*
X292330Y648526D01*
X292236Y648693D01*
X292141Y648862D01*
X292136Y648868D01*
X292131Y648876D01*
X292004Y649022D01*
X291879Y649167D01*
X291872Y649173D01*
X291867Y649180D01*
X291715Y649296D01*
X291562Y649416D01*
X291554Y649420D01*
X291547Y649425D01*
X291252Y649577D01*
X289037Y650494D01*
X285750Y653781D01*
X283971Y658076D01*
X283971Y662724D01*
X285750Y667019D01*
X289037Y670306D01*
X290665Y670980D01*
X291252Y671223D01*
X291260Y671228D01*
X291269Y671230D01*
X291439Y671323D01*
X291607Y671414D01*
X291614Y671419D01*
X291622Y671424D01*
X291770Y671548D01*
X291918Y671670D01*
X291923Y671677D01*
X291930Y671683D01*
X292050Y671833D01*
X292171Y671983D01*
X292175Y671991D01*
X292181Y671998D01*
X292268Y672167D01*
X292358Y672339D01*
X292361Y672348D01*
X292365Y672356D01*
X292417Y672538D01*
X292471Y672726D01*
X292472Y672735D01*
X292475Y672743D01*
X292489Y672934D01*
X292506Y673127D01*
X292505Y673136D01*
X292506Y673144D01*
X292482Y673335D01*
X292461Y673527D01*
X292458Y673535D01*
X292457Y673544D01*
X292397Y673726D01*
X292338Y673910D01*
X292333Y673918D01*
X292330Y673926D01*
X292235Y674094D01*
X292141Y674262D01*
X292136Y674268D01*
X292131Y674276D01*
X292004Y674422D01*
X291879Y674567D01*
X291872Y674573D01*
X291867Y674580D01*
X291714Y674697D01*
X291562Y674816D01*
X291554Y674820D01*
X291547Y674825D01*
X291252Y674977D01*
X289037Y675894D01*
X285750Y679181D01*
X283971Y683476D01*
X283971Y688124D01*
X285750Y692419D01*
X289037Y695706D01*
X291252Y696623D01*
X291260Y696628D01*
X291269Y696630D01*
X291439Y696723D01*
X291607Y696814D01*
X291614Y696819D01*
X291622Y696824D01*
X291770Y696948D01*
X291918Y697070D01*
X291923Y697077D01*
X291930Y697083D01*
X292050Y697233D01*
X292171Y697383D01*
X292175Y697391D01*
X292181Y697398D01*
X292268Y697567D01*
X292358Y697739D01*
X292361Y697748D01*
X292365Y697756D01*
X292417Y697938D01*
X292471Y698126D01*
X292472Y698135D01*
X292475Y698143D01*
X292489Y698334D01*
X292506Y698527D01*
X292505Y698536D01*
X292506Y698544D01*
X292482Y698735D01*
X292461Y698927D01*
X292458Y698935D01*
X292457Y698944D01*
X292397Y699126D01*
X292338Y699310D01*
X292333Y699318D01*
X292330Y699326D01*
X292235Y699494D01*
X292141Y699662D01*
X292136Y699668D01*
X292131Y699676D01*
X292004Y699822D01*
X291879Y699967D01*
X291872Y699973D01*
X291867Y699980D01*
X291714Y700097D01*
X291562Y700216D01*
X291554Y700220D01*
X291547Y700225D01*
X291252Y700377D01*
X289037Y701294D01*
X285750Y704581D01*
X283971Y708876D01*
X283971Y713524D01*
X285750Y717819D01*
X289037Y721106D01*
X291252Y722023D01*
X291260Y722028D01*
X291269Y722030D01*
X291439Y722123D01*
X291607Y722214D01*
X291614Y722219D01*
X291622Y722224D01*
X291770Y722348D01*
X291918Y722470D01*
X291923Y722477D01*
X291930Y722483D01*
X292050Y722633D01*
X292171Y722783D01*
X292175Y722791D01*
X292181Y722798D01*
X292268Y722967D01*
X292358Y723139D01*
X292361Y723148D01*
X292365Y723156D01*
X292417Y723338D01*
X292471Y723526D01*
X292472Y723535D01*
X292475Y723543D01*
X292489Y723734D01*
X292506Y723927D01*
X292505Y723936D01*
X292506Y723944D01*
X292482Y724135D01*
X292461Y724327D01*
X292458Y724335D01*
X292457Y724344D01*
X292397Y724526D01*
X292338Y724710D01*
X292333Y724718D01*
X292330Y724726D01*
X292235Y724894D01*
X292141Y725062D01*
X292136Y725068D01*
X292131Y725076D01*
X292004Y725222D01*
X291879Y725367D01*
X291872Y725373D01*
X291867Y725380D01*
X291714Y725497D01*
X291562Y725616D01*
X291554Y725620D01*
X291547Y725625D01*
X291252Y725777D01*
X289037Y726694D01*
X285750Y729981D01*
X283971Y734276D01*
X283971Y738924D01*
X285750Y743219D01*
X289037Y746506D01*
X291252Y747423D01*
X291260Y747428D01*
X291269Y747430D01*
X291439Y747523D01*
X291607Y747614D01*
X291614Y747619D01*
X291622Y747624D01*
X291770Y747748D01*
X291918Y747870D01*
X291923Y747877D01*
X291930Y747883D01*
X292050Y748033D01*
X292171Y748183D01*
X292175Y748191D01*
X292181Y748198D01*
X292268Y748367D01*
X292358Y748539D01*
X292361Y748548D01*
X292365Y748556D01*
X292417Y748738D01*
X292471Y748926D01*
X292472Y748935D01*
X292475Y748943D01*
X292489Y749134D01*
X292506Y749327D01*
X292505Y749336D01*
X292506Y749344D01*
X292482Y749535D01*
X292461Y749727D01*
X292458Y749735D01*
X292457Y749744D01*
X292397Y749926D01*
X292338Y750110D01*
X292333Y750118D01*
X292330Y750126D01*
X292235Y750294D01*
X292141Y750462D01*
X292136Y750468D01*
X292131Y750476D01*
X292004Y750622D01*
X291879Y750767D01*
X291872Y750773D01*
X291867Y750780D01*
X291714Y750897D01*
X291562Y751016D01*
X291554Y751020D01*
X291547Y751025D01*
X291252Y751177D01*
X289037Y752094D01*
X285750Y755381D01*
X283971Y759676D01*
X283971Y764324D01*
X285750Y768619D01*
X289037Y771906D01*
X290574Y772542D01*
X290574Y772543D01*
X293332Y773685D01*
X316268Y773685D01*
X320563Y771906D01*
X323850Y768619D01*
X325629Y764324D01*
X325629Y759676D01*
X323850Y755381D01*
X320563Y752094D01*
X318348Y751177D01*
X318340Y751172D01*
X318331Y751170D01*
X318163Y751078D01*
X317993Y750986D01*
X317986Y750981D01*
X317978Y750976D01*
X317832Y750853D01*
X317683Y750730D01*
X317677Y750723D01*
X317670Y750717D01*
X317550Y750567D01*
X317429Y750417D01*
X317425Y750409D01*
X317419Y750403D01*
X317331Y750232D01*
X317242Y750061D01*
X317239Y750052D01*
X317235Y750044D01*
X317183Y749860D01*
X317129Y749674D01*
X317128Y749666D01*
X317125Y749657D01*
X317111Y749466D01*
X317094Y749273D01*
X317095Y749264D01*
X317094Y749256D01*
X317117Y749066D01*
X317139Y748873D01*
X317142Y748865D01*
X317143Y748856D01*
X317204Y748672D01*
X317262Y748490D01*
X317267Y748482D01*
X317269Y748474D01*
X317365Y748306D01*
X317459Y748138D01*
X317464Y748132D01*
X317469Y748124D01*
X317595Y747979D01*
X317721Y747833D01*
X317728Y747827D01*
X317733Y747820D01*
X317887Y747703D01*
X318038Y747584D01*
X318045Y747580D01*
X318053Y747575D01*
X318348Y747423D01*
X320563Y746506D01*
X323850Y743219D01*
X325629Y738924D01*
X325629Y734276D01*
X323850Y729981D01*
X320563Y726694D01*
X318348Y725777D01*
X318340Y725772D01*
X318331Y725770D01*
X318163Y725678D01*
X317993Y725586D01*
X317986Y725581D01*
X317978Y725576D01*
X317832Y725453D01*
X317683Y725330D01*
X317677Y725323D01*
X317670Y725317D01*
X317550Y725167D01*
X317429Y725017D01*
X317425Y725009D01*
X317419Y725003D01*
X317331Y724832D01*
X317242Y724661D01*
X317239Y724652D01*
X317235Y724644D01*
X317183Y724460D01*
X317129Y724274D01*
X317128Y724266D01*
X317125Y724257D01*
X317111Y724066D01*
X317094Y723873D01*
X317095Y723864D01*
X317094Y723856D01*
X317117Y723666D01*
X317139Y723473D01*
X317142Y723465D01*
X317143Y723456D01*
X317204Y723272D01*
X317262Y723090D01*
X317267Y723082D01*
X317269Y723074D01*
X317365Y722906D01*
X317459Y722738D01*
X317464Y722732D01*
X317469Y722724D01*
X317595Y722579D01*
X317721Y722433D01*
X317728Y722427D01*
X317733Y722420D01*
X317887Y722303D01*
X318038Y722184D01*
X318045Y722180D01*
X318053Y722175D01*
X318348Y722023D01*
X320563Y721106D01*
X323850Y717819D01*
X325629Y713524D01*
X325629Y708876D01*
X323850Y704581D01*
X320563Y701294D01*
X318348Y700377D01*
X318340Y700372D01*
X318331Y700370D01*
X318163Y700278D01*
X317993Y700186D01*
X317986Y700181D01*
X317978Y700176D01*
X317832Y700053D01*
X317683Y699930D01*
X317677Y699923D01*
X317670Y699917D01*
X317550Y699767D01*
X317429Y699617D01*
X317425Y699609D01*
X317419Y699603D01*
X317331Y699432D01*
X317242Y699261D01*
X317239Y699252D01*
X317235Y699244D01*
X317183Y699060D01*
X317129Y698874D01*
X317128Y698866D01*
X317125Y698857D01*
X317111Y698666D01*
X317094Y698473D01*
X317095Y698464D01*
X317094Y698456D01*
X317117Y698266D01*
X317139Y698073D01*
X317142Y698065D01*
X317143Y698056D01*
X317204Y697872D01*
X317262Y697690D01*
X317267Y697682D01*
X317269Y697674D01*
X317365Y697506D01*
X317459Y697338D01*
X317464Y697332D01*
X317469Y697324D01*
X317595Y697179D01*
X317721Y697033D01*
X317728Y697027D01*
X317733Y697020D01*
X317887Y696903D01*
X318038Y696784D01*
X318045Y696780D01*
X318053Y696775D01*
X318348Y696623D01*
X320563Y695706D01*
X323850Y692419D01*
X325629Y688124D01*
X325629Y683476D01*
X323850Y679181D01*
X320563Y675894D01*
X318348Y674977D01*
X318340Y674972D01*
X318331Y674970D01*
X318163Y674878D01*
X317993Y674786D01*
X317986Y674781D01*
X317978Y674776D01*
X317832Y674653D01*
X317683Y674530D01*
X317677Y674523D01*
X317670Y674517D01*
X317550Y674367D01*
X317429Y674217D01*
X317425Y674209D01*
X317419Y674203D01*
X317331Y674032D01*
X317242Y673861D01*
X317239Y673852D01*
X317235Y673844D01*
X317183Y673660D01*
X317129Y673474D01*
X317128Y673466D01*
X317125Y673457D01*
X317111Y673266D01*
X317094Y673073D01*
X317095Y673064D01*
X317094Y673056D01*
X317117Y672866D01*
X317139Y672673D01*
X317142Y672665D01*
X317143Y672656D01*
X317204Y672472D01*
X317262Y672290D01*
X317267Y672282D01*
X317269Y672274D01*
X317365Y672106D01*
X317459Y671938D01*
X317464Y671932D01*
X317469Y671924D01*
X317595Y671779D01*
X317721Y671633D01*
X317728Y671627D01*
X317733Y671620D01*
X317887Y671503D01*
X318038Y671384D01*
X318045Y671380D01*
X318053Y671375D01*
X318348Y671223D01*
X320563Y670306D01*
X323850Y667019D01*
X325629Y662724D01*
X325629Y658076D01*
X323850Y653781D01*
X320563Y650494D01*
X320218Y650351D01*
X318348Y649577D01*
X318340Y649572D01*
X318331Y649570D01*
X318163Y649478D01*
X317993Y649386D01*
X317986Y649381D01*
X317978Y649376D01*
X317832Y649253D01*
X317683Y649130D01*
X317677Y649123D01*
X317670Y649117D01*
X317550Y648967D01*
X317429Y648817D01*
X317425Y648809D01*
X317419Y648803D01*
X317331Y648632D01*
X317242Y648461D01*
X317239Y648452D01*
X317235Y648444D01*
X317183Y648260D01*
X317129Y648074D01*
X317128Y648066D01*
X317125Y648057D01*
X317111Y647866D01*
X317094Y647673D01*
X317095Y647664D01*
X317094Y647656D01*
X317117Y647466D01*
X317139Y647273D01*
X317142Y647265D01*
X317143Y647256D01*
X317203Y647074D01*
X317262Y646890D01*
X317267Y646882D01*
X317269Y646874D01*
X317365Y646706D01*
X317459Y646538D01*
X317464Y646532D01*
X317469Y646524D01*
X317595Y646379D01*
X317721Y646233D01*
X317728Y646227D01*
X317733Y646220D01*
X317887Y646103D01*
X318038Y645984D01*
X318045Y645980D01*
X318053Y645975D01*
X318348Y645823D01*
X320563Y644906D01*
X323850Y641619D01*
X325629Y637324D01*
X325629Y632676D01*
X323850Y628381D01*
X320563Y625094D01*
X318400Y624198D01*
X318321Y624156D01*
X318238Y624123D01*
X318144Y624061D01*
X318045Y624008D01*
X317976Y623951D01*
X317902Y623902D01*
X317821Y623823D01*
X317734Y623752D01*
X317678Y623682D01*
X317615Y623620D01*
X317552Y623526D01*
X317481Y623439D01*
X317439Y623360D01*
X317389Y623286D01*
X317346Y623182D01*
X317294Y623082D01*
X317269Y622997D01*
X317234Y622915D01*
X317212Y622804D01*
X317181Y622696D01*
X317173Y622607D01*
X317156Y622520D01*
X317156Y622407D01*
X317146Y622295D01*
X317156Y622206D01*
X317156Y622117D01*
X317179Y622007D01*
X317191Y621895D01*
X317218Y621810D01*
X317236Y621723D01*
X317280Y621619D01*
X317314Y621511D01*
X317358Y621434D01*
X317392Y621352D01*
X317456Y621258D01*
X317511Y621160D01*
X317569Y621092D01*
X317619Y621019D01*
X317699Y620940D01*
X317772Y620854D01*
X317843Y620799D01*
X317906Y620737D01*
X318001Y620675D01*
X318090Y620606D01*
X318169Y620566D01*
X318244Y620517D01*
X318308Y620491D01*
X320068Y619594D01*
X321556Y618513D01*
X322857Y617212D01*
X323938Y615724D01*
X324773Y614086D01*
X325341Y612336D01*
X325372Y612139D01*
X305308Y612139D01*
X305290Y612137D01*
X305273Y612139D01*
X305090Y612118D01*
X304908Y612099D01*
X304891Y612094D01*
X304873Y612092D01*
X304795Y612067D01*
X304658Y612106D01*
G37*
%LPD*%
%LPC*%
G36*
X48492Y318595D02*
X48492Y318595D01*
X44226Y320362D01*
X40962Y323626D01*
X39195Y327892D01*
X39195Y332508D01*
X40962Y336774D01*
X44226Y340038D01*
X46605Y341023D01*
X46613Y341028D01*
X46622Y341030D01*
X46792Y341123D01*
X46960Y341214D01*
X46967Y341219D01*
X46975Y341224D01*
X47123Y341348D01*
X47271Y341470D01*
X47276Y341477D01*
X47283Y341483D01*
X47403Y341633D01*
X47524Y341783D01*
X47528Y341791D01*
X47534Y341798D01*
X47621Y341967D01*
X47711Y342139D01*
X47714Y342148D01*
X47718Y342156D01*
X47770Y342338D01*
X47824Y342526D01*
X47825Y342535D01*
X47828Y342543D01*
X47842Y342734D01*
X47859Y342927D01*
X47858Y342936D01*
X47859Y342944D01*
X47835Y343135D01*
X47814Y343327D01*
X47811Y343335D01*
X47810Y343344D01*
X47750Y343526D01*
X47691Y343710D01*
X47686Y343718D01*
X47684Y343726D01*
X47588Y343894D01*
X47494Y344062D01*
X47489Y344068D01*
X47484Y344076D01*
X47357Y344222D01*
X47233Y344367D01*
X47225Y344373D01*
X47220Y344380D01*
X47067Y344497D01*
X46915Y344616D01*
X46907Y344620D01*
X46900Y344625D01*
X46605Y344777D01*
X44226Y345762D01*
X40962Y349026D01*
X39195Y353292D01*
X39195Y357908D01*
X40962Y362174D01*
X44226Y365438D01*
X46289Y366292D01*
X46289Y366293D01*
X46605Y366423D01*
X46613Y366428D01*
X46622Y366430D01*
X46792Y366523D01*
X46960Y366614D01*
X46967Y366619D01*
X46975Y366624D01*
X47123Y366748D01*
X47271Y366870D01*
X47276Y366877D01*
X47283Y366883D01*
X47403Y367033D01*
X47524Y367183D01*
X47528Y367191D01*
X47534Y367198D01*
X47621Y367367D01*
X47711Y367539D01*
X47714Y367548D01*
X47718Y367556D01*
X47770Y367738D01*
X47824Y367926D01*
X47825Y367935D01*
X47828Y367943D01*
X47842Y368134D01*
X47859Y368327D01*
X47858Y368336D01*
X47859Y368344D01*
X47835Y368535D01*
X47814Y368727D01*
X47811Y368735D01*
X47810Y368744D01*
X47750Y368926D01*
X47691Y369110D01*
X47686Y369118D01*
X47684Y369126D01*
X47588Y369294D01*
X47494Y369462D01*
X47489Y369468D01*
X47484Y369476D01*
X47357Y369622D01*
X47233Y369767D01*
X47225Y369773D01*
X47220Y369780D01*
X47067Y369897D01*
X46915Y370016D01*
X46907Y370020D01*
X46900Y370025D01*
X46605Y370177D01*
X44226Y371162D01*
X40962Y374426D01*
X39195Y378692D01*
X39195Y383308D01*
X40962Y387574D01*
X44226Y390838D01*
X46605Y391823D01*
X46613Y391828D01*
X46622Y391830D01*
X46791Y391923D01*
X46960Y392014D01*
X46967Y392019D01*
X46975Y392024D01*
X47122Y392147D01*
X47271Y392270D01*
X47276Y392277D01*
X47283Y392283D01*
X47404Y392434D01*
X47524Y392583D01*
X47528Y392590D01*
X47534Y392598D01*
X47623Y392771D01*
X47711Y392939D01*
X47714Y392948D01*
X47718Y392956D01*
X47771Y393142D01*
X47824Y393326D01*
X47825Y393335D01*
X47828Y393343D01*
X47842Y393534D01*
X47859Y393727D01*
X47858Y393736D01*
X47859Y393744D01*
X47835Y393936D01*
X47814Y394127D01*
X47811Y394135D01*
X47810Y394144D01*
X47750Y394327D01*
X47691Y394510D01*
X47686Y394518D01*
X47684Y394526D01*
X47588Y394693D01*
X47494Y394862D01*
X47489Y394868D01*
X47484Y394876D01*
X47359Y395020D01*
X47233Y395167D01*
X47225Y395173D01*
X47220Y395180D01*
X47067Y395297D01*
X46916Y395416D01*
X46908Y395420D01*
X46900Y395425D01*
X46605Y395577D01*
X44226Y396562D01*
X40962Y399826D01*
X39195Y404092D01*
X39195Y408708D01*
X40962Y412974D01*
X44226Y416238D01*
X46605Y417223D01*
X46613Y417228D01*
X46622Y417230D01*
X46791Y417323D01*
X46960Y417414D01*
X46967Y417419D01*
X46975Y417424D01*
X47122Y417547D01*
X47271Y417670D01*
X47276Y417677D01*
X47283Y417683D01*
X47404Y417834D01*
X47524Y417983D01*
X47528Y417990D01*
X47534Y417998D01*
X47623Y418171D01*
X47711Y418339D01*
X47714Y418348D01*
X47718Y418356D01*
X47771Y418542D01*
X47824Y418726D01*
X47825Y418735D01*
X47828Y418743D01*
X47842Y418934D01*
X47859Y419127D01*
X47858Y419136D01*
X47859Y419144D01*
X47835Y419336D01*
X47814Y419527D01*
X47811Y419535D01*
X47810Y419544D01*
X47750Y419727D01*
X47691Y419910D01*
X47686Y419918D01*
X47684Y419926D01*
X47588Y420093D01*
X47494Y420262D01*
X47489Y420268D01*
X47484Y420276D01*
X47359Y420420D01*
X47233Y420567D01*
X47225Y420573D01*
X47220Y420580D01*
X47067Y420697D01*
X46916Y420816D01*
X46908Y420820D01*
X46900Y420825D01*
X46605Y420977D01*
X44226Y421962D01*
X40962Y425226D01*
X39195Y429492D01*
X39195Y434108D01*
X40962Y438374D01*
X44226Y441638D01*
X46605Y442623D01*
X46613Y442628D01*
X46622Y442630D01*
X46791Y442723D01*
X46960Y442814D01*
X46967Y442819D01*
X46975Y442824D01*
X47122Y442947D01*
X47271Y443070D01*
X47276Y443077D01*
X47283Y443083D01*
X47404Y443234D01*
X47524Y443383D01*
X47528Y443390D01*
X47534Y443398D01*
X47623Y443571D01*
X47711Y443739D01*
X47714Y443748D01*
X47718Y443756D01*
X47771Y443942D01*
X47824Y444126D01*
X47825Y444135D01*
X47828Y444143D01*
X47842Y444334D01*
X47859Y444527D01*
X47858Y444536D01*
X47859Y444544D01*
X47835Y444736D01*
X47814Y444927D01*
X47811Y444935D01*
X47810Y444944D01*
X47750Y445127D01*
X47691Y445310D01*
X47686Y445318D01*
X47684Y445326D01*
X47588Y445493D01*
X47494Y445662D01*
X47489Y445668D01*
X47484Y445676D01*
X47359Y445820D01*
X47233Y445967D01*
X47225Y445973D01*
X47220Y445980D01*
X47067Y446097D01*
X46916Y446216D01*
X46908Y446220D01*
X46900Y446225D01*
X46605Y446377D01*
X44226Y447362D01*
X40962Y450626D01*
X39195Y454892D01*
X39195Y459508D01*
X40962Y463774D01*
X44226Y467038D01*
X46605Y468023D01*
X46613Y468028D01*
X46622Y468030D01*
X46791Y468123D01*
X46960Y468214D01*
X46967Y468219D01*
X46975Y468224D01*
X47122Y468347D01*
X47271Y468470D01*
X47276Y468477D01*
X47283Y468483D01*
X47404Y468634D01*
X47524Y468783D01*
X47528Y468790D01*
X47534Y468798D01*
X47623Y468971D01*
X47711Y469139D01*
X47714Y469148D01*
X47718Y469156D01*
X47771Y469342D01*
X47824Y469526D01*
X47825Y469535D01*
X47828Y469543D01*
X47842Y469734D01*
X47859Y469927D01*
X47858Y469936D01*
X47859Y469944D01*
X47835Y470136D01*
X47814Y470327D01*
X47811Y470335D01*
X47810Y470344D01*
X47750Y470527D01*
X47691Y470710D01*
X47686Y470718D01*
X47684Y470726D01*
X47588Y470893D01*
X47494Y471062D01*
X47489Y471068D01*
X47484Y471076D01*
X47359Y471220D01*
X47233Y471367D01*
X47225Y471373D01*
X47220Y471380D01*
X47067Y471497D01*
X46916Y471616D01*
X46908Y471620D01*
X46900Y471625D01*
X46605Y471777D01*
X44226Y472762D01*
X40962Y476026D01*
X39195Y480292D01*
X39195Y484908D01*
X40962Y489174D01*
X44226Y492438D01*
X46605Y493423D01*
X46613Y493428D01*
X46622Y493430D01*
X46791Y493523D01*
X46960Y493614D01*
X46967Y493619D01*
X46975Y493624D01*
X47122Y493747D01*
X47271Y493870D01*
X47276Y493877D01*
X47283Y493883D01*
X47404Y494034D01*
X47524Y494183D01*
X47528Y494190D01*
X47534Y494198D01*
X47623Y494371D01*
X47711Y494539D01*
X47714Y494548D01*
X47718Y494556D01*
X47771Y494742D01*
X47824Y494926D01*
X47825Y494935D01*
X47828Y494943D01*
X47842Y495134D01*
X47859Y495327D01*
X47858Y495336D01*
X47859Y495344D01*
X47835Y495536D01*
X47814Y495727D01*
X47811Y495735D01*
X47810Y495744D01*
X47750Y495927D01*
X47691Y496110D01*
X47686Y496118D01*
X47684Y496126D01*
X47589Y496293D01*
X47494Y496462D01*
X47489Y496468D01*
X47484Y496476D01*
X47359Y496620D01*
X47233Y496767D01*
X47225Y496773D01*
X47220Y496780D01*
X47067Y496897D01*
X46916Y497016D01*
X46908Y497020D01*
X46900Y497025D01*
X46605Y497177D01*
X44226Y498162D01*
X40962Y501426D01*
X39195Y505692D01*
X39195Y510308D01*
X40962Y514574D01*
X44226Y517838D01*
X46605Y518823D01*
X46613Y518828D01*
X46622Y518830D01*
X46791Y518923D01*
X46960Y519014D01*
X46967Y519019D01*
X46975Y519024D01*
X47122Y519147D01*
X47271Y519270D01*
X47276Y519277D01*
X47283Y519283D01*
X47404Y519434D01*
X47524Y519583D01*
X47528Y519590D01*
X47534Y519598D01*
X47623Y519771D01*
X47711Y519939D01*
X47714Y519948D01*
X47718Y519956D01*
X47771Y520142D01*
X47824Y520326D01*
X47825Y520335D01*
X47828Y520343D01*
X47842Y520534D01*
X47859Y520727D01*
X47858Y520736D01*
X47859Y520744D01*
X47835Y520936D01*
X47814Y521127D01*
X47811Y521135D01*
X47810Y521144D01*
X47750Y521327D01*
X47691Y521510D01*
X47686Y521518D01*
X47684Y521526D01*
X47588Y521693D01*
X47494Y521862D01*
X47489Y521868D01*
X47484Y521876D01*
X47359Y522020D01*
X47233Y522167D01*
X47225Y522173D01*
X47220Y522180D01*
X47067Y522297D01*
X46916Y522416D01*
X46908Y522420D01*
X46900Y522425D01*
X46605Y522577D01*
X44226Y523562D01*
X40962Y526826D01*
X39195Y531092D01*
X39195Y535708D01*
X40962Y539974D01*
X44226Y543238D01*
X46605Y544223D01*
X46613Y544228D01*
X46622Y544230D01*
X46791Y544323D01*
X46960Y544414D01*
X46967Y544419D01*
X46975Y544424D01*
X47122Y544547D01*
X47271Y544670D01*
X47276Y544677D01*
X47283Y544683D01*
X47404Y544834D01*
X47524Y544983D01*
X47528Y544990D01*
X47534Y544998D01*
X47623Y545171D01*
X47711Y545339D01*
X47714Y545348D01*
X47718Y545356D01*
X47771Y545542D01*
X47824Y545726D01*
X47825Y545735D01*
X47828Y545743D01*
X47842Y545934D01*
X47859Y546127D01*
X47858Y546136D01*
X47859Y546144D01*
X47835Y546336D01*
X47814Y546527D01*
X47811Y546535D01*
X47810Y546544D01*
X47750Y546725D01*
X47691Y546910D01*
X47686Y546918D01*
X47684Y546926D01*
X47588Y547093D01*
X47494Y547262D01*
X47489Y547268D01*
X47484Y547276D01*
X47359Y547420D01*
X47233Y547567D01*
X47225Y547573D01*
X47220Y547580D01*
X47067Y547697D01*
X46916Y547816D01*
X46908Y547820D01*
X46900Y547825D01*
X46605Y547977D01*
X44226Y548962D01*
X40962Y552226D01*
X39195Y556492D01*
X39195Y561108D01*
X40962Y565374D01*
X44226Y568638D01*
X46605Y569623D01*
X46613Y569628D01*
X46622Y569630D01*
X46791Y569723D01*
X46960Y569814D01*
X46967Y569819D01*
X46975Y569824D01*
X47122Y569947D01*
X47271Y570070D01*
X47276Y570077D01*
X47283Y570083D01*
X47404Y570234D01*
X47524Y570383D01*
X47528Y570390D01*
X47534Y570398D01*
X47623Y570571D01*
X47711Y570739D01*
X47714Y570748D01*
X47718Y570756D01*
X47770Y570941D01*
X47824Y571126D01*
X47825Y571135D01*
X47828Y571143D01*
X47842Y571331D01*
X47859Y571527D01*
X47858Y571536D01*
X47859Y571544D01*
X47835Y571736D01*
X47814Y571927D01*
X47811Y571935D01*
X47810Y571944D01*
X47750Y572127D01*
X47691Y572310D01*
X47686Y572318D01*
X47684Y572326D01*
X47588Y572493D01*
X47494Y572662D01*
X47489Y572668D01*
X47484Y572676D01*
X47359Y572820D01*
X47233Y572967D01*
X47225Y572973D01*
X47220Y572980D01*
X47067Y573097D01*
X46916Y573216D01*
X46908Y573220D01*
X46900Y573225D01*
X46605Y573377D01*
X44226Y574362D01*
X40962Y577626D01*
X39195Y581892D01*
X39195Y586508D01*
X40962Y590774D01*
X44226Y594038D01*
X46605Y595023D01*
X46613Y595028D01*
X46622Y595030D01*
X46791Y595123D01*
X46960Y595214D01*
X46967Y595219D01*
X46975Y595224D01*
X47122Y595347D01*
X47271Y595470D01*
X47276Y595477D01*
X47283Y595483D01*
X47404Y595634D01*
X47524Y595783D01*
X47528Y595790D01*
X47534Y595798D01*
X47623Y595971D01*
X47711Y596139D01*
X47714Y596148D01*
X47718Y596156D01*
X47771Y596342D01*
X47824Y596526D01*
X47825Y596535D01*
X47828Y596543D01*
X47842Y596734D01*
X47859Y596927D01*
X47858Y596936D01*
X47859Y596944D01*
X47835Y597136D01*
X47814Y597327D01*
X47811Y597335D01*
X47810Y597344D01*
X47750Y597527D01*
X47691Y597710D01*
X47686Y597718D01*
X47684Y597726D01*
X47588Y597893D01*
X47494Y598062D01*
X47489Y598068D01*
X47484Y598076D01*
X47359Y598220D01*
X47233Y598367D01*
X47225Y598373D01*
X47220Y598380D01*
X47067Y598497D01*
X46916Y598616D01*
X46908Y598620D01*
X46900Y598625D01*
X46605Y598777D01*
X44226Y599762D01*
X40962Y603026D01*
X39195Y607292D01*
X39195Y611908D01*
X40962Y616174D01*
X44226Y619438D01*
X46063Y620199D01*
X46575Y620411D01*
X46653Y620453D01*
X46736Y620486D01*
X46831Y620548D01*
X46930Y620601D01*
X46999Y620658D01*
X47073Y620706D01*
X47153Y620786D01*
X47241Y620858D01*
X47296Y620926D01*
X47360Y620989D01*
X47423Y621082D01*
X47494Y621170D01*
X47535Y621249D01*
X47585Y621322D01*
X47629Y621427D01*
X47681Y621527D01*
X47706Y621612D01*
X47740Y621694D01*
X47763Y621804D01*
X47794Y621913D01*
X47802Y622002D01*
X47819Y622089D01*
X47819Y622202D01*
X47829Y622314D01*
X47819Y622402D01*
X47819Y622491D01*
X47797Y622602D01*
X47784Y622714D01*
X47757Y622799D01*
X47739Y622886D01*
X47695Y622990D01*
X47661Y623098D01*
X47617Y623175D01*
X47583Y623257D01*
X47519Y623350D01*
X47464Y623449D01*
X47407Y623517D01*
X47357Y623590D01*
X47276Y623669D01*
X47203Y623755D01*
X47133Y623810D01*
X47069Y623872D01*
X46975Y623933D01*
X46886Y624003D01*
X46806Y624043D01*
X46732Y624091D01*
X46601Y624146D01*
X46526Y624184D01*
X46481Y624196D01*
X46426Y624219D01*
X46345Y624245D01*
X44718Y625075D01*
X43240Y626148D01*
X41948Y627440D01*
X40875Y628918D01*
X40046Y630545D01*
X39481Y632283D01*
X39446Y632501D01*
X50332Y632501D01*
X50350Y632502D01*
X50367Y632501D01*
X50550Y632522D01*
X50732Y632541D01*
X50749Y632546D01*
X50767Y632548D01*
X50808Y632561D01*
X50902Y632534D01*
X50920Y632532D01*
X50937Y632528D01*
X51268Y632501D01*
X62154Y632501D01*
X62119Y632283D01*
X61554Y630545D01*
X60725Y628918D01*
X59652Y627440D01*
X58360Y626148D01*
X56882Y625075D01*
X55255Y624245D01*
X55174Y624219D01*
X55093Y624184D01*
X55008Y624157D01*
X54909Y624103D01*
X54806Y624058D01*
X54733Y624007D01*
X54655Y623964D01*
X54569Y623891D01*
X54476Y623826D01*
X54415Y623762D01*
X54347Y623705D01*
X54276Y623616D01*
X54199Y623535D01*
X54151Y623460D01*
X54096Y623390D01*
X54044Y623289D01*
X53984Y623194D01*
X53953Y623111D01*
X53912Y623032D01*
X53881Y622923D01*
X53841Y622818D01*
X53827Y622730D01*
X53802Y622645D01*
X53794Y622532D01*
X53775Y622420D01*
X53778Y622331D01*
X53771Y622243D01*
X53785Y622131D01*
X53789Y622018D01*
X53809Y621931D01*
X53820Y621843D01*
X53855Y621736D01*
X53881Y621626D01*
X53919Y621545D01*
X53946Y621461D01*
X54002Y621363D01*
X54050Y621260D01*
X54102Y621189D01*
X54146Y621111D01*
X54220Y621026D01*
X54287Y620935D01*
X54352Y620875D01*
X54410Y620808D01*
X54500Y620739D01*
X54583Y620663D01*
X54659Y620617D01*
X54730Y620562D01*
X54855Y620498D01*
X54928Y620454D01*
X54971Y620438D01*
X55025Y620411D01*
X57374Y619438D01*
X60638Y616174D01*
X62405Y611908D01*
X62405Y607292D01*
X60638Y603026D01*
X57374Y599762D01*
X54995Y598777D01*
X54987Y598772D01*
X54978Y598770D01*
X54811Y598678D01*
X54640Y598586D01*
X54633Y598581D01*
X54625Y598576D01*
X54478Y598453D01*
X54329Y598330D01*
X54324Y598323D01*
X54317Y598317D01*
X54197Y598167D01*
X54076Y598017D01*
X54072Y598009D01*
X54066Y598003D01*
X53978Y597832D01*
X53889Y597661D01*
X53886Y597652D01*
X53882Y597644D01*
X53830Y597461D01*
X53776Y597275D01*
X53775Y597265D01*
X53772Y597257D01*
X53758Y597066D01*
X53741Y596873D01*
X53742Y596864D01*
X53741Y596856D01*
X53764Y596666D01*
X53786Y596473D01*
X53789Y596465D01*
X53790Y596456D01*
X53850Y596276D01*
X53909Y596090D01*
X53914Y596082D01*
X53916Y596074D01*
X54011Y595908D01*
X54106Y595739D01*
X54111Y595732D01*
X54116Y595724D01*
X54242Y595579D01*
X54367Y595433D01*
X54374Y595427D01*
X54380Y595420D01*
X54533Y595303D01*
X54684Y595184D01*
X54692Y595180D01*
X54700Y595175D01*
X54995Y595023D01*
X57374Y594038D01*
X60638Y590774D01*
X62405Y586508D01*
X62405Y581892D01*
X60638Y577626D01*
X57374Y574362D01*
X54995Y573377D01*
X54987Y573372D01*
X54978Y573370D01*
X54811Y573278D01*
X54640Y573186D01*
X54633Y573181D01*
X54625Y573176D01*
X54478Y573053D01*
X54329Y572930D01*
X54324Y572923D01*
X54317Y572917D01*
X54197Y572767D01*
X54076Y572617D01*
X54072Y572609D01*
X54066Y572603D01*
X53978Y572432D01*
X53889Y572261D01*
X53886Y572252D01*
X53882Y572244D01*
X53830Y572061D01*
X53776Y571875D01*
X53775Y571865D01*
X53772Y571857D01*
X53758Y571666D01*
X53741Y571473D01*
X53742Y571464D01*
X53741Y571456D01*
X53764Y571266D01*
X53786Y571073D01*
X53789Y571065D01*
X53790Y571056D01*
X53850Y570876D01*
X53909Y570690D01*
X53914Y570682D01*
X53916Y570674D01*
X54011Y570508D01*
X54106Y570339D01*
X54111Y570332D01*
X54116Y570324D01*
X54242Y570179D01*
X54367Y570033D01*
X54374Y570027D01*
X54380Y570020D01*
X54533Y569903D01*
X54684Y569784D01*
X54692Y569780D01*
X54700Y569775D01*
X54995Y569623D01*
X57374Y568638D01*
X60638Y565374D01*
X62405Y561108D01*
X62405Y556492D01*
X60638Y552226D01*
X57374Y548962D01*
X54995Y547977D01*
X54987Y547972D01*
X54978Y547970D01*
X54811Y547878D01*
X54640Y547786D01*
X54633Y547781D01*
X54625Y547776D01*
X54478Y547653D01*
X54329Y547530D01*
X54324Y547523D01*
X54317Y547517D01*
X54197Y547367D01*
X54076Y547217D01*
X54072Y547209D01*
X54066Y547203D01*
X53978Y547032D01*
X53889Y546861D01*
X53886Y546852D01*
X53882Y546844D01*
X53830Y546661D01*
X53776Y546475D01*
X53775Y546465D01*
X53772Y546457D01*
X53758Y546266D01*
X53741Y546073D01*
X53742Y546064D01*
X53741Y546056D01*
X53764Y545866D01*
X53786Y545673D01*
X53789Y545665D01*
X53790Y545656D01*
X53850Y545476D01*
X53909Y545290D01*
X53914Y545282D01*
X53916Y545274D01*
X54011Y545108D01*
X54106Y544939D01*
X54111Y544932D01*
X54116Y544924D01*
X54242Y544779D01*
X54367Y544633D01*
X54374Y544627D01*
X54380Y544620D01*
X54533Y544503D01*
X54684Y544384D01*
X54692Y544380D01*
X54700Y544375D01*
X54995Y544223D01*
X57374Y543238D01*
X60638Y539974D01*
X62405Y535708D01*
X62405Y531092D01*
X60638Y526826D01*
X57374Y523562D01*
X54995Y522577D01*
X54987Y522572D01*
X54978Y522570D01*
X54811Y522478D01*
X54640Y522386D01*
X54633Y522381D01*
X54625Y522376D01*
X54478Y522253D01*
X54329Y522130D01*
X54324Y522123D01*
X54317Y522117D01*
X54197Y521967D01*
X54076Y521817D01*
X54072Y521809D01*
X54066Y521803D01*
X53978Y521632D01*
X53889Y521461D01*
X53886Y521452D01*
X53882Y521444D01*
X53830Y521261D01*
X53776Y521075D01*
X53775Y521065D01*
X53772Y521057D01*
X53758Y520866D01*
X53741Y520673D01*
X53742Y520664D01*
X53741Y520656D01*
X53764Y520466D01*
X53786Y520273D01*
X53789Y520265D01*
X53790Y520256D01*
X53850Y520074D01*
X53909Y519890D01*
X53914Y519882D01*
X53916Y519874D01*
X54011Y519708D01*
X54106Y519539D01*
X54111Y519532D01*
X54116Y519524D01*
X54242Y519379D01*
X54367Y519233D01*
X54374Y519227D01*
X54380Y519220D01*
X54533Y519103D01*
X54684Y518984D01*
X54692Y518980D01*
X54700Y518975D01*
X54995Y518823D01*
X57374Y517838D01*
X60638Y514574D01*
X62405Y510308D01*
X62405Y505692D01*
X60638Y501426D01*
X57374Y498162D01*
X54995Y497177D01*
X54987Y497172D01*
X54978Y497170D01*
X54811Y497078D01*
X54640Y496986D01*
X54633Y496981D01*
X54625Y496976D01*
X54478Y496853D01*
X54329Y496730D01*
X54324Y496723D01*
X54317Y496717D01*
X54197Y496567D01*
X54076Y496417D01*
X54072Y496409D01*
X54066Y496403D01*
X53978Y496232D01*
X53889Y496061D01*
X53886Y496052D01*
X53882Y496044D01*
X53830Y495861D01*
X53776Y495675D01*
X53775Y495665D01*
X53772Y495657D01*
X53758Y495466D01*
X53741Y495273D01*
X53742Y495264D01*
X53741Y495256D01*
X53764Y495066D01*
X53786Y494873D01*
X53789Y494865D01*
X53790Y494856D01*
X53850Y494676D01*
X53909Y494490D01*
X53914Y494482D01*
X53916Y494474D01*
X54011Y494308D01*
X54106Y494139D01*
X54111Y494132D01*
X54116Y494124D01*
X54242Y493979D01*
X54367Y493833D01*
X54374Y493827D01*
X54380Y493820D01*
X54533Y493703D01*
X54684Y493584D01*
X54692Y493580D01*
X54700Y493575D01*
X54995Y493423D01*
X57374Y492438D01*
X60638Y489174D01*
X62405Y484908D01*
X62405Y480292D01*
X60638Y476026D01*
X57374Y472762D01*
X54995Y471777D01*
X54987Y471772D01*
X54978Y471770D01*
X54811Y471678D01*
X54640Y471586D01*
X54633Y471581D01*
X54625Y471576D01*
X54478Y471453D01*
X54329Y471330D01*
X54324Y471323D01*
X54317Y471317D01*
X54197Y471167D01*
X54076Y471017D01*
X54072Y471009D01*
X54066Y471003D01*
X53978Y470832D01*
X53889Y470661D01*
X53886Y470652D01*
X53882Y470644D01*
X53830Y470461D01*
X53776Y470275D01*
X53775Y470265D01*
X53772Y470257D01*
X53758Y470066D01*
X53741Y469873D01*
X53742Y469864D01*
X53741Y469856D01*
X53764Y469666D01*
X53786Y469473D01*
X53789Y469465D01*
X53790Y469456D01*
X53850Y469276D01*
X53909Y469090D01*
X53914Y469082D01*
X53916Y469074D01*
X54011Y468908D01*
X54106Y468739D01*
X54111Y468732D01*
X54116Y468724D01*
X54242Y468579D01*
X54367Y468433D01*
X54374Y468427D01*
X54380Y468420D01*
X54533Y468303D01*
X54684Y468184D01*
X54692Y468180D01*
X54700Y468175D01*
X54995Y468023D01*
X57374Y467038D01*
X60638Y463774D01*
X62405Y459508D01*
X62405Y454892D01*
X60638Y450626D01*
X57374Y447362D01*
X54995Y446377D01*
X54987Y446372D01*
X54978Y446370D01*
X54811Y446278D01*
X54640Y446186D01*
X54633Y446181D01*
X54625Y446176D01*
X54478Y446053D01*
X54329Y445930D01*
X54324Y445923D01*
X54317Y445917D01*
X54197Y445767D01*
X54076Y445617D01*
X54072Y445609D01*
X54066Y445603D01*
X53978Y445432D01*
X53889Y445261D01*
X53886Y445252D01*
X53882Y445244D01*
X53830Y445061D01*
X53776Y444875D01*
X53775Y444865D01*
X53772Y444857D01*
X53758Y444666D01*
X53741Y444473D01*
X53742Y444464D01*
X53741Y444456D01*
X53764Y444266D01*
X53786Y444073D01*
X53789Y444065D01*
X53790Y444056D01*
X53850Y443876D01*
X53909Y443690D01*
X53914Y443682D01*
X53916Y443674D01*
X54011Y443508D01*
X54106Y443339D01*
X54111Y443332D01*
X54116Y443324D01*
X54242Y443179D01*
X54367Y443033D01*
X54374Y443027D01*
X54380Y443020D01*
X54533Y442903D01*
X54684Y442784D01*
X54692Y442780D01*
X54700Y442775D01*
X54995Y442623D01*
X57374Y441638D01*
X60638Y438374D01*
X62405Y434108D01*
X62405Y429492D01*
X60638Y425226D01*
X57374Y421962D01*
X54995Y420977D01*
X54987Y420972D01*
X54978Y420970D01*
X54811Y420878D01*
X54640Y420786D01*
X54633Y420781D01*
X54625Y420776D01*
X54478Y420653D01*
X54329Y420530D01*
X54324Y420523D01*
X54317Y420517D01*
X54197Y420367D01*
X54076Y420217D01*
X54072Y420209D01*
X54066Y420203D01*
X53978Y420032D01*
X53889Y419861D01*
X53886Y419852D01*
X53882Y419844D01*
X53830Y419661D01*
X53776Y419475D01*
X53775Y419465D01*
X53772Y419457D01*
X53758Y419266D01*
X53741Y419073D01*
X53742Y419064D01*
X53741Y419056D01*
X53764Y418866D01*
X53786Y418673D01*
X53789Y418665D01*
X53790Y418656D01*
X53850Y418476D01*
X53909Y418290D01*
X53914Y418282D01*
X53916Y418274D01*
X54011Y418108D01*
X54106Y417939D01*
X54111Y417932D01*
X54116Y417924D01*
X54242Y417779D01*
X54367Y417633D01*
X54374Y417627D01*
X54380Y417620D01*
X54533Y417503D01*
X54684Y417384D01*
X54692Y417380D01*
X54700Y417375D01*
X54995Y417223D01*
X57374Y416238D01*
X60638Y412974D01*
X62405Y408708D01*
X62405Y404092D01*
X60638Y399826D01*
X57374Y396562D01*
X54995Y395577D01*
X54987Y395572D01*
X54978Y395570D01*
X54811Y395478D01*
X54640Y395386D01*
X54633Y395381D01*
X54625Y395376D01*
X54478Y395253D01*
X54329Y395130D01*
X54324Y395123D01*
X54317Y395117D01*
X54197Y394967D01*
X54076Y394817D01*
X54072Y394809D01*
X54066Y394803D01*
X53978Y394632D01*
X53889Y394461D01*
X53886Y394452D01*
X53882Y394444D01*
X53830Y394261D01*
X53776Y394075D01*
X53775Y394065D01*
X53772Y394057D01*
X53758Y393866D01*
X53741Y393673D01*
X53742Y393664D01*
X53741Y393656D01*
X53764Y393466D01*
X53786Y393273D01*
X53789Y393265D01*
X53790Y393256D01*
X53850Y393076D01*
X53909Y392890D01*
X53914Y392882D01*
X53916Y392874D01*
X54011Y392708D01*
X54106Y392539D01*
X54111Y392532D01*
X54116Y392524D01*
X54242Y392379D01*
X54367Y392233D01*
X54374Y392227D01*
X54380Y392220D01*
X54533Y392103D01*
X54684Y391984D01*
X54692Y391980D01*
X54700Y391975D01*
X54995Y391823D01*
X57374Y390838D01*
X60638Y387574D01*
X62405Y383308D01*
X62405Y378692D01*
X60638Y374426D01*
X57374Y371162D01*
X54995Y370177D01*
X54987Y370172D01*
X54978Y370170D01*
X54810Y370078D01*
X54640Y369986D01*
X54633Y369981D01*
X54625Y369976D01*
X54479Y369853D01*
X54329Y369730D01*
X54324Y369723D01*
X54317Y369717D01*
X54197Y369567D01*
X54076Y369417D01*
X54072Y369409D01*
X54066Y369403D01*
X53978Y369232D01*
X53889Y369061D01*
X53886Y369052D01*
X53882Y369044D01*
X53830Y368860D01*
X53776Y368674D01*
X53775Y368666D01*
X53772Y368657D01*
X53758Y368466D01*
X53741Y368273D01*
X53742Y368264D01*
X53741Y368256D01*
X53764Y368066D01*
X53786Y367873D01*
X53789Y367865D01*
X53790Y367856D01*
X53850Y367674D01*
X53909Y367490D01*
X53914Y367482D01*
X53916Y367474D01*
X54014Y367303D01*
X54106Y367138D01*
X54111Y367132D01*
X54116Y367124D01*
X54242Y366979D01*
X54367Y366833D01*
X54375Y366827D01*
X54380Y366820D01*
X54534Y366703D01*
X54684Y366584D01*
X54692Y366580D01*
X54700Y366575D01*
X54995Y366423D01*
X57374Y365438D01*
X60638Y362174D01*
X62405Y357908D01*
X62405Y353292D01*
X60638Y349026D01*
X57374Y345762D01*
X54995Y344777D01*
X54987Y344772D01*
X54978Y344770D01*
X54810Y344678D01*
X54640Y344586D01*
X54633Y344581D01*
X54625Y344576D01*
X54479Y344453D01*
X54329Y344330D01*
X54324Y344323D01*
X54317Y344317D01*
X54197Y344167D01*
X54076Y344017D01*
X54072Y344009D01*
X54066Y344003D01*
X53978Y343831D01*
X53889Y343661D01*
X53886Y343652D01*
X53882Y343644D01*
X53830Y343460D01*
X53776Y343274D01*
X53775Y343266D01*
X53772Y343257D01*
X53758Y343066D01*
X53741Y342873D01*
X53742Y342864D01*
X53741Y342856D01*
X53764Y342666D01*
X53786Y342473D01*
X53789Y342465D01*
X53790Y342456D01*
X53850Y342274D01*
X53909Y342090D01*
X53914Y342082D01*
X53916Y342074D01*
X54012Y341906D01*
X54106Y341738D01*
X54111Y341732D01*
X54116Y341724D01*
X54242Y341579D01*
X54367Y341433D01*
X54375Y341427D01*
X54380Y341420D01*
X54534Y341303D01*
X54684Y341184D01*
X54692Y341180D01*
X54700Y341175D01*
X54995Y341023D01*
X57374Y340038D01*
X60638Y336774D01*
X62405Y332508D01*
X62405Y327892D01*
X60638Y323626D01*
X57374Y320362D01*
X53108Y318595D01*
X48492Y318595D01*
G37*
%LPD*%
%LPC*%
G36*
X251692Y318595D02*
X251692Y318595D01*
X247426Y320362D01*
X244162Y323626D01*
X242395Y327892D01*
X242395Y332508D01*
X244162Y336774D01*
X247426Y340038D01*
X249805Y341023D01*
X249813Y341028D01*
X249822Y341030D01*
X249990Y341122D01*
X250160Y341214D01*
X250167Y341219D01*
X250175Y341224D01*
X250321Y341347D01*
X250471Y341470D01*
X250476Y341477D01*
X250483Y341483D01*
X250603Y341633D01*
X250724Y341783D01*
X250728Y341791D01*
X250734Y341797D01*
X250822Y341968D01*
X250911Y342139D01*
X250914Y342148D01*
X250918Y342156D01*
X250970Y342340D01*
X251024Y342526D01*
X251025Y342534D01*
X251028Y342543D01*
X251042Y342734D01*
X251059Y342927D01*
X251058Y342936D01*
X251059Y342944D01*
X251036Y343134D01*
X251014Y343327D01*
X251011Y343335D01*
X251010Y343344D01*
X250950Y343526D01*
X250891Y343710D01*
X250886Y343718D01*
X250884Y343726D01*
X250788Y343894D01*
X250694Y344062D01*
X250689Y344068D01*
X250684Y344076D01*
X250558Y344221D01*
X250433Y344367D01*
X250425Y344373D01*
X250420Y344380D01*
X250266Y344497D01*
X250116Y344616D01*
X250108Y344620D01*
X250100Y344625D01*
X249805Y344777D01*
X247426Y345762D01*
X244162Y349026D01*
X242395Y353292D01*
X242395Y357908D01*
X244162Y362174D01*
X247426Y365438D01*
X249489Y366292D01*
X249489Y366293D01*
X249805Y366423D01*
X249813Y366428D01*
X249822Y366430D01*
X249990Y366522D01*
X250160Y366614D01*
X250167Y366619D01*
X250175Y366624D01*
X250321Y366747D01*
X250471Y366870D01*
X250476Y366877D01*
X250483Y366883D01*
X250603Y367033D01*
X250724Y367183D01*
X250728Y367191D01*
X250734Y367197D01*
X250822Y367368D01*
X250911Y367539D01*
X250914Y367548D01*
X250918Y367556D01*
X250970Y367740D01*
X251024Y367926D01*
X251025Y367934D01*
X251028Y367943D01*
X251042Y368134D01*
X251059Y368327D01*
X251058Y368336D01*
X251059Y368344D01*
X251036Y368531D01*
X251014Y368727D01*
X251011Y368735D01*
X251010Y368744D01*
X250950Y368926D01*
X250891Y369110D01*
X250886Y369118D01*
X250884Y369126D01*
X250788Y369294D01*
X250694Y369462D01*
X250689Y369468D01*
X250684Y369476D01*
X250558Y369621D01*
X250433Y369767D01*
X250425Y369773D01*
X250420Y369780D01*
X250266Y369897D01*
X250116Y370016D01*
X250108Y370020D01*
X250100Y370025D01*
X249805Y370177D01*
X247426Y371162D01*
X244162Y374426D01*
X242395Y378692D01*
X242395Y383308D01*
X244162Y387574D01*
X247426Y390838D01*
X249805Y391823D01*
X249813Y391828D01*
X249822Y391830D01*
X249990Y391922D01*
X250160Y392014D01*
X250167Y392019D01*
X250175Y392024D01*
X250321Y392147D01*
X250471Y392270D01*
X250476Y392277D01*
X250483Y392283D01*
X250603Y392433D01*
X250724Y392583D01*
X250728Y392591D01*
X250734Y392597D01*
X250822Y392768D01*
X250911Y392939D01*
X250914Y392948D01*
X250918Y392956D01*
X250970Y393140D01*
X251024Y393326D01*
X251025Y393334D01*
X251028Y393343D01*
X251042Y393534D01*
X251059Y393727D01*
X251058Y393736D01*
X251059Y393744D01*
X251036Y393934D01*
X251014Y394127D01*
X251011Y394135D01*
X251010Y394144D01*
X250950Y394326D01*
X250891Y394510D01*
X250886Y394518D01*
X250884Y394526D01*
X250788Y394694D01*
X250694Y394862D01*
X250689Y394868D01*
X250684Y394876D01*
X250558Y395021D01*
X250433Y395167D01*
X250425Y395173D01*
X250420Y395180D01*
X250266Y395297D01*
X250116Y395416D01*
X250108Y395420D01*
X250100Y395425D01*
X249805Y395577D01*
X247426Y396562D01*
X244162Y399826D01*
X242395Y404092D01*
X242395Y408708D01*
X244162Y412974D01*
X247426Y416238D01*
X249805Y417223D01*
X249813Y417228D01*
X249822Y417230D01*
X249990Y417322D01*
X250160Y417414D01*
X250167Y417419D01*
X250175Y417424D01*
X250321Y417547D01*
X250471Y417670D01*
X250476Y417677D01*
X250483Y417683D01*
X250603Y417833D01*
X250724Y417983D01*
X250728Y417991D01*
X250734Y417997D01*
X250822Y418168D01*
X250911Y418339D01*
X250914Y418348D01*
X250918Y418356D01*
X250970Y418540D01*
X251024Y418726D01*
X251025Y418734D01*
X251028Y418743D01*
X251042Y418934D01*
X251059Y419127D01*
X251058Y419136D01*
X251059Y419144D01*
X251036Y419334D01*
X251014Y419527D01*
X251011Y419535D01*
X251010Y419544D01*
X250950Y419726D01*
X250891Y419910D01*
X250886Y419918D01*
X250884Y419926D01*
X250788Y420094D01*
X250694Y420262D01*
X250689Y420268D01*
X250684Y420276D01*
X250558Y420421D01*
X250433Y420567D01*
X250425Y420573D01*
X250420Y420580D01*
X250266Y420697D01*
X250116Y420816D01*
X250108Y420820D01*
X250100Y420825D01*
X249805Y420977D01*
X247426Y421962D01*
X244162Y425226D01*
X242395Y429492D01*
X242395Y434108D01*
X244162Y438374D01*
X247426Y441638D01*
X249805Y442623D01*
X249813Y442628D01*
X249822Y442630D01*
X249990Y442722D01*
X250160Y442814D01*
X250167Y442819D01*
X250175Y442824D01*
X250321Y442947D01*
X250471Y443070D01*
X250476Y443077D01*
X250483Y443083D01*
X250603Y443233D01*
X250724Y443383D01*
X250728Y443391D01*
X250734Y443397D01*
X250822Y443568D01*
X250911Y443739D01*
X250914Y443748D01*
X250918Y443756D01*
X250970Y443940D01*
X251024Y444126D01*
X251025Y444134D01*
X251028Y444143D01*
X251042Y444334D01*
X251059Y444527D01*
X251058Y444536D01*
X251059Y444544D01*
X251036Y444734D01*
X251014Y444927D01*
X251011Y444935D01*
X251010Y444944D01*
X250950Y445126D01*
X250891Y445310D01*
X250886Y445318D01*
X250884Y445326D01*
X250788Y445494D01*
X250694Y445662D01*
X250689Y445668D01*
X250684Y445676D01*
X250558Y445821D01*
X250433Y445967D01*
X250425Y445973D01*
X250420Y445980D01*
X250266Y446097D01*
X250116Y446216D01*
X250108Y446220D01*
X250100Y446225D01*
X249805Y446377D01*
X247426Y447362D01*
X244162Y450626D01*
X242395Y454892D01*
X242395Y459508D01*
X244162Y463774D01*
X247426Y467038D01*
X249399Y467855D01*
X249805Y468023D01*
X249813Y468028D01*
X249822Y468030D01*
X249990Y468122D01*
X250160Y468214D01*
X250167Y468219D01*
X250175Y468224D01*
X250321Y468347D01*
X250471Y468470D01*
X250476Y468477D01*
X250483Y468483D01*
X250603Y468633D01*
X250724Y468783D01*
X250728Y468791D01*
X250734Y468797D01*
X250822Y468968D01*
X250911Y469139D01*
X250914Y469148D01*
X250918Y469156D01*
X250970Y469340D01*
X251024Y469526D01*
X251025Y469534D01*
X251028Y469543D01*
X251042Y469734D01*
X251059Y469927D01*
X251058Y469936D01*
X251059Y469944D01*
X251036Y470134D01*
X251014Y470327D01*
X251011Y470335D01*
X251010Y470344D01*
X250950Y470526D01*
X250891Y470710D01*
X250886Y470718D01*
X250884Y470726D01*
X250788Y470894D01*
X250694Y471062D01*
X250689Y471068D01*
X250684Y471076D01*
X250558Y471221D01*
X250433Y471367D01*
X250425Y471373D01*
X250420Y471380D01*
X250266Y471497D01*
X250116Y471616D01*
X250108Y471620D01*
X250100Y471625D01*
X249805Y471777D01*
X247426Y472762D01*
X244162Y476026D01*
X242395Y480292D01*
X242395Y484908D01*
X244162Y489174D01*
X247426Y492438D01*
X249805Y493423D01*
X249813Y493428D01*
X249822Y493430D01*
X249990Y493522D01*
X250160Y493614D01*
X250167Y493619D01*
X250175Y493624D01*
X250321Y493747D01*
X250471Y493870D01*
X250476Y493877D01*
X250483Y493883D01*
X250603Y494033D01*
X250724Y494183D01*
X250728Y494191D01*
X250734Y494197D01*
X250822Y494368D01*
X250911Y494539D01*
X250914Y494548D01*
X250918Y494556D01*
X250970Y494740D01*
X251024Y494926D01*
X251025Y494934D01*
X251028Y494943D01*
X251042Y495134D01*
X251059Y495327D01*
X251058Y495336D01*
X251059Y495344D01*
X251036Y495534D01*
X251014Y495727D01*
X251011Y495735D01*
X251010Y495744D01*
X250950Y495926D01*
X250891Y496110D01*
X250886Y496118D01*
X250884Y496126D01*
X250788Y496294D01*
X250694Y496462D01*
X250689Y496468D01*
X250684Y496476D01*
X250558Y496621D01*
X250433Y496767D01*
X250425Y496773D01*
X250420Y496780D01*
X250266Y496897D01*
X250116Y497016D01*
X250108Y497020D01*
X250100Y497025D01*
X249805Y497177D01*
X247426Y498162D01*
X244162Y501426D01*
X242395Y505692D01*
X242395Y510308D01*
X244162Y514574D01*
X247426Y517838D01*
X249805Y518823D01*
X249813Y518828D01*
X249822Y518830D01*
X249990Y518922D01*
X250160Y519014D01*
X250167Y519019D01*
X250175Y519024D01*
X250321Y519147D01*
X250471Y519270D01*
X250476Y519277D01*
X250483Y519283D01*
X250603Y519433D01*
X250724Y519583D01*
X250728Y519591D01*
X250734Y519597D01*
X250822Y519768D01*
X250911Y519939D01*
X250914Y519948D01*
X250918Y519956D01*
X250970Y520140D01*
X251024Y520326D01*
X251025Y520334D01*
X251028Y520343D01*
X251042Y520534D01*
X251059Y520727D01*
X251058Y520736D01*
X251059Y520744D01*
X251036Y520934D01*
X251014Y521127D01*
X251011Y521135D01*
X251010Y521144D01*
X250950Y521326D01*
X250891Y521510D01*
X250886Y521518D01*
X250884Y521526D01*
X250788Y521694D01*
X250694Y521862D01*
X250689Y521868D01*
X250684Y521876D01*
X250558Y522021D01*
X250433Y522167D01*
X250425Y522173D01*
X250420Y522180D01*
X250266Y522297D01*
X250116Y522416D01*
X250108Y522420D01*
X250100Y522425D01*
X249805Y522577D01*
X247426Y523562D01*
X244162Y526826D01*
X242395Y531092D01*
X242395Y535708D01*
X244162Y539974D01*
X247426Y543238D01*
X249805Y544223D01*
X249813Y544228D01*
X249822Y544230D01*
X249990Y544322D01*
X250160Y544414D01*
X250167Y544419D01*
X250175Y544424D01*
X250321Y544547D01*
X250471Y544670D01*
X250476Y544677D01*
X250483Y544683D01*
X250603Y544833D01*
X250724Y544983D01*
X250728Y544991D01*
X250734Y544997D01*
X250822Y545168D01*
X250911Y545339D01*
X250914Y545348D01*
X250918Y545356D01*
X250970Y545540D01*
X251024Y545726D01*
X251025Y545734D01*
X251028Y545743D01*
X251042Y545934D01*
X251059Y546127D01*
X251058Y546136D01*
X251059Y546144D01*
X251036Y546334D01*
X251014Y546527D01*
X251011Y546535D01*
X251010Y546544D01*
X250950Y546725D01*
X250891Y546910D01*
X250886Y546918D01*
X250884Y546926D01*
X250788Y547094D01*
X250694Y547262D01*
X250689Y547268D01*
X250684Y547276D01*
X250558Y547421D01*
X250433Y547567D01*
X250425Y547573D01*
X250420Y547580D01*
X250266Y547697D01*
X250116Y547816D01*
X250108Y547820D01*
X250100Y547825D01*
X249805Y547977D01*
X247426Y548962D01*
X244162Y552226D01*
X242395Y556492D01*
X242395Y561108D01*
X244162Y565374D01*
X247426Y568638D01*
X249308Y569417D01*
X249308Y569418D01*
X249805Y569623D01*
X249813Y569628D01*
X249822Y569630D01*
X249990Y569722D01*
X250160Y569814D01*
X250167Y569819D01*
X250175Y569824D01*
X250321Y569947D01*
X250471Y570070D01*
X250476Y570077D01*
X250483Y570083D01*
X250603Y570233D01*
X250724Y570383D01*
X250728Y570391D01*
X250734Y570397D01*
X250822Y570568D01*
X250911Y570739D01*
X250914Y570748D01*
X250918Y570756D01*
X250970Y570940D01*
X251024Y571126D01*
X251025Y571134D01*
X251028Y571143D01*
X251042Y571334D01*
X251059Y571527D01*
X251058Y571536D01*
X251059Y571544D01*
X251036Y571734D01*
X251014Y571927D01*
X251011Y571935D01*
X251010Y571944D01*
X250950Y572126D01*
X250891Y572310D01*
X250886Y572318D01*
X250884Y572326D01*
X250788Y572494D01*
X250694Y572662D01*
X250689Y572668D01*
X250684Y572676D01*
X250558Y572821D01*
X250433Y572967D01*
X250425Y572973D01*
X250420Y572980D01*
X250266Y573097D01*
X250116Y573216D01*
X250108Y573220D01*
X250100Y573225D01*
X249805Y573377D01*
X247426Y574362D01*
X244162Y577626D01*
X242395Y581892D01*
X242395Y586508D01*
X244162Y590774D01*
X247426Y594038D01*
X249805Y595023D01*
X249813Y595028D01*
X249822Y595030D01*
X249990Y595122D01*
X250160Y595214D01*
X250167Y595219D01*
X250175Y595224D01*
X250321Y595347D01*
X250471Y595470D01*
X250476Y595477D01*
X250483Y595483D01*
X250603Y595633D01*
X250724Y595783D01*
X250728Y595791D01*
X250734Y595797D01*
X250822Y595968D01*
X250911Y596139D01*
X250914Y596148D01*
X250918Y596156D01*
X250970Y596340D01*
X251024Y596526D01*
X251025Y596534D01*
X251028Y596543D01*
X251042Y596734D01*
X251059Y596927D01*
X251058Y596936D01*
X251059Y596944D01*
X251036Y597134D01*
X251014Y597327D01*
X251011Y597335D01*
X251010Y597344D01*
X250950Y597526D01*
X250891Y597710D01*
X250886Y597718D01*
X250884Y597726D01*
X250788Y597894D01*
X250694Y598062D01*
X250689Y598068D01*
X250684Y598076D01*
X250558Y598221D01*
X250433Y598367D01*
X250425Y598373D01*
X250420Y598380D01*
X250266Y598497D01*
X250116Y598616D01*
X250108Y598620D01*
X250100Y598625D01*
X249805Y598777D01*
X247426Y599762D01*
X244162Y603026D01*
X242395Y607292D01*
X242395Y611908D01*
X244162Y616174D01*
X247426Y619438D01*
X251692Y621205D01*
X256308Y621205D01*
X260574Y619438D01*
X263838Y616174D01*
X265605Y611908D01*
X265605Y607292D01*
X263838Y603026D01*
X260574Y599762D01*
X258195Y598777D01*
X258187Y598772D01*
X258178Y598770D01*
X258008Y598677D01*
X257840Y598586D01*
X257833Y598581D01*
X257825Y598576D01*
X257677Y598452D01*
X257529Y598330D01*
X257524Y598323D01*
X257517Y598317D01*
X257397Y598167D01*
X257276Y598017D01*
X257272Y598009D01*
X257266Y598002D01*
X257179Y597833D01*
X257089Y597661D01*
X257086Y597652D01*
X257082Y597644D01*
X257030Y597462D01*
X256976Y597274D01*
X256975Y597265D01*
X256972Y597257D01*
X256958Y597066D01*
X256941Y596873D01*
X256942Y596864D01*
X256941Y596856D01*
X256965Y596665D01*
X256986Y596473D01*
X256989Y596465D01*
X256990Y596456D01*
X257050Y596273D01*
X257109Y596090D01*
X257114Y596082D01*
X257116Y596074D01*
X257212Y595906D01*
X257306Y595738D01*
X257311Y595732D01*
X257316Y595724D01*
X257443Y595578D01*
X257567Y595433D01*
X257575Y595427D01*
X257580Y595420D01*
X257733Y595303D01*
X257885Y595184D01*
X257893Y595180D01*
X257900Y595175D01*
X258195Y595023D01*
X260574Y594038D01*
X263838Y590774D01*
X265605Y586508D01*
X265605Y581892D01*
X263838Y577626D01*
X260574Y574362D01*
X258195Y573377D01*
X258187Y573372D01*
X258178Y573370D01*
X258008Y573277D01*
X257840Y573186D01*
X257833Y573181D01*
X257825Y573176D01*
X257677Y573052D01*
X257529Y572930D01*
X257524Y572923D01*
X257517Y572917D01*
X257397Y572767D01*
X257276Y572617D01*
X257272Y572609D01*
X257266Y572602D01*
X257179Y572433D01*
X257089Y572261D01*
X257086Y572252D01*
X257082Y572244D01*
X257030Y572062D01*
X256976Y571874D01*
X256975Y571865D01*
X256972Y571857D01*
X256958Y571666D01*
X256941Y571473D01*
X256942Y571464D01*
X256941Y571456D01*
X256965Y571265D01*
X256986Y571073D01*
X256989Y571065D01*
X256990Y571056D01*
X257050Y570874D01*
X257109Y570690D01*
X257114Y570682D01*
X257116Y570674D01*
X257212Y570506D01*
X257306Y570338D01*
X257311Y570332D01*
X257316Y570324D01*
X257443Y570178D01*
X257567Y570033D01*
X257575Y570027D01*
X257580Y570020D01*
X257733Y569903D01*
X257885Y569784D01*
X257893Y569780D01*
X257900Y569775D01*
X258195Y569623D01*
X260574Y568638D01*
X263838Y565374D01*
X265605Y561108D01*
X265605Y556492D01*
X263838Y552226D01*
X260574Y548962D01*
X258195Y547977D01*
X258187Y547972D01*
X258178Y547970D01*
X258008Y547877D01*
X257840Y547786D01*
X257833Y547781D01*
X257825Y547776D01*
X257677Y547652D01*
X257529Y547530D01*
X257524Y547523D01*
X257517Y547517D01*
X257397Y547367D01*
X257276Y547217D01*
X257272Y547209D01*
X257266Y547202D01*
X257179Y547033D01*
X257089Y546861D01*
X257086Y546852D01*
X257082Y546844D01*
X257030Y546662D01*
X256976Y546474D01*
X256975Y546465D01*
X256972Y546457D01*
X256958Y546266D01*
X256941Y546073D01*
X256942Y546064D01*
X256941Y546056D01*
X256965Y545865D01*
X256986Y545673D01*
X256989Y545665D01*
X256990Y545656D01*
X257050Y545474D01*
X257109Y545290D01*
X257114Y545282D01*
X257116Y545274D01*
X257212Y545106D01*
X257306Y544938D01*
X257311Y544932D01*
X257316Y544924D01*
X257443Y544778D01*
X257567Y544633D01*
X257575Y544627D01*
X257580Y544620D01*
X257733Y544503D01*
X257885Y544384D01*
X257893Y544380D01*
X257900Y544375D01*
X258195Y544223D01*
X260574Y543238D01*
X263838Y539974D01*
X265605Y535708D01*
X265605Y531092D01*
X263838Y526826D01*
X260574Y523562D01*
X258195Y522577D01*
X258187Y522572D01*
X258178Y522570D01*
X258008Y522477D01*
X257840Y522386D01*
X257833Y522381D01*
X257825Y522376D01*
X257677Y522252D01*
X257529Y522130D01*
X257524Y522123D01*
X257517Y522117D01*
X257397Y521967D01*
X257276Y521817D01*
X257272Y521809D01*
X257266Y521802D01*
X257179Y521633D01*
X257089Y521461D01*
X257086Y521452D01*
X257082Y521444D01*
X257030Y521262D01*
X256976Y521074D01*
X256975Y521065D01*
X256972Y521057D01*
X256958Y520866D01*
X256941Y520673D01*
X256942Y520664D01*
X256941Y520656D01*
X256965Y520465D01*
X256986Y520273D01*
X256989Y520265D01*
X256990Y520256D01*
X257050Y520074D01*
X257109Y519890D01*
X257114Y519882D01*
X257116Y519874D01*
X257212Y519706D01*
X257306Y519538D01*
X257311Y519532D01*
X257316Y519524D01*
X257443Y519378D01*
X257567Y519233D01*
X257575Y519227D01*
X257580Y519220D01*
X257733Y519103D01*
X257885Y518984D01*
X257893Y518980D01*
X257900Y518975D01*
X258195Y518823D01*
X260574Y517838D01*
X263838Y514574D01*
X265605Y510308D01*
X265605Y505692D01*
X263838Y501426D01*
X260574Y498162D01*
X258195Y497177D01*
X258187Y497172D01*
X258178Y497170D01*
X258008Y497077D01*
X257840Y496986D01*
X257833Y496981D01*
X257825Y496976D01*
X257677Y496852D01*
X257529Y496730D01*
X257524Y496723D01*
X257517Y496717D01*
X257397Y496567D01*
X257276Y496417D01*
X257272Y496409D01*
X257266Y496402D01*
X257179Y496233D01*
X257089Y496061D01*
X257086Y496052D01*
X257082Y496044D01*
X257030Y495862D01*
X256976Y495674D01*
X256975Y495665D01*
X256972Y495657D01*
X256958Y495466D01*
X256941Y495273D01*
X256942Y495264D01*
X256941Y495256D01*
X256965Y495065D01*
X256986Y494873D01*
X256989Y494865D01*
X256990Y494856D01*
X257050Y494674D01*
X257109Y494490D01*
X257114Y494482D01*
X257116Y494474D01*
X257212Y494306D01*
X257306Y494138D01*
X257311Y494132D01*
X257316Y494124D01*
X257443Y493978D01*
X257567Y493833D01*
X257575Y493827D01*
X257580Y493820D01*
X257733Y493703D01*
X257885Y493584D01*
X257893Y493580D01*
X257900Y493575D01*
X258195Y493423D01*
X260574Y492438D01*
X263838Y489174D01*
X265605Y484908D01*
X265605Y480292D01*
X263838Y476026D01*
X260574Y472762D01*
X258195Y471777D01*
X258187Y471772D01*
X258178Y471770D01*
X258008Y471677D01*
X257840Y471586D01*
X257833Y471581D01*
X257825Y471576D01*
X257677Y471452D01*
X257529Y471330D01*
X257524Y471323D01*
X257517Y471317D01*
X257397Y471167D01*
X257276Y471017D01*
X257272Y471009D01*
X257266Y471002D01*
X257179Y470833D01*
X257089Y470661D01*
X257086Y470652D01*
X257082Y470644D01*
X257030Y470462D01*
X256976Y470274D01*
X256975Y470265D01*
X256972Y470257D01*
X256958Y470066D01*
X256941Y469873D01*
X256942Y469864D01*
X256941Y469856D01*
X256965Y469665D01*
X256986Y469473D01*
X256989Y469465D01*
X256990Y469456D01*
X257050Y469274D01*
X257109Y469090D01*
X257114Y469082D01*
X257116Y469074D01*
X257212Y468906D01*
X257306Y468738D01*
X257311Y468732D01*
X257316Y468724D01*
X257443Y468578D01*
X257567Y468433D01*
X257575Y468427D01*
X257580Y468420D01*
X257733Y468303D01*
X257885Y468184D01*
X257893Y468180D01*
X257900Y468175D01*
X258195Y468023D01*
X260574Y467038D01*
X263838Y463774D01*
X265605Y459508D01*
X265605Y454892D01*
X263838Y450626D01*
X260574Y447362D01*
X258195Y446377D01*
X258187Y446372D01*
X258178Y446370D01*
X258008Y446277D01*
X257840Y446186D01*
X257833Y446181D01*
X257825Y446176D01*
X257677Y446052D01*
X257529Y445930D01*
X257524Y445923D01*
X257517Y445917D01*
X257397Y445767D01*
X257276Y445617D01*
X257272Y445609D01*
X257266Y445602D01*
X257179Y445433D01*
X257089Y445261D01*
X257086Y445252D01*
X257082Y445244D01*
X257030Y445062D01*
X256976Y444874D01*
X256975Y444865D01*
X256972Y444857D01*
X256958Y444666D01*
X256941Y444473D01*
X256942Y444464D01*
X256941Y444456D01*
X256965Y444265D01*
X256986Y444073D01*
X256989Y444065D01*
X256990Y444056D01*
X257050Y443874D01*
X257109Y443690D01*
X257114Y443682D01*
X257116Y443674D01*
X257212Y443506D01*
X257306Y443338D01*
X257311Y443332D01*
X257316Y443324D01*
X257443Y443178D01*
X257567Y443033D01*
X257575Y443027D01*
X257580Y443020D01*
X257733Y442903D01*
X257885Y442784D01*
X257893Y442780D01*
X257900Y442775D01*
X258195Y442623D01*
X260574Y441638D01*
X263838Y438374D01*
X265605Y434108D01*
X265605Y429492D01*
X263838Y425226D01*
X260574Y421962D01*
X258195Y420977D01*
X258187Y420972D01*
X258178Y420970D01*
X258008Y420877D01*
X257840Y420786D01*
X257833Y420781D01*
X257825Y420776D01*
X257677Y420652D01*
X257529Y420530D01*
X257524Y420523D01*
X257517Y420517D01*
X257397Y420367D01*
X257276Y420217D01*
X257272Y420209D01*
X257266Y420202D01*
X257179Y420033D01*
X257089Y419861D01*
X257086Y419852D01*
X257082Y419844D01*
X257030Y419662D01*
X256976Y419474D01*
X256975Y419465D01*
X256972Y419457D01*
X256958Y419266D01*
X256941Y419073D01*
X256942Y419064D01*
X256941Y419056D01*
X256965Y418865D01*
X256986Y418673D01*
X256989Y418665D01*
X256990Y418656D01*
X257050Y418474D01*
X257109Y418290D01*
X257114Y418282D01*
X257116Y418274D01*
X257212Y418106D01*
X257306Y417938D01*
X257311Y417932D01*
X257316Y417924D01*
X257443Y417778D01*
X257567Y417633D01*
X257575Y417627D01*
X257580Y417620D01*
X257733Y417503D01*
X257885Y417384D01*
X257893Y417380D01*
X257900Y417375D01*
X258195Y417223D01*
X260574Y416238D01*
X263838Y412974D01*
X265605Y408708D01*
X265605Y404092D01*
X263838Y399826D01*
X260574Y396562D01*
X258195Y395577D01*
X258187Y395572D01*
X258178Y395570D01*
X258008Y395477D01*
X257840Y395386D01*
X257833Y395381D01*
X257825Y395376D01*
X257677Y395252D01*
X257529Y395130D01*
X257524Y395123D01*
X257517Y395117D01*
X257397Y394967D01*
X257276Y394817D01*
X257272Y394809D01*
X257266Y394802D01*
X257179Y394633D01*
X257089Y394461D01*
X257086Y394452D01*
X257082Y394444D01*
X257030Y394261D01*
X256976Y394074D01*
X256975Y394065D01*
X256972Y394057D01*
X256958Y393866D01*
X256941Y393673D01*
X256942Y393664D01*
X256941Y393656D01*
X256965Y393465D01*
X256986Y393273D01*
X256989Y393265D01*
X256990Y393256D01*
X257050Y393074D01*
X257109Y392890D01*
X257114Y392882D01*
X257116Y392874D01*
X257212Y392706D01*
X257306Y392538D01*
X257311Y392532D01*
X257316Y392524D01*
X257443Y392378D01*
X257567Y392233D01*
X257575Y392227D01*
X257580Y392220D01*
X257733Y392103D01*
X257885Y391984D01*
X257893Y391980D01*
X257900Y391975D01*
X258195Y391823D01*
X260574Y390838D01*
X263838Y387574D01*
X265605Y383308D01*
X265605Y378692D01*
X263838Y374426D01*
X260574Y371162D01*
X258195Y370177D01*
X258187Y370172D01*
X258178Y370170D01*
X258008Y370077D01*
X257840Y369986D01*
X257833Y369981D01*
X257825Y369976D01*
X257677Y369852D01*
X257529Y369730D01*
X257524Y369723D01*
X257517Y369717D01*
X257397Y369567D01*
X257276Y369417D01*
X257272Y369409D01*
X257266Y369402D01*
X257179Y369233D01*
X257089Y369061D01*
X257086Y369052D01*
X257082Y369044D01*
X257030Y368862D01*
X256976Y368674D01*
X256975Y368665D01*
X256972Y368657D01*
X256958Y368466D01*
X256941Y368273D01*
X256942Y368264D01*
X256941Y368256D01*
X256965Y368065D01*
X256986Y367873D01*
X256989Y367865D01*
X256990Y367856D01*
X257050Y367674D01*
X257109Y367490D01*
X257114Y367482D01*
X257116Y367474D01*
X257212Y367306D01*
X257306Y367138D01*
X257311Y367132D01*
X257316Y367124D01*
X257443Y366978D01*
X257567Y366833D01*
X257575Y366827D01*
X257580Y366820D01*
X257733Y366703D01*
X257885Y366584D01*
X257893Y366580D01*
X257900Y366575D01*
X258195Y366423D01*
X260574Y365438D01*
X263838Y362174D01*
X265605Y357908D01*
X265605Y353292D01*
X263838Y349026D01*
X260574Y345762D01*
X260337Y345664D01*
X258195Y344777D01*
X258187Y344772D01*
X258178Y344770D01*
X258008Y344677D01*
X257840Y344586D01*
X257833Y344581D01*
X257825Y344576D01*
X257677Y344452D01*
X257529Y344330D01*
X257524Y344323D01*
X257517Y344317D01*
X257397Y344167D01*
X257276Y344017D01*
X257272Y344009D01*
X257266Y344002D01*
X257179Y343833D01*
X257089Y343661D01*
X257086Y343652D01*
X257082Y343644D01*
X257030Y343462D01*
X256976Y343274D01*
X256975Y343265D01*
X256972Y343257D01*
X256958Y343066D01*
X256941Y342873D01*
X256942Y342864D01*
X256941Y342856D01*
X256965Y342665D01*
X256986Y342473D01*
X256989Y342465D01*
X256990Y342456D01*
X257050Y342274D01*
X257109Y342090D01*
X257114Y342082D01*
X257116Y342074D01*
X257212Y341906D01*
X257306Y341738D01*
X257311Y341732D01*
X257316Y341724D01*
X257443Y341578D01*
X257567Y341433D01*
X257575Y341427D01*
X257580Y341420D01*
X257733Y341303D01*
X257885Y341184D01*
X257893Y341180D01*
X257900Y341175D01*
X258195Y341023D01*
X260574Y340038D01*
X263838Y336774D01*
X265605Y332508D01*
X265605Y327892D01*
X263838Y323626D01*
X260574Y320362D01*
X256308Y318595D01*
X251692Y318595D01*
G37*
%LPD*%
%LPC*%
G36*
X61226Y26669D02*
X61226Y26669D01*
X57025Y28409D01*
X53809Y31625D01*
X52069Y35826D01*
X52069Y40374D01*
X53809Y44575D01*
X57025Y47791D01*
X61226Y49531D01*
X65774Y49531D01*
X69975Y47791D01*
X73191Y44575D01*
X74323Y41840D01*
X74328Y41832D01*
X74330Y41824D01*
X74424Y41653D01*
X74514Y41485D01*
X74519Y41478D01*
X74524Y41470D01*
X74648Y41322D01*
X74770Y41175D01*
X74777Y41169D01*
X74783Y41162D01*
X74933Y41042D01*
X75083Y40921D01*
X75091Y40917D01*
X75098Y40911D01*
X75270Y40823D01*
X75439Y40734D01*
X75448Y40731D01*
X75456Y40727D01*
X75642Y40675D01*
X75826Y40621D01*
X75835Y40620D01*
X75843Y40618D01*
X76034Y40603D01*
X76227Y40586D01*
X76236Y40587D01*
X76244Y40587D01*
X76436Y40610D01*
X76627Y40631D01*
X76635Y40634D01*
X76644Y40635D01*
X76827Y40696D01*
X77010Y40755D01*
X77018Y40759D01*
X77026Y40762D01*
X77193Y40857D01*
X77362Y40951D01*
X77368Y40957D01*
X77376Y40961D01*
X77521Y41088D01*
X77667Y41213D01*
X77673Y41220D01*
X77680Y41226D01*
X77797Y41379D01*
X77916Y41530D01*
X77920Y41538D01*
X77925Y41545D01*
X78077Y41840D01*
X79209Y44575D01*
X82425Y47791D01*
X86626Y49531D01*
X91174Y49531D01*
X95375Y47791D01*
X98591Y44575D01*
X99723Y41840D01*
X99728Y41832D01*
X99730Y41824D01*
X99824Y41653D01*
X99914Y41485D01*
X99919Y41478D01*
X99924Y41470D01*
X100048Y41322D01*
X100170Y41175D01*
X100177Y41169D01*
X100183Y41162D01*
X100333Y41042D01*
X100483Y40921D01*
X100491Y40917D01*
X100498Y40911D01*
X100670Y40823D01*
X100839Y40734D01*
X100848Y40731D01*
X100856Y40727D01*
X101042Y40675D01*
X101226Y40621D01*
X101235Y40620D01*
X101243Y40618D01*
X101434Y40603D01*
X101627Y40586D01*
X101636Y40587D01*
X101644Y40587D01*
X101836Y40610D01*
X102027Y40631D01*
X102035Y40634D01*
X102044Y40635D01*
X102227Y40696D01*
X102410Y40755D01*
X102418Y40759D01*
X102426Y40762D01*
X102593Y40857D01*
X102762Y40951D01*
X102768Y40957D01*
X102776Y40961D01*
X102921Y41088D01*
X103067Y41213D01*
X103073Y41220D01*
X103080Y41226D01*
X103197Y41379D01*
X103316Y41530D01*
X103320Y41538D01*
X103325Y41545D01*
X103477Y41840D01*
X104609Y44575D01*
X107825Y47791D01*
X112026Y49531D01*
X116574Y49531D01*
X120775Y47791D01*
X123991Y44575D01*
X125123Y41840D01*
X125128Y41832D01*
X125130Y41824D01*
X125224Y41653D01*
X125314Y41485D01*
X125319Y41478D01*
X125324Y41470D01*
X125448Y41322D01*
X125570Y41175D01*
X125577Y41169D01*
X125583Y41162D01*
X125733Y41042D01*
X125883Y40921D01*
X125891Y40917D01*
X125898Y40911D01*
X126070Y40823D01*
X126239Y40734D01*
X126248Y40731D01*
X126256Y40727D01*
X126442Y40675D01*
X126626Y40621D01*
X126635Y40620D01*
X126643Y40618D01*
X126834Y40603D01*
X127027Y40586D01*
X127036Y40587D01*
X127044Y40587D01*
X127236Y40610D01*
X127427Y40631D01*
X127435Y40634D01*
X127444Y40635D01*
X127627Y40696D01*
X127810Y40755D01*
X127818Y40759D01*
X127826Y40762D01*
X127993Y40857D01*
X128162Y40951D01*
X128168Y40957D01*
X128176Y40961D01*
X128321Y41088D01*
X128467Y41213D01*
X128473Y41220D01*
X128480Y41226D01*
X128597Y41379D01*
X128716Y41530D01*
X128720Y41538D01*
X128725Y41545D01*
X128877Y41840D01*
X130009Y44575D01*
X133225Y47791D01*
X137426Y49531D01*
X141974Y49531D01*
X146175Y47791D01*
X149391Y44575D01*
X150523Y41840D01*
X150528Y41832D01*
X150530Y41824D01*
X150624Y41653D01*
X150714Y41485D01*
X150719Y41478D01*
X150724Y41470D01*
X150848Y41322D01*
X150970Y41175D01*
X150977Y41169D01*
X150983Y41162D01*
X151133Y41042D01*
X151283Y40921D01*
X151291Y40917D01*
X151298Y40911D01*
X151470Y40823D01*
X151639Y40734D01*
X151648Y40731D01*
X151656Y40727D01*
X151842Y40675D01*
X152026Y40621D01*
X152035Y40620D01*
X152043Y40618D01*
X152234Y40603D01*
X152427Y40586D01*
X152436Y40587D01*
X152444Y40587D01*
X152636Y40610D01*
X152827Y40631D01*
X152835Y40634D01*
X152844Y40635D01*
X153027Y40696D01*
X153210Y40755D01*
X153218Y40759D01*
X153226Y40762D01*
X153393Y40857D01*
X153562Y40951D01*
X153568Y40957D01*
X153576Y40961D01*
X153721Y41088D01*
X153867Y41213D01*
X153873Y41220D01*
X153880Y41226D01*
X153997Y41379D01*
X154116Y41530D01*
X154120Y41538D01*
X154125Y41545D01*
X154277Y41840D01*
X155409Y44575D01*
X158625Y47791D01*
X162826Y49531D01*
X167374Y49531D01*
X171575Y47791D01*
X174791Y44575D01*
X175923Y41840D01*
X175928Y41832D01*
X175930Y41824D01*
X176024Y41653D01*
X176114Y41485D01*
X176119Y41478D01*
X176124Y41470D01*
X176248Y41322D01*
X176370Y41175D01*
X176377Y41169D01*
X176383Y41162D01*
X176533Y41042D01*
X176683Y40921D01*
X176691Y40917D01*
X176698Y40911D01*
X176870Y40823D01*
X177039Y40734D01*
X177048Y40731D01*
X177056Y40727D01*
X177242Y40675D01*
X177426Y40621D01*
X177435Y40620D01*
X177443Y40618D01*
X177634Y40603D01*
X177827Y40586D01*
X177836Y40587D01*
X177844Y40587D01*
X178036Y40610D01*
X178227Y40631D01*
X178235Y40634D01*
X178244Y40635D01*
X178427Y40696D01*
X178610Y40755D01*
X178618Y40759D01*
X178626Y40762D01*
X178793Y40857D01*
X178962Y40951D01*
X178968Y40957D01*
X178976Y40961D01*
X179121Y41088D01*
X179267Y41213D01*
X179273Y41220D01*
X179280Y41226D01*
X179397Y41379D01*
X179516Y41530D01*
X179520Y41538D01*
X179525Y41545D01*
X179677Y41840D01*
X180809Y44575D01*
X184025Y47791D01*
X188226Y49531D01*
X192774Y49531D01*
X196975Y47791D01*
X200191Y44575D01*
X201323Y41840D01*
X201328Y41832D01*
X201330Y41824D01*
X201422Y41656D01*
X201514Y41485D01*
X201519Y41478D01*
X201524Y41470D01*
X201647Y41324D01*
X201770Y41175D01*
X201777Y41169D01*
X201783Y41162D01*
X201933Y41043D01*
X202083Y40921D01*
X202091Y40917D01*
X202097Y40911D01*
X202269Y40823D01*
X202439Y40734D01*
X202448Y40731D01*
X202456Y40727D01*
X202641Y40675D01*
X202826Y40621D01*
X202834Y40620D01*
X202843Y40618D01*
X203034Y40603D01*
X203227Y40586D01*
X203236Y40587D01*
X203244Y40587D01*
X203437Y40610D01*
X203627Y40631D01*
X203635Y40634D01*
X203644Y40635D01*
X203829Y40696D01*
X204010Y40755D01*
X204018Y40759D01*
X204026Y40762D01*
X204194Y40857D01*
X204362Y40951D01*
X204368Y40957D01*
X204376Y40961D01*
X204521Y41088D01*
X204667Y41213D01*
X204673Y41220D01*
X204680Y41226D01*
X204797Y41378D01*
X204916Y41530D01*
X204920Y41538D01*
X204925Y41545D01*
X205077Y41840D01*
X206209Y44575D01*
X209425Y47791D01*
X213626Y49531D01*
X218174Y49531D01*
X222375Y47791D01*
X225591Y44575D01*
X226723Y41840D01*
X226728Y41832D01*
X226730Y41824D01*
X226822Y41656D01*
X226914Y41485D01*
X226919Y41478D01*
X226924Y41470D01*
X227047Y41324D01*
X227170Y41175D01*
X227177Y41169D01*
X227183Y41162D01*
X227333Y41043D01*
X227483Y40921D01*
X227491Y40917D01*
X227497Y40911D01*
X227669Y40823D01*
X227839Y40734D01*
X227848Y40731D01*
X227856Y40727D01*
X228041Y40675D01*
X228226Y40621D01*
X228234Y40620D01*
X228243Y40618D01*
X228434Y40603D01*
X228627Y40586D01*
X228636Y40587D01*
X228644Y40587D01*
X228837Y40610D01*
X229027Y40631D01*
X229035Y40634D01*
X229044Y40635D01*
X229229Y40696D01*
X229410Y40755D01*
X229418Y40759D01*
X229426Y40762D01*
X229594Y40857D01*
X229762Y40951D01*
X229768Y40957D01*
X229776Y40961D01*
X229921Y41088D01*
X230067Y41213D01*
X230073Y41220D01*
X230080Y41226D01*
X230197Y41378D01*
X230316Y41530D01*
X230320Y41538D01*
X230325Y41545D01*
X230477Y41840D01*
X231609Y44575D01*
X234825Y47791D01*
X239026Y49531D01*
X243574Y49531D01*
X247775Y47791D01*
X250991Y44575D01*
X252123Y41840D01*
X252128Y41832D01*
X252130Y41824D01*
X252222Y41656D01*
X252314Y41485D01*
X252319Y41478D01*
X252324Y41470D01*
X252447Y41324D01*
X252570Y41175D01*
X252577Y41169D01*
X252583Y41162D01*
X252733Y41043D01*
X252883Y40921D01*
X252891Y40917D01*
X252897Y40911D01*
X253069Y40823D01*
X253239Y40734D01*
X253248Y40731D01*
X253256Y40727D01*
X253441Y40675D01*
X253626Y40621D01*
X253634Y40620D01*
X253643Y40618D01*
X253834Y40603D01*
X254027Y40586D01*
X254036Y40587D01*
X254044Y40587D01*
X254237Y40610D01*
X254427Y40631D01*
X254435Y40634D01*
X254444Y40635D01*
X254629Y40696D01*
X254810Y40755D01*
X254818Y40759D01*
X254826Y40762D01*
X254994Y40857D01*
X255162Y40951D01*
X255168Y40957D01*
X255176Y40961D01*
X255321Y41088D01*
X255467Y41213D01*
X255473Y41220D01*
X255480Y41226D01*
X255597Y41378D01*
X255716Y41530D01*
X255720Y41538D01*
X255725Y41545D01*
X255877Y41840D01*
X257009Y44575D01*
X260225Y47791D01*
X264426Y49531D01*
X268974Y49531D01*
X273175Y47791D01*
X276391Y44575D01*
X277523Y41840D01*
X277528Y41832D01*
X277530Y41824D01*
X277623Y41655D01*
X277714Y41485D01*
X277719Y41478D01*
X277724Y41470D01*
X277848Y41323D01*
X277970Y41175D01*
X277977Y41169D01*
X277983Y41162D01*
X278134Y41042D01*
X278283Y40921D01*
X278290Y40917D01*
X278298Y40911D01*
X278468Y40824D01*
X278639Y40734D01*
X278648Y40731D01*
X278656Y40727D01*
X278838Y40676D01*
X279026Y40621D01*
X279035Y40620D01*
X279043Y40618D01*
X279234Y40603D01*
X279427Y40586D01*
X279436Y40587D01*
X279444Y40587D01*
X279635Y40610D01*
X279827Y40631D01*
X279835Y40634D01*
X279844Y40635D01*
X280025Y40695D01*
X280210Y40755D01*
X280218Y40759D01*
X280226Y40762D01*
X280393Y40857D01*
X280562Y40951D01*
X280568Y40957D01*
X280576Y40961D01*
X280723Y41089D01*
X280867Y41213D01*
X280873Y41220D01*
X280880Y41226D01*
X280997Y41379D01*
X281116Y41530D01*
X281120Y41538D01*
X281125Y41545D01*
X281277Y41840D01*
X282409Y44575D01*
X285625Y47791D01*
X289826Y49531D01*
X294374Y49531D01*
X298575Y47791D01*
X301791Y44575D01*
X302923Y41840D01*
X302928Y41832D01*
X302930Y41824D01*
X303022Y41656D01*
X303114Y41485D01*
X303119Y41478D01*
X303124Y41470D01*
X303247Y41324D01*
X303370Y41175D01*
X303377Y41169D01*
X303383Y41162D01*
X303533Y41042D01*
X303683Y40921D01*
X303691Y40917D01*
X303697Y40911D01*
X303868Y40824D01*
X304039Y40734D01*
X304048Y40731D01*
X304056Y40727D01*
X304240Y40675D01*
X304426Y40621D01*
X304434Y40620D01*
X304443Y40618D01*
X304634Y40603D01*
X304827Y40586D01*
X304836Y40587D01*
X304844Y40587D01*
X305034Y40610D01*
X305227Y40631D01*
X305235Y40634D01*
X305244Y40635D01*
X305426Y40695D01*
X305610Y40755D01*
X305618Y40759D01*
X305626Y40762D01*
X305794Y40857D01*
X305962Y40951D01*
X305968Y40957D01*
X305976Y40961D01*
X306121Y41088D01*
X306267Y41213D01*
X306273Y41220D01*
X306280Y41226D01*
X306397Y41378D01*
X306516Y41530D01*
X306520Y41538D01*
X306525Y41545D01*
X306677Y41840D01*
X307809Y44575D01*
X311025Y47791D01*
X315226Y49531D01*
X319774Y49531D01*
X323975Y47791D01*
X327191Y44575D01*
X328323Y41840D01*
X328328Y41832D01*
X328330Y41824D01*
X328422Y41656D01*
X328514Y41485D01*
X328519Y41478D01*
X328524Y41470D01*
X328647Y41324D01*
X328770Y41175D01*
X328777Y41169D01*
X328783Y41162D01*
X328933Y41042D01*
X329083Y40921D01*
X329091Y40917D01*
X329097Y40911D01*
X329268Y40824D01*
X329439Y40734D01*
X329448Y40731D01*
X329456Y40727D01*
X329640Y40675D01*
X329826Y40621D01*
X329834Y40620D01*
X329843Y40618D01*
X330034Y40603D01*
X330227Y40586D01*
X330236Y40587D01*
X330244Y40587D01*
X330434Y40610D01*
X330627Y40631D01*
X330635Y40634D01*
X330644Y40635D01*
X330826Y40695D01*
X331010Y40755D01*
X331018Y40759D01*
X331026Y40762D01*
X331194Y40857D01*
X331362Y40951D01*
X331368Y40957D01*
X331376Y40961D01*
X331521Y41088D01*
X331667Y41213D01*
X331673Y41220D01*
X331680Y41226D01*
X331797Y41378D01*
X331916Y41530D01*
X331920Y41538D01*
X331925Y41545D01*
X332077Y41840D01*
X333209Y44575D01*
X336425Y47791D01*
X340626Y49531D01*
X345174Y49531D01*
X349375Y47791D01*
X352591Y44575D01*
X354331Y40374D01*
X354331Y35826D01*
X352591Y31625D01*
X349375Y28409D01*
X345387Y26758D01*
X345174Y26669D01*
X340626Y26669D01*
X336425Y28409D01*
X333209Y31625D01*
X332077Y34360D01*
X332072Y34368D01*
X332070Y34376D01*
X331976Y34547D01*
X331886Y34715D01*
X331881Y34722D01*
X331876Y34730D01*
X331752Y34878D01*
X331630Y35025D01*
X331623Y35031D01*
X331617Y35038D01*
X331467Y35158D01*
X331317Y35279D01*
X331309Y35283D01*
X331302Y35289D01*
X331130Y35377D01*
X330961Y35466D01*
X330952Y35469D01*
X330944Y35473D01*
X330758Y35525D01*
X330574Y35579D01*
X330565Y35580D01*
X330557Y35582D01*
X330366Y35597D01*
X330173Y35614D01*
X330164Y35613D01*
X330156Y35613D01*
X329964Y35590D01*
X329773Y35569D01*
X329765Y35566D01*
X329756Y35565D01*
X329573Y35504D01*
X329390Y35445D01*
X329382Y35441D01*
X329374Y35438D01*
X329207Y35343D01*
X329038Y35249D01*
X329032Y35243D01*
X329024Y35239D01*
X328879Y35112D01*
X328733Y34987D01*
X328727Y34980D01*
X328720Y34974D01*
X328603Y34821D01*
X328484Y34670D01*
X328480Y34662D01*
X328475Y34655D01*
X328323Y34360D01*
X327191Y31625D01*
X323975Y28409D01*
X319987Y26758D01*
X319774Y26669D01*
X315226Y26669D01*
X311025Y28409D01*
X307809Y31625D01*
X306677Y34360D01*
X306672Y34368D01*
X306670Y34376D01*
X306576Y34547D01*
X306486Y34715D01*
X306481Y34722D01*
X306476Y34730D01*
X306352Y34878D01*
X306230Y35025D01*
X306223Y35031D01*
X306217Y35038D01*
X306067Y35158D01*
X305917Y35279D01*
X305909Y35283D01*
X305902Y35289D01*
X305730Y35377D01*
X305561Y35466D01*
X305552Y35469D01*
X305544Y35473D01*
X305358Y35525D01*
X305174Y35579D01*
X305165Y35580D01*
X305157Y35582D01*
X304966Y35597D01*
X304773Y35614D01*
X304764Y35613D01*
X304756Y35613D01*
X304564Y35590D01*
X304373Y35569D01*
X304365Y35566D01*
X304356Y35565D01*
X304173Y35504D01*
X303990Y35445D01*
X303982Y35441D01*
X303974Y35438D01*
X303807Y35343D01*
X303638Y35249D01*
X303632Y35243D01*
X303624Y35239D01*
X303479Y35112D01*
X303333Y34987D01*
X303327Y34980D01*
X303320Y34974D01*
X303203Y34821D01*
X303084Y34670D01*
X303080Y34662D01*
X303075Y34655D01*
X302923Y34360D01*
X301791Y31625D01*
X298575Y28409D01*
X294587Y26758D01*
X294374Y26669D01*
X289826Y26669D01*
X285625Y28409D01*
X282409Y31625D01*
X281277Y34360D01*
X281272Y34368D01*
X281270Y34376D01*
X281178Y34544D01*
X281086Y34715D01*
X281081Y34722D01*
X281076Y34730D01*
X280953Y34876D01*
X280830Y35025D01*
X280823Y35031D01*
X280817Y35038D01*
X280667Y35157D01*
X280517Y35279D01*
X280509Y35283D01*
X280503Y35289D01*
X280331Y35377D01*
X280161Y35466D01*
X280152Y35469D01*
X280144Y35473D01*
X279959Y35525D01*
X279774Y35579D01*
X279766Y35580D01*
X279757Y35582D01*
X279566Y35597D01*
X279373Y35614D01*
X279364Y35613D01*
X279356Y35613D01*
X279163Y35590D01*
X278973Y35569D01*
X278965Y35566D01*
X278956Y35565D01*
X278771Y35504D01*
X278590Y35445D01*
X278582Y35441D01*
X278574Y35438D01*
X278406Y35343D01*
X278238Y35249D01*
X278232Y35243D01*
X278224Y35239D01*
X278079Y35112D01*
X277933Y34987D01*
X277927Y34980D01*
X277920Y34974D01*
X277803Y34822D01*
X277684Y34670D01*
X277680Y34662D01*
X277675Y34655D01*
X277523Y34360D01*
X276391Y31625D01*
X273175Y28409D01*
X269187Y26758D01*
X268974Y26669D01*
X264426Y26669D01*
X260225Y28409D01*
X257009Y31625D01*
X255877Y34360D01*
X255872Y34368D01*
X255870Y34376D01*
X255777Y34545D01*
X255686Y34715D01*
X255681Y34722D01*
X255676Y34730D01*
X255552Y34877D01*
X255430Y35025D01*
X255423Y35031D01*
X255417Y35038D01*
X255266Y35158D01*
X255117Y35279D01*
X255110Y35283D01*
X255102Y35289D01*
X254932Y35376D01*
X254761Y35466D01*
X254752Y35469D01*
X254744Y35473D01*
X254562Y35524D01*
X254374Y35579D01*
X254365Y35580D01*
X254357Y35582D01*
X254166Y35597D01*
X253973Y35614D01*
X253964Y35613D01*
X253956Y35613D01*
X253765Y35590D01*
X253573Y35569D01*
X253565Y35566D01*
X253556Y35565D01*
X253375Y35505D01*
X253190Y35445D01*
X253182Y35441D01*
X253174Y35438D01*
X253007Y35343D01*
X252838Y35249D01*
X252832Y35243D01*
X252824Y35239D01*
X252677Y35111D01*
X252533Y34987D01*
X252527Y34980D01*
X252520Y34974D01*
X252403Y34821D01*
X252284Y34670D01*
X252280Y34662D01*
X252275Y34655D01*
X252123Y34360D01*
X250991Y31625D01*
X247775Y28409D01*
X243787Y26758D01*
X243574Y26669D01*
X239026Y26669D01*
X234825Y28409D01*
X231609Y31625D01*
X230477Y34360D01*
X230472Y34368D01*
X230470Y34376D01*
X230377Y34545D01*
X230286Y34715D01*
X230281Y34722D01*
X230276Y34730D01*
X230152Y34877D01*
X230030Y35025D01*
X230023Y35031D01*
X230017Y35038D01*
X229866Y35158D01*
X229717Y35279D01*
X229710Y35283D01*
X229702Y35289D01*
X229532Y35376D01*
X229361Y35466D01*
X229352Y35469D01*
X229344Y35473D01*
X229162Y35524D01*
X228974Y35579D01*
X228965Y35580D01*
X228957Y35582D01*
X228766Y35597D01*
X228573Y35614D01*
X228564Y35613D01*
X228556Y35613D01*
X228365Y35590D01*
X228173Y35569D01*
X228165Y35566D01*
X228156Y35565D01*
X227975Y35505D01*
X227790Y35445D01*
X227782Y35441D01*
X227774Y35438D01*
X227607Y35343D01*
X227438Y35249D01*
X227432Y35243D01*
X227424Y35239D01*
X227277Y35111D01*
X227133Y34987D01*
X227127Y34980D01*
X227120Y34974D01*
X227003Y34821D01*
X226884Y34670D01*
X226880Y34662D01*
X226875Y34655D01*
X226723Y34360D01*
X225591Y31625D01*
X222375Y28409D01*
X218387Y26758D01*
X218174Y26669D01*
X213626Y26669D01*
X209425Y28409D01*
X206209Y31625D01*
X205077Y34360D01*
X205072Y34368D01*
X205070Y34376D01*
X204977Y34545D01*
X204886Y34715D01*
X204881Y34722D01*
X204876Y34730D01*
X204752Y34877D01*
X204630Y35025D01*
X204623Y35031D01*
X204617Y35038D01*
X204466Y35158D01*
X204317Y35279D01*
X204310Y35283D01*
X204302Y35289D01*
X204132Y35376D01*
X203961Y35466D01*
X203952Y35469D01*
X203944Y35473D01*
X203762Y35524D01*
X203574Y35579D01*
X203565Y35580D01*
X203557Y35582D01*
X203366Y35597D01*
X203173Y35614D01*
X203164Y35613D01*
X203156Y35613D01*
X202965Y35590D01*
X202773Y35569D01*
X202765Y35566D01*
X202756Y35565D01*
X202575Y35505D01*
X202390Y35445D01*
X202382Y35441D01*
X202374Y35438D01*
X202207Y35343D01*
X202038Y35249D01*
X202032Y35243D01*
X202024Y35239D01*
X201877Y35111D01*
X201733Y34987D01*
X201727Y34980D01*
X201720Y34974D01*
X201603Y34821D01*
X201484Y34670D01*
X201480Y34662D01*
X201475Y34655D01*
X201323Y34360D01*
X200191Y31625D01*
X196975Y28409D01*
X192987Y26758D01*
X192774Y26669D01*
X188226Y26669D01*
X184025Y28409D01*
X180809Y31625D01*
X179677Y34360D01*
X179672Y34368D01*
X179670Y34376D01*
X179578Y34544D01*
X179486Y34715D01*
X179481Y34722D01*
X179476Y34730D01*
X179353Y34876D01*
X179230Y35025D01*
X179223Y35031D01*
X179217Y35038D01*
X179067Y35158D01*
X178917Y35279D01*
X178909Y35283D01*
X178903Y35289D01*
X178732Y35376D01*
X178561Y35466D01*
X178552Y35469D01*
X178544Y35473D01*
X178360Y35525D01*
X178174Y35579D01*
X178166Y35580D01*
X178157Y35582D01*
X177966Y35597D01*
X177773Y35614D01*
X177764Y35613D01*
X177756Y35613D01*
X177566Y35590D01*
X177373Y35569D01*
X177365Y35566D01*
X177356Y35565D01*
X177174Y35505D01*
X176990Y35445D01*
X176982Y35441D01*
X176974Y35438D01*
X176806Y35343D01*
X176638Y35249D01*
X176632Y35243D01*
X176624Y35239D01*
X176479Y35112D01*
X176333Y34987D01*
X176327Y34980D01*
X176320Y34974D01*
X176203Y34822D01*
X176084Y34670D01*
X176080Y34662D01*
X176075Y34655D01*
X175923Y34360D01*
X174791Y31625D01*
X171575Y28409D01*
X167587Y26758D01*
X167374Y26669D01*
X162826Y26669D01*
X158625Y28409D01*
X155409Y31625D01*
X154277Y34360D01*
X154272Y34368D01*
X154270Y34376D01*
X154178Y34544D01*
X154086Y34715D01*
X154081Y34722D01*
X154076Y34730D01*
X153953Y34876D01*
X153830Y35025D01*
X153823Y35031D01*
X153817Y35038D01*
X153667Y35158D01*
X153517Y35279D01*
X153509Y35283D01*
X153503Y35289D01*
X153332Y35376D01*
X153161Y35466D01*
X153152Y35469D01*
X153144Y35473D01*
X152960Y35525D01*
X152774Y35579D01*
X152766Y35580D01*
X152757Y35582D01*
X152566Y35597D01*
X152373Y35614D01*
X152364Y35613D01*
X152356Y35613D01*
X152166Y35590D01*
X151973Y35569D01*
X151965Y35566D01*
X151956Y35565D01*
X151774Y35505D01*
X151590Y35445D01*
X151582Y35441D01*
X151574Y35438D01*
X151406Y35343D01*
X151238Y35249D01*
X151232Y35243D01*
X151224Y35239D01*
X151079Y35112D01*
X150933Y34987D01*
X150927Y34980D01*
X150920Y34974D01*
X150803Y34822D01*
X150684Y34670D01*
X150680Y34662D01*
X150675Y34655D01*
X150523Y34360D01*
X149391Y31625D01*
X146175Y28409D01*
X142187Y26758D01*
X141974Y26669D01*
X137426Y26669D01*
X133225Y28409D01*
X130009Y31625D01*
X128877Y34360D01*
X128872Y34368D01*
X128870Y34376D01*
X128778Y34544D01*
X128686Y34715D01*
X128681Y34722D01*
X128676Y34730D01*
X128553Y34876D01*
X128430Y35025D01*
X128423Y35031D01*
X128417Y35038D01*
X128267Y35158D01*
X128117Y35279D01*
X128109Y35283D01*
X128103Y35289D01*
X127932Y35376D01*
X127761Y35466D01*
X127752Y35469D01*
X127744Y35473D01*
X127560Y35525D01*
X127374Y35579D01*
X127366Y35580D01*
X127357Y35582D01*
X127166Y35597D01*
X126973Y35614D01*
X126964Y35613D01*
X126956Y35613D01*
X126766Y35590D01*
X126573Y35569D01*
X126565Y35566D01*
X126556Y35565D01*
X126374Y35505D01*
X126190Y35445D01*
X126182Y35441D01*
X126174Y35438D01*
X126006Y35343D01*
X125838Y35249D01*
X125832Y35243D01*
X125824Y35239D01*
X125679Y35112D01*
X125533Y34987D01*
X125527Y34980D01*
X125520Y34974D01*
X125403Y34822D01*
X125284Y34670D01*
X125280Y34662D01*
X125275Y34655D01*
X125123Y34360D01*
X123991Y31625D01*
X120775Y28409D01*
X116787Y26758D01*
X116574Y26669D01*
X112026Y26669D01*
X107825Y28409D01*
X104609Y31625D01*
X103477Y34360D01*
X103472Y34368D01*
X103470Y34376D01*
X103378Y34544D01*
X103286Y34715D01*
X103281Y34722D01*
X103276Y34730D01*
X103153Y34876D01*
X103030Y35025D01*
X103023Y35031D01*
X103017Y35038D01*
X102867Y35158D01*
X102717Y35279D01*
X102709Y35283D01*
X102703Y35289D01*
X102532Y35376D01*
X102361Y35466D01*
X102352Y35469D01*
X102344Y35473D01*
X102160Y35525D01*
X101974Y35579D01*
X101966Y35580D01*
X101957Y35582D01*
X101766Y35597D01*
X101573Y35614D01*
X101564Y35613D01*
X101556Y35613D01*
X101366Y35590D01*
X101173Y35569D01*
X101165Y35566D01*
X101156Y35565D01*
X100974Y35505D01*
X100790Y35445D01*
X100782Y35441D01*
X100774Y35438D01*
X100606Y35343D01*
X100438Y35249D01*
X100432Y35243D01*
X100424Y35239D01*
X100279Y35112D01*
X100133Y34987D01*
X100127Y34980D01*
X100120Y34974D01*
X100003Y34822D01*
X99884Y34670D01*
X99880Y34662D01*
X99875Y34655D01*
X99723Y34360D01*
X98591Y31625D01*
X95375Y28409D01*
X91387Y26758D01*
X91174Y26669D01*
X86626Y26669D01*
X82425Y28409D01*
X79209Y31625D01*
X78077Y34360D01*
X78072Y34368D01*
X78070Y34376D01*
X77978Y34544D01*
X77886Y34715D01*
X77881Y34722D01*
X77876Y34730D01*
X77753Y34876D01*
X77630Y35025D01*
X77623Y35031D01*
X77617Y35038D01*
X77467Y35158D01*
X77317Y35279D01*
X77309Y35283D01*
X77303Y35289D01*
X77132Y35376D01*
X76961Y35466D01*
X76952Y35469D01*
X76944Y35473D01*
X76760Y35525D01*
X76574Y35579D01*
X76566Y35580D01*
X76557Y35582D01*
X76366Y35597D01*
X76173Y35614D01*
X76164Y35613D01*
X76156Y35613D01*
X75966Y35590D01*
X75773Y35569D01*
X75765Y35566D01*
X75756Y35565D01*
X75574Y35505D01*
X75390Y35445D01*
X75382Y35441D01*
X75374Y35438D01*
X75206Y35343D01*
X75038Y35249D01*
X75032Y35243D01*
X75024Y35239D01*
X74879Y35112D01*
X74733Y34987D01*
X74727Y34980D01*
X74720Y34974D01*
X74603Y34822D01*
X74484Y34670D01*
X74480Y34662D01*
X74475Y34655D01*
X74323Y34360D01*
X73191Y31625D01*
X69975Y28409D01*
X65987Y26758D01*
X65774Y26669D01*
X61226Y26669D01*
G37*
%LPD*%
%LPC*%
G36*
X143362Y544601D02*
X143362Y544601D01*
X132091Y549024D01*
X122625Y556573D01*
X115805Y566577D01*
X112236Y578146D01*
X112236Y590254D01*
X115805Y601823D01*
X122625Y611827D01*
X132091Y619376D01*
X143362Y623799D01*
X155435Y624704D01*
X167239Y622010D01*
X177725Y615956D01*
X185960Y607081D01*
X191213Y596172D01*
X193018Y584200D01*
X191213Y572228D01*
X185960Y561319D01*
X177725Y552444D01*
X167239Y546390D01*
X155435Y543696D01*
X143362Y544601D01*
G37*
%LPD*%
%LPC*%
G36*
X79862Y100101D02*
X79862Y100101D01*
X68591Y104524D01*
X59125Y112073D01*
X52305Y122077D01*
X48736Y133646D01*
X48736Y145754D01*
X52305Y157323D01*
X59125Y167327D01*
X68591Y174876D01*
X79862Y179299D01*
X91935Y180204D01*
X103739Y177510D01*
X114225Y171456D01*
X122460Y162581D01*
X127713Y151672D01*
X129518Y139700D01*
X127713Y127728D01*
X122460Y116819D01*
X114225Y107944D01*
X103739Y101890D01*
X91935Y99196D01*
X79862Y100101D01*
G37*
%LPD*%
%LPC*%
G36*
X162826Y204469D02*
X162826Y204469D01*
X158625Y206209D01*
X155409Y209425D01*
X154269Y212178D01*
X154227Y212256D01*
X154194Y212338D01*
X154133Y212433D01*
X154079Y212532D01*
X154023Y212601D01*
X153974Y212675D01*
X153895Y212756D01*
X153823Y212843D01*
X153754Y212899D01*
X153691Y212962D01*
X153598Y213025D01*
X153510Y213097D01*
X153432Y213138D01*
X153358Y213188D01*
X153253Y213231D01*
X153154Y213284D01*
X153068Y213309D01*
X152986Y213343D01*
X152876Y213365D01*
X152767Y213397D01*
X152679Y213404D01*
X152592Y213422D01*
X152479Y213422D01*
X152366Y213431D01*
X152278Y213421D01*
X152189Y213421D01*
X152078Y213399D01*
X151966Y213386D01*
X151882Y213359D01*
X151794Y213341D01*
X151690Y213298D01*
X151583Y213263D01*
X151505Y213220D01*
X151423Y213185D01*
X151330Y213122D01*
X151231Y213067D01*
X151164Y213009D01*
X151090Y212959D01*
X151011Y212878D01*
X150925Y212805D01*
X150871Y212735D01*
X150808Y212672D01*
X150747Y212577D01*
X150677Y212488D01*
X150637Y212408D01*
X150589Y212334D01*
X150534Y212204D01*
X150496Y212128D01*
X150484Y212084D01*
X150461Y212028D01*
X150293Y211512D01*
X149476Y209909D01*
X148419Y208453D01*
X147147Y207181D01*
X145691Y206124D01*
X144088Y205307D01*
X142377Y204751D01*
X141922Y204679D01*
X141922Y215709D01*
X141920Y215727D01*
X141921Y215745D01*
X141905Y215885D01*
X141922Y216091D01*
X141922Y227121D01*
X142377Y227049D01*
X144088Y226493D01*
X145691Y225676D01*
X147147Y224619D01*
X148419Y223347D01*
X149476Y221891D01*
X150293Y220288D01*
X150461Y219772D01*
X150497Y219691D01*
X150523Y219606D01*
X150577Y219507D01*
X150623Y219403D01*
X150674Y219331D01*
X150716Y219253D01*
X150789Y219166D01*
X150854Y219074D01*
X150918Y219013D01*
X150975Y218945D01*
X151064Y218874D01*
X151146Y218796D01*
X151221Y218749D01*
X151290Y218694D01*
X151391Y218642D01*
X151486Y218582D01*
X151569Y218550D01*
X151648Y218510D01*
X151757Y218479D01*
X151863Y218439D01*
X151950Y218424D01*
X152036Y218400D01*
X152148Y218391D01*
X152260Y218373D01*
X152349Y218376D01*
X152437Y218369D01*
X152549Y218383D01*
X152662Y218386D01*
X152749Y218407D01*
X152837Y218418D01*
X152944Y218453D01*
X153054Y218479D01*
X153135Y218516D01*
X153219Y218544D01*
X153317Y218600D01*
X153420Y218647D01*
X153492Y218700D01*
X153569Y218744D01*
X153654Y218818D01*
X153745Y218884D01*
X153805Y218950D01*
X153872Y219008D01*
X153941Y219098D01*
X154018Y219181D01*
X154064Y219257D01*
X154118Y219327D01*
X154182Y219453D01*
X154226Y219525D01*
X154242Y219569D01*
X154269Y219622D01*
X155409Y222375D01*
X158625Y225591D01*
X159942Y226136D01*
X159943Y226136D01*
X162826Y227331D01*
X167374Y227331D01*
X171575Y225591D01*
X174791Y222375D01*
X175923Y219640D01*
X175928Y219632D01*
X175930Y219624D01*
X176023Y219453D01*
X176114Y219285D01*
X176119Y219278D01*
X176124Y219270D01*
X176248Y219123D01*
X176370Y218975D01*
X176377Y218969D01*
X176383Y218962D01*
X176534Y218842D01*
X176683Y218721D01*
X176690Y218717D01*
X176698Y218711D01*
X176868Y218624D01*
X177039Y218534D01*
X177048Y218531D01*
X177056Y218527D01*
X177238Y218476D01*
X177426Y218421D01*
X177435Y218420D01*
X177443Y218418D01*
X177634Y218403D01*
X177827Y218386D01*
X177836Y218387D01*
X177844Y218387D01*
X178035Y218410D01*
X178227Y218431D01*
X178235Y218434D01*
X178244Y218435D01*
X178425Y218495D01*
X178610Y218555D01*
X178618Y218559D01*
X178626Y218562D01*
X178793Y218657D01*
X178962Y218751D01*
X178968Y218757D01*
X178976Y218761D01*
X179123Y218889D01*
X179267Y219013D01*
X179273Y219020D01*
X179280Y219026D01*
X179397Y219179D01*
X179516Y219330D01*
X179520Y219338D01*
X179525Y219345D01*
X179677Y219640D01*
X180809Y222375D01*
X184025Y225591D01*
X185342Y226136D01*
X185343Y226136D01*
X188226Y227331D01*
X192774Y227331D01*
X196975Y225591D01*
X200191Y222375D01*
X201323Y219640D01*
X201328Y219632D01*
X201330Y219624D01*
X201424Y219453D01*
X201514Y219285D01*
X201519Y219278D01*
X201524Y219270D01*
X201649Y219121D01*
X201770Y218975D01*
X201777Y218969D01*
X201783Y218962D01*
X201933Y218842D01*
X202083Y218721D01*
X202091Y218717D01*
X202098Y218711D01*
X202270Y218623D01*
X202439Y218534D01*
X202448Y218531D01*
X202456Y218527D01*
X202642Y218475D01*
X202826Y218421D01*
X202835Y218420D01*
X202843Y218418D01*
X203034Y218403D01*
X203227Y218386D01*
X203236Y218387D01*
X203244Y218387D01*
X203436Y218410D01*
X203627Y218431D01*
X203635Y218434D01*
X203644Y218435D01*
X203827Y218496D01*
X204010Y218555D01*
X204018Y218559D01*
X204026Y218562D01*
X204193Y218657D01*
X204362Y218751D01*
X204368Y218757D01*
X204376Y218761D01*
X204521Y218888D01*
X204667Y219013D01*
X204673Y219020D01*
X204680Y219026D01*
X204797Y219179D01*
X204916Y219330D01*
X204920Y219338D01*
X204925Y219345D01*
X205077Y219640D01*
X206209Y222375D01*
X209425Y225591D01*
X210742Y226136D01*
X210743Y226136D01*
X213626Y227331D01*
X218174Y227331D01*
X222375Y225591D01*
X225591Y222375D01*
X226723Y219640D01*
X226728Y219632D01*
X226730Y219624D01*
X226822Y219456D01*
X226914Y219285D01*
X226919Y219278D01*
X226924Y219270D01*
X227047Y219124D01*
X227170Y218975D01*
X227177Y218969D01*
X227183Y218962D01*
X227333Y218842D01*
X227483Y218721D01*
X227491Y218717D01*
X227497Y218711D01*
X227668Y218624D01*
X227839Y218534D01*
X227848Y218531D01*
X227856Y218527D01*
X228040Y218475D01*
X228226Y218421D01*
X228234Y218420D01*
X228243Y218418D01*
X228434Y218403D01*
X228627Y218386D01*
X228636Y218387D01*
X228644Y218387D01*
X228834Y218410D01*
X229027Y218431D01*
X229035Y218434D01*
X229044Y218435D01*
X229226Y218495D01*
X229410Y218555D01*
X229418Y218559D01*
X229426Y218562D01*
X229594Y218657D01*
X229762Y218751D01*
X229768Y218757D01*
X229776Y218761D01*
X229921Y218888D01*
X230067Y219013D01*
X230073Y219020D01*
X230080Y219026D01*
X230197Y219178D01*
X230316Y219330D01*
X230320Y219338D01*
X230325Y219345D01*
X230477Y219640D01*
X231609Y222375D01*
X234825Y225591D01*
X236142Y226136D01*
X236143Y226136D01*
X239026Y227331D01*
X243574Y227331D01*
X247775Y225591D01*
X250991Y222375D01*
X252123Y219640D01*
X252128Y219632D01*
X252130Y219624D01*
X252222Y219456D01*
X252314Y219285D01*
X252319Y219278D01*
X252324Y219270D01*
X252447Y219124D01*
X252570Y218975D01*
X252577Y218969D01*
X252583Y218962D01*
X252733Y218842D01*
X252883Y218721D01*
X252891Y218717D01*
X252897Y218711D01*
X253068Y218624D01*
X253239Y218534D01*
X253248Y218531D01*
X253256Y218527D01*
X253440Y218475D01*
X253626Y218421D01*
X253634Y218420D01*
X253643Y218418D01*
X253834Y218403D01*
X254027Y218386D01*
X254036Y218387D01*
X254044Y218387D01*
X254234Y218410D01*
X254427Y218431D01*
X254435Y218434D01*
X254444Y218435D01*
X254626Y218495D01*
X254810Y218555D01*
X254818Y218559D01*
X254826Y218562D01*
X254994Y218657D01*
X255162Y218751D01*
X255168Y218757D01*
X255176Y218761D01*
X255321Y218888D01*
X255467Y219013D01*
X255473Y219020D01*
X255480Y219026D01*
X255597Y219178D01*
X255716Y219330D01*
X255720Y219338D01*
X255725Y219345D01*
X255877Y219640D01*
X257009Y222375D01*
X260225Y225591D01*
X261542Y226136D01*
X261543Y226136D01*
X264426Y227331D01*
X268974Y227331D01*
X273175Y225591D01*
X276391Y222375D01*
X278131Y218174D01*
X278131Y213626D01*
X276391Y209425D01*
X273175Y206209D01*
X271481Y205508D01*
X268974Y204469D01*
X264426Y204469D01*
X260225Y206209D01*
X257009Y209425D01*
X255877Y212160D01*
X255872Y212168D01*
X255870Y212176D01*
X255776Y212347D01*
X255686Y212515D01*
X255681Y212522D01*
X255676Y212530D01*
X255552Y212678D01*
X255430Y212825D01*
X255423Y212831D01*
X255417Y212838D01*
X255267Y212958D01*
X255117Y213079D01*
X255109Y213083D01*
X255102Y213089D01*
X254930Y213177D01*
X254761Y213266D01*
X254752Y213269D01*
X254744Y213273D01*
X254558Y213325D01*
X254374Y213379D01*
X254365Y213380D01*
X254357Y213382D01*
X254166Y213397D01*
X253973Y213414D01*
X253964Y213413D01*
X253956Y213413D01*
X253764Y213390D01*
X253573Y213369D01*
X253565Y213366D01*
X253556Y213365D01*
X253373Y213304D01*
X253190Y213245D01*
X253182Y213241D01*
X253174Y213238D01*
X253007Y213143D01*
X252838Y213049D01*
X252832Y213043D01*
X252824Y213039D01*
X252679Y212912D01*
X252533Y212787D01*
X252527Y212780D01*
X252520Y212774D01*
X252403Y212621D01*
X252284Y212470D01*
X252280Y212462D01*
X252275Y212455D01*
X252123Y212160D01*
X250991Y209425D01*
X247775Y206209D01*
X246081Y205508D01*
X243574Y204469D01*
X239026Y204469D01*
X234825Y206209D01*
X231609Y209425D01*
X230477Y212160D01*
X230472Y212168D01*
X230470Y212176D01*
X230376Y212347D01*
X230286Y212515D01*
X230281Y212522D01*
X230276Y212530D01*
X230152Y212678D01*
X230030Y212825D01*
X230023Y212831D01*
X230017Y212838D01*
X229867Y212958D01*
X229717Y213079D01*
X229709Y213083D01*
X229702Y213089D01*
X229530Y213177D01*
X229361Y213266D01*
X229352Y213269D01*
X229344Y213273D01*
X229158Y213325D01*
X228974Y213379D01*
X228965Y213380D01*
X228957Y213382D01*
X228766Y213397D01*
X228573Y213414D01*
X228564Y213413D01*
X228556Y213413D01*
X228364Y213390D01*
X228173Y213369D01*
X228165Y213366D01*
X228156Y213365D01*
X227973Y213304D01*
X227790Y213245D01*
X227782Y213241D01*
X227774Y213238D01*
X227607Y213143D01*
X227438Y213049D01*
X227432Y213043D01*
X227424Y213039D01*
X227279Y212912D01*
X227133Y212787D01*
X227127Y212780D01*
X227120Y212774D01*
X227003Y212621D01*
X226884Y212470D01*
X226880Y212462D01*
X226875Y212455D01*
X226723Y212160D01*
X225591Y209425D01*
X222375Y206209D01*
X220681Y205508D01*
X218174Y204469D01*
X213626Y204469D01*
X209425Y206209D01*
X206209Y209425D01*
X205077Y212160D01*
X205072Y212168D01*
X205070Y212176D01*
X204978Y212344D01*
X204886Y212515D01*
X204881Y212522D01*
X204876Y212530D01*
X204754Y212675D01*
X204630Y212825D01*
X204623Y212831D01*
X204617Y212838D01*
X204467Y212958D01*
X204317Y213079D01*
X204309Y213083D01*
X204303Y213089D01*
X204132Y213176D01*
X203961Y213266D01*
X203952Y213269D01*
X203944Y213273D01*
X203760Y213325D01*
X203574Y213379D01*
X203566Y213380D01*
X203557Y213382D01*
X203366Y213397D01*
X203173Y213414D01*
X203164Y213413D01*
X203156Y213413D01*
X202966Y213390D01*
X202773Y213369D01*
X202765Y213366D01*
X202756Y213365D01*
X202574Y213305D01*
X202390Y213245D01*
X202382Y213241D01*
X202374Y213238D01*
X202206Y213143D01*
X202038Y213049D01*
X202032Y213043D01*
X202024Y213039D01*
X201879Y212912D01*
X201733Y212787D01*
X201727Y212780D01*
X201720Y212774D01*
X201603Y212622D01*
X201484Y212470D01*
X201480Y212462D01*
X201475Y212455D01*
X201323Y212160D01*
X200191Y209425D01*
X196975Y206209D01*
X195281Y205508D01*
X192774Y204469D01*
X188226Y204469D01*
X184025Y206209D01*
X180809Y209425D01*
X179677Y212160D01*
X179672Y212168D01*
X179670Y212176D01*
X179578Y212344D01*
X179486Y212515D01*
X179481Y212522D01*
X179476Y212530D01*
X179354Y212675D01*
X179230Y212825D01*
X179223Y212831D01*
X179217Y212838D01*
X179067Y212957D01*
X178917Y213079D01*
X178909Y213083D01*
X178903Y213089D01*
X178731Y213177D01*
X178561Y213266D01*
X178552Y213269D01*
X178544Y213273D01*
X178359Y213325D01*
X178174Y213379D01*
X178166Y213380D01*
X178157Y213382D01*
X177966Y213397D01*
X177773Y213414D01*
X177764Y213413D01*
X177756Y213413D01*
X177563Y213390D01*
X177373Y213369D01*
X177365Y213366D01*
X177356Y213365D01*
X177171Y213304D01*
X176990Y213245D01*
X176982Y213241D01*
X176974Y213238D01*
X176806Y213143D01*
X176638Y213049D01*
X176632Y213043D01*
X176624Y213039D01*
X176479Y212912D01*
X176333Y212787D01*
X176327Y212780D01*
X176320Y212774D01*
X176203Y212622D01*
X176084Y212470D01*
X176080Y212462D01*
X176075Y212455D01*
X175923Y212160D01*
X174791Y209425D01*
X171575Y206209D01*
X169881Y205508D01*
X167374Y204469D01*
X162826Y204469D01*
G37*
%LPD*%
%LPC*%
G36*
X293332Y547115D02*
X293332Y547115D01*
X289037Y548894D01*
X285750Y552181D01*
X283971Y556476D01*
X283971Y561124D01*
X285750Y565419D01*
X289037Y568706D01*
X290755Y569417D01*
X290755Y569418D01*
X291252Y569623D01*
X291260Y569628D01*
X291269Y569630D01*
X291439Y569723D01*
X291607Y569814D01*
X291614Y569819D01*
X291622Y569824D01*
X291770Y569948D01*
X291918Y570070D01*
X291923Y570077D01*
X291930Y570083D01*
X292050Y570233D01*
X292171Y570383D01*
X292175Y570391D01*
X292181Y570398D01*
X292268Y570567D01*
X292358Y570739D01*
X292361Y570748D01*
X292365Y570756D01*
X292417Y570938D01*
X292471Y571126D01*
X292472Y571135D01*
X292475Y571143D01*
X292489Y571331D01*
X292506Y571527D01*
X292505Y571536D01*
X292506Y571544D01*
X292482Y571735D01*
X292461Y571927D01*
X292458Y571935D01*
X292457Y571944D01*
X292397Y572126D01*
X292338Y572310D01*
X292333Y572318D01*
X292330Y572326D01*
X292235Y572494D01*
X292141Y572662D01*
X292136Y572668D01*
X292131Y572676D01*
X292004Y572822D01*
X291879Y572967D01*
X291872Y572973D01*
X291867Y572980D01*
X291714Y573097D01*
X291562Y573216D01*
X291554Y573220D01*
X291547Y573225D01*
X291252Y573377D01*
X289037Y574294D01*
X285750Y577581D01*
X283971Y581876D01*
X283971Y586524D01*
X285750Y590819D01*
X289037Y594106D01*
X291200Y595002D01*
X291279Y595044D01*
X291362Y595077D01*
X291456Y595139D01*
X291555Y595192D01*
X291624Y595249D01*
X291698Y595298D01*
X291779Y595377D01*
X291866Y595448D01*
X291922Y595518D01*
X291985Y595580D01*
X292048Y595674D01*
X292119Y595761D01*
X292161Y595840D01*
X292211Y595914D01*
X292254Y596018D01*
X292306Y596118D01*
X292331Y596203D01*
X292366Y596285D01*
X292388Y596396D01*
X292419Y596504D01*
X292427Y596593D01*
X292444Y596680D01*
X292444Y596793D01*
X292454Y596905D01*
X292444Y596994D01*
X292444Y597083D01*
X292421Y597193D01*
X292409Y597305D01*
X292382Y597390D01*
X292364Y597477D01*
X292320Y597581D01*
X292286Y597689D01*
X292242Y597766D01*
X292208Y597848D01*
X292144Y597942D01*
X292089Y598040D01*
X292031Y598108D01*
X291981Y598181D01*
X291901Y598260D01*
X291828Y598346D01*
X291757Y598401D01*
X291694Y598463D01*
X291599Y598524D01*
X291510Y598594D01*
X291431Y598634D01*
X291356Y598683D01*
X291292Y598709D01*
X289532Y599606D01*
X288044Y600687D01*
X286743Y601988D01*
X285662Y603476D01*
X284827Y605114D01*
X284259Y606864D01*
X284228Y607061D01*
X304292Y607061D01*
X304310Y607062D01*
X304327Y607061D01*
X304510Y607082D01*
X304692Y607101D01*
X304709Y607106D01*
X304727Y607108D01*
X304805Y607133D01*
X304942Y607094D01*
X304960Y607092D01*
X304977Y607088D01*
X305308Y607061D01*
X325372Y607061D01*
X325341Y606864D01*
X324773Y605114D01*
X323938Y603476D01*
X322857Y601988D01*
X321556Y600687D01*
X320068Y599606D01*
X318385Y598749D01*
X318383Y598748D01*
X318373Y598743D01*
X318287Y598699D01*
X318270Y598688D01*
X318181Y598649D01*
X318108Y598598D01*
X318030Y598555D01*
X317944Y598482D01*
X317852Y598418D01*
X317790Y598353D01*
X317722Y598296D01*
X317652Y598208D01*
X317574Y598126D01*
X317527Y598051D01*
X317471Y597981D01*
X317420Y597881D01*
X317359Y597785D01*
X317328Y597702D01*
X317287Y597623D01*
X317256Y597514D01*
X317216Y597409D01*
X317202Y597321D01*
X317177Y597235D01*
X317169Y597123D01*
X317150Y597012D01*
X317153Y596923D01*
X317146Y596834D01*
X317160Y596722D01*
X317164Y596610D01*
X317184Y596523D01*
X317195Y596434D01*
X317230Y596328D01*
X317256Y596218D01*
X317293Y596137D01*
X317321Y596052D01*
X317377Y595954D01*
X317424Y595852D01*
X317477Y595780D01*
X317521Y595702D01*
X317595Y595617D01*
X317661Y595526D01*
X317727Y595466D01*
X317785Y595399D01*
X317875Y595330D01*
X317958Y595254D01*
X318034Y595208D01*
X318105Y595153D01*
X318230Y595089D01*
X318302Y595045D01*
X318346Y595030D01*
X318400Y595002D01*
X320563Y594106D01*
X323850Y590819D01*
X325629Y586524D01*
X325629Y581876D01*
X323850Y577581D01*
X320563Y574294D01*
X318348Y573377D01*
X318340Y573372D01*
X318331Y573370D01*
X318163Y573278D01*
X317993Y573186D01*
X317986Y573181D01*
X317978Y573176D01*
X317832Y573053D01*
X317683Y572930D01*
X317677Y572923D01*
X317670Y572917D01*
X317550Y572767D01*
X317429Y572617D01*
X317425Y572609D01*
X317419Y572603D01*
X317331Y572432D01*
X317242Y572261D01*
X317239Y572252D01*
X317235Y572244D01*
X317183Y572060D01*
X317129Y571874D01*
X317128Y571866D01*
X317125Y571857D01*
X317111Y571666D01*
X317094Y571473D01*
X317095Y571464D01*
X317094Y571456D01*
X317117Y571266D01*
X317139Y571073D01*
X317142Y571065D01*
X317143Y571056D01*
X317204Y570872D01*
X317262Y570690D01*
X317267Y570682D01*
X317269Y570674D01*
X317365Y570506D01*
X317459Y570338D01*
X317464Y570332D01*
X317469Y570324D01*
X317595Y570179D01*
X317721Y570033D01*
X317728Y570027D01*
X317733Y570020D01*
X317887Y569903D01*
X318038Y569784D01*
X318045Y569780D01*
X318053Y569775D01*
X318348Y569623D01*
X320563Y568706D01*
X323850Y565419D01*
X325629Y561124D01*
X325629Y556476D01*
X323850Y552181D01*
X320563Y548894D01*
X316268Y547115D01*
X293332Y547115D01*
G37*
%LPD*%
%LPC*%
G36*
X50698Y637466D02*
X50698Y637466D01*
X50680Y637468D01*
X50663Y637472D01*
X50332Y637499D01*
X39446Y637499D01*
X39481Y637717D01*
X40046Y639455D01*
X40875Y641082D01*
X41948Y642560D01*
X43240Y643852D01*
X44718Y644925D01*
X46345Y645755D01*
X46426Y645781D01*
X46507Y645816D01*
X46592Y645843D01*
X46691Y645897D01*
X46794Y645942D01*
X46867Y645993D01*
X46945Y646036D01*
X47031Y646109D01*
X47124Y646174D01*
X47185Y646238D01*
X47253Y646295D01*
X47324Y646384D01*
X47401Y646465D01*
X47449Y646540D01*
X47504Y646610D01*
X47556Y646711D01*
X47616Y646806D01*
X47647Y646889D01*
X47688Y646968D01*
X47719Y647077D01*
X47759Y647182D01*
X47773Y647270D01*
X47798Y647355D01*
X47806Y647468D01*
X47825Y647580D01*
X47822Y647669D01*
X47829Y647757D01*
X47815Y647869D01*
X47811Y647982D01*
X47791Y648069D01*
X47780Y648157D01*
X47745Y648264D01*
X47719Y648374D01*
X47681Y648455D01*
X47654Y648539D01*
X47598Y648637D01*
X47550Y648740D01*
X47498Y648811D01*
X47454Y648889D01*
X47380Y648974D01*
X47313Y649065D01*
X47248Y649125D01*
X47190Y649192D01*
X47100Y649261D01*
X47017Y649337D01*
X46941Y649383D01*
X46870Y649438D01*
X46745Y649502D01*
X46672Y649546D01*
X46629Y649562D01*
X46575Y649589D01*
X44226Y650562D01*
X40962Y653826D01*
X39195Y658092D01*
X39195Y662708D01*
X40962Y666974D01*
X44226Y670238D01*
X46605Y671223D01*
X46613Y671228D01*
X46622Y671230D01*
X46791Y671323D01*
X46960Y671414D01*
X46967Y671419D01*
X46975Y671424D01*
X47122Y671547D01*
X47271Y671670D01*
X47276Y671677D01*
X47283Y671683D01*
X47404Y671834D01*
X47524Y671983D01*
X47528Y671990D01*
X47534Y671998D01*
X47623Y672171D01*
X47711Y672339D01*
X47714Y672348D01*
X47718Y672356D01*
X47771Y672542D01*
X47824Y672726D01*
X47825Y672735D01*
X47828Y672743D01*
X47842Y672934D01*
X47859Y673127D01*
X47858Y673136D01*
X47859Y673144D01*
X47835Y673336D01*
X47814Y673527D01*
X47811Y673535D01*
X47810Y673544D01*
X47750Y673727D01*
X47691Y673910D01*
X47686Y673918D01*
X47684Y673926D01*
X47588Y674093D01*
X47494Y674262D01*
X47489Y674268D01*
X47484Y674276D01*
X47359Y674420D01*
X47233Y674567D01*
X47225Y674573D01*
X47220Y674580D01*
X47067Y674697D01*
X46916Y674816D01*
X46908Y674820D01*
X46900Y674825D01*
X46605Y674977D01*
X44226Y675962D01*
X40962Y679226D01*
X39195Y683492D01*
X39195Y688108D01*
X40962Y692374D01*
X44226Y695638D01*
X46605Y696623D01*
X46613Y696628D01*
X46622Y696630D01*
X46791Y696723D01*
X46960Y696814D01*
X46967Y696819D01*
X46975Y696824D01*
X47122Y696947D01*
X47271Y697070D01*
X47276Y697077D01*
X47283Y697083D01*
X47404Y697234D01*
X47524Y697383D01*
X47528Y697390D01*
X47534Y697398D01*
X47623Y697571D01*
X47711Y697739D01*
X47714Y697748D01*
X47718Y697756D01*
X47771Y697942D01*
X47824Y698126D01*
X47825Y698135D01*
X47828Y698143D01*
X47842Y698334D01*
X47859Y698527D01*
X47858Y698536D01*
X47859Y698544D01*
X47835Y698736D01*
X47814Y698927D01*
X47811Y698935D01*
X47810Y698944D01*
X47750Y699127D01*
X47691Y699310D01*
X47686Y699318D01*
X47684Y699326D01*
X47588Y699493D01*
X47494Y699662D01*
X47489Y699668D01*
X47484Y699676D01*
X47359Y699820D01*
X47233Y699967D01*
X47225Y699973D01*
X47220Y699980D01*
X47067Y700097D01*
X46916Y700216D01*
X46908Y700220D01*
X46900Y700225D01*
X46605Y700377D01*
X44226Y701362D01*
X40962Y704626D01*
X39195Y708892D01*
X39195Y713508D01*
X40962Y717774D01*
X44226Y721038D01*
X48492Y722805D01*
X53108Y722805D01*
X57374Y721038D01*
X60638Y717774D01*
X62405Y713508D01*
X62405Y708892D01*
X60638Y704626D01*
X57374Y701362D01*
X54995Y700377D01*
X54987Y700372D01*
X54978Y700370D01*
X54811Y700278D01*
X54640Y700186D01*
X54633Y700181D01*
X54625Y700176D01*
X54478Y700053D01*
X54329Y699930D01*
X54324Y699923D01*
X54317Y699917D01*
X54197Y699767D01*
X54076Y699617D01*
X54072Y699609D01*
X54066Y699603D01*
X53978Y699432D01*
X53889Y699261D01*
X53886Y699252D01*
X53882Y699244D01*
X53830Y699061D01*
X53776Y698875D01*
X53775Y698865D01*
X53772Y698857D01*
X53758Y698666D01*
X53741Y698473D01*
X53742Y698464D01*
X53741Y698456D01*
X53764Y698266D01*
X53786Y698073D01*
X53789Y698065D01*
X53790Y698056D01*
X53850Y697876D01*
X53909Y697690D01*
X53914Y697682D01*
X53916Y697674D01*
X54011Y697508D01*
X54106Y697339D01*
X54111Y697332D01*
X54116Y697324D01*
X54242Y697179D01*
X54367Y697033D01*
X54374Y697027D01*
X54380Y697020D01*
X54533Y696903D01*
X54684Y696784D01*
X54692Y696780D01*
X54700Y696775D01*
X54995Y696623D01*
X57374Y695638D01*
X60638Y692374D01*
X62405Y688108D01*
X62405Y683492D01*
X60638Y679226D01*
X57374Y675962D01*
X54995Y674977D01*
X54987Y674972D01*
X54978Y674970D01*
X54811Y674878D01*
X54640Y674786D01*
X54633Y674781D01*
X54625Y674776D01*
X54478Y674653D01*
X54329Y674530D01*
X54324Y674523D01*
X54317Y674517D01*
X54197Y674367D01*
X54076Y674217D01*
X54072Y674209D01*
X54066Y674203D01*
X53978Y674032D01*
X53889Y673861D01*
X53886Y673852D01*
X53882Y673844D01*
X53830Y673661D01*
X53776Y673475D01*
X53775Y673465D01*
X53772Y673457D01*
X53758Y673266D01*
X53741Y673073D01*
X53742Y673064D01*
X53741Y673056D01*
X53764Y672866D01*
X53786Y672673D01*
X53789Y672665D01*
X53790Y672656D01*
X53850Y672476D01*
X53909Y672290D01*
X53914Y672282D01*
X53916Y672274D01*
X54011Y672108D01*
X54106Y671939D01*
X54111Y671932D01*
X54116Y671924D01*
X54242Y671779D01*
X54367Y671633D01*
X54374Y671627D01*
X54380Y671620D01*
X54533Y671503D01*
X54684Y671384D01*
X54692Y671380D01*
X54700Y671375D01*
X54995Y671223D01*
X57374Y670238D01*
X60638Y666974D01*
X62405Y662708D01*
X62405Y658092D01*
X60638Y653826D01*
X57374Y650562D01*
X55025Y649589D01*
X54947Y649547D01*
X54864Y649514D01*
X54769Y649452D01*
X54670Y649399D01*
X54601Y649342D01*
X54527Y649294D01*
X54447Y649214D01*
X54359Y649142D01*
X54304Y649074D01*
X54240Y649011D01*
X54177Y648918D01*
X54106Y648830D01*
X54065Y648751D01*
X54015Y648678D01*
X53971Y648573D01*
X53919Y648473D01*
X53894Y648388D01*
X53860Y648306D01*
X53837Y648196D01*
X53806Y648087D01*
X53798Y647998D01*
X53781Y647911D01*
X53781Y647798D01*
X53771Y647686D01*
X53781Y647598D01*
X53781Y647509D01*
X53803Y647398D01*
X53816Y647286D01*
X53843Y647201D01*
X53861Y647114D01*
X53905Y647010D01*
X53939Y646902D01*
X53983Y646825D01*
X54017Y646743D01*
X54081Y646650D01*
X54136Y646551D01*
X54193Y646483D01*
X54243Y646410D01*
X54324Y646331D01*
X54397Y646245D01*
X54467Y646190D01*
X54531Y646128D01*
X54625Y646067D01*
X54714Y645997D01*
X54794Y645957D01*
X54868Y645909D01*
X54999Y645854D01*
X55074Y645816D01*
X55119Y645804D01*
X55174Y645781D01*
X55255Y645755D01*
X56882Y644925D01*
X58360Y643852D01*
X59652Y642560D01*
X60725Y641082D01*
X61554Y639455D01*
X62119Y637717D01*
X62154Y637499D01*
X51268Y637499D01*
X51250Y637497D01*
X51233Y637499D01*
X51050Y637478D01*
X50868Y637459D01*
X50851Y637454D01*
X50833Y637452D01*
X50792Y637439D01*
X50698Y637466D01*
G37*
%LPD*%
%LPC*%
G36*
X128479Y218122D02*
X128479Y218122D01*
X128551Y218577D01*
X129107Y220288D01*
X129924Y221891D01*
X130981Y223347D01*
X132253Y224619D01*
X133709Y225676D01*
X135312Y226493D01*
X137023Y227049D01*
X137478Y227121D01*
X137478Y218122D01*
X128479Y218122D01*
G37*
%LPD*%
%LPC*%
G36*
X137023Y204751D02*
X137023Y204751D01*
X135312Y205307D01*
X133709Y206124D01*
X132253Y207181D01*
X130981Y208453D01*
X129924Y209909D01*
X129107Y211512D01*
X128551Y213223D01*
X128479Y213678D01*
X137478Y213678D01*
X137478Y204679D01*
X137023Y204751D01*
G37*
%LPD*%
D10*
X0Y0D02*
X428500Y0D01*
X428500Y800000D01*
X0Y800000D01*
X0Y0D01*
D11*
X0Y800000D02*
X0Y972000D01*
X428500Y972000D02*
X428500Y800000D01*
X427850Y952500D02*
X650Y952500D01*
X26000Y955692D01*
X26000Y949308D01*
X650Y952500D01*
X26000Y953800D01*
X26000Y951200D02*
X650Y952500D01*
X26000Y955100D01*
X26000Y949900D02*
X650Y952500D01*
X402500Y955692D02*
X427850Y952500D01*
X402500Y955692D02*
X402500Y949308D01*
X427850Y952500D01*
X402500Y953800D01*
X402500Y951200D02*
X427850Y952500D01*
X402500Y955100D01*
X402500Y949900D02*
X427850Y952500D01*
D12*
X186714Y975263D02*
X183102Y962619D01*
X192133Y962619D01*
X189424Y966232D02*
X189424Y959007D01*
X203700Y975263D02*
X203825Y975261D01*
X203950Y975255D01*
X204075Y975246D01*
X204199Y975232D01*
X204323Y975215D01*
X204447Y975194D01*
X204569Y975169D01*
X204691Y975140D01*
X204812Y975108D01*
X204932Y975072D01*
X205051Y975032D01*
X205168Y974989D01*
X205284Y974942D01*
X205399Y974891D01*
X205511Y974837D01*
X205623Y974779D01*
X205732Y974719D01*
X205839Y974654D01*
X205945Y974587D01*
X206048Y974516D01*
X206149Y974442D01*
X206248Y974365D01*
X206344Y974285D01*
X206438Y974202D01*
X206529Y974117D01*
X206618Y974028D01*
X206703Y973937D01*
X206786Y973843D01*
X206866Y973747D01*
X206943Y973648D01*
X207017Y973547D01*
X207088Y973444D01*
X207155Y973338D01*
X207220Y973231D01*
X207280Y973122D01*
X207338Y973010D01*
X207392Y972898D01*
X207443Y972783D01*
X207490Y972667D01*
X207533Y972550D01*
X207573Y972431D01*
X207609Y972311D01*
X207641Y972190D01*
X207670Y972068D01*
X207695Y971946D01*
X207716Y971822D01*
X207733Y971698D01*
X207747Y971574D01*
X207756Y971449D01*
X207762Y971324D01*
X207764Y971199D01*
X203700Y975263D02*
X203557Y975261D01*
X203415Y975255D01*
X203272Y975245D01*
X203130Y975232D01*
X202989Y975214D01*
X202847Y975193D01*
X202707Y975168D01*
X202567Y975139D01*
X202428Y975106D01*
X202290Y975069D01*
X202153Y975029D01*
X202018Y974985D01*
X201883Y974937D01*
X201750Y974885D01*
X201618Y974830D01*
X201488Y974771D01*
X201360Y974709D01*
X201233Y974643D01*
X201108Y974574D01*
X200985Y974502D01*
X200865Y974426D01*
X200746Y974347D01*
X200629Y974264D01*
X200515Y974179D01*
X200403Y974090D01*
X200294Y973999D01*
X200187Y973904D01*
X200082Y973807D01*
X199981Y973706D01*
X199882Y973603D01*
X199786Y973498D01*
X199693Y973389D01*
X199603Y973278D01*
X199516Y973165D01*
X199432Y973050D01*
X199352Y972932D01*
X199274Y972812D01*
X199200Y972690D01*
X199130Y972566D01*
X199062Y972440D01*
X198999Y972312D01*
X198938Y972183D01*
X198881Y972052D01*
X198828Y971920D01*
X198779Y971786D01*
X198733Y971651D01*
X206409Y968038D02*
X206503Y968130D01*
X206593Y968224D01*
X206681Y968321D01*
X206766Y968421D01*
X206848Y968523D01*
X206927Y968628D01*
X207002Y968735D01*
X207074Y968844D01*
X207143Y968955D01*
X207209Y969069D01*
X207271Y969184D01*
X207330Y969301D01*
X207385Y969420D01*
X207436Y969540D01*
X207484Y969662D01*
X207529Y969785D01*
X207569Y969909D01*
X207606Y970035D01*
X207639Y970162D01*
X207668Y970289D01*
X207694Y970418D01*
X207715Y970547D01*
X207733Y970677D01*
X207746Y970807D01*
X207756Y970937D01*
X207762Y971068D01*
X207764Y971199D01*
X206410Y968038D02*
X198733Y959007D01*
X207764Y959007D01*
X213739Y959007D02*
X213739Y959910D01*
X214642Y959910D01*
X214642Y959007D01*
X213739Y959007D01*
X220616Y963523D02*
X220618Y963656D01*
X220624Y963788D01*
X220634Y963920D01*
X220647Y964052D01*
X220665Y964184D01*
X220686Y964314D01*
X220711Y964445D01*
X220740Y964574D01*
X220773Y964702D01*
X220809Y964830D01*
X220849Y964956D01*
X220893Y965081D01*
X220941Y965205D01*
X220992Y965327D01*
X221047Y965448D01*
X221105Y965567D01*
X221167Y965685D01*
X221232Y965800D01*
X221301Y965914D01*
X221372Y966025D01*
X221448Y966134D01*
X221526Y966241D01*
X221607Y966346D01*
X221692Y966448D01*
X221779Y966548D01*
X221869Y966645D01*
X221962Y966740D01*
X222058Y966831D01*
X222156Y966920D01*
X222257Y967006D01*
X222361Y967089D01*
X222467Y967169D01*
X222575Y967245D01*
X222685Y967319D01*
X222798Y967389D01*
X222912Y967456D01*
X223029Y967519D01*
X223147Y967579D01*
X223267Y967636D01*
X223389Y967689D01*
X223512Y967738D01*
X223636Y967784D01*
X223762Y967826D01*
X223889Y967864D01*
X224017Y967899D01*
X224146Y967930D01*
X224275Y967957D01*
X224406Y967980D01*
X224537Y968000D01*
X224669Y968015D01*
X224801Y968027D01*
X224933Y968035D01*
X225066Y968039D01*
X225198Y968039D01*
X225331Y968035D01*
X225463Y968027D01*
X225595Y968015D01*
X225727Y968000D01*
X225858Y967980D01*
X225989Y967957D01*
X226118Y967930D01*
X226247Y967899D01*
X226375Y967864D01*
X226502Y967826D01*
X226628Y967784D01*
X226752Y967738D01*
X226875Y967689D01*
X226997Y967636D01*
X227117Y967579D01*
X227235Y967519D01*
X227352Y967456D01*
X227466Y967389D01*
X227579Y967319D01*
X227689Y967245D01*
X227797Y967169D01*
X227903Y967089D01*
X228007Y967006D01*
X228108Y966920D01*
X228206Y966831D01*
X228302Y966740D01*
X228395Y966645D01*
X228485Y966548D01*
X228572Y966448D01*
X228657Y966346D01*
X228738Y966241D01*
X228816Y966134D01*
X228892Y966025D01*
X228963Y965914D01*
X229032Y965800D01*
X229097Y965685D01*
X229159Y965567D01*
X229217Y965448D01*
X229272Y965327D01*
X229323Y965205D01*
X229371Y965081D01*
X229415Y964956D01*
X229455Y964830D01*
X229491Y964702D01*
X229524Y964574D01*
X229553Y964445D01*
X229578Y964314D01*
X229599Y964184D01*
X229617Y964052D01*
X229630Y963920D01*
X229640Y963788D01*
X229646Y963656D01*
X229648Y963523D01*
X229646Y963390D01*
X229640Y963258D01*
X229630Y963126D01*
X229617Y962994D01*
X229599Y962862D01*
X229578Y962732D01*
X229553Y962601D01*
X229524Y962472D01*
X229491Y962344D01*
X229455Y962216D01*
X229415Y962090D01*
X229371Y961965D01*
X229323Y961841D01*
X229272Y961719D01*
X229217Y961598D01*
X229159Y961479D01*
X229097Y961361D01*
X229032Y961246D01*
X228963Y961132D01*
X228892Y961021D01*
X228816Y960912D01*
X228738Y960805D01*
X228657Y960700D01*
X228572Y960598D01*
X228485Y960498D01*
X228395Y960401D01*
X228302Y960306D01*
X228206Y960215D01*
X228108Y960126D01*
X228007Y960040D01*
X227903Y959957D01*
X227797Y959877D01*
X227689Y959801D01*
X227579Y959727D01*
X227466Y959657D01*
X227352Y959590D01*
X227235Y959527D01*
X227117Y959467D01*
X226997Y959410D01*
X226875Y959357D01*
X226752Y959308D01*
X226628Y959262D01*
X226502Y959220D01*
X226375Y959182D01*
X226247Y959147D01*
X226118Y959116D01*
X225989Y959089D01*
X225858Y959066D01*
X225727Y959046D01*
X225595Y959031D01*
X225463Y959019D01*
X225331Y959011D01*
X225198Y959007D01*
X225066Y959007D01*
X224933Y959011D01*
X224801Y959019D01*
X224669Y959031D01*
X224537Y959046D01*
X224406Y959066D01*
X224275Y959089D01*
X224146Y959116D01*
X224017Y959147D01*
X223889Y959182D01*
X223762Y959220D01*
X223636Y959262D01*
X223512Y959308D01*
X223389Y959357D01*
X223267Y959410D01*
X223147Y959467D01*
X223029Y959527D01*
X222912Y959590D01*
X222798Y959657D01*
X222685Y959727D01*
X222575Y959801D01*
X222467Y959877D01*
X222361Y959957D01*
X222257Y960040D01*
X222156Y960126D01*
X222058Y960215D01*
X221962Y960306D01*
X221869Y960401D01*
X221779Y960498D01*
X221692Y960598D01*
X221607Y960700D01*
X221526Y960805D01*
X221448Y960912D01*
X221372Y961021D01*
X221301Y961132D01*
X221232Y961246D01*
X221167Y961361D01*
X221105Y961479D01*
X221047Y961598D01*
X220992Y961719D01*
X220941Y961841D01*
X220893Y961965D01*
X220849Y962090D01*
X220809Y962216D01*
X220773Y962344D01*
X220740Y962472D01*
X220711Y962601D01*
X220686Y962732D01*
X220665Y962862D01*
X220647Y962994D01*
X220634Y963126D01*
X220624Y963258D01*
X220618Y963390D01*
X220616Y963523D01*
X221520Y971651D02*
X221522Y971770D01*
X221528Y971890D01*
X221538Y972009D01*
X221552Y972127D01*
X221569Y972246D01*
X221591Y972363D01*
X221616Y972480D01*
X221646Y972595D01*
X221679Y972710D01*
X221716Y972824D01*
X221756Y972936D01*
X221801Y973047D01*
X221849Y973156D01*
X221900Y973264D01*
X221955Y973370D01*
X222014Y973474D01*
X222076Y973576D01*
X222141Y973676D01*
X222210Y973774D01*
X222282Y973870D01*
X222357Y973963D01*
X222434Y974053D01*
X222515Y974141D01*
X222599Y974226D01*
X222686Y974308D01*
X222775Y974388D01*
X222867Y974464D01*
X222961Y974538D01*
X223058Y974608D01*
X223156Y974675D01*
X223257Y974739D01*
X223361Y974799D01*
X223466Y974856D01*
X223573Y974909D01*
X223681Y974959D01*
X223791Y975005D01*
X223903Y975047D01*
X224016Y975086D01*
X224130Y975121D01*
X224245Y975152D01*
X224362Y975180D01*
X224479Y975203D01*
X224596Y975223D01*
X224715Y975239D01*
X224834Y975251D01*
X224953Y975259D01*
X225072Y975263D01*
X225192Y975263D01*
X225311Y975259D01*
X225430Y975251D01*
X225549Y975239D01*
X225668Y975223D01*
X225785Y975203D01*
X225902Y975180D01*
X226019Y975152D01*
X226134Y975121D01*
X226248Y975086D01*
X226361Y975047D01*
X226473Y975005D01*
X226583Y974959D01*
X226691Y974909D01*
X226798Y974856D01*
X226903Y974799D01*
X227007Y974739D01*
X227108Y974675D01*
X227206Y974608D01*
X227303Y974538D01*
X227397Y974464D01*
X227489Y974388D01*
X227578Y974308D01*
X227665Y974226D01*
X227749Y974141D01*
X227830Y974053D01*
X227907Y973963D01*
X227982Y973870D01*
X228054Y973774D01*
X228123Y973676D01*
X228188Y973576D01*
X228250Y973474D01*
X228309Y973370D01*
X228364Y973264D01*
X228415Y973156D01*
X228463Y973047D01*
X228508Y972936D01*
X228548Y972824D01*
X228585Y972710D01*
X228618Y972595D01*
X228648Y972480D01*
X228673Y972363D01*
X228695Y972246D01*
X228712Y972127D01*
X228726Y972009D01*
X228736Y971890D01*
X228742Y971770D01*
X228744Y971651D01*
X228742Y971532D01*
X228736Y971412D01*
X228726Y971293D01*
X228712Y971175D01*
X228695Y971056D01*
X228673Y970939D01*
X228648Y970822D01*
X228618Y970707D01*
X228585Y970592D01*
X228548Y970478D01*
X228508Y970366D01*
X228463Y970255D01*
X228415Y970146D01*
X228364Y970038D01*
X228309Y969932D01*
X228250Y969828D01*
X228188Y969726D01*
X228123Y969626D01*
X228054Y969528D01*
X227982Y969432D01*
X227907Y969339D01*
X227830Y969249D01*
X227749Y969161D01*
X227665Y969076D01*
X227578Y968994D01*
X227489Y968914D01*
X227397Y968838D01*
X227303Y968764D01*
X227206Y968694D01*
X227108Y968627D01*
X227007Y968563D01*
X226903Y968503D01*
X226798Y968446D01*
X226691Y968393D01*
X226583Y968343D01*
X226473Y968297D01*
X226361Y968255D01*
X226248Y968216D01*
X226134Y968181D01*
X226019Y968150D01*
X225902Y968122D01*
X225785Y968099D01*
X225668Y968079D01*
X225549Y968063D01*
X225430Y968051D01*
X225311Y968043D01*
X225192Y968039D01*
X225072Y968039D01*
X224953Y968043D01*
X224834Y968051D01*
X224715Y968063D01*
X224596Y968079D01*
X224479Y968099D01*
X224362Y968122D01*
X224245Y968150D01*
X224130Y968181D01*
X224016Y968216D01*
X223903Y968255D01*
X223791Y968297D01*
X223681Y968343D01*
X223573Y968393D01*
X223466Y968446D01*
X223361Y968503D01*
X223257Y968563D01*
X223156Y968627D01*
X223058Y968694D01*
X222961Y968764D01*
X222867Y968838D01*
X222775Y968914D01*
X222686Y968994D01*
X222599Y969076D01*
X222515Y969161D01*
X222434Y969249D01*
X222357Y969339D01*
X222282Y969432D01*
X222210Y969528D01*
X222141Y969626D01*
X222076Y969726D01*
X222014Y969828D01*
X221955Y969932D01*
X221900Y970038D01*
X221849Y970146D01*
X221801Y970255D01*
X221756Y970366D01*
X221716Y970478D01*
X221679Y970592D01*
X221646Y970707D01*
X221616Y970822D01*
X221591Y970939D01*
X221569Y971056D01*
X221552Y971175D01*
X221538Y971293D01*
X221528Y971412D01*
X221522Y971532D01*
X221520Y971651D01*
X236248Y959007D02*
X241667Y959007D01*
X241785Y959009D01*
X241903Y959015D01*
X242021Y959024D01*
X242138Y959038D01*
X242255Y959055D01*
X242372Y959076D01*
X242487Y959101D01*
X242602Y959130D01*
X242716Y959163D01*
X242828Y959199D01*
X242939Y959239D01*
X243049Y959282D01*
X243158Y959329D01*
X243265Y959379D01*
X243370Y959434D01*
X243473Y959491D01*
X243574Y959552D01*
X243674Y959616D01*
X243771Y959683D01*
X243866Y959753D01*
X243958Y959827D01*
X244049Y959903D01*
X244136Y959983D01*
X244221Y960065D01*
X244303Y960150D01*
X244383Y960237D01*
X244459Y960328D01*
X244533Y960420D01*
X244603Y960515D01*
X244670Y960612D01*
X244734Y960712D01*
X244795Y960813D01*
X244852Y960916D01*
X244907Y961021D01*
X244957Y961128D01*
X245004Y961237D01*
X245047Y961347D01*
X245087Y961458D01*
X245123Y961570D01*
X245156Y961684D01*
X245185Y961799D01*
X245210Y961914D01*
X245231Y962031D01*
X245248Y962148D01*
X245262Y962265D01*
X245271Y962383D01*
X245277Y962501D01*
X245279Y962619D01*
X245279Y964426D01*
X245277Y964544D01*
X245271Y964662D01*
X245262Y964780D01*
X245248Y964897D01*
X245231Y965014D01*
X245210Y965131D01*
X245185Y965246D01*
X245156Y965361D01*
X245123Y965475D01*
X245087Y965587D01*
X245047Y965698D01*
X245004Y965808D01*
X244957Y965917D01*
X244907Y966024D01*
X244852Y966129D01*
X244795Y966232D01*
X244734Y966333D01*
X244670Y966433D01*
X244603Y966530D01*
X244533Y966625D01*
X244459Y966717D01*
X244383Y966808D01*
X244303Y966895D01*
X244221Y966980D01*
X244136Y967062D01*
X244049Y967142D01*
X243958Y967218D01*
X243866Y967292D01*
X243771Y967362D01*
X243674Y967429D01*
X243574Y967493D01*
X243473Y967554D01*
X243370Y967611D01*
X243265Y967666D01*
X243158Y967716D01*
X243049Y967763D01*
X242939Y967806D01*
X242828Y967846D01*
X242716Y967882D01*
X242602Y967915D01*
X242487Y967944D01*
X242372Y967969D01*
X242255Y967990D01*
X242138Y968007D01*
X242021Y968021D01*
X241903Y968030D01*
X241785Y968036D01*
X241667Y968038D01*
X236248Y968038D01*
X236248Y975263D01*
X245279Y975263D01*
D11*
X415800Y0D02*
X-152609Y9024D01*
X-139909Y809023D02*
X428500Y800000D01*
X-120422Y808064D02*
X-133101Y9364D01*
X-135891Y34761D01*
X-129507Y34660D01*
X-133101Y9364D01*
X-133999Y34731D01*
X-131399Y34690D02*
X-133101Y9364D01*
X-135299Y34752D01*
X-130099Y34669D02*
X-133101Y9364D01*
X-124016Y782768D02*
X-120422Y808064D01*
X-117632Y782667D02*
X-124016Y782768D01*
X-117632Y782667D02*
X-120422Y808064D01*
X-122124Y782738D01*
X-119525Y782697D02*
X-120422Y808064D01*
X-123424Y782759D01*
X-118225Y782676D02*
X-120422Y808064D01*
D12*
X-138135Y386774D02*
X-138268Y386775D01*
X-138400Y386771D01*
X-138533Y386763D01*
X-138665Y386752D01*
X-138796Y386736D01*
X-138928Y386717D01*
X-139058Y386694D01*
X-139188Y386667D01*
X-139317Y386636D01*
X-139445Y386602D01*
X-139572Y386564D01*
X-139698Y386522D01*
X-139822Y386476D01*
X-139945Y386427D01*
X-140067Y386374D01*
X-140187Y386317D01*
X-140305Y386258D01*
X-140422Y386194D01*
X-140536Y386127D01*
X-140649Y386057D01*
X-140759Y385984D01*
X-140867Y385907D01*
X-140973Y385828D01*
X-141077Y385745D01*
X-141178Y385659D01*
X-141277Y385570D01*
X-141372Y385479D01*
X-141466Y385385D01*
X-141556Y385288D01*
X-141643Y385188D01*
X-141728Y385086D01*
X-141809Y384981D01*
X-141888Y384874D01*
X-141963Y384765D01*
X-142035Y384654D01*
X-142104Y384540D01*
X-142169Y384425D01*
X-142231Y384307D01*
X-142289Y384188D01*
X-142344Y384068D01*
X-142395Y383945D01*
X-142443Y383822D01*
X-142487Y383697D01*
X-142527Y383570D01*
X-142564Y383443D01*
X-142597Y383315D01*
X-142626Y383185D01*
X-142651Y383055D01*
X-142673Y382924D01*
X-142690Y382793D01*
X-142704Y382661D01*
X-142714Y382529D01*
X-142720Y382396D01*
X-142722Y382264D01*
X-142720Y382131D01*
X-142714Y381999D01*
X-142705Y381866D01*
X-142691Y381734D01*
X-142674Y381603D01*
X-142653Y381472D01*
X-142628Y381342D01*
X-142599Y381213D01*
X-142566Y381084D01*
X-142530Y380956D01*
X-142490Y380830D01*
X-142446Y380705D01*
X-142399Y380581D01*
X-142348Y380459D01*
X-142293Y380338D01*
X-142235Y380219D01*
X-142173Y380101D01*
X-142108Y379986D01*
X-142040Y379872D01*
X-141968Y379761D01*
X-141893Y379651D01*
X-141815Y379544D01*
X-141734Y379440D01*
X-141649Y379337D01*
X-141562Y379237D01*
X-141472Y379140D01*
X-141379Y379046D01*
X-141283Y378954D01*
X-141185Y378865D01*
X-141084Y378779D01*
X-140981Y378696D01*
X-140875Y378616D01*
X-140767Y378539D01*
X-140657Y378466D01*
X-140544Y378395D01*
X-140430Y378328D01*
X-140313Y378265D01*
X-140195Y378205D01*
X-140075Y378148D01*
X-139954Y378095D01*
X-139831Y378045D01*
X-139706Y378000D01*
X-139581Y377957D01*
X-139454Y377919D01*
X-139326Y377884D01*
X-139197Y377853D01*
X-139067Y377826D01*
X-138937Y377803D01*
X-138806Y377783D01*
X-138674Y377767D01*
X-138542Y377756D01*
X-138409Y377748D01*
X-138277Y377744D01*
X-138144Y377743D01*
X-138012Y377747D01*
X-137879Y377755D01*
X-137747Y377766D01*
X-137616Y377782D01*
X-137484Y377801D01*
X-137354Y377824D01*
X-137224Y377851D01*
X-137095Y377882D01*
X-136967Y377916D01*
X-136840Y377954D01*
X-136714Y377996D01*
X-136590Y378042D01*
X-136467Y378091D01*
X-136345Y378144D01*
X-136225Y378201D01*
X-136107Y378260D01*
X-135990Y378324D01*
X-135876Y378391D01*
X-135763Y378461D01*
X-135653Y378534D01*
X-135545Y378611D01*
X-135439Y378690D01*
X-135335Y378773D01*
X-135234Y378859D01*
X-135135Y378948D01*
X-135040Y379039D01*
X-134946Y379133D01*
X-134856Y379230D01*
X-134769Y379330D01*
X-134684Y379432D01*
X-134603Y379537D01*
X-134524Y379644D01*
X-134449Y379753D01*
X-134377Y379864D01*
X-134308Y379978D01*
X-134243Y380093D01*
X-134181Y380211D01*
X-134123Y380330D01*
X-134068Y380450D01*
X-134017Y380573D01*
X-133969Y380696D01*
X-133925Y380821D01*
X-133885Y380948D01*
X-133848Y381075D01*
X-133815Y381203D01*
X-133786Y381333D01*
X-133761Y381463D01*
X-133739Y381594D01*
X-133722Y381725D01*
X-133708Y381857D01*
X-133698Y381989D01*
X-133692Y382122D01*
X-133690Y382254D01*
X-133692Y382387D01*
X-133698Y382519D01*
X-133707Y382652D01*
X-133721Y382784D01*
X-133738Y382915D01*
X-133759Y383046D01*
X-133784Y383176D01*
X-133813Y383305D01*
X-133846Y383434D01*
X-133882Y383562D01*
X-133922Y383688D01*
X-133966Y383813D01*
X-134013Y383937D01*
X-134064Y384059D01*
X-134119Y384180D01*
X-134177Y384299D01*
X-134239Y384417D01*
X-134304Y384532D01*
X-134372Y384646D01*
X-134444Y384757D01*
X-134519Y384867D01*
X-134597Y384974D01*
X-134678Y385078D01*
X-134763Y385181D01*
X-134850Y385281D01*
X-134940Y385378D01*
X-135033Y385472D01*
X-135129Y385564D01*
X-135227Y385653D01*
X-135328Y385739D01*
X-135431Y385822D01*
X-135537Y385902D01*
X-135645Y385979D01*
X-135755Y386052D01*
X-135868Y386123D01*
X-135982Y386190D01*
X-136099Y386253D01*
X-136217Y386313D01*
X-136337Y386370D01*
X-136458Y386423D01*
X-136581Y386473D01*
X-136706Y386518D01*
X-136831Y386561D01*
X-136958Y386599D01*
X-137086Y386634D01*
X-137215Y386665D01*
X-137345Y386692D01*
X-137475Y386715D01*
X-137606Y386735D01*
X-137738Y386751D01*
X-137870Y386762D01*
X-138003Y386770D01*
X-138135Y386774D01*
X-146276Y385999D02*
X-146396Y385998D01*
X-146515Y385994D01*
X-146634Y385986D01*
X-146753Y385974D01*
X-146871Y385959D01*
X-146989Y385939D01*
X-147106Y385915D01*
X-147223Y385888D01*
X-147338Y385856D01*
X-147452Y385821D01*
X-147565Y385782D01*
X-147677Y385740D01*
X-147787Y385694D01*
X-147895Y385644D01*
X-148002Y385590D01*
X-148107Y385533D01*
X-148210Y385473D01*
X-148311Y385409D01*
X-148410Y385342D01*
X-148506Y385272D01*
X-148601Y385198D01*
X-148692Y385122D01*
X-148782Y385042D01*
X-148868Y384960D01*
X-148952Y384875D01*
X-149032Y384787D01*
X-149110Y384696D01*
X-149185Y384603D01*
X-149257Y384508D01*
X-149325Y384410D01*
X-149391Y384310D01*
X-149453Y384208D01*
X-149511Y384104D01*
X-149566Y383997D01*
X-149618Y383890D01*
X-149665Y383780D01*
X-149710Y383669D01*
X-149750Y383557D01*
X-149787Y383443D01*
X-149820Y383329D01*
X-149849Y383213D01*
X-149875Y383096D01*
X-149896Y382979D01*
X-149914Y382860D01*
X-149928Y382742D01*
X-149937Y382623D01*
X-149943Y382503D01*
X-149945Y382384D01*
X-149943Y382265D01*
X-149937Y382145D01*
X-149927Y382026D01*
X-149913Y381908D01*
X-149895Y381790D01*
X-149874Y381672D01*
X-149848Y381555D01*
X-149819Y381440D01*
X-149785Y381325D01*
X-149748Y381211D01*
X-149708Y381099D01*
X-149663Y380988D01*
X-149615Y380879D01*
X-149563Y380771D01*
X-149508Y380665D01*
X-149450Y380561D01*
X-149388Y380459D01*
X-149322Y380359D01*
X-149253Y380262D01*
X-149182Y380166D01*
X-149107Y380073D01*
X-149029Y379983D01*
X-148948Y379895D01*
X-148864Y379810D01*
X-148777Y379728D01*
X-148688Y379648D01*
X-148596Y379572D01*
X-148502Y379499D01*
X-148405Y379428D01*
X-148306Y379362D01*
X-148205Y379298D01*
X-148102Y379238D01*
X-147997Y379181D01*
X-147890Y379128D01*
X-147781Y379078D01*
X-147671Y379032D01*
X-147559Y378990D01*
X-147446Y378951D01*
X-147332Y378916D01*
X-147217Y378885D01*
X-147101Y378857D01*
X-146983Y378834D01*
X-146866Y378814D01*
X-146747Y378799D01*
X-146628Y378787D01*
X-146509Y378779D01*
X-146390Y378775D01*
X-146270Y378776D01*
X-146151Y378780D01*
X-146032Y378788D01*
X-145913Y378800D01*
X-145795Y378815D01*
X-145677Y378835D01*
X-145560Y378859D01*
X-145443Y378886D01*
X-145328Y378918D01*
X-145214Y378953D01*
X-145101Y378992D01*
X-144989Y379034D01*
X-144879Y379080D01*
X-144771Y379130D01*
X-144664Y379184D01*
X-144559Y379241D01*
X-144456Y379301D01*
X-144355Y379365D01*
X-144256Y379432D01*
X-144160Y379502D01*
X-144065Y379576D01*
X-143974Y379652D01*
X-143884Y379732D01*
X-143798Y379814D01*
X-143714Y379899D01*
X-143634Y379987D01*
X-143556Y380078D01*
X-143481Y380171D01*
X-143409Y380266D01*
X-143341Y380364D01*
X-143275Y380464D01*
X-143213Y380566D01*
X-143155Y380670D01*
X-143100Y380777D01*
X-143048Y380884D01*
X-143001Y380994D01*
X-142956Y381105D01*
X-142916Y381217D01*
X-142879Y381331D01*
X-142846Y381445D01*
X-142817Y381561D01*
X-142791Y381678D01*
X-142770Y381795D01*
X-142752Y381914D01*
X-142738Y382032D01*
X-142729Y382151D01*
X-142723Y382271D01*
X-142721Y382390D01*
X-142723Y382509D01*
X-142729Y382629D01*
X-142739Y382748D01*
X-142753Y382866D01*
X-142771Y382984D01*
X-142792Y383102D01*
X-142818Y383219D01*
X-142847Y383334D01*
X-142881Y383449D01*
X-142918Y383563D01*
X-142958Y383675D01*
X-143003Y383786D01*
X-143051Y383895D01*
X-143103Y384003D01*
X-143158Y384109D01*
X-143216Y384213D01*
X-143278Y384315D01*
X-143344Y384415D01*
X-143413Y384512D01*
X-143484Y384608D01*
X-143559Y384701D01*
X-143637Y384791D01*
X-143718Y384879D01*
X-143802Y384964D01*
X-143889Y385046D01*
X-143978Y385126D01*
X-144070Y385202D01*
X-144164Y385275D01*
X-144261Y385346D01*
X-144360Y385412D01*
X-144461Y385476D01*
X-144564Y385536D01*
X-144669Y385593D01*
X-144776Y385646D01*
X-144885Y385696D01*
X-144995Y385742D01*
X-145107Y385784D01*
X-145220Y385823D01*
X-145334Y385858D01*
X-145449Y385889D01*
X-145565Y385917D01*
X-145683Y385940D01*
X-145800Y385960D01*
X-145919Y385975D01*
X-146038Y385987D01*
X-146157Y385995D01*
X-146276Y385999D01*
X-141643Y393431D02*
X-141963Y393439D01*
X-142282Y393456D01*
X-142601Y393480D01*
X-142920Y393512D01*
X-143237Y393551D01*
X-143553Y393598D01*
X-143868Y393652D01*
X-144182Y393714D01*
X-144494Y393783D01*
X-144805Y393860D01*
X-145113Y393944D01*
X-145420Y394036D01*
X-145724Y394135D01*
X-146026Y394241D01*
X-146325Y394354D01*
X-146621Y394474D01*
X-146914Y394602D01*
X-147205Y394736D01*
X-147491Y394877D01*
X-147492Y394877D02*
X-147600Y394918D01*
X-147706Y394962D01*
X-147810Y395011D01*
X-147913Y395062D01*
X-148014Y395118D01*
X-148113Y395177D01*
X-148210Y395239D01*
X-148305Y395304D01*
X-148397Y395373D01*
X-148487Y395444D01*
X-148575Y395519D01*
X-148659Y395597D01*
X-148742Y395678D01*
X-148821Y395761D01*
X-148897Y395847D01*
X-148971Y395936D01*
X-149041Y396027D01*
X-149108Y396121D01*
X-149172Y396217D01*
X-149232Y396315D01*
X-149289Y396415D01*
X-149343Y396517D01*
X-149393Y396620D01*
X-149439Y396726D01*
X-149482Y396833D01*
X-149521Y396941D01*
X-149556Y397050D01*
X-149588Y397161D01*
X-149615Y397273D01*
X-149639Y397386D01*
X-149659Y397499D01*
X-149675Y397613D01*
X-149687Y397727D01*
X-149695Y397842D01*
X-149699Y397957D01*
X-149700Y398072D01*
X-149701Y398073D02*
X-149697Y398188D01*
X-149689Y398302D01*
X-149677Y398417D01*
X-149662Y398531D01*
X-149642Y398645D01*
X-149619Y398757D01*
X-149591Y398869D01*
X-149560Y398980D01*
X-149525Y399090D01*
X-149486Y399198D01*
X-149444Y399305D01*
X-149398Y399411D01*
X-149348Y399515D01*
X-149295Y399617D01*
X-149238Y399717D01*
X-149178Y399815D01*
X-149114Y399911D01*
X-149048Y400005D01*
X-148978Y400096D01*
X-148905Y400185D01*
X-148828Y400272D01*
X-148749Y400356D01*
X-148668Y400437D01*
X-148583Y400515D01*
X-148496Y400590D01*
X-148406Y400662D01*
X-148314Y400731D01*
X-148219Y400797D01*
X-148122Y400859D01*
X-148023Y400918D01*
X-147923Y400974D01*
X-147820Y401026D01*
X-147716Y401074D01*
X-147610Y401119D01*
X-147502Y401160D01*
X-147393Y401198D01*
X-147392Y401197D02*
X-147101Y401329D01*
X-146807Y401454D01*
X-146510Y401572D01*
X-146210Y401683D01*
X-145907Y401787D01*
X-145602Y401884D01*
X-145295Y401973D01*
X-144986Y402055D01*
X-144675Y402129D01*
X-144362Y402196D01*
X-144048Y402256D01*
X-143732Y402308D01*
X-143416Y402352D01*
X-143098Y402389D01*
X-142780Y402418D01*
X-142461Y402440D01*
X-142141Y402454D01*
X-141821Y402461D01*
X-141502Y402459D01*
X-141643Y393430D02*
X-141324Y393428D01*
X-141004Y393435D01*
X-140684Y393449D01*
X-140365Y393471D01*
X-140047Y393500D01*
X-139729Y393537D01*
X-139413Y393581D01*
X-139097Y393633D01*
X-138783Y393693D01*
X-138470Y393760D01*
X-138159Y393834D01*
X-137850Y393916D01*
X-137543Y394005D01*
X-137238Y394102D01*
X-136935Y394206D01*
X-136635Y394317D01*
X-136338Y394435D01*
X-136044Y394560D01*
X-135753Y394692D01*
X-135644Y394730D01*
X-135536Y394771D01*
X-135430Y394816D01*
X-135326Y394864D01*
X-135223Y394916D01*
X-135123Y394972D01*
X-135024Y395031D01*
X-134927Y395093D01*
X-134832Y395159D01*
X-134740Y395228D01*
X-134650Y395300D01*
X-134563Y395375D01*
X-134478Y395453D01*
X-134397Y395534D01*
X-134318Y395618D01*
X-134241Y395705D01*
X-134168Y395794D01*
X-134098Y395885D01*
X-134032Y395979D01*
X-133968Y396075D01*
X-133908Y396173D01*
X-133851Y396273D01*
X-133798Y396375D01*
X-133748Y396479D01*
X-133702Y396585D01*
X-133660Y396692D01*
X-133621Y396800D01*
X-133586Y396910D01*
X-133555Y397021D01*
X-133527Y397133D01*
X-133504Y397245D01*
X-133484Y397359D01*
X-133469Y397473D01*
X-133457Y397588D01*
X-133449Y397702D01*
X-133445Y397817D01*
X-135653Y401014D02*
X-135940Y401155D01*
X-136230Y401289D01*
X-136524Y401417D01*
X-136820Y401537D01*
X-137119Y401650D01*
X-137421Y401756D01*
X-137725Y401855D01*
X-138031Y401946D01*
X-138340Y402031D01*
X-138650Y402107D01*
X-138963Y402177D01*
X-139276Y402239D01*
X-139592Y402293D01*
X-139908Y402340D01*
X-140225Y402379D01*
X-140544Y402411D01*
X-140862Y402435D01*
X-141182Y402452D01*
X-141502Y402460D01*
X-135654Y401014D02*
X-135546Y400973D01*
X-135440Y400928D01*
X-135335Y400880D01*
X-135232Y400828D01*
X-135131Y400773D01*
X-135032Y400714D01*
X-134935Y400652D01*
X-134841Y400587D01*
X-134748Y400518D01*
X-134658Y400446D01*
X-134571Y400371D01*
X-134486Y400294D01*
X-134404Y400213D01*
X-134324Y400129D01*
X-134248Y400043D01*
X-134175Y399954D01*
X-134104Y399863D01*
X-134037Y399770D01*
X-133974Y399674D01*
X-133913Y399576D01*
X-133856Y399476D01*
X-133802Y399374D01*
X-133752Y399270D01*
X-133706Y399165D01*
X-133663Y399058D01*
X-133624Y398949D01*
X-133589Y398840D01*
X-133557Y398729D01*
X-133530Y398617D01*
X-133506Y398505D01*
X-133486Y398391D01*
X-133470Y398277D01*
X-133458Y398163D01*
X-133450Y398048D01*
X-133446Y397933D01*
X-133445Y397817D01*
X-137115Y394262D02*
X-146031Y401628D01*
X-134184Y408320D02*
X-133281Y408306D01*
X-134184Y408320D02*
X-134170Y409223D01*
X-133267Y409209D01*
X-133281Y408306D01*
X-141300Y415312D02*
X-141620Y415320D01*
X-141939Y415337D01*
X-142258Y415361D01*
X-142577Y415393D01*
X-142894Y415432D01*
X-143210Y415479D01*
X-143525Y415533D01*
X-143839Y415595D01*
X-144151Y415664D01*
X-144462Y415741D01*
X-144770Y415825D01*
X-145077Y415917D01*
X-145381Y416016D01*
X-145683Y416122D01*
X-145982Y416235D01*
X-146278Y416355D01*
X-146571Y416483D01*
X-146862Y416617D01*
X-147148Y416758D01*
X-147256Y416799D01*
X-147362Y416843D01*
X-147466Y416892D01*
X-147569Y416943D01*
X-147670Y416999D01*
X-147769Y417058D01*
X-147866Y417120D01*
X-147961Y417185D01*
X-148053Y417254D01*
X-148143Y417325D01*
X-148231Y417400D01*
X-148315Y417478D01*
X-148398Y417559D01*
X-148477Y417642D01*
X-148553Y417728D01*
X-148627Y417817D01*
X-148697Y417908D01*
X-148764Y418002D01*
X-148828Y418098D01*
X-148888Y418196D01*
X-148945Y418296D01*
X-148999Y418398D01*
X-149049Y418501D01*
X-149095Y418607D01*
X-149138Y418714D01*
X-149177Y418822D01*
X-149212Y418931D01*
X-149244Y419042D01*
X-149271Y419154D01*
X-149295Y419267D01*
X-149315Y419380D01*
X-149331Y419494D01*
X-149343Y419608D01*
X-149351Y419723D01*
X-149355Y419838D01*
X-149356Y419953D01*
X-149357Y419954D02*
X-149353Y420069D01*
X-149345Y420183D01*
X-149333Y420298D01*
X-149318Y420412D01*
X-149298Y420526D01*
X-149275Y420638D01*
X-149247Y420750D01*
X-149216Y420861D01*
X-149181Y420971D01*
X-149142Y421079D01*
X-149100Y421186D01*
X-149054Y421292D01*
X-149004Y421396D01*
X-148951Y421498D01*
X-148894Y421598D01*
X-148834Y421696D01*
X-148770Y421792D01*
X-148704Y421886D01*
X-148634Y421977D01*
X-148561Y422066D01*
X-148484Y422153D01*
X-148405Y422237D01*
X-148324Y422318D01*
X-148239Y422396D01*
X-148152Y422471D01*
X-148062Y422543D01*
X-147970Y422612D01*
X-147875Y422678D01*
X-147778Y422740D01*
X-147679Y422799D01*
X-147579Y422855D01*
X-147476Y422907D01*
X-147372Y422955D01*
X-147266Y423000D01*
X-147158Y423041D01*
X-147049Y423079D01*
X-147049Y423078D02*
X-146758Y423210D01*
X-146464Y423335D01*
X-146167Y423453D01*
X-145867Y423564D01*
X-145564Y423668D01*
X-145259Y423765D01*
X-144952Y423854D01*
X-144643Y423936D01*
X-144332Y424010D01*
X-144019Y424077D01*
X-143705Y424137D01*
X-143389Y424189D01*
X-143073Y424233D01*
X-142755Y424270D01*
X-142437Y424299D01*
X-142118Y424321D01*
X-141798Y424335D01*
X-141478Y424342D01*
X-141159Y424340D01*
X-141300Y415311D02*
X-140981Y415309D01*
X-140661Y415316D01*
X-140341Y415330D01*
X-140022Y415352D01*
X-139704Y415381D01*
X-139386Y415418D01*
X-139070Y415462D01*
X-138754Y415514D01*
X-138440Y415574D01*
X-138127Y415641D01*
X-137816Y415715D01*
X-137507Y415797D01*
X-137200Y415886D01*
X-136895Y415983D01*
X-136592Y416087D01*
X-136292Y416198D01*
X-135995Y416316D01*
X-135701Y416441D01*
X-135410Y416573D01*
X-135409Y416573D02*
X-135300Y416611D01*
X-135192Y416652D01*
X-135086Y416697D01*
X-134982Y416745D01*
X-134879Y416797D01*
X-134779Y416853D01*
X-134680Y416912D01*
X-134583Y416974D01*
X-134488Y417040D01*
X-134396Y417109D01*
X-134306Y417181D01*
X-134219Y417256D01*
X-134134Y417334D01*
X-134053Y417415D01*
X-133974Y417499D01*
X-133897Y417586D01*
X-133824Y417675D01*
X-133754Y417766D01*
X-133688Y417860D01*
X-133624Y417956D01*
X-133564Y418054D01*
X-133507Y418154D01*
X-133454Y418256D01*
X-133404Y418360D01*
X-133358Y418466D01*
X-133316Y418573D01*
X-133277Y418681D01*
X-133242Y418791D01*
X-133211Y418902D01*
X-133183Y419014D01*
X-133160Y419126D01*
X-133140Y419240D01*
X-133125Y419354D01*
X-133113Y419469D01*
X-133105Y419583D01*
X-133101Y419698D01*
X-135310Y422895D02*
X-135597Y423036D01*
X-135887Y423170D01*
X-136181Y423298D01*
X-136477Y423418D01*
X-136776Y423531D01*
X-137078Y423637D01*
X-137382Y423736D01*
X-137688Y423827D01*
X-137997Y423912D01*
X-138307Y423988D01*
X-138620Y424058D01*
X-138933Y424120D01*
X-139249Y424174D01*
X-139565Y424221D01*
X-139882Y424260D01*
X-140201Y424292D01*
X-140519Y424316D01*
X-140839Y424333D01*
X-141159Y424341D01*
X-135310Y422895D02*
X-135202Y422854D01*
X-135096Y422809D01*
X-134991Y422761D01*
X-134888Y422709D01*
X-134787Y422654D01*
X-134688Y422595D01*
X-134591Y422533D01*
X-134497Y422468D01*
X-134404Y422399D01*
X-134314Y422327D01*
X-134227Y422252D01*
X-134142Y422175D01*
X-134060Y422094D01*
X-133980Y422010D01*
X-133904Y421924D01*
X-133831Y421835D01*
X-133760Y421744D01*
X-133693Y421651D01*
X-133630Y421555D01*
X-133569Y421457D01*
X-133512Y421357D01*
X-133458Y421255D01*
X-133408Y421151D01*
X-133362Y421046D01*
X-133319Y420939D01*
X-133280Y420830D01*
X-133245Y420721D01*
X-133213Y420610D01*
X-133186Y420498D01*
X-133162Y420386D01*
X-133142Y420272D01*
X-133126Y420158D01*
X-133114Y420044D01*
X-133106Y419929D01*
X-133102Y419814D01*
X-133101Y419698D01*
X-136771Y416143D02*
X-145687Y423509D01*
X-145569Y431011D02*
X-149110Y435583D01*
X-132856Y435327D01*
X-132927Y430812D02*
X-132786Y439842D01*
D13*
X50800Y711200D03*
X50800Y685800D03*
X50800Y660400D03*
X50800Y635000D03*
X50800Y609600D03*
X50800Y584200D03*
X50800Y558800D03*
X50800Y533400D03*
X50800Y508000D03*
X50800Y482600D03*
X50800Y457200D03*
X50800Y431800D03*
X50800Y406400D03*
X50800Y381000D03*
X50800Y355600D03*
X50800Y330200D03*
X254000Y330200D03*
X254000Y355600D03*
X254000Y381000D03*
X254000Y406400D03*
X254000Y431800D03*
X254000Y457200D03*
X254000Y482600D03*
X254000Y508000D03*
X254000Y533400D03*
X254000Y558800D03*
X254000Y584200D03*
X254000Y609600D03*
D14*
X215900Y38100D03*
X241300Y38100D03*
X266700Y38100D03*
X292100Y38100D03*
X317500Y38100D03*
X342900Y38100D03*
X190500Y38100D03*
X165100Y38100D03*
X139700Y38100D03*
X114300Y38100D03*
X88900Y38100D03*
X63500Y38100D03*
X215900Y215900D03*
X241300Y215900D03*
X190500Y215900D03*
X266700Y215900D03*
X165100Y215900D03*
X139700Y215900D03*
D15*
X295656Y762000D02*
X313944Y762000D01*
X313944Y736600D02*
X295656Y736600D01*
X295656Y711200D02*
X313944Y711200D01*
X313944Y685800D02*
X295656Y685800D01*
X295656Y660400D02*
X313944Y660400D01*
X313944Y635000D02*
X295656Y635000D01*
X295656Y609600D02*
X313944Y609600D01*
X313944Y584200D02*
X295656Y584200D01*
X295656Y558800D02*
X313944Y558800D01*
D10*
X73900Y139700D02*
X73905Y140068D01*
X73918Y140436D01*
X73941Y140803D01*
X73972Y141170D01*
X74013Y141536D01*
X74062Y141901D01*
X74121Y142264D01*
X74188Y142626D01*
X74264Y142987D01*
X74350Y143345D01*
X74443Y143701D01*
X74546Y144054D01*
X74657Y144405D01*
X74777Y144753D01*
X74905Y145098D01*
X75042Y145440D01*
X75187Y145779D01*
X75340Y146113D01*
X75502Y146444D01*
X75671Y146771D01*
X75849Y147093D01*
X76034Y147412D01*
X76227Y147725D01*
X76428Y148034D01*
X76636Y148337D01*
X76852Y148635D01*
X77075Y148928D01*
X77305Y149216D01*
X77542Y149498D01*
X77786Y149773D01*
X78036Y150043D01*
X78293Y150307D01*
X78557Y150564D01*
X78827Y150814D01*
X79102Y151058D01*
X79384Y151295D01*
X79672Y151525D01*
X79965Y151748D01*
X80263Y151964D01*
X80566Y152172D01*
X80875Y152373D01*
X81188Y152566D01*
X81507Y152751D01*
X81829Y152929D01*
X82156Y153098D01*
X82487Y153260D01*
X82821Y153413D01*
X83160Y153558D01*
X83502Y153695D01*
X83847Y153823D01*
X84195Y153943D01*
X84546Y154054D01*
X84899Y154157D01*
X85255Y154250D01*
X85613Y154336D01*
X85974Y154412D01*
X86336Y154479D01*
X86699Y154538D01*
X87064Y154587D01*
X87430Y154628D01*
X87797Y154659D01*
X88164Y154682D01*
X88532Y154695D01*
X88900Y154700D01*
X89268Y154695D01*
X89636Y154682D01*
X90003Y154659D01*
X90370Y154628D01*
X90736Y154587D01*
X91101Y154538D01*
X91464Y154479D01*
X91826Y154412D01*
X92187Y154336D01*
X92545Y154250D01*
X92901Y154157D01*
X93254Y154054D01*
X93605Y153943D01*
X93953Y153823D01*
X94298Y153695D01*
X94640Y153558D01*
X94979Y153413D01*
X95313Y153260D01*
X95644Y153098D01*
X95971Y152929D01*
X96293Y152751D01*
X96612Y152566D01*
X96925Y152373D01*
X97234Y152172D01*
X97537Y151964D01*
X97835Y151748D01*
X98128Y151525D01*
X98416Y151295D01*
X98698Y151058D01*
X98973Y150814D01*
X99243Y150564D01*
X99507Y150307D01*
X99764Y150043D01*
X100014Y149773D01*
X100258Y149498D01*
X100495Y149216D01*
X100725Y148928D01*
X100948Y148635D01*
X101164Y148337D01*
X101372Y148034D01*
X101573Y147725D01*
X101766Y147412D01*
X101951Y147093D01*
X102129Y146771D01*
X102298Y146444D01*
X102460Y146113D01*
X102613Y145779D01*
X102758Y145440D01*
X102895Y145098D01*
X103023Y144753D01*
X103143Y144405D01*
X103254Y144054D01*
X103357Y143701D01*
X103450Y143345D01*
X103536Y142987D01*
X103612Y142626D01*
X103679Y142264D01*
X103738Y141901D01*
X103787Y141536D01*
X103828Y141170D01*
X103859Y140803D01*
X103882Y140436D01*
X103895Y140068D01*
X103900Y139700D01*
X103895Y139332D01*
X103882Y138964D01*
X103859Y138597D01*
X103828Y138230D01*
X103787Y137864D01*
X103738Y137499D01*
X103679Y137136D01*
X103612Y136774D01*
X103536Y136413D01*
X103450Y136055D01*
X103357Y135699D01*
X103254Y135346D01*
X103143Y134995D01*
X103023Y134647D01*
X102895Y134302D01*
X102758Y133960D01*
X102613Y133621D01*
X102460Y133287D01*
X102298Y132956D01*
X102129Y132629D01*
X101951Y132307D01*
X101766Y131988D01*
X101573Y131675D01*
X101372Y131366D01*
X101164Y131063D01*
X100948Y130765D01*
X100725Y130472D01*
X100495Y130184D01*
X100258Y129902D01*
X100014Y129627D01*
X99764Y129357D01*
X99507Y129093D01*
X99243Y128836D01*
X98973Y128586D01*
X98698Y128342D01*
X98416Y128105D01*
X98128Y127875D01*
X97835Y127652D01*
X97537Y127436D01*
X97234Y127228D01*
X96925Y127027D01*
X96612Y126834D01*
X96293Y126649D01*
X95971Y126471D01*
X95644Y126302D01*
X95313Y126140D01*
X94979Y125987D01*
X94640Y125842D01*
X94298Y125705D01*
X93953Y125577D01*
X93605Y125457D01*
X93254Y125346D01*
X92901Y125243D01*
X92545Y125150D01*
X92187Y125064D01*
X91826Y124988D01*
X91464Y124921D01*
X91101Y124862D01*
X90736Y124813D01*
X90370Y124772D01*
X90003Y124741D01*
X89636Y124718D01*
X89268Y124705D01*
X88900Y124700D01*
X88532Y124705D01*
X88164Y124718D01*
X87797Y124741D01*
X87430Y124772D01*
X87064Y124813D01*
X86699Y124862D01*
X86336Y124921D01*
X85974Y124988D01*
X85613Y125064D01*
X85255Y125150D01*
X84899Y125243D01*
X84546Y125346D01*
X84195Y125457D01*
X83847Y125577D01*
X83502Y125705D01*
X83160Y125842D01*
X82821Y125987D01*
X82487Y126140D01*
X82156Y126302D01*
X81829Y126471D01*
X81507Y126649D01*
X81188Y126834D01*
X80875Y127027D01*
X80566Y127228D01*
X80263Y127436D01*
X79965Y127652D01*
X79672Y127875D01*
X79384Y128105D01*
X79102Y128342D01*
X78827Y128586D01*
X78557Y128836D01*
X78293Y129093D01*
X78036Y129357D01*
X77786Y129627D01*
X77542Y129902D01*
X77305Y130184D01*
X77075Y130472D01*
X76852Y130765D01*
X76636Y131063D01*
X76428Y131366D01*
X76227Y131675D01*
X76034Y131988D01*
X75849Y132307D01*
X75671Y132629D01*
X75502Y132956D01*
X75340Y133287D01*
X75187Y133621D01*
X75042Y133960D01*
X74905Y134302D01*
X74777Y134647D01*
X74657Y134995D01*
X74546Y135346D01*
X74443Y135699D01*
X74350Y136055D01*
X74264Y136413D01*
X74188Y136774D01*
X74121Y137136D01*
X74062Y137499D01*
X74013Y137864D01*
X73972Y138230D01*
X73941Y138597D01*
X73918Y138964D01*
X73905Y139332D01*
X73900Y139700D01*
X137400Y584200D02*
X137405Y584568D01*
X137418Y584936D01*
X137441Y585303D01*
X137472Y585670D01*
X137513Y586036D01*
X137562Y586401D01*
X137621Y586764D01*
X137688Y587126D01*
X137764Y587487D01*
X137850Y587845D01*
X137943Y588201D01*
X138046Y588554D01*
X138157Y588905D01*
X138277Y589253D01*
X138405Y589598D01*
X138542Y589940D01*
X138687Y590279D01*
X138840Y590613D01*
X139002Y590944D01*
X139171Y591271D01*
X139349Y591593D01*
X139534Y591912D01*
X139727Y592225D01*
X139928Y592534D01*
X140136Y592837D01*
X140352Y593135D01*
X140575Y593428D01*
X140805Y593716D01*
X141042Y593998D01*
X141286Y594273D01*
X141536Y594543D01*
X141793Y594807D01*
X142057Y595064D01*
X142327Y595314D01*
X142602Y595558D01*
X142884Y595795D01*
X143172Y596025D01*
X143465Y596248D01*
X143763Y596464D01*
X144066Y596672D01*
X144375Y596873D01*
X144688Y597066D01*
X145007Y597251D01*
X145329Y597429D01*
X145656Y597598D01*
X145987Y597760D01*
X146321Y597913D01*
X146660Y598058D01*
X147002Y598195D01*
X147347Y598323D01*
X147695Y598443D01*
X148046Y598554D01*
X148399Y598657D01*
X148755Y598750D01*
X149113Y598836D01*
X149474Y598912D01*
X149836Y598979D01*
X150199Y599038D01*
X150564Y599087D01*
X150930Y599128D01*
X151297Y599159D01*
X151664Y599182D01*
X152032Y599195D01*
X152400Y599200D01*
X152768Y599195D01*
X153136Y599182D01*
X153503Y599159D01*
X153870Y599128D01*
X154236Y599087D01*
X154601Y599038D01*
X154964Y598979D01*
X155326Y598912D01*
X155687Y598836D01*
X156045Y598750D01*
X156401Y598657D01*
X156754Y598554D01*
X157105Y598443D01*
X157453Y598323D01*
X157798Y598195D01*
X158140Y598058D01*
X158479Y597913D01*
X158813Y597760D01*
X159144Y597598D01*
X159471Y597429D01*
X159793Y597251D01*
X160112Y597066D01*
X160425Y596873D01*
X160734Y596672D01*
X161037Y596464D01*
X161335Y596248D01*
X161628Y596025D01*
X161916Y595795D01*
X162198Y595558D01*
X162473Y595314D01*
X162743Y595064D01*
X163007Y594807D01*
X163264Y594543D01*
X163514Y594273D01*
X163758Y593998D01*
X163995Y593716D01*
X164225Y593428D01*
X164448Y593135D01*
X164664Y592837D01*
X164872Y592534D01*
X165073Y592225D01*
X165266Y591912D01*
X165451Y591593D01*
X165629Y591271D01*
X165798Y590944D01*
X165960Y590613D01*
X166113Y590279D01*
X166258Y589940D01*
X166395Y589598D01*
X166523Y589253D01*
X166643Y588905D01*
X166754Y588554D01*
X166857Y588201D01*
X166950Y587845D01*
X167036Y587487D01*
X167112Y587126D01*
X167179Y586764D01*
X167238Y586401D01*
X167287Y586036D01*
X167328Y585670D01*
X167359Y585303D01*
X167382Y584936D01*
X167395Y584568D01*
X167400Y584200D01*
X167395Y583832D01*
X167382Y583464D01*
X167359Y583097D01*
X167328Y582730D01*
X167287Y582364D01*
X167238Y581999D01*
X167179Y581636D01*
X167112Y581274D01*
X167036Y580913D01*
X166950Y580555D01*
X166857Y580199D01*
X166754Y579846D01*
X166643Y579495D01*
X166523Y579147D01*
X166395Y578802D01*
X166258Y578460D01*
X166113Y578121D01*
X165960Y577787D01*
X165798Y577456D01*
X165629Y577129D01*
X165451Y576807D01*
X165266Y576488D01*
X165073Y576175D01*
X164872Y575866D01*
X164664Y575563D01*
X164448Y575265D01*
X164225Y574972D01*
X163995Y574684D01*
X163758Y574402D01*
X163514Y574127D01*
X163264Y573857D01*
X163007Y573593D01*
X162743Y573336D01*
X162473Y573086D01*
X162198Y572842D01*
X161916Y572605D01*
X161628Y572375D01*
X161335Y572152D01*
X161037Y571936D01*
X160734Y571728D01*
X160425Y571527D01*
X160112Y571334D01*
X159793Y571149D01*
X159471Y570971D01*
X159144Y570802D01*
X158813Y570640D01*
X158479Y570487D01*
X158140Y570342D01*
X157798Y570205D01*
X157453Y570077D01*
X157105Y569957D01*
X156754Y569846D01*
X156401Y569743D01*
X156045Y569650D01*
X155687Y569564D01*
X155326Y569488D01*
X154964Y569421D01*
X154601Y569362D01*
X154236Y569313D01*
X153870Y569272D01*
X153503Y569241D01*
X153136Y569218D01*
X152768Y569205D01*
X152400Y569200D01*
X152032Y569205D01*
X151664Y569218D01*
X151297Y569241D01*
X150930Y569272D01*
X150564Y569313D01*
X150199Y569362D01*
X149836Y569421D01*
X149474Y569488D01*
X149113Y569564D01*
X148755Y569650D01*
X148399Y569743D01*
X148046Y569846D01*
X147695Y569957D01*
X147347Y570077D01*
X147002Y570205D01*
X146660Y570342D01*
X146321Y570487D01*
X145987Y570640D01*
X145656Y570802D01*
X145329Y570971D01*
X145007Y571149D01*
X144688Y571334D01*
X144375Y571527D01*
X144066Y571728D01*
X143763Y571936D01*
X143465Y572152D01*
X143172Y572375D01*
X142884Y572605D01*
X142602Y572842D01*
X142327Y573086D01*
X142057Y573336D01*
X141793Y573593D01*
X141536Y573857D01*
X141286Y574127D01*
X141042Y574402D01*
X140805Y574684D01*
X140575Y574972D01*
X140352Y575265D01*
X140136Y575563D01*
X139928Y575866D01*
X139727Y576175D01*
X139534Y576488D01*
X139349Y576807D01*
X139171Y577129D01*
X139002Y577456D01*
X138840Y577787D01*
X138687Y578121D01*
X138542Y578460D01*
X138405Y578802D01*
X138277Y579147D01*
X138157Y579495D01*
X138046Y579846D01*
X137943Y580199D01*
X137850Y580555D01*
X137764Y580913D01*
X137688Y581274D01*
X137621Y581636D01*
X137562Y581999D01*
X137513Y582364D01*
X137472Y582730D01*
X137441Y583097D01*
X137418Y583464D01*
X137405Y583832D01*
X137400Y584200D01*
M02*
