G04 EAGLE Gerber RS-274X export*
G75*
%MOMM*%
%FSLAX34Y34*%
%LPD*%
%INBottomLayer*%
%IPPOS*%
%AMOC8*
5,1,8,0,0,1.08239X$1,22.5*%
G01*
%ADD10C,1.812800*%
%ADD11C,1.778000*%
%ADD12C,1.828800*%
%ADD13C,0.406400*%

G36*
X423946Y2543D02*
X423946Y2543D01*
X423964Y2541D01*
X424146Y2562D01*
X424329Y2581D01*
X424346Y2586D01*
X424363Y2588D01*
X424538Y2645D01*
X424714Y2699D01*
X424729Y2707D01*
X424746Y2713D01*
X424906Y2803D01*
X425068Y2891D01*
X425081Y2902D01*
X425097Y2911D01*
X425236Y3031D01*
X425377Y3148D01*
X425388Y3162D01*
X425402Y3174D01*
X425514Y3319D01*
X425629Y3462D01*
X425637Y3478D01*
X425648Y3492D01*
X425730Y3657D01*
X425815Y3819D01*
X425820Y3836D01*
X425828Y3852D01*
X425875Y4031D01*
X425926Y4206D01*
X425928Y4224D01*
X425932Y4241D01*
X425959Y4572D01*
X425959Y795428D01*
X425957Y795446D01*
X425959Y795464D01*
X425938Y795646D01*
X425919Y795829D01*
X425914Y795846D01*
X425912Y795863D01*
X425855Y796038D01*
X425801Y796214D01*
X425793Y796229D01*
X425787Y796246D01*
X425697Y796406D01*
X425609Y796568D01*
X425598Y796581D01*
X425589Y796597D01*
X425469Y796736D01*
X425352Y796877D01*
X425338Y796888D01*
X425326Y796902D01*
X425181Y797014D01*
X425038Y797129D01*
X425022Y797137D01*
X425008Y797148D01*
X424843Y797230D01*
X424681Y797315D01*
X424664Y797320D01*
X424648Y797328D01*
X424469Y797375D01*
X424294Y797426D01*
X424276Y797428D01*
X424259Y797432D01*
X423928Y797459D01*
X281327Y797459D01*
X281322Y797459D01*
X281318Y797459D01*
X281124Y797439D01*
X280926Y797419D01*
X280922Y797418D01*
X280917Y797418D01*
X280732Y797360D01*
X280541Y797301D01*
X280537Y797299D01*
X280533Y797298D01*
X280361Y797204D01*
X280187Y797109D01*
X280184Y797107D01*
X280180Y797104D01*
X280028Y796977D01*
X279878Y796852D01*
X279875Y796848D01*
X279872Y796845D01*
X279749Y796691D01*
X279626Y796538D01*
X279623Y796534D01*
X279621Y796531D01*
X279531Y796356D01*
X279440Y796181D01*
X279439Y796176D01*
X279437Y796172D01*
X279384Y795985D01*
X279329Y795794D01*
X279328Y795789D01*
X279327Y795785D01*
X279312Y795592D01*
X279296Y795392D01*
X279296Y795388D01*
X279296Y795384D01*
X279319Y795191D01*
X279343Y794993D01*
X279344Y794988D01*
X279345Y794984D01*
X279405Y794801D01*
X279468Y794610D01*
X279470Y794606D01*
X279471Y794602D01*
X279567Y794433D01*
X279665Y794259D01*
X279668Y794256D01*
X279671Y794252D01*
X279800Y794103D01*
X279929Y793955D01*
X279932Y793952D01*
X279935Y793948D01*
X280092Y793828D01*
X280247Y793708D01*
X280251Y793706D01*
X280254Y793703D01*
X280549Y793551D01*
X281990Y792955D01*
X283277Y791668D01*
X283973Y789988D01*
X283973Y771745D01*
X283974Y771736D01*
X283973Y771728D01*
X283994Y771536D01*
X284013Y771345D01*
X284015Y771336D01*
X284016Y771327D01*
X284074Y771145D01*
X284131Y770960D01*
X284135Y770952D01*
X284138Y770943D01*
X284231Y770775D01*
X284323Y770606D01*
X284328Y770599D01*
X284333Y770591D01*
X284458Y770443D01*
X284580Y770296D01*
X284587Y770291D01*
X284593Y770284D01*
X284745Y770164D01*
X284894Y770044D01*
X284902Y770040D01*
X284909Y770034D01*
X285081Y769947D01*
X285251Y769859D01*
X285260Y769856D01*
X285268Y769852D01*
X285454Y769800D01*
X285638Y769747D01*
X285647Y769747D01*
X285656Y769744D01*
X285848Y769730D01*
X286040Y769714D01*
X286048Y769715D01*
X286057Y769715D01*
X286250Y769739D01*
X286439Y769761D01*
X286448Y769764D01*
X286457Y769765D01*
X286640Y769827D01*
X286822Y769886D01*
X286830Y769891D01*
X286838Y769893D01*
X287004Y769989D01*
X287173Y770084D01*
X287180Y770090D01*
X287187Y770094D01*
X287440Y770309D01*
X289037Y771906D01*
X290574Y772542D01*
X290574Y772543D01*
X293332Y773685D01*
X316268Y773685D01*
X320563Y771906D01*
X323850Y768619D01*
X324178Y767827D01*
X324188Y767807D01*
X324195Y767786D01*
X324284Y767630D01*
X324368Y767472D01*
X324382Y767455D01*
X324393Y767435D01*
X324510Y767300D01*
X324625Y767161D01*
X324642Y767147D01*
X324656Y767130D01*
X324798Y767021D01*
X324937Y766908D01*
X324957Y766897D01*
X324975Y766884D01*
X325135Y766804D01*
X325294Y766721D01*
X325315Y766714D01*
X325335Y766704D01*
X325508Y766658D01*
X325680Y766608D01*
X325702Y766606D01*
X325724Y766600D01*
X326055Y766573D01*
X407310Y766573D01*
X408990Y765877D01*
X410277Y764590D01*
X410973Y762910D01*
X410973Y37190D01*
X410277Y35510D01*
X408990Y34223D01*
X407310Y33527D01*
X354736Y33527D01*
X354713Y33525D01*
X354691Y33527D01*
X354514Y33505D01*
X354335Y33487D01*
X354314Y33481D01*
X354292Y33478D01*
X354122Y33422D01*
X353950Y33369D01*
X353930Y33359D01*
X353909Y33352D01*
X353754Y33263D01*
X353596Y33177D01*
X353579Y33163D01*
X353560Y33152D01*
X353425Y33035D01*
X353287Y32920D01*
X353273Y32902D01*
X353256Y32888D01*
X353147Y32746D01*
X353035Y32606D01*
X353024Y32586D01*
X353011Y32568D01*
X352859Y32273D01*
X352591Y31625D01*
X349375Y28409D01*
X345387Y26758D01*
X345174Y26669D01*
X340626Y26669D01*
X336425Y28409D01*
X333209Y31625D01*
X332077Y34360D01*
X332072Y34368D01*
X332070Y34376D01*
X331976Y34547D01*
X331886Y34715D01*
X331881Y34722D01*
X331876Y34730D01*
X331752Y34878D01*
X331630Y35025D01*
X331623Y35031D01*
X331617Y35038D01*
X331467Y35158D01*
X331317Y35279D01*
X331309Y35283D01*
X331302Y35289D01*
X331130Y35377D01*
X330961Y35466D01*
X330952Y35469D01*
X330944Y35473D01*
X330758Y35525D01*
X330574Y35579D01*
X330565Y35580D01*
X330557Y35582D01*
X330366Y35597D01*
X330173Y35614D01*
X330164Y35613D01*
X330156Y35613D01*
X329964Y35590D01*
X329773Y35569D01*
X329765Y35566D01*
X329756Y35565D01*
X329573Y35504D01*
X329390Y35445D01*
X329382Y35441D01*
X329374Y35438D01*
X329207Y35343D01*
X329038Y35249D01*
X329032Y35243D01*
X329024Y35239D01*
X328879Y35112D01*
X328733Y34987D01*
X328727Y34980D01*
X328720Y34974D01*
X328603Y34821D01*
X328484Y34670D01*
X328480Y34662D01*
X328475Y34655D01*
X328323Y34360D01*
X327191Y31625D01*
X323975Y28409D01*
X319987Y26758D01*
X319774Y26669D01*
X315226Y26669D01*
X311025Y28409D01*
X307809Y31625D01*
X306677Y34360D01*
X306672Y34368D01*
X306670Y34376D01*
X306576Y34547D01*
X306486Y34715D01*
X306481Y34722D01*
X306476Y34730D01*
X306352Y34878D01*
X306230Y35025D01*
X306223Y35031D01*
X306217Y35038D01*
X306067Y35158D01*
X305917Y35279D01*
X305909Y35283D01*
X305902Y35289D01*
X305730Y35377D01*
X305561Y35466D01*
X305552Y35469D01*
X305544Y35473D01*
X305358Y35525D01*
X305174Y35579D01*
X305165Y35580D01*
X305157Y35582D01*
X304966Y35597D01*
X304773Y35614D01*
X304764Y35613D01*
X304756Y35613D01*
X304564Y35590D01*
X304373Y35569D01*
X304365Y35566D01*
X304356Y35565D01*
X304173Y35504D01*
X303990Y35445D01*
X303982Y35441D01*
X303974Y35438D01*
X303807Y35343D01*
X303638Y35249D01*
X303632Y35243D01*
X303624Y35239D01*
X303479Y35112D01*
X303333Y34987D01*
X303327Y34980D01*
X303320Y34974D01*
X303203Y34821D01*
X303084Y34670D01*
X303080Y34662D01*
X303075Y34655D01*
X302923Y34360D01*
X301791Y31625D01*
X298575Y28409D01*
X294587Y26758D01*
X294374Y26669D01*
X289826Y26669D01*
X285625Y28409D01*
X282409Y31625D01*
X281277Y34360D01*
X281272Y34368D01*
X281270Y34376D01*
X281176Y34547D01*
X281086Y34715D01*
X281081Y34722D01*
X281076Y34730D01*
X280952Y34878D01*
X280830Y35025D01*
X280823Y35031D01*
X280817Y35038D01*
X280667Y35158D01*
X280517Y35279D01*
X280509Y35283D01*
X280502Y35289D01*
X280330Y35377D01*
X280161Y35466D01*
X280152Y35469D01*
X280144Y35473D01*
X279958Y35525D01*
X279774Y35579D01*
X279765Y35580D01*
X279757Y35582D01*
X279566Y35597D01*
X279373Y35614D01*
X279364Y35613D01*
X279356Y35613D01*
X279164Y35590D01*
X278973Y35569D01*
X278965Y35566D01*
X278956Y35565D01*
X278773Y35504D01*
X278590Y35445D01*
X278582Y35441D01*
X278574Y35438D01*
X278407Y35343D01*
X278238Y35249D01*
X278232Y35243D01*
X278224Y35239D01*
X278079Y35112D01*
X277933Y34987D01*
X277927Y34980D01*
X277920Y34974D01*
X277803Y34821D01*
X277684Y34670D01*
X277680Y34662D01*
X277675Y34655D01*
X277523Y34360D01*
X276391Y31625D01*
X273175Y28409D01*
X269187Y26758D01*
X268974Y26669D01*
X264426Y26669D01*
X260225Y28409D01*
X257009Y31625D01*
X255877Y34360D01*
X255872Y34368D01*
X255870Y34376D01*
X255776Y34547D01*
X255686Y34715D01*
X255681Y34722D01*
X255676Y34730D01*
X255552Y34878D01*
X255430Y35025D01*
X255423Y35031D01*
X255417Y35038D01*
X255267Y35158D01*
X255117Y35279D01*
X255109Y35283D01*
X255102Y35289D01*
X254930Y35377D01*
X254761Y35466D01*
X254752Y35469D01*
X254744Y35473D01*
X254558Y35525D01*
X254374Y35579D01*
X254365Y35580D01*
X254357Y35582D01*
X254166Y35597D01*
X253973Y35614D01*
X253964Y35613D01*
X253956Y35613D01*
X253764Y35590D01*
X253573Y35569D01*
X253565Y35566D01*
X253556Y35565D01*
X253373Y35504D01*
X253190Y35445D01*
X253182Y35441D01*
X253174Y35438D01*
X253007Y35343D01*
X252838Y35249D01*
X252832Y35243D01*
X252824Y35239D01*
X252679Y35112D01*
X252533Y34987D01*
X252527Y34980D01*
X252520Y34974D01*
X252403Y34821D01*
X252284Y34670D01*
X252280Y34662D01*
X252275Y34655D01*
X252123Y34360D01*
X250991Y31625D01*
X247775Y28409D01*
X243787Y26758D01*
X243574Y26669D01*
X239026Y26669D01*
X234825Y28409D01*
X231609Y31625D01*
X230477Y34360D01*
X230472Y34368D01*
X230470Y34376D01*
X230378Y34544D01*
X230286Y34715D01*
X230281Y34722D01*
X230276Y34730D01*
X230153Y34876D01*
X230030Y35025D01*
X230023Y35031D01*
X230017Y35038D01*
X229867Y35157D01*
X229717Y35279D01*
X229709Y35283D01*
X229703Y35289D01*
X229531Y35377D01*
X229361Y35466D01*
X229352Y35469D01*
X229344Y35473D01*
X229159Y35525D01*
X228974Y35579D01*
X228966Y35580D01*
X228957Y35582D01*
X228766Y35597D01*
X228573Y35614D01*
X228564Y35613D01*
X228556Y35613D01*
X228363Y35590D01*
X228173Y35569D01*
X228165Y35566D01*
X228156Y35565D01*
X227971Y35504D01*
X227790Y35445D01*
X227782Y35441D01*
X227774Y35438D01*
X227606Y35343D01*
X227438Y35249D01*
X227432Y35243D01*
X227424Y35239D01*
X227279Y35112D01*
X227133Y34987D01*
X227127Y34980D01*
X227120Y34974D01*
X227003Y34822D01*
X226884Y34670D01*
X226880Y34662D01*
X226875Y34655D01*
X226723Y34360D01*
X225591Y31625D01*
X222375Y28409D01*
X218387Y26758D01*
X218174Y26669D01*
X213626Y26669D01*
X209425Y28409D01*
X206209Y31625D01*
X205077Y34360D01*
X205072Y34368D01*
X205070Y34376D01*
X204977Y34545D01*
X204886Y34715D01*
X204881Y34722D01*
X204876Y34730D01*
X204752Y34877D01*
X204630Y35025D01*
X204623Y35031D01*
X204617Y35038D01*
X204466Y35158D01*
X204317Y35279D01*
X204310Y35283D01*
X204302Y35289D01*
X204132Y35376D01*
X203961Y35466D01*
X203952Y35469D01*
X203944Y35473D01*
X203762Y35524D01*
X203574Y35579D01*
X203565Y35580D01*
X203557Y35582D01*
X203366Y35597D01*
X203173Y35614D01*
X203164Y35613D01*
X203156Y35613D01*
X202965Y35590D01*
X202773Y35569D01*
X202765Y35566D01*
X202756Y35565D01*
X202575Y35505D01*
X202390Y35445D01*
X202382Y35441D01*
X202374Y35438D01*
X202207Y35343D01*
X202038Y35249D01*
X202032Y35243D01*
X202024Y35239D01*
X201877Y35111D01*
X201733Y34987D01*
X201727Y34980D01*
X201720Y34974D01*
X201603Y34821D01*
X201484Y34670D01*
X201480Y34662D01*
X201475Y34655D01*
X201323Y34360D01*
X200191Y31625D01*
X196975Y28409D01*
X192987Y26758D01*
X192774Y26669D01*
X188226Y26669D01*
X184025Y28409D01*
X180809Y31625D01*
X179677Y34360D01*
X179672Y34368D01*
X179670Y34376D01*
X179578Y34544D01*
X179486Y34715D01*
X179481Y34722D01*
X179476Y34730D01*
X179353Y34876D01*
X179230Y35025D01*
X179223Y35031D01*
X179217Y35038D01*
X179067Y35158D01*
X178917Y35279D01*
X178909Y35283D01*
X178903Y35289D01*
X178732Y35376D01*
X178561Y35466D01*
X178552Y35469D01*
X178544Y35473D01*
X178360Y35525D01*
X178174Y35579D01*
X178166Y35580D01*
X178157Y35582D01*
X177966Y35597D01*
X177773Y35614D01*
X177764Y35613D01*
X177756Y35613D01*
X177566Y35590D01*
X177373Y35569D01*
X177365Y35566D01*
X177356Y35565D01*
X177174Y35505D01*
X176990Y35445D01*
X176982Y35441D01*
X176974Y35438D01*
X176806Y35343D01*
X176638Y35249D01*
X176632Y35243D01*
X176624Y35239D01*
X176479Y35112D01*
X176333Y34987D01*
X176327Y34980D01*
X176320Y34974D01*
X176203Y34822D01*
X176084Y34670D01*
X176080Y34662D01*
X176075Y34655D01*
X175923Y34360D01*
X174791Y31625D01*
X171575Y28409D01*
X167587Y26758D01*
X167374Y26669D01*
X162826Y26669D01*
X158625Y28409D01*
X155409Y31625D01*
X154277Y34360D01*
X154272Y34368D01*
X154270Y34376D01*
X154178Y34544D01*
X154086Y34715D01*
X154081Y34722D01*
X154076Y34730D01*
X153953Y34876D01*
X153830Y35025D01*
X153823Y35031D01*
X153817Y35038D01*
X153667Y35158D01*
X153517Y35279D01*
X153509Y35283D01*
X153503Y35289D01*
X153332Y35376D01*
X153161Y35466D01*
X153152Y35469D01*
X153144Y35473D01*
X152960Y35525D01*
X152774Y35579D01*
X152766Y35580D01*
X152757Y35582D01*
X152566Y35597D01*
X152373Y35614D01*
X152364Y35613D01*
X152356Y35613D01*
X152166Y35590D01*
X151973Y35569D01*
X151965Y35566D01*
X151956Y35565D01*
X151774Y35505D01*
X151590Y35445D01*
X151582Y35441D01*
X151574Y35438D01*
X151406Y35343D01*
X151238Y35249D01*
X151232Y35243D01*
X151224Y35239D01*
X151079Y35112D01*
X150933Y34987D01*
X150927Y34980D01*
X150920Y34974D01*
X150803Y34822D01*
X150684Y34670D01*
X150680Y34662D01*
X150675Y34655D01*
X150523Y34360D01*
X149391Y31625D01*
X146175Y28409D01*
X142187Y26758D01*
X141974Y26669D01*
X137426Y26669D01*
X133225Y28409D01*
X130009Y31625D01*
X128877Y34360D01*
X128872Y34368D01*
X128870Y34376D01*
X128778Y34544D01*
X128686Y34715D01*
X128681Y34722D01*
X128676Y34730D01*
X128553Y34876D01*
X128430Y35025D01*
X128423Y35031D01*
X128417Y35038D01*
X128267Y35158D01*
X128117Y35279D01*
X128109Y35283D01*
X128103Y35289D01*
X127932Y35376D01*
X127761Y35466D01*
X127752Y35469D01*
X127744Y35473D01*
X127560Y35525D01*
X127374Y35579D01*
X127366Y35580D01*
X127357Y35582D01*
X127166Y35597D01*
X126973Y35614D01*
X126964Y35613D01*
X126956Y35613D01*
X126766Y35590D01*
X126573Y35569D01*
X126565Y35566D01*
X126556Y35565D01*
X126374Y35505D01*
X126190Y35445D01*
X126182Y35441D01*
X126174Y35438D01*
X126006Y35343D01*
X125838Y35249D01*
X125832Y35243D01*
X125824Y35239D01*
X125679Y35112D01*
X125533Y34987D01*
X125527Y34980D01*
X125520Y34974D01*
X125403Y34822D01*
X125284Y34670D01*
X125280Y34662D01*
X125275Y34655D01*
X125123Y34360D01*
X123991Y31625D01*
X120775Y28409D01*
X116787Y26758D01*
X116574Y26669D01*
X112026Y26669D01*
X107825Y28409D01*
X104609Y31625D01*
X103477Y34360D01*
X103472Y34368D01*
X103470Y34376D01*
X103378Y34544D01*
X103286Y34715D01*
X103281Y34722D01*
X103276Y34730D01*
X103153Y34876D01*
X103030Y35025D01*
X103023Y35031D01*
X103017Y35038D01*
X102867Y35158D01*
X102717Y35279D01*
X102709Y35283D01*
X102703Y35289D01*
X102532Y35376D01*
X102361Y35466D01*
X102352Y35469D01*
X102344Y35473D01*
X102160Y35525D01*
X101974Y35579D01*
X101966Y35580D01*
X101957Y35582D01*
X101766Y35597D01*
X101573Y35614D01*
X101564Y35613D01*
X101556Y35613D01*
X101366Y35590D01*
X101173Y35569D01*
X101165Y35566D01*
X101156Y35565D01*
X100974Y35505D01*
X100790Y35445D01*
X100782Y35441D01*
X100774Y35438D01*
X100606Y35343D01*
X100438Y35249D01*
X100432Y35243D01*
X100424Y35239D01*
X100279Y35112D01*
X100133Y34987D01*
X100127Y34980D01*
X100120Y34974D01*
X100003Y34822D01*
X99884Y34670D01*
X99880Y34662D01*
X99875Y34655D01*
X99723Y34360D01*
X98591Y31625D01*
X95375Y28409D01*
X91387Y26758D01*
X91174Y26669D01*
X86626Y26669D01*
X82425Y28409D01*
X79209Y31625D01*
X78077Y34360D01*
X78072Y34368D01*
X78070Y34376D01*
X77978Y34544D01*
X77886Y34715D01*
X77881Y34722D01*
X77876Y34730D01*
X77753Y34876D01*
X77630Y35025D01*
X77623Y35031D01*
X77617Y35038D01*
X77467Y35158D01*
X77317Y35279D01*
X77309Y35283D01*
X77303Y35289D01*
X77132Y35376D01*
X76961Y35466D01*
X76952Y35469D01*
X76944Y35473D01*
X76760Y35525D01*
X76574Y35579D01*
X76566Y35580D01*
X76557Y35582D01*
X76366Y35597D01*
X76173Y35614D01*
X76164Y35613D01*
X76156Y35613D01*
X75966Y35590D01*
X75773Y35569D01*
X75765Y35566D01*
X75756Y35565D01*
X75574Y35505D01*
X75390Y35445D01*
X75382Y35441D01*
X75374Y35438D01*
X75206Y35343D01*
X75038Y35249D01*
X75032Y35243D01*
X75024Y35239D01*
X74879Y35112D01*
X74733Y34987D01*
X74727Y34980D01*
X74720Y34974D01*
X74603Y34822D01*
X74484Y34670D01*
X74480Y34662D01*
X74475Y34655D01*
X74323Y34360D01*
X73191Y31625D01*
X69975Y28409D01*
X65987Y26758D01*
X65774Y26669D01*
X61226Y26669D01*
X57025Y28409D01*
X53809Y31625D01*
X52069Y35826D01*
X52069Y40374D01*
X53809Y44575D01*
X57025Y47791D01*
X61226Y49531D01*
X65774Y49531D01*
X69975Y47791D01*
X73191Y44575D01*
X74323Y41840D01*
X74328Y41832D01*
X74330Y41824D01*
X74424Y41653D01*
X74514Y41485D01*
X74519Y41478D01*
X74524Y41470D01*
X74648Y41322D01*
X74770Y41175D01*
X74777Y41169D01*
X74783Y41162D01*
X74933Y41042D01*
X75083Y40921D01*
X75091Y40917D01*
X75098Y40911D01*
X75270Y40823D01*
X75439Y40734D01*
X75448Y40731D01*
X75456Y40727D01*
X75642Y40675D01*
X75826Y40621D01*
X75835Y40620D01*
X75843Y40618D01*
X76034Y40603D01*
X76227Y40586D01*
X76236Y40587D01*
X76244Y40587D01*
X76436Y40610D01*
X76627Y40631D01*
X76635Y40634D01*
X76644Y40635D01*
X76827Y40696D01*
X77010Y40755D01*
X77018Y40759D01*
X77026Y40762D01*
X77193Y40857D01*
X77362Y40951D01*
X77368Y40957D01*
X77376Y40961D01*
X77521Y41088D01*
X77667Y41213D01*
X77673Y41220D01*
X77680Y41226D01*
X77797Y41379D01*
X77916Y41530D01*
X77920Y41538D01*
X77925Y41545D01*
X78077Y41840D01*
X79209Y44575D01*
X82425Y47791D01*
X86626Y49531D01*
X91174Y49531D01*
X95375Y47791D01*
X98591Y44575D01*
X99723Y41840D01*
X99728Y41832D01*
X99730Y41824D01*
X99824Y41653D01*
X99914Y41485D01*
X99919Y41478D01*
X99924Y41470D01*
X100048Y41322D01*
X100170Y41175D01*
X100177Y41169D01*
X100183Y41162D01*
X100333Y41042D01*
X100483Y40921D01*
X100491Y40917D01*
X100498Y40911D01*
X100670Y40823D01*
X100839Y40734D01*
X100848Y40731D01*
X100856Y40727D01*
X101042Y40675D01*
X101226Y40621D01*
X101235Y40620D01*
X101243Y40618D01*
X101434Y40603D01*
X101627Y40586D01*
X101636Y40587D01*
X101644Y40587D01*
X101836Y40610D01*
X102027Y40631D01*
X102035Y40634D01*
X102044Y40635D01*
X102227Y40696D01*
X102410Y40755D01*
X102418Y40759D01*
X102426Y40762D01*
X102593Y40857D01*
X102762Y40951D01*
X102768Y40957D01*
X102776Y40961D01*
X102921Y41088D01*
X103067Y41213D01*
X103073Y41220D01*
X103080Y41226D01*
X103197Y41379D01*
X103316Y41530D01*
X103320Y41538D01*
X103325Y41545D01*
X103477Y41840D01*
X104609Y44575D01*
X107825Y47791D01*
X112026Y49531D01*
X116574Y49531D01*
X120775Y47791D01*
X123991Y44575D01*
X125123Y41840D01*
X125128Y41832D01*
X125130Y41824D01*
X125224Y41653D01*
X125314Y41485D01*
X125319Y41478D01*
X125324Y41470D01*
X125448Y41322D01*
X125570Y41175D01*
X125577Y41169D01*
X125583Y41162D01*
X125733Y41042D01*
X125883Y40921D01*
X125891Y40917D01*
X125898Y40911D01*
X126070Y40823D01*
X126239Y40734D01*
X126248Y40731D01*
X126256Y40727D01*
X126442Y40675D01*
X126626Y40621D01*
X126635Y40620D01*
X126643Y40618D01*
X126834Y40603D01*
X127027Y40586D01*
X127036Y40587D01*
X127044Y40587D01*
X127236Y40610D01*
X127427Y40631D01*
X127435Y40634D01*
X127444Y40635D01*
X127627Y40696D01*
X127810Y40755D01*
X127818Y40759D01*
X127826Y40762D01*
X127993Y40857D01*
X128162Y40951D01*
X128168Y40957D01*
X128176Y40961D01*
X128321Y41088D01*
X128467Y41213D01*
X128473Y41220D01*
X128480Y41226D01*
X128597Y41379D01*
X128716Y41530D01*
X128720Y41538D01*
X128725Y41545D01*
X128877Y41840D01*
X130009Y44575D01*
X133225Y47791D01*
X137426Y49531D01*
X141974Y49531D01*
X146175Y47791D01*
X149391Y44575D01*
X150523Y41840D01*
X150528Y41832D01*
X150530Y41824D01*
X150624Y41653D01*
X150714Y41485D01*
X150719Y41478D01*
X150724Y41470D01*
X150848Y41322D01*
X150970Y41175D01*
X150977Y41169D01*
X150983Y41162D01*
X151133Y41042D01*
X151283Y40921D01*
X151291Y40917D01*
X151298Y40911D01*
X151470Y40823D01*
X151639Y40734D01*
X151648Y40731D01*
X151656Y40727D01*
X151842Y40675D01*
X152026Y40621D01*
X152035Y40620D01*
X152043Y40618D01*
X152234Y40603D01*
X152427Y40586D01*
X152436Y40587D01*
X152444Y40587D01*
X152636Y40610D01*
X152827Y40631D01*
X152835Y40634D01*
X152844Y40635D01*
X153027Y40696D01*
X153210Y40755D01*
X153218Y40759D01*
X153226Y40762D01*
X153393Y40857D01*
X153562Y40951D01*
X153568Y40957D01*
X153576Y40961D01*
X153721Y41088D01*
X153867Y41213D01*
X153873Y41220D01*
X153880Y41226D01*
X153997Y41379D01*
X154116Y41530D01*
X154120Y41538D01*
X154125Y41545D01*
X154277Y41840D01*
X155409Y44575D01*
X158625Y47791D01*
X162826Y49531D01*
X167374Y49531D01*
X171575Y47791D01*
X174791Y44575D01*
X175923Y41840D01*
X175928Y41832D01*
X175930Y41824D01*
X176024Y41653D01*
X176114Y41485D01*
X176119Y41478D01*
X176124Y41470D01*
X176248Y41322D01*
X176370Y41175D01*
X176377Y41169D01*
X176383Y41162D01*
X176533Y41042D01*
X176683Y40921D01*
X176691Y40917D01*
X176698Y40911D01*
X176870Y40823D01*
X177039Y40734D01*
X177048Y40731D01*
X177056Y40727D01*
X177242Y40675D01*
X177426Y40621D01*
X177435Y40620D01*
X177443Y40618D01*
X177634Y40603D01*
X177827Y40586D01*
X177836Y40587D01*
X177844Y40587D01*
X178036Y40610D01*
X178227Y40631D01*
X178235Y40634D01*
X178244Y40635D01*
X178427Y40696D01*
X178610Y40755D01*
X178618Y40759D01*
X178626Y40762D01*
X178793Y40857D01*
X178962Y40951D01*
X178968Y40957D01*
X178976Y40961D01*
X179121Y41088D01*
X179267Y41213D01*
X179273Y41220D01*
X179280Y41226D01*
X179397Y41379D01*
X179516Y41530D01*
X179520Y41538D01*
X179525Y41545D01*
X179677Y41840D01*
X180809Y44575D01*
X184025Y47791D01*
X188226Y49531D01*
X192774Y49531D01*
X196975Y47791D01*
X200191Y44575D01*
X201323Y41840D01*
X201328Y41832D01*
X201330Y41824D01*
X201422Y41656D01*
X201514Y41485D01*
X201519Y41478D01*
X201524Y41470D01*
X201647Y41324D01*
X201770Y41175D01*
X201777Y41169D01*
X201783Y41162D01*
X201933Y41043D01*
X202083Y40921D01*
X202091Y40917D01*
X202097Y40911D01*
X202269Y40823D01*
X202439Y40734D01*
X202448Y40731D01*
X202456Y40727D01*
X202641Y40675D01*
X202826Y40621D01*
X202834Y40620D01*
X202843Y40618D01*
X203034Y40603D01*
X203227Y40586D01*
X203236Y40587D01*
X203244Y40587D01*
X203437Y40610D01*
X203627Y40631D01*
X203635Y40634D01*
X203644Y40635D01*
X203829Y40696D01*
X204010Y40755D01*
X204018Y40759D01*
X204026Y40762D01*
X204194Y40857D01*
X204362Y40951D01*
X204368Y40957D01*
X204376Y40961D01*
X204521Y41088D01*
X204667Y41213D01*
X204673Y41220D01*
X204680Y41226D01*
X204797Y41378D01*
X204916Y41530D01*
X204920Y41538D01*
X204925Y41545D01*
X205077Y41840D01*
X206209Y44575D01*
X209425Y47791D01*
X210073Y48059D01*
X210093Y48070D01*
X210114Y48076D01*
X210270Y48165D01*
X210428Y48249D01*
X210445Y48263D01*
X210465Y48274D01*
X210600Y48391D01*
X210739Y48506D01*
X210753Y48523D01*
X210770Y48538D01*
X210879Y48679D01*
X210992Y48818D01*
X211003Y48838D01*
X211016Y48856D01*
X211096Y49016D01*
X211179Y49175D01*
X211186Y49196D01*
X211196Y49216D01*
X211242Y49390D01*
X211292Y49561D01*
X211294Y49583D01*
X211300Y49605D01*
X211327Y49936D01*
X211327Y127910D01*
X212023Y129590D01*
X213310Y130877D01*
X214990Y131573D01*
X329946Y131573D01*
X329964Y131575D01*
X329982Y131573D01*
X330164Y131594D01*
X330347Y131613D01*
X330364Y131618D01*
X330381Y131620D01*
X330556Y131677D01*
X330732Y131731D01*
X330747Y131739D01*
X330764Y131745D01*
X330924Y131835D01*
X331086Y131923D01*
X331099Y131934D01*
X331115Y131943D01*
X331254Y132063D01*
X331395Y132180D01*
X331406Y132194D01*
X331420Y132206D01*
X331532Y132351D01*
X331647Y132494D01*
X331655Y132510D01*
X331666Y132524D01*
X331748Y132689D01*
X331833Y132851D01*
X331838Y132868D01*
X331846Y132884D01*
X331893Y133063D01*
X331944Y133238D01*
X331946Y133256D01*
X331950Y133273D01*
X331977Y133604D01*
X331977Y628396D01*
X331975Y628414D01*
X331977Y628432D01*
X331956Y628614D01*
X331937Y628797D01*
X331932Y628814D01*
X331930Y628831D01*
X331873Y629006D01*
X331819Y629182D01*
X331811Y629197D01*
X331805Y629214D01*
X331715Y629374D01*
X331627Y629536D01*
X331616Y629549D01*
X331607Y629565D01*
X331487Y629704D01*
X331370Y629845D01*
X331356Y629856D01*
X331344Y629870D01*
X331199Y629982D01*
X331056Y630097D01*
X331040Y630105D01*
X331026Y630116D01*
X330861Y630198D01*
X330699Y630283D01*
X330682Y630288D01*
X330666Y630296D01*
X330487Y630343D01*
X330312Y630394D01*
X330294Y630396D01*
X330277Y630400D01*
X329946Y630427D01*
X326055Y630427D01*
X326032Y630425D01*
X326010Y630427D01*
X325833Y630405D01*
X325654Y630387D01*
X325633Y630381D01*
X325610Y630378D01*
X325441Y630322D01*
X325269Y630269D01*
X325249Y630259D01*
X325228Y630252D01*
X325073Y630163D01*
X324915Y630077D01*
X324898Y630063D01*
X324879Y630052D01*
X324744Y629935D01*
X324606Y629820D01*
X324592Y629802D01*
X324575Y629788D01*
X324466Y629646D01*
X324353Y629506D01*
X324343Y629486D01*
X324330Y629468D01*
X324178Y629173D01*
X323850Y628381D01*
X320563Y625094D01*
X318400Y624198D01*
X318321Y624156D01*
X318238Y624123D01*
X318144Y624061D01*
X318045Y624008D01*
X317976Y623951D01*
X317902Y623902D01*
X317821Y623823D01*
X317734Y623752D01*
X317678Y623682D01*
X317615Y623620D01*
X317552Y623526D01*
X317481Y623439D01*
X317439Y623360D01*
X317389Y623286D01*
X317346Y623182D01*
X317294Y623082D01*
X317269Y622997D01*
X317234Y622915D01*
X317212Y622804D01*
X317181Y622696D01*
X317173Y622607D01*
X317156Y622520D01*
X317156Y622407D01*
X317146Y622295D01*
X317156Y622206D01*
X317156Y622117D01*
X317179Y622007D01*
X317191Y621895D01*
X317218Y621810D01*
X317236Y621723D01*
X317280Y621619D01*
X317314Y621511D01*
X317358Y621434D01*
X317392Y621352D01*
X317456Y621258D01*
X317511Y621160D01*
X317569Y621092D01*
X317619Y621019D01*
X317699Y620940D01*
X317772Y620854D01*
X317843Y620799D01*
X317906Y620737D01*
X318001Y620675D01*
X318090Y620606D01*
X318169Y620566D01*
X318244Y620517D01*
X318308Y620491D01*
X320068Y619594D01*
X321556Y618513D01*
X322857Y617212D01*
X323938Y615724D01*
X324773Y614086D01*
X325341Y612336D01*
X325372Y612139D01*
X305308Y612139D01*
X305290Y612137D01*
X305273Y612139D01*
X305090Y612118D01*
X304908Y612099D01*
X304891Y612094D01*
X304873Y612092D01*
X304698Y612035D01*
X304523Y611981D01*
X304507Y611973D01*
X304490Y611967D01*
X304330Y611877D01*
X304169Y611789D01*
X304155Y611778D01*
X304139Y611769D01*
X304000Y611649D01*
X303859Y611532D01*
X303848Y611518D01*
X303835Y611506D01*
X303722Y611361D01*
X303607Y611218D01*
X303599Y611202D01*
X303588Y611188D01*
X303506Y611023D01*
X303422Y610861D01*
X303417Y610844D01*
X303409Y610828D01*
X303361Y610649D01*
X303310Y610474D01*
X303309Y610456D01*
X303304Y610439D01*
X303277Y610108D01*
X303277Y609092D01*
X303279Y609074D01*
X303277Y609056D01*
X303299Y608874D01*
X303317Y608691D01*
X303322Y608674D01*
X303324Y608657D01*
X303381Y608482D01*
X303435Y608306D01*
X303443Y608291D01*
X303449Y608274D01*
X303539Y608114D01*
X303627Y607952D01*
X303638Y607939D01*
X303647Y607923D01*
X303767Y607784D01*
X303885Y607643D01*
X303898Y607632D01*
X303910Y607618D01*
X304055Y607506D01*
X304198Y607391D01*
X304214Y607383D01*
X304228Y607372D01*
X304393Y607290D01*
X304556Y607205D01*
X304573Y607200D01*
X304589Y607192D01*
X304767Y607144D01*
X304942Y607094D01*
X304960Y607092D01*
X304977Y607088D01*
X305308Y607061D01*
X325372Y607061D01*
X325341Y606864D01*
X324773Y605114D01*
X323938Y603476D01*
X322857Y601988D01*
X321556Y600687D01*
X320068Y599606D01*
X318385Y598749D01*
X318383Y598748D01*
X318373Y598743D01*
X318287Y598699D01*
X318270Y598688D01*
X318181Y598649D01*
X318108Y598598D01*
X318030Y598555D01*
X317944Y598482D01*
X317852Y598418D01*
X317790Y598353D01*
X317722Y598296D01*
X317652Y598208D01*
X317574Y598126D01*
X317527Y598051D01*
X317471Y597981D01*
X317420Y597881D01*
X317359Y597785D01*
X317328Y597702D01*
X317287Y597623D01*
X317256Y597514D01*
X317216Y597409D01*
X317202Y597321D01*
X317177Y597235D01*
X317169Y597123D01*
X317150Y597012D01*
X317153Y596923D01*
X317146Y596834D01*
X317160Y596722D01*
X317164Y596610D01*
X317184Y596523D01*
X317195Y596434D01*
X317230Y596328D01*
X317256Y596218D01*
X317293Y596137D01*
X317321Y596052D01*
X317377Y595954D01*
X317424Y595852D01*
X317477Y595780D01*
X317521Y595702D01*
X317595Y595617D01*
X317661Y595526D01*
X317727Y595466D01*
X317785Y595399D01*
X317875Y595330D01*
X317958Y595254D01*
X318034Y595208D01*
X318105Y595153D01*
X318230Y595089D01*
X318302Y595045D01*
X318346Y595030D01*
X318400Y595002D01*
X320563Y594106D01*
X323850Y590819D01*
X325629Y586524D01*
X325629Y581876D01*
X323850Y577581D01*
X320563Y574294D01*
X318348Y573377D01*
X318340Y573372D01*
X318331Y573370D01*
X318163Y573278D01*
X317993Y573186D01*
X317986Y573181D01*
X317978Y573176D01*
X317832Y573053D01*
X317683Y572930D01*
X317677Y572923D01*
X317670Y572917D01*
X317550Y572767D01*
X317429Y572617D01*
X317425Y572609D01*
X317419Y572603D01*
X317331Y572432D01*
X317242Y572261D01*
X317239Y572252D01*
X317235Y572244D01*
X317183Y572060D01*
X317129Y571874D01*
X317128Y571866D01*
X317125Y571857D01*
X317111Y571666D01*
X317094Y571473D01*
X317095Y571464D01*
X317094Y571456D01*
X317117Y571266D01*
X317139Y571073D01*
X317142Y571065D01*
X317143Y571056D01*
X317204Y570872D01*
X317262Y570690D01*
X317267Y570682D01*
X317269Y570674D01*
X317365Y570506D01*
X317459Y570338D01*
X317464Y570332D01*
X317469Y570324D01*
X317595Y570179D01*
X317721Y570033D01*
X317728Y570027D01*
X317733Y570020D01*
X317887Y569903D01*
X318038Y569784D01*
X318045Y569780D01*
X318053Y569775D01*
X318348Y569623D01*
X320563Y568706D01*
X323850Y565419D01*
X325629Y561124D01*
X325629Y556476D01*
X323850Y552181D01*
X320563Y548894D01*
X316268Y547115D01*
X293332Y547115D01*
X289037Y548894D01*
X285750Y552181D01*
X285422Y552973D01*
X285412Y552993D01*
X285405Y553014D01*
X285316Y553170D01*
X285232Y553328D01*
X285218Y553345D01*
X285207Y553365D01*
X285090Y553500D01*
X284975Y553639D01*
X284958Y553653D01*
X284944Y553670D01*
X284802Y553779D01*
X284663Y553892D01*
X284643Y553903D01*
X284625Y553916D01*
X284465Y553996D01*
X284306Y554079D01*
X284285Y554086D01*
X284265Y554096D01*
X284092Y554142D01*
X283920Y554192D01*
X283898Y554194D01*
X283876Y554200D01*
X283545Y554227D01*
X266024Y554227D01*
X266002Y554225D01*
X265980Y554227D01*
X265802Y554205D01*
X265623Y554187D01*
X265602Y554181D01*
X265580Y554178D01*
X265409Y554122D01*
X265239Y554069D01*
X265219Y554059D01*
X265198Y554052D01*
X265042Y553963D01*
X264884Y553877D01*
X264867Y553863D01*
X264848Y553852D01*
X264713Y553734D01*
X264575Y553620D01*
X264561Y553602D01*
X264544Y553588D01*
X264435Y553445D01*
X264323Y553306D01*
X264313Y553286D01*
X264299Y553269D01*
X264147Y552973D01*
X263838Y552226D01*
X260574Y548962D01*
X258195Y547977D01*
X258187Y547972D01*
X258178Y547970D01*
X258008Y547877D01*
X257840Y547786D01*
X257833Y547781D01*
X257825Y547776D01*
X257677Y547652D01*
X257529Y547530D01*
X257524Y547523D01*
X257517Y547517D01*
X257397Y547367D01*
X257276Y547217D01*
X257272Y547209D01*
X257266Y547202D01*
X257179Y547033D01*
X257089Y546861D01*
X257086Y546852D01*
X257082Y546844D01*
X257030Y546662D01*
X256976Y546474D01*
X256975Y546465D01*
X256972Y546457D01*
X256958Y546266D01*
X256941Y546073D01*
X256942Y546064D01*
X256941Y546056D01*
X256965Y545865D01*
X256986Y545673D01*
X256989Y545665D01*
X256990Y545656D01*
X257050Y545474D01*
X257109Y545290D01*
X257114Y545282D01*
X257116Y545274D01*
X257212Y545106D01*
X257306Y544938D01*
X257311Y544932D01*
X257316Y544924D01*
X257443Y544778D01*
X257567Y544633D01*
X257575Y544627D01*
X257580Y544620D01*
X257733Y544503D01*
X257885Y544384D01*
X257893Y544380D01*
X257900Y544375D01*
X258195Y544223D01*
X260574Y543238D01*
X263838Y539974D01*
X265605Y535708D01*
X265605Y531092D01*
X263838Y526826D01*
X260574Y523562D01*
X258195Y522577D01*
X258187Y522572D01*
X258178Y522570D01*
X258008Y522477D01*
X257840Y522386D01*
X257833Y522381D01*
X257825Y522376D01*
X257677Y522252D01*
X257529Y522130D01*
X257524Y522123D01*
X257517Y522117D01*
X257397Y521967D01*
X257276Y521817D01*
X257272Y521809D01*
X257266Y521802D01*
X257179Y521633D01*
X257089Y521461D01*
X257086Y521452D01*
X257082Y521444D01*
X257030Y521262D01*
X256976Y521074D01*
X256975Y521065D01*
X256972Y521057D01*
X256958Y520866D01*
X256941Y520673D01*
X256942Y520664D01*
X256941Y520656D01*
X256965Y520465D01*
X256986Y520273D01*
X256989Y520265D01*
X256990Y520256D01*
X257050Y520074D01*
X257109Y519890D01*
X257114Y519882D01*
X257116Y519874D01*
X257212Y519706D01*
X257306Y519538D01*
X257311Y519532D01*
X257316Y519524D01*
X257443Y519378D01*
X257567Y519233D01*
X257575Y519227D01*
X257580Y519220D01*
X257733Y519103D01*
X257885Y518984D01*
X257893Y518980D01*
X257900Y518975D01*
X258195Y518823D01*
X260574Y517838D01*
X263838Y514574D01*
X265605Y510308D01*
X265605Y505692D01*
X263838Y501426D01*
X260574Y498162D01*
X258195Y497177D01*
X258187Y497172D01*
X258178Y497170D01*
X258008Y497077D01*
X257840Y496986D01*
X257833Y496981D01*
X257825Y496976D01*
X257677Y496852D01*
X257529Y496730D01*
X257524Y496723D01*
X257517Y496717D01*
X257397Y496567D01*
X257276Y496417D01*
X257272Y496409D01*
X257266Y496402D01*
X257179Y496233D01*
X257089Y496061D01*
X257086Y496052D01*
X257082Y496044D01*
X257030Y495862D01*
X256976Y495674D01*
X256975Y495665D01*
X256972Y495657D01*
X256958Y495466D01*
X256941Y495273D01*
X256942Y495264D01*
X256941Y495256D01*
X256965Y495065D01*
X256986Y494873D01*
X256989Y494865D01*
X256990Y494856D01*
X257050Y494674D01*
X257109Y494490D01*
X257114Y494482D01*
X257116Y494474D01*
X257212Y494306D01*
X257306Y494138D01*
X257311Y494132D01*
X257316Y494124D01*
X257443Y493978D01*
X257567Y493833D01*
X257575Y493827D01*
X257580Y493820D01*
X257733Y493703D01*
X257885Y493584D01*
X257893Y493580D01*
X257900Y493575D01*
X258195Y493423D01*
X260574Y492438D01*
X263838Y489174D01*
X265605Y484908D01*
X265605Y480292D01*
X263838Y476026D01*
X260574Y472762D01*
X258195Y471777D01*
X258187Y471772D01*
X258178Y471770D01*
X258008Y471677D01*
X257840Y471586D01*
X257833Y471581D01*
X257825Y471576D01*
X257677Y471452D01*
X257529Y471330D01*
X257524Y471323D01*
X257517Y471317D01*
X257397Y471167D01*
X257276Y471017D01*
X257272Y471009D01*
X257266Y471002D01*
X257179Y470833D01*
X257089Y470661D01*
X257086Y470652D01*
X257082Y470644D01*
X257030Y470462D01*
X256976Y470274D01*
X256975Y470265D01*
X256972Y470257D01*
X256958Y470066D01*
X256941Y469873D01*
X256942Y469864D01*
X256941Y469856D01*
X256965Y469665D01*
X256986Y469473D01*
X256989Y469465D01*
X256990Y469456D01*
X257050Y469274D01*
X257109Y469090D01*
X257114Y469082D01*
X257116Y469074D01*
X257212Y468906D01*
X257306Y468738D01*
X257311Y468732D01*
X257316Y468724D01*
X257443Y468578D01*
X257567Y468433D01*
X257575Y468427D01*
X257580Y468420D01*
X257733Y468303D01*
X257885Y468184D01*
X257893Y468180D01*
X257900Y468175D01*
X258195Y468023D01*
X260574Y467038D01*
X263838Y463774D01*
X265605Y459508D01*
X265605Y454892D01*
X263838Y450626D01*
X260574Y447362D01*
X258195Y446377D01*
X258187Y446372D01*
X258178Y446370D01*
X258008Y446277D01*
X257840Y446186D01*
X257833Y446181D01*
X257825Y446176D01*
X257677Y446052D01*
X257529Y445930D01*
X257524Y445923D01*
X257517Y445917D01*
X257397Y445767D01*
X257276Y445617D01*
X257272Y445609D01*
X257266Y445602D01*
X257179Y445433D01*
X257089Y445261D01*
X257086Y445252D01*
X257082Y445244D01*
X257030Y445062D01*
X256976Y444874D01*
X256975Y444865D01*
X256972Y444857D01*
X256958Y444666D01*
X256941Y444473D01*
X256942Y444464D01*
X256941Y444456D01*
X256965Y444265D01*
X256986Y444073D01*
X256989Y444065D01*
X256990Y444056D01*
X257050Y443874D01*
X257109Y443690D01*
X257114Y443682D01*
X257116Y443674D01*
X257212Y443506D01*
X257306Y443338D01*
X257311Y443332D01*
X257316Y443324D01*
X257443Y443178D01*
X257567Y443033D01*
X257575Y443027D01*
X257580Y443020D01*
X257733Y442903D01*
X257885Y442784D01*
X257893Y442780D01*
X257900Y442775D01*
X258195Y442623D01*
X260574Y441638D01*
X263838Y438374D01*
X265605Y434108D01*
X265605Y429492D01*
X263838Y425226D01*
X260574Y421962D01*
X258195Y420977D01*
X258187Y420972D01*
X258178Y420970D01*
X258008Y420877D01*
X257840Y420786D01*
X257833Y420781D01*
X257825Y420776D01*
X257677Y420652D01*
X257529Y420530D01*
X257524Y420523D01*
X257517Y420517D01*
X257397Y420367D01*
X257276Y420217D01*
X257272Y420209D01*
X257266Y420202D01*
X257179Y420033D01*
X257089Y419861D01*
X257086Y419852D01*
X257082Y419844D01*
X257030Y419662D01*
X256976Y419474D01*
X256975Y419465D01*
X256972Y419457D01*
X256958Y419266D01*
X256941Y419073D01*
X256942Y419064D01*
X256941Y419056D01*
X256965Y418865D01*
X256986Y418673D01*
X256989Y418665D01*
X256990Y418656D01*
X257050Y418474D01*
X257109Y418290D01*
X257114Y418282D01*
X257116Y418274D01*
X257212Y418106D01*
X257306Y417938D01*
X257311Y417932D01*
X257316Y417924D01*
X257443Y417778D01*
X257567Y417633D01*
X257575Y417627D01*
X257580Y417620D01*
X257733Y417503D01*
X257885Y417384D01*
X257893Y417380D01*
X257900Y417375D01*
X258195Y417223D01*
X260574Y416238D01*
X263838Y412974D01*
X265605Y408708D01*
X265605Y404092D01*
X263838Y399826D01*
X260574Y396562D01*
X258195Y395577D01*
X258187Y395572D01*
X258178Y395570D01*
X258008Y395477D01*
X257840Y395386D01*
X257833Y395381D01*
X257825Y395376D01*
X257677Y395252D01*
X257529Y395130D01*
X257524Y395123D01*
X257517Y395117D01*
X257397Y394967D01*
X257276Y394817D01*
X257272Y394809D01*
X257266Y394802D01*
X257179Y394633D01*
X257089Y394461D01*
X257086Y394452D01*
X257082Y394444D01*
X257030Y394261D01*
X256976Y394074D01*
X256975Y394065D01*
X256972Y394057D01*
X256958Y393866D01*
X256941Y393673D01*
X256942Y393664D01*
X256941Y393656D01*
X256965Y393465D01*
X256986Y393273D01*
X256989Y393265D01*
X256990Y393256D01*
X257050Y393074D01*
X257109Y392890D01*
X257114Y392882D01*
X257116Y392874D01*
X257212Y392706D01*
X257306Y392538D01*
X257311Y392532D01*
X257316Y392524D01*
X257443Y392378D01*
X257567Y392233D01*
X257575Y392227D01*
X257580Y392220D01*
X257733Y392103D01*
X257885Y391984D01*
X257893Y391980D01*
X257900Y391975D01*
X258195Y391823D01*
X260574Y390838D01*
X263838Y387574D01*
X265605Y383308D01*
X265605Y378692D01*
X263838Y374426D01*
X260574Y371162D01*
X258195Y370177D01*
X258187Y370172D01*
X258178Y370170D01*
X258008Y370077D01*
X257840Y369986D01*
X257833Y369981D01*
X257825Y369976D01*
X257677Y369852D01*
X257529Y369730D01*
X257524Y369723D01*
X257517Y369717D01*
X257397Y369567D01*
X257276Y369417D01*
X257272Y369409D01*
X257266Y369402D01*
X257179Y369233D01*
X257089Y369061D01*
X257086Y369052D01*
X257082Y369044D01*
X257030Y368862D01*
X256976Y368674D01*
X256975Y368665D01*
X256972Y368657D01*
X256958Y368466D01*
X256941Y368273D01*
X256942Y368264D01*
X256941Y368256D01*
X256965Y368065D01*
X256986Y367873D01*
X256989Y367865D01*
X256990Y367856D01*
X257050Y367674D01*
X257109Y367490D01*
X257114Y367482D01*
X257116Y367474D01*
X257212Y367306D01*
X257306Y367138D01*
X257311Y367132D01*
X257316Y367124D01*
X257443Y366978D01*
X257567Y366833D01*
X257575Y366827D01*
X257580Y366820D01*
X257733Y366703D01*
X257885Y366584D01*
X257893Y366580D01*
X257900Y366575D01*
X258195Y366423D01*
X260574Y365438D01*
X263838Y362174D01*
X265605Y357908D01*
X265605Y353292D01*
X263838Y349026D01*
X260574Y345762D01*
X260337Y345664D01*
X258195Y344777D01*
X258187Y344772D01*
X258178Y344770D01*
X258008Y344677D01*
X257840Y344586D01*
X257833Y344581D01*
X257825Y344576D01*
X257677Y344452D01*
X257529Y344330D01*
X257524Y344323D01*
X257517Y344317D01*
X257397Y344167D01*
X257276Y344017D01*
X257272Y344009D01*
X257266Y344002D01*
X257179Y343833D01*
X257089Y343661D01*
X257086Y343652D01*
X257082Y343644D01*
X257030Y343462D01*
X256976Y343274D01*
X256975Y343265D01*
X256972Y343257D01*
X256958Y343066D01*
X256941Y342873D01*
X256942Y342864D01*
X256941Y342856D01*
X256965Y342665D01*
X256986Y342473D01*
X256989Y342465D01*
X256990Y342456D01*
X257050Y342274D01*
X257109Y342090D01*
X257114Y342082D01*
X257116Y342074D01*
X257212Y341906D01*
X257306Y341738D01*
X257311Y341732D01*
X257316Y341724D01*
X257443Y341578D01*
X257567Y341433D01*
X257575Y341427D01*
X257580Y341420D01*
X257733Y341303D01*
X257885Y341184D01*
X257893Y341180D01*
X257900Y341175D01*
X258195Y341023D01*
X260574Y340038D01*
X263838Y336774D01*
X264147Y336027D01*
X264158Y336007D01*
X264165Y335986D01*
X264253Y335829D01*
X264338Y335672D01*
X264352Y335655D01*
X264363Y335635D01*
X264480Y335499D01*
X264594Y335361D01*
X264611Y335347D01*
X264626Y335330D01*
X264768Y335221D01*
X264907Y335108D01*
X264926Y335097D01*
X264944Y335084D01*
X265104Y335004D01*
X265263Y334921D01*
X265285Y334914D01*
X265305Y334904D01*
X265478Y334858D01*
X265650Y334808D01*
X265672Y334806D01*
X265693Y334800D01*
X266024Y334773D01*
X305710Y334773D01*
X307390Y334077D01*
X308677Y332790D01*
X309373Y331110D01*
X309373Y176890D01*
X308677Y175210D01*
X307390Y173923D01*
X305710Y173227D01*
X189590Y173227D01*
X187910Y173923D01*
X186623Y175210D01*
X185927Y176890D01*
X185927Y204064D01*
X185925Y204087D01*
X185927Y204109D01*
X185905Y204286D01*
X185887Y204465D01*
X185881Y204486D01*
X185878Y204508D01*
X185822Y204678D01*
X185769Y204850D01*
X185759Y204870D01*
X185752Y204891D01*
X185663Y205046D01*
X185577Y205204D01*
X185563Y205221D01*
X185552Y205240D01*
X185435Y205375D01*
X185320Y205513D01*
X185302Y205527D01*
X185288Y205544D01*
X185146Y205653D01*
X185006Y205765D01*
X184986Y205776D01*
X184968Y205789D01*
X184673Y205941D01*
X184025Y206209D01*
X180809Y209425D01*
X179677Y212160D01*
X179672Y212168D01*
X179670Y212176D01*
X179578Y212344D01*
X179486Y212515D01*
X179481Y212522D01*
X179476Y212530D01*
X179354Y212675D01*
X179230Y212825D01*
X179223Y212831D01*
X179217Y212838D01*
X179067Y212957D01*
X178917Y213079D01*
X178909Y213083D01*
X178903Y213089D01*
X178731Y213177D01*
X178561Y213266D01*
X178552Y213269D01*
X178544Y213273D01*
X178359Y213325D01*
X178174Y213379D01*
X178166Y213380D01*
X178157Y213382D01*
X177966Y213397D01*
X177773Y213414D01*
X177764Y213413D01*
X177756Y213413D01*
X177563Y213390D01*
X177373Y213369D01*
X177365Y213366D01*
X177356Y213365D01*
X177171Y213304D01*
X176990Y213245D01*
X176982Y213241D01*
X176974Y213238D01*
X176806Y213143D01*
X176638Y213049D01*
X176632Y213043D01*
X176624Y213039D01*
X176479Y212912D01*
X176333Y212787D01*
X176327Y212780D01*
X176320Y212774D01*
X176203Y212622D01*
X176084Y212470D01*
X176080Y212462D01*
X176075Y212455D01*
X175923Y212160D01*
X174791Y209425D01*
X171575Y206209D01*
X169881Y205508D01*
X167374Y204469D01*
X162826Y204469D01*
X158625Y206209D01*
X155409Y209425D01*
X154269Y212178D01*
X154227Y212256D01*
X154194Y212338D01*
X154133Y212433D01*
X154079Y212532D01*
X154023Y212601D01*
X153974Y212675D01*
X153895Y212756D01*
X153823Y212843D01*
X153754Y212899D01*
X153691Y212962D01*
X153598Y213025D01*
X153510Y213097D01*
X153432Y213138D01*
X153358Y213188D01*
X153253Y213231D01*
X153154Y213284D01*
X153068Y213309D01*
X152986Y213343D01*
X152876Y213365D01*
X152767Y213397D01*
X152679Y213404D01*
X152592Y213422D01*
X152479Y213422D01*
X152366Y213431D01*
X152278Y213421D01*
X152189Y213421D01*
X152078Y213399D01*
X151966Y213386D01*
X151882Y213359D01*
X151794Y213341D01*
X151690Y213298D01*
X151583Y213263D01*
X151505Y213220D01*
X151423Y213185D01*
X151330Y213122D01*
X151231Y213067D01*
X151164Y213009D01*
X151090Y212959D01*
X151011Y212878D01*
X150925Y212805D01*
X150871Y212735D01*
X150808Y212672D01*
X150747Y212577D01*
X150677Y212488D01*
X150637Y212408D01*
X150589Y212334D01*
X150534Y212204D01*
X150496Y212128D01*
X150484Y212084D01*
X150461Y212028D01*
X150293Y211512D01*
X149476Y209909D01*
X148419Y208453D01*
X147147Y207181D01*
X145691Y206124D01*
X144088Y205307D01*
X142377Y204751D01*
X141922Y204679D01*
X141922Y215709D01*
X141920Y215727D01*
X141921Y215745D01*
X141905Y215885D01*
X141922Y216091D01*
X141922Y227121D01*
X142377Y227049D01*
X144088Y226493D01*
X145691Y225676D01*
X147147Y224619D01*
X148419Y223347D01*
X149476Y221891D01*
X150293Y220288D01*
X150461Y219772D01*
X150497Y219691D01*
X150523Y219606D01*
X150577Y219507D01*
X150623Y219403D01*
X150674Y219331D01*
X150716Y219253D01*
X150789Y219166D01*
X150854Y219074D01*
X150918Y219013D01*
X150975Y218945D01*
X151064Y218874D01*
X151146Y218796D01*
X151221Y218749D01*
X151290Y218694D01*
X151391Y218642D01*
X151486Y218582D01*
X151569Y218550D01*
X151648Y218510D01*
X151757Y218479D01*
X151863Y218439D01*
X151950Y218424D01*
X152036Y218400D01*
X152148Y218391D01*
X152260Y218373D01*
X152349Y218376D01*
X152437Y218369D01*
X152549Y218383D01*
X152662Y218386D01*
X152749Y218407D01*
X152837Y218418D01*
X152944Y218453D01*
X153054Y218479D01*
X153135Y218516D01*
X153219Y218544D01*
X153317Y218600D01*
X153420Y218647D01*
X153492Y218700D01*
X153569Y218744D01*
X153654Y218818D01*
X153745Y218884D01*
X153805Y218950D01*
X153872Y219008D01*
X153941Y219098D01*
X154018Y219181D01*
X154064Y219257D01*
X154118Y219327D01*
X154182Y219453D01*
X154226Y219525D01*
X154242Y219569D01*
X154269Y219622D01*
X155409Y222375D01*
X158625Y225591D01*
X159942Y226136D01*
X159943Y226136D01*
X162826Y227331D01*
X167374Y227331D01*
X171575Y225591D01*
X174791Y222375D01*
X175923Y219640D01*
X175928Y219632D01*
X175930Y219624D01*
X176023Y219453D01*
X176114Y219285D01*
X176119Y219278D01*
X176124Y219270D01*
X176248Y219123D01*
X176370Y218975D01*
X176377Y218969D01*
X176383Y218962D01*
X176534Y218842D01*
X176683Y218721D01*
X176690Y218717D01*
X176698Y218711D01*
X176868Y218624D01*
X177039Y218534D01*
X177048Y218531D01*
X177056Y218527D01*
X177238Y218476D01*
X177426Y218421D01*
X177435Y218420D01*
X177443Y218418D01*
X177634Y218403D01*
X177827Y218386D01*
X177836Y218387D01*
X177844Y218387D01*
X178035Y218410D01*
X178227Y218431D01*
X178235Y218434D01*
X178244Y218435D01*
X178425Y218495D01*
X178610Y218555D01*
X178618Y218559D01*
X178626Y218562D01*
X178793Y218657D01*
X178962Y218751D01*
X178968Y218757D01*
X178976Y218761D01*
X179123Y218889D01*
X179267Y219013D01*
X179273Y219020D01*
X179280Y219026D01*
X179397Y219179D01*
X179516Y219330D01*
X179520Y219338D01*
X179525Y219345D01*
X179677Y219640D01*
X180809Y222375D01*
X184025Y225591D01*
X185342Y226136D01*
X185343Y226136D01*
X188226Y227331D01*
X192774Y227331D01*
X196975Y225591D01*
X200191Y222375D01*
X201323Y219640D01*
X201328Y219632D01*
X201330Y219624D01*
X201423Y219453D01*
X201514Y219285D01*
X201519Y219278D01*
X201524Y219270D01*
X201648Y219123D01*
X201770Y218975D01*
X201777Y218969D01*
X201783Y218962D01*
X201934Y218842D01*
X202083Y218721D01*
X202090Y218717D01*
X202098Y218711D01*
X202268Y218624D01*
X202439Y218534D01*
X202448Y218531D01*
X202456Y218527D01*
X202638Y218476D01*
X202826Y218421D01*
X202835Y218420D01*
X202843Y218418D01*
X203034Y218403D01*
X203227Y218386D01*
X203236Y218387D01*
X203244Y218387D01*
X203435Y218410D01*
X203627Y218431D01*
X203635Y218434D01*
X203644Y218435D01*
X203825Y218495D01*
X204010Y218555D01*
X204018Y218559D01*
X204026Y218562D01*
X204193Y218657D01*
X204362Y218751D01*
X204368Y218757D01*
X204376Y218761D01*
X204523Y218889D01*
X204667Y219013D01*
X204673Y219020D01*
X204680Y219026D01*
X204797Y219179D01*
X204916Y219330D01*
X204920Y219338D01*
X204925Y219345D01*
X205077Y219640D01*
X206209Y222375D01*
X209425Y225591D01*
X210742Y226136D01*
X210743Y226136D01*
X213626Y227331D01*
X218174Y227331D01*
X222375Y225591D01*
X225591Y222375D01*
X226723Y219640D01*
X226728Y219632D01*
X226730Y219624D01*
X226822Y219456D01*
X226914Y219285D01*
X226919Y219278D01*
X226924Y219270D01*
X227047Y219124D01*
X227170Y218975D01*
X227177Y218969D01*
X227183Y218962D01*
X227333Y218842D01*
X227483Y218721D01*
X227491Y218717D01*
X227497Y218711D01*
X227668Y218624D01*
X227839Y218534D01*
X227848Y218531D01*
X227856Y218527D01*
X228040Y218475D01*
X228226Y218421D01*
X228234Y218420D01*
X228243Y218418D01*
X228434Y218403D01*
X228627Y218386D01*
X228636Y218387D01*
X228644Y218387D01*
X228834Y218410D01*
X229027Y218431D01*
X229035Y218434D01*
X229044Y218435D01*
X229226Y218495D01*
X229410Y218555D01*
X229418Y218559D01*
X229426Y218562D01*
X229594Y218657D01*
X229762Y218751D01*
X229768Y218757D01*
X229776Y218761D01*
X229921Y218888D01*
X230067Y219013D01*
X230073Y219020D01*
X230080Y219026D01*
X230197Y219178D01*
X230316Y219330D01*
X230320Y219338D01*
X230325Y219345D01*
X230477Y219640D01*
X231609Y222375D01*
X234825Y225591D01*
X236142Y226136D01*
X236143Y226136D01*
X239026Y227331D01*
X243574Y227331D01*
X247775Y225591D01*
X250991Y222375D01*
X252123Y219640D01*
X252128Y219632D01*
X252130Y219624D01*
X252223Y219453D01*
X252314Y219285D01*
X252319Y219278D01*
X252324Y219270D01*
X252447Y219124D01*
X252570Y218975D01*
X252577Y218969D01*
X252583Y218962D01*
X252733Y218843D01*
X252883Y218721D01*
X252891Y218717D01*
X252897Y218711D01*
X253069Y218623D01*
X253239Y218534D01*
X253248Y218531D01*
X253256Y218527D01*
X253441Y218475D01*
X253626Y218421D01*
X253634Y218420D01*
X253643Y218418D01*
X253834Y218403D01*
X254027Y218386D01*
X254036Y218387D01*
X254044Y218387D01*
X254237Y218410D01*
X254427Y218431D01*
X254435Y218434D01*
X254444Y218435D01*
X254629Y218496D01*
X254810Y218555D01*
X254818Y218559D01*
X254826Y218562D01*
X254994Y218657D01*
X255162Y218751D01*
X255168Y218757D01*
X255176Y218761D01*
X255321Y218888D01*
X255467Y219013D01*
X255473Y219020D01*
X255480Y219026D01*
X255597Y219178D01*
X255716Y219330D01*
X255720Y219338D01*
X255725Y219345D01*
X255877Y219640D01*
X257009Y222375D01*
X260225Y225591D01*
X260873Y225859D01*
X260893Y225870D01*
X260914Y225876D01*
X261070Y225965D01*
X261228Y226049D01*
X261245Y226063D01*
X261265Y226074D01*
X261400Y226191D01*
X261539Y226306D01*
X261553Y226323D01*
X261570Y226338D01*
X261679Y226479D01*
X261792Y226618D01*
X261803Y226638D01*
X261816Y226656D01*
X261896Y226816D01*
X261979Y226975D01*
X261986Y226996D01*
X261996Y227016D01*
X262042Y227190D01*
X262092Y227361D01*
X262094Y227383D01*
X262100Y227405D01*
X262127Y227736D01*
X262127Y272796D01*
X262125Y272814D01*
X262127Y272832D01*
X262106Y273014D01*
X262087Y273197D01*
X262082Y273214D01*
X262080Y273231D01*
X262023Y273406D01*
X261969Y273582D01*
X261961Y273597D01*
X261955Y273614D01*
X261865Y273774D01*
X261777Y273936D01*
X261766Y273949D01*
X261757Y273965D01*
X261637Y274104D01*
X261520Y274245D01*
X261506Y274256D01*
X261494Y274270D01*
X261349Y274382D01*
X261206Y274497D01*
X261190Y274505D01*
X261176Y274516D01*
X261011Y274598D01*
X260849Y274683D01*
X260832Y274688D01*
X260816Y274696D01*
X260637Y274743D01*
X260462Y274794D01*
X260444Y274796D01*
X260427Y274800D01*
X260096Y274827D01*
X24490Y274827D01*
X22810Y275523D01*
X21523Y276810D01*
X20827Y278490D01*
X20827Y686710D01*
X21523Y688390D01*
X22810Y689677D01*
X24490Y690373D01*
X38776Y690373D01*
X38798Y690375D01*
X38820Y690373D01*
X38998Y690395D01*
X39177Y690413D01*
X39198Y690419D01*
X39220Y690422D01*
X39390Y690478D01*
X39562Y690531D01*
X39581Y690541D01*
X39602Y690548D01*
X39758Y690637D01*
X39916Y690723D01*
X39933Y690737D01*
X39952Y690748D01*
X40087Y690866D01*
X40225Y690980D01*
X40239Y690998D01*
X40256Y691012D01*
X40365Y691155D01*
X40477Y691294D01*
X40487Y691314D01*
X40501Y691332D01*
X40653Y691627D01*
X40962Y692374D01*
X44226Y695638D01*
X46605Y696623D01*
X46613Y696628D01*
X46622Y696630D01*
X46791Y696723D01*
X46960Y696814D01*
X46967Y696819D01*
X46975Y696824D01*
X47122Y696947D01*
X47271Y697070D01*
X47276Y697077D01*
X47283Y697083D01*
X47404Y697234D01*
X47524Y697383D01*
X47528Y697390D01*
X47534Y697398D01*
X47623Y697571D01*
X47711Y697739D01*
X47714Y697748D01*
X47718Y697756D01*
X47771Y697942D01*
X47824Y698126D01*
X47825Y698135D01*
X47828Y698143D01*
X47842Y698334D01*
X47859Y698527D01*
X47858Y698536D01*
X47859Y698544D01*
X47835Y698736D01*
X47814Y698927D01*
X47811Y698935D01*
X47810Y698944D01*
X47750Y699127D01*
X47691Y699310D01*
X47686Y699318D01*
X47684Y699326D01*
X47588Y699493D01*
X47494Y699662D01*
X47489Y699668D01*
X47484Y699676D01*
X47359Y699820D01*
X47233Y699967D01*
X47225Y699973D01*
X47220Y699980D01*
X47067Y700097D01*
X46916Y700216D01*
X46908Y700220D01*
X46900Y700225D01*
X46605Y700377D01*
X44226Y701362D01*
X40962Y704626D01*
X39195Y708892D01*
X39195Y713508D01*
X40962Y717774D01*
X44226Y721038D01*
X48492Y722805D01*
X53108Y722805D01*
X57374Y721038D01*
X60638Y717774D01*
X62405Y713508D01*
X62405Y708892D01*
X60638Y704626D01*
X57374Y701362D01*
X54995Y700377D01*
X54987Y700372D01*
X54978Y700370D01*
X54811Y700278D01*
X54640Y700186D01*
X54633Y700181D01*
X54625Y700176D01*
X54478Y700053D01*
X54329Y699930D01*
X54324Y699923D01*
X54317Y699917D01*
X54197Y699767D01*
X54076Y699617D01*
X54072Y699609D01*
X54066Y699603D01*
X53978Y699432D01*
X53889Y699261D01*
X53886Y699252D01*
X53882Y699244D01*
X53830Y699061D01*
X53776Y698875D01*
X53775Y698865D01*
X53772Y698857D01*
X53758Y698666D01*
X53741Y698473D01*
X53742Y698464D01*
X53741Y698456D01*
X53764Y698266D01*
X53786Y698073D01*
X53789Y698065D01*
X53790Y698056D01*
X53850Y697876D01*
X53909Y697690D01*
X53914Y697682D01*
X53916Y697674D01*
X54011Y697508D01*
X54106Y697339D01*
X54111Y697332D01*
X54116Y697324D01*
X54242Y697179D01*
X54367Y697033D01*
X54374Y697027D01*
X54380Y697020D01*
X54533Y696903D01*
X54684Y696784D01*
X54692Y696780D01*
X54700Y696775D01*
X54995Y696623D01*
X57374Y695638D01*
X60638Y692374D01*
X62405Y688108D01*
X62405Y683492D01*
X60638Y679226D01*
X57374Y675962D01*
X54995Y674977D01*
X54987Y674972D01*
X54978Y674970D01*
X54811Y674878D01*
X54640Y674786D01*
X54633Y674781D01*
X54625Y674776D01*
X54478Y674653D01*
X54329Y674530D01*
X54324Y674523D01*
X54317Y674517D01*
X54197Y674367D01*
X54076Y674217D01*
X54072Y674209D01*
X54066Y674203D01*
X53978Y674032D01*
X53889Y673861D01*
X53886Y673852D01*
X53882Y673844D01*
X53830Y673661D01*
X53776Y673475D01*
X53775Y673465D01*
X53772Y673457D01*
X53758Y673266D01*
X53741Y673073D01*
X53742Y673064D01*
X53741Y673056D01*
X53764Y672866D01*
X53786Y672673D01*
X53789Y672665D01*
X53790Y672656D01*
X53850Y672476D01*
X53909Y672290D01*
X53914Y672282D01*
X53916Y672274D01*
X54011Y672108D01*
X54106Y671939D01*
X54111Y671932D01*
X54116Y671924D01*
X54242Y671779D01*
X54367Y671633D01*
X54374Y671627D01*
X54380Y671620D01*
X54533Y671503D01*
X54684Y671384D01*
X54692Y671380D01*
X54700Y671375D01*
X54995Y671223D01*
X57374Y670238D01*
X60638Y666974D01*
X62405Y662708D01*
X62405Y658092D01*
X60638Y653826D01*
X57374Y650562D01*
X55025Y649589D01*
X54947Y649547D01*
X54864Y649514D01*
X54769Y649452D01*
X54670Y649399D01*
X54601Y649342D01*
X54527Y649294D01*
X54447Y649214D01*
X54359Y649142D01*
X54304Y649074D01*
X54240Y649011D01*
X54177Y648918D01*
X54106Y648830D01*
X54065Y648751D01*
X54015Y648678D01*
X53971Y648573D01*
X53919Y648473D01*
X53894Y648388D01*
X53860Y648306D01*
X53837Y648196D01*
X53806Y648087D01*
X53798Y647998D01*
X53781Y647911D01*
X53781Y647798D01*
X53771Y647686D01*
X53781Y647598D01*
X53781Y647509D01*
X53803Y647398D01*
X53816Y647286D01*
X53843Y647201D01*
X53861Y647114D01*
X53905Y647010D01*
X53939Y646902D01*
X53983Y646825D01*
X54017Y646743D01*
X54081Y646650D01*
X54136Y646551D01*
X54193Y646483D01*
X54243Y646410D01*
X54324Y646331D01*
X54397Y646245D01*
X54467Y646190D01*
X54531Y646128D01*
X54625Y646067D01*
X54714Y645997D01*
X54794Y645957D01*
X54868Y645909D01*
X54999Y645854D01*
X55074Y645816D01*
X55119Y645804D01*
X55174Y645781D01*
X55255Y645755D01*
X56882Y644925D01*
X58360Y643852D01*
X59652Y642560D01*
X60725Y641082D01*
X61554Y639455D01*
X62119Y637717D01*
X62154Y637499D01*
X51268Y637499D01*
X51250Y637497D01*
X51233Y637499D01*
X51050Y637478D01*
X50868Y637459D01*
X50851Y637454D01*
X50833Y637452D01*
X50792Y637439D01*
X50698Y637466D01*
X50680Y637468D01*
X50663Y637472D01*
X50332Y637499D01*
X39446Y637499D01*
X39481Y637717D01*
X40046Y639455D01*
X40875Y641082D01*
X41948Y642560D01*
X43240Y643852D01*
X44718Y644925D01*
X46345Y645755D01*
X46426Y645781D01*
X46507Y645816D01*
X46592Y645843D01*
X46691Y645897D01*
X46794Y645942D01*
X46867Y645993D01*
X46945Y646036D01*
X47031Y646109D01*
X47124Y646174D01*
X47185Y646238D01*
X47253Y646295D01*
X47324Y646384D01*
X47401Y646465D01*
X47449Y646540D01*
X47504Y646610D01*
X47556Y646711D01*
X47616Y646806D01*
X47647Y646889D01*
X47688Y646968D01*
X47719Y647077D01*
X47759Y647182D01*
X47773Y647270D01*
X47798Y647355D01*
X47806Y647468D01*
X47825Y647580D01*
X47822Y647669D01*
X47829Y647757D01*
X47815Y647869D01*
X47811Y647982D01*
X47791Y648069D01*
X47780Y648157D01*
X47745Y648264D01*
X47719Y648374D01*
X47681Y648455D01*
X47654Y648539D01*
X47598Y648637D01*
X47550Y648740D01*
X47498Y648811D01*
X47454Y648889D01*
X47380Y648974D01*
X47313Y649065D01*
X47248Y649125D01*
X47190Y649192D01*
X47100Y649261D01*
X47017Y649337D01*
X46941Y649383D01*
X46870Y649438D01*
X46745Y649502D01*
X46672Y649546D01*
X46629Y649562D01*
X46575Y649589D01*
X44226Y650562D01*
X40962Y653826D01*
X39195Y658092D01*
X39195Y662708D01*
X40962Y666974D01*
X44226Y670238D01*
X46605Y671223D01*
X46613Y671228D01*
X46622Y671230D01*
X46791Y671323D01*
X46960Y671414D01*
X46967Y671419D01*
X46975Y671424D01*
X47122Y671547D01*
X47271Y671670D01*
X47276Y671677D01*
X47283Y671683D01*
X47404Y671834D01*
X47524Y671983D01*
X47528Y671990D01*
X47534Y671998D01*
X47623Y672171D01*
X47711Y672339D01*
X47714Y672348D01*
X47718Y672356D01*
X47771Y672542D01*
X47824Y672726D01*
X47825Y672735D01*
X47828Y672743D01*
X47842Y672934D01*
X47859Y673127D01*
X47858Y673136D01*
X47859Y673144D01*
X47835Y673336D01*
X47814Y673527D01*
X47811Y673535D01*
X47810Y673544D01*
X47750Y673727D01*
X47691Y673910D01*
X47686Y673918D01*
X47684Y673926D01*
X47588Y674093D01*
X47494Y674262D01*
X47489Y674268D01*
X47484Y674276D01*
X47359Y674420D01*
X47233Y674567D01*
X47225Y674573D01*
X47220Y674580D01*
X47067Y674697D01*
X46916Y674816D01*
X46908Y674820D01*
X46900Y674825D01*
X46605Y674977D01*
X44226Y675962D01*
X40962Y679226D01*
X40653Y679973D01*
X40642Y679993D01*
X40635Y680014D01*
X40547Y680170D01*
X40462Y680328D01*
X40448Y680345D01*
X40437Y680365D01*
X40320Y680501D01*
X40206Y680639D01*
X40189Y680653D01*
X40174Y680670D01*
X40033Y680779D01*
X39893Y680892D01*
X39874Y680903D01*
X39856Y680916D01*
X39696Y680996D01*
X39537Y681079D01*
X39516Y681086D01*
X39495Y681096D01*
X39322Y681142D01*
X39150Y681192D01*
X39128Y681194D01*
X39107Y681200D01*
X38776Y681227D01*
X32004Y681227D01*
X31986Y681225D01*
X31968Y681227D01*
X31786Y681206D01*
X31603Y681187D01*
X31586Y681182D01*
X31569Y681180D01*
X31394Y681123D01*
X31218Y681069D01*
X31203Y681061D01*
X31186Y681055D01*
X31026Y680965D01*
X30864Y680877D01*
X30851Y680866D01*
X30835Y680857D01*
X30696Y680737D01*
X30555Y680620D01*
X30544Y680606D01*
X30530Y680594D01*
X30418Y680449D01*
X30303Y680306D01*
X30295Y680290D01*
X30284Y680276D01*
X30202Y680111D01*
X30117Y679949D01*
X30112Y679932D01*
X30104Y679916D01*
X30057Y679737D01*
X30006Y679562D01*
X30004Y679544D01*
X30000Y679527D01*
X29973Y679196D01*
X29973Y286004D01*
X29975Y285986D01*
X29973Y285968D01*
X29994Y285786D01*
X30013Y285603D01*
X30018Y285586D01*
X30020Y285569D01*
X30077Y285394D01*
X30131Y285218D01*
X30139Y285203D01*
X30145Y285186D01*
X30235Y285026D01*
X30323Y284864D01*
X30334Y284851D01*
X30343Y284835D01*
X30463Y284696D01*
X30580Y284555D01*
X30594Y284544D01*
X30606Y284530D01*
X30751Y284418D01*
X30894Y284303D01*
X30910Y284295D01*
X30924Y284284D01*
X31089Y284202D01*
X31251Y284117D01*
X31268Y284112D01*
X31284Y284104D01*
X31463Y284057D01*
X31638Y284006D01*
X31656Y284004D01*
X31673Y284000D01*
X32004Y283973D01*
X267610Y283973D01*
X269290Y283277D01*
X270577Y281990D01*
X271273Y280310D01*
X271273Y227736D01*
X271275Y227713D01*
X271273Y227691D01*
X271295Y227514D01*
X271313Y227335D01*
X271319Y227314D01*
X271322Y227292D01*
X271378Y227122D01*
X271431Y226950D01*
X271441Y226930D01*
X271448Y226909D01*
X271537Y226754D01*
X271623Y226596D01*
X271637Y226579D01*
X271648Y226560D01*
X271765Y226425D01*
X271880Y226287D01*
X271898Y226273D01*
X271912Y226256D01*
X272054Y226147D01*
X272194Y226035D01*
X272214Y226024D01*
X272232Y226011D01*
X272527Y225859D01*
X273175Y225591D01*
X276391Y222375D01*
X278131Y218174D01*
X278131Y213626D01*
X276391Y209425D01*
X273175Y206209D01*
X271481Y205508D01*
X268974Y204469D01*
X264426Y204469D01*
X260225Y206209D01*
X257009Y209425D01*
X255877Y212160D01*
X255872Y212168D01*
X255870Y212176D01*
X255777Y212345D01*
X255686Y212515D01*
X255681Y212522D01*
X255676Y212530D01*
X255552Y212677D01*
X255430Y212825D01*
X255423Y212831D01*
X255417Y212838D01*
X255266Y212958D01*
X255117Y213079D01*
X255110Y213083D01*
X255102Y213089D01*
X254932Y213176D01*
X254761Y213266D01*
X254752Y213269D01*
X254744Y213273D01*
X254562Y213324D01*
X254374Y213379D01*
X254365Y213380D01*
X254357Y213382D01*
X254166Y213397D01*
X253973Y213414D01*
X253964Y213413D01*
X253956Y213413D01*
X253765Y213390D01*
X253573Y213369D01*
X253565Y213366D01*
X253556Y213365D01*
X253375Y213305D01*
X253190Y213245D01*
X253182Y213241D01*
X253174Y213238D01*
X253007Y213143D01*
X252838Y213049D01*
X252832Y213043D01*
X252824Y213039D01*
X252677Y212911D01*
X252533Y212787D01*
X252527Y212780D01*
X252520Y212774D01*
X252403Y212621D01*
X252284Y212470D01*
X252280Y212462D01*
X252275Y212455D01*
X252123Y212160D01*
X250991Y209425D01*
X247775Y206209D01*
X246081Y205508D01*
X243574Y204469D01*
X239026Y204469D01*
X234825Y206209D01*
X231609Y209425D01*
X230477Y212160D01*
X230472Y212168D01*
X230470Y212176D01*
X230376Y212347D01*
X230286Y212515D01*
X230281Y212522D01*
X230276Y212530D01*
X230152Y212678D01*
X230030Y212825D01*
X230023Y212831D01*
X230017Y212838D01*
X229867Y212958D01*
X229717Y213079D01*
X229709Y213083D01*
X229702Y213089D01*
X229530Y213177D01*
X229361Y213266D01*
X229352Y213269D01*
X229344Y213273D01*
X229158Y213325D01*
X228974Y213379D01*
X228965Y213380D01*
X228957Y213382D01*
X228766Y213397D01*
X228573Y213414D01*
X228564Y213413D01*
X228556Y213413D01*
X228364Y213390D01*
X228173Y213369D01*
X228165Y213366D01*
X228156Y213365D01*
X227973Y213304D01*
X227790Y213245D01*
X227782Y213241D01*
X227774Y213238D01*
X227607Y213143D01*
X227438Y213049D01*
X227432Y213043D01*
X227424Y213039D01*
X227279Y212912D01*
X227133Y212787D01*
X227127Y212780D01*
X227120Y212774D01*
X227003Y212621D01*
X226884Y212470D01*
X226880Y212462D01*
X226875Y212455D01*
X226723Y212160D01*
X225591Y209425D01*
X222375Y206209D01*
X221727Y205941D01*
X221707Y205930D01*
X221686Y205924D01*
X221530Y205835D01*
X221372Y205751D01*
X221355Y205737D01*
X221335Y205726D01*
X221200Y205609D01*
X221061Y205494D01*
X221047Y205477D01*
X221030Y205462D01*
X220921Y205321D01*
X220808Y205182D01*
X220797Y205162D01*
X220784Y205144D01*
X220704Y204984D01*
X220621Y204825D01*
X220614Y204804D01*
X220604Y204784D01*
X220558Y204610D01*
X220508Y204439D01*
X220506Y204417D01*
X220500Y204395D01*
X220473Y204064D01*
X220473Y197104D01*
X220475Y197086D01*
X220473Y197068D01*
X220494Y196886D01*
X220513Y196703D01*
X220518Y196686D01*
X220520Y196669D01*
X220577Y196494D01*
X220631Y196318D01*
X220639Y196303D01*
X220645Y196286D01*
X220735Y196126D01*
X220823Y195964D01*
X220834Y195951D01*
X220843Y195935D01*
X220963Y195796D01*
X221080Y195655D01*
X221094Y195644D01*
X221106Y195630D01*
X221251Y195518D01*
X221394Y195403D01*
X221410Y195395D01*
X221424Y195384D01*
X221589Y195302D01*
X221751Y195217D01*
X221768Y195212D01*
X221784Y195204D01*
X221963Y195157D01*
X222138Y195106D01*
X222156Y195104D01*
X222173Y195100D01*
X222504Y195073D01*
X285496Y195073D01*
X285514Y195075D01*
X285532Y195073D01*
X285714Y195094D01*
X285897Y195113D01*
X285914Y195118D01*
X285931Y195120D01*
X286106Y195177D01*
X286282Y195231D01*
X286297Y195239D01*
X286314Y195245D01*
X286474Y195335D01*
X286636Y195423D01*
X286649Y195434D01*
X286665Y195443D01*
X286804Y195563D01*
X286945Y195680D01*
X286956Y195694D01*
X286970Y195706D01*
X287082Y195851D01*
X287197Y195994D01*
X287205Y196010D01*
X287216Y196024D01*
X287298Y196189D01*
X287383Y196351D01*
X287388Y196368D01*
X287396Y196384D01*
X287443Y196563D01*
X287494Y196738D01*
X287496Y196756D01*
X287500Y196773D01*
X287527Y197104D01*
X287527Y298196D01*
X287525Y298214D01*
X287527Y298232D01*
X287506Y298414D01*
X287487Y298597D01*
X287482Y298614D01*
X287480Y298631D01*
X287423Y298806D01*
X287369Y298982D01*
X287361Y298997D01*
X287355Y299014D01*
X287265Y299174D01*
X287177Y299336D01*
X287166Y299349D01*
X287157Y299365D01*
X287037Y299504D01*
X286920Y299645D01*
X286906Y299656D01*
X286894Y299670D01*
X286749Y299782D01*
X286606Y299897D01*
X286590Y299905D01*
X286576Y299916D01*
X286411Y299998D01*
X286249Y300083D01*
X286232Y300088D01*
X286216Y300096D01*
X286037Y300143D01*
X285862Y300194D01*
X285844Y300196D01*
X285827Y300200D01*
X285496Y300227D01*
X227690Y300227D01*
X226010Y300923D01*
X224723Y302210D01*
X224027Y303890D01*
X224027Y356510D01*
X224723Y358190D01*
X226010Y359477D01*
X227690Y360173D01*
X241976Y360173D01*
X241998Y360175D01*
X242020Y360173D01*
X242198Y360195D01*
X242377Y360213D01*
X242398Y360219D01*
X242420Y360222D01*
X242591Y360278D01*
X242761Y360331D01*
X242781Y360341D01*
X242802Y360348D01*
X242958Y360437D01*
X243116Y360523D01*
X243133Y360537D01*
X243152Y360548D01*
X243287Y360666D01*
X243425Y360780D01*
X243439Y360798D01*
X243456Y360812D01*
X243565Y360955D01*
X243677Y361094D01*
X243687Y361114D01*
X243701Y361131D01*
X243853Y361427D01*
X244162Y362174D01*
X247426Y365438D01*
X249489Y366292D01*
X249489Y366293D01*
X249805Y366423D01*
X249813Y366428D01*
X249822Y366430D01*
X249990Y366522D01*
X250160Y366614D01*
X250167Y366619D01*
X250175Y366624D01*
X250321Y366747D01*
X250471Y366870D01*
X250476Y366877D01*
X250483Y366883D01*
X250603Y367033D01*
X250724Y367183D01*
X250728Y367191D01*
X250734Y367197D01*
X250822Y367368D01*
X250911Y367539D01*
X250914Y367548D01*
X250918Y367556D01*
X250970Y367740D01*
X251024Y367926D01*
X251025Y367934D01*
X251028Y367943D01*
X251042Y368134D01*
X251059Y368327D01*
X251058Y368336D01*
X251059Y368344D01*
X251036Y368531D01*
X251014Y368727D01*
X251011Y368735D01*
X251010Y368744D01*
X250950Y368926D01*
X250891Y369110D01*
X250886Y369118D01*
X250884Y369126D01*
X250788Y369294D01*
X250694Y369462D01*
X250689Y369468D01*
X250684Y369476D01*
X250558Y369621D01*
X250433Y369767D01*
X250425Y369773D01*
X250420Y369780D01*
X250266Y369897D01*
X250116Y370016D01*
X250108Y370020D01*
X250100Y370025D01*
X249805Y370177D01*
X247426Y371162D01*
X244162Y374426D01*
X242395Y378692D01*
X242395Y383308D01*
X244162Y387574D01*
X247426Y390838D01*
X249805Y391823D01*
X249813Y391828D01*
X249822Y391830D01*
X249990Y391922D01*
X250160Y392014D01*
X250167Y392019D01*
X250175Y392024D01*
X250321Y392147D01*
X250471Y392270D01*
X250476Y392277D01*
X250483Y392283D01*
X250603Y392433D01*
X250724Y392583D01*
X250728Y392591D01*
X250734Y392597D01*
X250822Y392768D01*
X250911Y392939D01*
X250914Y392948D01*
X250918Y392956D01*
X250970Y393140D01*
X251024Y393326D01*
X251025Y393334D01*
X251028Y393343D01*
X251042Y393534D01*
X251059Y393727D01*
X251058Y393736D01*
X251059Y393744D01*
X251036Y393934D01*
X251014Y394127D01*
X251011Y394135D01*
X251010Y394144D01*
X250950Y394326D01*
X250891Y394510D01*
X250886Y394518D01*
X250884Y394526D01*
X250788Y394694D01*
X250694Y394862D01*
X250689Y394868D01*
X250684Y394876D01*
X250558Y395021D01*
X250433Y395167D01*
X250425Y395173D01*
X250420Y395180D01*
X250266Y395297D01*
X250116Y395416D01*
X250108Y395420D01*
X250100Y395425D01*
X249805Y395577D01*
X247426Y396562D01*
X244162Y399826D01*
X242395Y404092D01*
X242395Y408708D01*
X244162Y412974D01*
X247426Y416238D01*
X249805Y417223D01*
X249813Y417228D01*
X249822Y417230D01*
X249990Y417322D01*
X250160Y417414D01*
X250167Y417419D01*
X250175Y417424D01*
X250321Y417547D01*
X250471Y417670D01*
X250476Y417677D01*
X250483Y417683D01*
X250603Y417833D01*
X250724Y417983D01*
X250728Y417991D01*
X250734Y417997D01*
X250822Y418168D01*
X250911Y418339D01*
X250914Y418348D01*
X250918Y418356D01*
X250970Y418540D01*
X251024Y418726D01*
X251025Y418734D01*
X251028Y418743D01*
X251042Y418934D01*
X251059Y419127D01*
X251058Y419136D01*
X251059Y419144D01*
X251036Y419334D01*
X251014Y419527D01*
X251011Y419535D01*
X251010Y419544D01*
X250950Y419726D01*
X250891Y419910D01*
X250886Y419918D01*
X250884Y419926D01*
X250788Y420094D01*
X250694Y420262D01*
X250689Y420268D01*
X250684Y420276D01*
X250558Y420421D01*
X250433Y420567D01*
X250425Y420573D01*
X250420Y420580D01*
X250266Y420697D01*
X250116Y420816D01*
X250108Y420820D01*
X250100Y420825D01*
X249805Y420977D01*
X247426Y421962D01*
X244162Y425226D01*
X242395Y429492D01*
X242395Y434108D01*
X244162Y438374D01*
X247426Y441638D01*
X249805Y442623D01*
X249813Y442628D01*
X249822Y442630D01*
X249990Y442722D01*
X250160Y442814D01*
X250167Y442819D01*
X250175Y442824D01*
X250321Y442947D01*
X250471Y443070D01*
X250476Y443077D01*
X250483Y443083D01*
X250603Y443233D01*
X250724Y443383D01*
X250728Y443391D01*
X250734Y443397D01*
X250822Y443568D01*
X250911Y443739D01*
X250914Y443748D01*
X250918Y443756D01*
X250970Y443940D01*
X251024Y444126D01*
X251025Y444134D01*
X251028Y444143D01*
X251042Y444334D01*
X251059Y444527D01*
X251058Y444536D01*
X251059Y444544D01*
X251036Y444734D01*
X251014Y444927D01*
X251011Y444935D01*
X251010Y444944D01*
X250950Y445126D01*
X250891Y445310D01*
X250886Y445318D01*
X250884Y445326D01*
X250788Y445494D01*
X250694Y445662D01*
X250689Y445668D01*
X250684Y445676D01*
X250558Y445821D01*
X250433Y445967D01*
X250425Y445973D01*
X250420Y445980D01*
X250266Y446097D01*
X250116Y446216D01*
X250108Y446220D01*
X250100Y446225D01*
X249805Y446377D01*
X247426Y447362D01*
X244162Y450626D01*
X242395Y454892D01*
X242395Y459508D01*
X244162Y463774D01*
X247426Y467038D01*
X249399Y467855D01*
X249805Y468023D01*
X249813Y468028D01*
X249822Y468030D01*
X249990Y468122D01*
X250160Y468214D01*
X250167Y468219D01*
X250175Y468224D01*
X250321Y468347D01*
X250471Y468470D01*
X250476Y468477D01*
X250483Y468483D01*
X250603Y468633D01*
X250724Y468783D01*
X250728Y468791D01*
X250734Y468797D01*
X250822Y468968D01*
X250911Y469139D01*
X250914Y469148D01*
X250918Y469156D01*
X250970Y469340D01*
X251024Y469526D01*
X251025Y469534D01*
X251028Y469543D01*
X251042Y469734D01*
X251059Y469927D01*
X251058Y469936D01*
X251059Y469944D01*
X251036Y470134D01*
X251014Y470327D01*
X251011Y470335D01*
X251010Y470344D01*
X250950Y470526D01*
X250891Y470710D01*
X250886Y470718D01*
X250884Y470726D01*
X250788Y470894D01*
X250694Y471062D01*
X250689Y471068D01*
X250684Y471076D01*
X250558Y471221D01*
X250433Y471367D01*
X250425Y471373D01*
X250420Y471380D01*
X250266Y471497D01*
X250116Y471616D01*
X250108Y471620D01*
X250100Y471625D01*
X249805Y471777D01*
X247426Y472762D01*
X244162Y476026D01*
X242395Y480292D01*
X242395Y484908D01*
X244162Y489174D01*
X247426Y492438D01*
X249805Y493423D01*
X249813Y493428D01*
X249822Y493430D01*
X249990Y493522D01*
X250160Y493614D01*
X250167Y493619D01*
X250175Y493624D01*
X250321Y493747D01*
X250471Y493870D01*
X250476Y493877D01*
X250483Y493883D01*
X250603Y494033D01*
X250724Y494183D01*
X250728Y494191D01*
X250734Y494197D01*
X250822Y494368D01*
X250911Y494539D01*
X250914Y494548D01*
X250918Y494556D01*
X250970Y494740D01*
X251024Y494926D01*
X251025Y494934D01*
X251028Y494943D01*
X251042Y495134D01*
X251059Y495327D01*
X251058Y495336D01*
X251059Y495344D01*
X251036Y495534D01*
X251014Y495727D01*
X251011Y495735D01*
X251010Y495744D01*
X250950Y495926D01*
X250891Y496110D01*
X250886Y496118D01*
X250884Y496126D01*
X250788Y496294D01*
X250694Y496462D01*
X250689Y496468D01*
X250684Y496476D01*
X250558Y496621D01*
X250433Y496767D01*
X250425Y496773D01*
X250420Y496780D01*
X250266Y496897D01*
X250116Y497016D01*
X250108Y497020D01*
X250100Y497025D01*
X249805Y497177D01*
X247426Y498162D01*
X244162Y501426D01*
X242395Y505692D01*
X242395Y510308D01*
X244162Y514574D01*
X247426Y517838D01*
X249805Y518823D01*
X249813Y518828D01*
X249822Y518830D01*
X249990Y518922D01*
X250160Y519014D01*
X250167Y519019D01*
X250175Y519024D01*
X250321Y519147D01*
X250471Y519270D01*
X250476Y519277D01*
X250483Y519283D01*
X250603Y519433D01*
X250724Y519583D01*
X250728Y519591D01*
X250734Y519597D01*
X250822Y519768D01*
X250911Y519939D01*
X250914Y519948D01*
X250918Y519956D01*
X250970Y520140D01*
X251024Y520326D01*
X251025Y520334D01*
X251028Y520343D01*
X251042Y520534D01*
X251059Y520727D01*
X251058Y520736D01*
X251059Y520744D01*
X251036Y520934D01*
X251014Y521127D01*
X251011Y521135D01*
X251010Y521144D01*
X250950Y521326D01*
X250891Y521510D01*
X250886Y521518D01*
X250884Y521526D01*
X250788Y521694D01*
X250694Y521862D01*
X250689Y521868D01*
X250684Y521876D01*
X250558Y522021D01*
X250433Y522167D01*
X250425Y522173D01*
X250420Y522180D01*
X250266Y522297D01*
X250116Y522416D01*
X250108Y522420D01*
X250100Y522425D01*
X249805Y522577D01*
X247426Y523562D01*
X244162Y526826D01*
X242395Y531092D01*
X242395Y535708D01*
X244162Y539974D01*
X247426Y543238D01*
X249805Y544223D01*
X249813Y544228D01*
X249822Y544230D01*
X249990Y544322D01*
X250160Y544414D01*
X250167Y544419D01*
X250175Y544424D01*
X250321Y544547D01*
X250471Y544670D01*
X250476Y544677D01*
X250483Y544683D01*
X250603Y544833D01*
X250724Y544983D01*
X250728Y544991D01*
X250734Y544997D01*
X250822Y545168D01*
X250911Y545339D01*
X250914Y545348D01*
X250918Y545356D01*
X250970Y545540D01*
X251024Y545726D01*
X251025Y545734D01*
X251028Y545743D01*
X251042Y545934D01*
X251059Y546127D01*
X251058Y546136D01*
X251059Y546144D01*
X251036Y546334D01*
X251014Y546527D01*
X251011Y546535D01*
X251010Y546544D01*
X250950Y546725D01*
X250891Y546910D01*
X250886Y546918D01*
X250884Y546926D01*
X250788Y547094D01*
X250694Y547262D01*
X250689Y547268D01*
X250684Y547276D01*
X250558Y547421D01*
X250433Y547567D01*
X250425Y547573D01*
X250420Y547580D01*
X250266Y547697D01*
X250116Y547816D01*
X250108Y547820D01*
X250100Y547825D01*
X249805Y547977D01*
X247426Y548962D01*
X244162Y552226D01*
X242395Y556492D01*
X242395Y561108D01*
X244162Y565374D01*
X247426Y568638D01*
X249308Y569417D01*
X249308Y569418D01*
X249805Y569623D01*
X249813Y569628D01*
X249822Y569630D01*
X249990Y569722D01*
X250160Y569814D01*
X250167Y569819D01*
X250175Y569824D01*
X250321Y569947D01*
X250471Y570070D01*
X250476Y570077D01*
X250483Y570083D01*
X250603Y570233D01*
X250724Y570383D01*
X250728Y570391D01*
X250734Y570397D01*
X250822Y570568D01*
X250911Y570739D01*
X250914Y570748D01*
X250918Y570756D01*
X250970Y570940D01*
X251024Y571126D01*
X251025Y571134D01*
X251028Y571143D01*
X251042Y571334D01*
X251059Y571527D01*
X251058Y571536D01*
X251059Y571544D01*
X251036Y571734D01*
X251014Y571927D01*
X251011Y571935D01*
X251010Y571944D01*
X250950Y572126D01*
X250891Y572310D01*
X250886Y572318D01*
X250884Y572326D01*
X250788Y572494D01*
X250694Y572662D01*
X250689Y572668D01*
X250684Y572676D01*
X250558Y572821D01*
X250433Y572967D01*
X250425Y572973D01*
X250420Y572980D01*
X250266Y573097D01*
X250116Y573216D01*
X250108Y573220D01*
X250100Y573225D01*
X249805Y573377D01*
X247426Y574362D01*
X244162Y577626D01*
X242395Y581892D01*
X242395Y586508D01*
X244162Y590774D01*
X247426Y594038D01*
X249805Y595023D01*
X249813Y595028D01*
X249822Y595030D01*
X249990Y595122D01*
X250160Y595214D01*
X250167Y595219D01*
X250175Y595224D01*
X250321Y595347D01*
X250471Y595470D01*
X250476Y595477D01*
X250483Y595483D01*
X250603Y595633D01*
X250724Y595783D01*
X250728Y595791D01*
X250734Y595797D01*
X250822Y595968D01*
X250911Y596139D01*
X250914Y596148D01*
X250918Y596156D01*
X250970Y596340D01*
X251024Y596526D01*
X251025Y596534D01*
X251028Y596543D01*
X251042Y596734D01*
X251059Y596927D01*
X251058Y596936D01*
X251059Y596944D01*
X251036Y597134D01*
X251014Y597327D01*
X251011Y597335D01*
X251010Y597344D01*
X250950Y597526D01*
X250891Y597710D01*
X250886Y597718D01*
X250884Y597726D01*
X250788Y597894D01*
X250694Y598062D01*
X250689Y598068D01*
X250684Y598076D01*
X250558Y598221D01*
X250433Y598367D01*
X250425Y598373D01*
X250420Y598380D01*
X250266Y598497D01*
X250116Y598616D01*
X250108Y598620D01*
X250100Y598625D01*
X249805Y598777D01*
X247426Y599762D01*
X244162Y603026D01*
X242395Y607292D01*
X242395Y611908D01*
X244162Y616174D01*
X247426Y619438D01*
X251692Y621205D01*
X256308Y621205D01*
X260574Y619438D01*
X263838Y616174D01*
X265605Y611908D01*
X265605Y607292D01*
X263838Y603026D01*
X260574Y599762D01*
X258195Y598777D01*
X258187Y598772D01*
X258178Y598770D01*
X258008Y598677D01*
X257840Y598586D01*
X257833Y598581D01*
X257825Y598576D01*
X257677Y598452D01*
X257529Y598330D01*
X257524Y598323D01*
X257517Y598317D01*
X257397Y598167D01*
X257276Y598017D01*
X257272Y598009D01*
X257266Y598002D01*
X257179Y597833D01*
X257089Y597661D01*
X257086Y597652D01*
X257082Y597644D01*
X257030Y597462D01*
X256976Y597274D01*
X256975Y597265D01*
X256972Y597257D01*
X256958Y597066D01*
X256941Y596873D01*
X256942Y596864D01*
X256941Y596856D01*
X256965Y596665D01*
X256986Y596473D01*
X256989Y596465D01*
X256990Y596456D01*
X257050Y596273D01*
X257109Y596090D01*
X257114Y596082D01*
X257116Y596074D01*
X257212Y595906D01*
X257306Y595738D01*
X257311Y595732D01*
X257316Y595724D01*
X257443Y595578D01*
X257567Y595433D01*
X257575Y595427D01*
X257580Y595420D01*
X257733Y595303D01*
X257885Y595184D01*
X257893Y595180D01*
X257900Y595175D01*
X258195Y595023D01*
X260574Y594038D01*
X263838Y590774D01*
X265605Y586508D01*
X265605Y581892D01*
X263838Y577626D01*
X260574Y574362D01*
X258195Y573377D01*
X258187Y573372D01*
X258178Y573370D01*
X258008Y573277D01*
X257840Y573186D01*
X257833Y573181D01*
X257825Y573176D01*
X257677Y573052D01*
X257529Y572930D01*
X257524Y572923D01*
X257517Y572917D01*
X257397Y572767D01*
X257276Y572617D01*
X257272Y572609D01*
X257266Y572602D01*
X257179Y572433D01*
X257089Y572261D01*
X257086Y572252D01*
X257082Y572244D01*
X257030Y572062D01*
X256976Y571874D01*
X256975Y571865D01*
X256972Y571857D01*
X256958Y571666D01*
X256941Y571473D01*
X256942Y571464D01*
X256941Y571456D01*
X256965Y571265D01*
X256986Y571073D01*
X256989Y571065D01*
X256990Y571056D01*
X257050Y570874D01*
X257109Y570690D01*
X257114Y570682D01*
X257116Y570674D01*
X257212Y570506D01*
X257306Y570338D01*
X257311Y570332D01*
X257316Y570324D01*
X257443Y570178D01*
X257567Y570033D01*
X257575Y570027D01*
X257580Y570020D01*
X257733Y569903D01*
X257885Y569784D01*
X257893Y569780D01*
X257900Y569775D01*
X258195Y569623D01*
X260574Y568638D01*
X263838Y565374D01*
X264147Y564627D01*
X264158Y564607D01*
X264165Y564586D01*
X264253Y564429D01*
X264338Y564272D01*
X264352Y564255D01*
X264363Y564235D01*
X264480Y564099D01*
X264594Y563961D01*
X264611Y563947D01*
X264626Y563930D01*
X264768Y563821D01*
X264907Y563708D01*
X264926Y563697D01*
X264944Y563684D01*
X265104Y563604D01*
X265263Y563521D01*
X265285Y563514D01*
X265305Y563504D01*
X265478Y563458D01*
X265650Y563408D01*
X265672Y563406D01*
X265693Y563400D01*
X266024Y563373D01*
X283545Y563373D01*
X283568Y563375D01*
X283590Y563373D01*
X283767Y563395D01*
X283946Y563413D01*
X283967Y563419D01*
X283990Y563422D01*
X284159Y563478D01*
X284331Y563531D01*
X284351Y563541D01*
X284372Y563548D01*
X284527Y563637D01*
X284685Y563723D01*
X284702Y563737D01*
X284721Y563748D01*
X284856Y563865D01*
X284994Y563980D01*
X285008Y563998D01*
X285025Y564012D01*
X285134Y564154D01*
X285247Y564294D01*
X285257Y564314D01*
X285270Y564332D01*
X285422Y564627D01*
X285750Y565419D01*
X289037Y568706D01*
X290755Y569417D01*
X290755Y569418D01*
X291252Y569623D01*
X291260Y569628D01*
X291269Y569630D01*
X291439Y569723D01*
X291607Y569814D01*
X291614Y569819D01*
X291622Y569824D01*
X291770Y569948D01*
X291918Y570070D01*
X291923Y570077D01*
X291930Y570083D01*
X292050Y570233D01*
X292171Y570383D01*
X292175Y570391D01*
X292181Y570398D01*
X292268Y570567D01*
X292358Y570739D01*
X292361Y570748D01*
X292365Y570756D01*
X292417Y570938D01*
X292471Y571126D01*
X292472Y571135D01*
X292475Y571143D01*
X292489Y571331D01*
X292506Y571527D01*
X292505Y571536D01*
X292506Y571544D01*
X292482Y571735D01*
X292461Y571927D01*
X292458Y571935D01*
X292457Y571944D01*
X292397Y572126D01*
X292338Y572310D01*
X292333Y572318D01*
X292330Y572326D01*
X292235Y572494D01*
X292141Y572662D01*
X292136Y572668D01*
X292131Y572676D01*
X292004Y572822D01*
X291879Y572967D01*
X291872Y572973D01*
X291867Y572980D01*
X291714Y573097D01*
X291562Y573216D01*
X291554Y573220D01*
X291547Y573225D01*
X291252Y573377D01*
X289037Y574294D01*
X285750Y577581D01*
X285422Y578373D01*
X285412Y578393D01*
X285405Y578414D01*
X285316Y578570D01*
X285232Y578728D01*
X285218Y578745D01*
X285207Y578765D01*
X285090Y578900D01*
X284975Y579039D01*
X284958Y579053D01*
X284944Y579070D01*
X284802Y579179D01*
X284663Y579292D01*
X284643Y579303D01*
X284625Y579316D01*
X284465Y579396D01*
X284306Y579479D01*
X284285Y579486D01*
X284265Y579496D01*
X284092Y579542D01*
X283920Y579592D01*
X283898Y579594D01*
X283876Y579600D01*
X283545Y579627D01*
X278490Y579627D01*
X276810Y580323D01*
X275523Y581610D01*
X274827Y583290D01*
X274827Y782474D01*
X274825Y782492D01*
X274827Y782510D01*
X274806Y782692D01*
X274787Y782875D01*
X274782Y782892D01*
X274780Y782909D01*
X274723Y783084D01*
X274669Y783260D01*
X274661Y783275D01*
X274655Y783292D01*
X274565Y783452D01*
X274477Y783614D01*
X274466Y783627D01*
X274457Y783643D01*
X274337Y783782D01*
X274220Y783923D01*
X274206Y783934D01*
X274194Y783948D01*
X274049Y784060D01*
X273906Y784175D01*
X273890Y784183D01*
X273876Y784194D01*
X273711Y784276D01*
X273549Y784361D01*
X273532Y784366D01*
X273516Y784374D01*
X273337Y784421D01*
X273162Y784472D01*
X273144Y784474D01*
X273127Y784478D01*
X272796Y784505D01*
X95504Y784505D01*
X95486Y784503D01*
X95468Y784505D01*
X95286Y784484D01*
X95103Y784465D01*
X95086Y784460D01*
X95069Y784458D01*
X94894Y784401D01*
X94718Y784347D01*
X94703Y784339D01*
X94686Y784333D01*
X94526Y784243D01*
X94364Y784155D01*
X94351Y784144D01*
X94335Y784135D01*
X94196Y784015D01*
X94055Y783898D01*
X94044Y783884D01*
X94030Y783872D01*
X93918Y783727D01*
X93803Y783584D01*
X93795Y783568D01*
X93784Y783554D01*
X93702Y783389D01*
X93617Y783227D01*
X93612Y783210D01*
X93604Y783194D01*
X93557Y783015D01*
X93506Y782840D01*
X93504Y782822D01*
X93500Y782805D01*
X93473Y782474D01*
X93473Y329290D01*
X92777Y327610D01*
X91490Y326323D01*
X89810Y325627D01*
X62824Y325627D01*
X62802Y325625D01*
X62780Y325627D01*
X62602Y325605D01*
X62423Y325587D01*
X62402Y325581D01*
X62380Y325578D01*
X62209Y325522D01*
X62039Y325469D01*
X62019Y325459D01*
X61998Y325452D01*
X61842Y325363D01*
X61684Y325277D01*
X61667Y325263D01*
X61648Y325252D01*
X61513Y325134D01*
X61375Y325020D01*
X61361Y325002D01*
X61344Y324988D01*
X61235Y324845D01*
X61123Y324706D01*
X61113Y324686D01*
X61099Y324669D01*
X60947Y324373D01*
X60638Y323626D01*
X57374Y320362D01*
X53108Y318595D01*
X48492Y318595D01*
X44226Y320362D01*
X40962Y323626D01*
X39195Y327892D01*
X39195Y332508D01*
X40962Y336774D01*
X44226Y340038D01*
X46605Y341023D01*
X46613Y341028D01*
X46622Y341030D01*
X46792Y341123D01*
X46960Y341214D01*
X46967Y341219D01*
X46975Y341224D01*
X47123Y341348D01*
X47271Y341470D01*
X47276Y341477D01*
X47283Y341483D01*
X47403Y341633D01*
X47524Y341783D01*
X47528Y341791D01*
X47534Y341798D01*
X47621Y341967D01*
X47711Y342139D01*
X47714Y342148D01*
X47718Y342156D01*
X47770Y342338D01*
X47824Y342526D01*
X47825Y342535D01*
X47828Y342543D01*
X47842Y342734D01*
X47859Y342927D01*
X47858Y342936D01*
X47859Y342944D01*
X47835Y343135D01*
X47814Y343327D01*
X47811Y343335D01*
X47810Y343344D01*
X47750Y343526D01*
X47691Y343710D01*
X47686Y343718D01*
X47684Y343726D01*
X47588Y343894D01*
X47494Y344062D01*
X47489Y344068D01*
X47484Y344076D01*
X47357Y344222D01*
X47233Y344367D01*
X47225Y344373D01*
X47220Y344380D01*
X47067Y344497D01*
X46915Y344616D01*
X46907Y344620D01*
X46900Y344625D01*
X46605Y344777D01*
X44226Y345762D01*
X40962Y349026D01*
X39195Y353292D01*
X39195Y357908D01*
X40962Y362174D01*
X44226Y365438D01*
X46289Y366292D01*
X46289Y366293D01*
X46605Y366423D01*
X46613Y366428D01*
X46622Y366430D01*
X46792Y366523D01*
X46960Y366614D01*
X46967Y366619D01*
X46975Y366624D01*
X47123Y366748D01*
X47271Y366870D01*
X47276Y366877D01*
X47283Y366883D01*
X47403Y367033D01*
X47524Y367183D01*
X47528Y367191D01*
X47534Y367198D01*
X47621Y367367D01*
X47711Y367539D01*
X47714Y367548D01*
X47718Y367556D01*
X47770Y367738D01*
X47824Y367926D01*
X47825Y367935D01*
X47828Y367943D01*
X47842Y368134D01*
X47859Y368327D01*
X47858Y368336D01*
X47859Y368344D01*
X47835Y368535D01*
X47814Y368727D01*
X47811Y368735D01*
X47810Y368744D01*
X47750Y368926D01*
X47691Y369110D01*
X47686Y369118D01*
X47684Y369126D01*
X47588Y369294D01*
X47494Y369462D01*
X47489Y369468D01*
X47484Y369476D01*
X47357Y369622D01*
X47233Y369767D01*
X47225Y369773D01*
X47220Y369780D01*
X47067Y369897D01*
X46915Y370016D01*
X46907Y370020D01*
X46900Y370025D01*
X46605Y370177D01*
X44226Y371162D01*
X40962Y374426D01*
X39195Y378692D01*
X39195Y383308D01*
X40962Y387574D01*
X44226Y390838D01*
X46605Y391823D01*
X46613Y391828D01*
X46622Y391830D01*
X46792Y391923D01*
X46960Y392014D01*
X46967Y392019D01*
X46975Y392024D01*
X47123Y392148D01*
X47271Y392270D01*
X47276Y392277D01*
X47283Y392283D01*
X47403Y392433D01*
X47524Y392583D01*
X47528Y392591D01*
X47534Y392598D01*
X47621Y392767D01*
X47711Y392939D01*
X47714Y392948D01*
X47718Y392956D01*
X47770Y393138D01*
X47824Y393326D01*
X47825Y393335D01*
X47828Y393343D01*
X47842Y393534D01*
X47859Y393727D01*
X47858Y393736D01*
X47859Y393744D01*
X47835Y393935D01*
X47814Y394127D01*
X47811Y394135D01*
X47810Y394144D01*
X47750Y394326D01*
X47691Y394510D01*
X47686Y394518D01*
X47684Y394526D01*
X47588Y394694D01*
X47494Y394862D01*
X47489Y394868D01*
X47484Y394876D01*
X47357Y395022D01*
X47233Y395167D01*
X47225Y395173D01*
X47220Y395180D01*
X47067Y395297D01*
X46915Y395416D01*
X46907Y395420D01*
X46900Y395425D01*
X46605Y395577D01*
X44226Y396562D01*
X40962Y399826D01*
X39195Y404092D01*
X39195Y408708D01*
X40962Y412974D01*
X44226Y416238D01*
X46605Y417223D01*
X46613Y417228D01*
X46622Y417230D01*
X46792Y417323D01*
X46960Y417414D01*
X46967Y417419D01*
X46975Y417424D01*
X47123Y417548D01*
X47271Y417670D01*
X47276Y417677D01*
X47283Y417683D01*
X47403Y417833D01*
X47524Y417983D01*
X47528Y417991D01*
X47534Y417998D01*
X47621Y418167D01*
X47711Y418339D01*
X47714Y418348D01*
X47718Y418356D01*
X47770Y418538D01*
X47824Y418726D01*
X47825Y418735D01*
X47828Y418743D01*
X47842Y418934D01*
X47859Y419127D01*
X47858Y419136D01*
X47859Y419144D01*
X47835Y419335D01*
X47814Y419527D01*
X47811Y419535D01*
X47810Y419544D01*
X47750Y419726D01*
X47691Y419910D01*
X47686Y419918D01*
X47684Y419926D01*
X47588Y420094D01*
X47494Y420262D01*
X47489Y420268D01*
X47484Y420276D01*
X47357Y420422D01*
X47233Y420567D01*
X47225Y420573D01*
X47220Y420580D01*
X47067Y420697D01*
X46915Y420816D01*
X46907Y420820D01*
X46900Y420825D01*
X46605Y420977D01*
X44226Y421962D01*
X40962Y425226D01*
X39195Y429492D01*
X39195Y434108D01*
X40962Y438374D01*
X44226Y441638D01*
X46605Y442623D01*
X46613Y442628D01*
X46622Y442630D01*
X46791Y442723D01*
X46960Y442814D01*
X46967Y442819D01*
X46975Y442824D01*
X47122Y442947D01*
X47271Y443070D01*
X47276Y443077D01*
X47283Y443083D01*
X47404Y443234D01*
X47524Y443383D01*
X47528Y443390D01*
X47534Y443398D01*
X47623Y443571D01*
X47711Y443739D01*
X47714Y443748D01*
X47718Y443756D01*
X47771Y443942D01*
X47824Y444126D01*
X47825Y444135D01*
X47828Y444143D01*
X47842Y444334D01*
X47859Y444527D01*
X47858Y444536D01*
X47859Y444544D01*
X47835Y444736D01*
X47814Y444927D01*
X47811Y444935D01*
X47810Y444944D01*
X47750Y445127D01*
X47691Y445310D01*
X47686Y445318D01*
X47684Y445326D01*
X47588Y445493D01*
X47494Y445662D01*
X47489Y445668D01*
X47484Y445676D01*
X47359Y445820D01*
X47233Y445967D01*
X47225Y445973D01*
X47220Y445980D01*
X47067Y446097D01*
X46916Y446216D01*
X46908Y446220D01*
X46900Y446225D01*
X46605Y446377D01*
X44226Y447362D01*
X40962Y450626D01*
X39195Y454892D01*
X39195Y459508D01*
X40962Y463774D01*
X44226Y467038D01*
X46605Y468023D01*
X46613Y468028D01*
X46622Y468030D01*
X46791Y468123D01*
X46960Y468214D01*
X46967Y468219D01*
X46975Y468224D01*
X47122Y468347D01*
X47271Y468470D01*
X47276Y468477D01*
X47283Y468483D01*
X47404Y468634D01*
X47524Y468783D01*
X47528Y468790D01*
X47534Y468798D01*
X47623Y468971D01*
X47711Y469139D01*
X47714Y469148D01*
X47718Y469156D01*
X47771Y469342D01*
X47824Y469526D01*
X47825Y469535D01*
X47828Y469543D01*
X47842Y469734D01*
X47859Y469927D01*
X47858Y469936D01*
X47859Y469944D01*
X47835Y470136D01*
X47814Y470327D01*
X47811Y470335D01*
X47810Y470344D01*
X47750Y470527D01*
X47691Y470710D01*
X47686Y470718D01*
X47684Y470726D01*
X47588Y470893D01*
X47494Y471062D01*
X47489Y471068D01*
X47484Y471076D01*
X47359Y471220D01*
X47233Y471367D01*
X47225Y471373D01*
X47220Y471380D01*
X47067Y471497D01*
X46916Y471616D01*
X46908Y471620D01*
X46900Y471625D01*
X46605Y471777D01*
X44226Y472762D01*
X40962Y476026D01*
X39195Y480292D01*
X39195Y484908D01*
X40962Y489174D01*
X44226Y492438D01*
X46605Y493423D01*
X46613Y493428D01*
X46622Y493430D01*
X46791Y493523D01*
X46960Y493614D01*
X46967Y493619D01*
X46975Y493624D01*
X47122Y493747D01*
X47271Y493870D01*
X47276Y493877D01*
X47283Y493883D01*
X47404Y494034D01*
X47524Y494183D01*
X47528Y494190D01*
X47534Y494198D01*
X47623Y494371D01*
X47711Y494539D01*
X47714Y494548D01*
X47718Y494556D01*
X47771Y494742D01*
X47824Y494926D01*
X47825Y494935D01*
X47828Y494943D01*
X47842Y495134D01*
X47859Y495327D01*
X47858Y495336D01*
X47859Y495344D01*
X47835Y495536D01*
X47814Y495727D01*
X47811Y495735D01*
X47810Y495744D01*
X47750Y495927D01*
X47691Y496110D01*
X47686Y496118D01*
X47684Y496126D01*
X47589Y496293D01*
X47494Y496462D01*
X47489Y496468D01*
X47484Y496476D01*
X47359Y496620D01*
X47233Y496767D01*
X47225Y496773D01*
X47220Y496780D01*
X47067Y496897D01*
X46916Y497016D01*
X46908Y497020D01*
X46900Y497025D01*
X46605Y497177D01*
X44226Y498162D01*
X40962Y501426D01*
X39195Y505692D01*
X39195Y510308D01*
X40962Y514574D01*
X44226Y517838D01*
X46605Y518823D01*
X46613Y518828D01*
X46622Y518830D01*
X46791Y518923D01*
X46960Y519014D01*
X46967Y519019D01*
X46975Y519024D01*
X47122Y519147D01*
X47271Y519270D01*
X47276Y519277D01*
X47283Y519283D01*
X47404Y519434D01*
X47524Y519583D01*
X47528Y519590D01*
X47534Y519598D01*
X47623Y519771D01*
X47711Y519939D01*
X47714Y519948D01*
X47718Y519956D01*
X47771Y520142D01*
X47824Y520326D01*
X47825Y520335D01*
X47828Y520343D01*
X47842Y520534D01*
X47859Y520727D01*
X47858Y520736D01*
X47859Y520744D01*
X47835Y520936D01*
X47814Y521127D01*
X47811Y521135D01*
X47810Y521144D01*
X47750Y521327D01*
X47691Y521510D01*
X47686Y521518D01*
X47684Y521526D01*
X47588Y521693D01*
X47494Y521862D01*
X47489Y521868D01*
X47484Y521876D01*
X47359Y522020D01*
X47233Y522167D01*
X47225Y522173D01*
X47220Y522180D01*
X47067Y522297D01*
X46916Y522416D01*
X46908Y522420D01*
X46900Y522425D01*
X46605Y522577D01*
X44226Y523562D01*
X40962Y526826D01*
X39195Y531092D01*
X39195Y535708D01*
X40962Y539974D01*
X44226Y543238D01*
X46605Y544223D01*
X46613Y544228D01*
X46622Y544230D01*
X46791Y544323D01*
X46960Y544414D01*
X46967Y544419D01*
X46975Y544424D01*
X47122Y544547D01*
X47271Y544670D01*
X47276Y544677D01*
X47283Y544683D01*
X47404Y544834D01*
X47524Y544983D01*
X47528Y544990D01*
X47534Y544998D01*
X47623Y545171D01*
X47711Y545339D01*
X47714Y545348D01*
X47718Y545356D01*
X47771Y545542D01*
X47824Y545726D01*
X47825Y545735D01*
X47828Y545743D01*
X47842Y545934D01*
X47859Y546127D01*
X47858Y546136D01*
X47859Y546144D01*
X47835Y546336D01*
X47814Y546527D01*
X47811Y546535D01*
X47810Y546544D01*
X47750Y546725D01*
X47691Y546910D01*
X47686Y546918D01*
X47684Y546926D01*
X47588Y547093D01*
X47494Y547262D01*
X47489Y547268D01*
X47484Y547276D01*
X47359Y547420D01*
X47233Y547567D01*
X47225Y547573D01*
X47220Y547580D01*
X47067Y547697D01*
X46916Y547816D01*
X46908Y547820D01*
X46900Y547825D01*
X46605Y547977D01*
X44226Y548962D01*
X40962Y552226D01*
X39195Y556492D01*
X39195Y561108D01*
X40962Y565374D01*
X44226Y568638D01*
X46605Y569623D01*
X46613Y569628D01*
X46622Y569630D01*
X46791Y569723D01*
X46960Y569814D01*
X46967Y569819D01*
X46975Y569824D01*
X47122Y569947D01*
X47271Y570070D01*
X47276Y570077D01*
X47283Y570083D01*
X47404Y570234D01*
X47524Y570383D01*
X47528Y570390D01*
X47534Y570398D01*
X47623Y570571D01*
X47711Y570739D01*
X47714Y570748D01*
X47718Y570756D01*
X47770Y570941D01*
X47824Y571126D01*
X47825Y571135D01*
X47828Y571143D01*
X47842Y571331D01*
X47859Y571527D01*
X47858Y571536D01*
X47859Y571544D01*
X47835Y571736D01*
X47814Y571927D01*
X47811Y571935D01*
X47810Y571944D01*
X47750Y572127D01*
X47691Y572310D01*
X47686Y572318D01*
X47684Y572326D01*
X47588Y572493D01*
X47494Y572662D01*
X47489Y572668D01*
X47484Y572676D01*
X47359Y572820D01*
X47233Y572967D01*
X47225Y572973D01*
X47220Y572980D01*
X47067Y573097D01*
X46916Y573216D01*
X46908Y573220D01*
X46900Y573225D01*
X46605Y573377D01*
X44226Y574362D01*
X40962Y577626D01*
X39195Y581892D01*
X39195Y586508D01*
X40962Y590774D01*
X44226Y594038D01*
X46605Y595023D01*
X46613Y595028D01*
X46622Y595030D01*
X46791Y595123D01*
X46960Y595214D01*
X46967Y595219D01*
X46975Y595224D01*
X47122Y595347D01*
X47271Y595470D01*
X47276Y595477D01*
X47283Y595483D01*
X47404Y595634D01*
X47524Y595783D01*
X47528Y595790D01*
X47534Y595798D01*
X47623Y595971D01*
X47711Y596139D01*
X47714Y596148D01*
X47718Y596156D01*
X47771Y596342D01*
X47824Y596526D01*
X47825Y596535D01*
X47828Y596543D01*
X47842Y596734D01*
X47859Y596927D01*
X47858Y596936D01*
X47859Y596944D01*
X47835Y597136D01*
X47814Y597327D01*
X47811Y597335D01*
X47810Y597344D01*
X47750Y597527D01*
X47691Y597710D01*
X47686Y597718D01*
X47684Y597726D01*
X47588Y597893D01*
X47494Y598062D01*
X47489Y598068D01*
X47484Y598076D01*
X47359Y598220D01*
X47233Y598367D01*
X47225Y598373D01*
X47220Y598380D01*
X47067Y598497D01*
X46916Y598616D01*
X46908Y598620D01*
X46900Y598625D01*
X46605Y598777D01*
X44226Y599762D01*
X40962Y603026D01*
X39195Y607292D01*
X39195Y611908D01*
X40962Y616174D01*
X44226Y619438D01*
X46063Y620199D01*
X46575Y620411D01*
X46653Y620453D01*
X46736Y620486D01*
X46831Y620548D01*
X46930Y620601D01*
X46999Y620658D01*
X47073Y620706D01*
X47153Y620786D01*
X47241Y620858D01*
X47296Y620926D01*
X47360Y620989D01*
X47423Y621082D01*
X47494Y621170D01*
X47535Y621249D01*
X47585Y621322D01*
X47629Y621427D01*
X47681Y621527D01*
X47706Y621612D01*
X47740Y621694D01*
X47763Y621804D01*
X47794Y621913D01*
X47802Y622002D01*
X47819Y622089D01*
X47819Y622202D01*
X47829Y622314D01*
X47819Y622402D01*
X47819Y622491D01*
X47797Y622602D01*
X47784Y622714D01*
X47757Y622799D01*
X47739Y622886D01*
X47695Y622990D01*
X47661Y623098D01*
X47617Y623175D01*
X47583Y623257D01*
X47519Y623350D01*
X47464Y623449D01*
X47407Y623517D01*
X47357Y623590D01*
X47276Y623669D01*
X47203Y623755D01*
X47133Y623810D01*
X47069Y623872D01*
X46975Y623933D01*
X46886Y624003D01*
X46806Y624043D01*
X46732Y624091D01*
X46601Y624146D01*
X46526Y624184D01*
X46481Y624196D01*
X46426Y624219D01*
X46345Y624245D01*
X44718Y625075D01*
X43240Y626148D01*
X41948Y627440D01*
X40875Y628918D01*
X40046Y630545D01*
X39481Y632283D01*
X39446Y632501D01*
X50332Y632501D01*
X50350Y632502D01*
X50367Y632501D01*
X50550Y632522D01*
X50732Y632541D01*
X50749Y632546D01*
X50767Y632548D01*
X50808Y632561D01*
X50902Y632534D01*
X50920Y632532D01*
X50937Y632528D01*
X51268Y632501D01*
X62154Y632501D01*
X62119Y632283D01*
X61554Y630545D01*
X60725Y628918D01*
X59652Y627440D01*
X58360Y626148D01*
X56882Y625075D01*
X55255Y624245D01*
X55174Y624219D01*
X55093Y624184D01*
X55008Y624157D01*
X54909Y624103D01*
X54806Y624058D01*
X54733Y624007D01*
X54655Y623964D01*
X54569Y623891D01*
X54476Y623826D01*
X54415Y623762D01*
X54347Y623705D01*
X54276Y623616D01*
X54199Y623535D01*
X54151Y623460D01*
X54096Y623390D01*
X54044Y623289D01*
X53984Y623194D01*
X53953Y623111D01*
X53912Y623032D01*
X53881Y622923D01*
X53841Y622818D01*
X53827Y622730D01*
X53802Y622645D01*
X53794Y622532D01*
X53775Y622420D01*
X53778Y622331D01*
X53771Y622243D01*
X53785Y622131D01*
X53789Y622018D01*
X53809Y621931D01*
X53820Y621843D01*
X53855Y621736D01*
X53881Y621626D01*
X53919Y621545D01*
X53946Y621461D01*
X54002Y621363D01*
X54050Y621260D01*
X54102Y621189D01*
X54146Y621111D01*
X54220Y621026D01*
X54287Y620935D01*
X54352Y620875D01*
X54410Y620808D01*
X54500Y620739D01*
X54583Y620663D01*
X54659Y620617D01*
X54730Y620562D01*
X54855Y620498D01*
X54928Y620454D01*
X54971Y620438D01*
X55025Y620411D01*
X57374Y619438D01*
X60638Y616174D01*
X62405Y611908D01*
X62405Y607292D01*
X60638Y603026D01*
X57374Y599762D01*
X54995Y598777D01*
X54987Y598772D01*
X54978Y598770D01*
X54811Y598678D01*
X54640Y598586D01*
X54633Y598581D01*
X54625Y598576D01*
X54478Y598453D01*
X54329Y598330D01*
X54324Y598323D01*
X54317Y598317D01*
X54197Y598167D01*
X54076Y598017D01*
X54072Y598009D01*
X54066Y598003D01*
X53978Y597832D01*
X53889Y597661D01*
X53886Y597652D01*
X53882Y597644D01*
X53830Y597461D01*
X53776Y597275D01*
X53775Y597265D01*
X53772Y597257D01*
X53758Y597066D01*
X53741Y596873D01*
X53742Y596864D01*
X53741Y596856D01*
X53764Y596666D01*
X53786Y596473D01*
X53789Y596465D01*
X53790Y596456D01*
X53850Y596276D01*
X53909Y596090D01*
X53914Y596082D01*
X53916Y596074D01*
X54011Y595908D01*
X54106Y595739D01*
X54111Y595732D01*
X54116Y595724D01*
X54242Y595579D01*
X54367Y595433D01*
X54374Y595427D01*
X54380Y595420D01*
X54533Y595303D01*
X54684Y595184D01*
X54692Y595180D01*
X54700Y595175D01*
X54995Y595023D01*
X57374Y594038D01*
X60638Y590774D01*
X62405Y586508D01*
X62405Y581892D01*
X60638Y577626D01*
X57374Y574362D01*
X54995Y573377D01*
X54987Y573372D01*
X54978Y573370D01*
X54811Y573278D01*
X54640Y573186D01*
X54633Y573181D01*
X54625Y573176D01*
X54478Y573053D01*
X54329Y572930D01*
X54324Y572923D01*
X54317Y572917D01*
X54197Y572767D01*
X54076Y572617D01*
X54072Y572609D01*
X54066Y572603D01*
X53978Y572432D01*
X53889Y572261D01*
X53886Y572252D01*
X53882Y572244D01*
X53830Y572061D01*
X53776Y571875D01*
X53775Y571865D01*
X53772Y571857D01*
X53758Y571666D01*
X53741Y571473D01*
X53742Y571464D01*
X53741Y571456D01*
X53764Y571266D01*
X53786Y571073D01*
X53789Y571065D01*
X53790Y571056D01*
X53850Y570876D01*
X53909Y570690D01*
X53914Y570682D01*
X53916Y570674D01*
X54011Y570508D01*
X54106Y570339D01*
X54111Y570332D01*
X54116Y570324D01*
X54242Y570179D01*
X54367Y570033D01*
X54374Y570027D01*
X54380Y570020D01*
X54533Y569903D01*
X54684Y569784D01*
X54692Y569780D01*
X54700Y569775D01*
X54995Y569623D01*
X57374Y568638D01*
X60638Y565374D01*
X62405Y561108D01*
X62405Y556492D01*
X60638Y552226D01*
X57374Y548962D01*
X54995Y547977D01*
X54987Y547972D01*
X54978Y547970D01*
X54811Y547878D01*
X54640Y547786D01*
X54633Y547781D01*
X54625Y547776D01*
X54478Y547653D01*
X54329Y547530D01*
X54324Y547523D01*
X54317Y547517D01*
X54197Y547367D01*
X54076Y547217D01*
X54072Y547209D01*
X54066Y547203D01*
X53978Y547032D01*
X53889Y546861D01*
X53886Y546852D01*
X53882Y546844D01*
X53830Y546661D01*
X53776Y546475D01*
X53775Y546465D01*
X53772Y546457D01*
X53758Y546266D01*
X53741Y546073D01*
X53742Y546064D01*
X53741Y546056D01*
X53764Y545866D01*
X53786Y545673D01*
X53789Y545665D01*
X53790Y545656D01*
X53850Y545476D01*
X53909Y545290D01*
X53914Y545282D01*
X53916Y545274D01*
X54011Y545108D01*
X54106Y544939D01*
X54111Y544932D01*
X54116Y544924D01*
X54242Y544779D01*
X54367Y544633D01*
X54374Y544627D01*
X54380Y544620D01*
X54533Y544503D01*
X54684Y544384D01*
X54692Y544380D01*
X54700Y544375D01*
X54995Y544223D01*
X57374Y543238D01*
X60638Y539974D01*
X62405Y535708D01*
X62405Y531092D01*
X60638Y526826D01*
X57374Y523562D01*
X54995Y522577D01*
X54987Y522572D01*
X54978Y522570D01*
X54811Y522478D01*
X54640Y522386D01*
X54633Y522381D01*
X54625Y522376D01*
X54478Y522253D01*
X54329Y522130D01*
X54324Y522123D01*
X54317Y522117D01*
X54197Y521967D01*
X54076Y521817D01*
X54072Y521809D01*
X54066Y521803D01*
X53978Y521632D01*
X53889Y521461D01*
X53886Y521452D01*
X53882Y521444D01*
X53830Y521261D01*
X53776Y521075D01*
X53775Y521065D01*
X53772Y521057D01*
X53758Y520866D01*
X53741Y520673D01*
X53742Y520664D01*
X53741Y520656D01*
X53764Y520466D01*
X53786Y520273D01*
X53789Y520265D01*
X53790Y520256D01*
X53850Y520074D01*
X53909Y519890D01*
X53914Y519882D01*
X53916Y519874D01*
X54011Y519708D01*
X54106Y519539D01*
X54111Y519532D01*
X54116Y519524D01*
X54242Y519379D01*
X54367Y519233D01*
X54374Y519227D01*
X54380Y519220D01*
X54533Y519103D01*
X54684Y518984D01*
X54692Y518980D01*
X54700Y518975D01*
X54995Y518823D01*
X57374Y517838D01*
X60638Y514574D01*
X62405Y510308D01*
X62405Y505692D01*
X60638Y501426D01*
X57374Y498162D01*
X54995Y497177D01*
X54987Y497172D01*
X54978Y497170D01*
X54811Y497078D01*
X54640Y496986D01*
X54633Y496981D01*
X54625Y496976D01*
X54478Y496853D01*
X54329Y496730D01*
X54324Y496723D01*
X54317Y496717D01*
X54197Y496567D01*
X54076Y496417D01*
X54072Y496409D01*
X54066Y496403D01*
X53978Y496232D01*
X53889Y496061D01*
X53886Y496052D01*
X53882Y496044D01*
X53830Y495861D01*
X53776Y495675D01*
X53775Y495665D01*
X53772Y495657D01*
X53758Y495466D01*
X53741Y495273D01*
X53742Y495264D01*
X53741Y495256D01*
X53764Y495066D01*
X53786Y494873D01*
X53789Y494865D01*
X53790Y494856D01*
X53850Y494676D01*
X53909Y494490D01*
X53914Y494482D01*
X53916Y494474D01*
X54011Y494308D01*
X54106Y494139D01*
X54111Y494132D01*
X54116Y494124D01*
X54242Y493979D01*
X54367Y493833D01*
X54374Y493827D01*
X54380Y493820D01*
X54533Y493703D01*
X54684Y493584D01*
X54692Y493580D01*
X54700Y493575D01*
X54995Y493423D01*
X57374Y492438D01*
X60638Y489174D01*
X62405Y484908D01*
X62405Y480292D01*
X60638Y476026D01*
X57374Y472762D01*
X54995Y471777D01*
X54987Y471772D01*
X54978Y471770D01*
X54811Y471678D01*
X54640Y471586D01*
X54633Y471581D01*
X54625Y471576D01*
X54478Y471453D01*
X54329Y471330D01*
X54324Y471323D01*
X54317Y471317D01*
X54197Y471167D01*
X54076Y471017D01*
X54072Y471009D01*
X54066Y471003D01*
X53978Y470832D01*
X53889Y470661D01*
X53886Y470652D01*
X53882Y470644D01*
X53830Y470461D01*
X53776Y470275D01*
X53775Y470265D01*
X53772Y470257D01*
X53758Y470066D01*
X53741Y469873D01*
X53742Y469864D01*
X53741Y469856D01*
X53764Y469666D01*
X53786Y469473D01*
X53789Y469465D01*
X53790Y469456D01*
X53850Y469276D01*
X53909Y469090D01*
X53914Y469082D01*
X53916Y469074D01*
X54011Y468908D01*
X54106Y468739D01*
X54111Y468732D01*
X54116Y468724D01*
X54242Y468579D01*
X54367Y468433D01*
X54374Y468427D01*
X54380Y468420D01*
X54533Y468303D01*
X54684Y468184D01*
X54692Y468180D01*
X54700Y468175D01*
X54995Y468023D01*
X57374Y467038D01*
X60638Y463774D01*
X62405Y459508D01*
X62405Y454892D01*
X60638Y450626D01*
X57374Y447362D01*
X54995Y446377D01*
X54987Y446372D01*
X54978Y446370D01*
X54811Y446278D01*
X54640Y446186D01*
X54633Y446181D01*
X54625Y446176D01*
X54478Y446053D01*
X54329Y445930D01*
X54324Y445923D01*
X54317Y445917D01*
X54197Y445767D01*
X54076Y445617D01*
X54072Y445609D01*
X54066Y445603D01*
X53978Y445432D01*
X53889Y445261D01*
X53886Y445252D01*
X53882Y445244D01*
X53830Y445061D01*
X53776Y444875D01*
X53775Y444865D01*
X53772Y444857D01*
X53758Y444666D01*
X53741Y444473D01*
X53742Y444464D01*
X53741Y444456D01*
X53764Y444266D01*
X53786Y444073D01*
X53789Y444065D01*
X53790Y444056D01*
X53850Y443876D01*
X53909Y443690D01*
X53914Y443682D01*
X53916Y443674D01*
X54011Y443508D01*
X54106Y443339D01*
X54111Y443332D01*
X54116Y443324D01*
X54242Y443179D01*
X54367Y443033D01*
X54374Y443027D01*
X54380Y443020D01*
X54533Y442903D01*
X54684Y442784D01*
X54692Y442780D01*
X54700Y442775D01*
X54995Y442623D01*
X57374Y441638D01*
X60638Y438374D01*
X62405Y434108D01*
X62405Y429492D01*
X60638Y425226D01*
X57374Y421962D01*
X54995Y420977D01*
X54987Y420972D01*
X54978Y420970D01*
X54810Y420878D01*
X54640Y420786D01*
X54633Y420781D01*
X54625Y420776D01*
X54479Y420653D01*
X54329Y420530D01*
X54324Y420523D01*
X54317Y420517D01*
X54197Y420367D01*
X54076Y420217D01*
X54072Y420209D01*
X54066Y420203D01*
X53978Y420032D01*
X53889Y419861D01*
X53886Y419852D01*
X53882Y419844D01*
X53830Y419660D01*
X53776Y419474D01*
X53775Y419466D01*
X53772Y419457D01*
X53758Y419266D01*
X53741Y419073D01*
X53742Y419064D01*
X53741Y419056D01*
X53764Y418866D01*
X53786Y418673D01*
X53789Y418665D01*
X53790Y418656D01*
X53850Y418474D01*
X53909Y418290D01*
X53914Y418282D01*
X53916Y418274D01*
X54012Y418106D01*
X54106Y417938D01*
X54111Y417932D01*
X54116Y417924D01*
X54242Y417779D01*
X54367Y417633D01*
X54375Y417627D01*
X54380Y417620D01*
X54534Y417503D01*
X54684Y417384D01*
X54692Y417380D01*
X54700Y417375D01*
X54995Y417223D01*
X57374Y416238D01*
X60638Y412974D01*
X62405Y408708D01*
X62405Y404092D01*
X60638Y399826D01*
X57374Y396562D01*
X54995Y395577D01*
X54987Y395572D01*
X54978Y395570D01*
X54810Y395478D01*
X54640Y395386D01*
X54633Y395381D01*
X54625Y395376D01*
X54479Y395253D01*
X54329Y395130D01*
X54324Y395123D01*
X54317Y395117D01*
X54197Y394967D01*
X54076Y394817D01*
X54072Y394809D01*
X54066Y394803D01*
X53978Y394632D01*
X53889Y394461D01*
X53886Y394452D01*
X53882Y394444D01*
X53830Y394260D01*
X53776Y394074D01*
X53775Y394066D01*
X53772Y394057D01*
X53758Y393866D01*
X53741Y393673D01*
X53742Y393664D01*
X53741Y393656D01*
X53764Y393466D01*
X53786Y393273D01*
X53789Y393265D01*
X53790Y393256D01*
X53850Y393074D01*
X53909Y392890D01*
X53914Y392882D01*
X53916Y392874D01*
X54012Y392706D01*
X54106Y392538D01*
X54111Y392532D01*
X54116Y392524D01*
X54242Y392379D01*
X54367Y392233D01*
X54375Y392227D01*
X54380Y392220D01*
X54534Y392103D01*
X54684Y391984D01*
X54692Y391980D01*
X54700Y391975D01*
X54995Y391823D01*
X57374Y390838D01*
X60638Y387574D01*
X62405Y383308D01*
X62405Y378692D01*
X60638Y374426D01*
X57374Y371162D01*
X54995Y370177D01*
X54987Y370172D01*
X54978Y370170D01*
X54810Y370078D01*
X54640Y369986D01*
X54633Y369981D01*
X54625Y369976D01*
X54479Y369853D01*
X54329Y369730D01*
X54324Y369723D01*
X54317Y369717D01*
X54197Y369567D01*
X54076Y369417D01*
X54072Y369409D01*
X54066Y369403D01*
X53978Y369232D01*
X53889Y369061D01*
X53886Y369052D01*
X53882Y369044D01*
X53830Y368860D01*
X53776Y368674D01*
X53775Y368666D01*
X53772Y368657D01*
X53758Y368466D01*
X53741Y368273D01*
X53742Y368264D01*
X53741Y368256D01*
X53764Y368066D01*
X53786Y367873D01*
X53789Y367865D01*
X53790Y367856D01*
X53850Y367674D01*
X53909Y367490D01*
X53914Y367482D01*
X53916Y367474D01*
X54014Y367303D01*
X54106Y367138D01*
X54111Y367132D01*
X54116Y367124D01*
X54242Y366979D01*
X54367Y366833D01*
X54375Y366827D01*
X54380Y366820D01*
X54534Y366703D01*
X54684Y366584D01*
X54692Y366580D01*
X54700Y366575D01*
X54995Y366423D01*
X57374Y365438D01*
X60638Y362174D01*
X62405Y357908D01*
X62405Y353292D01*
X60638Y349026D01*
X57374Y345762D01*
X54995Y344777D01*
X54987Y344772D01*
X54978Y344770D01*
X54810Y344678D01*
X54640Y344586D01*
X54633Y344581D01*
X54625Y344576D01*
X54479Y344453D01*
X54329Y344330D01*
X54324Y344323D01*
X54317Y344317D01*
X54197Y344167D01*
X54076Y344017D01*
X54072Y344009D01*
X54066Y344003D01*
X53978Y343831D01*
X53889Y343661D01*
X53886Y343652D01*
X53882Y343644D01*
X53830Y343460D01*
X53776Y343274D01*
X53775Y343266D01*
X53772Y343257D01*
X53758Y343066D01*
X53741Y342873D01*
X53742Y342864D01*
X53741Y342856D01*
X53764Y342666D01*
X53786Y342473D01*
X53789Y342465D01*
X53790Y342456D01*
X53850Y342274D01*
X53909Y342090D01*
X53914Y342082D01*
X53916Y342074D01*
X54012Y341906D01*
X54106Y341738D01*
X54111Y341732D01*
X54116Y341724D01*
X54242Y341579D01*
X54367Y341433D01*
X54375Y341427D01*
X54380Y341420D01*
X54534Y341303D01*
X54684Y341184D01*
X54692Y341180D01*
X54700Y341175D01*
X54995Y341023D01*
X57374Y340038D01*
X60638Y336774D01*
X60947Y336027D01*
X60958Y336007D01*
X60965Y335986D01*
X61053Y335829D01*
X61138Y335672D01*
X61152Y335655D01*
X61163Y335635D01*
X61280Y335499D01*
X61394Y335361D01*
X61411Y335347D01*
X61426Y335330D01*
X61568Y335221D01*
X61707Y335108D01*
X61726Y335097D01*
X61744Y335084D01*
X61904Y335004D01*
X62063Y334921D01*
X62085Y334914D01*
X62105Y334904D01*
X62278Y334858D01*
X62450Y334808D01*
X62472Y334806D01*
X62493Y334800D01*
X62824Y334773D01*
X82296Y334773D01*
X82314Y334775D01*
X82332Y334773D01*
X82514Y334794D01*
X82697Y334813D01*
X82714Y334818D01*
X82731Y334820D01*
X82906Y334877D01*
X83082Y334931D01*
X83097Y334939D01*
X83114Y334945D01*
X83274Y335035D01*
X83436Y335123D01*
X83449Y335134D01*
X83465Y335143D01*
X83604Y335263D01*
X83745Y335380D01*
X83756Y335394D01*
X83770Y335406D01*
X83882Y335551D01*
X83997Y335694D01*
X84005Y335710D01*
X84016Y335724D01*
X84098Y335889D01*
X84183Y336051D01*
X84188Y336068D01*
X84196Y336084D01*
X84243Y336263D01*
X84294Y336438D01*
X84296Y336456D01*
X84300Y336473D01*
X84327Y336804D01*
X84327Y789988D01*
X85023Y791668D01*
X86310Y792955D01*
X87751Y793551D01*
X87754Y793553D01*
X87759Y793555D01*
X87931Y793648D01*
X88105Y793742D01*
X88109Y793744D01*
X88113Y793747D01*
X88262Y793871D01*
X88416Y793998D01*
X88419Y794001D01*
X88422Y794004D01*
X88545Y794157D01*
X88670Y794311D01*
X88672Y794315D01*
X88674Y794318D01*
X88765Y794493D01*
X88857Y794667D01*
X88858Y794671D01*
X88860Y794675D01*
X88914Y794865D01*
X88970Y795054D01*
X88970Y795058D01*
X88971Y795062D01*
X88988Y795260D01*
X89004Y795455D01*
X89004Y795459D01*
X89004Y795464D01*
X88981Y795661D01*
X88959Y795855D01*
X88958Y795859D01*
X88957Y795863D01*
X88896Y796052D01*
X88836Y796238D01*
X88834Y796242D01*
X88832Y796246D01*
X88735Y796419D01*
X88640Y796590D01*
X88637Y796593D01*
X88635Y796597D01*
X88506Y796746D01*
X88378Y796895D01*
X88374Y796898D01*
X88371Y796902D01*
X88219Y797020D01*
X88061Y797144D01*
X88057Y797146D01*
X88053Y797148D01*
X87878Y797235D01*
X87701Y797324D01*
X87697Y797326D01*
X87693Y797328D01*
X87500Y797379D01*
X87313Y797431D01*
X87308Y797431D01*
X87304Y797432D01*
X86973Y797459D01*
X4572Y797459D01*
X4554Y797457D01*
X4536Y797459D01*
X4354Y797438D01*
X4171Y797419D01*
X4154Y797414D01*
X4137Y797412D01*
X3962Y797355D01*
X3786Y797301D01*
X3771Y797293D01*
X3754Y797287D01*
X3594Y797197D01*
X3432Y797109D01*
X3419Y797098D01*
X3403Y797089D01*
X3264Y796969D01*
X3123Y796852D01*
X3112Y796838D01*
X3098Y796826D01*
X2986Y796681D01*
X2871Y796538D01*
X2863Y796522D01*
X2852Y796508D01*
X2770Y796343D01*
X2685Y796181D01*
X2680Y796164D01*
X2672Y796148D01*
X2625Y795969D01*
X2574Y795794D01*
X2572Y795776D01*
X2568Y795759D01*
X2541Y795428D01*
X2541Y4572D01*
X2543Y4554D01*
X2541Y4536D01*
X2562Y4354D01*
X2581Y4171D01*
X2586Y4154D01*
X2588Y4137D01*
X2645Y3962D01*
X2699Y3786D01*
X2707Y3771D01*
X2713Y3754D01*
X2803Y3594D01*
X2891Y3432D01*
X2902Y3419D01*
X2911Y3403D01*
X3031Y3264D01*
X3148Y3123D01*
X3162Y3112D01*
X3174Y3098D01*
X3319Y2986D01*
X3462Y2871D01*
X3478Y2863D01*
X3492Y2852D01*
X3657Y2770D01*
X3819Y2685D01*
X3836Y2680D01*
X3852Y2672D01*
X4031Y2625D01*
X4206Y2574D01*
X4224Y2572D01*
X4241Y2568D01*
X4572Y2541D01*
X423928Y2541D01*
X423946Y2543D01*
G37*
%LPC*%
G36*
X79862Y100101D02*
X79862Y100101D01*
X68591Y104524D01*
X59125Y112073D01*
X52305Y122077D01*
X48736Y133646D01*
X48736Y145754D01*
X52305Y157323D01*
X59125Y167327D01*
X68591Y174876D01*
X79862Y179299D01*
X91935Y180204D01*
X103739Y177510D01*
X114225Y171456D01*
X122460Y162581D01*
X127713Y151672D01*
X129518Y139700D01*
X127713Y127728D01*
X122460Y116819D01*
X114225Y107944D01*
X103739Y101890D01*
X91935Y99196D01*
X79862Y100101D01*
G37*
%LPD*%
%LPC*%
G36*
X143362Y544601D02*
X143362Y544601D01*
X132091Y549024D01*
X122625Y556573D01*
X115805Y566577D01*
X112236Y578146D01*
X112236Y590254D01*
X115805Y601823D01*
X122625Y611827D01*
X132091Y619376D01*
X143362Y623799D01*
X155435Y624704D01*
X167239Y622010D01*
X177725Y615956D01*
X185960Y607081D01*
X191213Y596172D01*
X193018Y584200D01*
X191213Y572228D01*
X185960Y561319D01*
X177725Y552444D01*
X167239Y546390D01*
X155435Y543696D01*
X143362Y544601D01*
G37*
%LPD*%
%LPC*%
G36*
X128479Y218122D02*
X128479Y218122D01*
X128551Y218577D01*
X129107Y220288D01*
X129924Y221891D01*
X130981Y223347D01*
X132253Y224619D01*
X133709Y225676D01*
X135312Y226493D01*
X137023Y227049D01*
X137478Y227121D01*
X137478Y218122D01*
X128479Y218122D01*
G37*
%LPD*%
%LPC*%
G36*
X137023Y204751D02*
X137023Y204751D01*
X135312Y205307D01*
X133709Y206124D01*
X132253Y207181D01*
X130981Y208453D01*
X129924Y209909D01*
X129107Y211512D01*
X128551Y213223D01*
X128479Y213678D01*
X137478Y213678D01*
X137478Y204679D01*
X137023Y204751D01*
G37*
%LPD*%
D10*
X50800Y711200D03*
X50800Y685800D03*
X50800Y660400D03*
X50800Y635000D03*
X50800Y609600D03*
X50800Y584200D03*
X50800Y558800D03*
X50800Y533400D03*
X50800Y508000D03*
X50800Y482600D03*
X50800Y457200D03*
X50800Y431800D03*
X50800Y406400D03*
X50800Y381000D03*
X50800Y355600D03*
X50800Y330200D03*
X254000Y330200D03*
X254000Y355600D03*
X254000Y381000D03*
X254000Y406400D03*
X254000Y431800D03*
X254000Y457200D03*
X254000Y482600D03*
X254000Y508000D03*
X254000Y533400D03*
X254000Y558800D03*
X254000Y584200D03*
X254000Y609600D03*
D11*
X215900Y38100D03*
X241300Y38100D03*
X266700Y38100D03*
X292100Y38100D03*
X317500Y38100D03*
X342900Y38100D03*
X190500Y38100D03*
X165100Y38100D03*
X139700Y38100D03*
X114300Y38100D03*
X88900Y38100D03*
X63500Y38100D03*
X215900Y215900D03*
X241300Y215900D03*
X190500Y215900D03*
X266700Y215900D03*
X165100Y215900D03*
X139700Y215900D03*
D12*
X295656Y762000D02*
X313944Y762000D01*
X313944Y736600D02*
X295656Y736600D01*
X295656Y711200D02*
X313944Y711200D01*
X313944Y685800D02*
X295656Y685800D01*
X295656Y660400D02*
X313944Y660400D01*
X313944Y635000D02*
X295656Y635000D01*
X295656Y609600D02*
X313944Y609600D01*
X313944Y584200D02*
X295656Y584200D01*
X295656Y558800D02*
X313944Y558800D01*
D13*
X50800Y685800D02*
X25400Y685800D01*
X25400Y279400D01*
X266700Y279400D01*
X266700Y215900D01*
X292100Y190500D02*
X215900Y190500D01*
X215900Y215900D01*
X292100Y190500D02*
X292100Y304800D01*
X228600Y304800D01*
X228600Y355600D01*
X254000Y355600D01*
X304800Y177800D02*
X190500Y177800D01*
X190500Y215900D01*
X304800Y177800D02*
X304800Y330200D01*
X254000Y330200D01*
X88900Y330200D02*
X50800Y330200D01*
X88900Y330200D02*
X88900Y789078D01*
X279400Y789078D01*
X279400Y584200D01*
X304800Y584200D01*
X304800Y558800D02*
X254000Y558800D01*
X342900Y38100D02*
X406400Y38100D01*
X406400Y762000D01*
X304800Y762000D01*
X292100Y88900D02*
X292100Y38100D01*
X292100Y88900D02*
X374650Y88900D01*
X374650Y711200D01*
X304800Y711200D01*
X266700Y101600D02*
X266700Y38100D01*
X266700Y101600D02*
X361950Y101600D01*
X361950Y685800D01*
X304800Y685800D01*
X241300Y114300D02*
X241300Y38100D01*
X241300Y114300D02*
X349250Y114300D01*
X349250Y660400D01*
X304800Y660400D01*
X215900Y127000D02*
X215900Y38100D01*
X215900Y127000D02*
X336550Y127000D01*
X336550Y635000D01*
X304800Y635000D01*
X317500Y63500D02*
X317500Y38100D01*
X317500Y63500D02*
X393700Y63500D01*
X393700Y736600D01*
X304800Y736600D01*
M02*
